<svg width="49" height="55" viewBox="0 0 49 55" fill="none" xmlns="http://www.w3.org/2000/svg">
<path fill-rule="evenodd" clip-rule="evenodd" d="M10.6661 0.672124C10.4094 0.738221 10.1441 0.840619 10.0765 0.899796C10.009 0.958972 9.92557 1.00743 9.89103 1.00743C9.7588 1.00743 9.46198 1.41193 9.37066 1.71652C9.2963 1.96481 9.29506 2.25168 9.36498 3.0181L9.45482 4.00126L9.1146 4.31229C8.68889 4.70149 8.60481 4.86931 8.60481 5.3302C8.60481 5.60485 8.65529 5.76349 8.8051 5.95991L9.00547 6.22243L8.75602 6.5065C8.3811 6.93341 8.21955 7.35292 8.2176 7.9051C8.21519 8.58272 8.31016 8.74082 8.88934 9.02286L9.38264 9.26314L9.38241 10.0926C9.38217 10.9109 9.16788 12.4897 8.99528 12.9438C8.79055 13.4828 8.15592 13.979 6.73139 14.7142C4.54319 15.8434 3.83388 16.3831 2.48559 17.9444C2.19359 18.2827 1.67057 19.367 1.39997 20.1955C0.794266 22.0498 0.676737 23.1528 0.672925 27.0187C0.66748 32.4999 0.963991 37.297 1.41498 39.022C1.72253 40.1987 1.89716 40.4455 2.5766 40.664C2.74772 40.719 3.01024 40.8104 3.15997 40.8671C3.88981 41.1435 4.66072 41.3259 5.25802 41.3633L5.91708 41.4046L6.27955 42.4932C6.47891 43.092 6.75551 43.8268 6.89427 44.1262C7.03296 44.4256 7.40321 45.4404 7.71699 46.3813C9.50966 51.757 9.79232 52.4841 10.1914 52.7454C10.7228 53.0935 12.4164 52.7428 14.1137 51.933C15.4542 51.2933 16.5841 50.8417 16.963 50.794C17.1361 50.7722 17.3302 50.7119 17.3943 50.6599C17.4585 50.608 17.8785 50.4056 18.3277 50.2101C20.1166 49.4318 20.4776 49.2616 21.0973 48.9038C21.4517 48.6992 21.9708 48.4225 22.251 48.2888C22.6486 48.0991 22.7712 47.9997 22.8099 47.8356C22.8809 47.5351 23.1303 47.2849 23.3117 47.3323C23.3945 47.354 23.5129 47.3297 23.5748 47.2783C23.6367 47.227 23.7572 47.2071 23.8427 47.2343C23.9282 47.2614 24.1042 47.2287 24.2338 47.1617C24.3943 47.0787 24.5671 47.0556 24.7759 47.0889C25.0329 47.13 25.0987 47.1118 25.1834 46.9763C25.2522 46.8661 25.3366 46.8277 25.4482 46.8557C25.5427 46.8794 25.6527 46.8477 25.7083 46.7808C25.7734 46.7024 25.8873 46.6783 26.0599 46.7063C26.2148 46.7314 26.4073 46.7001 26.5491 46.6268C26.7223 46.5372 26.8057 46.5286 26.8705 46.5935C26.9353 46.6582 26.9937 46.6502 27.0959 46.5623C27.3389 46.3535 27.4762 46.3492 27.6859 46.5436C27.9133 46.7544 28.0507 46.7843 28.0507 46.6229C28.0507 46.4731 28.2809 46.3986 28.4107 46.5063C28.4728 46.5578 28.6204 46.5746 28.7621 46.5462C28.902 46.5183 29.0512 46.5347 29.1114 46.5846C29.1693 46.6326 29.3042 46.655 29.4114 46.6345C29.5186 46.6141 29.6063 46.6199 29.6063 46.6475C29.6063 46.7914 30.0781 46.9491 30.5253 46.9548C30.8937 46.9595 31.0663 47.0004 31.2164 47.1183C31.3263 47.2048 31.4489 47.2756 31.4888 47.2756C31.5287 47.2756 31.6787 47.3652 31.8222 47.4746C31.9658 47.584 32.2065 47.7076 32.357 47.7492C32.5077 47.7908 32.6511 47.8881 32.6757 47.9656C32.7414 48.1728 33.0472 48.4349 33.252 48.4594C33.4469 48.4828 34.1918 49.1535 34.2017 49.3144C34.205 49.3692 34.2028 49.6281 34.1967 49.8898L34.1856 50.3655L34.5989 50.7159C35.0905 51.1326 35.8048 51.593 36.918 52.2105C37.3672 52.4596 37.7872 52.7074 37.8514 52.761C38.2262 53.0744 40.0796 54.0408 40.3058 54.0408C40.4776 54.0408 40.7149 53.6661 41.2874 52.4911C41.5906 51.8691 42.0791 50.931 42.3731 50.4065C42.6672 49.882 43.0677 49.0942 43.2633 48.6558C43.4589 48.2174 43.8934 47.2989 44.229 46.6146C44.5645 45.9303 44.9793 44.968 45.1507 44.4762C45.779 42.6733 46.1173 41.8406 46.7937 40.4326C47.5001 38.9622 47.6925 38.5142 47.9642 37.7079C48.1479 37.1628 48.1543 37.0134 48.0088 36.6653C47.9175 36.4469 47.7013 36.2846 46.7327 35.7076C45.7003 35.0926 45.4096 34.9613 44.1986 34.563C42.8518 34.1202 42.5572 34.0745 42.1294 34.242C42.0102 34.2887 41.9662 34.2265 41.1613 32.871L40.8038 32.2691L39.8721 32.3192C39.1377 32.3587 38.9403 32.348 38.9403 32.2691C38.9403 32.2139 38.7252 31.8078 38.4623 31.3665C38.1117 30.7782 37.9273 30.5443 37.7711 30.4899C37.5699 30.4197 36.0358 30.495 35.6151 30.5957C35.5189 30.6187 35.4401 30.6057 35.4401 30.5669C35.4401 30.4379 34.269 29.1194 34.0941 29.0516C33.9679 29.0026 33.7229 29.0595 33.1731 29.2655C32.7611 29.4197 32.3987 29.5459 32.368 29.5459C32.3373 29.5459 32.056 29.2976 31.7429 28.9941C31.086 28.3573 31.0315 28.3506 30.2653 28.8118C30.0208 28.959 29.7853 29.0794 29.7418 29.0794C29.6983 29.0794 29.3469 28.8519 28.9608 28.5739C28.5748 28.2959 28.1838 28.0685 28.0921 28.0685C28.0004 28.0685 27.6862 28.2657 27.3939 28.5067L26.8624 28.9451L26.2703 28.6931C25.303 28.2815 24.8609 28.1387 24.752 28.2026C24.6955 28.2357 24.5134 28.4203 24.3471 28.6128C23.9919 29.0238 23.8167 29.0669 23.3885 28.8486L23.0725 28.6874V26.979C23.0725 24.7329 22.7944 21.679 22.4776 20.4478C22.0888 18.9363 21.7828 18.3144 21.071 17.5897C20.4398 16.947 20.1719 16.7478 19.4556 16.3881C19.1561 16.2378 18.7186 16.0111 18.4833 15.8844C18.248 15.7577 17.933 15.6061 17.7832 15.5475C17.6335 15.489 17.4935 15.4188 17.4721 15.3915C17.4507 15.3643 17.24 15.2484 17.0038 15.134C16.3781 14.8309 15.6686 14.2246 15.3083 13.6851C14.8055 12.9326 14.7319 12.5703 14.6329 10.3656L14.5905 9.42038L15.1052 9.16977C15.7518 8.85483 15.944 8.58396 15.8734 8.08707C15.8018 7.58208 15.5677 7.139 15.133 6.68573C14.9222 6.4659 14.7497 6.27065 14.7497 6.25175C14.7497 6.23293 14.8129 6.21745 14.8901 6.21745C14.9673 6.21745 15.1645 6.09467 15.3285 5.94451C15.6257 5.67242 15.6264 5.67025 15.5868 5.17701C15.5283 4.44854 15.372 4.27201 14.4191 3.85824L14.1274 3.73158V2.4646C14.1274 1.02266 14.1039 0.951356 13.5438 0.696298C13.2547 0.56457 13.0445 0.541723 12.1677 0.546466C11.5054 0.550043 10.9647 0.595295 10.6661 0.672124ZM13.342 1.13013C13.906 1.35571 13.8256 1.67672 13.136 1.95278C12.3453 2.26927 10.9571 2.17425 10.0439 1.74104L9.76565 1.609L10.0214 1.44008C10.162 1.34716 10.4347 1.22507 10.6272 1.1687C10.8197 1.1124 11.0122 1.05579 11.055 1.04304C11.0978 1.03021 11.5608 1.01693 12.0841 1.01358C12.7808 1.00907 13.1173 1.04023 13.342 1.13013ZM10.0477 2.16243C10.2078 2.30605 11.5292 2.56321 12.0999 2.56173C12.4822 2.56072 13.1299 2.41078 13.4182 2.2565C13.5161 2.20409 13.6129 2.17789 13.6333 2.19826C13.6739 2.23893 13.5265 4.36166 13.4635 4.64308C13.4378 4.7577 13.2969 4.87848 13.0563 4.99185C12.7418 5.14015 12.5586 5.16519 11.7939 5.16442C11.0617 5.16372 10.8429 5.13571 10.5883 5.01005C10.3054 4.87054 10.2717 4.8214 10.2169 4.46782C10.1525 4.0525 9.9601 3.04493 9.84288 2.50877C9.80368 2.32945 9.77156 2.16326 9.77156 2.13939C9.77156 2.07221 9.96516 2.08832 10.0477 2.16243ZM14.5606 4.51036C15.1773 4.93463 15.3083 5.44684 14.8858 5.78222C14.7467 5.89264 14.5516 6.05703 14.4521 6.1477C14.2708 6.31279 13.6197 6.52585 13.2913 6.52756C13.0591 6.52881 13.0631 6.74552 13.2965 6.804C13.3956 6.82888 13.7015 6.79731 13.9764 6.73378C14.3402 6.64979 14.504 6.6415 14.5783 6.70316C14.7671 6.85985 15.3006 7.82937 15.3435 8.094C15.4323 8.64128 14.9021 8.98445 13.6024 9.22108C13.0533 9.321 12.8051 9.39915 12.8051 9.47194C12.8051 9.55522 12.933 9.56959 13.4079 9.53966C13.7394 9.51882 14.0895 9.47597 14.1858 9.44463L14.3608 9.38756V10.6992C14.3608 12.4 14.517 13.1783 15.0067 13.9159C15.5384 14.7169 16.0097 15.0869 17.4332 15.8214C18.8843 16.57 19.8167 17.131 20.1734 17.47C20.5124 17.792 21.1681 18.6935 21.3777 19.1259C22.0313 20.4742 22.4502 23.4183 22.4502 26.6639V28.3136L21.8864 28.8945C21.2514 29.5485 21.2129 29.5563 20.5834 29.1578C20.0777 28.8375 19.3343 28.526 19.1872 28.5727C19.0622 28.6123 18.7768 29.0473 18.3617 29.8308C18.1272 30.2733 18.1711 30.2692 17.489 29.9116C17.2629 29.7931 16.9479 29.6886 16.7889 29.6794C16.5061 29.663 16.4939 29.674 16.2277 30.1861C16.0495 30.5288 15.8884 30.7355 15.761 30.7847C15.391 30.9275 14.9429 31.0225 14.633 31.0238C14.4619 31.0245 14.1644 31.0745 13.9719 31.1349C13.5206 31.2765 11.9038 32.0733 11.595 32.3064C11.1122 32.6709 10.1015 33.1405 9.41243 33.3206C8.74497 33.495 8.08327 33.7256 7.77074 33.8928C7.18557 34.2059 5.38753 35.0642 5.15932 35.1396C4.80735 35.2557 4.50508 35.605 4.43538 35.9764C4.33886 36.4912 4.75469 38.1283 5.48577 40.1115C5.66506 40.5977 5.79442 41.013 5.77318 41.0342C5.75202 41.0554 5.39157 41.0191 4.97232 40.9536C3.35357 40.7006 2.1666 40.0835 2.02581 39.4216C2.00302 39.3147 1.95324 39.0873 1.91513 38.9162C1.72425 38.06 1.5938 36.7418 1.36084 33.3174C1.2283 31.369 1.22698 24.0537 1.35898 22.9751C1.60446 20.9683 2.06478 19.3819 2.66752 18.4649C2.95245 18.0314 3.6959 17.2346 4.28783 16.7283C4.84025 16.2559 5.75288 15.7001 7.15376 14.9829C8.12169 14.4873 9.01099 13.7963 9.22497 13.3732C9.45848 12.9116 9.71306 10.9741 9.64913 10.1444C9.5967 9.46314 9.66461 9.33763 10.0201 9.45933C10.6758 9.68375 12.1051 9.66837 12.1051 9.43696C12.1051 9.35041 11.9329 9.32738 11.2689 9.3252C10.691 9.32326 10.3727 9.28811 10.2383 9.21128C10.1313 9.15016 9.95442 9.09891 9.84529 9.09736C9.71042 9.09549 9.50188 8.9521 9.19526 8.65039C8.75158 8.21391 8.74435 8.19983 8.77904 7.83887C8.8247 7.36444 9.4185 6.34023 9.60619 6.41224C9.67394 6.43821 9.98974 6.52927 10.3081 6.61458C10.9905 6.79739 11.4305 6.78683 11.4684 6.58683C11.4892 6.47664 11.4375 6.45044 11.1968 6.44911C10.8008 6.44694 9.63038 6.09902 9.43973 5.92677C9.35627 5.85142 9.22015 5.69441 9.13708 5.57793C8.96619 5.33826 9.01278 5.17895 9.36382 4.8025L9.55936 4.59278L9.7238 4.83555C10.0965 5.38579 11.3212 5.70507 12.3778 5.52762C12.8881 5.44185 13.5108 5.19108 13.7975 4.9557C13.8514 4.91145 13.9171 4.73991 13.9436 4.57436C14.0024 4.20639 14.1034 4.19589 14.5606 4.51036ZM28.6451 29.0004C28.9189 29.2564 29.2471 29.5197 29.3745 29.5857C29.502 29.6515 29.6062 29.7308 29.606 29.7618C29.6058 29.7927 29.5548 30.133 29.4927 30.518C29.3095 31.652 28.9235 34.7713 28.795 36.1557C28.569 38.5906 28.3878 42.8432 28.5101 42.8432C28.609 42.8432 28.6493 42.4135 28.7914 39.8493C28.9271 37.3997 29.0983 35.6179 29.4974 32.5009C29.648 31.3247 29.7916 30.195 29.8166 29.9904C29.8644 29.5987 29.9635 29.4889 30.5316 29.1986L30.7957 29.0637L30.7395 29.7519C30.6122 31.31 30.4799 33.4752 30.51 33.5066C30.5277 33.5252 30.5732 33.5077 30.611 33.4677C30.6734 33.4017 30.7337 32.8769 31.0147 29.9532L31.1064 28.9996L31.3851 29.3311C31.5385 29.5134 31.7823 29.7836 31.9271 29.9316L32.1904 30.2007L31.91 31.4869C31.3982 33.8339 30.9524 36.7548 31.0855 36.888C31.1812 36.9836 31.2033 36.8977 31.354 35.8446C31.5296 34.6178 31.8372 32.943 32.0752 31.9177C32.1844 31.4472 32.3321 30.8017 32.4033 30.4833L32.5326 29.9043L33.0487 29.6928C33.8556 29.3622 33.9073 29.3511 33.8548 29.5188C33.7829 29.7488 33.1268 33.4357 33.0855 33.8423C33.0589 34.1034 33.076 34.2116 33.1438 34.2116C33.207 34.2116 33.3647 33.5696 33.6069 32.3259C33.809 31.2887 34.0099 30.272 34.0533 30.0664L34.1325 29.6927L34.6175 30.3929L35.1026 31.0932L34.0362 34.3049C33.4498 36.0712 32.9108 37.6524 32.8384 37.8184C32.7023 38.1311 32.7595 38.3155 32.9679 38.2356C33.0258 38.2134 33.2698 37.5876 33.5103 36.8449C33.7509 36.1023 34.2527 34.5499 34.6254 33.3951C34.9983 32.2404 35.3428 31.2541 35.3911 31.2034C35.4745 31.1157 37.0545 30.9008 37.1217 30.9679C37.199 31.0452 36.2181 33.6457 34.9888 36.6222C34.8211 37.0285 34.5334 37.7809 34.3494 38.2941C34.1655 38.8073 33.746 39.8746 33.417 40.6658C32.6918 42.4104 32.5156 42.9004 32.5875 42.9723C32.6762 43.061 32.7587 42.9246 33.0893 42.1433C33.2612 41.737 33.4891 41.2121 33.5957 40.9769C33.8769 40.3567 34.2068 39.5359 34.6898 38.2552C34.9237 37.6351 35.3145 36.6553 35.5584 36.0779C36.3732 34.1488 36.9014 32.7814 37.2026 31.8209C37.3669 31.2971 37.5212 30.8685 37.5454 30.8683C37.5696 30.868 37.7924 31.2858 38.0404 31.7965L38.4914 32.7251L38.0015 33.6433C37.2943 34.9687 36.529 36.5169 36.529 36.6222C36.529 36.7861 36.7017 36.6596 36.8522 36.3856C36.9334 36.2378 37.3818 35.4169 37.8486 34.5616C38.3153 33.7062 38.7521 32.9507 38.8191 32.8828C38.9019 32.799 39.0882 32.7579 39.3981 32.7549C39.6494 32.7526 39.9649 32.7265 40.0991 32.697L40.3433 32.6434L40.1948 33.02C40.1131 33.2272 39.2854 34.9185 38.3555 36.7785C36.7511 39.9874 36.3578 40.7893 35.1323 43.3486C34.4664 44.7393 34.0735 45.702 34.1433 45.7718C34.1734 45.802 34.2299 45.794 34.2687 45.754C34.3365 45.6844 36.118 42.136 36.5696 41.1713C36.6897 40.9147 37.5376 39.1825 38.4538 37.3221C39.37 35.4616 40.1904 33.7645 40.2768 33.5507C40.3633 33.3368 40.4687 33.0744 40.511 32.9675C40.5872 32.775 40.5891 32.7762 40.7105 33.0841C40.778 33.2552 41.0305 33.7116 41.2717 34.0985L41.7103 34.8018L41.4658 35.4204C41.2002 36.0927 41.0213 36.4119 40.247 37.5943C38.6653 40.0097 36.7818 43.501 35.9889 45.4871C35.7584 46.0644 35.313 47.0489 34.9993 47.6747C34.6856 48.3006 34.4289 48.8478 34.4289 48.8905C34.4289 48.9334 34.3011 48.8514 34.1448 48.7083L33.8608 48.4482L34.1059 47.9001C34.2408 47.5986 34.3511 47.2969 34.3511 47.2295C34.3511 46.9938 34.1545 47.1751 33.9151 47.6316C33.6033 48.2261 33.3822 48.2712 33.0156 47.8152C32.8802 47.6467 32.7229 47.5089 32.6661 47.5089C32.5578 47.5089 32.6058 47.3617 33.0587 46.3036C33.2723 45.8046 33.3119 45.5648 33.1808 45.5648C33.0979 45.5648 32.5869 46.6127 32.4134 47.1381C32.3195 47.4225 32.3146 47.4254 32.1288 47.3037C32.0248 47.2356 31.9398 47.146 31.9398 47.1044C31.9398 46.9652 33.0303 44.3175 33.5769 43.1298C33.8744 42.4834 34.1178 41.9271 34.1178 41.8935C34.1178 41.8598 34.0627 41.8323 33.9955 41.8323C33.8051 41.8323 32.8361 43.9286 31.9376 46.2841C31.7949 46.6584 31.6374 46.9645 31.5877 46.9645C31.5379 46.9645 31.4338 46.8946 31.3564 46.809C31.2791 46.7235 31.1383 46.6535 31.0437 46.6535H30.8718L31.0075 46.1675C31.0822 45.9002 31.2728 45.2716 31.4312 44.7706C31.6923 43.9445 31.73 43.6268 31.5541 43.7355C31.4857 43.7777 30.949 45.3609 30.7282 46.1716C30.6386 46.5004 30.5689 46.636 30.5164 46.5835C30.4661 46.5332 30.3889 46.5316 30.3001 46.5791C30.1255 46.6725 29.9369 46.6019 29.8306 46.4033C29.769 46.2882 29.6897 46.2576 29.5182 46.2828C29.3918 46.3013 29.2736 46.2928 29.2557 46.2637C29.2113 46.1919 29.4807 44.4614 29.7579 43.0376C30.1812 40.8637 30.5046 38.5778 30.4031 38.4764C30.2834 38.3567 30.2889 38.3349 30.037 39.9271C29.922 40.6542 29.706 41.8614 29.557 42.6099C29.408 43.3583 29.2165 44.4256 29.1314 44.9816C29.0462 45.5376 28.9432 46.0042 28.9025 46.0184C28.8618 46.0327 28.8285 46.0939 28.8285 46.1545C28.8285 46.2833 28.5507 46.3037 28.4746 46.1806C28.4452 46.133 28.3368 46.1181 28.2247 46.1462L28.0268 46.1959L28.0703 44.1696C28.1088 42.3771 28.0801 41.907 27.9454 42.1249C27.9243 42.1589 27.8819 43.102 27.8509 44.2208L27.7946 46.2548L27.6153 46.1237C27.4424 45.9973 27.4351 45.9462 27.4127 44.7158C27.3946 43.7233 27.3659 43.4314 27.2836 43.404C27.1955 43.3747 27.1873 43.5877 27.2349 44.6665C27.292 45.9595 27.2915 45.9647 27.1148 46.0885C27.0173 46.1568 26.8466 46.2185 26.7356 46.2256C26.6247 46.2326 26.4793 46.263 26.4127 46.293C26.3069 46.3406 26.2788 46.1476 26.1911 44.7703C26.1359 43.9028 26.076 43.1779 26.0581 43.1594C26.0403 43.1408 25.9888 43.1625 25.9438 43.2076C25.8866 43.2648 25.887 43.6006 25.9451 44.326C25.9909 44.8962 26.0283 45.579 26.0283 45.8434C26.0283 46.3061 26.0202 46.3259 25.8146 46.3651C25.5676 46.4123 25.5181 46.3546 25.4522 45.9429C25.4214 45.7504 25.3626 45.6426 25.2884 45.6426C25.1668 45.6426 25.1527 45.8134 25.2403 46.2221C25.2784 46.3998 25.2492 46.4921 25.1109 46.6304C25.0127 46.7286 24.8895 46.809 24.8373 46.809C24.7851 46.809 24.6436 46.4854 24.5228 46.0897C24.4021 45.6941 24.1814 45.0205 24.0325 44.5928C23.8836 44.1651 23.6958 43.5398 23.6151 43.203C23.4538 42.5299 23.412 42.4456 23.3367 42.6415C23.2646 42.8296 23.439 43.6021 23.7772 44.5928C23.9378 45.0633 24.1553 45.7351 24.2605 46.0857L24.4518 46.7234L24.1836 46.8506C24.0362 46.9206 23.8977 46.9601 23.876 46.9383C23.8111 46.8735 23.2317 45.1198 22.9854 44.2429C22.8592 43.7938 22.6207 43.0065 22.4554 42.4932C22.29 41.98 22.0746 41.2714 21.9769 40.9186C21.879 40.5658 21.7705 40.277 21.7356 40.277C21.5479 40.277 21.8247 41.5757 22.3326 43.0765C22.4845 43.5255 22.7004 44.2429 22.8122 44.6706C22.924 45.0982 23.0678 45.5512 23.1316 45.6771C23.3153 46.0393 23.544 46.913 23.4736 46.9834C23.2985 47.1585 23.141 46.9082 22.7641 45.8564C22.7219 45.7389 22.65 45.6426 22.6042 45.6426C22.4978 45.6426 22.5754 46.0869 22.777 46.633C22.9184 47.016 22.9146 47.1978 22.7652 47.1978C22.7296 47.1978 22.6769 47.1041 22.6482 46.9897C22.6194 46.8752 22.4425 46.4466 22.2549 46.0371C22.0672 45.6277 21.7157 44.7153 21.4738 44.0096C21.2174 43.2616 20.8027 42.2725 20.4794 41.6379C19.4071 39.5326 19.27 39.2168 18.9095 38.0219C18.4302 36.4331 17.5672 34.1084 16.99 32.8508C16.7348 32.2948 16.4537 31.6824 16.3653 31.49C16.1691 31.0624 16.1689 31.0744 16.3794 30.5957L16.5504 30.2069L16.7844 30.7512C16.913 31.0506 17.3865 32.2754 17.8364 33.4729C18.2864 34.6704 18.9452 36.2801 19.3003 37.0499C19.6555 37.8198 20.1608 39.0266 20.4231 39.7316C20.8865 40.9769 20.999 41.2095 21.0925 41.116C21.1888 41.0197 20.27 38.5585 19.4729 36.7778C18.9402 35.5878 18.6535 34.8672 17.8333 32.6564C17.5555 31.9079 17.2183 31.0383 17.0839 30.7239C16.9496 30.4096 16.8554 30.1365 16.8749 30.117C16.8943 30.0976 17.2172 30.2409 17.5924 30.4354L18.2744 30.7893L18.6829 32.2089C19.1122 33.7006 19.4644 34.7455 19.5792 34.8674C19.7614 35.0611 19.729 34.7634 19.4933 34.08C19.3503 33.6652 19.0524 32.6941 18.8313 31.9219L18.4292 30.518L18.7176 29.9736C18.8761 29.6742 19.0511 29.343 19.1064 29.2375C19.2008 29.0573 19.2227 29.1 19.4652 29.9373C19.6954 30.732 19.8501 31.3703 20.4351 33.9395C20.6692 34.9676 20.9665 35.9224 21.0526 35.9224C21.1623 35.9224 21.1537 35.8681 20.8636 34.7369C20.7182 34.17 20.4705 33.1113 20.3131 32.3842C20.1557 31.6572 19.9053 30.6296 19.7566 30.1008C19.6079 29.5721 19.5001 29.1256 19.517 29.1088C19.5338 29.0918 19.7545 29.1875 20.0072 29.3213C20.2599 29.4551 20.6287 29.6472 20.8266 29.7481C21.1346 29.9051 21.1985 29.9794 21.27 30.2637C21.6071 31.6037 22.1205 34.0859 22.4887 36.1557C22.9518 38.7587 23.1442 39.7514 23.1961 39.804C23.2137 39.8218 23.2503 39.8141 23.2775 39.7869C23.3615 39.703 22.2343 33.2572 21.8335 31.5287L21.4549 29.8962L21.9734 29.3738L22.4919 28.8513L23.1316 29.1791L23.7715 29.5071L23.772 29.9063C23.7723 30.1259 23.859 30.9482 23.9647 31.7337C24.5333 35.9609 24.7304 38.0083 24.8993 41.4435C25.0455 44.4144 25.0779 44.7872 25.1907 44.7872C25.3437 44.7872 25.1506 39.7282 24.8968 37.0888C24.755 35.6138 24.4339 32.9563 24.2391 31.6455C24.1597 31.1109 24.0705 30.4229 24.0409 30.1165L23.9872 29.5595L24.2615 29.2611C24.4125 29.097 24.606 28.8754 24.6916 28.7686L24.8473 28.5745L24.8933 28.8464C24.9185 28.9959 24.9767 30.098 25.0225 31.2956C25.1131 33.6614 25.1556 34.0633 25.3208 34.1185C25.4026 34.1457 25.4164 34.1086 25.3762 33.9693C25.3469 33.8674 25.2902 32.8042 25.2502 31.6066C25.2102 30.4091 25.1602 29.2606 25.1392 29.0545C25.1181 28.8482 25.1313 28.6908 25.1685 28.7046C25.2056 28.7182 25.6006 28.9044 26.0461 29.1182L26.8562 29.5071L26.9051 31.49C26.9591 33.6834 26.8827 36.733 26.6881 40.1477C26.5722 42.1819 26.5722 42.5586 26.6881 42.4427C26.745 42.3859 26.8668 40.8039 27.0075 38.2941C27.0859 36.8959 27.1354 34.7537 27.1377 32.6564L27.1414 29.2738L27.5697 28.9044C27.8052 28.7012 28.0316 28.535 28.0727 28.535C28.1139 28.535 28.3714 28.7445 28.6451 29.0004ZM15.7876 31.2215C15.7621 31.2877 15.796 31.384 15.8627 31.4354C16.2099 31.703 17.9037 36.0734 18.596 38.4885C18.8144 39.2506 19.0572 39.8217 19.7198 41.1324C20.4882 42.6526 21.0761 44.0597 21.4037 45.1632C21.4714 45.3913 21.65 45.8462 21.8005 46.1741C22.1953 47.0339 22.3919 47.5792 22.3481 47.6934C22.3271 47.7481 22.1402 47.8575 21.9328 47.9365C21.7255 48.0154 21.2609 48.2539 20.9004 48.4665C20.54 48.679 20.0149 48.9548 19.7337 49.0793C19.4524 49.2038 19.0647 49.387 18.8722 49.4863C18.6797 49.5857 18.2163 49.7968 17.8426 49.9553C17.2795 50.1942 17.1461 50.2258 17.0648 50.1398C16.877 49.9415 15.8387 47.3169 15.8387 47.0406C15.8387 46.9529 15.7855 46.8001 15.7205 46.701C15.6555 46.6019 15.468 46.1219 15.3038 45.6345C15.1396 45.1471 14.8078 44.2216 14.5664 43.5777C14.3249 42.9338 14.1274 42.3372 14.1274 42.2519C14.1274 42.1665 14.0927 42.0619 14.0501 42.0194C13.9382 41.9075 13.5052 40.5936 13.5052 40.3658C13.5052 40.2596 13.4579 40.1174 13.4 40.0499C13.3422 39.9823 13.0917 39.4197 12.8434 38.7996C12.5951 38.1794 12.1935 37.2511 11.951 36.7366C11.7086 36.2222 11.5253 35.756 11.5438 35.7007C11.5621 35.6455 11.5074 35.524 11.4221 35.4308C11.2309 35.2219 10.9383 34.6497 10.9383 34.4844C10.9383 34.4172 10.8858 34.3421 10.8216 34.3176C10.7575 34.2929 10.705 34.224 10.705 34.1644C10.705 34.1049 10.6738 34.0561 10.6357 34.0561C10.5706 34.0561 10.283 33.4329 10.3322 33.3989C10.3447 33.3904 10.626 33.2566 10.9573 33.1017C11.2886 32.9468 11.7086 32.7178 11.8907 32.5929C12.0728 32.4681 12.3967 32.2882 12.6106 32.1932C12.8246 32.0982 13.2446 31.9024 13.5441 31.758C13.8435 31.6137 14.246 31.4606 14.4386 31.4177C14.6311 31.375 14.9811 31.2903 15.2164 31.2296C15.7923 31.0811 15.8418 31.0804 15.7876 31.2215ZM10.1068 34.0603C10.0721 34.0934 9.60627 34.3086 9.07151 34.5386C7.94396 35.0235 7.43922 35.3247 7.43525 35.5151C7.43339 35.6092 7.15539 35.7868 6.5213 36.0994C6.02014 36.3464 5.46321 36.5979 5.28361 36.6582L4.95708 36.7681L4.90395 36.4141C4.82936 35.9168 5.0004 35.5795 5.39134 35.4528C5.55445 35.4 6.14296 35.1391 6.69911 34.873C8.48183 34.0202 8.63234 33.9549 9.30486 33.7409L9.96601 33.5307L10.0679 33.7654C10.1239 33.8945 10.1414 34.0272 10.1068 34.0603ZM43.4363 34.8284C43.7656 34.9538 44.2802 35.1274 44.5796 35.2142C44.8791 35.3009 45.4437 35.561 45.8343 35.7921C46.2249 36.0233 46.7936 36.347 47.0982 36.5114C47.4028 36.6759 47.67 36.8674 47.6921 36.937C47.7143 37.0067 47.6445 37.2969 47.5372 37.582C47.3437 38.0961 46.5883 39.6549 46.5328 39.6549C46.4735 39.6549 45.4974 39.2716 45.0627 39.0776C44.5365 38.8427 43.2235 38.6115 42.8301 38.6843C42.2919 38.784 42.0793 38.9923 41.6952 39.7964C41.4974 40.2105 41.2377 40.7942 41.1179 41.0935C40.9982 41.3929 40.5713 42.2852 40.1693 43.0765C39.0022 45.3735 37.7736 48.3169 37.7736 48.8158C37.7736 49.2821 38.0231 49.525 39.3366 50.3372C40.0148 50.7566 40.6885 51.1941 40.8337 51.3095L41.0978 51.5193L40.8096 52.1773C40.2925 53.3581 40.2266 53.4965 40.1803 53.4965C40.1552 53.4965 39.5827 53.1641 38.9079 52.758C38.2331 52.3519 37.2206 51.7701 36.6578 51.4653C35.6663 50.9283 34.7893 50.3607 34.6013 50.1342C34.5281 50.0459 34.6593 49.7288 35.2557 48.553C35.666 47.744 36.208 46.5999 36.4602 46.0105C37.1808 44.3263 37.981 42.7749 39.4779 40.1604C41.6207 36.4174 41.6513 36.3579 41.9055 35.4405C41.9921 35.1281 42.1183 34.8114 42.186 34.7365C42.3647 34.5391 42.7507 34.5675 43.4363 34.8284ZM10.8048 35.1373C10.8783 35.2616 10.9383 35.3785 10.9383 35.3971C10.9383 35.4158 10.6846 35.5286 10.3744 35.6477C9.4101 36.0183 8.13811 36.6453 8.13811 36.75C8.13811 36.8051 8.07681 36.8825 8.00199 36.9222C7.87255 36.9909 5.42199 37.9442 5.37493 37.9442C5.34086 37.9442 5.10455 37.2293 5.10455 37.1261C5.10455 37.0764 5.25335 36.9922 5.43513 36.9392C5.61691 36.8862 6.16995 36.6392 6.66403 36.3904C7.30085 36.0697 7.621 35.9492 7.76374 35.9764C7.8745 35.9977 8.0478 35.9691 8.14884 35.913C8.38242 35.7836 10.4836 34.9278 10.5909 34.9185C10.6352 34.9147 10.7315 35.0131 10.8048 35.1373ZM11.4745 36.6058C11.8371 37.3239 11.852 37.292 11.0161 37.5843C10.3703 37.8101 7.54026 38.9229 6.25225 39.4575L5.80546 39.643L5.64219 39.0852C5.55243 38.7784 5.46563 38.4749 5.44921 38.4108C5.4279 38.3272 5.58984 38.2298 6.02037 38.0674C6.35088 37.9427 6.96163 37.7072 7.37754 37.544C7.9032 37.3377 8.20181 37.261 8.35714 37.292C8.58661 37.3379 9.64617 36.9304 10.6661 36.4041C10.9228 36.2715 11.1585 36.1615 11.19 36.1594C11.2214 36.1574 11.3495 36.3582 11.4745 36.6058ZM12.0652 37.9148C12.2309 38.3115 12.2158 38.3735 11.93 38.4699C10.4453 38.9704 9.61599 39.3921 9.61599 39.6464C9.61599 39.7262 9.57228 39.8249 9.51876 39.8657C9.3138 40.0223 6.75255 40.9905 6.5108 41.0029C6.26345 41.0154 6.25225 41.0022 6.10251 40.52C6.01781 40.2473 5.97744 39.9976 6.01267 39.965C6.04799 39.9324 6.51438 39.7406 7.04914 39.5387C8.24109 39.0887 9.4976 38.5908 9.81045 38.4443C10.2605 38.2338 11.756 37.6429 11.8513 37.638C11.9041 37.6353 12.0004 37.7599 12.0652 37.9148ZM43.8018 39.3111C44.187 39.3783 44.7741 39.5528 45.1073 39.6991C45.4403 39.8454 45.8516 39.9872 46.0213 40.0143C46.1909 40.0414 46.3297 40.0766 46.3297 40.0925C46.3297 40.1084 46.2109 40.3576 46.0656 40.6463C45.6714 41.4298 45.3735 42.1465 44.9752 43.2709C44.4244 44.8252 44.3231 45.068 43.8068 46.0703C43.5424 46.5835 43.1924 47.3183 43.0291 47.7033C42.7548 48.3494 41.3692 51.0081 41.3066 51.0081C41.2916 51.0081 41.1642 50.9085 41.0237 50.7868C40.7209 50.5244 39.4374 49.7042 38.9403 49.4554C38.4409 49.2055 38.1625 48.9217 38.1625 48.6625C38.1625 48.2208 39.4027 45.3067 40.4573 43.2706C40.8561 42.5006 41.2876 41.6082 41.4161 41.2876C41.815 40.2921 42.1812 39.5437 42.3335 39.4123C42.6308 39.1559 42.8329 39.1419 43.8018 39.3111ZM12.1119 40.2639C11.7018 40.4064 11.2611 40.5555 11.1328 40.5953C10.7173 40.7243 10.1235 41.0891 10.0476 41.262C9.99324 41.3858 9.55306 41.6106 8.39152 42.1078C7.52136 42.4803 6.79704 42.7719 6.7818 42.7558C6.76655 42.7397 6.66598 42.4383 6.55825 42.0861L6.36239 41.4459L6.68636 41.3595C6.86448 41.3121 7.56834 41.0614 8.25043 40.8025C8.93259 40.5435 9.61996 40.3206 9.77801 40.3072C10.0486 40.2843 11.9935 39.601 12.4162 39.3804C12.6052 39.2817 12.6142 39.289 12.7342 39.6419L12.8577 40.0049L12.1119 40.2639ZM13.3282 41.4092C13.4478 41.7768 13.4684 41.9284 13.4024 41.9525C13.3519 41.9707 12.9607 42.0891 12.5329 42.2154C12.1051 42.3417 11.5625 42.5306 11.3272 42.6353C10.9169 42.8179 10.4721 43.1563 10.4712 43.2866C10.471 43.3207 10.0772 43.4855 9.59615 43.6527C9.11506 43.82 8.44714 44.0737 8.11174 44.2165C7.42343 44.5096 7.43806 44.5058 7.43806 44.3933C7.43806 44.3477 7.31702 44.0486 7.16916 43.7286C6.92904 43.209 6.91442 43.1416 7.03304 43.0984C7.10608 43.0719 7.82122 42.7785 8.62223 42.4463C9.42332 42.1143 10.1759 41.8434 10.2946 41.8444C10.4866 41.846 11.5968 41.4622 12.5718 41.0571C13.1176 40.8304 13.1439 40.8427 13.3282 41.4092ZM43.2429 40.9774C42.8885 41.1202 42.7891 41.663 43.0802 41.8667C43.3433 42.0511 43.5721 42.0132 43.7949 41.7485C44.2266 41.2357 43.8629 40.7277 43.2429 40.9774ZM44.3843 41.5407C44.2028 41.8383 44.1957 41.9117 44.3306 42.0963C44.3978 42.1879 44.5084 42.2257 44.6598 42.2083C44.9609 42.1738 45.0754 41.8785 44.9219 41.5319C44.7822 41.2163 44.5801 41.2197 44.3843 41.5407ZM43.5295 41.3963C43.5295 41.4131 43.4752 41.4477 43.4088 41.4732C43.3396 41.4997 43.3084 41.4866 43.3356 41.4426C43.3813 41.3687 43.5295 41.3333 43.5295 41.3963ZM42.657 42.3572C42.3247 42.7381 42.2869 43.0232 42.5463 43.1931C42.7736 43.342 42.916 43.2921 43.0864 43.0037C43.2568 42.7153 43.2536 42.5103 43.0761 42.3498C42.8951 42.186 42.805 42.1876 42.657 42.3572ZM43.6952 42.7355C43.538 43.0803 43.7811 43.543 44.1193 43.543C44.3288 43.543 44.6185 43.2055 44.6185 42.9614C44.6185 42.7166 44.3789 42.5321 44.061 42.5321C43.8419 42.5321 43.7695 42.5724 43.6952 42.7355ZM13.9064 43.1398L14.0261 43.5141L13.5518 43.6964C12.9405 43.9313 10.8254 44.8217 9.38264 45.4513C8.76232 45.7221 8.20694 45.9546 8.14845 45.968C8.0786 45.9841 7.97873 45.8076 7.85676 45.4525C7.75487 45.1555 7.67141 44.8922 7.67141 44.8675C7.67141 44.7459 10.3837 43.7779 10.738 43.773C10.8695 43.7711 11.5722 43.5464 12.2995 43.2735C13.0268 43.0006 13.6589 42.7747 13.7042 42.7714C13.7496 42.7681 13.8405 42.9338 13.9064 43.1398ZM41.821 43.6157C41.6109 44.0084 41.8893 44.4907 42.2231 44.3122C42.6353 44.0916 42.5694 43.4653 42.1339 43.4653C41.9838 43.4653 41.8731 43.5185 41.821 43.6157ZM14.3406 44.4977C14.3185 44.5643 13.4624 44.9392 12.2335 45.4207C11.7514 45.6095 11.5913 45.7135 11.4724 45.9148C11.3185 46.1756 11.0052 46.3298 9.10285 47.0806L8.47312 47.3292L8.31779 46.8516L8.16245 46.3739L10.3087 45.498C11.4892 45.0162 12.8401 44.4556 13.3107 44.2523L14.1663 43.8825L14.2649 44.156C14.3191 44.3064 14.3532 44.4602 14.3406 44.4977ZM43.2894 44.0315C42.9647 44.2808 42.8836 44.8052 43.1479 44.9466C43.5018 45.136 43.8443 44.8704 43.8578 44.3962C43.8691 43.9997 43.576 43.8116 43.2894 44.0315ZM43.4938 44.471C43.4657 44.5166 43.4053 44.5539 43.3599 44.5539C43.3082 44.5539 43.3142 44.5093 43.3755 44.4354C43.4822 44.3069 43.5775 44.3356 43.4938 44.471ZM41.196 44.865C41.1105 44.9505 41.0405 45.1185 41.0405 45.2382C41.0405 45.6655 41.3891 45.7783 41.6571 45.4377C41.8594 45.1806 41.8641 44.895 41.6679 44.7899C41.4541 44.6756 41.3725 44.6885 41.196 44.865ZM42.5339 45.3471C42.4007 45.4802 42.4185 45.9204 42.5628 46.0648C42.7297 46.2316 42.9628 46.2183 43.0601 46.0365C43.1933 45.7877 43.1539 45.5052 42.9677 45.3748C42.7601 45.2294 42.6581 45.2229 42.5339 45.3471ZM14.9123 46.0112L15.0509 46.4187L14.4919 46.5806C13.5186 46.8624 12.5722 47.214 12.3803 47.3649C12.2783 47.4451 12.1737 47.6067 12.148 47.7239C12.1063 47.9135 12.0051 47.9729 11.2281 48.2639C10.7478 48.4438 10.076 48.6967 9.73508 48.826C9.39415 48.9553 9.09336 49.0355 9.06676 49.0043C9.02048 48.95 8.60481 47.7952 8.60481 47.7209C8.60481 47.7012 8.82361 47.6063 9.09095 47.5098C9.35837 47.4134 9.99713 47.1579 10.5105 46.9422C11.0239 46.7266 11.6014 46.5251 11.7939 46.4945C11.9864 46.4639 12.6865 46.2462 13.3496 46.0109C14.0127 45.7754 14.6044 45.5875 14.6646 45.5932C14.7247 45.599 14.8362 45.7871 14.9123 46.0112ZM40.3837 46.282C40.2287 46.5032 40.2292 46.7644 40.3848 46.9201C40.6302 47.1654 40.9881 47.0056 41.0885 46.606C41.1919 46.1939 40.6273 45.9343 40.3837 46.282ZM41.8767 46.7071C41.7211 46.7477 41.6389 46.9999 41.6761 47.3231C41.7107 47.6232 42.0541 47.7567 42.2757 47.5562C42.4949 47.3578 42.548 47.0602 42.4035 46.8396C42.286 46.6605 42.1683 46.6309 41.8767 46.7071ZM42.1294 47.1201C42.1294 47.1628 42.0923 47.1978 42.0471 47.1978C42.0018 47.1978 41.9863 47.1628 42.0128 47.1201C42.0392 47.0773 42.0762 47.0423 42.0951 47.0423C42.114 47.0423 42.1294 47.0773 42.1294 47.1201ZM39.9126 47.4911C39.7082 47.5381 39.643 47.6494 39.6415 47.9542C39.6401 48.2761 39.9311 48.5001 40.1787 48.3675C40.3456 48.2782 40.4507 48.0047 40.4057 47.7771C40.3706 47.6001 40.1061 47.4467 39.9126 47.4911ZM15.5715 47.9171C15.6454 48.1416 15.7193 48.3622 15.7358 48.4072C15.7718 48.5058 15.4996 48.6181 13.0385 49.5207C11.9903 49.9051 10.8013 50.3437 10.3961 50.4956C9.9909 50.6474 9.63536 50.7461 9.60603 50.7149C9.54319 50.648 9.22707 49.6341 9.22707 49.4992C9.22707 49.4482 9.35837 49.3601 9.51876 49.3036C9.67923 49.2471 10.3355 49.0063 10.9772 48.7685C11.6189 48.5307 12.214 48.3422 12.2995 48.3495C12.3851 48.3569 12.5251 48.3285 12.6106 48.2866C12.6962 48.2446 13.3087 48.0672 13.9716 47.8922C14.6346 47.7173 15.1917 47.5595 15.2096 47.5415C15.3242 47.4271 15.455 47.5628 15.5715 47.9171ZM41.2394 47.9928C40.9255 48.4407 41.3318 48.9283 41.6896 48.533C41.8584 48.3465 41.8529 48.1086 41.676 47.9486C41.4855 47.7762 41.3839 47.7865 41.2394 47.9928ZM39.2137 48.6973C38.9738 49.0398 39.1665 49.5307 39.541 49.5307C39.7039 49.5307 39.9515 49.2331 39.9515 49.0373C39.9515 48.6546 39.4164 48.408 39.2137 48.6973ZM16.4941 50.2056C16.5411 50.4204 16.5289 50.4294 15.8987 50.6451C15.5448 50.7663 14.6777 51.1213 13.9719 51.434C12.111 52.2585 10.6932 52.6343 10.3745 52.3875C10.3061 52.3345 10.1381 52.0511 10.0011 51.7575C9.79901 51.3245 9.77218 51.2112 9.85898 51.157C9.91787 51.1202 10.3335 50.9602 10.7827 50.8013C11.2319 50.6424 12.5795 50.1565 13.7774 49.7215L15.9553 48.9306L16.2007 49.4584C16.3357 49.7488 16.4678 50.085 16.4941 50.2056ZM40.5147 49.2963C40.375 49.52 40.396 49.7417 40.5738 49.9195C40.7812 50.1269 40.9325 50.1155 41.0861 49.8811C41.2504 49.6305 41.1795 49.3503 40.922 49.2329C40.6558 49.1117 40.6273 49.1161 40.5147 49.2963Z" fill="black"/>
</svg>
