<svg width="33" height="43" viewBox="0 0 33 43" fill="none" xmlns="http://www.w3.org/2000/svg">
<path fill-rule="evenodd" clip-rule="evenodd" d="M15.2509 0.948578C14.5799 1.1834 14.4126 1.29332 13.8159 1.89101C13.175 2.5331 12.9634 2.90913 12.803 3.69099C12.6863 4.26007 12.703 5.3838 12.8345 5.81558C12.9426 6.17075 13.5047 6.83253 14.134 7.34579C14.9702 8.02765 15.0458 8.37643 14.5272 9.15927C14.1645 9.70676 14.0078 9.76576 12.6693 9.85834C12.0281 9.90267 11.3904 9.9174 11.2519 9.89106C10.8646 9.81733 10.7095 9.60285 10.6556 9.06631C10.6021 8.53329 10.7176 8.58733 9.40163 8.47996C8.52309 8.40831 8.44909 8.41164 8.01986 8.54202C7.63628 8.65852 7.52902 8.72528 7.32415 8.97523C7.03048 9.3336 7.0001 9.49456 6.90451 11.2005C6.85606 12.0653 6.85522 12.5281 6.90177 12.6999C7.00251 13.0714 7.26873 13.4192 7.57733 13.5822C7.83449 13.7182 7.92923 13.727 9.0455 13.7199C10.4339 13.7111 10.43 13.7127 10.565 13.1041C10.6128 12.8887 10.694 12.6776 10.7455 12.6349C10.8111 12.5804 11.2394 12.5573 12.1819 12.5573H13.5248L13.8835 12.7529C14.1703 12.9093 14.2747 13.0136 14.4051 13.2744C14.5627 13.5897 14.5688 13.6506 14.5901 15.1324C14.6193 17.158 14.4283 21.4038 14.1796 24.2595C14.0078 26.233 13.9525 27.2959 13.9136 29.3771C13.8536 32.5815 13.7452 33.6627 13.443 34.0705C13.1848 34.4189 11.9719 34.5122 11.2102 34.2422C10.2227 33.8923 8.83665 33.1367 7.04385 31.9713C6.85026 31.8455 6.35146 31.4102 5.9354 31.004C5.51935 30.5977 5.10557 30.2073 5.01592 30.1364L4.85291 30.0075L5.21153 30.1004C5.40877 30.1515 5.85527 30.2121 6.20384 30.2349C6.89401 30.2802 7.0372 30.2335 7.0372 29.9626C7.0372 29.8172 6.01789 28.3355 5.38288 27.5576C5.06756 27.1714 4.85089 26.8508 4.11952 25.6883C3.52233 24.739 3.0084 24.0648 2.36055 23.3806C1.8328 22.8233 1.74921 22.76 1.54115 22.76C1.33713 22.76 1.30147 22.7852 1.242 22.9719C1.12861 23.328 0.921206 24.5761 0.843811 25.3677C0.803516 25.7801 0.713537 26.4443 0.643901 26.8438C0.574199 27.2432 0.472809 27.9504 0.418626 28.4154C0.364443 28.8803 0.291937 29.4776 0.25751 29.7427C0.164792 30.4569 0.176333 31.2695 0.282809 31.5243C0.448032 31.9197 0.719209 31.8911 1.35396 31.4113C1.557 31.2578 1.79818 31.0851 1.88972 31.0275L2.05632 30.9229L2.24416 31.4538C2.82388 33.0928 3.25565 33.7288 4.91023 35.3812C5.91258 36.3822 6.36835 36.7872 6.84159 37.0976C7.95688 37.8292 9.46996 38.4821 11.0797 38.9266C13.3607 39.5564 13.8038 39.8122 15.6076 41.5398C16.158 42.0669 16.4685 42.3184 16.5699 42.3194C16.6773 42.3204 16.9506 42.0824 17.5348 41.4789C18.883 40.0863 19.4437 39.7699 22.1642 38.8671C23.3068 38.4879 24.3691 38.0697 24.6982 37.8694C25.3798 37.4547 27.1289 36.173 27.5499 35.7799C28.6568 34.7464 30.3673 32.154 30.7099 30.9907C30.7548 30.8382 30.8163 30.7136 30.8467 30.7136C30.8769 30.7136 31.0557 30.8624 31.2438 31.0442C31.8723 31.6516 32.146 31.8501 32.2579 31.7796C32.5186 31.6151 32.5143 31.4996 32.1353 28.5203C32.0395 27.7667 32.0094 27.1186 32.0083 25.7822C32.0065 23.5663 31.8719 22.434 31.6102 22.434C31.4762 22.434 30.8646 22.9299 30.3159 23.4835C30.0063 23.7959 29.4449 24.4886 29.0479 25.0482C28.6561 25.6004 28.0653 26.419 27.7351 26.8672C27.4048 27.3154 27.0246 27.8581 26.8901 28.0733C26.7556 28.2884 26.4871 28.7003 26.2933 28.9885L25.9411 29.5126L26.0415 29.753C26.2257 30.1938 26.5721 30.2621 27.739 30.0876L27.9998 30.0486L27.4782 30.5801C27.1913 30.8725 26.7658 31.2688 26.5327 31.4608C26.2996 31.6529 25.9475 31.945 25.7503 32.1101C25.158 32.6058 24.387 33.0929 23.6964 33.4076C22.0986 34.1359 21.2381 34.3041 20.3233 34.0671C19.6567 33.8944 19.615 33.8427 19.253 32.7409C18.9772 31.9013 18.8447 31.1124 18.7429 29.7031C18.6885 28.9501 18.6004 27.8206 18.5471 27.1931C18.4718 26.3063 18.4517 24.9999 18.457 21.3258C18.4616 18.118 18.4379 16.2619 18.3831 15.5494C18.321 14.741 18.3198 14.3687 18.3781 13.9313C18.453 13.3678 18.4565 13.3604 18.803 13.0083L19.1524 12.6534L20.0624 12.5499C21.4358 12.3938 21.9474 12.5446 22.3055 13.2113C22.4012 13.3894 22.5463 13.57 22.6279 13.6127C22.7346 13.6684 23.1445 13.6813 24.0841 13.6583C26.0136 13.611 25.9955 13.6304 26.0887 11.5012C26.1647 9.76615 26.1168 9.52077 25.6341 9.17029C25.1866 8.8453 24.6957 8.74347 23.5769 8.74347C22.9039 8.74347 22.6175 8.76661 22.5695 8.82496C22.5326 8.86981 22.4816 9.04636 22.4561 9.21736C22.4234 9.43687 22.3615 9.56621 22.2456 9.65741C22.0939 9.77665 21.9783 9.78656 20.7368 9.78656C19.9973 9.78656 19.2958 9.75892 19.1779 9.72508C18.8437 9.62925 18.4318 9.08384 18.2859 8.54385C18.2332 8.34885 18.1719 8.12602 18.1498 8.0487C18.1158 7.92986 18.1837 7.85801 18.5883 7.58492C19.4864 6.97869 19.8 6.50473 20.1033 5.29488C20.2954 4.52892 20.3088 4.2864 20.1849 3.82138C20.0746 3.4076 19.9451 3.15635 19.5355 2.5612C18.9731 1.74413 18.4126 1.33726 17.3593 0.981239C16.6278 0.734026 15.8963 0.722683 15.2509 0.948578ZM17.1436 1.37664C17.3681 1.44835 17.5931 1.50702 17.6437 1.50702C17.8199 1.50702 18.2374 1.76401 18.6011 2.09643C19.0945 2.54731 19.588 3.30049 19.7591 3.86382C19.905 4.3441 19.9013 4.41607 19.6791 5.41033C19.5246 6.10145 19.0054 6.78402 18.2912 7.23503C18.071 7.37409 17.8548 7.53127 17.8107 7.5844C17.664 7.76114 17.6425 8.25178 17.7604 8.73271C17.8509 9.1021 17.9375 9.26743 18.2196 9.60937C18.4257 9.85919 18.6558 10.0646 18.7846 10.1137C18.9244 10.1671 19.4928 10.2074 20.3788 10.2269C22.3013 10.2692 22.65 10.1529 22.8023 9.41848L22.8544 9.16722L23.6625 9.14884C24.5402 9.12882 25.129 9.21495 25.2194 9.37643C25.2789 9.48276 25.2471 11.6023 25.1731 12.4595L25.1309 12.9484L24.8049 13.0597C24.5679 13.1406 24.2547 13.1717 23.6578 13.1737L22.8366 13.1766L22.619 12.8577C22.2401 12.3026 21.7227 12.1083 20.6631 12.1233C19.4781 12.14 18.9897 12.2293 18.578 12.5046C17.9805 12.9042 17.7346 13.1729 17.635 13.5348C17.5611 13.8034 17.5484 14.9512 17.5631 20.0219C17.583 26.9021 17.6018 27.3227 18.0603 31.1717C18.261 32.8565 18.3613 33.2708 18.7307 33.9406C18.9057 34.2577 19.0135 34.3688 19.3002 34.5274C19.6419 34.7163 19.6815 34.7228 20.4689 34.7186C21.758 34.7116 22.3381 34.5462 24.0224 33.705C24.9057 33.264 25.13 33.1198 26.1527 32.3355C27.4951 31.3061 28.5916 30.1277 28.5402 29.7695C28.5222 29.6435 28.4803 29.6385 27.5597 29.6522C26.5125 29.6676 26.444 29.6406 26.7681 29.3396C26.8617 29.2527 27.2344 28.7855 27.5964 28.3014C27.9584 27.8174 28.6682 26.9079 29.1739 26.2804C29.6796 25.653 30.3377 24.8169 30.6363 24.4224C30.9349 24.028 31.192 23.6912 31.2076 23.6739C31.2231 23.6566 31.2156 23.7951 31.1908 23.9817C31.0941 24.7105 31.3934 29.0703 31.6233 30.2824C31.6565 30.4576 31.6837 30.627 31.6837 30.6588C31.6837 30.6906 31.5342 30.5984 31.3515 30.454C31.0127 30.1863 30.8041 30.098 30.6038 30.1373C30.5343 30.151 30.3063 30.5193 30.0048 31.1047C29.7371 31.6247 29.446 32.1458 29.358 32.2629C29.2699 32.38 29.0252 32.7296 28.8141 33.0397C28.0253 34.1987 27.2862 35.0184 26.2719 35.8589C25.6161 36.4023 25.3993 36.5552 24.5594 37.0663C24.1302 37.3276 22.8646 37.8784 21.1559 38.5477C19.1312 39.3407 18.3549 39.8337 17.1077 41.1187L16.4524 41.7938L16.138 41.4529C15.7622 41.0453 14.9964 40.3489 14.3868 39.8603C13.8436 39.425 12.8297 38.9155 12.0715 38.6969C10.8205 38.3365 9.44115 37.7861 8.76884 37.3793C7.06778 36.3499 6.70277 36.0689 5.49862 34.8623C3.99146 33.3519 3.49775 32.6303 2.92827 31.1047C2.82786 30.8358 2.72594 30.5662 2.70175 30.5057C2.62482 30.3131 2.31634 30.2965 2.03806 30.4698C1.90074 30.5554 1.73715 30.6442 1.67449 30.6674C1.61176 30.6904 1.39458 30.8155 1.19167 30.9453L0.82288 31.1811L0.866762 30.3117C0.890952 29.8335 0.953352 29.237 1.00551 28.986C1.05761 28.735 1.2214 27.8549 1.36941 27.0302C1.51748 26.2055 1.6786 25.3107 1.7275 25.0418C1.7764 24.7729 1.81748 24.3084 1.81872 24.0097L1.821 23.4666L2.16331 23.8397C2.6209 24.3385 3.22096 25.2126 3.83028 26.2682C4.10583 26.7455 4.7377 27.679 5.23435 28.3424C5.73106 29.0059 6.12684 29.5594 6.11386 29.5723C6.10089 29.5853 5.88742 29.5534 5.63939 29.5014C4.84424 29.3347 4.29869 29.4693 4.29869 29.832C4.29869 29.9171 4.43523 30.1056 4.64101 30.3048C4.82925 30.4871 5.30607 30.9496 5.70055 31.3325C6.10089 31.7213 6.67702 32.1983 7.0046 32.4123C7.32735 32.6232 7.79681 32.9399 8.04783 33.1162C8.98799 33.7765 9.8825 34.2147 11.2713 34.6955C11.9533 34.9316 12.6468 34.9549 13.18 34.7598C13.3697 34.6904 13.6474 34.6018 13.7972 34.563C14.1315 34.4762 14.3474 34.2327 14.5356 33.7298C14.8031 33.0152 14.8743 32.1208 14.9006 29.1489C14.9236 26.549 14.9545 25.7814 15.1283 23.5097C15.2906 21.388 15.1857 14.1025 14.9837 13.47C14.8573 13.0738 14.6272 12.7403 14.3337 12.5277C13.8688 12.191 13.7152 12.1661 12.1013 12.1661H10.6126L10.4269 12.3739C10.3072 12.508 10.2252 12.6894 10.1957 12.8856L10.1502 13.1895L9.81626 13.1514C9.63258 13.1304 9.1302 13.095 8.69986 13.0728C8.26952 13.0505 7.88392 13.0051 7.84303 12.972C7.71732 12.8701 7.70376 12.5474 7.76114 11.0252C7.84082 8.91082 7.8253 8.9309 9.33956 8.98866L10.22 9.0223L10.2605 9.29246C10.3142 9.65031 10.5034 9.94915 10.7672 10.0927C11.2089 10.3331 13.8373 10.2749 14.3399 10.0136C14.544 9.90749 15.0647 9.30693 15.2463 8.96819C15.5586 8.3853 15.3311 7.5992 14.7097 7.11429C13.5103 6.17844 13.181 5.48922 13.3556 4.27988C13.5512 2.9253 14.8677 1.59458 16.2631 1.34098C16.5143 1.29534 16.7233 1.25538 16.7276 1.25212C16.7319 1.24892 16.9191 1.30492 17.1436 1.37664ZM15.8989 2.38635C15.5161 2.50969 14.9331 3.17532 14.7671 3.67874C14.5957 4.19826 14.5593 4.96552 14.6897 5.30713C14.9455 5.97654 15.6485 6.35329 16.6546 6.36C17.1769 6.36346 17.2736 6.34488 17.5348 6.19044C18.2537 5.76544 18.7036 4.93045 18.7168 3.99701C18.7212 3.67991 18.6882 3.5376 18.5592 3.3175C18.3533 2.96637 17.9429 2.63415 17.5109 2.46914C17.0695 2.30049 16.2898 2.2604 15.8989 2.38635ZM17.3255 3.13086C17.7606 3.35466 18.0778 3.78637 18.1467 4.2484C18.1856 4.50976 18.1615 4.60285 17.9443 5.03071C17.5939 5.72118 17.3131 5.90835 16.6324 5.90541C16.2513 5.90378 16.0711 5.8704 15.8721 5.76472C15.3935 5.51041 15.0571 5.02146 15.0571 4.58003C15.0571 4.27969 15.3071 3.5479 15.4774 3.34964C15.7542 3.02746 16.8681 2.89564 17.3255 3.13086Z" fill="black"/>
</svg>
