<svg width="28" height="39" viewBox="0 0 28 39" fill="none" xmlns="http://www.w3.org/2000/svg">
<path fill-rule="evenodd" clip-rule="evenodd" d="M11.7707 0.739386C9.54816 0.812138 8.09799 0.932902 6.57635 1.17191C4.99203 1.42077 4.38509 1.56692 3.73827 1.85523L3.23991 2.07741L3.07516 2.53532C2.79314 3.31894 2.23158 5.62014 1.92629 7.24337C1.3333 10.396 1.16573 11.6228 1.01359 13.9264C0.963515 14.6842 0.894454 15.6734 0.860096 16.1248C0.825739 16.5762 0.783291 17.8161 0.76576 18.8801C0.732341 20.9097 0.773672 21.6683 1.04355 23.9804C1.28921 26.0848 1.48469 27.407 1.71475 28.5203C1.79179 28.893 1.92143 29.5198 2.00281 29.9132C2.08425 30.3067 2.32105 31.296 2.52907 32.1116C2.7371 32.9272 2.98639 33.9392 3.08307 34.3604C3.31689 35.3789 3.56883 35.9735 3.87987 36.2407C4.51214 36.7839 6.66095 37.5286 9.07366 38.0407C10.6472 38.3747 10.931 38.3979 13.471 38.3999C15.4714 38.4015 15.9586 38.3837 17.0474 38.2695C18.5448 38.1124 19.2301 38.0134 20.448 37.7778C21.9947 37.4787 22.6164 37.2702 23.2435 36.8403C23.3957 36.7361 23.5646 36.6724 23.6888 36.6724C23.9424 36.6724 24.01 36.5952 24.3421 35.927C24.8072 34.9912 25.0061 34.2754 25.5819 31.4645C25.7911 30.4435 26.0666 29.2333 26.1941 28.775C26.6714 27.0602 27.1133 24.1883 27.2476 21.9285C27.3518 20.1752 27.4726 17.1406 27.4506 16.8283C27.4392 16.6671 27.4162 15.968 27.3995 15.2748C27.3828 14.5816 27.3424 13.777 27.3098 13.4868C27.2772 13.1966 27.2255 12.4184 27.1949 11.7574C27.1527 10.8464 27.0892 10.2648 26.9327 9.35381C26.8192 8.69283 26.6586 7.75632 26.5758 7.27268C26.3721 6.08309 26.3186 5.88917 25.8345 4.58901C25.4264 3.49311 25.1531 2.88424 24.9075 2.52418C24.8414 2.42745 24.7873 2.29303 24.7871 2.22549C24.7864 2.03602 24.6265 1.93056 23.9627 1.68176C22.9731 1.31091 21.5363 1.10514 17.9562 0.821517C16.5604 0.710954 13.7707 0.673962 11.7707 0.739386ZM18.0441 1.29707C18.7052 1.34432 19.2857 1.39468 19.334 1.40904C19.3824 1.4234 19.8837 1.47628 20.448 1.52664C21.9787 1.66306 22.9063 1.82638 23.5796 2.07794L24.1607 2.29508L24.5314 2.99586C24.7353 3.38131 24.9025 3.71529 24.9031 3.73803C24.9035 3.76078 24.7918 3.73915 24.6547 3.68991C24.255 3.54639 23.3283 3.38577 22.1708 3.25932C18.7837 2.88934 11.8836 2.91948 7.60789 3.32281C7.2693 3.35476 6.60971 3.41713 6.14213 3.46139C4.93094 3.57612 3.81203 3.71734 3.54521 3.78921C3.41915 3.82316 3.303 3.83787 3.28705 3.82198C3.27116 3.80604 3.33314 3.47593 3.42489 3.08837L3.59169 2.38372L4.06074 2.20527C6.22761 1.3809 13.0329 0.938882 18.0441 1.29707ZM15.4291 3.91649C15.4511 4.18246 15.509 4.64734 15.5575 4.94943C15.606 5.25158 15.6336 5.51087 15.6188 5.5257C15.577 5.5675 12.6485 5.67847 12.6098 5.63972C12.5797 5.60965 12.6456 4.72619 12.7468 3.80205L12.7802 3.49715L13.0816 3.47581C13.2474 3.46415 13.8343 3.44967 14.3859 3.44369L15.3889 3.43284L15.4291 3.91649ZM18.3186 4.2456C18.4212 4.64424 18.5218 5.06879 18.5421 5.18903L18.579 5.40763L17.2722 5.44251C16.5534 5.46174 15.9548 5.46696 15.942 5.45412C15.9225 5.4346 15.807 4.68914 15.6698 3.69665L15.6374 3.46215L16.8847 3.49146L18.1321 3.52078L18.3186 4.2456ZM12.4534 3.7113C12.4335 3.83224 12.3746 4.30047 12.3223 4.75187C12.2701 5.20327 12.2178 5.6056 12.2061 5.64588C12.1911 5.69758 12.027 5.71916 11.6481 5.71916C11.3529 5.71916 10.5325 5.74812 9.82472 5.78358C9.11705 5.81899 8.52189 5.83189 8.50219 5.81213C8.48249 5.79244 8.56369 5.34795 8.68265 4.82445C8.80162 4.30088 8.89865 3.82884 8.89835 3.77544C8.89789 3.70269 8.97475 3.66775 9.20482 3.63609C9.48114 3.5981 11.0388 3.52494 12.0862 3.50079L12.4896 3.49146L12.4534 3.7113ZM21.1311 3.64664C21.4239 3.68105 21.4393 3.6919 21.5249 3.92405C21.7512 4.53789 21.9649 5.17912 22.0005 5.3513L22.0397 5.54041L20.7015 5.50981C19.9655 5.49299 19.2533 5.46596 19.119 5.44978L18.8746 5.42029L18.8035 4.99815C18.7643 4.76594 18.6704 4.36495 18.5946 4.10701C18.5189 3.84907 18.4565 3.61405 18.4558 3.58479C18.4546 3.53045 20.5556 3.57899 21.1311 3.64664ZM8.54598 3.97511C8.49017 4.14435 8.37238 4.59945 8.28425 4.98636C8.19613 5.37328 8.11517 5.72039 8.10438 5.75773C8.09283 5.7976 7.89548 5.84022 7.62648 5.86097C7.37437 5.88037 6.95709 5.92229 6.69912 5.95412C5.97843 6.04311 4.26595 6.05988 4.26595 5.97798C4.26595 5.94105 4.33044 5.62366 4.4093 5.27268C4.4881 4.92176 4.57018 4.49985 4.59164 4.33512L4.63063 4.03567L5.19583 3.96931C5.50669 3.93278 6.11721 3.87387 6.55254 3.83834C6.98788 3.80281 7.54193 3.75351 7.78379 3.72871C8.02564 3.70398 8.31891 3.68006 8.43552 3.67554L8.64747 3.66734L8.54598 3.97511ZM23.2916 3.87985C23.6463 3.9288 24.2072 4.05067 24.538 4.15063L25.1394 4.33236L25.3092 4.86454C25.4026 5.15725 25.5095 5.51544 25.5468 5.66053C25.584 5.80563 25.6277 5.96983 25.6438 6.02541C25.6706 6.11791 25.6565 6.11956 25.4777 6.04481C25.1892 5.92428 24.4696 5.80117 23.3777 5.68551L22.4084 5.5828L22.2442 5.0131C22.1539 4.69975 22.0162 4.30575 21.9383 4.1375C21.8603 3.96925 21.7965 3.8051 21.7965 3.7728C21.7965 3.7062 22.2907 3.74155 23.2916 3.87985ZM4.2344 4.64928C4.16 4.96368 4.0496 5.41748 3.98903 5.65778L3.87893 6.0947L3.36667 6.16862C3.08489 6.20931 2.82615 6.26002 2.79168 6.28136C2.75239 6.30563 2.74061 6.27907 2.76014 6.21013C2.77732 6.14969 2.87582 5.68727 2.97912 5.18258L3.16686 4.265L3.58448 4.17789C3.8142 4.12999 4.08478 4.08784 4.18586 4.08427L4.36961 4.0777L4.2344 4.64928ZM22.4223 5.95594C23.5847 6.04909 24.6689 6.18398 24.9919 6.27561C25.842 6.51691 25.7572 6.45576 25.8392 6.8867C25.8795 7.09898 25.927 7.33611 25.9446 7.41367C25.9731 7.53924 25.9612 7.55038 25.836 7.51538C25.7587 7.49381 25.24 7.41068 24.6833 7.33072C23.6913 7.1882 23.5986 7.18533 20.0222 7.18639C17.1324 7.18721 16.2024 7.16874 15.5523 7.09751C14.9002 7.02605 14.0628 7.00975 11.4775 7.01814C9.68781 7.02388 7.84095 7.04786 7.37337 7.07131C6.62923 7.10871 4.91892 7.17149 3.56179 7.21124C3.31965 7.21833 3.06414 7.25486 2.99402 7.29238C2.92389 7.3299 2.79707 7.36061 2.71212 7.36061C2.59345 7.36061 2.56425 7.33687 2.58589 7.25802C2.60137 7.20163 2.62951 7.0631 2.64845 6.95025L2.68286 6.74507L3.31724 6.60842C3.6736 6.53162 4.24531 6.45981 4.62178 6.44456C4.99039 6.42967 5.33156 6.40347 5.37993 6.38641C5.45785 6.35891 7.06685 6.28247 8.92709 6.21781C12.8906 6.0801 15.5046 5.95752 16.3439 5.87011C16.7529 5.82749 21.6892 5.8972 22.4223 5.95594ZM15.7575 6.24677C15.7575 6.27901 15.7839 6.30539 15.8162 6.30539C15.8484 6.30539 15.8748 6.27901 15.8748 6.24677C15.8748 6.21453 15.8484 6.18814 15.8162 6.18814C15.7839 6.18814 15.7575 6.21453 15.7575 6.24677ZM11.9691 8.34256C11.9024 9.53039 11.9029 12.8379 11.9704 16.1732L12.0235 18.8009L11.8185 18.7625C11.4686 18.6969 11.1291 18.8302 10.7946 19.1646C10.4487 19.5106 10.3313 19.8284 10.3842 20.2765C10.4483 20.8192 10.8619 21.2456 11.4525 21.3777L11.7707 21.4489L11.7732 22.0111C11.7747 22.3204 11.8005 22.8504 11.8306 23.1889C11.8933 23.8942 11.9733 25.3742 12.0649 27.5271C12.0999 28.3493 12.1799 29.6545 12.2428 30.4276C12.3056 31.2007 12.357 31.9359 12.357 32.0613V32.2892L11.9612 32.2501C10.9618 32.1512 9.48173 31.9251 8.83357 31.7724L8.4469 31.6812L8.26187 30.3516C8.00606 28.5134 7.91828 27.7173 7.844 26.5598C7.78959 25.7133 7.71572 24.7372 7.51989 22.2803C7.31281 19.6811 7.19027 14.0567 7.30976 12.6352C7.42338 11.284 7.59323 10.1282 7.87419 8.79484C8.01795 8.11246 8.13557 7.53795 8.13557 7.51808C8.13557 7.47411 8.90404 7.44796 10.6792 7.43161L12.0209 7.41924L11.9691 8.34256ZM15.364 7.53191C15.6151 7.55835 15.8315 7.59083 15.8448 7.60414C15.8714 7.63081 15.9489 8.41074 16.2687 11.8746C16.4772 14.1325 16.4826 14.2583 16.4865 16.9162C16.4894 18.9699 16.4655 19.9748 16.3892 20.9906C16.3336 21.7322 16.2594 22.8929 16.2243 23.57C16.1629 24.7545 16.0787 25.597 15.8198 27.615C15.7537 28.1309 15.6464 29.2257 15.5816 30.0479C15.4667 31.5043 15.3819 32.2603 15.3274 32.3148C15.3127 32.3296 14.7174 32.3228 14.0047 32.2999C12.8733 32.2633 12.7088 32.2461 12.7087 32.1642C12.7086 32.1126 12.6699 31.556 12.6226 30.9272C12.467 28.8593 12.421 28.0468 12.3571 26.2374C12.3223 25.254 12.2569 24.0536 12.2117 23.57C12.1665 23.0864 12.1117 22.4083 12.0899 22.0633L12.0502 21.4359L12.2183 21.3968C12.5042 21.3304 12.8686 21.0889 12.9973 20.8808C13.4034 20.2238 13.1772 19.3189 12.5196 18.9702C12.2681 18.8367 12.2552 18.8179 12.281 18.6201C12.2961 18.5052 12.2822 17.0789 12.2503 15.4507C12.196 12.6823 12.2278 9.89544 12.334 8.09904L12.3753 7.40112L13.6413 7.44251C14.3377 7.46526 15.1128 7.50553 15.364 7.53191ZM7.69596 7.81495C7.46243 8.83212 7.23811 10.0555 7.09563 11.0892C6.93663 12.2428 6.93493 12.2896 6.93897 15.3334C6.94325 18.5809 7.01485 20.3673 7.28431 23.9511C7.36311 24.999 7.45587 26.3048 7.49052 26.8529C7.55964 27.9467 7.65333 28.8155 7.87836 30.4493C7.9598 31.0409 8.01807 31.5325 8.00775 31.5417C7.99744 31.5511 7.71196 31.4821 7.37337 31.3886C7.03478 31.2951 6.40157 31.1332 5.96624 31.0289L5.17472 30.8393L4.92595 29.9013C4.65027 28.8621 4.55793 28.4326 4.21342 26.5891C3.93205 25.0835 3.7891 24.0557 3.59386 22.1337C3.24765 18.7258 3.24484 18.6791 3.24965 16.3886C3.25639 13.1808 3.3866 11.1014 3.72677 8.76758L3.88485 7.68304L4.64704 7.63878C5.06625 7.61445 5.76543 7.57213 6.20076 7.54475C6.63609 7.51737 7.16805 7.49111 7.38281 7.48642L7.77341 7.47786L7.69596 7.81495ZM19.1095 8.88482C19.6808 12.2247 19.7419 13.0826 19.7427 17.7663C19.7434 21.62 19.6828 22.6914 19.3285 25.0942C18.9859 27.4181 18.6852 29.0424 18.242 30.9634L17.97 32.1428L17.5234 32.1794C17.2777 32.1996 16.7652 32.2336 16.3844 32.255L15.6921 32.2938L15.7226 32.1528C15.7784 31.8951 15.8724 30.9704 15.9635 29.7841C16.013 29.1392 16.1181 28.0972 16.197 27.4685C16.4045 25.8157 16.508 24.7379 16.5488 23.8045C16.5685 23.3531 16.624 22.377 16.6721 21.6354C16.8939 18.2104 16.8742 15.1995 16.6106 12.2557C16.4343 10.2871 16.2418 8.26834 16.1941 7.88823L16.1611 7.62442H17.5274H18.8938L19.1095 8.88482ZM22.8075 8.48912C23.1892 10.0919 23.2513 10.6249 23.4133 13.6919C23.518 15.6727 23.503 18.8486 23.3814 20.463C23.1057 24.1211 22.6474 27.8849 22.2958 29.3777C22.1306 30.079 21.7443 31.4021 21.6863 31.4652C21.5915 31.5684 19.9597 31.9278 19.2112 32.0104C18.7535 32.0609 18.3673 32.0906 18.3532 32.0766C18.3392 32.0625 18.4465 31.5278 18.5917 30.8883C19.0153 29.0228 19.3527 27.1697 19.6518 25.0649C20.0232 22.4524 20.0661 21.634 20.05 17.4732C20.0318 12.7995 19.9761 12.0302 19.4275 8.88482C19.3123 8.22384 19.2176 7.66329 19.2173 7.63908C19.217 7.61486 19.9768 7.59511 20.9057 7.59511H22.5946L22.8075 8.48912ZM24.3889 7.68275C25.6771 7.85346 25.9571 7.90288 26.0084 7.96848C26.037 8.00494 26.0785 8.16669 26.1006 8.3279C26.3169 9.9037 26.3798 10.4347 26.4823 11.5522C26.7476 14.443 26.8162 16.5021 26.7256 18.8508C26.5736 22.794 26.1179 26.8968 25.6091 28.9047L25.3863 29.7841L25.0507 30.0098C24.5449 30.35 23.6083 30.8014 22.8372 31.0767C22.4583 31.2119 22.1483 31.3111 22.1483 31.2972C22.1483 31.2832 22.2392 30.9562 22.3503 30.5704C22.9098 28.6268 23.3614 25.2091 23.7436 20.0233C23.8551 18.5104 23.8381 14.5572 23.7117 12.5781C23.5909 10.6881 23.453 9.64077 23.1727 8.4849C23.0608 8.02312 22.9691 7.63398 22.9691 7.6202C22.9691 7.56503 23.765 7.60009 24.3889 7.68275ZM3.50375 7.79085C3.50375 7.83406 3.43767 8.34191 3.35693 8.91935C3.15431 10.3691 3.04737 11.5141 2.97965 12.9592C2.87119 15.2747 2.84761 17.1119 2.91129 18.2939C2.98399 19.6439 3.34802 23.6863 3.47883 24.5959C3.68333 26.0182 4.17935 28.6818 4.41223 29.6082C4.55001 30.1563 4.65566 30.6128 4.64699 30.6225C4.63379 30.6373 3.90027 30.3577 3.02614 30.0047L2.81243 29.9183L2.54168 28.5322C2.15999 26.5776 1.93596 24.9063 1.65254 21.8992C1.4763 20.029 1.62118 15.1605 1.95256 11.816C2.03763 10.9575 2.42166 8.13943 2.48012 7.94427C2.51606 7.82444 2.81584 7.73076 3.19594 7.72062C3.41815 7.71464 3.50375 7.73416 3.50375 7.79085ZM12.3173 19.4228C12.5381 19.5517 12.765 19.9259 12.7665 20.1629C12.7687 20.5644 12.2859 20.9613 11.7952 20.9613C11.1051 20.9613 10.5566 20.1541 10.888 19.6261C11.0177 19.4195 11.195 19.3247 11.5655 19.2642C11.8326 19.2205 12.0492 19.2662 12.3173 19.4228ZM25.1643 30.9268C25.0667 31.3785 25.0483 31.4123 24.8108 31.5756C24.673 31.6704 24.5409 31.748 24.5171 31.748C24.4933 31.748 24.1946 31.8758 23.8534 32.0321C23.4249 32.2284 22.979 32.3745 22.4121 32.5047C21.9607 32.6083 21.433 32.7293 21.2395 32.7738C20.4795 32.9482 19.189 33.1421 16.6956 33.4564C16.0919 33.5325 11.5778 33.4847 11.1844 33.398C10.856 33.3257 9.93477 33.2283 9.16161 33.1841C8.28285 33.134 7.9425 33.0685 6.25329 32.6248C4.87934 32.2639 4.61984 32.176 3.94078 31.8419L3.17589 31.4655L3.07006 31.0167C3.0119 30.7698 2.97942 30.5526 2.99795 30.5341C3.01648 30.5155 3.35553 30.6212 3.7514 30.7688C4.54051 31.0631 5.80489 31.4549 5.96548 31.4549C6.02135 31.4549 6.57863 31.5964 7.20393 31.7693C8.47428 32.1206 8.43641 32.1121 9.57202 32.3036C10.6261 32.4812 11.8787 32.6283 12.3277 32.6272C12.5211 32.6267 13.4182 32.6371 14.3211 32.6503C15.224 32.6635 16.2266 32.6521 16.5491 32.6249C19.408 32.3836 20.0552 32.3023 20.9464 32.0721C22.4639 31.6801 23.967 31.1232 24.8453 30.6273C25.0549 30.5089 25.2356 30.4207 25.2469 30.4312C25.2581 30.4417 25.2209 30.6647 25.1643 30.9268ZM24.9215 32.1144C24.8377 32.4805 24.6431 33.1297 24.4554 33.6683L24.2459 34.2697L23.8274 34.468C23.1991 34.7657 20.8522 35.4546 20.7645 35.3669C20.7499 35.3523 20.9168 34.8431 21.1353 34.2354L21.5327 33.1304L22.5294 32.8843C23.3084 32.692 23.6734 32.5671 24.2004 32.3125C24.5712 32.1333 24.8919 31.9857 24.9131 31.9845C24.9342 31.9834 24.938 32.0419 24.9215 32.1144ZM4.09006 32.3883C4.42865 32.5182 4.81373 32.6513 4.94577 32.6843C5.18375 32.7437 5.18697 32.7482 5.31737 33.1987C5.38966 33.4487 5.54087 33.8996 5.65338 34.2008C5.76583 34.502 5.84851 34.7578 5.83708 34.7692C5.82564 34.7806 5.48722 34.6869 5.08507 34.561C4.68293 34.4351 4.24038 34.3033 4.10172 34.268C3.963 34.2329 3.84046 34.1724 3.82938 34.1338C3.8183 34.0952 3.71412 33.6634 3.59779 33.1742C3.48147 32.685 3.3686 32.2385 3.34691 32.1821C3.31818 32.1072 3.33009 32.0892 3.39095 32.1158C3.43686 32.1358 3.75146 32.2585 4.09006 32.3883ZM7.8172 33.4001L8.29053 33.4685L8.47422 34.438C8.57524 34.9712 8.65252 35.4129 8.64589 35.4195C8.62918 35.4362 6.99332 35.1161 6.66124 35.0311L6.38879 34.9614L6.16752 34.3366C6.04586 33.993 5.88849 33.5259 5.81785 33.2986L5.68938 32.8853L6.51666 33.1085C6.97163 33.2312 7.55688 33.3625 7.8172 33.4001ZM21.0929 33.2282C21.0928 33.2938 20.2879 35.4449 20.2489 35.4841C20.2166 35.5163 18.6863 35.6895 17.7944 35.7619L17.2808 35.8036L17.3357 35.6594C17.3658 35.5801 17.5009 35.1226 17.6358 34.6428C17.7708 34.163 17.9015 33.7485 17.9264 33.7217C17.9513 33.6949 18.1793 33.6482 18.433 33.618C19.2379 33.5223 20.587 33.3269 20.7998 33.2754C21.0414 33.2167 21.0929 33.2085 21.0929 33.2282ZM9.74791 33.6236C10.1349 33.6569 10.7681 33.7225 11.155 33.7694C11.542 33.8164 11.9932 33.8556 12.1578 33.8566L12.4569 33.8584L12.4963 34.4886C12.5179 34.8353 12.5522 35.288 12.5726 35.4947L12.6096 35.8706L11.8824 35.8327C11.1971 35.797 9.55461 35.6079 9.23636 35.528C9.10052 35.4939 9.08093 35.4378 8.93342 34.6603C8.84664 34.2032 8.76151 33.7568 8.74427 33.6685C8.71507 33.5194 8.72481 33.5098 8.87859 33.5354C8.96976 33.5506 9.36095 33.5903 9.74791 33.6236ZM17.5165 33.818C17.5165 33.8841 16.9387 35.8051 16.9109 35.8312C16.8765 35.8635 15.1712 35.8734 15.1712 35.8412C15.1714 35.7088 15.3058 34.8057 15.3901 34.3714L15.4895 33.8584L16.0193 33.852C16.3107 33.8486 16.7074 33.8261 16.9008 33.802C17.4506 33.7338 17.5165 33.7355 17.5165 33.818ZM15.1112 33.9024C15.1104 33.9266 15.085 34.0519 15.0547 34.1808C15.0243 34.3098 14.9575 34.7055 14.9062 35.0602C14.7652 36.0348 14.8967 35.9333 13.8307 35.89C13.3265 35.8695 12.9114 35.8524 12.9083 35.8521C12.9052 35.8519 12.8852 35.5049 12.8637 35.0811C12.8423 34.6573 12.8084 34.2088 12.7886 34.0845L12.7524 33.8584H13.9325C14.5815 33.8584 15.112 33.8782 15.1112 33.9024ZM5.28383 35.1113C6.38116 35.4801 6.74819 35.5715 8.23694 35.8464C10.1546 36.2005 11.1664 36.3175 12.8846 36.3838C14.8818 36.4609 16.8066 36.3921 18.9529 36.167C19.4366 36.1162 19.9379 36.0666 20.0669 36.0567C20.6069 36.0151 22.0564 35.6607 23.145 35.3042C23.5803 35.1616 23.9398 35.0484 23.9439 35.0526C23.9478 35.0568 23.8374 35.2948 23.6985 35.5815C23.4253 36.1453 23.5032 36.0763 22.5294 36.6172C22.081 36.8663 21.2351 37.0713 19.0116 37.4697C18.7536 37.5159 17.6982 37.6306 16.6663 37.7246C14.8218 37.8925 14.7536 37.8945 12.6208 37.845C10.6574 37.7994 10.3847 37.7809 9.74791 37.6492C8.34594 37.3595 6.80571 36.9371 5.77082 36.5587C4.80201 36.2044 4.46212 36.0353 4.21922 35.7869C4.06197 35.6261 4.03143 35.5502 4.03143 35.3202C4.03143 35.1691 4.01501 34.9634 3.9949 34.863L3.95838 34.6804L4.21476 34.7592C4.35576 34.8026 4.83683 34.961 5.28383 35.1113Z" fill="black"/>
</svg>
