<svg width="34" height="43" viewBox="0 0 34 43" fill="none" xmlns="http://www.w3.org/2000/svg">
<path fill-rule="evenodd" clip-rule="evenodd" d="M13.9972 0.707984C13.6579 0.829043 13.2309 1.23857 12.9963 1.66798L12.8173 1.9958L12.476 1.76089C12.0148 1.44358 11.6996 1.34983 11.2499 1.39625C10.7312 1.44981 10.2622 1.69907 10.0105 2.05482C9.82399 2.31851 9.68493 2.38698 9.68493 2.21523C9.68493 2.07919 9.11376 1.25285 8.96692 1.17646C8.65744 1.01543 8.1032 0.886457 7.71743 0.885756C7.2728 0.884916 6.49062 1.17121 6.04962 1.4963C5.67386 1.77336 5.11087 2.41002 4.93416 2.75793C4.85094 2.92163 4.77563 3.0555 4.76661 3.0555C4.75765 3.0555 4.53005 2.99249 4.26087 2.91547C3.70636 2.75681 2.71253 2.72621 2.32914 2.85595C1.97605 2.9754 1.18708 3.52083 0.870874 3.86405C0.125504 4.67295 0.26611 6.02119 1.1777 6.80671C1.55962 7.13579 1.57593 7.16338 1.53646 7.41291C1.41531 8.1782 1.35099 9.31401 1.28555 11.8426C1.24566 13.383 1.16608 15.0528 1.10869 15.5535C1.04815 16.082 0.977186 17.7117 0.939533 19.4394C0.903909 21.076 0.827342 23.0768 0.769392 23.8854C0.650623 25.5438 0.566357 27.1493 0.403635 30.8521C0.274787 33.7846 0.305513 35.2676 0.529404 36.9264L0.683097 38.0653L0.389848 38.3472C0.0624451 38.662 0.0541864 38.6889 0.199481 38.97C0.330918 39.2243 0.694925 39.5064 1.35638 39.867C2.06424 40.2528 2.44511 40.3905 3.84095 40.7655C6.01708 41.3502 6.21402 41.4053 7.27035 41.727C9.70326 42.4678 12.3109 42.6693 15.2385 42.3427C18.4736 41.9819 20.2016 41.6568 22.2037 41.0325C22.995 40.7858 24.8511 39.9054 25.0955 39.6609C25.2758 39.4805 25.2525 39.2736 25.0264 39.0475L24.8306 38.8516L24.8421 37.0399C24.8484 36.0434 24.8342 34.823 24.8104 34.3279L24.7673 33.4275L25.1872 33.0901C25.4182 32.9046 25.8276 32.562 26.0971 32.329C26.3665 32.0959 26.8814 31.6781 27.2413 31.4005C27.6012 31.1231 27.9415 30.8259 27.9976 30.7403C28.0536 30.6547 28.247 30.4698 28.427 30.3294C29.0177 29.8691 30.1908 28.5257 30.8138 27.5963C31.6666 26.3242 32.6337 24.4349 32.9465 23.4303C33.5114 21.616 33.7199 20.2042 33.67 18.5292C33.6128 16.602 33.3475 15.4498 32.6348 14.0338C31.9855 12.7434 30.862 11.1346 30.1655 10.4978C29.8598 10.2182 29.7951 10.1247 29.8666 10.0653C29.9168 10.0236 30.047 9.82569 30.1559 9.62544C30.308 9.34586 30.3555 9.16256 30.3602 8.83649C30.3656 8.46078 30.3392 8.37403 30.1307 8.0843C30.0011 7.90415 29.7963 7.71511 29.6758 7.6642C29.3258 7.5164 28.6071 7.57521 28.2013 7.78491C27.7368 8.02493 27.0108 8.1107 26.1493 8.02731C25.4945 7.96395 25.1412 7.88371 23.9392 7.52508L23.3911 7.36152L23.4143 6.68012C23.4352 6.06615 23.4531 5.98773 23.5954 5.88816C23.8414 5.71599 23.9819 5.38684 23.9293 5.10622C23.8734 4.80816 23.3953 4.27064 23.1353 4.21372C22.9563 4.17444 22.9487 4.15525 22.9711 3.79719C23.0362 2.75891 21.8803 2.07163 20.7291 2.464C20.43 2.56594 20.3839 2.56377 19.984 2.42899C19.7495 2.34994 19.4542 2.28511 19.328 2.28476C19.1341 2.28434 19.0737 2.24121 18.9407 2.00819C18.6042 1.41865 17.9997 1.18613 17.2768 1.36824L16.9567 1.4489L16.5474 1.12724C16.3223 0.950312 15.9882 0.760426 15.8049 0.705253C15.3849 0.578803 14.3552 0.580344 13.9972 0.707984ZM15.8089 1.24347C16.2261 1.35921 16.7515 1.74017 17.0827 2.16706L17.3767 2.54606L17.1922 2.63015C16.864 2.77978 16.4737 3.13217 16.4737 3.27892C16.4737 3.3871 16.5027 3.40817 16.5962 3.36826C17.0627 3.169 17.6283 2.99151 18.0387 2.91554C19.0422 2.72985 20.2907 2.97316 20.6715 3.42869C21.0273 3.85425 21.1742 3.98245 21.2358 3.92084C21.3014 3.85523 20.9427 3.03065 20.814 2.95111C20.6648 2.85882 20.8314 2.77543 21.1651 2.77543C21.5431 2.77543 22.1463 3.01076 22.4044 3.25883C22.7064 3.54919 22.7175 4.10722 22.4227 4.17619C22.1099 4.24935 22.214 4.41718 22.5977 4.45849C23.0345 4.50547 23.2325 4.61309 23.406 4.89792C23.5916 5.20228 23.5776 5.34168 23.3379 5.58149C23.1161 5.80337 22.746 5.85813 22.5014 5.70528C22.3904 5.63596 22.3332 5.6674 22.0999 5.92604C21.8012 6.25715 21.4733 6.42946 21.2521 6.37156C21.1735 6.35104 20.962 6.16361 20.7821 5.95517C20.6022 5.74666 20.4096 5.5761 20.354 5.5761C20.2266 5.5761 20.2275 5.61188 20.3594 5.81339C20.4615 5.96931 20.4546 5.98318 20.186 6.16102C20.0321 6.26289 19.8243 6.34628 19.7243 6.34628C19.5447 6.34628 19.2329 6.09422 19.0864 5.83068C18.9767 5.63344 18.7561 5.78727 18.6525 6.13336C18.5644 6.42736 18.0597 7.05779 17.7397 7.27351C17.4783 7.44974 17.1526 7.42867 16.9041 7.21953C16.6941 7.04281 16.435 6.41175 16.3896 5.96658C16.3781 5.85406 16.3245 5.74736 16.2704 5.72958C16.1895 5.70297 16.1794 5.79252 16.2131 6.23881L16.2541 6.78039L15.8226 7.246C15.3133 7.7957 14.8859 8.16671 14.7618 8.16671C14.6064 8.16671 14.3041 7.88196 14.2032 7.64047C14.1345 7.476 14.0679 7.41438 13.9775 7.43154C13.9069 7.44491 13.8316 7.45822 13.8101 7.46116C13.7887 7.46417 13.7177 7.58782 13.6523 7.73597C13.587 7.88413 13.374 8.13997 13.179 8.30444C12.8666 8.56798 12.7948 8.59872 12.5749 8.56301C12.4276 8.53906 12.1877 8.40645 11.9898 8.2396C11.6548 7.95694 11.4337 7.87901 11.4357 8.04418C11.4362 8.09236 11.4821 8.25773 11.5376 8.41177C11.6797 8.80645 11.669 9.4742 11.5132 9.92721C11.3024 10.5401 10.9147 11.3363 10.6044 11.7934C10.3242 12.2061 10.3065 12.2186 9.93527 12.2651C9.38937 12.3333 8.98337 12.1654 8.67773 11.745C8.33794 11.2776 8.2128 11.003 8.16829 10.627L8.12889 10.2942L8.4087 10.2104C8.67997 10.1291 8.90309 9.95186 8.82835 9.87701C8.80812 9.85684 8.52803 9.89353 8.20595 9.95858C7.4724 10.1067 7.15018 10.0351 6.7059 9.62544C6.37366 9.31898 6.28877 9.06846 6.37989 8.66334C6.42406 8.46694 6.48243 8.40792 6.70989 8.32908C7.10994 8.19052 7.79526 7.48125 7.79526 7.20588C7.79526 7.02054 7.6072 7.14958 7.25103 7.57934C6.84132 8.0738 6.60351 8.16671 5.74735 8.16671C4.84142 8.16671 4.06974 7.8265 3.6967 7.26266L3.52201 6.99856L3.62055 6.23607C3.72365 5.43901 3.71371 5.29603 3.55533 5.29603C3.37812 5.29603 3.04505 6.16158 3.02496 6.6741C3.0111 7.02761 2.87756 7.08601 2.34454 6.97167C2.02987 6.90417 1.95359 6.84697 1.59805 6.41231C1.1637 5.88116 1.08063 5.6464 1.07811 4.94217C1.07671 4.55533 1.10778 4.43441 1.27603 4.17199C1.51077 3.80601 1.93658 3.40166 2.27238 3.22585C2.83326 2.93227 4.30286 3.05179 5.05866 3.45243C5.22796 3.54219 5.40909 3.61563 5.46109 3.61563C5.62234 3.61563 5.56545 3.48932 5.34568 3.35944C5.2302 3.29118 5.13572 3.21486 5.13572 3.18972C5.13572 3.16466 5.37984 2.90055 5.67813 2.60291C6.10911 2.17294 6.35064 1.99839 6.85364 1.7534C7.53035 1.4239 7.7427 1.39156 8.36923 1.52277C8.89756 1.63346 9.34745 2.11196 9.54411 2.77249C9.62152 3.03274 9.68493 3.31316 9.68493 3.39564C9.68493 3.48225 9.72923 3.54562 9.78991 3.54562C9.90007 3.54562 9.92471 3.44297 9.90084 3.084C9.89076 2.93206 9.95606 2.77522 10.1196 2.55887C10.4415 2.13261 10.7877 1.97556 11.4071 1.97479C11.8354 1.97423 11.97 2.00735 12.3758 2.21341C12.6379 2.34658 13.116 2.69457 13.4531 2.99774C13.7864 3.29748 14.0981 3.54338 14.1456 3.54415C14.2815 3.54646 14.024 3.1711 13.5355 2.65515L13.1017 2.19682L13.5455 1.74857C13.7895 1.50204 14.0837 1.27274 14.1991 1.23899C14.5032 1.15021 15.4823 1.15294 15.8089 1.24347ZM18.1884 1.7875C18.3424 1.85857 18.5405 1.99517 18.6286 2.09095L18.7888 2.26515L18.4186 2.3059C18.215 2.32831 17.9521 2.3671 17.8343 2.39209C17.6411 2.43312 17.6019 2.40981 17.4319 2.15285C17.3284 1.99629 17.2436 1.83791 17.2436 1.80094C17.2436 1.7639 17.3618 1.72126 17.5061 1.70614C17.6505 1.69109 17.8 1.67407 17.8385 1.66847C17.877 1.66287 18.0345 1.71643 18.1884 1.7875ZM14.4062 2.50006C14.345 2.59913 14.4213 2.66789 14.6074 2.6814C14.6908 2.68742 14.8299 2.71473 14.9165 2.74204C15.0926 2.79763 15.1372 2.65662 14.99 2.50937C14.8859 2.40526 14.4689 2.39861 14.4062 2.50006ZM18.9136 3.89073C18.7892 3.99239 18.7681 4.04596 18.8283 4.10729C18.8891 4.16919 18.9456 4.16876 19.0642 4.10526C19.195 4.03524 19.252 4.04547 19.4188 4.16883C19.6657 4.35144 19.9231 4.36614 19.8903 4.19572C19.8603 4.03993 19.4374 3.75567 19.2357 3.75567C19.1494 3.75567 19.0044 3.81644 18.9136 3.89073ZM2.3691 4.45814C2.26979 4.56793 2.23382 4.71202 2.2327 5.00413C2.23144 5.35303 2.24879 5.40358 2.37638 5.42178C2.50691 5.44048 2.52105 5.40799 2.51636 5.10013C2.51041 4.70845 2.62463 4.52585 2.87553 4.52585C3.14135 4.52585 3.02888 4.3541 2.74718 4.32987C2.56997 4.31468 2.46744 4.34948 2.3691 4.45814ZM14.1763 4.8279C14.0167 4.99797 13.9691 5.29603 14.1016 5.29603C14.1441 5.29603 14.2435 5.21404 14.3223 5.11378C14.4466 4.95568 14.5013 4.9372 14.7348 4.97459C14.9321 5.00609 15.004 4.99307 15.004 4.92578C15.004 4.63087 14.4256 4.56247 14.1763 4.8279ZM6.9554 4.77434C6.89766 4.78659 6.73326 4.81572 6.59 4.83903C6.25972 4.89288 5.90559 5.18478 5.90559 5.40316C5.90559 5.64948 6.0056 5.66453 6.16944 5.44286C6.32523 5.23204 6.74558 5.08598 7.19637 5.08598C7.49704 5.08598 7.54071 4.90877 7.2658 4.80417C7.16705 4.76664 7.08047 4.73954 7.07333 4.74402C7.06619 4.7485 7.01314 4.76216 6.9554 4.77434ZM22.8494 6.13623H23.038L23.007 7.13397C22.9898 7.68269 23.0174 8.76809 23.0682 9.5459L23.1607 10.9601L22.7042 11.0358C22.4532 11.0774 22.0751 11.1184 21.8643 11.1269L21.4808 11.1424L21.4317 10.7573C21.4046 10.5455 21.347 9.69483 21.3037 8.86688C21.2179 7.22968 21.193 7.01963 21.0917 7.08216C21.052 7.1068 21.0397 7.42797 21.0618 7.87271C21.1235 9.11901 21.237 10.7791 21.2762 11.0053L21.313 11.2182L20.3236 11.31C19.7795 11.3605 19.3159 11.3836 19.2936 11.3612C19.2434 11.3109 19.0993 6.63706 19.1465 6.5898C19.1652 6.57103 19.2831 6.60688 19.4083 6.66941C19.5524 6.74131 19.7327 6.77016 19.8988 6.74783L20.1615 6.71261L20.212 8.05231C20.2701 9.59288 20.3194 9.99793 20.4546 10.0428C20.5338 10.0691 20.5428 9.96999 20.5051 9.48835C20.4798 9.16578 20.4282 8.36745 20.3904 7.71427C20.3241 6.56977 20.3267 6.52153 20.4623 6.38591L20.603 6.24511L20.7095 6.39732C20.9 6.6692 21.0233 6.76008 21.263 6.8051C21.6148 6.87113 22.0875 6.63692 22.3238 6.27963C22.4562 6.07945 22.5374 6.01293 22.5879 6.06341C22.6279 6.10346 22.7456 6.13623 22.8494 6.13623ZM10.3673 6.842C10.1374 6.97594 10.2278 7.10085 10.5773 7.13222C10.9129 7.16233 11.283 7.08145 11.1981 6.99652C11.1421 6.94051 10.6571 6.76806 10.5598 6.76953C10.5213 6.77016 10.4346 6.80272 10.3673 6.842ZM18.9153 10.0033L18.9233 11.4548L18.7658 11.4868C18.6792 11.5045 18.3993 11.5371 18.1439 11.5594C17.7582 11.5929 17.6721 11.5808 17.6365 11.4879C17.6129 11.4264 17.5936 10.6513 17.5936 9.76554C17.5936 8.50825 17.5744 8.16146 17.5061 8.18429C17.4393 8.20655 17.4186 8.61265 17.4186 9.89795V11.5824L17.0686 11.6234C16.8762 11.646 16.2227 11.6857 15.6164 11.7119L14.5141 11.7593V10.5334C14.5141 9.85916 14.4946 9.12055 14.4707 8.89202L14.4272 8.47647L14.7009 8.50258C14.9449 8.5259 15.0291 8.48592 15.4791 8.13367C15.7567 7.9164 15.9847 7.71679 15.9859 7.69011C15.987 7.66343 16.0841 7.53586 16.2015 7.40654L16.4151 7.17157L16.5289 7.33653C16.8067 7.73961 17.0157 7.88665 17.3104 7.88665C17.4686 7.88665 17.6998 7.84415 17.8241 7.79212C18.0494 7.69795 18.7726 6.96887 18.7952 6.81322C18.8277 6.5884 18.9083 8.72825 18.9153 10.0033ZM2.79519 7.352C3.11104 7.29291 3.1256 7.29823 3.4192 7.58018C3.58458 7.73898 3.88882 7.94875 4.09535 8.04643C4.47888 8.22784 5.38628 8.44678 5.75448 8.44678H5.9592L5.85674 8.74428C5.76106 9.02211 5.76463 9.06671 5.91021 9.41805C6.05214 9.76071 6.06229 9.86931 6.02387 10.6345C6.00063 11.0967 5.97032 11.4861 5.95647 11.4999C5.94268 11.5137 5.73657 11.4908 5.49854 11.4488L5.06573 11.3725L5.04824 10.7323C5.03865 10.3802 5.03074 9.82702 5.03074 9.50298C5.03074 9.13168 5.00183 8.90413 4.95263 8.8876C4.8226 8.84405 4.77668 9.39908 4.82813 10.3916L4.87663 11.3278L4.60374 11.2815C4.05161 11.1879 4.0859 11.2437 4.0859 10.4376C4.0859 9.85446 4.06589 9.70708 3.98687 9.70708C3.91471 9.70708 3.87454 9.84935 3.83871 10.232C3.81169 10.5207 3.80511 10.8384 3.82415 10.938C3.85417 11.0952 3.83906 11.114 3.70986 11.0793C3.62797 11.0573 3.49017 11.0389 3.40352 11.0384C3.26852 11.0375 3.24598 11 3.24542 10.7748C3.24416 10.2149 3.1594 9.7771 3.05232 9.7771C2.96603 9.7771 2.95371 9.8733 2.98052 10.3372C3.01747 10.9761 3.02286 10.9716 2.43482 10.7931C2.24585 10.7358 2.00615 10.6885 1.90221 10.6881L1.71311 10.6873L1.74348 10.1097C1.76021 9.79194 1.79065 9.10669 1.81123 8.58681C1.83181 8.06694 1.86673 7.55904 1.88885 7.45815C1.92734 7.28289 1.94134 7.27778 2.2005 7.34353C2.3649 7.38533 2.59936 7.38862 2.79519 7.352ZM22.1733 8.38635C22.265 9.93785 22.2976 10.2672 22.359 10.2672C22.4303 10.2672 22.4326 9.21066 22.3633 8.31228C22.3326 7.91458 22.2872 7.71266 22.2241 7.69172C22.1481 7.66665 22.1385 7.79773 22.1733 8.38635ZM14.1355 8.14228C14.2115 8.31235 14.2341 8.74764 14.2341 10.0403V11.7176L13.8039 11.7626C13.5674 11.7873 12.9054 11.8076 12.333 11.8076H11.2923L11.4749 11.4469C11.8284 10.7493 12.0861 9.69343 12.0216 9.20737L11.9765 8.86646L12.2282 8.97169C12.5774 9.11768 12.9502 9.10368 13.1859 8.93578C13.4457 8.75072 13.8603 8.18156 13.9259 7.91976C13.9565 7.79801 13.99 7.75572 14.0073 7.81719C14.0235 7.8746 14.0811 8.02094 14.1355 8.14228ZM24.1077 8.135C24.8249 8.3811 25.6488 8.56581 26.272 8.62021C26.7828 8.66481 27.2285 8.59437 28.6866 8.23855C29.0711 8.14473 29.4056 8.2174 29.541 8.42409C29.7156 8.69072 29.5559 9.47175 29.2586 9.80531C29.0511 10.0381 29.0068 10.0554 28.5816 10.0691C28.3314 10.077 27.9099 10.0572 27.6449 10.0247C27.2493 9.97643 27.1689 9.98308 27.1951 10.0619C27.247 10.2174 28.0599 10.3526 28.6642 10.3061L29.2017 10.2648L29.504 10.6258C29.6704 10.8245 29.9041 11.1007 30.0235 11.2397C31.0623 12.4498 32.1217 14.179 32.6125 15.4658C33.013 16.5156 33.092 17.0903 33.0916 18.9493C33.0912 20.5347 33.0828 20.6351 32.8618 21.7057C32.405 23.9191 31.519 25.8884 30.1126 27.8158C29.3295 28.8891 27.8983 30.3351 26.5185 31.4472C25.9452 31.9093 25.3129 32.4365 25.1132 32.6188L24.7504 32.9501L24.7069 32.6538C24.683 32.4908 24.6434 31.8533 24.6189 31.2372L24.5743 30.1169L24.8108 29.9826C25.2431 29.7369 26.4378 28.7089 27.1469 27.9723C28.9087 26.1424 30.1494 24.131 30.7042 22.205C31.0177 21.1166 31.108 20.5053 31.1076 19.4744C31.1067 17.2447 30.2712 15.2933 28.6196 13.663C27.501 12.5589 26.104 11.6988 24.3474 11.0324L23.6475 10.7669L23.5657 9.86945C23.4671 8.78566 23.4517 7.95666 23.5303 7.95666C23.562 7.95666 23.8218 8.0369 24.1077 8.135ZM16.6476 8.45987C16.587 8.61734 16.6343 10.3116 16.7012 10.3783C16.814 10.4906 16.8383 10.3127 16.828 9.45411C16.8173 8.57939 16.7482 8.19857 16.6476 8.45987ZM15.7499 8.56931C15.7322 8.59823 15.7436 9.1849 15.7753 9.87309C15.8271 10.9987 15.8936 11.3801 16.0064 11.1975C16.0275 11.1634 16.0262 10.5462 16.0035 9.82611C15.9721 8.82655 15.941 8.5168 15.8722 8.5168C15.8226 8.5168 15.7676 8.54039 15.7499 8.56931ZM10.8397 9.42701C10.8159 9.46552 10.8122 9.52237 10.8313 9.55332C10.8504 9.58427 10.8359 9.74384 10.799 9.90789C10.7171 10.2726 10.7716 10.389 10.949 10.2283C11.1167 10.0766 11.2476 9.6797 11.19 9.49815C11.1435 9.35139 10.9151 9.30504 10.8397 9.42701ZM7.43965 10.3372H7.90024L7.90066 10.7748C7.90094 11.1141 7.93873 11.2732 8.0687 11.4829L8.23632 11.7533L8.03329 11.7145C7.92166 11.6931 7.49172 11.655 7.07788 11.6298L6.32551 11.5841V10.7951V10.0062L6.65229 10.1717C6.89738 10.2958 7.09433 10.3372 7.43965 10.3372ZM8.80035 10.9325C8.77817 10.9903 8.77971 11.1164 8.80385 11.2126C8.83836 11.3502 8.89225 11.3875 9.05637 11.3875C9.29587 11.3875 9.30622 11.3517 9.15491 11.0482C9.03796 10.8137 8.86726 10.758 8.80035 10.9325ZM2.86112 11.4302C3.45174 11.5419 4.21293 11.7012 4.6808 11.8111C5.24315 11.9432 6.31726 12.0812 7.43363 12.1647C8.49437 12.2441 8.58416 12.2616 8.68004 12.4081C8.88014 12.7135 9.72776 12.9275 10.2148 12.7954C10.3661 12.7544 10.5716 12.6446 10.6716 12.5514C10.8462 12.3885 10.9042 12.3802 12.1414 12.3393C15.6034 12.2249 17.4884 12.1026 19.2733 11.8767C19.8699 11.8012 20.8935 11.675 21.5479 11.5964C22.2022 11.5178 22.8379 11.426 22.9603 11.3924C23.1396 11.3433 23.1917 11.3539 23.2276 11.447C23.2672 11.5496 23.393 14.1221 23.3999 14.9697L23.4025 15.2961L23.1224 15.3434C22.9683 15.3695 22.7715 15.4019 22.685 15.4155C22.5984 15.429 22.4017 15.4715 22.2477 15.5101C21.8841 15.6008 19.2903 15.9165 18.4334 15.9742C18.0677 15.9988 16.6281 16.1427 15.2343 16.2939C13.1047 16.5248 12.4677 16.5685 11.245 16.5672C9.49218 16.5656 8.03923 16.478 6.67545 16.2919C6.1173 16.2157 4.9835 16.1041 4.15589 16.0439C2.79407 15.9449 1.68574 15.8057 1.61169 15.7244C1.59623 15.7074 1.60946 15.2681 1.64123 14.7483C1.67293 14.2284 1.70058 13.1979 1.70261 12.4583L1.70632 11.1136L2.00377 11.219C2.1674 11.2769 2.55317 11.372 2.86112 11.4302ZM24.2739 11.6287C24.852 11.8464 26.1241 12.4963 26.7018 12.8692C29.0945 14.4132 30.5422 16.9009 30.541 19.4661C30.54 21.6137 29.4685 24.2693 27.7276 26.4393C27.1216 27.1946 25.5528 28.8118 24.8767 29.378L24.5223 29.6748L24.5202 26.6751C24.5188 24.588 24.4877 23.3772 24.4179 22.6952C24.3628 22.156 24.2842 20.9903 24.2434 20.1045C24.2026 19.2188 24.1365 17.8798 24.0965 17.1288C24.0565 16.3779 23.9792 14.8656 23.9247 13.768C23.8702 12.6705 23.8055 11.7017 23.7809 11.615C23.7256 11.4203 23.7201 11.4202 24.2739 11.6287ZM21.0247 13.1866C20.9394 13.2951 20.8851 13.4513 20.8971 13.5541C20.943 13.9478 21.7928 13.7274 21.7928 13.3218C21.7928 12.9537 21.279 12.8632 21.0247 13.1866ZM3.3777 13.4166C3.31541 13.454 3.22505 13.5798 3.1769 13.6959C3.10362 13.873 3.10712 13.9343 3.19846 14.0737C3.32003 14.2593 3.63574 14.3493 3.81967 14.2508C4.08212 14.1103 4.11222 13.4198 3.85599 13.417C3.80924 13.4165 3.70797 13.4008 3.63098 13.3823C3.554 13.3636 3.44006 13.379 3.3777 13.4166ZM7.88883 13.7314C7.5981 13.9351 7.62421 14.4045 7.93166 14.5021C8.09502 14.5539 8.46063 14.3791 8.52166 14.22C8.69705 13.7628 8.29119 13.4495 7.88883 13.7314ZM16.7588 13.8125C16.5699 14.0527 16.5758 14.1601 16.7853 14.2974C17.1747 14.5526 17.666 14.0606 17.3436 13.738C17.1772 13.5716 16.9228 13.6039 16.7588 13.8125ZM11.7995 14.2339C11.7037 14.5464 11.7906 14.7483 12.0211 14.7483C12.2171 14.7483 12.4145 14.546 12.4145 14.3452C12.4145 14.1525 12.2347 13.9781 12.0362 13.9781C11.9152 13.9781 11.8597 14.0381 11.7995 14.2339ZM23.4981 16.2711C23.5233 16.6081 23.5755 17.8313 23.6143 18.9893C23.6531 20.1474 23.719 21.4707 23.7608 21.93C23.8027 22.3894 23.8522 23.9505 23.871 25.3993L23.9051 28.0333L23.6713 28.1164C23.4356 28.2002 21.9999 28.4015 21.638 28.4015H21.4429L21.4406 27.7539C21.4394 27.3977 21.3928 26.6966 21.337 26.196C21.2812 25.6954 21.2002 23.994 21.157 22.4151C21.1138 20.8362 21.0654 19.5308 21.0495 19.5141C20.9612 19.4213 20.8734 19.6856 20.8627 20.077C20.8435 20.775 21.0194 25.143 21.095 25.8459C21.1323 26.1925 21.1829 26.9186 21.2076 27.4596L21.2524 28.4432L20.8093 28.5257C20.5657 28.571 20.3567 28.5985 20.3451 28.587C20.2631 28.5049 20.1888 26.8774 20.1958 25.3208C20.2014 24.1096 20.165 23.0277 20.0911 22.205C20.0288 21.5119 19.9602 20.0783 19.9386 19.0193C19.917 17.9603 19.8829 16.9127 19.8628 16.6912L19.8262 16.2886L20.1271 16.2848C20.2926 16.2828 20.6839 16.2424 20.9966 16.1953L21.5651 16.1096L21.6008 16.6828C21.6383 17.2834 21.685 17.4406 21.8042 17.3668C21.8497 17.3387 21.859 17.1274 21.8297 16.7881C21.7757 16.1628 21.8343 16.0455 22.2302 15.9864L22.4927 15.9474L22.4913 16.6256C22.4905 16.9987 22.528 18.2885 22.5747 19.4919C22.641 21.205 22.6793 21.6799 22.751 21.6799C22.8215 21.6799 22.842 21.4898 22.84 20.8572C22.8369 19.8791 22.7278 17.1729 22.6613 16.4238L22.6143 15.8937L22.9909 15.7842C23.198 15.724 23.3866 15.6711 23.41 15.6666C23.4333 15.6621 23.473 15.9342 23.4981 16.2711ZM2.34937 16.262C2.53679 16.2977 2.53735 16.2997 2.51244 16.8359C2.48934 17.3324 2.46429 18.9383 2.47262 19.3869C2.47457 19.4927 2.5032 19.5794 2.53616 19.5794C2.61098 19.5794 2.79764 17.3194 2.77167 16.7276L2.75257 16.2914L2.94685 16.3213C3.29784 16.3752 5.5982 16.6382 5.72215 16.6385C5.757 16.6387 5.76491 17.4794 5.74035 18.5817C5.71662 19.6503 5.6768 22.3757 5.65195 24.6381C5.62704 26.9006 5.58735 28.7517 5.5637 28.7517C5.54004 28.7519 5.09548 28.6912 4.57582 28.6171C4.05616 28.5429 3.25879 28.443 2.80394 28.3949L1.97689 28.3077L2.02028 27.4619C2.10273 25.857 2.1807 22.8905 2.14535 22.7056C2.11029 22.5221 2.02805 22.4659 1.95876 22.578C1.9391 22.6099 1.90683 23.2007 1.8871 23.8908C1.86736 24.5811 1.82929 25.8502 1.80248 26.7113L1.75377 28.2769L1.47928 28.2401C1.32831 28.2198 1.19422 28.1927 1.18127 28.1796C1.15362 28.152 1.32293 24.5708 1.42392 23.0452C1.4622 22.4676 1.49412 20.778 1.49489 19.2906C1.49573 17.8032 1.51644 16.4857 1.54101 16.3629C1.58902 16.1226 1.60673 16.1204 2.34937 16.262ZM19.5412 18.4741C19.548 19.6854 19.6004 21.1594 19.6639 21.9225C19.7264 22.673 19.7866 24.3411 19.8019 25.7409C19.8168 27.108 19.8378 28.3363 19.8486 28.4705L19.8682 28.7144L19.4832 28.7599C19.2715 28.7848 18.6763 28.8239 18.1605 28.8466L17.2228 28.8881L17.2667 28.1371C17.2909 27.7242 17.332 26.3859 17.3581 25.1632C17.4004 23.187 17.3937 22.9402 17.2978 22.9402C17.1267 22.9402 17.1056 23.1545 17.1046 24.907C17.1041 25.8155 17.0829 27.0836 17.0577 27.7252L17.0117 28.8916H16.0889H15.1661L15.1182 27.2287C15.0482 24.8025 14.8067 18.3998 14.7541 17.5787L14.709 16.8732L15.5039 16.785C17.6003 16.5523 18.6814 16.4491 18.7134 16.4787C18.7326 16.4965 18.7504 17.4772 18.753 18.6579C18.7583 21.0399 18.7556 20.9798 18.8533 20.9798C18.8985 20.9798 18.9233 20.176 18.9233 18.7086V16.4376L19.1508 16.4093C19.2759 16.3938 19.4123 16.376 19.4538 16.3699C19.5063 16.3621 19.5331 17.0051 19.5412 18.4741ZM7.30534 16.8844C7.67103 16.9411 8.4269 17.0081 8.98505 17.0333L9.99987 17.0792V17.9267C9.99987 20.2565 10.1147 28.6751 10.1491 28.8692L10.1886 29.0919L9.6393 29.0595C7.92956 28.9585 7.93684 28.9596 7.90444 28.7978C7.88778 28.7146 7.85594 28.0007 7.83368 27.2112C7.76544 24.7891 7.71946 24.2005 7.59852 24.2005C7.50635 24.2005 7.49872 24.4012 7.53805 25.7934C7.56283 26.6695 7.60433 27.7443 7.63037 28.1819L7.67761 28.9777L7.47394 28.9338C7.36196 28.9097 6.99173 28.8843 6.65124 28.8775L6.03213 28.865L6.07209 28.4407C6.09413 28.2074 6.1208 25.488 6.13137 22.3976L6.15054 16.7788L6.3955 16.78C6.53023 16.7807 6.93966 16.8277 7.30534 16.8844ZM14.4449 17.8465C14.4454 18.3568 14.4757 19.7037 14.5123 20.8397C14.5488 21.9757 14.6114 24.071 14.6513 25.4958C14.6913 26.9207 14.7406 28.2834 14.7609 28.524L14.798 28.9616H14.0436C13.3102 28.9616 13.2891 28.9573 13.2821 28.8041C13.2649 28.4283 13.0348 24.7817 12.974 23.9242C12.9373 23.4062 12.886 22.2169 12.8598 21.281C12.822 19.9278 12.793 19.5794 12.7183 19.5794C12.5901 19.5794 12.5936 21.0372 12.7265 22.9752C12.8635 24.9727 13.0686 28.9612 13.0359 28.9912C13.0213 29.0045 12.4503 29.0288 11.7671 29.0451L10.5248 29.0747V27.6831C10.5248 26.0213 10.4055 19.3838 10.3512 18.0216L10.3128 17.0588H10.9721H11.6315L11.6772 17.7415C11.7023 18.117 11.751 18.7865 11.7855 19.2293C11.82 19.6722 11.8666 21.1215 11.8891 22.4501C11.9275 24.7245 12.0137 26.8082 12.107 27.7189C12.1367 28.0088 12.1772 28.1214 12.2517 28.1214C12.3366 28.1214 12.3499 28.0239 12.3263 27.5788C12.3104 27.2803 12.2451 25.6971 12.1811 24.0605C12.1172 22.4238 12.0169 20.3286 11.9582 19.4044C11.8996 18.4802 11.8522 17.5944 11.8531 17.4359L11.8546 17.1479L12.6419 17.0952C13.075 17.0662 13.5867 17.0189 13.7792 16.99C14.5118 16.8801 14.444 16.7928 14.4449 17.8465ZM4.62054 17.6774C4.58737 17.7287 4.53376 18.3746 4.50135 19.1127C4.46888 19.8507 4.42429 20.7382 4.40218 21.0848C4.36417 21.6798 4.42373 22.0095 4.53627 21.8273C4.59227 21.7367 4.73567 18.3538 4.70299 17.8951C4.68836 17.6895 4.66036 17.6157 4.62054 17.6774ZM8.69873 18.7217C8.65842 19.4935 8.75787 20.2855 8.901 20.3332C8.96895 20.3559 8.97889 20.1865 8.94586 19.5683C8.92255 19.1315 8.89127 18.7349 8.87643 18.6867C8.83605 18.5556 8.70601 18.5813 8.69873 18.7217ZM15.9556 21.5924C15.9743 22.0064 16.0213 22.9364 16.06 23.6592C16.0988 24.3821 16.1088 25.3629 16.0824 25.839C16.0269 26.8363 16.1679 28.7721 16.2929 28.73C16.3399 28.7141 16.3637 28.5072 16.3555 28.1853C16.3481 27.8999 16.3401 27.0047 16.3375 26.196C16.3323 24.5269 16.219 21.4033 16.1513 21.0648C16.1265 20.941 16.0647 20.8397 16.014 20.8397C15.9412 20.8397 15.9289 20.9988 15.9556 21.5924ZM7.51356 21.5794C7.37064 21.9554 7.52056 23.3603 7.70357 23.3603C7.7884 23.3603 7.79554 23.2665 7.7476 22.7827C7.71603 22.4649 7.69825 22.0239 7.70798 21.8024C7.72681 21.3755 7.63226 21.2671 7.51356 21.5794ZM8.75213 22.3626C8.67752 22.4881 8.62349 24.2551 8.69292 24.2981C8.82597 24.3803 8.8632 24.1909 8.89918 23.2471C8.92388 22.5993 8.91149 22.3101 8.85914 22.3101C8.81743 22.3101 8.76928 22.3337 8.75213 22.3626ZM3.36272 22.8469C3.29154 22.918 3.30701 27.1274 3.37854 27.1716C3.41297 27.1929 3.45783 27.1396 3.47834 27.0532C3.52369 26.862 3.49031 22.8812 3.443 22.8339C3.42452 22.8153 3.38834 22.8212 3.36272 22.8469ZM4.60885 23.8679C4.54453 24.0409 4.68003 28.1448 4.75079 28.1681C4.84478 28.1991 4.88299 26.3738 4.81889 24.9182C4.77437 23.9075 4.71138 23.5923 4.60885 23.8679ZM23.9209 29.782C23.9661 30.9851 24.0275 31.8363 24.1449 32.8926L24.1888 33.2877L23.7082 33.397C23.4438 33.4571 22.8024 33.5875 22.2827 33.6868C21.7631 33.7861 21.0858 33.9276 20.7778 34.0014C19.2383 34.3699 13.8202 34.6842 10.3148 34.6083C8.11356 34.5607 5.28116 34.333 4.40085 34.1329C3.4551 33.918 2.37953 33.5987 1.64431 33.3147L0.987334 33.0608L1.03339 31.5189C1.05872 30.6708 1.09903 29.6825 1.12297 29.3229L1.1665 28.6688L1.41895 28.6996C1.55773 28.7166 2.12799 28.796 2.68615 28.8762C6.28618 29.3931 8.79979 29.5648 11.7846 29.4978C16.7536 29.3862 19.9113 29.2401 20.401 29.0992C20.5314 29.0617 21.1577 28.954 21.7928 28.8598C22.428 28.7657 23.1366 28.6291 23.3675 28.5562C23.5985 28.4834 23.8064 28.4334 23.8294 28.4453C23.8525 28.4571 23.8936 29.0586 23.9209 29.782ZM22.6026 30.612C22.4643 30.7505 22.4641 30.8501 22.6017 31.0465C22.7297 31.2294 22.8913 31.2443 23.107 31.0932C23.326 30.9398 23.313 30.6578 23.083 30.5703C22.8338 30.4755 22.7302 30.4845 22.6026 30.612ZM2.6226 31.0203C2.41991 31.2361 2.45197 31.4876 2.69721 31.6048C3.10111 31.7979 3.52362 31.3877 3.28937 31.03C3.13687 30.7972 2.8362 30.7928 2.6226 31.0203ZM17.526 31.4076C17.4114 31.6218 17.441 31.8207 17.6001 31.9058C17.8153 32.021 18.0735 31.9314 18.1257 31.7234C18.2142 31.3707 17.6927 31.0961 17.526 31.4076ZM12.6472 31.5861C12.3462 31.7971 12.4054 32.3224 12.7302 32.3224C13.0812 32.3224 13.2328 31.7748 12.9361 31.5787C12.8149 31.4986 12.7705 31.4998 12.6472 31.5861ZM7.66039 31.8068C7.48143 32.0343 7.47639 32.1955 7.64331 32.3466C7.79365 32.4827 8.01271 32.497 8.1312 32.3785C8.25102 32.2586 8.23506 31.8622 8.10523 31.7323C7.94818 31.5752 7.8264 31.5956 7.66039 31.8068ZM1.74131 33.8168C2.50488 34.0923 5.05726 34.773 5.32623 34.773H5.56783L5.521 37.3461C5.49525 38.7612 5.46648 39.9268 5.45711 39.9362C5.44773 39.9456 5.2491 39.8688 5.01576 39.7656L4.5915 39.5781L4.58016 37.6481C4.56973 35.8743 4.53299 35.4927 4.38685 35.6389C4.32729 35.6984 4.35725 39.3235 4.41814 39.4221C4.44214 39.4609 4.40393 39.4662 4.32484 39.435C4.25114 39.4059 4.02956 39.321 3.83234 39.2464L3.47379 39.1106L3.44223 38.5655C3.42494 38.2657 3.38722 37.9824 3.35852 37.936C3.24703 37.7554 3.17606 37.954 3.17606 38.4469V38.9618L2.9661 38.8826L2.75614 38.8033V37.0624C2.75614 35.7008 2.7371 35.3278 2.66865 35.3506C2.60265 35.3726 2.57655 35.7884 2.56241 37.0439C2.54652 38.4469 2.52805 38.7019 2.44427 38.6698C2.38968 38.6489 2.21702 38.5973 2.06067 38.5551L1.77631 38.4785V37.05C1.77631 35.7234 1.7341 35.3983 1.59168 35.6289C1.56179 35.6773 1.54633 36.3237 1.55731 37.0653C1.57635 38.347 1.57103 38.4113 1.44939 38.3652C1.2015 38.2713 1.14642 38.1487 1.14642 37.6911C1.14642 37.4421 1.11709 36.9279 1.08133 36.5484C1.04549 36.1688 0.995662 35.3421 0.970466 34.7112L0.924764 33.5642L1.08805 33.6021C1.17791 33.623 1.47186 33.7196 1.74131 33.8168ZM24.2717 34.9306C24.2961 35.5948 24.3292 36.7213 24.3453 37.4338L24.3745 38.7292L24.1446 38.88C23.8129 39.0975 22.412 39.685 22.3144 39.6476C22.2645 39.6285 22.2116 39.3585 22.181 38.9677C22.116 38.1366 21.8258 36.0732 21.7585 35.9644C21.7273 35.9139 21.6817 35.9064 21.6429 35.9452C21.6041 35.9841 21.6466 36.5594 21.7508 37.4042C22.0167 39.5612 22.0304 39.7537 21.9219 39.8225C21.8702 39.8552 21.7939 39.8826 21.7524 39.8832C21.6761 39.8842 21.5563 39.0887 21.4707 38.0113C21.4455 37.6936 21.3928 37.4337 21.3536 37.4337C21.3063 37.4337 21.2991 37.7685 21.3324 38.4314C21.36 38.9801 21.3883 39.5526 21.3952 39.7035C21.4063 39.9452 21.386 39.9838 21.2238 40.0278L21.0397 40.0777L20.9636 39.3333C20.9217 38.9239 20.8709 38.1163 20.8508 37.5387C20.8306 36.961 20.769 36.2679 20.7137 35.9983C20.6585 35.7288 20.5918 35.2977 20.5655 35.0403L20.5178 34.5725L20.8123 34.4932C21.3143 34.3579 22.312 34.1488 22.3368 34.1737C22.3498 34.1866 22.3793 34.7061 22.4025 35.328C22.4598 36.8701 22.5778 36.8639 22.5498 35.3202L22.5277 34.103L23.2626 33.921C23.6667 33.8209 24.0492 33.7353 24.1124 33.7309C24.2133 33.7238 24.2327 33.8704 24.2717 34.9306ZM20.3546 36.2378C20.3795 36.278 20.4288 37.0976 20.4642 38.0593C20.4997 39.0208 20.548 39.8847 20.5717 39.9789C20.6115 40.1377 20.5885 40.1558 20.2555 40.2272C20.0579 40.2697 19.8531 40.3043 19.8003 40.3043C19.6944 40.3043 19.7084 40.4186 19.4813 37.681C19.4015 36.7196 19.3242 35.9209 19.3094 35.9061C19.2947 35.8913 19.249 35.9 19.208 35.9254C19.1158 35.9824 19.1133 36.3807 19.1995 37.2734C19.2359 37.6504 19.3 38.3999 19.3421 38.939C19.3841 39.4781 19.4337 40.0175 19.4524 40.1378C19.4834 40.3382 19.4673 40.3601 19.2572 40.4022C18.8255 40.489 17.4886 40.7133 17.1279 40.7595L16.7672 40.8057L16.7248 40.1875C16.5962 38.311 16.5136 37.4337 16.4657 37.4337C16.3191 37.4337 16.3235 37.5506 16.5754 40.3886C16.595 40.6082 16.5879 40.8011 16.5598 40.8171C16.5317 40.8332 16.2852 40.8676 16.012 40.8936L15.5151 40.9409L15.4691 39.1348C15.4438 38.1414 15.403 36.8167 15.3785 36.1909L15.3339 35.0531H15.9432C16.7637 35.0531 18.3589 34.9271 19.3432 34.7846L20.1481 34.668L20.2287 35.4163C20.2731 35.8278 20.3297 36.1975 20.3546 36.2378ZM7.06039 34.9796C7.48381 35.0176 8.33983 35.07 8.96272 35.096L10.0952 35.1433L10.1175 38.0214C10.1298 39.6044 10.1398 40.9035 10.1398 40.9084C10.1398 40.9287 8.67031 40.7226 8.09816 40.6221C7.25026 40.4732 6.73382 40.3283 6.66523 40.2202C6.63353 40.1702 6.60715 39.6331 6.60652 39.0265C6.60561 38.0934 6.5893 37.9238 6.50048 37.9238C6.37415 37.9238 6.36737 38.0081 6.3927 39.2663L6.41202 40.2236L6.12381 40.1504L5.8356 40.0773V37.457V34.8367L6.06306 34.8736C6.1882 34.894 6.63696 34.9417 7.06039 34.9796ZM15.0288 36.5351C15.053 37.3181 15.0927 38.6407 15.1173 39.4743L15.162 40.9898L14.412 41.0409C13.6345 41.094 11.7461 41.0594 11.6777 40.9909C11.6562 40.9695 11.6097 40.5462 11.5742 40.0505C11.4294 38.0264 11.4171 37.9238 11.3192 37.9238C11.2517 37.9238 11.2249 38.0287 11.2257 38.2914C11.2273 38.8364 11.3616 40.7389 11.4094 40.8924C11.4477 41.0159 11.4197 41.0226 11.0172 40.9861C10.7788 40.9645 10.5748 40.9361 10.564 40.9231C10.5531 40.9101 10.5242 39.6077 10.4999 38.0288L10.4555 35.1581L12.7203 35.1348L14.985 35.1115L15.0288 36.5351ZM7.99745 36.5545C7.97499 36.577 7.97604 38.9491 7.99892 39.9017C8.00235 40.0462 8.03672 40.1643 8.07521 40.1643C8.12 40.1643 8.1452 39.5239 8.1452 38.383C8.1452 36.8311 8.11349 36.4385 7.99745 36.5545ZM12.4664 37.2761C12.4316 37.4269 12.4805 39.299 12.5249 39.5166C12.5426 39.6033 12.6074 39.6742 12.6689 39.6742C12.7507 39.6742 12.7694 39.6319 12.7385 39.5166C12.7153 39.43 12.6959 38.8629 12.6954 38.2563C12.6945 37.3484 12.6768 37.1536 12.5945 37.1536C12.5397 37.1536 12.482 37.2088 12.4664 37.2761ZM18.4757 38.3202C18.5479 39.334 18.6038 39.7066 18.6784 39.6718C18.7211 39.6519 18.7385 39.3431 18.7232 38.8803C18.6956 38.0508 18.6456 37.7728 18.5162 37.7297C18.4522 37.7083 18.4424 37.8519 18.4757 38.3202ZM14.3187 37.942C14.2441 38.0328 14.326 40.3307 14.4148 40.6369C14.4399 40.7235 14.5081 40.7945 14.5664 40.7945C14.6501 40.7945 14.6631 40.7392 14.6281 40.5319C14.6037 40.3875 14.5631 39.7404 14.5378 39.0938C14.5125 38.4473 14.4689 37.9041 14.4409 37.8868C14.4129 37.8694 14.3579 37.8944 14.3187 37.942ZM1.60134 38.7541C1.98627 38.8693 2.56892 39.0897 2.89611 39.2437C4.14259 39.8305 5.90986 40.5107 6.85042 40.7656C8.13568 41.1139 11.6964 41.4937 13.6819 41.4943C15.3653 41.4948 18.1944 41.1938 20.0081 40.8214C21.695 40.475 23.9459 39.6185 24.3728 39.1605L24.5382 38.9831L24.714 39.1461C24.8107 39.2358 24.8683 39.3439 24.842 39.3863C24.7614 39.5169 23.7709 39.95 22.6435 40.3476C20.5531 41.0849 17.8972 41.633 14.864 41.9532C12.3019 42.2236 9.68626 41.9161 6.32551 40.9494C4.74106 40.4937 3.27677 40.0939 3.19223 40.0941C3.02587 40.0944 2.10707 39.7462 1.78373 39.5603C1.60645 39.4584 1.23306 39.2321 0.954089 39.0573C0.466414 38.752 0.451437 38.7346 0.566427 38.6075C0.632145 38.5348 0.734468 38.4908 0.793747 38.5099C0.852957 38.5289 1.2164 38.6389 1.60134 38.7541Z" fill="black"/>
</svg>
