<svg width="53" height="31" viewBox="0 0 53 31" fill="none" xmlns="http://www.w3.org/2000/svg">
<path fill-rule="evenodd" clip-rule="evenodd" d="M17.6081 0.0611865C17.3644 0.0869991 16.3744 0.237298 15.4083 0.395183C14.442 0.553068 13.404 0.721385 13.1015 0.76919C12.5758 0.8523 10.1112 1.29076 9.13607 1.47469C8.54965 1.58529 7.26613 1.68726 6.32571 1.69791C5.46813 1.70769 5.52353 1.66932 5.04397 2.58538C4.88049 2.89762 4.61419 3.32543 4.45215 3.53609C4.20242 3.86078 4.11345 3.93295 3.86811 4.01004C3.46827 4.13569 2.7267 4.28166 2.48831 4.28166C2.37942 4.28166 2.2586 4.31991 2.21975 4.36662C2.07202 4.54459 1.72011 7.5043 1.58291 9.72198C1.43807 12.0639 1.38383 12.6361 1.06173 15.2202C0.99626 15.7454 0.917366 16.8262 0.886453 17.622C0.808649 19.6228 0.720809 21.3656 0.654583 22.2231C0.462215 24.7131 0.455866 26.1828 0.628493 28.2422C0.745025 29.6324 0.819355 30.0236 1.01566 30.2785C1.20195 30.5203 1.3311 30.5719 2.10248 30.7125C2.57017 30.7977 3.04631 30.8131 5.28641 30.8152C6.86639 30.8167 8.26784 30.7895 8.78874 30.7472C9.26633 30.7084 10.2534 30.6621 10.9822 30.6443C11.7111 30.6265 12.325 30.601 12.3466 30.5877C12.3681 30.5744 12.892 30.549 13.5107 30.5314C14.1293 30.5137 15.0785 30.4848 15.6197 30.467C16.5952 30.4351 20.7265 30.2107 22.5086 30.0928C23.4928 30.0277 24.3637 30.0722 25.5567 30.2484C26.2694 30.3537 26.5628 30.3208 27.4551 30.0351L28.0019 29.86L29.6549 29.8655C30.564 29.8685 31.9851 29.8913 32.813 29.9162C34.4138 29.9644 37.454 29.9521 40.5412 29.885C41.576 29.8626 44.1159 29.8408 46.1855 29.8367C49.0213 29.831 50.0196 29.8111 50.2378 29.7555C50.397 29.715 50.7249 29.6472 50.9666 29.6049C51.4331 29.5233 52.0529 29.2575 52.1073 29.1156C52.1253 29.0688 52.1145 29.022 52.0833 29.0116C52.0463 28.9993 52.0465 28.873 52.0836 28.6485C52.1263 28.3904 52.1166 28.097 52.0451 27.4774C51.9926 27.0227 51.886 26.1037 51.8083 25.4352C51.6398 23.9866 51.5662 23.081 51.4809 21.4129C51.4459 20.7285 51.3926 19.9211 51.3625 19.6187C51.3324 19.3163 51.2824 17.6886 51.2513 16.0015C51.2202 14.3144 51.1824 12.882 51.1671 12.8183C51.1518 12.7547 51.1099 12.1947 51.0739 11.574C51.0379 10.9533 50.9845 10.3022 50.9551 10.1271C50.9258 9.95204 50.8745 9.31395 50.8412 8.70915C50.808 8.10435 50.7332 7.08522 50.6752 6.44436C50.6171 5.80356 50.5824 5.21225 50.5981 5.13035C50.6211 5.00985 50.6005 4.9757 50.49 4.95087C50.415 4.93409 50.1761 4.88079 49.9592 4.83246C49.7423 4.7842 49.4427 4.74456 49.2935 4.74439C49.0244 4.7441 49.0201 4.74108 48.7905 4.3852C48.2184 3.49843 48.0378 3.25461 47.8 3.0473C47.6603 2.92547 47.5459 2.78963 47.5459 2.74547C47.5459 2.61444 47.3732 2.55992 46.8223 2.51698C46.5357 2.49469 45.9235 2.42489 45.4619 2.36198C45.0002 2.29901 44.3359 2.22435 43.9857 2.19611C43.6354 2.16781 43.0623 2.08151 42.7121 2.00431C42.3619 1.9271 41.7757 1.79705 41.4096 1.71533C40.0091 1.40274 37.1249 0.857493 36.46 0.779593C33.9316 0.483385 32.6802 0.503702 30.5842 0.875091C29.5809 1.05288 28.3234 1.5479 27.6019 2.04917C27.4103 2.18228 27.2099 2.30792 27.1566 2.32835C27.0908 2.35359 26.8951 2.24287 26.5497 1.98492C25.6237 1.29353 24.9046 0.944955 23.7532 0.629243C22.2763 0.224345 22.0401 0.167446 21.4947 0.0855522C20.8637 -0.00919037 18.4172 -0.0245274 17.6081 0.0611865ZM21.1771 0.63549C21.1981 0.731043 21.1976 0.974644 21.1759 1.17692C21.1416 1.4972 21.1497 1.54969 21.239 1.58396C21.3683 1.63356 21.4356 1.53164 21.4368 1.28474C21.4382 0.974644 21.5832 0.693366 21.7415 0.693366C21.8164 0.693366 21.9039 0.667033 21.9361 0.634854C21.9756 0.595383 22.2577 0.654185 22.8016 0.815138C23.2454 0.946458 23.7778 1.09942 23.9848 1.15504C24.5491 1.30679 25.2467 1.59923 25.6173 1.83947C25.7988 1.95719 26.1974 2.22152 26.5032 2.42698C27.0571 2.79917 27.059 2.80126 27.0266 3.00573C27.0088 3.11859 26.9816 4.39596 26.9663 5.8443C26.9393 8.40409 26.8782 10.2045 26.7639 11.8055C26.7333 12.2352 26.6944 13.2119 26.6776 13.9758C26.6609 14.7398 26.6326 15.6123 26.6148 15.9147C26.5971 16.2171 26.5732 16.8421 26.5616 17.3037C26.5501 17.7653 26.4739 18.6638 26.3924 19.3004C26.3109 19.937 26.2147 20.7965 26.1787 21.2103C26.0984 22.1308 26.08 25.4011 26.1469 26.8358L26.196 27.8892L26.02 27.8228C25.9168 27.7838 25.8304 27.7017 25.8109 27.624C25.7913 27.5463 25.7181 27.4766 25.6333 27.4554C25.5388 27.4317 25.4773 27.3663 25.4554 27.2664C25.3818 26.9309 25.3314 26.8234 25.2391 26.8056C25.1594 26.7901 25.1426 26.8372 25.1426 27.077C25.1426 27.2367 25.1231 27.3793 25.0992 27.394C25.0752 27.4087 24.9776 27.3887 24.8821 27.3495C24.7208 27.2834 24.7084 27.2569 24.7084 26.9803C24.7084 26.613 24.5993 26.5793 24.575 26.9391C24.5653 27.0829 24.5437 27.2004 24.5269 27.2004C24.5102 27.2004 24.2706 27.119 23.9946 27.0194C23.7185 26.9198 23.0238 26.7033 22.4507 26.5383C21.4746 26.2572 21.4005 26.2261 21.2784 26.0452C21.2068 25.9391 21.1482 25.7757 21.1482 25.6823C21.1482 25.4172 21.0113 25.5196 20.9503 25.8302C20.9211 25.979 20.8667 26.1008 20.8295 26.1008C20.7923 26.1008 20.4081 26.0118 19.9758 25.9029C18.7898 25.6042 18.1533 25.5591 15.6497 25.5958C13.9492 25.6208 13.2705 25.6538 12.5226 25.7476C11.9973 25.8136 11.359 25.8935 11.1043 25.9253C10.8496 25.9571 10.1618 26.0111 9.57587 26.0453C8.98991 26.0795 8.33918 26.1281 8.12979 26.1532C7.74916 26.1991 7.74899 26.199 7.5583 26.0027C7.34613 25.7843 7.25466 25.7952 7.25466 26.0388C7.25466 26.18 7.2278 26.2058 7.05089 26.2345C6.83322 26.2698 6.51987 26.1682 6.36316 26.0115C6.29196 25.9403 6.27053 25.7982 6.27053 25.3973C6.27053 25.006 6.25247 24.8817 6.19817 24.8996C6.15736 24.913 6.11319 25.0601 6.09686 25.2372C6.07985 25.422 6.00997 25.6485 5.9269 25.7883C5.79011 26.0185 5.77296 26.0275 5.35199 26.093C5.02526 26.1438 4.90786 26.144 4.87688 26.0939C4.85425 26.0573 4.8476 25.816 4.86202 25.5576C4.87643 25.2993 4.84791 24.7103 4.79864 24.2488C4.72211 23.5321 4.71742 23.0549 4.76639 20.9788C4.79794 19.6419 4.86254 17.7016 4.90996 16.6671C4.95737 15.6325 5.0093 13.9397 5.0254 12.9051C5.05475 11.015 5.10237 10.1591 5.25549 8.76703C5.44079 7.08279 5.57673 5.32869 5.63219 3.90547C5.66449 3.07784 5.70739 2.32761 5.72759 2.23831C5.76406 2.07672 5.76596 2.07613 6.08974 2.12191C6.26879 2.14726 6.8646 2.16317 7.41386 2.15733L8.41245 2.14674V2.31551C8.41245 2.53295 8.58976 3.36855 8.65048 3.43713C8.67781 3.46798 8.73246 3.46023 8.78311 3.41821C8.8509 3.36195 8.86406 3.241 8.8449 2.84964C8.82111 2.3636 8.82429 2.34907 8.98719 2.19338C9.11415 2.07213 9.23436 2.02509 9.49226 1.99574C9.67843 1.9745 10.5211 1.84012 11.3648 1.69705C12.2086 1.55404 13.3678 1.36281 13.9409 1.27218C14.514 1.18154 15.2304 1.05417 15.5329 0.989118C17.4128 0.584856 18.3 0.481715 20.0003 0.469792L21.139 0.461863L21.1771 0.63549ZM35.0707 1.07019C36.6766 1.20382 37.02 1.2495 38.1099 1.47423C38.6671 1.58911 39.2402 1.70555 39.3834 1.73292C39.5267 1.76035 39.8523 1.82449 40.1071 1.87554C40.3618 1.92659 40.7786 2.00825 41.0333 2.05709C41.288 2.106 41.6788 2.19576 41.9016 2.2567C42.9478 2.54266 43.7682 2.67028 45.0856 2.75177C45.7052 2.79014 45.7822 2.82539 45.9105 3.12883C45.9862 3.30801 46.0846 3.43597 46.1802 3.47949C46.4071 3.58286 46.4238 3.50312 46.2442 3.17322L46.0815 2.87442L46.4904 2.91244C47.0319 2.96273 47.0685 2.98154 47.1076 3.22994C47.1617 3.57407 47.2556 5.29182 47.3138 7.00182C47.3708 8.67662 47.3907 8.95032 47.5193 9.83773C47.5631 10.1401 47.6404 10.8563 47.691 11.4293C47.9583 14.4566 48.0022 15.9863 47.8939 18.4958C47.8624 19.2248 47.8229 20.7589 47.8061 21.9048C47.7583 25.1528 47.7613 25.1199 47.5123 25.0723C47.4315 25.0569 47.167 25.0763 46.9244 25.1154C46.4069 25.1988 44.4806 25.213 44.4273 25.1338C44.4073 25.104 44.3388 25.0589 44.2751 25.0336C44.2013 25.0044 44.1856 24.9779 44.2317 24.9607C44.2715 24.9458 44.3041 24.881 44.3041 24.8165C44.3041 24.7335 44.2774 24.7096 44.2125 24.7345C44.1621 24.7539 44.081 24.7697 44.0323 24.7697C43.9667 24.7697 43.9502 24.8149 43.9691 24.9433C43.992 25.0992 43.9788 25.1169 43.8402 25.1169C43.6385 25.1169 43.5515 24.9264 43.5515 24.4846C43.5515 24.1677 43.4567 23.9578 43.358 24.0564C43.3371 24.0773 43.3199 24.0641 43.3199 24.027C43.3199 23.9898 43.2939 23.9594 43.262 23.9594C43.1791 23.9594 43.1907 24.1517 43.2846 24.3327C43.3638 24.4854 43.3498 24.7118 43.261 24.7118C43.2361 24.7118 43.1635 24.8001 43.0999 24.9079C42.9889 25.096 42.9727 25.1029 42.7034 25.0764C42.549 25.0612 42.1231 24.9997 41.7569 24.9398C39.8492 24.6275 38.2989 24.6006 36.5468 24.8492C35.0811 25.0572 33.7184 25.271 32.9577 25.4125C32.6234 25.4747 31.9765 25.5894 31.5202 25.6674C30.6488 25.8163 29.6129 26.1313 28.878 26.4708L28.4416 26.6724L28.2972 26.46C28.2178 26.3431 28.1528 26.1771 28.1528 26.0911C28.1528 25.8851 28.0563 25.6378 27.976 25.6378C27.9356 25.6378 27.9256 25.6996 27.949 25.8059C27.9702 25.9024 27.9598 25.9902 27.9247 26.0119C27.891 26.0328 27.8634 26.1885 27.8634 26.358C27.8634 26.7665 27.7499 27.0167 27.4787 27.2065L27.2556 27.3626L27.1977 27.0688C27.1658 26.9072 27.1031 26.763 27.0583 26.7484C26.9914 26.7265 26.9832 26.7904 27.0125 27.1039L27.0482 27.4859L26.7986 27.6904C26.6613 27.8029 26.5352 27.895 26.5184 27.895C26.5016 27.895 26.474 27.6541 26.4572 27.3596C26.4403 27.0651 26.3953 26.3424 26.3569 25.7536C26.2402 23.9593 26.3435 21.6553 26.6501 19.2136C26.7773 18.2012 26.8445 16.9417 26.9344 13.889C26.9649 12.8545 27.0045 11.9169 27.0225 11.8055C27.1349 11.1089 27.2422 8.37909 27.2609 5.73961C27.2724 4.10635 27.2955 2.748 27.3122 2.72103C27.3834 2.60586 27.5679 2.73528 27.5852 2.91255C27.6099 3.16622 27.7727 3.18555 27.8567 2.94485C27.8922 2.84298 27.9218 2.7049 27.9225 2.63806C27.9233 2.55298 28.0364 2.44242 28.2988 2.27013C28.505 2.13464 28.6738 2.05443 28.6738 2.09193C28.6738 2.18396 28.8488 2.37176 28.9345 2.37176C28.9725 2.37176 29.051 2.26682 29.1088 2.13863C29.2338 1.86135 29.3329 1.8676 29.3572 2.15426C29.3889 2.52542 29.5216 2.46795 29.7689 1.97613C29.8935 1.72865 30.0301 1.49842 30.0727 1.46462C30.1863 1.37433 32.2115 1.05363 32.8708 1.02151C33.7156 0.980419 34.0918 0.988755 35.0707 1.07019ZM5.33904 3.15308C5.31369 3.40774 5.26452 4.07186 5.22985 4.62892C5.16553 5.66206 5.00467 7.48601 4.84958 8.94066C4.70879 10.2609 4.64441 11.9766 4.68238 13.3971C4.70745 14.3358 4.69043 15.1719 4.62455 16.233C4.53187 17.7275 4.38928 22.0481 4.39067 23.3228C4.39108 23.6888 4.41455 24.388 4.44285 24.8763C4.47562 25.4425 4.47399 25.7781 4.43833 25.8023C4.40759 25.8233 4.34142 25.9004 4.29129 25.9737C4.20648 26.0978 4.19744 26.0254 4.16138 24.9319C4.12143 23.7214 4.09399 23.4385 4.01671 23.4385C3.95077 23.4385 3.89706 24.2087 3.89706 25.1546C3.89706 25.6113 3.87562 25.9851 3.8494 25.9851C3.82317 25.9851 3.80276 26.1087 3.80397 26.26C3.8082 26.7839 3.72837 27.0635 3.47823 27.4009C3.34682 27.5783 3.21814 27.7023 3.19232 27.6765C3.1445 27.6287 3.10536 25.0094 3.1493 24.7986C3.16707 24.7135 3.13899 24.678 3.04318 24.6644C2.94072 24.6498 2.91246 24.6745 2.91067 24.7801C2.90627 25.0391 2.73214 27.8113 2.70181 28.1045C2.67454 28.3684 2.63766 28.434 2.36459 28.7037L2.05796 29.0064L2.10536 28.7545C2.28661 27.7921 2.3038 27.3778 2.31168 23.7858C2.31966 20.1227 2.34665 19.4655 2.56582 17.5931C2.59748 17.3225 2.6497 16.2417 2.68177 15.1912C2.7422 13.215 2.79442 12.4757 2.94337 11.4872C2.99136 11.1689 3.06877 10.5308 3.11538 10.0692C3.16203 9.60768 3.23955 8.94355 3.28772 8.5934C3.33588 8.24325 3.3926 7.35151 3.41384 6.6118C3.448 5.41915 3.46422 5.25604 3.55678 5.17235C3.65711 5.08161 3.65977 5.11929 3.62567 6.14421C3.58926 7.23829 3.66097 7.9857 3.80228 7.9857C3.84865 7.9857 3.86816 7.71624 3.86834 7.07416C3.86845 6.57284 3.89041 5.83446 3.9171 5.43344C3.9597 4.79322 3.98231 4.68377 4.10261 4.53636L4.23965 4.36847L4.20909 5.09192C4.17661 5.86092 4.23234 6.48672 4.33643 6.52133C4.37985 6.53574 4.4114 6.16066 4.43768 5.31787L4.47584 4.09345L4.75805 3.71007C4.91331 3.49923 5.11298 3.17688 5.20178 2.99376C5.29058 2.81064 5.36821 2.66739 5.37423 2.67544C5.38025 2.68348 5.36446 2.89843 5.33904 3.15308ZM47.6768 3.53234C47.8298 3.7577 47.9225 4.36258 47.9891 5.5694C48.0103 5.95404 48.0516 6.24943 48.0839 6.24943C48.1207 6.24943 48.1306 5.86409 48.1117 5.1726L48.0822 4.09583L48.2048 4.28815C48.2973 4.43325 48.3558 4.7041 48.4432 5.39218C48.5069 5.89368 48.585 6.3043 48.6168 6.30476C48.6853 6.30575 48.6888 5.99941 48.6282 5.32342L48.5841 4.83148L48.7005 4.97617C48.7645 5.05575 48.8604 5.21201 48.9135 5.32342C48.9667 5.43484 49.0378 5.54382 49.0714 5.56564C49.167 5.62768 49.2259 7.03279 49.2164 9.02748C49.2088 10.626 49.2565 12.8113 49.3705 16.0883C49.4195 17.4964 49.5044 18.7133 49.6311 19.8213C49.7992 21.2925 49.8603 22.7962 49.8609 25.4787C49.8614 27.4937 49.8482 27.895 49.7816 27.895C49.6249 27.895 49.5705 27.5696 49.5445 26.477C49.5297 25.853 49.4795 25.1646 49.4285 24.8854C49.356 24.4889 49.3461 24.1516 49.377 23.1461C49.4169 21.8537 49.3898 21.4707 49.2584 21.4707C49.1525 21.4707 49.1059 22.3804 49.0958 24.6426C49.0914 25.639 49.0703 26.4651 49.0492 26.4782C49.0279 26.4912 48.9776 26.4313 48.9372 26.3448C48.8969 26.2584 48.844 26.1475 48.8198 26.0985C48.7129 25.882 48.701 25.3968 48.7871 24.7676C48.8777 24.1061 48.8715 23.37 48.768 22.4865C48.7645 22.4562 48.729 22.4641 48.6892 22.504C48.6394 22.5538 48.6157 22.8051 48.613 23.3113C48.6099 23.9204 48.5826 24.1439 48.4538 24.6168C48.3684 24.9307 48.2985 25.2807 48.2985 25.3946V25.6016L48.1327 25.4428C47.9698 25.2867 47.9683 25.2799 48.05 25.043C48.1154 24.8533 48.1374 24.3019 48.1533 22.4563C48.1644 21.1662 48.2065 19.2325 48.2469 18.1592C48.3056 16.5944 48.3059 15.8949 48.248 14.6288C48.1563 12.6192 47.9821 10.6057 47.7787 9.2011C47.7487 8.9942 47.6954 8.12172 47.6601 7.26226C47.6249 6.40281 47.5598 5.19766 47.5154 4.58412C47.4458 3.62101 47.4474 3.23792 47.5208 3.31125C47.5309 3.32138 47.6011 3.42087 47.6768 3.53234ZM3.72339 4.43631C3.72339 4.45772 3.59193 4.62637 3.43117 4.81111C3.07804 5.21705 3.0679 5.26283 2.93846 7.03076C2.88722 7.73106 2.79605 8.64259 2.73584 9.05641C2.67564 9.47022 2.59842 10.0953 2.56421 10.4454C2.53 10.7956 2.46492 11.3165 2.4196 11.6029C2.27169 12.5382 2.2186 13.3081 2.16065 15.3589C2.12927 16.4698 2.07822 17.5897 2.04713 17.8476C1.82142 19.7217 1.79879 20.2644 1.80667 23.6122C1.8113 25.5747 1.78975 27.1775 1.75415 27.5188C1.64549 28.5599 1.62269 28.9837 1.66946 29.0913C1.69482 29.1495 1.71034 29.2294 1.70398 29.2689C1.69767 29.3083 1.7186 29.3894 1.7505 29.449C1.80058 29.5425 1.91057 29.5633 2.54892 29.6004C3.96559 29.6826 4.7041 29.655 7.97828 29.3974C8.8365 29.3299 10.1795 29.2746 11.278 29.2615C16.4992 29.1995 17.8536 29.173 18.8615 29.113C19.4665 29.0769 21.0816 29.0392 22.4507 29.029C24.1183 29.0167 25.0164 28.9885 25.1715 28.9434C25.2989 28.9064 25.7027 28.865 26.0688 28.8515C26.435 28.838 26.8908 28.812 27.0819 28.7938C27.2729 28.7757 28.0544 28.7488 28.8186 28.7344C29.5827 28.7199 30.5857 28.6697 31.0473 28.6229C32.3069 28.4952 32.7214 28.4746 35.2733 28.4133C37.7801 28.3531 39.6862 28.3731 40.4833 28.468C42.1447 28.6659 46.9168 28.7201 48.3563 28.5574C49.6195 28.4146 50.1581 28.3177 50.2612 28.2147C50.342 28.1339 50.3559 27.8323 50.3726 25.802C50.3929 23.3315 50.3219 21.184 50.1776 19.9081C49.9828 18.1856 49.9314 17.4443 49.8041 14.5257C49.7715 13.7776 49.7312 12.9833 49.7145 12.7605C49.6978 12.5376 49.6598 11.2745 49.63 9.95348C49.5596 6.83531 49.4417 5.313 49.2613 5.19632C49.1071 5.0966 49.3101 5.09215 49.7459 5.1858L50.2203 5.28771L50.1855 5.49369C50.1425 5.74753 50.2505 9.0733 50.3275 9.86666C50.3584 10.185 50.4228 10.8361 50.4706 11.3136C50.7652 14.2554 50.7681 14.3019 50.8454 17.3616C50.874 18.4916 50.9249 19.6896 50.9586 20.0239C50.9922 20.3581 51.0731 21.2045 51.1384 21.9048C51.2764 23.3863 51.6341 26.4728 51.7122 26.8564C51.8312 27.4416 51.8925 28.1783 51.8552 28.5767C51.8104 29.0551 51.7761 29.0915 51.2712 29.195C51.0654 29.2371 50.7822 29.238 50.356 29.1977C50.0165 29.1656 49.2192 29.1523 48.5843 29.1682C47.9494 29.1841 47.43 29.1776 47.43 29.1538C47.4301 29.1299 47.2868 29.1104 47.1117 29.1104C46.9366 29.1104 46.7933 29.1314 46.7933 29.157C46.7933 29.1826 45.9793 29.2054 44.9843 29.2076C43.9893 29.2099 42.4719 29.2403 41.6122 29.2752C40.7525 29.3101 39.4891 29.3534 38.8045 29.3714C38.12 29.3893 37.2343 29.4324 36.8363 29.4672C36.393 29.5059 35.1034 29.5218 33.5076 29.5084C32.0749 29.4964 30.2513 29.4891 29.4554 29.4923C28.0779 29.4978 27.983 29.5054 27.4871 29.6486C26.472 29.9419 26.2693 29.9491 25.0268 29.7366C24.4689 29.6412 20.5868 29.6477 19.0352 29.7467C18.4303 29.7853 16.6067 29.842 14.9829 29.8726C11.1026 29.9458 10.956 29.9512 9.97547 30.0567C8.25389 30.2418 7.56622 30.271 4.93907 30.2708C3.02396 30.2707 2.12273 30.2493 1.8158 30.1969C1.41115 30.1277 1.37294 30.1081 1.19939 29.8804C0.997298 29.6153 0.976649 29.5169 0.886283 28.3869C0.757826 26.7804 0.829199 24.5319 1.09028 21.9627C1.22748 20.6129 1.2592 20.21 1.43431 17.5931C1.48016 16.9087 1.59577 15.7888 1.69128 15.1044C1.91607 13.4942 2.02936 12.3788 2.10264 11.0531C2.18375 9.58661 2.2743 8.22924 2.30718 7.9857C2.32229 7.87429 2.36043 7.39248 2.39204 6.91501C2.49514 5.35688 2.56513 4.72291 2.63923 4.67585C2.67836 4.65103 2.78847 4.62823 2.88399 4.62516C2.9795 4.62215 3.18791 4.57289 3.3471 4.51577C3.69103 4.39232 3.72339 4.3855 3.72339 4.43631ZM40.3965 25.3271C41.554 25.492 41.7304 25.5082 41.9618 25.4703C42.0879 25.4497 42.3604 25.4515 42.5674 25.4744C42.7743 25.4973 43.2399 25.5174 43.602 25.5191C43.964 25.5207 44.5371 25.5639 44.8756 25.6151C45.6268 25.7287 47.3306 25.7537 47.5559 25.6544C47.6793 25.6 47.7237 25.602 47.7757 25.6647C47.8465 25.7499 47.7866 25.77 47.2373 25.8454C46.979 25.8809 46.8387 25.9918 46.9329 26.0861C46.9539 26.107 47.25 26.1384 47.5908 26.1559L48.2106 26.1876L48.4929 26.5617L48.7752 26.9358L48.6243 26.9761C48.3106 27.06 47.2567 27.1416 46.509 27.1399C46.0471 27.1389 45.7083 27.1625 45.6725 27.1982C45.6394 27.2313 45.5459 27.2585 45.4647 27.2587C45.2184 27.2592 44.883 27.3746 44.883 27.4589C44.883 27.5415 45.3383 27.5419 47.2303 27.4607C47.8225 27.4354 48.0653 27.4488 48.3548 27.5229C48.5578 27.5749 48.8069 27.604 48.9082 27.5875C49.0757 27.5604 49.0978 27.5748 49.1502 27.7454L49.2078 27.9331L48.4492 28.0071C48.032 28.0478 47.391 28.1104 47.0249 28.1462C46.0251 28.244 42.7807 28.2125 41.0265 28.0881C38.7814 27.9288 34.2662 27.9871 30.8361 28.2196C30.099 28.2696 29.1743 28.3108 28.781 28.3111C28.3878 28.3115 27.7732 28.3369 27.4153 28.3676C27.0574 28.3983 26.7366 28.4061 26.7023 28.3849C26.6412 28.3471 27.3422 27.8674 27.9884 27.5049C28.874 27.0081 30.5692 26.3983 31.4815 26.2484C31.7999 26.1961 32.373 26.0902 32.7551 26.0132C33.9228 25.7778 37.2005 25.3064 38.1187 25.2418C38.858 25.1898 39.6376 25.219 40.3965 25.3271ZM19.0306 26.2446C19.3464 26.2929 19.9194 26.4122 20.3038 26.5097C20.6883 26.6072 21.1853 26.7222 21.4084 26.7653C22.0363 26.8868 23.351 27.2753 24.2453 27.6038C24.691 27.7675 25.2902 27.9836 25.5768 28.084L26.0978 28.2666L25.5478 28.3476C25.1594 28.4047 24.2664 28.433 22.5086 28.444C21.1395 28.4525 19.2769 28.4903 18.3695 28.5279C16.5896 28.6017 13.6962 28.6908 10.7859 28.7615C9.78299 28.7858 8.51955 28.8474 7.97828 28.8985C6.35314 29.0516 4.68407 29.1682 3.55209 29.2076L2.48351 29.2447L2.79373 28.8882C3.04839 28.5954 3.13609 28.5315 3.28342 28.5309C3.38212 28.5306 3.60616 28.4918 3.78128 28.4448C3.95639 28.3978 4.17134 28.359 4.25887 28.3587C4.37922 28.3581 4.41806 28.3297 4.41806 28.2422C4.41806 28.1355 4.37946 28.1265 3.92213 28.1265H3.42619L3.6311 27.8764C3.74381 27.7389 3.90476 27.4764 3.9887 27.293C4.12659 26.9919 4.15524 26.9631 4.28456 26.9955C4.50379 27.0506 5.11274 26.9666 5.11274 26.8814C5.11274 26.7869 4.92519 26.7392 4.54908 26.7382L4.24589 26.7374L4.37244 26.477C4.50912 26.1958 4.56319 26.159 4.60499 26.3188C4.66601 26.5522 6.96278 26.8483 8.123 26.7724C8.42548 26.7526 9.14186 26.71 9.71497 26.6779C10.2881 26.6457 11.0435 26.5816 11.3938 26.5354C13.847 26.2118 14.1652 26.1901 16.7486 26.17C18.0403 26.16 18.5962 26.1782 19.0306 26.2446ZM31.9446 26.6515C31.134 26.842 29.8009 27.3103 29.0655 27.6629C28.4147 27.975 28.331 28.0384 28.4341 28.1414C28.479 28.1864 28.6772 28.1184 29.1365 27.9004C29.9638 27.5076 31.0021 27.1301 31.9375 26.8819C32.3476 26.7731 32.6953 26.6718 32.7104 26.6567C32.7544 26.6128 32.6677 26.5055 32.5925 26.5107C32.5545 26.5133 32.263 26.5767 31.9446 26.6515ZM19.7838 27.3227C19.7312 27.4077 19.8649 27.4879 20.0612 27.489C20.1479 27.4894 20.6689 27.5663 21.219 27.6597C22.2179 27.8293 23.1871 27.9528 23.5194 27.9528C23.6348 27.9528 23.6953 27.9238 23.6953 27.8686C23.6953 27.7761 23.6824 27.7734 22.5778 27.6368C22.1701 27.5864 21.4871 27.4806 21.06 27.4017C20.2147 27.2457 19.8456 27.2228 19.7838 27.3227ZM35.5838 27.4027C35.52 27.5689 35.6727 27.6034 36.5179 27.6138C38.5571 27.6389 38.9997 27.6493 39.7453 27.6899C40.4457 27.728 40.5412 27.7224 40.5412 27.6431C40.5412 27.5864 40.4715 27.5414 40.3531 27.5218C39.9562 27.4561 38.3753 27.3848 37.1571 27.3777C36.458 27.3736 35.8265 27.3553 35.7538 27.3371C35.6616 27.3139 35.6102 27.3338 35.5838 27.4027ZM12.2911 27.6462C12.1478 27.6573 11.4054 27.7348 10.6412 27.8183C8.86504 28.0123 7.47668 28.0284 6.22655 27.8695C5.55057 27.7836 5.32723 27.7731 5.27524 27.8251C5.18835 27.912 5.23395 27.9557 5.44015 27.9832C5.53069 27.9953 5.94346 28.052 6.35737 28.1092C7.56385 28.276 8.82479 28.2449 11.123 27.9917C12.184 27.8748 13.0762 27.7792 13.1057 27.7792C13.1353 27.7792 13.1594 27.7401 13.1594 27.6924C13.1594 27.6038 12.9654 27.5935 12.2911 27.6462ZM26.474 29.1972C26.3995 29.2765 26.3516 29.3544 26.3675 29.3703C26.3834 29.3862 26.4574 29.3344 26.5319 29.255C26.6065 29.1757 26.6544 29.0978 26.6385 29.0819C26.6226 29.066 26.5486 29.1178 26.474 29.1972ZM46.6197 29.1104C46.6197 29.1422 46.6457 29.1682 46.6775 29.1682C46.7094 29.1682 46.7354 29.1422 46.7354 29.1104C46.7354 29.0785 46.7094 29.0525 46.6775 29.0525C46.6457 29.0525 46.6197 29.0785 46.6197 29.1104ZM14.24 29.4962C14.161 29.5751 14.2054 29.6387 14.3272 29.6208C14.4862 29.5974 14.5397 29.4576 14.3896 29.4576C14.3285 29.4576 14.2612 29.475 14.24 29.4962Z" fill="black"/>
</svg>
