<svg width="27" height="48" viewBox="0 0 27 48" fill="none" xmlns="http://www.w3.org/2000/svg">
<path fill-rule="evenodd" clip-rule="evenodd" d="M12.5555 0.936983C11.566 1.08218 10.9853 1.4196 10.6764 2.02911C10.517 2.34355 10.513 2.379 10.5521 3.14542C10.5743 3.58082 10.6299 4.14349 10.6757 4.39591C10.7215 4.64832 10.7395 4.85479 10.7158 4.85479C10.6921 4.85479 10.5287 4.96935 10.3528 5.10942C9.71936 5.61361 9.52715 6.3606 9.89891 6.87366C10.0048 7.01974 10.1312 7.15456 10.1798 7.17323C10.2431 7.19747 10.1636 7.33178 9.90176 7.64356C9.30214 8.35745 9.09486 9.27729 9.39419 9.89548C9.50024 10.1146 9.59825 10.2024 9.91081 10.3585C10.1229 10.4645 10.334 10.5512 10.3799 10.5512C10.4257 10.5512 10.5097 10.6222 10.5666 10.7089C10.8131 11.0849 10.4792 14.4111 10.1268 15.0909C9.99951 15.3364 9.29562 15.9983 8.88156 16.2619C8.69106 16.3832 8.10784 16.6995 7.58552 16.9647C5.18204 18.1852 3.90853 19.1598 2.77931 20.6428C2.20109 21.4022 1.47067 23.2013 1.16532 24.618C0.870923 25.9842 0.835722 26.4315 0.783047 29.476C0.70967 33.7156 0.828441 37.446 1.16507 41.4701C1.34709 43.6457 1.68238 45.1977 2.08435 45.7252C2.26947 45.9681 2.67605 46.2175 3.02711 46.3036C3.1664 46.3377 3.49403 46.4409 3.75519 46.5328C5.03769 46.9843 5.14658 47.0019 7.96539 47.2115C10.5291 47.4022 10.7709 47.4095 14.708 47.4145C19.0588 47.42 18.7115 47.4375 21.0211 47.0966C21.7237 46.9929 23.0829 46.6433 23.6279 46.4261C23.8155 46.3513 24.1004 46.1682 24.261 46.0192C24.4216 45.87 24.5995 45.7074 24.6564 45.6576C24.7981 45.5337 25.0028 44.9655 25.2189 44.0967C25.5117 42.9191 25.6283 41.8112 25.7217 39.3181C25.7556 38.413 25.8267 36.9889 25.8797 36.1534C26.1606 31.7205 26.1033 28.289 25.6927 24.9505C25.5885 24.1037 25.3147 22.9177 25.0571 22.1972C24.5248 20.7085 23.5979 19.6797 22.086 18.8993C21.6669 18.683 21.2243 18.4453 21.1025 18.371C20.9806 18.2968 20.6672 18.1394 20.406 18.0212C19.6968 17.7002 18.7433 17.1787 18.3858 16.9164C18.2117 16.7886 17.8878 16.4882 17.6661 16.2486C16.81 15.3244 16.5756 14.5121 16.523 12.2883C16.4851 10.6855 16.4046 10.8967 17.2088 10.4903C17.8234 10.1798 17.962 9.96485 17.904 9.41192C17.8458 8.85601 17.6152 8.41099 17.0989 7.85825C16.8633 7.60615 16.6707 7.3707 16.6707 7.33494C16.6707 7.29924 16.7541 7.25165 16.8562 7.22924C16.9582 7.20684 17.1756 7.06386 17.3394 6.91138L17.6371 6.63428L17.6074 6.12192C17.582 5.68349 17.5507 5.57121 17.3907 5.34348C17.18 5.04378 16.8788 4.85282 16.3225 4.66611L15.9426 4.53857V3.08763C15.9426 1.40029 15.946 1.4108 15.3066 1.08882C14.9402 0.904261 14.9021 0.898628 13.9483 0.887741C13.4086 0.881602 12.7818 0.903754 12.5555 0.936983ZM15.0445 1.43346C15.3967 1.54283 15.5532 1.72163 15.5056 1.96006C15.4591 2.19222 15.3113 2.30729 14.812 2.49983C13.8848 2.85737 11.9722 2.68021 11.1837 2.16374L11.0109 2.05051L11.2254 1.87145C11.478 1.66068 12.0655 1.45283 12.6286 1.37516C13.1641 1.3013 14.7415 1.33934 15.0445 1.43346ZM12.049 2.87604C12.4982 3.00554 12.7389 3.03288 13.5051 3.04105C14.4913 3.05168 14.8495 2.97915 15.2911 2.67958L15.4994 2.53818L15.4533 3.26928C15.4057 4.02191 15.2947 5.18005 15.2371 5.52449C15.163 5.96698 13.977 6.26864 12.8171 6.13996C12.0813 6.05831 11.6242 5.88305 11.5817 5.6664C11.4495 4.99302 11.0334 2.65426 11.0346 2.59122C11.0356 2.53109 11.0949 2.53723 11.2734 2.61603C11.404 2.67363 11.753 2.79066 12.049 2.87604ZM16.4557 5.27335C16.8249 5.51836 17.0731 5.87343 17.1391 6.25098C17.1732 6.44662 17.1485 6.51111 16.9513 6.7415C16.8263 6.88739 16.6866 7.00677 16.6407 7.00677C16.5948 7.00677 16.4721 7.10367 16.368 7.22215C16.2079 7.40444 16.1037 7.45305 15.6899 7.53862C15.421 7.59419 15.1165 7.6397 15.0132 7.6397C14.7287 7.6397 14.7948 7.85401 15.0884 7.88332C15.3278 7.90718 16.1329 7.78407 16.2967 7.69856C16.493 7.59603 17.3158 8.9107 17.4052 9.46977C17.5068 10.1046 16.7432 10.5267 15.0604 10.7658C14.6842 10.8192 14.5498 10.863 14.5498 10.9321C14.5498 11.0936 15.3587 11.0711 16.085 10.8896L16.2275 10.8539L16.2282 12.2058C16.2288 13.3809 16.2485 13.6528 16.3793 14.2855C16.5706 15.2114 16.7372 15.6461 17.0756 16.1036C17.6866 16.9294 18.2471 17.3511 19.7729 18.1327C20.3823 18.4448 21.0233 18.7864 21.1974 18.8918C21.3715 18.9971 21.7198 19.2008 21.9714 19.3446C22.5606 19.6812 23.1013 20.1847 23.5653 20.8291C24.0265 21.4694 24.2616 21.9345 24.5128 22.7035C24.9386 24.0073 25.1089 25.0403 25.3575 27.8303C25.4771 29.1725 25.4555 33.7707 25.3201 35.7737C25.2613 36.6439 25.1855 38.1962 25.1517 39.2231C25.1179 40.2501 25.0477 41.546 24.9958 42.103C24.9071 43.055 24.6076 44.8142 24.4563 45.2727C24.3605 45.5629 23.9099 45.9547 23.492 46.111C22.9067 46.3299 21.6147 46.6765 21.0075 46.7775C19.0549 47.1023 19.0317 47.1034 14.6764 47.0987C10.9718 47.0946 10.4032 47.0801 8.97837 46.9541C8.10784 46.877 6.96824 46.786 6.44592 46.7516C5.40071 46.6829 4.94462 46.5982 4.13044 46.3219C3.09416 45.9702 2.47922 45.5511 2.29669 45.072C2.08011 44.5035 1.85294 42.913 1.66921 40.6789C1.44465 37.9476 1.41249 37.0625 1.3726 32.514C1.32328 26.8962 1.38052 25.9902 1.92157 23.8196C2.18204 22.7748 2.49916 21.891 2.81369 21.3333C3.06155 20.8937 3.90036 19.9548 4.56918 19.3682C5.35279 18.6811 6.48815 17.9562 7.90208 17.2404C8.28511 17.0465 8.77451 16.7794 8.98964 16.6469C9.47333 16.3488 10.2493 15.6604 10.3745 15.4184C10.6481 14.8894 10.8657 13.34 10.8729 11.8699C10.8756 11.3245 10.9007 10.8553 10.9289 10.827C10.9571 10.7989 11.1625 10.8394 11.3855 10.9172C12.0885 11.1624 13.6634 11.1718 13.6634 10.9307C13.6634 10.8513 13.5147 10.8348 12.7454 10.8286C11.976 10.8224 11.7687 10.7993 11.4649 10.6862C11.2655 10.612 11.0557 10.5512 10.9986 10.5512C10.8613 10.5512 10.0419 9.82187 9.92481 9.5956C9.87435 9.498 9.83307 9.34489 9.83307 9.25527C9.83307 8.97595 10.0725 8.39466 10.3704 7.95079C10.5275 7.71666 10.6561 7.49083 10.6561 7.44906C10.6561 7.40165 10.6979 7.38994 10.7669 7.41805C11.2205 7.60242 12.1989 7.82958 12.5395 7.82958C12.8931 7.82958 12.9353 7.8161 12.9353 7.70299C12.9353 7.59223 12.8931 7.57641 12.5982 7.57641C12.2696 7.57641 11.1187 7.2738 10.7745 7.09696C10.6083 7.01151 10.1496 6.43231 10.1496 6.30788C10.1496 6.04591 10.8088 5.2467 10.8738 5.42981C10.8913 5.47905 10.9334 5.59557 10.9674 5.68868C11.0562 5.93192 11.9341 6.35339 12.5238 6.43592C13.4966 6.572 14.292 6.47915 14.9962 6.14737C15.5405 5.89077 15.6374 5.78932 15.7367 5.3712C15.8028 5.09296 15.8362 5.04467 15.9627 5.04467C16.0443 5.04467 16.2662 5.14758 16.4557 5.27335ZM11.86 30.6469C11.6343 30.698 11.1072 30.8391 10.6888 30.9603C10.2704 31.0815 9.60654 31.2494 9.21357 31.3334L8.49904 31.4862L8.66112 31.288C8.89005 31.0082 8.96982 30.8301 8.92202 30.7056C8.88751 30.6157 8.8261 30.6045 8.54969 30.6377C7.38723 30.7775 6.1129 30.8191 5.19983 30.7471C4.67365 30.7057 4.21971 30.6952 4.19096 30.7239C4.16228 30.7526 4.10752 31.5588 4.06922 32.5154C4.00084 34.2254 4.02952 35.4129 4.14449 35.6312C4.20546 35.7471 4.45162 35.7869 4.45162 35.6809C4.45162 35.6474 4.51024 35.5885 4.58191 35.5502C4.69948 35.4872 4.69612 35.5047 4.54734 35.7295C4.26827 36.1511 4.1224 36.6206 4.09106 37.1978C4.05782 37.8112 4.28454 40.6116 4.38223 40.7941C4.52499 41.0609 5.5136 41.2724 7.98204 41.5644C8.58318 41.6355 9.26789 41.7343 9.50366 41.7838C10.298 41.9509 11.1848 41.9958 13.2519 41.9736C15.582 41.9486 16.3411 41.9141 17.3354 41.7875C17.7185 41.7388 18.4735 41.6531 19.0132 41.5969C20.5249 41.4398 21.9808 40.9932 22.0944 40.6518C22.1549 40.4698 22.1346 39.8616 22.049 39.2976L21.9772 38.824L22.2592 38.5831C22.5026 38.3751 22.5509 38.292 22.6122 37.9756C22.7672 37.1761 22.8166 36.6171 22.8169 35.6569C22.8172 34.7151 22.856 34.3071 23.1903 31.7229C23.2264 31.4444 23.2861 31.1245 23.3232 31.0121C23.3603 30.8996 23.3734 30.7797 23.3523 30.7455C23.2464 30.5743 22.6152 30.5949 20.4377 30.8405C19.9251 30.8983 19.2445 30.9241 18.6333 30.9089C17.5004 30.8807 17.3671 30.9095 17.3671 31.1833C17.3671 31.4069 17.3933 31.4014 16.9169 31.278C16.7115 31.2248 15.9097 31.051 15.1351 30.8919C13.5128 30.5586 12.563 30.4875 11.86 30.6469ZM6.47757 31.0208C7.26105 31.0185 7.98482 30.9959 8.08593 30.9706L8.26985 30.9244L8.07618 31.1449C7.8808 31.3673 7.76387 31.6967 7.83781 31.8163C7.85985 31.8519 7.95551 31.8811 8.05041 31.8811C8.30701 31.8811 10.1732 31.4601 10.72 31.2789C12.2695 30.7654 13.2811 30.8104 15.7527 31.5027C17.5227 31.9985 17.6737 32.0314 17.7786 31.9445C17.8961 31.8469 17.9028 31.5886 17.7897 31.5203C17.7435 31.4925 17.6859 31.4158 17.6616 31.35C17.6203 31.2379 17.6428 31.2331 18.0146 31.274C19.6157 31.45 20.9518 31.4241 22.4163 31.1887C22.9977 31.0952 23.0623 31.0945 23.0355 31.1821C23.019 31.2358 22.873 31.9349 22.711 32.7356C22.4348 34.1003 22.4134 34.2783 22.3684 35.5838C22.3073 37.3553 22.2342 37.7826 21.9391 38.0949L21.7193 38.3274L21.7306 39.3481C21.7369 39.9095 21.7551 40.403 21.7712 40.4448C21.817 40.5642 21.6195 40.6536 20.7777 40.8947C20.1632 41.0706 19.7217 41.1463 18.7283 41.2458C18.0319 41.3156 17.2341 41.4034 16.9556 41.4409C16.2162 41.5405 11.2707 41.6737 10.5428 41.6136C10.2046 41.5856 9.74285 41.5225 9.51651 41.4734C9.29017 41.4241 8.49245 41.3095 7.7438 41.2185C5.42787 40.9371 4.872 40.8196 4.80078 40.5965C4.78742 40.5548 4.74316 39.7089 4.70233 38.7168C4.62882 36.9292 4.62939 36.9096 4.76564 36.55C4.8413 36.3504 4.99635 36.0755 5.11024 35.9392C5.35899 35.6416 5.49346 35.3389 5.43946 35.1983C5.39964 35.0945 5.33493 35.0957 4.75234 35.2112L4.57824 35.2457L4.57748 34.6868C4.57628 33.852 4.51638 31.7117 4.48251 31.2918L4.45276 30.9241L4.75291 30.9744C4.91803 31.0021 5.6941 31.023 6.47757 31.0208ZM10.9729 34.266C10.3826 34.3898 9.38989 35.1091 9.38989 35.4129C9.38989 35.608 9.4872 35.5871 9.79135 35.3267L10.0547 35.1014L10.0882 36.7983C10.1066 37.7316 10.1461 38.5617 10.176 38.6428C10.2168 38.7534 10.2638 38.7813 10.3641 38.7544C10.4376 38.7346 10.5466 38.7181 10.6062 38.7177C10.7808 38.7163 10.8655 38.2666 10.829 37.5347C10.8001 36.9572 10.8076 36.8945 10.9006 36.9274C11.0939 36.996 11.1667 37.0895 11.3933 37.5606C11.7091 38.217 12.0861 38.4215 12.5439 38.1848C12.6918 38.1083 12.7332 38.1083 12.8378 38.1848C13.0687 38.3536 13.3037 38.2786 13.5178 37.9676C13.6191 37.8206 13.62 37.8206 13.6619 37.9525C13.7225 38.1436 13.9822 38.2522 14.4676 38.2894C15.0176 38.3316 15.0615 38.2825 15.1054 37.5775C15.1507 36.8494 15.2097 36.7112 15.3191 37.0771C15.365 37.2305 15.4029 37.4329 15.4035 37.5269C15.404 37.6209 15.4353 37.8417 15.473 38.0175C15.5355 38.3088 15.5572 38.337 15.7185 38.337H15.8954L15.9233 37.7832C15.9518 37.2157 16.1698 36.5387 16.2835 36.6643C16.3127 36.6967 16.372 37.1076 16.4153 37.5775C16.46 38.0639 16.5252 38.4527 16.5665 38.48C16.6064 38.5065 16.7102 38.5207 16.7973 38.5117L16.9556 38.4953L16.9408 37.7712C16.9128 36.4042 16.5923 35.8708 16.1053 36.3803C16.0026 36.4877 15.8987 36.6657 15.8742 36.7759L15.8298 36.9762L15.7678 36.818C15.6384 36.4875 15.5736 36.3805 15.4816 36.3452C15.3533 36.296 15.108 36.4651 15.0521 36.6412L15.0067 36.7843L14.9544 36.6429C14.8896 36.4679 14.6731 36.4568 14.5836 36.6239C14.5476 36.6913 14.5181 37.0208 14.5181 37.3562C14.5181 37.9517 14.5147 37.9656 14.3762 37.9459C14.1945 37.9199 14.0919 37.7009 14.0184 37.1821C13.949 36.692 13.86 36.5015 13.7006 36.5015C13.5027 36.5015 13.4362 36.6562 13.4516 37.0805C13.4627 37.3861 13.4375 37.5262 13.3467 37.6643C13.2386 37.8289 13.2229 37.8348 13.1807 37.7276C13.1551 37.6625 13.1313 37.424 13.1277 37.1978C13.1211 36.78 13.0307 36.5648 12.8619 36.5648C12.6739 36.5648 12.6188 36.7162 12.6188 37.2323C12.6188 37.6513 12.5971 37.7674 12.503 37.8525C12.4393 37.9101 12.3568 37.9573 12.3196 37.9573C12.221 37.9573 11.8851 37.5566 11.7565 37.2857C11.6955 37.1571 11.5237 36.9662 11.3749 36.8612L11.1042 36.6705L11.5291 36.4511C12.0495 36.1825 12.463 35.8554 12.5881 35.6135C12.8071 35.1902 12.6295 34.6506 12.1861 34.3916C11.9725 34.267 11.3002 34.1973 10.9729 34.266ZM11.8071 34.7768C11.9603 34.9567 12.0662 35.285 12.0245 35.4511C12.0032 35.5361 11.8742 35.7147 11.7378 35.8479C11.4957 36.0844 10.8001 36.5435 10.7581 36.4945C10.7465 36.481 10.7197 36.0913 10.6985 35.6285C10.6538 34.6518 10.6372 34.6772 11.3269 34.67C11.6198 34.667 11.7355 34.6927 11.8071 34.7768Z" fill="black"/>
</svg>
