<svg width="71" height="38" viewBox="0 0 71 38" fill="none" xmlns="http://www.w3.org/2000/svg">
<path fill-rule="evenodd" clip-rule="evenodd" d="M66.3951 0.147312C65.0382 0.437691 64.771 0.622477 64.6546 1.3509C64.6154 1.59556 64.3007 1.67455 63.2592 1.70115C62.842 1.71177 62.2616 1.75446 61.9695 1.79613C61.5893 1.85024 61.4384 1.8382 61.4384 1.75385C61.4384 1.57827 61.1224 1.32643 60.8019 1.24642C60.4339 1.15459 59.6829 1.4392 59.4238 1.76852C59.2397 2.00246 59.1366 2.02441 57.7283 2.12899C56.9036 2.19018 54.6228 2.38285 52.6599 2.55712L49.0909 2.874L48.9411 2.64541C48.6373 2.18178 48.0923 2.24894 47.4284 2.83172L47.052 3.16215L44.0031 3.38486C42.3263 3.50735 40.2942 3.65704 39.4875 3.71752C38.6808 3.778 36.7917 3.91839 35.2895 4.02955C32.7896 4.21443 31.2564 4.33722 25.6678 4.79974L23.7339 4.95985L23.4723 4.69819C23.2878 4.51381 23.1031 4.43654 22.8469 4.43654C22.4379 4.43654 21.9392 4.65844 21.8551 4.87782C21.7904 5.04632 21.6173 5.07869 19.3068 5.35471C16.9164 5.64033 14.7276 5.77353 13.5842 5.70314C12.7154 5.64953 12.5894 5.6643 12.358 5.84625C12.0019 6.12631 11.8719 6.69049 11.8018 8.2591C11.7521 9.36974 11.7115 9.62482 11.5681 9.72565C11.4727 9.79271 11.206 10.1169 10.9757 10.446C10.5945 10.9905 10.5568 11.1004 10.5568 11.669C10.5568 12.5104 10.8631 13.1093 11.436 13.3876C11.8901 13.6082 12.1317 13.9897 12.2378 14.6533C12.2803 14.9185 12.2642 15.0564 12.1908 15.0564C12.1295 15.0564 12.0039 15.2043 11.9116 15.3852C11.7308 15.7392 11.3522 16.2071 10.4217 17.2265C9.84094 17.8626 8.97566 18.5039 7.97563 19.0392C7.69654 19.1886 7.25267 19.4951 6.98936 19.7201L6.51058 20.1293V21.834C6.51058 23.5139 6.50724 23.5397 6.28298 23.6079C5.88634 23.7286 4.94447 24.3388 4.46216 24.7879L3.99663 25.2212L3.05852 25.2361C1.92891 25.2539 0.984416 25.5135 0.905514 25.8279C0.877089 25.9408 0.854628 26.8863 0.855437 27.9289C0.856246 28.9714 0.826603 29.8735 0.78958 29.9335C0.752455 29.9935 0.753976 30.4246 0.792921 30.8914L0.863633 31.7403L1.22324 31.8395C1.421 31.8941 1.65599 31.9055 1.74541 31.8648C1.83483 31.8242 2.01651 31.7919 2.14923 31.7931C2.34284 31.795 2.41435 31.8759 2.51136 32.2033C2.85884 33.3751 3.76065 34.707 4.74035 35.4952C6.42096 36.8474 8.94137 37.4232 10.963 36.9169C13.2566 36.3424 15.1123 34.7587 15.8875 32.7143L16.1593 31.9977L26.9383 32.0216C38.1403 32.0464 39.3864 32.0741 39.3864 32.2985C39.3864 32.3705 39.5757 32.8102 39.8071 33.2755C40.4073 34.4827 41.6255 35.6954 42.8257 36.2806C44.0853 36.8947 44.7723 37.0472 46.265 37.0441C47.3569 37.0417 47.6399 37.0047 48.3387 36.7735C49.6833 36.3285 50.8619 35.5257 51.698 34.4854C52.1351 33.9416 52.9409 32.4182 52.9416 32.1346C52.9419 32.0246 53.2992 31.9977 54.7575 31.9977C56.1063 31.9977 56.6066 31.9641 56.7035 31.867C56.8102 31.7603 56.8098 31.7214 56.7014 31.6544C56.6113 31.5988 56.5577 31.2664 56.5349 30.6219C56.4659 28.6792 55.8599 26.9316 54.8897 25.8777C54.3195 25.2583 54.0505 25.1817 52.4215 25.1751L51.3454 25.1706L51.2955 24.8419C51.2681 24.6611 51.237 23.0056 51.2265 21.163C51.2035 17.1673 51.1127 15.3414 50.9258 15.1161C50.8198 14.9886 50.5805 14.9552 49.7678 14.9549C49.2043 14.9547 48.163 14.9249 47.4536 14.8887L46.1638 14.8229V13.8777C46.1638 13.3579 46.198 12.93 46.2397 12.927C46.2814 12.924 46.6726 12.8841 47.109 12.8384C47.7411 12.7722 47.965 12.7863 48.2095 12.9083C48.3783 12.9924 48.711 13.0833 48.9488 13.1101C49.3216 13.1521 49.413 13.1223 49.6115 12.8939C49.7383 12.7483 49.8982 12.629 49.967 12.629C50.0358 12.629 50.1074 12.5831 50.1261 12.5269C50.1576 12.4325 51.6197 12.2285 55.8748 11.7249C56.7928 11.6163 57.817 11.5006 58.1509 11.4677C58.4847 11.435 59.0894 11.3577 59.4947 11.2961C60.1662 11.1941 60.2437 11.2005 60.3663 11.3682C60.4632 11.5006 60.6747 11.5647 61.1216 11.5971C61.8317 11.6485 62.2589 11.5109 62.4019 11.1849C62.4877 10.9894 62.6254 10.9447 63.4616 10.8414C63.9901 10.776 64.6099 10.6945 64.8389 10.6602L65.2551 10.5979L65.3178 10.9895C65.3885 11.4316 65.5995 11.6587 66.0363 11.7629C66.3866 11.8464 68.3674 11.6437 68.6915 11.4912C68.9363 11.376 69.1263 10.9384 69.1263 10.49C69.1263 10.2316 69.1608 10.2016 69.4578 10.2016C70.4597 10.2016 70.6254 9.17362 70.1914 5.65024C70.1125 5.01052 69.971 3.85862 69.8768 3.09044C69.6656 1.36891 69.5914 1.2449 68.7838 1.26361C68.2909 1.27504 68.2144 1.25016 68.1615 1.06133C68.0064 0.507376 67.862 0.268885 67.5998 0.133254C67.2693 -0.0376761 67.2589 -0.0374739 66.3951 0.147312ZM67.5103 1.42757C67.5774 1.83092 67.6721 2.32014 67.7206 2.51484C67.7693 2.70954 67.8555 3.80187 67.9122 4.94225C67.9689 6.08262 68.0606 7.69837 68.116 8.53279C68.2696 10.845 68.2993 10.669 67.7354 10.7918C66.84 10.9867 66.4349 11.0117 66.2604 10.8828C66.1107 10.7722 66.0883 10.4391 66.0648 7.97651L66.0383 5.1951L65.5985 3.28747C65.0803 1.03948 65.0675 1.08732 66.2489 0.852775C67.4322 0.617822 67.3709 0.589908 67.5103 1.42757ZM60.8214 2.13556C60.8802 2.3164 60.9763 2.89625 61.0353 3.42421C61.0943 3.95227 61.2083 4.79428 61.2888 5.29533C61.4629 6.37846 61.6386 8.69027 61.6398 9.91267C61.6407 10.8277 61.5995 10.9096 61.1368 10.9096C60.9696 10.9096 60.9518 10.7967 60.9411 9.67063C60.9162 7.00119 60.561 4.33044 59.9589 2.28545C59.9206 2.15528 59.9977 2.06699 60.2425 1.96079C60.6992 1.76235 60.7003 1.76275 60.8214 2.13556ZM69.2712 3.70326C69.3693 4.74634 69.4904 6.43915 69.5402 7.46523C69.6347 9.40979 69.6222 9.48827 69.2159 9.49212C69.0093 9.49404 68.9645 9.18009 68.7685 6.35823C68.6098 4.07192 68.4758 2.68415 68.3607 2.13556C68.2921 1.80847 68.2937 1.80685 68.6922 1.80685H69.0927L69.2712 3.70326ZM64.8096 2.54013C64.8422 2.7765 64.9391 3.44788 65.025 4.03197C65.1675 5.0001 65.4386 9.87676 65.3548 9.96071C65.3132 10.0023 64.1131 10.1607 63.1328 10.2539L62.45 10.3189V9.82599C62.45 9.10586 62.0799 5.68423 61.8561 4.3354C61.75 3.69567 61.6348 2.97878 61.6002 2.74241L61.5372 2.31256L62.0694 2.30123C62.5447 2.29112 64.3464 2.16863 64.637 2.12666C64.6993 2.11766 64.777 2.30376 64.8096 2.54013ZM59.5479 3.4504C59.7975 4.86144 60.0065 7.22796 60.0416 9.0385L60.0728 10.6568L59.1624 10.7732C58.6617 10.8372 56.5678 11.0982 54.5092 11.353C52.4507 11.608 50.6413 11.8322 50.4883 11.8514C50.3177 11.8726 50.2101 11.8382 50.2101 11.7626C50.2101 11.2018 49.7385 7.23018 49.5947 6.57933C49.4463 5.90785 49.1827 3.50836 49.25 3.441C49.2829 3.40813 50.0245 3.32681 50.8979 3.26026C53.3903 3.07041 56.3101 2.82069 57.7462 2.67464C58.4695 2.60101 59.1335 2.53497 59.2219 2.52779C59.3472 2.51767 59.4188 2.71996 59.5479 3.4504ZM48.4263 3.07234C48.4587 3.15649 48.5332 3.73684 48.592 4.3619C48.6509 4.98705 48.7648 5.97642 48.8451 6.56052C49.0019 7.69988 49.2505 10.0325 49.3598 11.3893C49.4269 12.2244 49.3462 12.5302 49.0597 12.5264C48.7226 12.5217 48.6629 12.3255 48.5327 10.7938C48.3467 8.6045 47.9005 4.66512 47.7839 4.18368C47.6196 3.50462 47.6549 3.28605 47.9594 3.09722C48.3041 2.8835 48.3528 2.88087 48.4263 3.07234ZM47.1641 4.36068C47.226 4.70841 47.3211 5.44796 47.3752 6.00424C47.4293 6.56052 47.5481 7.67561 47.639 8.48222C47.73 9.28882 47.8336 10.4597 47.8692 11.0843L47.9341 12.2199L47.4789 12.2766C47.2285 12.3077 46.8357 12.3563 46.606 12.3844L46.1883 12.4355L46.1292 11.799C46.0968 11.4489 46.0418 10.8403 46.0073 10.4467C45.9727 10.0529 45.9043 9.66608 45.8552 9.58699C45.7875 9.47796 45.5198 9.44317 44.751 9.44347L43.7361 9.44387V9.16887C43.7361 9.00057 43.6602 8.8533 43.5405 8.78918C43.4304 8.73032 42.6779 8.6845 41.8208 8.6845H40.2968V8.44783C40.2968 8.06551 39.7128 7.00736 39.2249 6.5054C38.0377 5.2839 36.0288 5.09993 34.5717 6.07918C33.9476 6.49872 33.1941 7.43428 32.9383 8.10738C32.6958 8.74549 32.6477 8.76228 31.0229 8.77553C30.0288 8.78372 29.7591 8.8175 29.6262 8.9504C29.5356 9.04103 29.4822 9.16927 29.5077 9.23552C29.5385 9.31593 29.2974 9.39856 28.78 9.48473C27.0367 9.77511 26.0032 10.3022 24.9969 11.414C24.6769 11.7675 24.4152 12.0944 24.4152 12.1405C24.4152 12.1867 24.3798 12.2245 24.3364 12.2245C24.2931 12.2245 24.1768 11.3939 24.078 10.3786C23.9791 9.36336 23.8552 8.11537 23.8026 7.60531C23.7501 7.09515 23.7071 6.40436 23.7071 6.07018V5.46252L24.2382 5.40892C24.5304 5.37938 26.2032 5.26003 27.9557 5.14362C31.3827 4.91585 37.1304 4.5036 39.1841 4.33813C39.8795 4.2821 41.7231 4.14313 43.2809 4.02924C44.8387 3.91535 46.1815 3.80642 46.265 3.78711C46.3484 3.76779 46.5596 3.74675 46.734 3.74028C47.0458 3.72875 47.0533 3.73957 47.1641 4.36068ZM22.999 7.13187C22.999 8.90317 23.048 9.68752 23.2553 11.2381C23.3962 12.2923 23.5199 13.1845 23.5302 13.2207C23.5404 13.2568 23.4869 13.4458 23.4113 13.6405L23.2737 13.9945L23.1919 13.4887C22.9321 11.883 22.4925 8.43013 22.387 7.16737C22.2792 5.87548 22.2837 5.6556 22.4244 5.32153C22.5351 5.05846 22.6476 4.94225 22.7916 4.94225C22.9944 4.94225 22.999 4.9915 22.999 7.13187ZM21.7201 7.44551C21.826 10.0945 22.2262 14.1287 22.435 14.6519C22.4877 14.7839 22.28 14.7989 20.8383 14.7682C19.9266 14.7487 18.6402 14.7865 17.9794 14.8521C17.3186 14.9179 16.3173 14.9964 15.7542 15.0267L14.7305 15.0818L14.6183 14.5887C14.2031 12.7646 13.7944 9.207 13.794 7.41284L13.7938 6.39404L14.2743 6.39283C15.3108 6.3901 20.5726 5.9744 21.0771 5.85526C21.2718 5.80934 21.4809 5.76716 21.5418 5.7615C21.6154 5.75482 21.675 6.31778 21.7201 7.44551ZM13.1372 6.81337C12.9721 8.59711 12.9564 8.21814 13.3207 11.213C13.4053 11.9084 13.5262 12.978 13.5894 13.5899C13.6525 14.2018 13.7293 14.8049 13.7599 14.93C13.8254 15.1969 13.5918 15.2446 13.3591 15.0119C12.9928 14.6456 12.4341 7.26163 12.714 6.48466C12.7606 6.355 12.8804 6.25709 12.9923 6.25709C13.1691 6.25709 13.1836 6.31242 13.1372 6.81337ZM37.4423 6.71739C38.3919 7.11336 38.8972 7.94293 38.9615 9.21145L39.0061 10.0923L38.3927 10.7056C37.6882 11.4101 37.1045 11.7134 36.4474 11.7165C35.559 11.7208 34.5939 11.0248 34.0763 10.0065C33.7071 9.28033 34.1285 8.05358 35.0232 7.24919C35.7706 6.57731 36.6453 6.38494 37.4423 6.71739ZM34.2047 7.34437C33.949 7.63596 33.6925 8.19801 33.57 8.73507C33.4564 9.23279 33.4483 9.24098 33.057 9.25474C32.7573 9.26516 32.734 9.25676 32.9626 9.22025C33.292 9.16775 33.4142 9.04113 33.4166 8.74974C33.4195 8.40697 34.1188 7.16737 34.3093 7.16737C34.3372 7.16737 34.29 7.24707 34.2047 7.34437ZM41.4451 9.25261C42.8137 9.19163 43.028 9.20255 43.028 9.33322C43.028 9.46026 42.7535 9.48919 41.3082 9.51427L39.5884 9.54421L39.5886 9.24675C39.5887 8.97205 39.5991 8.96355 39.7255 9.1363C39.8524 9.30986 39.9757 9.31815 41.4451 9.25261ZM33.1573 10.1258C33.4638 11.1946 34.0971 12.0491 34.8824 12.453C35.3997 12.7193 36.6681 12.8095 37.3214 12.6266C38.3499 12.3387 39.5476 11.2381 39.8388 10.3135C39.9144 10.0733 39.9233 10.0719 40.9404 10.1338C41.5044 10.1682 42.6621 10.1464 43.5131 10.0856C44.3642 10.0247 45.0767 9.99186 45.0966 10.0124C45.134 10.0511 45.392 12.5488 45.5107 14.0197L45.5779 14.8542L45.0869 14.8647C40.6609 14.9593 23.7218 15.0036 23.6389 14.9207C23.5781 14.8599 24.1114 13.8022 24.2247 13.7589C24.2725 13.7405 24.3991 13.5357 24.5057 13.3038C24.8212 12.6175 25.7406 11.4992 26.3223 11.094C27.4022 10.3419 28.8499 10.032 31.3729 10.0127C32.694 10.0026 33.1299 10.0302 33.1573 10.1258ZM44.3936 15.5096C45.0612 15.5323 46.7071 15.5648 48.0512 15.5818L50.495 15.6127L50.5537 15.9667C50.6331 16.4451 50.6311 23.5463 50.5515 23.9444L50.4883 24.2606L49.7675 23.8642C47.1197 22.4082 44.1577 22.5917 41.8064 24.3574L41.1412 24.8569L30.831 24.8647C25.1214 24.8689 19.1823 24.9236 17.5213 24.9874L14.522 25.1023L13.9809 24.6401C13.2366 24.0045 12.0599 23.3909 11.1043 23.1402C10.241 22.9139 8.72418 22.8365 7.90147 22.977L7.42098 23.0591L7.41987 21.9655C7.41926 21.3642 7.39347 20.7128 7.36262 20.5181C7.30688 20.1666 7.31173 20.1613 8.04653 19.7663C8.72893 19.3996 9.42084 18.9533 10.051 18.4738C10.5705 18.0786 11.6341 16.9824 12.0742 16.3889C12.3245 16.0513 12.5771 15.7548 12.6355 15.7301C12.694 15.7054 13.0354 15.7144 13.3942 15.7501C13.7531 15.7858 15.0026 15.7819 16.171 15.7415C20.0539 15.6072 23.2957 15.5486 29.2617 15.5052C32.5115 15.4815 35.1972 15.4348 35.23 15.4014C35.2863 15.3439 41.7846 15.4206 44.3936 15.5096ZM48.16 23.8852C50.7542 24.8089 52.3903 26.9844 52.5114 29.6714C52.5992 31.6204 52.0343 33.0563 50.6173 34.4864C49.6671 35.4454 48.8009 35.9504 47.58 36.257C46.7293 36.4706 45.3772 36.4715 44.5579 36.2589C42.5629 35.7414 40.7342 34.0379 40.0166 32.0288C39.6328 30.9542 39.5781 29.3169 39.8915 28.2851C40.1771 27.3451 40.4106 26.884 40.9821 26.1315C41.9048 24.9165 43.2192 24.0487 44.6465 23.7121C45.6469 23.4762 47.2301 23.5542 48.16 23.8852ZM10.8138 23.8105C13.0687 24.3973 14.8298 26.1802 15.4152 28.4688C15.6585 29.4201 15.6785 30.8507 15.4601 31.689C15.2148 32.6307 14.6363 33.6146 13.8141 34.4883C13.187 35.1549 12.9082 35.3637 12.1381 35.7438C10.0505 36.7741 7.90927 36.7267 6.05537 35.6091C3.51989 34.0805 2.23926 30.9685 3.03849 28.2775C3.5114 26.6855 4.81116 25.0984 6.26376 24.3394C7.45164 23.7185 9.53182 23.4768 10.8138 23.8105ZM36.1264 25.5333L40.5038 25.5992L40.2951 25.9158C39.4264 27.2343 39.0726 28.4586 39.0709 30.1519L39.0696 31.3403H32.2649C28.5222 31.3403 23.4155 31.3103 20.9166 31.2736L16.3733 31.2069V29.8829C16.3733 28.6951 16.3441 28.4736 16.0888 27.7303C15.9323 27.2746 15.6301 26.6323 15.4173 26.3031L15.0304 25.7046L16.4099 25.6257C19.7856 25.4326 27.1283 25.3982 36.1264 25.5333ZM54.0442 26.2411C54.4294 26.6626 54.6384 27.0291 54.9551 27.8391C55.4205 29.0294 55.6689 29.984 55.671 30.5918L55.6725 31.0066L54.7465 31.0723C54.2373 31.1085 53.6796 31.138 53.5074 31.1381H53.1942L53.2291 30.2386C53.278 28.9829 53.0524 27.9691 52.4614 26.7889C52.1968 26.2604 51.9678 25.8019 51.9525 25.7698C51.9371 25.7378 52.289 25.7077 52.7344 25.7029L53.5442 25.6941L54.0442 26.2411ZM3.16666 26.4602C2.56397 27.4102 2.08286 29.5291 2.22853 30.5916C2.26495 30.858 2.24947 31.0369 2.18979 31.0369C2.13497 31.0369 2.0326 30.4111 1.9624 29.6462C1.89219 28.8813 1.7794 27.7905 1.71183 27.2223L1.58882 26.1892L2.00133 26.1351C2.22812 26.1053 2.59583 26.0658 2.81838 26.0473C3.04092 26.0289 3.27894 26.0062 3.34722 25.9968C3.4155 25.9875 3.33427 26.196 3.16666 26.4602ZM8.48313 26.1847C6.83418 26.517 5.65308 27.9634 5.52684 29.805C5.41587 31.424 5.94755 32.4099 7.2559 33.0105C8.70972 33.6781 9.85106 33.7025 11.0711 33.0923C11.8565 32.6993 12.2982 32.2437 12.6672 31.4461C13.0379 30.6442 13.0981 29.114 12.7909 28.298C12.3744 27.192 11.5298 26.4941 10.2902 26.2315C9.53181 26.0709 9.10271 26.0598 8.48313 26.1847ZM45.4818 26.2889C44.437 26.495 43.1368 27.521 42.6917 28.4905C42.3589 29.2155 42.3794 30.5884 42.734 31.3403C43.2496 32.4331 44.2154 33.1262 45.5569 33.366C46.8843 33.6032 48.192 33.2522 49.0688 32.4231C49.8059 31.726 50.1313 31.0111 50.1889 29.9614C50.2493 28.864 50.0536 28.2808 49.3764 27.5399C48.7799 26.8875 48.1297 26.5272 47.1886 26.3277C46.4469 26.1705 46.1195 26.163 45.4818 26.2889ZM10.3049 27.0002C11.0035 27.2615 11.8887 28.0939 12.1987 28.7808C12.6845 29.8578 12.4132 31.002 11.461 31.8927C10.4165 32.8695 9.40203 33.0674 8.30024 32.5092C6.75781 31.7278 6.15127 30.0712 6.84966 28.5471C7.53226 27.0571 8.86368 26.4611 10.3049 27.0002ZM47.4097 27.0511C47.6696 27.1397 48.1079 27.4149 48.3836 27.6627C49.727 28.8703 49.7952 30.6792 48.5412 31.8351C47.8444 32.4772 47.1484 32.7823 46.265 32.8327C45.5225 32.8751 45.4934 32.8676 44.8994 32.4802C44.4935 32.2153 44.1584 31.8855 43.8878 31.4846L43.4832 30.8852V29.7133C43.4832 28.5952 43.4961 28.5227 43.7658 28.1338C43.9212 27.9096 44.1577 27.6234 44.2913 27.4979C44.8682 26.956 46.4608 26.7278 47.4097 27.0511ZM8.6379 28.1089C7.32388 28.6659 6.94363 30.1687 7.85434 31.2058C8.78508 32.2658 10.5601 32.1747 11.1447 31.0369C11.3376 30.6615 11.3727 30.4575 11.3452 29.8737C11.3065 29.0508 11.0881 28.6736 10.4401 28.3094C9.98286 28.0525 9.023 27.9457 8.6379 28.1089ZM45.2455 28.2892C44.6229 28.6841 44.408 29.181 44.4602 30.1046C44.5091 30.9717 44.8119 31.4345 45.5028 31.6983C46.068 31.9142 46.8757 31.8564 47.2587 31.5727C48.1646 30.9019 48.3573 29.4454 47.6472 28.6368C47.0268 27.9303 46.0375 27.7871 45.2455 28.2892ZM46.6403 28.8082C46.9604 29.0033 47.3777 29.6636 47.3777 29.9749C47.3777 30.4997 46.6924 31.2391 46.2061 31.2391C45.6788 31.2391 45.0511 30.4832 45.0511 29.8481C45.0511 29.4251 45.4478 28.8849 45.8639 28.7416C46.3187 28.585 46.2668 28.5805 46.6403 28.8082ZM10.0586 29.1726C10.1503 29.2556 10.309 29.509 10.4114 29.7359C10.593 30.1388 10.5928 30.1566 10.4 30.5089C10.152 30.9624 9.56499 31.2817 9.14792 31.1902C8.53603 31.0558 8.02792 30.4159 8.02792 29.7794C8.02792 29.4424 8.57456 28.8335 8.91799 28.7881C9.22409 28.7475 9.80543 28.9435 10.0586 29.1726Z" fill="black"/>
</svg>
