<svg width="59" height="34" viewBox="0 0 59 34" fill="none" xmlns="http://www.w3.org/2000/svg">
<path fill-rule="evenodd" clip-rule="evenodd" d="M56.6029 0.198506C56.5775 0.264667 56.5757 0.502521 56.5989 0.727025C56.6405 1.13006 56.6374 1.13765 56.3596 1.31687C56.1673 1.44091 56.0705 1.56525 56.0539 1.70932C56.0255 1.95477 56.1547 1.98377 56.4942 1.80832L56.7107 1.69635L56.758 2.04165C56.8196 2.49058 56.9299 2.68776 57.1197 2.68776C57.3369 2.68776 57.3784 2.51216 57.2943 1.94925L57.2208 1.45773L57.6335 1.22484C57.8604 1.09682 58.0315 0.950441 58.0135 0.899631C57.9779 0.798853 57.9244 0.796176 57.4463 0.871778L57.1255 0.922516L57.0027 0.500289C56.88 0.0782225 56.701 -0.0569292 56.6029 0.198506ZM27.8261 1.89514C26.7433 2.02968 25.9518 2.26307 24.958 2.74079C23.6332 3.37761 22.8144 3.91765 21.9873 4.70031C18.4246 8.07201 17.7085 13.7125 20.3162 17.8651C21.5119 19.7692 23.3747 21.321 25.3605 22.0674L25.8167 22.2388L23.3283 22.2914C20.4222 22.3529 17.9835 22.4535 16.44 22.5756C15.8358 22.6235 15.1967 22.6388 15.0197 22.6096C14.5626 22.5343 14.4137 22.5452 14.3415 22.659C14.3067 22.7139 14.2777 23.4416 14.277 24.2763C14.2758 25.7773 14.2777 25.7946 14.4486 25.8684C14.5436 25.9094 15.0704 25.9691 15.6193 26.0011L16.6174 26.0592V27.3102V28.5613L13.4313 28.5606C9.03829 28.5597 2.35184 28.6966 1.37814 28.8073L0.572036 28.8991L0.555317 29.8585C0.546181 30.3861 0.51553 31.0477 0.487355 31.3286C0.436455 31.8355 0.437667 31.8402 0.659154 31.9547C1.15886 32.213 2.00076 32.2828 5.44705 32.3513C7.10003 32.3843 8.84789 32.3332 12.2798 32.1519C13.1454 32.1062 14.9245 32.0376 16.2335 31.9997C17.5425 31.9616 18.7456 31.9092 18.9071 31.8832C19.3506 31.8117 19.3866 31.668 19.2856 30.3737C19.2389 29.7745 19.2069 29.278 19.2145 29.2703C19.2328 29.2521 21.5234 29.4947 21.5552 29.5183C21.5686 29.5282 21.5214 29.8532 21.4502 30.2405C21.379 30.6278 21.3162 31.1894 21.3106 31.4885C21.3007 32.0197 21.3053 32.0336 21.5112 32.0899C21.6288 32.1221 21.7418 32.1156 21.7667 32.0753C21.7913 32.0354 21.921 32.0207 22.055 32.0426C22.1889 32.0644 22.834 32.1732 23.4885 32.2844C24.8168 32.5101 25.6834 32.5486 32.6627 32.6919C34.8161 32.7361 37.2602 32.7915 38.0939 32.815C39.7605 32.862 39.9176 32.8331 39.9176 32.4781C39.9176 32.3601 39.8922 32.238 39.8611 32.2068C39.83 32.1757 39.7993 32.0405 39.793 31.9062C39.7867 31.772 39.7554 31.1595 39.7234 30.5449L39.6651 29.4276L40.1944 29.4524C41.4362 29.5105 42.1221 29.5672 42.2054 29.6187C42.2711 29.6594 42.2749 29.843 42.2198 30.3225C42.1788 30.6794 42.1457 31.2477 42.1463 31.5854C42.148 32.5068 42.1525 32.5101 43.5643 32.616C45.8483 32.7874 47.6836 32.8505 50.5122 32.8552C52.0956 32.8578 54.6175 32.9056 56.1165 32.9614C57.6155 33.0172 58.8665 33.0486 58.8966 33.0314C58.9266 33.0141 58.951 32.2051 58.9508 31.2337C58.9505 29.9252 58.9264 29.4583 58.8578 29.4326C58.7739 29.4011 57.7029 29.347 56.7973 29.3285C56.3667 29.3196 56.3762 29.3432 56.2703 28.0164C56.2282 27.4887 56.1772 26.9109 56.1568 26.7325L56.1199 26.4079L56.4445 26.4479C56.833 26.4958 56.8845 26.4622 57.0713 26.0388C57.201 25.7448 57.2069 25.647 57.1291 25.0794C56.9725 23.936 56.9589 23.7002 56.926 21.5432L56.8933 19.4066L57.4838 19.4325L58.0742 19.4584L58.1356 18.4222C58.1695 17.8523 58.1751 17.0707 58.1483 16.6853L58.0996 15.9846L57.8566 15.915C57.643 15.8538 57.6073 15.8039 57.5617 15.5028C57.5331 15.3144 57.5073 14.6905 57.5041 14.1163C57.4977 12.95 57.421 12.611 57.148 12.5425C57.0482 12.5174 56.9435 12.4246 56.9154 12.3361C56.8874 12.2476 56.8775 11.4998 56.8935 10.6743L56.9226 9.17343L56.6617 9.14856L56.4008 9.12361L56.4503 8.26589C56.4774 7.79409 56.4998 7.24408 56.5 7.04352L56.5004 6.67895H56.8828C57.2329 6.67895 57.2695 6.66166 57.3164 6.47461C57.3446 6.36224 57.3277 5.85276 57.2787 5.3425C57.2296 4.83225 57.1899 4.25499 57.1905 4.05972C57.1912 3.7346 57.1736 3.70084 56.9802 3.65832C56.8641 3.63276 56.5272 3.55907 56.2317 3.49452C55.3386 3.29949 54.1183 3.22626 51.7789 3.22742C49.2973 3.22857 45.9752 3.35898 41.9741 3.61242C40.5553 3.7023 39.8511 3.87861 39.6871 4.18493C39.6071 4.33437 39.6039 4.40044 39.6735 4.46997C39.7733 4.56975 39.7892 5.13519 39.7144 5.92652C39.6689 6.40884 39.6535 6.442 39.4654 6.46379L39.2651 6.48705L39.2778 8.55941C39.2896 10.4847 39.283 10.5971 39.1851 10.1442C38.2403 5.77747 34.8728 2.62728 30.4363 1.95984C29.7404 1.85522 28.4124 1.82222 27.8261 1.89514ZM31.2424 2.79514C32.1756 3.04375 32.6581 3.23066 33.476 3.66048C35.5395 4.74469 37.3579 6.82416 38.1468 9.00158C38.7205 10.5849 38.9086 12.441 38.6474 13.9413C37.9401 18.0042 34.8206 21.1846 30.7434 21.9996C29.8846 22.1712 28.0228 22.1692 27.2119 21.9958C25.2254 21.5709 23.6031 20.6978 22.2204 19.3095C20.7747 17.8579 19.8897 16.2249 19.4517 14.2008C19.2629 13.3283 19.222 11.5528 19.371 10.6984C19.9198 7.55062 21.9928 4.80561 24.8912 3.38851C26.2581 2.72014 27.3186 2.52705 29.3615 2.57426C30.2908 2.59575 30.6539 2.63834 31.2424 2.79514ZM54.7485 3.83423C55.1571 3.87076 55.7704 3.96087 56.1112 4.03448L56.7307 4.16827L56.7363 4.82881C56.7394 5.19209 56.7665 5.66196 56.7967 5.87303L56.8515 6.25679H50.7837C44.9695 6.25679 43.0032 6.28841 41.0692 6.41283L40.1863 6.46962L40.174 5.39362L40.1616 4.31763L40.5962 4.22719C41.0807 4.12642 41.2555 4.11475 44.1401 3.99049C45.259 3.94229 46.7619 3.8766 47.4797 3.84452C49.3289 3.76178 53.8658 3.75532 54.7485 3.83423ZM27.2503 4.18369C26.1992 4.41794 25.1179 4.86764 24.3329 5.39716C23.9305 5.66856 22.6026 7.00437 22.1812 7.5616C21.4967 8.46675 20.9768 9.72106 20.7524 11.0085C20.5898 11.941 20.6475 13.7593 20.8658 14.5845C21.4057 16.6259 22.6223 18.3875 24.2603 19.4995C24.957 19.9725 26.0655 20.474 26.9219 20.7035C27.586 20.8815 27.823 20.9054 28.9776 20.9107C29.9947 20.9154 30.4166 20.8853 30.8894 20.7745C33.6649 20.1242 35.8219 18.249 36.8081 15.6291C37.2557 14.4397 37.4262 13.0663 37.3028 11.6424C37.0024 8.17632 34.6719 5.34734 31.2808 4.33259C30.6607 4.147 30.4442 4.12305 29.1696 4.09918C28.1265 4.07961 27.6168 4.10203 27.2503 4.18369ZM30.7846 4.98192C32.6194 5.48036 34.3026 6.65216 35.3063 8.12982C36.3504 9.66711 36.8796 11.6298 36.6842 13.2411C36.4621 15.0729 35.6886 16.6679 34.3929 17.9655C33.6953 18.6642 33.069 19.0996 32.1347 19.5354C30.962 20.0824 30.3201 20.2219 28.9776 20.2214C27.8381 20.2211 27.1735 20.1194 27.1735 19.9454C27.1735 19.8985 27.0903 19.8785 26.9816 19.8993C26.876 19.9195 26.7896 19.9073 26.7896 19.8723C26.7896 19.8372 26.7391 19.828 26.6772 19.8517C26.497 19.9209 25.0409 19.1783 24.3713 18.6757C21.8544 16.7868 20.7091 13.5518 21.4962 10.555C21.8001 9.39824 22.3538 8.33788 23.2266 7.24169C23.434 6.98134 23.7073 6.71325 23.8339 6.64594C23.9606 6.57863 24.2888 6.36578 24.5633 6.17298C25.4768 5.53109 26.6677 5.0312 27.7411 4.83901C28.3966 4.72158 30.1252 4.80278 30.7846 4.98192ZM28.047 5.99508C27.0196 6.1149 26.0306 6.59421 25.3836 7.28576C24.9289 7.7716 24.4178 8.81199 24.3619 9.36531C24.3058 9.91985 24.4384 10.6941 24.6374 10.9734C24.8924 11.3314 25.6786 11.8052 26.3812 12.0242C26.7373 12.1352 27.0961 12.2817 27.1786 12.3499C27.261 12.418 27.4429 12.7501 27.5827 13.0878C27.7995 13.6115 27.8785 13.7225 28.1189 13.8423C28.7637 14.1633 30.0802 13.6483 30.3522 12.9685C30.4196 12.8003 30.4747 12.4608 30.4747 12.2141C30.4747 11.502 30.6042 10.9968 31.0083 10.1328C31.4736 9.13781 31.5485 8.86288 31.5491 8.14884C31.55 7.01335 30.886 6.30223 29.5635 6.02192C29.0047 5.90357 28.8547 5.90091 28.047 5.99508ZM29.9495 6.81388C30.652 7.15958 30.9742 7.61287 30.9723 8.25238C30.9712 8.65203 30.9132 8.83464 30.5337 9.63395C30.0102 10.7369 29.9416 11.0117 29.9391 12.0174L29.9373 12.7892L29.3807 13.074C28.4825 13.5336 28.349 13.4788 27.9735 12.4963C27.73 11.8593 27.5678 11.7331 26.6063 11.4326C25.8712 11.2029 25.2629 10.8521 25.0083 10.5112C24.9304 10.4069 24.8356 10.1323 24.7975 9.90097C24.7398 9.54997 24.7552 9.40431 24.8903 9.01993C25.4454 7.44111 26.9225 6.49711 28.7552 6.54984C29.3619 6.56727 29.5191 6.60204 29.9495 6.81388ZM55.3766 6.79407C55.3522 6.85739 55.3558 6.90921 55.3844 6.90921C55.4131 6.90921 55.4884 6.85739 55.5517 6.79407C55.615 6.73075 55.7525 6.67895 55.8572 6.67895H56.0474L55.9949 7.84944C55.966 8.49317 55.9268 9.03719 55.9079 9.05829C55.889 9.0794 54.5808 9.10403 53.0009 9.11301C50.7918 9.12559 50.128 9.10786 50.1271 9.03625C50.1262 8.96541 50.1122 8.96479 50.0683 9.03387C50.0258 9.10057 49.0418 9.13622 46.3521 9.1683C44.34 9.19225 42.6478 9.22655 42.5916 9.24443C42.5355 9.26232 42.0749 9.29954 41.5682 9.32709C41.0615 9.35472 40.4311 9.42219 40.1672 9.47707L39.6873 9.57684L39.6752 8.45409C39.6684 7.83661 39.6681 7.27094 39.6743 7.19703C39.6804 7.12311 39.6514 7.06271 39.6096 7.06271C39.5679 7.06271 39.5338 7.02817 39.5338 6.98596C39.5338 6.93975 39.8623 6.90791 40.3591 6.90583C40.813 6.90399 41.547 6.87251 41.9901 6.83583C42.5822 6.78686 42.8109 6.79283 42.8526 6.85837C42.8951 6.92507 42.9097 6.92423 42.9106 6.85493C42.9114 6.78531 43.3712 6.76185 44.7659 6.76016C45.7857 6.75901 46.6379 6.74018 46.6596 6.71846C46.6814 6.69674 48.6615 6.67895 51.0599 6.67895C54.9047 6.67895 55.4155 6.6926 55.3766 6.79407ZM29.0736 8.37366C28.8503 8.50376 28.7089 8.87303 28.7089 9.32664C28.7089 9.68577 28.7414 9.78846 28.9067 9.95379C29.0755 10.1225 29.1513 10.1452 29.4241 10.1086C29.9007 10.0447 30.0141 9.85837 30.0141 9.13842C30.0141 8.66079 29.9866 8.52002 29.8736 8.41779C29.7178 8.27679 29.2813 8.2527 29.0736 8.37366ZM26.9608 9.26438C26.7761 9.33637 26.6361 9.74079 26.6361 10.2022C26.6361 10.9923 26.896 11.2841 27.5993 11.2841C28.07 11.2841 28.3836 11.0934 28.4793 10.7489C28.6544 10.1187 28.4842 9.65527 28.0014 9.44804C27.6471 9.29607 27.1188 9.20274 26.9608 9.26438ZM56.3878 9.68775C56.4057 9.70555 56.3951 10.3211 56.3643 11.0556L56.3084 12.3911L56.0397 12.4506C55.7965 12.5046 52.6607 12.5685 43.0077 12.7161L39.6873 12.7668V11.4237V10.0806L40.0904 9.98977C40.7336 9.84486 42.5455 9.75145 44.9462 9.7394C46.1707 9.73334 47.8635 9.70709 48.708 9.68115C50.3756 9.62988 56.3351 9.63502 56.3878 9.68775ZM32.5049 10.6893C32.3057 10.8728 32.1679 11.1224 31.9832 11.6341C31.6425 12.5779 31.1411 13.3496 30.3814 14.0996L29.7454 14.7277L29.3999 14.6635C29.2099 14.6282 28.8159 14.5596 28.5244 14.5111C27.6542 14.3663 26.5626 13.9814 25.9892 13.6174C25.3893 13.2366 25.0801 13.1915 24.7655 13.4388C24.6093 13.5617 24.5633 13.6655 24.5633 13.8948C24.5633 14.0581 24.5978 14.213 24.64 14.2391C24.7966 14.3359 24.7086 14.4224 24.4303 14.4456C24.1951 14.4651 24.1302 14.5081 24.0681 14.6857C23.9659 14.9781 24.1278 15.2527 24.5249 15.4602C24.8147 15.6117 24.943 15.6203 26.8088 15.612C27.8962 15.6071 28.7857 15.6097 28.7857 15.6176C28.7857 15.6255 28.4969 15.8778 28.1439 16.1783C27.6212 16.6232 27.404 16.7547 26.9731 16.8863C26.6823 16.9752 26.3344 17.1022 26.2002 17.1685C25.7637 17.3843 25.6658 18.0263 26.0433 18.1981C26.1933 18.2664 26.2106 18.323 26.1863 18.67C26.1543 19.128 26.2719 19.2665 26.693 19.2665C27.1278 19.2665 27.387 19.0673 27.822 18.3987C28.2759 17.7011 28.432 17.5426 29.7083 16.4838C30.4088 15.9026 30.632 15.757 30.7831 15.7822C30.888 15.7998 31.3893 15.8419 31.8973 15.8759C32.7171 15.9308 32.8552 15.961 33.1243 16.1438C33.5033 16.4012 33.9358 16.4202 34.1664 16.1897C34.2973 16.0588 34.322 15.9544 34.3008 15.6202L34.2749 15.2111L34.5537 15.1277C34.943 15.0113 35.0164 14.8918 34.9893 14.4181C34.9659 14.0092 34.9657 14.0089 34.691 13.9859C34.5338 13.9727 33.8784 14.1122 33.1588 14.3121C32.4671 14.5041 31.8659 14.6613 31.8224 14.6613C31.6862 14.6613 32.7746 13.7236 33.5019 13.2144C34.3865 12.5951 34.463 12.4985 34.4651 11.9985C34.4671 11.5224 34.303 11.361 33.8163 11.3607L33.5072 11.3604L33.5049 11.0074C33.501 10.3968 32.9965 10.2363 32.5049 10.6893ZM33.1465 10.9205C33.2027 10.9881 33.2008 11.1152 33.1402 11.3422C33.0351 11.7358 33.0866 11.8035 33.5504 11.8827C33.7777 11.9214 33.898 11.9834 33.9147 12.0702C33.9433 12.2185 33.3059 12.8669 32.7779 13.2268C32.3644 13.5085 31.7156 14.0796 30.7867 14.9794C30.4099 15.3444 29.9697 15.7411 29.8083 15.8608C29.4504 16.1266 28.6411 16.7986 28.1659 17.2247C27.9728 17.3979 27.6519 17.754 27.4527 18.0161C27.0665 18.5243 26.758 18.806 26.5874 18.806C26.4774 18.806 26.4596 18.7156 26.4803 18.2598C26.4906 18.0302 26.4626 17.9744 26.318 17.9366L26.1432 17.8908L26.3153 17.7076C26.41 17.6069 26.685 17.4632 26.9265 17.3883C27.6427 17.1663 27.7885 17.0866 28.6282 16.4586C30.5126 15.0493 31.7424 13.5189 32.258 11.9415C32.4148 11.4617 32.555 11.1802 32.7096 11.0347C32.9605 10.7985 33.0302 10.7803 33.1465 10.9205ZM28.5579 11.0893C28.393 11.2879 28.371 11.7797 28.5172 12.0027C28.6916 12.269 29.1042 12.2862 29.2803 12.0346C29.4776 11.7531 29.4312 11.441 29.1557 11.195C28.8849 10.9533 28.6982 10.9203 28.5579 11.0893ZM57.0398 13.1838C57.0409 13.2998 57.0496 13.9302 57.059 14.5845L57.0762 15.7742L50.1283 15.7666C46.307 15.7624 42.3975 15.7328 41.4407 15.7008C39.7519 15.6444 39.6996 15.6378 39.6546 15.4782C39.6291 15.3877 39.5862 14.856 39.5592 14.2967L39.5101 13.2797L39.8099 13.273C39.9747 13.2693 41.4742 13.2529 43.1421 13.2365C44.8099 13.2202 46.8655 13.1718 47.71 13.1292C48.5545 13.0865 50.813 13.0525 52.7291 13.0536C54.6451 13.0547 56.2314 13.037 56.2542 13.0142C56.277 12.9914 56.4626 12.9727 56.6667 12.9727C57.0198 12.9727 57.0378 12.9829 57.0398 13.1838ZM25.6499 14.0868C26.3247 14.5032 27.7518 14.91 28.8985 15.0129C29.3271 15.0513 29.4095 15.0784 29.3127 15.1489C29.2291 15.2099 28.568 15.237 27.1654 15.237C25.3901 15.237 25.1017 15.2201 24.8376 15.1009C24.4985 14.9478 24.5322 14.8438 24.9662 14.7036C25.2929 14.598 25.3357 14.3456 25.0687 14.0983C24.961 13.9985 24.8953 13.8944 24.9228 13.8669C25.0254 13.7643 25.2252 13.8247 25.6499 14.0868ZM34.6204 14.5714C34.6204 14.6622 34.5052 14.7638 34.2941 14.8592C34.0046 14.9901 33.9667 15.0369 33.9584 15.2753C33.9429 15.7209 33.9363 15.737 33.7378 15.8125C33.5879 15.8695 33.4722 15.8461 33.2071 15.7052C32.9994 15.5947 32.6648 15.5056 32.3432 15.475C31.201 15.3666 31.0783 15.3422 31.1626 15.2406C31.2066 15.1877 31.5026 15.1223 31.8203 15.0955C32.36 15.0499 33.4391 14.8071 34.2365 14.5518C34.4265 14.491 34.5907 14.439 34.6012 14.4362C34.6117 14.4333 34.6204 14.4942 34.6204 14.5714ZM39.3099 16.089C39.359 16.1481 39.5273 16.1964 39.6842 16.1964H39.9692L39.9769 17.4252C39.9811 18.1011 40.006 18.7215 40.0321 18.8037C40.0757 18.9411 40.0496 18.95 39.7107 18.9144C39.5078 18.8929 39.2988 18.9048 39.2463 18.9409C39.0252 19.0925 38.9645 19.8617 39.0757 21.1048C39.195 22.4403 39.1959 22.5007 39.1155 23.9484C39.081 24.5697 39.0886 25.1691 39.1345 25.4451C39.1765 25.6984 39.2044 25.9129 39.1964 25.9217C39.1884 25.9305 38.9242 25.9775 38.6093 26.0261C37.7293 26.162 37.6547 26.2203 37.5497 26.8565C37.5008 27.1518 37.4609 27.7224 37.4609 28.1244C37.4609 28.968 37.4259 29.0142 36.7866 29.0142H36.4094L36.3557 27.9204C36.2995 26.7756 36.158 25.8388 36.0206 25.7014C35.9761 25.6569 35.7172 25.6026 35.4452 25.5808L34.9507 25.5411L34.9473 25.0326C34.9455 24.7529 34.9143 24.006 34.8782 23.3728L34.8123 22.2215L34.0446 22.2082C33.6223 22.2008 33.1574 22.1922 33.0115 22.189C32.7776 22.1838 32.8554 22.1291 33.664 21.7296C34.7803 21.178 35.5984 20.579 36.4652 19.6783C37.2736 18.8384 37.7425 18.1871 38.2347 17.2207C38.5798 16.5429 39.058 15.2409 39.0833 14.9098C39.089 14.8364 39.1222 15.0476 39.1572 15.379C39.1922 15.7105 39.2609 16.03 39.3099 16.089ZM50.0515 16.2353C53.7462 16.2356 57.0023 16.2654 57.2873 16.3017L57.8055 16.3677V16.7689C57.8055 16.9895 57.7834 17.5813 57.7564 18.084L57.7072 18.9979L57.4685 19.0045C57.3371 19.0081 56.556 19.0382 55.7327 19.0713C54.8584 19.1065 52.6706 19.094 50.4738 19.0415C46.4651 18.9456 43.4975 18.9342 41.6763 19.0078L40.5561 19.053L40.5099 17.6487C40.4845 16.8763 40.4844 16.2111 40.5095 16.1703C40.5388 16.123 41.057 16.1212 41.9446 16.1655C42.7087 16.2036 46.3569 16.235 50.0515 16.2353ZM47.2877 19.5016C50.7419 19.5654 52.1796 19.6169 52.2203 19.6785C52.2628 19.7426 52.2934 19.7416 52.3369 19.6745C52.3811 19.6064 52.9006 19.595 54.4097 19.6289L56.4236 19.6741L56.4241 20.3338C56.4243 20.6966 56.4472 21.2839 56.4748 21.6389L56.525 22.2844L55.8601 22.2333C55.3242 22.1921 52.936 22.182 46.9423 22.1953C45.8364 22.1978 42.8191 22.387 41.5682 22.5323C41.0193 22.5961 40.378 22.6688 40.143 22.6938L39.7157 22.7393L39.5533 21.3291C39.464 20.5535 39.4085 19.798 39.43 19.6503L39.4692 19.3816L40.9409 19.3966C41.7504 19.4049 44.6065 19.4521 47.2877 19.5016ZM34.3425 23.7374C34.3683 24.2967 34.4104 24.9184 34.4359 25.1189L34.4823 25.4835L33.7645 25.4865C33.3696 25.4881 31.4919 25.5112 29.5918 25.5379C24.6607 25.6068 24.5441 25.6065 22.7207 25.523C20.721 25.4313 17.7659 25.4549 17.2104 25.567C16.9182 25.626 16.5222 25.6237 15.7901 25.5588C15.2317 25.5094 14.7679 25.4624 14.7595 25.4545C14.751 25.4465 14.7197 24.8921 14.6898 24.2225L14.6355 23.0051L15.7415 23.0455C16.35 23.0677 17.0722 23.0533 17.3467 23.0135C17.874 22.9371 18.5139 22.9251 26.8664 22.8352C29.7588 22.804 32.1397 22.7654 32.1573 22.7495C32.1749 22.7334 32.6631 22.7204 33.2424 22.7204H34.2955L34.3425 23.7374ZM56.5004 23.4798C56.5004 23.8975 56.5365 24.5907 56.5805 25.0204C56.6859 26.0473 56.6674 26.0976 56.1831 26.0976C55.972 26.0976 55.7242 26.0574 55.6325 26.0083C55.5115 25.9436 54.6196 25.925 52.3939 25.9408C46.5899 25.982 45.5532 25.9823 42.6304 25.944L39.7004 25.9057L39.6552 25.5603C39.6304 25.3703 39.5889 24.7577 39.563 24.1989C39.525 23.3763 39.536 23.177 39.6209 23.1521C39.7914 23.102 41.9787 22.9369 43.7946 22.8371C44.7616 22.784 47.8384 22.7392 50.992 22.7324L56.5004 22.7204V23.4798ZM0.72618 24.5615C0.700461 24.6031 0.715511 24.7672 0.759655 24.9261C0.803799 25.0849 0.840058 25.3257 0.840288 25.4613C0.840672 25.6823 0.809185 25.7171 0.53365 25.7996C0.285293 25.874 0.226562 25.9271 0.226562 26.0774C0.226562 26.2473 0.247982 26.2585 0.476071 26.2078C0.948602 26.1026 0.9492 26.1031 1.00616 26.605C1.03541 26.8631 1.09792 27.2171 1.14498 27.3918C1.21753 27.6612 1.26091 27.7094 1.43103 27.7094H1.63162L1.57989 26.9994C1.55149 26.6089 1.50918 26.2023 1.48591 26.0958C1.44891 25.9263 1.48023 25.8894 1.73718 25.7997C2.14001 25.659 2.37618 25.5007 2.37618 25.3715C2.37618 25.2571 2.02318 25.2732 1.59549 25.4071C1.39795 25.4689 1.38714 25.4568 1.29755 25.0744C1.24634 24.8561 1.17025 24.6345 1.12841 24.5817C1.03759 24.4672 0.79205 24.4549 0.72618 24.5615ZM29.3999 26.0545L35.6568 26.0497L35.7171 26.2464C35.7502 26.3544 35.7987 27.0239 35.8249 27.7339L35.8725 29.025L28.3945 28.9934L20.9166 28.9619L19.3044 28.7609C18.4177 28.6504 17.5617 28.5221 17.4023 28.4759L17.1124 28.3919L17.1336 27.2255L17.1548 26.0592L18.076 26.0174C18.5827 25.9944 19.9301 25.9944 21.0701 26.0174C22.2102 26.0404 25.9586 26.057 29.3999 26.0545ZM43.9482 26.4415C44.7082 26.4612 46.5565 26.4704 48.0555 26.462C53.4542 26.4316 55.5675 26.444 55.6303 26.5066C55.6893 26.5654 55.8157 29.2467 55.7626 29.3116C55.7496 29.3274 54.3298 29.3002 52.6074 29.2513C49.0307 29.1495 44.9539 29.1259 43.9703 29.2013C43.6001 29.2296 43.0344 29.2162 42.7035 29.1711C42.1663 29.0981 41.5239 29.0519 38.7469 28.8868L37.9216 28.8376L37.922 28.3311C37.9229 27.304 38.0126 26.5693 38.1438 26.5139C38.3724 26.4171 40.1009 26.3412 41.3379 26.3736C42.0135 26.3913 43.1881 26.4219 43.9482 26.4415ZM18.6088 29.2149C18.7096 29.2536 18.7286 29.4341 18.7286 30.3534V31.446L17.2123 31.5054C16.3784 31.5381 15.3161 31.5583 14.8516 31.5505C14.3871 31.5427 13.5753 31.5736 13.0475 31.6192C11.1706 31.7816 3.12962 31.8892 1.95393 31.7678L1.10944 31.6805V30.5457C1.10944 29.9216 1.13823 29.3821 1.17332 29.3469C1.27811 29.2419 18.3424 29.1127 18.6088 29.2149ZM39.1883 30.6644C39.1883 31.2976 39.2136 31.9289 39.2444 32.0672L39.3005 32.3188L35.7512 32.276C33.7992 32.2525 31.6839 32.2048 31.0505 32.1701C30.4171 32.1354 29.1907 32.1216 28.3251 32.1395C26.44 32.1783 25.1694 32.0905 23.0662 31.7761C22.8129 31.7381 22.437 31.6856 22.2309 31.6592L21.8561 31.6113L21.9079 30.7925C21.9364 30.3421 21.9777 29.87 21.9997 29.7433L22.0397 29.5131H30.614H39.1883V30.6644ZM50.625 29.6668C51.9749 29.6943 53.1089 29.735 53.145 29.7573C53.1811 29.7796 53.9912 29.7924 54.9453 29.7859C55.8993 29.7793 57.0814 29.7975 57.572 29.8262L58.464 29.8783L58.3625 30.6935C58.271 31.4284 58.2801 31.9541 58.3908 32.3337C58.4241 32.4475 58.3774 32.4681 58.0858 32.4681C57.8823 32.4681 57.7256 32.4289 57.7026 32.3721C57.6727 32.2985 57.646 32.3014 57.5881 32.3844C57.5245 32.4755 57.2298 32.4821 55.7205 32.4262C54.7349 32.3896 52.4948 32.3544 50.7425 32.348C48.0775 32.3381 46.3922 32.2859 43.6027 32.1271C43.4127 32.1163 43.145 32.1023 43.0077 32.0959L42.7582 32.0843L42.7591 31.1825C42.7595 30.6864 42.7806 30.1555 42.8059 30.0026L42.8519 29.7246L43.8606 29.6572C44.9426 29.5849 46.7209 29.5874 50.625 29.6668Z" fill="black"/>
</svg>
