<svg width="41" height="52" viewBox="0 0 41 52" fill="none" xmlns="http://www.w3.org/2000/svg">
<path fill-rule="evenodd" clip-rule="evenodd" d="M19.0818 0.592803C16.321 1.28942 14.5517 3.93641 14.8564 6.91418C15.0427 8.73538 15.9837 10.2732 17.5252 11.2758C17.8699 11.5 18.2348 11.7195 18.3362 11.7637C18.4837 11.828 18.5162 11.8796 18.4997 12.023C18.4797 12.1959 18.4564 12.206 17.8249 12.3167C16.0451 12.6285 14.9092 12.9405 13.4425 13.5204C10.0333 14.8684 6.9665 17.2638 4.73723 20.32C1.64436 24.5599 0.29177 30.0225 1.08656 35.0632C1.75857 39.3255 3.66465 43.026 6.71467 45.99C9.60412 48.7979 13.2488 50.5841 17.3998 51.2264C18.675 51.4238 21.0147 51.4687 22.3696 51.3219C28.5159 50.6558 33.8962 47.3059 37.2131 42.08C38.8677 39.473 39.8292 36.7111 40.2364 33.3953C40.3533 32.4429 40.3367 30.1107 40.2054 29.056C39.3933 22.5329 35.6136 17.1095 29.8297 14.1684C27.8338 13.1535 25.4678 12.4431 23.2866 12.2039C22.5993 12.1284 22.4363 12.0925 22.4387 12.0169C22.4401 11.9751 22.7271 11.8039 23.0765 11.6364C24.5014 10.9534 25.6033 9.6052 26.0351 8.01633C26.213 7.36158 26.2805 6.0411 26.1693 5.39296C25.9311 4.00483 25.3542 2.90962 24.3774 1.99068C23.7402 1.39126 23.0936 1.00378 22.2543 0.718459C21.6591 0.516081 21.5541 0.501097 20.6048 0.483306C19.7687 0.467673 19.5017 0.486839 19.0818 0.592803ZM21.0281 0.791646C23.1738 1.10175 24.9342 2.69632 25.6159 4.94726C25.77 5.45595 25.7927 5.644 25.7938 6.4138C25.7951 7.46853 25.6681 8.02694 25.2209 8.93208C24.7388 9.90773 23.9185 10.7759 23.0435 11.2364C22.3934 11.5786 22.4001 11.58 22.425 11.1011L22.4465 10.6877L22.7877 10.5204C23.2355 10.3007 23.9038 9.76043 24.2518 9.33657C24.9295 8.51124 25.2488 7.56475 25.2488 6.3811C25.2488 5.14964 24.8983 4.13179 24.1808 3.28009C23.1216 2.02273 21.3 1.40297 19.6212 1.72884C19.0038 1.84874 17.9912 2.32191 17.4728 2.73282C16.7362 3.31666 16.1429 4.26378 15.9257 5.20267C15.8016 5.73883 15.784 6.88873 15.8927 7.35981C16.0948 8.23637 16.5496 9.07271 17.1506 9.67349C17.4997 10.0225 18.3027 10.6 18.4387 10.6C18.4844 10.6 18.5117 10.7477 18.5117 10.9937V11.3874L18.3318 11.3433C18.2329 11.3191 17.9824 11.1848 17.7751 11.0448C16.4371 10.1414 15.5156 8.70333 15.2323 7.07679C15.1386 6.53847 15.1983 5.27692 15.3427 4.74586C15.8933 2.72104 17.5413 1.18875 19.5617 0.823108C20.1658 0.713808 20.4475 0.707726 21.0281 0.791646ZM21.8188 2.17402C23.1147 2.60441 24.2718 3.76124 24.7041 5.05883C24.8596 5.5256 24.8831 5.69927 24.8826 6.3811C24.882 7.06816 24.8594 7.23122 24.7008 7.68929C24.3476 8.70974 23.7772 9.47772 22.972 10.0168L22.469 10.3536L22.431 9.93715C22.3761 9.33525 22.3288 9.22641 22.1222 9.22641C21.7863 9.22641 18.8046 9.42494 18.662 9.45679C18.536 9.48498 18.5155 9.53816 18.4985 9.88189L18.479 10.2749L18.1193 10.0339C16.1267 8.69928 15.5626 5.94724 16.885 4.01183C17.1748 3.58759 17.7552 2.98136 18.152 2.68833C18.4829 2.44389 19.2158 2.14405 19.7545 2.03253C20.252 1.92958 21.2987 2.00127 21.8188 2.17402ZM22.0358 10.7316C22.0365 11.4155 22.0515 11.9986 22.0692 12.0273C22.087 12.056 21.7132 12.0689 21.2387 12.0558C20.7641 12.0429 20.0446 12.0565 19.6397 12.0861C18.9938 12.1334 18.8995 12.1273 18.8705 12.036C18.8368 11.9297 18.8802 9.75186 18.9167 9.71543C18.9278 9.70437 19.5844 9.66185 20.3759 9.62084C21.6248 9.55622 21.9696 9.52998 22.0229 9.49564C22.0293 9.49145 22.0352 10.0476 22.0358 10.7316ZM22.3054 12.4987C27.1143 12.8332 31.6224 14.9926 34.8385 18.5023C40.1556 24.3046 41.3715 32.5464 37.9715 39.7384C35.0552 45.9073 28.8551 50.2744 22.0438 50.9574C21.0152 51.0606 18.9908 51.0438 17.9478 50.9234C16.429 50.7481 15.0471 50.4211 13.6387 49.9039C12.6788 49.5512 10.8611 48.6515 9.99507 48.1003C5.18338 45.0377 1.99738 39.8509 1.3843 34.0821C1.30025 33.2908 1.29482 31.1689 1.37468 30.321C1.76714 26.1563 3.55673 22.1534 6.4688 18.9264C9.69719 15.3488 14.6656 12.872 19.2312 12.5639C19.8608 12.5214 20.4347 12.4783 20.5067 12.468C20.801 12.426 21.4086 12.4364 22.3054 12.4987ZM20.0488 14.4398C17.5307 14.5375 15.0441 15.2145 12.6299 16.4598C11.0287 17.2857 9.85418 18.1559 8.41675 19.5815C6.34021 21.6409 4.67875 24.549 3.93119 27.4329C2.8647 31.5469 3.31353 35.7467 5.22904 39.5771C6.05555 41.2298 6.97376 42.5017 8.36265 43.9179C11.0156 46.6229 14.4157 48.3338 18.3482 48.9422C19.4596 49.1142 21.9973 49.1489 23.0249 49.0061C25.6797 48.6373 28.211 47.6937 30.3135 46.2892C31.778 45.3109 33.1981 44.0273 34.2304 42.7488C38.0999 37.9569 39.1814 31.4059 37.0461 25.6949C35.5069 21.5784 32.504 18.2513 28.5288 16.2578C25.9856 14.9825 22.9331 14.328 20.0488 14.4398ZM23.0903 14.9794C24.8021 15.2155 26.6248 15.7977 28.351 16.6594C32.0976 18.53 35.0527 21.8377 36.5837 25.8745C37.8801 29.2928 38.0187 33.2919 36.9598 36.7237C36.3818 38.597 35.4052 40.509 34.2538 42.021C32.5032 44.3202 30.0586 46.2406 27.4718 47.3488C26.0226 47.9696 24.4478 48.4112 22.8483 48.645C21.8983 48.7839 19.4979 48.8037 18.5771 48.6803C13.434 47.991 8.90319 45.0307 6.24896 40.6255C5.08481 38.6932 4.28479 36.4803 3.95448 34.2783C3.81385 33.341 3.75936 31.1642 3.85264 30.2096C4.23521 26.294 5.71359 23.0435 8.47143 20.0546C10.0551 18.3383 12.537 16.7152 14.9469 15.8198C15.6517 15.558 17.2714 15.1496 18.1415 15.0143C19.4975 14.8036 21.7027 14.7879 23.0903 14.9794ZM19.5583 16.1339C18.0553 16.2624 16.9654 16.4787 15.7365 16.8924C11.6298 18.275 8.36187 21.1529 6.4985 25.0278C5.79764 26.4852 5.31499 28.1106 5.06257 29.8632C4.92508 30.818 4.90579 32.9148 5.02621 33.8204C5.73995 39.1892 8.94414 43.7244 13.6768 46.0643C15.5497 46.9903 17.3014 47.4803 19.4928 47.6914C20.4677 47.7852 22.2419 47.7365 23.1885 47.5898C25.9586 47.1604 28.5887 46.0098 30.7406 44.2861C31.3994 43.7583 32.6151 42.5457 33.1342 41.8985C34.5535 40.129 35.6703 37.8363 36.1929 35.6192C36.5189 34.2363 36.5961 33.5155 36.5954 31.8581C36.5948 30.1384 36.5161 29.4665 36.1415 27.979C34.8819 22.9778 31.1025 18.7983 26.2627 17.0544C24.5096 16.4227 23.036 16.1551 21.1608 16.1279C20.4413 16.1174 19.7201 16.1201 19.5583 16.1339ZM20.2151 16.6995C20.2204 17.1035 20.3772 17.9861 20.4582 18.067C20.6287 18.2376 20.7014 18.0096 20.7263 17.2263L20.7503 16.4672L21.6627 16.5087C22.1644 16.5316 22.61 16.5728 22.6528 16.6003C22.6959 16.628 22.7306 16.7963 22.7306 16.9775C22.7306 17.2609 22.7481 17.3045 22.8614 17.3045C22.9678 17.3045 23.0028 17.242 23.049 16.9699L23.1058 16.6353L23.8339 16.7899C24.2344 16.8749 24.7828 17.0128 25.0526 17.0964C25.5035 17.236 25.5412 17.2611 25.5182 17.4072C25.457 17.7961 25.475 17.8932 25.6086 17.8932C25.6981 17.8932 25.7608 17.827 25.8071 17.6838C25.8443 17.5686 25.8947 17.4545 25.919 17.4301C25.9733 17.3759 26.8733 17.7287 27.5382 18.0648C28.2592 18.4293 28.2257 18.3887 28.0648 18.7042C27.8313 19.1619 28.08 19.2785 28.3562 18.8408L28.5219 18.5785L28.9294 18.8374C29.1535 18.9799 29.5652 19.2615 29.8443 19.4633L30.3518 19.8302L30.1877 20.0452C30.0975 20.1635 30.0237 20.3237 30.0237 20.4012C30.0237 20.6227 30.2469 20.5739 30.4241 20.3138C30.5096 20.1881 30.6032 20.0851 30.6319 20.0849C30.6606 20.0846 31.0714 20.4667 31.5448 20.934L32.4054 21.7836L32.1957 22.0001C32.0803 22.1191 31.986 22.2518 31.986 22.2951C31.986 22.4274 32.2044 22.3826 32.4065 22.2088C32.5119 22.1182 32.6178 22.0667 32.6418 22.0944C32.8099 22.2887 33.5148 23.2594 33.7152 23.5729L33.9592 23.9544L33.6921 24.183C33.5452 24.3088 33.425 24.4388 33.425 24.4719C33.425 24.5914 33.746 24.5289 33.9309 24.3733L34.1198 24.2144L34.4692 24.9119C34.6614 25.2955 34.9003 25.8075 35.0001 26.0498L35.1817 26.49L34.892 26.6347C34.541 26.81 34.4943 26.9892 34.8149 26.9308C34.9319 26.9095 35.0911 26.8735 35.1688 26.8508C35.2978 26.813 35.3246 26.8573 35.4751 27.3551C35.6492 27.9316 35.8059 28.5452 35.869 28.8976C35.9024 29.084 35.8876 29.1134 35.7452 29.1429C35.6563 29.1613 35.5078 29.1922 35.4153 29.2115C35.1204 29.273 35.2762 29.4059 35.6325 29.3968L35.9624 29.3883L36.0343 29.8722C36.0739 30.1383 36.1252 30.6882 36.1485 31.0941L36.1906 31.8321L35.765 31.9105C35.5309 31.9537 35.2209 31.989 35.076 31.989C34.8997 31.989 34.7998 32.0221 34.7741 32.0892C34.7156 32.2415 34.9935 32.316 35.6204 32.316H36.1721L36.171 32.5613C36.1698 32.8296 36.0661 33.9063 36.0044 34.291L35.9657 34.5325L35.6438 34.4944C35.3518 34.4599 35.3218 34.4686 35.3218 34.5885C35.3218 34.6908 35.3892 34.7376 35.62 34.7957C35.8549 34.8549 35.9109 34.8947 35.884 34.9834C35.8652 35.0453 35.8183 35.2431 35.7797 35.423C35.6581 35.9895 35.3036 37.0909 35.2428 37.0909C35.2108 37.0909 35.095 37.0446 34.9856 36.9881C34.7542 36.8684 34.6023 36.9043 34.6023 37.0789C34.6023 37.1591 34.6934 37.2429 34.864 37.3198C35.0079 37.3847 35.1256 37.4626 35.1256 37.4929C35.1256 37.5853 34.5381 38.864 34.2969 39.2965L34.07 39.7032L33.8081 39.5379C33.5316 39.3634 33.3269 39.3513 33.3269 39.5094C33.3269 39.5957 33.6523 39.8594 33.8334 39.9197C33.9293 39.9517 33.7375 40.2701 33.1346 41.0798C32.8806 41.4209 32.6524 41.7289 32.6275 41.7642C32.6012 41.8017 32.4733 41.7409 32.3212 41.6186C32.1645 41.4927 32.0191 41.4244 31.9576 41.448C31.8067 41.5059 31.8292 41.5751 32.0945 41.8688L32.3339 42.1338L31.5654 42.8903L30.7968 43.6469L30.5547 43.4105C30.4215 43.2804 30.2622 43.174 30.2008 43.174C30.0329 43.174 30.0624 43.4209 30.2613 43.6817L30.4335 43.9075L30.2449 44.0642C29.9438 44.3146 28.5015 45.2671 28.4237 45.2671C28.3847 45.2671 28.2974 45.1641 28.2295 45.0382C28.1426 44.8767 28.061 44.8092 27.953 44.8092C27.7617 44.8092 27.7577 44.9267 27.9387 45.2335C28.0151 45.3629 28.0667 45.479 28.0532 45.4912C27.9274 45.6059 26.0658 46.4445 25.9369 46.4445C25.9215 46.4445 25.8891 46.3391 25.8649 46.2103C25.817 45.9546 25.6911 45.8639 25.5484 45.9822C25.4778 46.0409 25.4718 46.1108 25.5218 46.2918C25.5573 46.4204 25.562 46.5475 25.5321 46.5743C25.3959 46.6964 23.2479 47.2125 23.1758 47.1404C23.1564 47.1211 23.1208 47.008 23.0967 46.8893C23.064 46.7286 23.0134 46.6678 22.8989 46.6513C22.7529 46.6304 22.7467 46.6443 22.7781 46.9234C22.8185 47.2814 22.8398 47.2739 21.6111 47.3362L20.7532 47.3796L20.6954 46.7322C20.6431 46.1477 20.6248 46.0847 20.5067 46.0847C20.3909 46.0847 20.374 46.1337 20.3598 46.5099C20.3509 46.7437 20.3275 47.0308 20.3078 47.1476C20.2726 47.3557 20.2646 47.3602 19.9314 47.3597C19.5875 47.3592 18.5541 47.2575 18.2471 47.1939C18.1005 47.1636 18.0838 47.1325 18.1071 46.9328C18.1314 46.7254 18.1191 46.7061 17.9629 46.7061C17.8443 46.7061 17.7919 46.7411 17.7912 46.8206C17.7889 47.0901 17.7143 47.1013 17.0454 46.9315C16.6915 46.8417 16.1629 46.688 15.8707 46.59L15.3394 46.4118L15.3612 46.1011C15.3818 45.805 15.3749 45.7904 15.214 45.7904C15.0827 45.7904 15.0448 45.8232 15.0441 45.9376C15.0416 46.2978 14.9719 46.2908 14.0538 45.8381C13.5737 45.6015 13.1435 45.3814 13.0977 45.3491C13.0319 45.3026 13.0423 45.2273 13.1471 44.9906C13.2784 44.6937 13.2691 44.4813 13.1248 44.4832C12.9981 44.4849 12.9095 44.571 12.7892 44.8092C12.7257 44.9352 12.665 45.0482 12.6543 45.0604C12.605 45.1171 10.7934 43.794 10.7934 43.7013C10.7934 43.6766 10.8795 43.5738 10.9848 43.473C11.1834 43.2828 11.1882 43.1086 10.9949 43.1086C10.9336 43.1086 10.7981 43.1975 10.694 43.3063L10.5046 43.5039L9.92482 42.9302C9.60588 42.6146 9.2564 42.2461 9.14821 42.1113L8.9514 41.8663L9.15293 41.6967C9.26379 41.6035 9.35445 41.4856 9.35445 41.4348C9.35445 41.3063 9.06103 41.3175 8.85289 41.4539C8.68656 41.5629 8.67969 41.5611 8.52657 41.3721C8.44055 41.2659 8.1731 40.8873 7.93226 40.5307C7.52993 39.9351 7.50416 39.8767 7.61457 39.8112C7.92461 39.6274 8.0152 39.522 7.93409 39.4395C7.87097 39.3753 7.79987 39.3801 7.58952 39.4627L7.32448 39.5669L7.1813 39.2936C6.98357 38.9166 6.60309 38.1324 6.54108 37.9739C6.51289 37.902 6.42746 37.6864 6.35133 37.4948L6.21286 37.1466L6.47547 37.0434C6.61989 36.9866 6.73809 36.8968 6.73809 36.8436C6.73809 36.7659 6.67602 36.7552 6.42086 36.7891L6.10362 36.8312L5.9643 36.356C5.81438 35.8445 5.62869 35.0752 5.62712 34.9591C5.6266 34.9198 5.74263 34.8528 5.88503 34.8101C6.17126 34.7244 6.22967 34.6698 6.15857 34.5547C6.12312 34.4974 6.04652 34.4954 5.85945 34.5471C5.67264 34.5987 5.59585 34.5967 5.56047 34.5395C5.51632 34.468 5.42343 33.7272 5.3299 32.7005L5.29046 32.2675L5.8344 32.2388C6.13358 32.2231 6.4325 32.1799 6.49863 32.1428C6.60688 32.0821 6.60884 32.0653 6.51832 31.9748C6.45271 31.9091 6.22162 31.8578 5.8533 31.8271L5.28889 31.7801L5.33598 31.0506C5.36188 30.6493 5.401 30.1748 5.42285 29.9961L5.46261 29.6712L5.76664 29.6899C5.93389 29.7003 6.08851 29.6799 6.11023 29.6447C6.1916 29.513 6.06778 29.3867 5.81831 29.3468C5.62188 29.3154 5.56073 29.2757 5.56073 29.1796C5.56073 29.0013 5.73439 28.2624 5.935 27.5874C6.07301 27.1231 6.12586 27.0205 6.20939 27.0552C6.41935 27.1422 6.54232 27.1624 6.63788 27.1258C6.78466 27.0694 6.69054 26.9098 6.45539 26.8163C6.34106 26.7708 6.23823 26.7269 6.22692 26.7188C6.18708 26.6903 6.99907 24.8522 7.10229 24.7374C7.11406 24.7243 7.20276 24.7758 7.29943 24.8518C7.48251 24.9958 7.68561 25.0321 7.74755 24.9318C7.76737 24.8998 7.66794 24.7691 7.52659 24.6414L7.26967 24.4093L7.5852 23.8899C7.75867 23.6042 8.07374 23.1347 8.28527 22.8465L8.66988 22.3225L8.86499 22.4786C9.09425 22.6621 9.14867 22.6709 9.20146 22.5333C9.22507 22.4719 9.16954 22.3571 9.06194 22.2448L8.88324 22.0583L9.16633 21.7418C9.48906 21.381 10.167 20.6983 10.3822 20.5173C10.5253 20.397 10.5289 20.398 10.6987 20.5998C11.0162 20.9771 11.2171 20.8235 10.953 20.4052C10.8584 20.2553 10.8063 20.1144 10.8373 20.0921C10.8684 20.0699 11.173 19.8429 11.5141 19.5876C12.1526 19.1097 12.6923 18.7508 12.7163 18.7878C12.7238 18.7994 12.7805 18.8899 12.8425 18.9888C12.9548 19.1683 13.1071 19.2226 13.1778 19.1083C13.1983 19.0751 13.1545 18.9452 13.0805 18.8198L12.9459 18.5916L13.9385 18.0952C14.4844 17.8222 14.9832 17.5988 15.0471 17.5988C15.1172 17.5988 15.1902 17.6767 15.2318 17.7959C15.3082 18.0151 15.4736 18.1122 15.5835 18.0022C15.6357 17.9501 15.6277 17.8601 15.5544 17.6735L15.4536 17.4167L15.9852 17.2475C16.5772 17.0591 17.5081 16.8139 17.6317 16.8139C17.6764 16.8139 17.7311 16.9419 17.7553 17.1029C17.7791 17.2618 17.84 17.4263 17.8907 17.4683C18.0556 17.6052 18.1315 17.4716 18.1085 17.0846L18.0866 16.7158L18.7406 16.6082C19.1004 16.549 19.5787 16.4975 19.8035 16.4938L20.2123 16.4869L20.2151 16.6995ZM23.2741 17.8278C23.2557 17.9857 23.2738 18.0567 23.3324 18.0567C23.3859 18.0567 23.4174 17.9719 23.4174 17.8278C23.4174 17.7019 23.3912 17.5988 23.3591 17.5988C23.3271 17.5988 23.2889 17.7019 23.2741 17.8278ZM21.1346 18.573C21.0634 18.6193 21.0459 18.8041 21.0559 19.404L21.0686 20.1755L20.9252 20.0482C20.7171 19.8636 20.055 18.9639 20.0136 18.8096C19.9715 18.653 19.6178 18.5928 19.5095 18.7238C19.3247 18.9473 19.1247 20.7749 19.2608 20.9952C19.2848 21.0339 19.419 21.0655 19.5592 21.0655C19.8537 21.0655 19.8436 21.0946 19.9317 19.9945L19.9834 19.3487L20.3018 19.8157C20.4768 20.0724 20.6986 20.3385 20.7946 20.4069C20.8907 20.4753 21.0099 20.6073 21.0597 20.7003C21.1231 20.8187 21.2037 20.8693 21.3287 20.8693C21.5018 20.8693 21.5084 20.8559 21.5449 20.4278C21.6833 18.8083 21.6624 18.5598 21.3854 18.5303C21.2978 18.521 21.185 18.5402 21.1346 18.573ZM23.2074 23.9272C22.3971 25.2853 21.6597 26.5248 21.5687 26.6818L21.4033 26.9671L21.3646 26.7799C21.3433 26.6769 21.2815 26.2468 21.2274 25.8241C21.0034 24.0754 20.6637 21.808 20.605 21.6706C20.5705 21.5896 20.498 21.5234 20.4439 21.5234C20.3316 21.5234 20.3057 21.6159 20.2146 22.341C20.1395 22.9387 19.6891 27.1595 19.6891 27.2657C19.6891 27.3041 19.5203 27.3846 19.3141 27.4446C18.8264 27.5864 18.1501 27.8945 17.8883 28.0942L17.6811 28.2522L17.4586 28.0692C17.3363 27.9686 16.6328 27.4254 15.8954 26.8621C15.1579 26.2988 14.5026 25.7943 14.4393 25.741C14.3119 25.634 14.1555 25.6144 14.1032 25.699C14.0608 25.7675 14.484 26.3727 15.7167 28.0067L16.6827 29.2872L16.452 29.6704C16.3251 29.8811 16.1565 30.2608 16.0774 30.5143C15.9982 30.7678 15.9274 30.9849 15.9199 30.9968C15.9125 31.0088 15.6758 31.0463 15.394 31.0803C15.1121 31.1143 13.8867 31.2785 12.6708 31.4453C10.5621 31.7344 10.461 31.7547 10.4796 31.8824C10.5043 32.052 10.4525 32.0419 13.1809 32.4097C14.404 32.5746 15.5109 32.7259 15.6406 32.7459C15.8643 32.7803 15.8804 32.8 15.954 33.1289C16.0425 33.5243 16.3896 34.2702 16.6377 34.5978L16.8053 34.8191L16.5205 35.1864C16.3639 35.3885 15.806 36.0977 15.2807 36.7625C14.7553 37.4272 14.3255 38.0085 14.3255 38.0543C14.3255 38.2739 14.704 38.0452 16.1735 36.9376L17.7655 35.7378L17.1629 37.9678C16.8315 39.1944 16.4261 40.68 16.262 41.2693C16.0979 41.8586 15.9794 42.3663 15.9988 42.3977C16.0181 42.4289 16.0882 42.4545 16.1546 42.4545C16.3049 42.4545 16.5257 42.1081 18.2541 39.1616L19.591 36.8825L19.6679 37.3301C19.7103 37.5763 19.8515 38.5136 19.982 39.4129C20.3281 41.8004 20.4145 42.2583 20.5189 42.2583C20.5679 42.2583 20.6336 42.1911 20.6648 42.109C20.696 42.0269 20.8744 40.7393 21.0613 39.2477C21.2532 37.7158 21.4323 36.5163 21.4729 36.4912C21.5124 36.4668 21.6496 36.4275 21.7779 36.4038C21.9062 36.3801 22.2613 36.2396 22.5671 36.0915C22.8729 35.9435 23.1566 35.8243 23.1976 35.8267C23.2387 35.8292 23.6508 36.1109 24.1133 36.4527C25.662 37.597 26.5236 38.2011 26.6081 38.202C26.8612 38.2046 26.6879 37.9088 25.5196 36.3441L24.274 34.6761L24.5021 34.2973C24.7055 33.9596 25.0526 33.0271 25.0526 32.8185C25.0526 32.7623 25.8036 32.6569 27.6199 32.4582C29.0319 32.3037 30.2681 32.1609 30.3671 32.1409C30.6247 32.0888 30.5889 31.9391 30.3017 31.8674C30.0217 31.7975 25.6839 30.9664 25.2719 30.9037C25.0448 30.8691 24.995 30.834 24.9658 30.6882C24.8983 30.3509 24.6603 29.7942 24.4418 29.4628L24.221 29.1279L24.7649 28.4055C25.5758 27.3283 26.7513 25.6841 26.7524 25.6258C26.7529 25.5977 26.7109 25.5585 26.6591 25.5386C26.5477 25.4958 26.1424 25.7939 23.8344 27.6155L23.4339 27.9317L24.21 24.8748C24.6369 23.1934 24.9864 21.7368 24.9867 21.6379C24.9871 21.4927 24.9576 21.458 24.8339 21.458C24.7018 21.458 24.4766 21.8 23.2074 23.9272ZM24.1368 23.8723C23.9563 24.564 23.6456 25.7829 23.4463 26.5809C23.247 27.3788 23.0564 28.12 23.0228 28.2279C22.9892 28.3358 22.7699 29.2041 22.5356 30.1575C22.277 31.2095 22.0388 32.0297 21.9295 32.244C21.6676 32.7579 21.2274 33.1874 20.8567 33.2909C20.4555 33.403 20.1922 33.3375 19.8674 33.0451C19.3984 32.6225 19.2222 31.9856 19.363 31.2205C19.4076 30.9776 19.4804 30.7347 19.5246 30.6808C19.6753 30.497 22.7899 25.3514 23.871 23.5001C24.171 22.9864 24.4273 22.577 24.4406 22.5903C24.4539 22.6036 24.3172 23.1805 24.1368 23.8723ZM2.12518 22.9673C2.07345 23.1304 2.11812 23.1886 2.25476 23.1361C2.38198 23.0873 2.38806 22.8316 2.26196 22.8316C2.21041 22.8316 2.14886 22.8927 2.12518 22.9673ZM20.5694 23.4685C20.5945 23.7118 20.7155 24.632 20.8385 25.5134C20.9615 26.3948 21.0623 27.1607 21.0624 27.2153C21.0626 27.2979 20.9766 27.3105 20.5557 27.2899C20.277 27.2763 20.0373 27.2544 20.0232 27.2413C19.9791 27.2001 20.4354 22.9713 20.4808 22.9994C20.5046 23.014 20.5444 23.2251 20.5694 23.4685ZM25.6856 26.6417C25.5928 26.7586 25.3466 27.0898 25.1385 27.3776C24.9304 27.6654 24.5953 28.1276 24.3938 28.4046L24.0277 28.9084L23.7221 28.5982L23.4165 28.288L24.022 27.8203C24.355 27.5632 24.8924 27.1458 25.2161 26.8929C25.5399 26.64 25.8159 26.4322 25.8295 26.4311C25.8431 26.4301 25.7784 26.5248 25.6856 26.6417ZM16.3763 27.6216C16.8853 28.0167 17.3296 28.3663 17.3638 28.3985C17.4022 28.4346 17.3298 28.5556 17.175 28.7142L16.9238 28.9714L16.4914 28.402C15.5794 27.2013 15.2927 26.8053 15.3704 26.8533C15.4147 26.8807 15.8674 27.2264 16.3763 27.6216ZM20.912 27.7864C20.3211 28.84 19.3177 30.5359 19.2538 30.5893C19.2063 30.6289 18.8846 31.6885 18.539 32.944C18.1934 34.1996 17.887 35.2517 17.8581 35.2822C17.7783 35.3664 17.0702 34.6053 16.7918 34.1365C16.2923 33.2949 16.0827 32.1824 16.2459 31.2373C16.36 30.5761 16.7127 29.783 17.1213 29.269C17.6416 28.6143 18.6131 28.0175 19.4577 27.8337C19.8839 27.7409 20.9572 27.706 20.912 27.7864ZM23.8418 29.4707C24.4087 30.2668 24.6707 31.0196 24.6728 31.8581C24.6763 33.2099 24.3433 34.0153 23.388 34.9651C22.7294 35.62 22.1475 35.9619 21.3897 36.1392C21.0175 36.2263 20.0161 36.2826 20.0161 36.2164C20.0161 36.2031 20.5296 35.3201 21.1573 34.2543L22.2984 32.3164L22.5676 31.2533C22.8729 30.0476 23.1488 28.9914 23.194 28.8558C23.2357 28.7308 23.4803 28.963 23.8418 29.4707ZM20.2137 30.6645C19.8773 30.8335 19.689 31.154 19.6893 31.5571C19.6898 32.1696 20.0697 32.5368 20.7029 32.5368C21.2799 32.5368 21.6553 32.2191 21.7516 31.6492C21.81 31.3033 21.5741 30.8329 21.2599 30.6689C20.9716 30.5184 20.5083 30.5165 20.2137 30.6645ZM20.9994 30.9108C21.3584 31.0965 21.49 31.5701 21.2808 31.9242C21.1514 32.1433 20.9411 32.2506 20.6412 32.2506C20.3258 32.2506 20.0161 31.8898 20.0161 31.5223C20.0161 31.3071 20.0585 31.214 20.2385 31.034C20.4859 30.7866 20.694 30.7529 20.9994 30.9108ZM7.21231 31.0518C7.16737 31.0696 7.13054 31.1727 7.13054 31.281C7.13054 31.4443 7.29197 32.3547 7.42757 32.956C7.46393 33.1176 7.72289 33.2513 7.88144 33.1905C7.93534 33.1698 8.01134 33.0345 8.05026 32.8898C8.08924 32.7452 8.15093 32.5495 8.18736 32.4551C8.25185 32.288 8.25872 32.2944 8.43912 32.6896C8.62436 33.0954 8.81365 33.2372 9.04925 33.1468C9.13769 33.1129 9.74795 31.3999 9.7473 31.1877C9.74671 31.021 9.51856 31.0454 9.44138 31.2204C9.40567 31.3014 9.3069 31.6112 9.22187 31.909C9.09857 32.3411 9.05449 32.427 9.00379 32.3342C8.9688 32.2702 8.83733 32.0914 8.71168 31.9367C8.41524 31.572 8.25623 31.5857 8.12273 31.9875C8.0133 32.317 7.9999 32.3024 7.82388 31.6619C7.76946 31.4641 7.68691 31.2536 7.64034 31.1943C7.54511 31.0729 7.33541 31.0031 7.21231 31.0518ZM32.035 31.2087C31.9721 31.2781 31.9426 31.3349 31.9696 31.3348C31.9966 31.3348 32.0085 31.7478 31.996 32.2526C31.9803 32.8852 31.997 33.1989 32.0495 33.2622C32.107 33.3314 32.2876 33.351 32.7862 33.3419C33.5105 33.3287 33.7289 33.2157 33.1825 33.1368C32.5918 33.0516 32.6089 33.0649 32.5928 32.6722L32.5783 32.316H32.8628C33.021 32.316 33.1797 32.277 33.2202 32.2282C33.3138 32.1153 33.2505 32.0546 33.0379 32.0535C32.6452 32.0514 32.5746 31.9945 32.5746 31.6796V31.3855L33.031 31.4113C33.3505 31.4294 33.4965 31.4131 33.518 31.3572C33.5602 31.2473 33.2303 31.1568 32.6401 31.1163C32.2129 31.0869 32.1347 31.0989 32.035 31.2087ZM26.1646 31.3601C26.6502 31.4482 27.6129 31.6173 28.3038 31.7357C28.9947 31.8542 29.5516 31.9596 29.5413 31.9699C29.531 31.9802 28.6566 32.0773 27.5983 32.1857C26.5399 32.2942 25.5509 32.4003 25.4005 32.4216L25.127 32.4604L25.1062 31.8001C25.0884 31.2373 25.0998 31.1443 25.1834 31.1698C25.2374 31.1863 25.6789 31.2719 26.1646 31.3601ZM15.8416 31.9234C15.8301 32.2473 15.8103 32.5122 15.7976 32.5122C15.785 32.5122 14.8413 32.3798 13.7006 32.2179C12.5598 32.056 11.5494 31.9199 11.4553 31.9156C11.2416 31.9056 11.7641 31.8334 12.7884 31.7314C14.2648 31.5843 15.8626 31.3808 15.8626 31.3399C15.8626 31.337 15.8532 31.5995 15.8416 31.9234ZM19.2804 32.8066C19.5358 33.304 19.9486 33.5588 20.4992 33.5588C20.6965 33.5588 20.936 33.5291 21.0313 33.4929C21.1267 33.4566 21.1949 33.4506 21.1828 33.4795C21.1623 33.5282 19.8478 35.7906 19.5404 36.306C19.4653 36.4319 18.8013 37.5583 18.065 38.8091C17.3287 40.0599 16.7158 41.0728 16.703 41.06C16.6903 41.0473 17.0003 39.8621 17.392 38.4262C17.7838 36.9902 18.3196 35.0085 18.5827 34.0223C18.924 32.7436 19.0734 32.2744 19.1037 32.387C19.127 32.4739 19.2065 32.6627 19.2804 32.8066ZM24.985 36.1588C25.4574 36.7794 25.8261 37.2871 25.8044 37.2871C25.7721 37.2871 24.2606 36.2073 23.6136 35.7221L23.4501 35.5994L23.7424 35.2979C23.9031 35.1321 24.0553 35.0041 24.0804 35.0135C24.1056 35.0229 24.5127 35.5382 24.985 36.1588ZM17.416 35.5892C17.3738 35.6252 15.575 36.9867 15.3094 37.1837C15.2218 37.2487 15.7105 36.6139 16.6046 35.5013L16.9621 35.0564L17.2135 35.3019C17.3518 35.437 17.4429 35.5662 17.416 35.5892ZM20.9959 36.7475C20.9952 36.8464 20.9656 37.1285 20.9301 37.3742C20.882 37.7067 20.6074 39.9775 20.5332 40.6557C20.5246 40.7345 19.9571 36.8458 19.9533 36.6821C19.951 36.5824 20.0182 36.5676 20.474 36.5676H20.9973L20.9959 36.7475ZM20.0051 43.0124C19.8075 43.1197 19.6631 43.4752 19.723 43.707C19.7769 43.916 19.9272 44.0855 20.286 44.3419C20.5894 44.5587 20.772 44.8282 20.6974 44.949C20.6378 45.0453 20.3577 45.1377 20.2502 45.0965C20.1984 45.0766 20.1261 44.9745 20.0895 44.8694C20.0161 44.6587 19.9208 44.6224 19.8596 44.7819C19.7303 45.119 19.9722 45.3559 20.4387 45.3488C20.7858 45.3436 21.0515 45.1791 21.1697 44.8961C21.3639 44.4313 21.22 44.1329 20.6702 43.8604C20.3547 43.7039 20.2123 43.5682 20.2123 43.4235C20.2123 43.2354 20.3971 43.2063 20.6069 43.3614C20.8205 43.5194 20.9973 43.5434 20.9973 43.4143C20.9973 43.2372 20.5071 42.9065 20.2571 42.915C20.2145 42.9164 20.1011 42.9602 20.0051 43.0124Z" fill="black"/>
</svg>
