<svg width="40" height="50" viewBox="0 0 40 50" fill="none" xmlns="http://www.w3.org/2000/svg">
<path fill-rule="evenodd" clip-rule="evenodd" d="M36.6853 0.183205C36.2782 0.368274 35.3027 0.733687 34.7739 0.899193C34.1424 1.09683 33.5636 1.31246 32.9596 1.5752C32.7279 1.67593 32.3343 1.83839 32.0849 1.93621C31.8354 2.03402 31.4709 2.19266 31.2749 2.28872C31.0789 2.38485 30.6561 2.54738 30.3354 2.64992C29.1915 3.01572 27.6093 3.87654 26.322 4.83343C26.0238 5.05503 25.5259 5.42374 25.2154 5.65273C24.9049 5.88178 24.4551 6.24615 24.216 6.46244C22.8119 7.73259 21.7991 8.60858 21.0695 9.18406C20.4625 9.66283 18.6267 11.5882 17.8377 12.5737C17.6017 12.8684 17.4087 13.1261 17.4087 13.1463C17.4087 13.1666 17.3548 13.2316 17.2889 13.2907C17.0691 13.488 15.9832 14.7723 15.9832 14.835C15.9832 14.9249 15.2036 15.6731 14.4929 16.2654C13.6987 16.9272 13.4394 17.1782 12.9376 17.7707C12.7112 18.0379 12.4928 18.2857 12.4521 18.3213C12.3125 18.4436 11.6419 19.2426 11.6419 19.2867C11.6419 19.3109 11.5889 19.3876 11.5242 19.4571C11.4594 19.5266 11.2795 19.8097 11.1243 20.0861C10.9692 20.3624 10.6609 20.8655 10.4393 21.2039C9.90146 22.0254 9.50369 22.6834 9.50369 22.7518C9.50369 22.7824 9.45762 22.8458 9.40124 22.8925C9.34487 22.9392 9.17123 23.2505 9.0152 23.5842C8.85924 23.9178 8.65753 24.2789 8.56688 24.3865C8.47629 24.4942 8.40217 24.6098 8.40217 24.6434C8.40217 24.677 8.32415 24.8278 8.22877 24.9785C8.05331 25.2558 8.00808 25.4069 7.85575 26.2242C7.80923 26.4735 7.73906 26.7575 7.69973 26.8552C7.60603 27.0879 7.18629 27.5394 6.75222 27.8742C6.19777 28.3018 6.18015 28.3708 6.1909 30.0742C6.19596 30.8781 6.21753 31.6584 6.23891 31.8081C6.27487 32.0604 6.21779 32.2013 5.46532 33.7191C4.45419 35.7587 4.06088 36.6078 4.06088 36.7512C4.06088 36.8124 4.00257 36.9366 3.93129 37.0272C3.86002 37.1178 3.8017 37.2157 3.8017 37.2448C3.8017 37.2738 3.70386 37.5024 3.58425 37.7527C3.37678 38.1869 3.30621 38.3481 2.83204 39.4711C2.71923 39.7383 2.5586 40.1172 2.47515 40.3132C2.13588 41.1099 1.92264 41.6767 1.92264 41.7817C1.92264 41.8428 1.834 42.1714 1.72572 42.5119C1.05367 44.6245 0.863429 45.3795 0.8979 45.7972C0.932112 46.2121 1.10447 46.1598 1.3363 45.6642C1.44497 45.4317 1.53387 45.2001 1.53387 45.1493C1.53387 45.0376 1.85499 44.5203 2.22983 44.0283C2.38094 43.8299 2.53327 43.5469 2.56839 43.3993C2.60351 43.2517 2.69448 42.9561 2.77055 42.7423C2.84662 42.5286 2.94906 42.1899 2.99824 41.9898C3.04735 41.7897 3.14552 41.4982 3.2164 41.342C3.28729 41.1859 3.3458 40.9998 3.34639 40.9286C3.34697 40.8573 3.43814 40.5658 3.54894 40.2808C3.83144 39.5543 4.02466 39.0388 4.15607 38.6614C4.43747 37.853 4.5298 37.6067 4.64754 37.3503C4.71687 37.1993 4.77363 37.0275 4.77363 36.9685C4.77363 36.7879 5.10079 36.332 5.34889 36.1667C5.47796 36.0808 5.81684 35.9134 6.10194 35.7949C6.62023 35.5793 6.62043 35.5793 7.46264 35.6141C8.53565 35.6584 8.88988 35.6928 9.92486 35.8526C10.6456 35.964 10.8394 35.9723 11.2677 35.9099C11.863 35.8232 12.6175 35.5771 12.9357 35.3659C13.0616 35.2823 13.2758 35.1481 13.4117 35.0675C13.5476 34.9869 13.7298 34.8152 13.8166 34.6859C13.9033 34.5566 14.0435 34.3481 14.1281 34.2225C14.2127 34.097 14.4124 33.8873 14.572 33.7566C15.0201 33.3895 15.462 33.0581 15.5034 33.0581C15.5699 33.0581 16.1358 32.6472 16.4832 32.3466C16.6691 32.1857 16.9434 31.9521 17.0927 31.8274C17.3517 31.611 18.4454 30.3909 18.4454 30.3184C18.4454 30.2993 18.5985 30.0525 18.7856 29.77C18.9727 29.4874 19.155 29.2104 19.1906 29.1543C19.2262 29.0984 19.372 28.8863 19.5146 28.683C19.6571 28.4798 19.8175 28.2457 19.8709 28.1629C20.0321 27.9131 20.344 27.467 20.5019 27.2606C20.5836 27.1537 20.6727 27.0371 20.6999 27.0015C21.0529 26.5394 21.567 25.8698 21.7347 25.6541C22.3476 24.8655 23.1833 23.3694 23.5284 22.4427C23.8056 21.6984 24.1095 20.88 24.189 20.6635C24.2394 20.5265 24.3526 20.3085 24.4408 20.1788C24.5289 20.0491 24.601 19.9195 24.601 19.8907C24.601 19.8619 24.6543 19.7594 24.7194 19.6629C24.7846 19.5663 24.9523 19.3124 25.092 19.0987C25.2318 18.8849 25.3688 18.7 25.3964 18.6878C25.509 18.6382 25.9575 17.8978 26.1873 17.3821C26.3222 17.0792 26.4542 16.8023 26.4806 16.7667C26.5259 16.7055 26.7564 16.2803 27.2762 15.2991C27.5237 14.8319 28.0843 13.9736 28.3534 13.65C28.4456 13.539 28.594 13.3543 28.6831 13.2395C29.2155 12.5534 30.1903 11.6731 30.6691 11.446C30.8022 11.3829 31.3939 10.8457 31.9839 10.2522C32.574 9.65868 33.1806 9.09589 33.332 9.00158C33.4833 8.90726 33.9061 8.54588 34.2715 8.19848C34.6369 7.85108 35.0816 7.43806 35.2598 7.28071C36.3433 6.32389 37.5729 5.08879 37.6968 4.83285C37.7721 4.67739 37.9704 4.38394 38.1375 4.18074C39.0487 3.07272 39.1417 2.83072 39.1411 1.56828C39.1405 0.587032 39.0737 0.377281 38.7417 0.313864C38.6442 0.295208 38.3749 0.236197 38.1432 0.182691C37.6285 0.06389 36.9473 0.064145 36.6853 0.183205ZM38.2451 0.485265C38.9248 0.635742 38.9394 0.6566 38.9725 1.52345C38.9997 2.23308 38.9921 2.2906 38.8201 2.67383C38.7205 2.89575 38.3962 3.38572 38.0995 3.76273C37.8002 4.14303 37.5601 4.51071 37.5601 4.58864C37.5601 4.75771 36.5592 5.72197 34.9093 7.14234C34.6096 7.40035 34.2305 7.73771 34.0669 7.89214C33.4838 8.44242 32.8244 8.96103 32.7077 8.96103C32.6573 8.96103 31.763 9.83649 31.0907 10.5438C30.9003 10.7442 30.5942 11.0043 30.4103 11.1219C30.2266 11.2394 29.9596 11.4461 29.817 11.5812C29.6745 11.7163 29.4348 11.9355 29.2843 12.0684C29.134 12.2013 28.8052 12.5694 28.5539 12.8865C28.3026 13.2036 28.0466 13.5213 27.9851 13.5926C27.9235 13.6639 27.844 13.7722 27.8084 13.8334C27.7727 13.8947 27.605 14.147 27.4358 14.3942C27.2665 14.6413 27.128 14.8841 27.128 14.9338C27.128 14.9835 27.0925 15.0597 27.0492 15.103C26.9286 15.2235 26.595 15.8281 26.0775 16.8638C25.8007 17.418 25.4125 18.0666 25.1307 18.4458C24.8681 18.7993 24.6367 19.1345 24.6165 19.1908C24.5964 19.247 24.5297 19.3659 24.4684 19.4549C24.2852 19.7212 23.9553 20.3545 23.8498 20.6428C23.7955 20.7911 23.669 21.1456 23.5687 21.4306C23.3633 22.014 23.3083 22.1409 22.7675 23.2768C22.5554 23.7221 22.3126 24.1793 22.2279 24.2927C22.1432 24.4061 22.074 24.5145 22.074 24.5337C22.074 24.578 21.357 25.5388 21.0058 25.965C20.8591 26.1432 20.6968 26.3508 20.6452 26.4264C20.5935 26.502 20.4201 26.7352 20.2597 26.9446C20.0993 27.154 19.939 27.3713 19.9033 27.4275C19.623 27.869 19.0443 28.7091 18.9501 28.8113C18.8864 28.8803 18.8342 28.9596 18.8342 28.9875C18.8342 29.0154 18.751 29.1629 18.6494 29.3154C18.5477 29.4678 18.3808 29.7237 18.2786 29.8841C18.0824 30.1916 17.4714 30.9138 17.0773 31.304C16.7204 31.6574 15.5611 32.595 15.3898 32.6688C15.047 32.8163 14.2985 33.4098 13.6285 34.0652C13.2264 34.4585 12.8529 34.7499 12.557 34.9014C11.968 35.2027 11.1161 35.304 10.0544 35.199C9.66244 35.1602 8.83098 35.1101 8.20675 35.0877C6.84579 35.0388 6.0985 35.1221 5.72768 35.3641L5.48295 35.5238L5.69211 35.1493C5.80718 34.9433 6.0087 34.6144 6.13997 34.4185C6.41833 34.0029 6.62529 33.629 7.28749 32.3456C7.554 31.829 7.82639 31.3368 7.89274 31.2518C7.95909 31.1668 8.0134 31.0701 8.0134 31.0368C8.0134 31.0035 8.09355 30.8539 8.19158 30.7044C8.43729 30.3295 8.51329 30.2061 8.63699 29.9812C8.69582 29.8743 8.82735 29.6807 8.92941 29.5508C9.03146 29.421 9.11492 29.2862 9.11492 29.2511C9.11492 29.2161 9.16092 29.1492 9.21716 29.1025C9.27341 29.0559 9.39185 28.8847 9.4803 28.7221C9.81821 28.1015 9.9649 27.8543 10.0885 27.6971C10.1589 27.6077 10.2164 27.5082 10.2164 27.4758C10.2164 27.4434 10.3403 27.2568 10.4918 27.0611C11.0392 26.3536 11.4445 25.7614 11.7074 25.2849C11.8549 25.0177 12.0581 24.7116 12.1588 24.6047C12.2596 24.4978 12.5036 24.1918 12.7011 23.9246C12.8986 23.6574 13.0842 23.4096 13.1136 23.3739C13.3074 23.1393 13.7802 22.4914 13.7802 22.4605C13.7802 22.4399 13.8502 22.3455 13.9359 22.2507C14.0215 22.1559 14.2621 21.8828 14.4704 21.6437C14.6788 21.4047 15.0534 20.9806 15.3029 20.7015C15.5523 20.4223 15.8731 20.0522 16.0156 19.879C16.5005 19.2896 16.6635 19.0987 16.7372 19.0339C16.7777 18.9983 17.1411 18.5902 17.5448 18.127C17.9485 17.6638 18.4839 17.0779 18.7347 16.825C18.9854 16.5721 19.4496 16.0911 19.7662 15.7562C20.0829 15.4213 20.5085 14.9723 20.7122 14.7586C21.0802 14.3722 21.8073 13.697 22.5703 13.0331C22.7898 12.842 23.3875 12.3215 23.8986 11.8764C24.4097 11.4312 25.0498 10.8482 25.3211 10.5808C25.8736 10.0362 25.8985 10.0151 26.4648 9.60861C26.688 9.44841 27.1691 9.08313 27.5339 8.79701C27.8987 8.51083 28.27 8.24026 28.3591 8.19576C28.4482 8.15119 28.6733 8.02098 28.8593 7.90633C29.0452 7.79167 29.4097 7.57013 29.6692 7.41402C30.5959 6.85642 31.2539 6.393 32.0201 5.75838C32.4477 5.40418 32.8073 5.09079 32.8192 5.06196C32.8311 5.0332 32.877 5.00963 32.9212 5.00963C32.9654 5.00963 33.1597 4.85578 33.3531 4.66773C33.5465 4.47969 33.8141 4.25867 33.9478 4.17653C34.2116 4.01459 34.3174 3.7696 34.19 3.61608C34.0366 3.43121 33.8155 3.49598 33.1864 3.91004C32.9726 4.0508 32.6551 4.24642 32.4808 4.34488C32.0987 4.56072 32.106 4.55625 31.3382 5.04078C31.0004 5.2539 30.5346 5.55693 30.303 5.71427C29.1098 6.52451 28.4172 7.00463 28.0557 7.27196C27.8353 7.43494 27.5745 7.62662 27.4762 7.69787C27.3778 7.76913 27.0187 8.04547 26.6781 8.31203C26.3375 8.57852 26.0297 8.81846 25.9941 8.84515C25.7586 9.02141 22.6253 11.6828 22.0543 12.1915C21.0671 13.0713 18.3841 15.8128 17.4184 16.9286C16.9714 17.4452 16.5603 17.9145 16.505 17.9716C16.4497 18.0286 16.3169 18.1846 16.21 18.3182C16.1031 18.4519 15.9749 18.6041 15.9252 18.6566C15.6873 18.9076 14.0325 20.9674 13.2294 22.012C13.0869 22.1975 12.7807 22.5933 12.5491 22.8918C12.3174 23.1902 12.0842 23.4981 12.0307 23.5761C11.9014 23.7647 11.1694 24.7255 11.1236 24.7667C11.0721 24.813 9.96412 26.3128 9.47265 27.0015C9.24379 27.3221 9.02686 27.6187 8.99058 27.6605C8.87991 27.7881 7.47417 29.9788 7.27221 30.3385C7.23443 30.4058 7.07224 30.6847 6.91188 30.9582L6.6203 31.4555L6.59995 30.4592C6.57844 29.4077 6.65257 28.8445 6.83782 28.6519C6.89639 28.591 7.06291 28.4673 7.20799 28.3771C7.60654 28.129 8.02506 27.6799 8.22398 27.2869C8.3837 26.9713 8.40217 26.8664 8.40217 26.2735C8.40217 25.6505 8.41493 25.5867 8.62266 25.1732C8.96154 24.4986 9.1698 24.1117 9.239 24.0284C9.2736 23.9867 9.52345 23.5173 9.79417 22.9854C10.0649 22.4534 10.3238 21.9734 10.3696 21.9187C10.4936 21.7706 11.2532 20.5618 11.2532 20.5127C11.2532 20.3392 11.9645 19.3989 12.6426 18.6761C12.8941 18.4081 13.2748 17.9978 13.4886 17.7645C13.7024 17.5312 14.1835 17.0901 14.5577 16.7842C15.3586 16.1295 16.0293 15.4472 16.4692 14.8396C16.6433 14.599 16.8035 14.4023 16.8253 14.4023C16.8471 14.4023 17.082 14.1367 17.3474 13.8121C18.4693 12.4398 18.8677 11.9638 19.0244 11.8078C19.1158 11.7168 19.554 11.254 19.9982 10.7793C20.4424 10.3047 20.9587 9.8034 21.1456 9.66536C21.4831 9.41609 23.7614 7.49363 23.8235 7.40573C23.9124 7.27974 25.2538 6.14957 25.5685 5.93555C25.7669 5.80049 26.0998 5.5588 26.3083 5.39841C27.1822 4.7259 27.9991 4.19422 28.8303 3.75678C29.2142 3.5548 29.5787 3.36079 29.6403 3.32574C29.8274 3.21912 30.7538 2.87198 30.8511 2.87198C30.9012 2.87198 31.2536 2.71166 31.6342 2.51571C32.0147 2.31976 32.3538 2.15943 32.3877 2.15943C32.4215 2.15943 32.6005 2.08895 32.7854 2.0028C33.4215 1.70651 33.9368 1.50803 34.7269 1.25482C35.5644 0.986448 35.9679 0.834411 36.6529 0.529246C37.1178 0.322088 37.4649 0.312504 38.2451 0.485265ZM31.4693 5.74666C31.4693 5.76007 31.4183 5.81112 31.3559 5.86002C31.2531 5.94054 31.2509 5.93827 31.3314 5.83554C31.4161 5.72762 31.4693 5.69335 31.4693 5.74666ZM30.8189 6.23773C30.6955 6.34319 30.5668 6.43064 30.533 6.43206C30.4634 6.43504 30.5015 6.39735 30.7815 6.18669C31.0548 5.98109 31.0796 6.01496 30.8189 6.23773ZM30.3642 6.53616C30.3179 6.59193 30.1904 6.68275 30.0809 6.73788C29.8672 6.84554 29.9005 6.79942 30.1983 6.57535C30.4186 6.40965 30.4816 6.39475 30.3642 6.53616ZM9.58332 27.9569C9.52002 28.0727 9.26486 28.4706 9.01624 28.8411C8.04619 30.2865 8.05428 30.2736 7.70426 30.9205C7.61756 31.0808 7.5249 31.2266 7.49847 31.2444C7.47203 31.2622 7.3002 31.5828 7.11663 31.9569C6.933 32.331 6.67972 32.812 6.55369 33.0258C6.42773 33.2395 6.29632 33.482 6.26179 33.5646C6.22725 33.6472 6.12611 33.8103 6.03708 33.927C5.94798 34.0437 5.87515 34.1693 5.87515 34.2061C5.87515 34.2429 5.82695 34.3131 5.76805 34.3619C5.67487 34.4392 6.42468 32.9283 6.94544 31.9893C7.04425 31.8112 7.17307 31.578 7.23171 31.4711C7.34141 31.2711 7.41164 31.1596 8.0364 30.1923C8.23759 29.881 8.40217 29.6132 8.40217 29.5972C8.40217 29.546 9.63865 27.7464 9.6739 27.7464C9.68732 27.7464 9.64656 27.8412 9.58332 27.9569ZM4.29641 37.4176C4.20777 37.6112 4.10112 37.8974 4.0594 38.0536C4.0176 38.2097 3.96097 38.3666 3.93356 38.4023C3.88173 38.4696 3.7349 38.8574 3.28366 40.1189C2.93779 41.0859 2.91025 41.1683 2.75377 41.7059C2.6812 41.9553 2.5647 42.3051 2.49498 42.4832C2.42526 42.6614 2.34115 42.9479 2.3081 43.12C2.25283 43.4077 2.01063 43.8559 1.94558 43.7909C1.93035 43.7757 1.97324 43.621 2.04095 43.4471C2.1086 43.2732 2.19925 42.9707 2.24227 42.7747C2.35327 42.2694 2.61005 41.4876 2.91258 40.7342C3.05558 40.378 3.25198 39.8678 3.34904 39.6006C3.44604 39.3334 3.61444 38.8816 3.72337 38.5966C3.83222 38.3116 3.95604 37.9763 3.99848 37.8517C4.04099 37.727 4.11544 37.5521 4.16404 37.463C4.21264 37.3739 4.28727 37.2144 4.32997 37.1085C4.37268 37.0026 4.41881 36.9495 4.43255 36.9907C4.44628 37.0318 4.38499 37.2239 4.29641 37.4176ZM19.6442 37.0566C19.1256 37.1072 18.0013 37.4006 17.5919 37.5922C16.9445 37.8951 16.8236 38.056 16.7516 38.712C16.7129 39.0633 16.7144 39.361 16.7555 39.5433C16.8177 39.8189 16.8123 39.8351 16.5753 40.0865C16.0834 40.6082 16.0459 41.1079 16.4884 41.2483C16.6024 41.2845 16.6275 41.3277 16.597 41.4358C16.5275 41.6831 16.288 42.2863 16.2283 42.3645C16.1593 42.455 15.7609 43.3886 15.5972 43.8435C15.5331 44.0217 15.4352 44.2694 15.3796 44.3941C15.324 44.5188 15.1892 44.924 15.0801 45.2945C14.922 45.8314 14.8817 46.0891 14.8817 46.5641C14.8817 47.1237 14.896 47.1873 15.1165 47.607C15.2457 47.8529 15.4279 48.1191 15.5215 48.1986C15.8057 48.4401 16.5387 48.9286 16.6169 48.9286C16.6572 48.9286 16.9466 48.9983 17.26 49.0836C18.3149 49.3705 19.8195 49.4829 21.1992 49.3779C22.554 49.2747 22.8816 49.2101 23.4872 48.9267C24.1238 48.6288 24.4511 48.3441 24.7507 47.8273L24.9574 47.4711L24.9541 46.3051C24.9511 45.2413 24.9379 45.1079 24.8026 44.7828C24.6209 44.3462 24.2122 43.013 24.2122 42.8564C24.2121 42.7937 24.113 42.4367 23.992 42.0632L23.7719 41.3841L23.9668 41.1622C24.1349 40.9707 24.157 40.9038 24.1269 40.6753C24.0993 40.4653 24.0305 40.3544 23.7958 40.1408L23.4995 39.8711V39.3834C23.4995 39.1152 23.5286 38.8777 23.5643 38.8557C23.5999 38.8337 23.6291 38.6583 23.6291 38.466C23.6291 38.1479 23.6097 38.1009 23.4148 37.9453C23.1768 37.7555 22.4753 37.4651 21.7823 37.2694C21.3732 37.1539 20.245 36.997 20.0005 37.0215C19.9471 37.0269 19.7867 37.0427 19.6442 37.0566ZM21.7357 37.7208C22.0308 37.7981 22.4682 37.9414 22.7077 38.0394C23.4471 38.3418 23.3127 38.5476 22.1455 38.9003C21.3673 39.1355 20.306 39.2387 19.223 39.1846C18.4484 39.1459 18.3899 39.1328 17.8837 38.886C17.5925 38.744 17.3419 38.5917 17.3266 38.5475C17.152 38.0422 18.8316 37.5036 20.4217 37.5551C20.9395 37.5719 21.3785 37.6272 21.7357 37.7208ZM17.391 39.1848C17.7006 39.3661 18.6987 39.6306 19.3202 39.696C19.5531 39.7205 19.9928 39.6966 20.4168 39.6363C20.8061 39.5811 21.2581 39.5359 21.4212 39.5359C21.6835 39.5359 22.9317 39.2254 23.1084 39.1162C23.1978 39.061 23.1947 39.3844 23.101 39.8926C23.0055 40.4109 22.9116 40.4681 21.8676 40.6451C21.4287 40.7195 21.0419 40.8065 21.0081 40.8383C20.868 40.9701 21.1054 41.0422 21.6442 41.0316C22.6358 41.0121 23.3596 40.7243 23.3695 40.3456L23.3746 40.1512L23.5327 40.3448C23.6197 40.4512 23.7262 40.6235 23.7694 40.7277C23.8423 40.9038 23.8336 40.9289 23.6457 41.0848C23.4219 41.2705 22.8627 41.5004 22.3656 41.611C21.802 41.7364 19.7434 41.6956 18.9962 41.5442C18.6398 41.472 18.1283 41.3713 17.8595 41.3203C17.2729 41.2091 16.7461 41.0378 16.6807 40.9371C16.6006 40.8136 16.6254 40.6795 16.7724 40.4427C16.913 40.2162 16.9132 40.2162 16.9531 40.3774C17.0356 40.7101 17.8658 40.9966 18.8855 41.0443C19.3414 41.0656 19.4199 41.0544 19.4037 40.9704C19.3898 40.8979 19.1494 40.8254 18.51 40.7009C18.0291 40.6071 17.5761 40.4984 17.5036 40.4594C17.4088 40.4083 17.322 40.2092 17.1951 39.7516C17.0979 39.4013 17.0188 39.0929 17.0192 39.0662C17.0204 38.9865 17.091 39.009 17.391 39.1848ZM18.704 41.8053C20.1317 42.0614 20.9471 42.1056 21.821 41.9745C22.5618 41.8632 23.1535 41.7246 23.3613 41.6133C23.4814 41.5491 23.4945 41.5676 23.5302 41.8515C23.7136 43.3111 23.9998 44.4435 24.4137 45.3476C24.5841 45.7198 24.6994 46.6415 24.6375 47.1368C24.5737 47.6478 24.1052 48.3231 23.7263 48.4505C23.655 48.4745 23.4806 48.5673 23.3387 48.6567C23.0197 48.858 22.7693 48.917 21.7824 49.0227C20.8594 49.1217 18.8644 49.1102 18.4294 49.0036C18.2602 48.962 17.9252 48.9002 17.6851 48.8662C17.4449 48.8322 17.0439 48.7255 16.794 48.6292C16.4308 48.489 16.2977 48.3978 16.1311 48.1746C15.7328 47.6409 15.4674 47.0373 15.4659 46.6613C15.4645 46.3101 15.6323 45.5945 15.8915 44.8476C16.5908 42.8315 16.8256 42.0188 16.8256 41.6137V41.3615L17.2305 41.4876C17.4533 41.557 18.1163 41.6999 18.704 41.8053Z" fill="black"/>
</svg>
