<svg width="34" height="25" viewBox="0 0 34 25" fill="none" xmlns="http://www.w3.org/2000/svg">
<path fill-rule="evenodd" clip-rule="evenodd" d="M2.32409 0.287755C2.32409 0.38473 2.44677 0.631178 2.71544 1.07386C2.93068 1.42854 3.21931 1.95452 3.35679 2.24275C3.74663 3.05998 3.79747 3.15509 3.90958 3.27754C3.96734 3.34056 4.00834 3.39584 4.00068 3.40035C3.84093 3.49409 3.61266 3.71156 3.3946 3.97764C3.24427 4.16111 2.87392 4.5687 2.57163 4.88337C1.7765 5.71103 1.50413 6.02898 1.50413 6.12937C1.50413 6.19258 1.52705 6.21117 1.58385 6.19408C1.62767 6.18091 1.88145 6.1075 2.14776 6.03094C2.88759 5.81835 2.98152 5.78057 5.08007 4.85211C6.28067 4.32089 6.08725 4.33902 6.82112 4.68887C7.62094 5.07017 8.22444 5.34582 9.86089 6.07751C10.5862 6.4018 11.2012 6.6837 11.2275 6.70393C11.3352 6.78683 12.3483 7.2321 12.7096 7.35533C13.2957 7.55525 14.4185 7.87607 14.8264 7.96019C15.9811 8.19835 16.7438 8.27121 18.2974 8.29186C19.1358 8.30302 20.1197 8.29036 20.5093 8.26338C21.336 8.20614 22.9655 8.01356 23.4836 7.91189C25.2796 7.55939 27.1063 6.89173 28.2294 6.17727C28.7203 5.86497 29.4739 5.15985 29.4739 5.01279C29.4739 4.95455 29.3955 4.84641 29.2803 4.74575C29.1738 4.65269 28.9329 4.44174 28.745 4.27696C28.3817 3.95837 27.0524 3.04781 26.5585 2.77922C26.3956 2.69067 25.8729 2.45334 25.3969 2.25178C23.4814 1.44084 22.6076 1.22465 20.2038 0.9669C17.6438 0.692335 16.1934 0.692244 14.0769 0.96649C11.7197 1.27191 11.1045 1.41117 8.83626 2.15257C8.07101 2.40266 7.42948 2.60732 7.41062 2.60732C7.39177 2.60732 7.15147 2.69163 6.8766 2.79471L6.37684 2.9821L6.13126 2.83322C5.99619 2.75133 5.60425 2.45151 5.26028 2.16701C4.31113 1.38196 3.56702 0.850421 2.95045 0.517114C2.70619 0.385049 2.50631 0.247607 2.50631 0.211742C2.50631 0.175832 2.46531 0.146484 2.4152 0.146484C2.34368 0.146484 2.32409 0.17688 2.32409 0.287755ZM3.82735 1.59236C4.06537 1.76713 4.4856 2.09046 4.7612 2.31079C5.37052 2.79804 5.77002 3.05948 6.11477 3.1966C6.34818 3.28943 6.39993 3.29476 6.61586 3.24819C6.91532 3.18361 7.55084 3.03127 7.68791 2.99121C7.78184 2.96378 7.78803 2.97285 7.76252 3.10031C7.73897 3.21816 7.76061 3.26582 7.90479 3.4132C8.08878 3.60136 8.22334 3.78556 8.19523 3.81076C8.18558 3.81947 8.0906 3.87046 7.98414 3.92419C7.74385 4.04541 7.54428 4.32945 7.57111 4.51215L7.59015 4.64193L7.24367 4.49574C7.05308 4.41536 6.79579 4.29842 6.67193 4.23599C6.33862 4.06792 6.21594 4.05685 5.75248 4.15314C5.3856 4.22933 5.18402 4.31633 4.18089 4.83142C3.01755 5.42872 2.59814 5.62326 2.24233 5.73058L2.04667 5.7896L2.2651 5.59988C2.38523 5.49553 2.63108 5.27164 2.81142 5.10243C3.00143 4.92411 3.17959 4.79473 3.23507 4.79473C3.37141 4.79473 4.88073 4.10388 4.90979 4.02818C4.94446 3.93777 4.83335 3.88509 4.67223 3.91553C4.59588 3.92998 4.30995 4.03146 4.03681 4.14106C3.76362 4.25066 3.52902 4.32923 3.5155 4.31565C3.48128 4.28147 4.05193 3.70759 4.19178 3.6355C4.27819 3.59097 4.39354 3.58692 4.67009 3.61882C5.36419 3.69884 5.82728 3.63244 5.77366 3.46064C5.76756 3.44123 5.49461 3.4173 5.16703 3.4075C4.37281 3.38372 4.22485 3.3412 4.08209 3.09575C4.02059 2.99003 3.92812 2.79576 3.8766 2.66397L3.78289 2.42445L4.09972 2.58408C4.74612 2.90969 5.33093 3.04485 5.33048 2.86849C5.33039 2.83764 5.18174 2.75288 5.00021 2.6801C4.81864 2.60732 4.51393 2.47052 4.32307 2.3761C4.1322 2.28172 3.89322 2.17964 3.79205 2.14929C3.64268 2.10454 3.59225 2.05906 3.52411 1.90772C3.47791 1.80518 3.33255 1.539 3.201 1.31625C3.06944 1.0935 2.96184 0.898908 2.96184 0.883779C2.96184 0.868649 3.05923 0.950358 3.17822 1.06543C3.2972 1.18045 3.58934 1.41755 3.82735 1.59236ZM16.6506 1.4927C16.9057 1.82072 17.0087 2.06425 16.9689 2.24553C16.9383 2.38489 16.7132 2.52056 16.1818 2.71997C15.7108 2.8967 15.4431 3.08869 15.3068 3.34772C15.2009 3.54891 15.1977 3.57284 15.2616 3.6895C15.3078 3.77403 15.4753 3.88997 15.7748 4.04486C16.3073 4.32016 16.4167 4.4164 16.377 4.57463C16.3613 4.63715 16.2256 4.8507 16.0756 5.04916C15.7442 5.48723 15.6257 5.70602 15.6257 5.87955C15.6257 6.04411 15.7131 6.12368 16.0584 6.27338C16.3574 6.40303 16.5549 6.62637 16.5289 6.80551C16.5202 6.8658 16.4095 6.99149 16.2634 7.10683C16.1256 7.21565 15.9219 7.38559 15.8106 7.48438L15.6083 7.66403L15.1809 7.57671C14.5981 7.45759 13.3936 7.11667 13.3936 7.07087C13.3936 7.05037 13.4744 6.9759 13.5731 6.90536C14.0397 6.5721 13.9008 6.11465 13.2455 5.82637C13.1006 5.76266 12.9836 5.68173 12.9836 5.64532C12.9836 5.55481 13.3532 5.05987 13.4884 4.96932C13.7183 4.81533 13.8946 4.6022 13.8946 4.47829C13.8946 4.32462 13.7666 4.20454 13.4284 4.04103C13.2847 3.97158 13.1359 3.88026 13.0978 3.83806C13.0355 3.7692 13.0366 3.75202 13.1085 3.66913C13.1525 3.61836 13.3673 3.46155 13.5857 3.32065C14.126 2.97203 14.2502 2.75579 14.1071 2.41324C14.0239 2.21391 13.7143 1.86939 13.4986 1.736C13.4121 1.6825 13.3584 1.62171 13.3792 1.60084C13.456 1.52405 13.9841 1.42366 14.7829 1.33393C15.7637 1.22383 15.8992 1.21143 16.1951 1.20492L16.4228 1.19986L16.6506 1.4927ZM19.2615 1.30326C19.5699 1.33862 19.8302 1.37535 19.8398 1.38488C19.8493 1.39445 19.6276 1.55951 19.3471 1.75168C18.715 2.18479 18.3371 2.51878 18.2205 2.74741C18.0593 3.06358 18.1128 3.16297 18.6219 3.49245C18.9595 3.71092 19.2087 3.96935 19.2544 4.14835C19.2768 4.23622 19.2052 4.33155 18.826 4.71799C18.2112 5.34473 18.0533 5.67148 18.2703 5.86798C18.3218 5.9146 18.5195 6.03568 18.7096 6.13708C19.0777 6.3333 19.2079 6.46587 19.2487 6.68593C19.2714 6.80838 19.2252 6.87897 18.8051 7.36339L18.3361 7.90419L17.7439 7.87789C17.4182 7.86345 16.94 7.82722 16.6812 7.79741L16.2108 7.74318L16.4825 7.4739C16.8224 7.13695 16.9376 6.87346 16.8593 6.61179C16.7828 6.35645 16.5743 6.14223 16.2618 5.99795C16.1124 5.92891 15.9901 5.84752 15.9901 5.81708C15.9901 5.78663 16.083 5.63552 16.1965 5.48122C16.4402 5.15019 16.6625 4.73572 16.6993 4.54409C16.74 4.3321 16.5709 4.13509 16.104 3.85068C15.8785 3.71333 15.6837 3.59088 15.6712 3.57853C15.6208 3.529 15.9427 3.33031 16.3974 3.1303C16.9617 2.88207 17.1607 2.74267 17.2476 2.53441C17.3955 2.18032 17.285 1.77287 16.9388 1.39541L16.7417 1.18063L17.7211 1.20984C18.2598 1.22588 18.9529 1.26794 19.2615 1.30326ZM21.5651 1.6645C21.6518 1.74443 21.7944 1.8667 21.8818 1.9362C21.982 2.01581 22.0676 2.14113 22.1131 2.2747C22.2321 2.624 22.2159 2.67431 21.92 2.87533C21.569 3.1138 21.3654 3.3494 21.3654 3.51719C21.3654 3.63044 21.4174 3.68585 21.7317 3.90742C21.9332 4.04946 22.1289 4.21297 22.1668 4.2708C22.2759 4.43737 22.1636 4.62398 21.6594 5.11373C21.2268 5.53394 21.047 5.75829 21.0467 5.87832C21.0466 5.91036 21.1573 6.03969 21.2926 6.16569C21.7164 6.56034 21.7249 6.74654 21.3399 7.21009C21.2254 7.3479 21.0917 7.53757 21.0427 7.63153C20.968 7.77476 20.9298 7.80261 20.8064 7.80352C20.7255 7.80411 20.2916 7.82416 19.8421 7.84804C19.3926 7.87192 19.0182 7.88473 19.0099 7.87652C19.0017 7.86828 19.1108 7.72026 19.2523 7.54755C19.5888 7.13681 19.7016 6.90436 19.6618 6.7033C19.6064 6.42326 19.4098 6.2104 18.9543 5.93752C18.7181 5.79602 18.5179 5.65935 18.5094 5.63383C18.484 5.55755 18.7462 5.19685 19.0889 4.83671C19.2659 4.65068 19.4428 4.43878 19.482 4.36577C19.6348 4.08109 19.4448 3.64776 19.0367 3.35068C18.927 3.27079 18.767 3.14561 18.6812 3.07247L18.5252 2.93949L18.7723 2.70521C18.9082 2.57633 19.2446 2.29138 19.52 2.072C19.7953 1.85262 20.0611 1.61105 20.1105 1.53517L20.2004 1.39723L20.8039 1.4582C21.3814 1.51653 21.4142 1.52542 21.5651 1.6645ZM12.9836 1.67357C12.9836 1.73646 13.0275 1.82364 13.0812 1.86725C13.4943 2.20288 13.758 2.50242 13.758 2.63608C13.758 2.66944 13.5564 2.82761 13.3101 2.98752C12.8513 3.28533 12.6917 3.46369 12.6364 3.7399C12.6176 3.83432 12.6324 3.9195 12.6804 3.99282C12.757 4.1098 13.3487 4.43017 13.4881 4.43017C13.6242 4.43017 13.6283 4.50627 13.4968 4.59244C13.0432 4.8898 12.6485 5.43947 12.6733 5.73938C12.6868 5.90362 12.7021 5.91829 13.0164 6.07072C13.304 6.21022 13.4785 6.34843 13.4832 6.44062C13.484 6.45612 13.4018 6.52356 13.3006 6.5906C13.1994 6.65759 13.0927 6.76486 13.0635 6.82894C13.018 6.92887 12.9889 6.942 12.8593 6.92094C12.7761 6.90741 12.3549 6.72932 11.9234 6.52516C11.4918 6.321 10.9735 6.08262 10.7716 5.99535L10.4047 5.83676L10.2763 5.54205C10.1566 5.26717 10.153 5.24179 10.2228 5.16463C10.2639 5.11911 10.4423 5.02514 10.6191 4.95574C11.13 4.75522 11.1406 4.58688 10.6743 4.08323C10.5609 3.96074 10.4382 3.81587 10.4017 3.76127C10.3218 3.64192 10.3398 3.62948 10.8171 3.47267C11.3186 3.30793 11.4382 3.13112 11.3466 2.68962C11.3011 2.47052 11.2416 2.34698 11.0606 2.09592C11.0238 2.04484 11.0196 2.002 11.0486 1.97334C11.0872 1.93515 12.3949 1.64714 12.7786 1.59236C12.8537 1.58161 12.9306 1.56976 12.9494 1.56602C12.9682 1.56224 12.9836 1.61064 12.9836 1.67357ZM22.6213 1.74211C23.2046 1.86219 24.1897 2.15284 24.1897 2.20488C24.1897 2.22731 24.1585 2.32032 24.1204 2.4115C23.9895 2.72499 23.784 3.49673 23.686 4.04281C23.5108 5.01976 23.6181 6.67121 23.8927 7.22185C23.9308 7.29823 23.9619 7.36512 23.9619 7.37055C23.9619 7.37592 23.8953 7.39178 23.8139 7.40577C23.7324 7.41977 23.4813 7.46297 23.2558 7.50184C22.8442 7.57279 21.709 7.71128 21.5392 7.71128C21.4548 7.71128 21.4569 7.70112 21.5691 7.56778C21.7757 7.32211 21.9713 6.88699 21.9685 6.67937C21.9655 6.45525 21.9147 6.34716 21.6788 6.06257C21.5816 5.94527 21.502 5.83649 21.502 5.82086C21.502 5.80523 21.6879 5.59729 21.915 5.35881C22.6545 4.58228 22.683 4.2626 22.0547 3.79659C21.876 3.66412 21.7298 3.5377 21.7298 3.51574C21.7298 3.49377 21.8771 3.37779 22.0572 3.25803C22.4676 2.98502 22.571 2.84921 22.5627 2.59411C22.5535 2.31293 22.3856 1.90152 22.2248 1.76617C22.0593 1.62677 22.0605 1.62668 22.6213 1.74211ZM10.7848 2.37158C10.8658 2.5407 10.9448 2.74258 10.9603 2.82018C10.9883 2.96032 10.9862 2.96214 10.6764 3.06299C10.2678 3.19596 10.1789 3.25594 10.0678 3.47377C9.93423 3.7358 9.98275 3.84964 10.3975 4.24706L10.7579 4.59244L10.4399 4.69489C10.1937 4.77423 10.0838 4.83958 9.95282 4.98463C9.7953 5.15908 9.78541 5.18678 9.80919 5.3878L9.83475 5.60367L9.30232 5.3769C9.0095 5.25222 8.61533 5.08689 8.42646 5.00951C8.1649 4.90242 8.04869 4.82481 7.93904 4.68418L7.79509 4.49952L7.89349 4.39471C7.94761 4.33706 8.0747 4.26884 8.17592 4.2431C8.46067 4.17068 8.61045 4.01561 8.61045 3.79336C8.61045 3.66831 8.46787 3.39183 8.32292 3.23575L8.20817 3.11225L8.38278 2.95444C8.4788 2.86762 8.61114 2.7614 8.67678 2.71838C8.77153 2.65627 10.5255 2.06421 10.6148 2.06416C10.6273 2.06416 10.7039 2.20251 10.7848 2.37158ZM25.2488 2.58718C25.6559 2.75155 26.1823 2.98907 26.4186 3.11498C26.8902 3.36645 27.7931 3.94315 28.2212 4.26647C28.3715 4.37999 28.6529 4.58119 28.8465 4.71357C29.0401 4.84591 29.1975 4.96449 29.1961 4.97702C29.1905 5.03161 28.453 5.63306 28.2124 5.7793C27.5694 6.17011 26.5238 6.62396 25.5836 6.92031C25.121 7.06609 24.29 7.30073 24.2352 7.30101C24.2227 7.3011 24.2104 7.23447 24.2079 7.15304C24.2054 7.0716 24.1582 6.79986 24.103 6.54922C23.9609 5.90279 23.9252 4.76571 24.0258 4.08838C24.1291 3.39283 24.4158 2.28833 24.4931 2.28833C24.5016 2.28833 24.8417 2.42281 25.2488 2.58718ZM26.4172 3.85068C26.2087 3.99077 25.9663 4.40187 25.9663 4.61509C25.9663 5.07235 26.5946 5.44553 27.0049 5.23199C27.4009 5.02587 27.6528 4.32822 27.4407 4.02522C27.2542 3.7589 26.6954 3.66361 26.4172 3.85068ZM27.0355 4.29136C27.0882 4.37662 27.0063 4.56688 26.917 4.56688C26.7977 4.56688 26.6966 4.34923 26.7888 4.2909C26.875 4.23635 27.0017 4.23663 27.0355 4.29136ZM18.3361 15.5964C17.4862 15.6576 16.2876 15.8289 15.6029 15.9869C13.9411 16.3705 11.9296 17.1385 9.40764 18.3523C8.20854 18.9294 6.98989 19.464 6.75666 19.5151C6.63626 19.5415 6.50466 19.5731 6.46421 19.5853C6.41911 19.599 6.21089 19.4666 5.926 19.2433C5.11086 18.6042 4.34079 18.1844 3.50465 17.9234C2.11405 17.4892 1.84852 17.4151 1.4573 17.3516C0.818055 17.2479 0.547514 17.2616 0.547514 17.3977C0.547514 17.4314 0.574937 17.4753 0.608509 17.4954C0.642037 17.5154 0.68964 17.5689 0.714239 17.6142C0.790723 17.7548 1.27177 18.2231 1.56554 18.4429C3.04807 19.5522 3.3065 19.7125 3.86812 19.8707L4.15948 19.9527L3.84535 20.0539C3.33547 20.2182 2.64233 20.5899 2.13632 20.9704C1.57638 21.3914 0.612791 22.3656 0.414999 22.7107C0.270595 22.9626 0.23602 23.1396 0.32535 23.1694C0.441648 23.2081 1.96081 22.9664 2.30132 22.8549C2.82554 22.6833 3.55408 22.3719 4.05448 22.1055C4.77195 21.7236 5.90258 20.8904 6.24209 20.4935L6.39989 20.309L7.85823 20.9986C8.66029 21.3779 9.55227 21.8125 9.84039 21.9645C10.3627 22.2401 11.0431 22.5512 12.2092 23.0475C13.5765 23.6294 14.2167 23.8524 15.3979 24.1582C16.6599 24.4848 17.0799 24.5619 18.9511 24.8107C20.0133 24.952 20.1375 24.9592 21.5248 24.9588C24.0052 24.9583 24.9489 24.7913 27.1734 23.9594C28.1413 23.5975 28.4704 23.4493 29.2146 23.0406C30.0937 22.5577 30.5963 22.21 31.1594 21.695C31.7776 21.1296 32.0911 20.7571 32.4962 20.1066C32.66 19.8434 32.8577 19.5478 32.9355 19.4497C33.0133 19.3515 33.0709 19.237 33.0634 19.1952C33.0425 19.0784 30.298 17.7017 29.2403 17.2775C26.9505 16.3591 24.4589 15.7967 22.0031 15.6439C20.9389 15.5777 18.9529 15.552 18.3361 15.5964ZM21.7298 16.0993C23.4779 16.2037 25.0732 16.4787 26.906 16.9916L27.1852 17.0698L27.0768 17.3885C27.0172 17.5638 26.9684 17.7461 26.9684 17.7936C26.9684 17.854 26.9446 17.8729 26.8887 17.857C26.8076 17.8337 26.0203 17.7781 24.5086 17.6889C24.0451 17.6615 23.2251 17.6126 22.6864 17.58C21.4595 17.506 20.6299 17.4861 18.8144 17.4871C17.2251 17.4879 16.289 17.5517 15.4662 17.715C15.1656 17.7747 14.6326 17.8773 14.2818 17.943C13.2918 18.1285 11.2003 18.6579 10.2276 18.9692C9.6621 19.1501 7.70103 19.652 7.56915 19.6495C7.52802 19.6487 7.69939 19.5695 7.94993 19.4735C8.20047 19.3774 8.92855 19.0519 9.56785 18.7501C10.5825 18.2712 11.1722 18.0102 12.5508 17.43C13.0685 17.212 14.6675 16.6991 15.3566 16.5298C16.3239 16.2922 17.4181 16.1343 18.7916 16.0342C19.1308 16.0095 20.8718 16.048 21.7298 16.0993ZM28.6767 17.5796C29.7174 17.9682 29.9531 18.0669 30.522 18.3523C30.7891 18.4863 31.2314 18.6904 31.5049 18.8057C31.7783 18.9211 32.0431 19.0354 32.0932 19.0597C32.1433 19.084 32.2614 19.1299 32.3557 19.1618L32.5271 19.2197L32.111 19.8568C31.7632 20.3895 31.5894 20.5993 31.0513 21.1362C30.6294 21.5572 30.2665 21.8722 29.9977 22.0505C29.3141 22.5042 28.2916 23.0687 28.1535 23.0687C28.1184 23.0687 27.8795 22.5651 27.8795 22.4912C27.8795 22.468 27.7869 22.163 27.6738 21.8133C27.4183 21.0237 27.1958 19.8321 27.1977 19.2636C27.1998 18.6164 27.2726 17.7872 27.3563 17.4559L27.4331 17.1522L27.6677 17.2213C27.7967 17.2593 28.2508 17.4206 28.6767 17.5796ZM2.27854 18.0004C2.59172 18.1019 3.05477 18.2479 3.30754 18.3248C3.88502 18.5006 4.83741 18.9781 5.49779 19.4231C5.77681 19.611 6.00193 19.7662 5.99811 19.7678C5.99428 19.7695 5.76565 19.756 5.49005 19.7379C4.90164 19.6992 4.03517 19.4893 3.61148 19.2829C3.45514 19.2067 3.1021 18.9823 2.82691 18.7843C2.55172 18.5862 2.11232 18.2804 1.85052 18.1047C1.13588 17.625 1.12691 17.6272 2.27854 18.0004ZM21.942 17.9643C22.6975 17.9893 23.62 18.0299 23.9919 18.0546C24.3637 18.0793 25.1695 18.1214 25.7826 18.1484C26.3956 18.1753 26.9039 18.204 26.9121 18.2123C26.9204 18.2205 26.9057 18.3983 26.8794 18.6075C26.8532 18.8166 26.8318 19.1671 26.8318 19.3863V19.7849L24.5883 19.7881C23.3544 19.7899 21.5658 19.7956 20.6138 19.8008C19.6617 19.8061 18.442 19.7853 17.9033 19.7546C16.4611 19.6725 13.0528 19.5902 12.345 19.6204C10.7574 19.6882 9.8173 19.7402 9.30564 19.7885C8.99898 19.8174 8.72511 19.8335 8.69701 19.8241C8.66885 19.8147 8.90951 19.7493 9.23176 19.6787C9.55395 19.6081 10.1149 19.4618 10.4781 19.3535C12.3314 18.801 15.5109 18.1148 16.7189 18.0067C17.9875 17.8931 19.4346 17.8813 21.942 17.9643ZM29.1095 18.3607C28.8051 18.5183 28.6399 19.117 28.8177 19.4181C28.9499 19.642 29.1859 19.765 29.4798 19.7633C29.7034 19.762 29.7684 19.741 29.9157 19.6225C30.2457 19.3572 30.383 18.8273 30.18 18.6027C29.9377 18.3348 29.396 18.2124 29.1095 18.3607ZM29.7472 18.8482C29.7472 18.8799 29.6977 18.9524 29.6372 19.0093C29.528 19.1119 29.5269 19.112 29.4779 19.0205C29.4134 18.8998 29.4571 18.7944 29.5802 18.774C29.7024 18.7537 29.7472 18.7736 29.7472 18.8482ZM15.899 20.0696C17.1382 20.1087 18.8095 20.1213 20.7504 20.1065C22.3789 20.094 24.4288 20.0838 25.3057 20.0838H26.9001L27.0195 20.6763C27.0851 21.0021 27.1364 21.2707 27.1333 21.2732C27.0865 21.3117 26.1613 21.4414 25.5107 21.5006C24.8082 21.5646 24.361 21.5725 22.8231 21.548C18.9049 21.4857 18.0424 21.4372 15.7944 21.1531C15.188 21.0765 14.5278 20.9958 14.3274 20.9738C14.127 20.9518 13.471 20.8696 12.8697 20.791C11.8394 20.6563 11.4053 20.5871 9.86317 20.3121C9.51241 20.2496 9.20492 20.1965 9.17987 20.1942C9.15482 20.1918 9.19581 20.1714 9.27098 20.1487C9.34614 20.126 10.0198 20.0879 10.768 20.0639C11.5162 20.0399 12.1414 20.0068 12.1574 19.9902C12.1877 19.9587 12.7648 19.971 15.899 20.0696ZM5.8343 20.3845C5.48445 20.7108 4.6095 21.3447 4.14764 21.6065C3.65908 21.8835 2.72341 22.3103 2.25526 22.4698C1.89872 22.5913 0.92711 22.7801 0.883424 22.7364C0.841834 22.6948 2.03911 21.5561 2.43798 21.2579C2.9874 20.8472 3.9129 20.3807 4.48788 20.2246C4.82584 20.1328 5.00586 20.113 5.51283 20.112L6.1278 20.1107L5.8343 20.3845ZM8.9521 20.4513C9.48093 20.5662 10.1577 20.7057 11.2602 20.9271C11.9092 21.0574 13.5873 21.3203 14.4185 21.4218C16.9284 21.7286 18.3897 21.8678 19.4749 21.9036C19.9008 21.9177 20.9676 21.9527 21.8455 21.9815C24.5051 22.0687 26.483 21.957 27.2025 21.679C27.2621 21.656 27.3052 21.7237 27.4165 22.0153C27.5821 22.4492 27.667 22.7497 27.6334 22.7833C27.62 22.7966 27.4086 22.8577 27.1635 22.9189C25.3987 23.3598 24.1379 23.4718 21.8437 23.3916C19.4602 23.3083 18.0069 23.1914 16.9467 22.9977C15.5535 22.7432 11.7921 21.8199 10.7059 21.4658C10.0194 21.242 8.03325 20.4111 7.92715 20.3033C7.88497 20.2604 8.4471 20.3416 8.9521 20.4513ZM10.7287 21.8016C10.879 21.8503 11.6272 22.0638 12.3914 22.2759C16.6594 23.461 18.6741 23.7463 22.896 23.7636C24.5964 23.7705 26.1478 23.5982 27.3329 23.2708C27.8582 23.1256 27.8555 23.126 27.8618 23.1827C27.8686 23.2449 26.9978 23.5853 25.7841 23.995C24.5899 24.398 23.2844 24.5784 21.5489 24.5802C19.9548 24.5818 17.5667 24.2705 15.8659 23.8394C14.3819 23.4632 13.4323 23.112 11.2298 22.1245C10.7395 21.9046 10.1836 21.6204 10.3643 21.682C10.4144 21.699 10.5784 21.7529 10.7287 21.8016Z" fill="black"/>
</svg>
