<svg width="30" height="33" viewBox="0 0 30 33" fill="none" xmlns="http://www.w3.org/2000/svg">
<path fill-rule="evenodd" clip-rule="evenodd" d="M22.8555 0.865156C23.6408 0.955259 24.8332 1.43363 25.77 2.03439C26.9707 2.80445 27.4677 3.32537 28.3235 4.71076C28.8274 5.52652 29.4878 7.11462 29.5839 7.74172C29.606 7.88579 29.6681 8.20033 29.7221 8.44074C29.8617 9.06324 29.8564 10.5 29.7128 10.9621C29.5387 11.5219 29.1862 11.821 28.7004 11.821C28.4417 11.821 28.3044 11.7049 28.1147 11.3256C27.9501 10.9967 27.8798 10.7188 27.7761 9.98711C27.7262 9.63556 27.6196 9.16348 27.539 8.93805C27.4585 8.71262 27.3395 8.37086 27.2746 8.17859C26.8265 6.85055 25.8358 5.45833 24.8888 4.8261C23.7561 4.06979 22.499 3.78462 21.4195 4.03919C20.3906 4.28176 19.1552 5.54931 18.649 6.88179C18.2293 7.98633 18.0176 8.89766 18.016 9.60636C18.0148 10.1565 18.1658 11.1273 18.3462 11.7296C18.6188 12.6401 18.6801 13.0797 18.6841 14.1523C18.6876 15.1124 18.6795 15.191 18.5452 15.4927C18.2608 16.132 17.9251 16.6238 17.4638 17.0773L16.9975 17.5356L17.5333 18.0942C17.8279 18.4014 18.1262 18.7745 18.1961 18.9231C18.2659 19.0719 18.402 19.3607 18.4985 19.565C18.6707 19.9297 18.6734 19.9492 18.6436 20.6432C18.6228 21.1276 18.5649 21.5425 18.4594 21.9619C18.3749 22.2985 18.2404 22.8361 18.1606 23.1567C18.0651 23.5408 17.8888 23.9978 17.6436 24.4971C17.3164 25.1632 16.9175 26.0585 16.3842 27.3238C16.2964 27.5321 16.0378 28.076 15.8095 28.5326C15.5813 28.989 15.3945 29.372 15.3945 29.3835C15.3945 29.4033 15.0837 29.9145 14.5516 30.7699C14.0468 31.5813 13.4254 32.2776 13.2061 32.2776C12.9903 32.2776 11.7791 31.8237 11.4309 31.6124C11.2545 31.5053 11.0516 31.3998 10.9799 31.3778C10.6088 31.264 9.19484 30.5281 8.38777 30.0288C7.22157 29.3072 6.70921 28.9162 5.36879 27.7247C3.87554 26.3973 2.61603 25.0731 1.47741 23.6335C1.0491 23.0919 0.936892 22.9391 0.45997 22.2484C0.0796327 21.6974 0.0746737 21.6614 0.329397 21.2917C0.570365 20.9418 2.91441 18.5971 3.33491 18.2853C3.48255 18.1758 3.93273 17.8109 4.33528 17.4743C4.73782 17.1377 5.19405 16.763 5.3491 16.6415C5.50421 16.5201 5.85405 16.2439 6.12656 16.0279C7.75865 14.734 8.56992 14.1981 9.21588 13.9872C10.5801 13.542 11.5286 13.5708 12.4972 14.0872C12.9054 14.3048 13.5919 14.7278 13.7223 14.842C13.8513 14.955 13.8615 14.9429 14.154 14.328C14.4159 13.7774 14.4537 13.2783 14.3433 11.8246C14.2162 10.1487 14.349 8.8307 14.808 7.21684C15.4399 4.99447 15.6749 4.49454 16.7747 3.03344C17.4239 2.171 18.0766 1.66267 19.0959 1.22562C19.9621 0.854258 20.0018 0.846972 21.2526 0.830421C21.8938 0.82197 22.6151 0.83759 22.8555 0.865156ZM20.0577 1.52699C19.3553 1.77649 18.5481 2.21075 18.2019 2.52523C17.5477 3.1194 16.4995 4.61448 16.1521 5.44866C15.8822 6.09692 15.3284 8.04047 15.1168 9.08183C15.035 9.48449 15.0203 9.80632 15.0384 10.8011C15.1011 14.2496 15.0952 14.32 14.684 15.0015L14.4505 15.3887L14.6456 15.5509C14.753 15.6401 14.8996 15.7619 14.9715 15.8215C15.0434 15.8811 15.2242 16.0216 15.3732 16.1338C15.5222 16.246 15.8246 16.4903 16.0452 16.6768L16.4463 17.0157L16.6637 16.842C17.4334 16.2264 18.1319 15.0022 18.1319 14.2688C18.1319 13.8647 17.9966 12.8833 17.8466 12.1999C17.2767 9.60391 17.2409 8.89691 17.6069 7.47497C18.1154 5.49994 18.8166 4.59205 20.4692 3.76947C21.2911 3.36034 21.6179 3.28865 22.4767 3.32898C23.152 3.36069 23.6904 3.49351 24.2108 3.75676C24.2705 3.787 24.2953 3.79239 24.4105 3.83218C24.5216 3.87056 24.5211 3.90256 24.564 3.91701C24.6041 3.93053 24.6388 3.93923 24.7256 3.98165C24.8011 4.01851 24.7227 4.00656 24.9555 4.13938C25.7255 4.57841 26.2073 5.04442 26.8116 5.93466C27.178 6.4744 27.5768 7.22739 27.6913 7.59567C27.7311 7.72389 27.8559 8.06483 27.9684 8.35332C28.1203 8.7427 28.2097 9.12245 28.3152 9.82713C28.4808 10.9332 28.607 11.2965 28.8257 11.2965C29.0081 11.2965 29.2389 11.0538 29.3614 10.7333C29.5067 10.3532 29.4493 9.18312 29.2418 8.29504C28.8676 6.69366 27.8101 4.56885 26.9127 3.6152C26.2388 2.89904 24.745 2.00158 23.6828 1.67462C22.7793 1.39656 22.3371 1.33537 21.3692 1.35442C20.5964 1.36964 20.4441 1.38968 20.0577 1.52699ZM10.1493 14.2845L9.88778 14.3609L10.1777 14.6709C10.4479 14.9596 11.4456 15.7985 11.675 15.9298C11.849 16.0294 12.561 16.5251 12.6925 16.6382C12.989 16.8933 13.6528 17.3582 14.2322 17.7165C14.318 17.7696 14.5055 17.9007 14.6488 18.0079C15.4915 18.6382 17.4493 19.9804 17.5261 19.9804C17.5397 19.9804 17.6788 20.0722 17.8349 20.1843C17.9911 20.2965 18.1392 20.3883 18.1641 20.3883C18.1889 20.3883 18.1934 20.2182 18.1739 20.0103C18.1463 19.7139 18.094 19.5624 17.9324 19.3097C17.8189 19.1324 17.7261 18.9656 17.7261 18.939C17.7261 18.7779 15.8904 17.0657 15.1031 16.4924C14.8306 16.294 14.4634 16.0145 14.287 15.8713C13.3056 15.074 12.2225 14.4298 11.5474 14.2417C11.1871 14.1414 10.5747 14.1601 10.1493 14.2845ZM9.08473 14.6565C8.9966 14.7014 8.92444 14.7578 8.92444 14.7819C8.92444 14.8367 9.65881 15.6555 10.2864 16.3004C10.7164 16.7423 11.5866 17.4806 11.9555 17.7166C12.0356 17.7678 12.1705 17.872 12.2554 17.948C12.4652 18.1362 13.381 18.8529 13.9956 19.3099C14.3835 19.5983 15.4297 20.2404 15.8317 20.4368C15.992 20.515 16.1887 20.6249 16.2689 20.6808C16.349 20.7367 16.5851 20.8744 16.7935 20.9867C17.6247 21.4346 17.7578 21.509 17.8229 21.5624C17.9093 21.6333 17.9514 21.5653 18.0483 21.198L18.1242 20.9107L17.9397 20.8153C17.8382 20.7628 17.6897 20.6757 17.6095 20.6216C17.5294 20.5674 17.3509 20.4469 17.2129 20.3537C17.0748 20.2606 16.8194 20.0926 16.6453 19.9804C16.3081 19.7631 15.1514 18.9671 14.8116 18.7186C14.4179 18.4305 13.5715 17.8523 13.431 17.7754C13.353 17.7326 13.0169 17.4966 12.6841 17.2509C12.3514 17.0051 11.9447 16.7123 11.7804 16.6001C10.9312 16.02 9.85869 15.0732 9.61626 14.6893C9.48733 14.4852 9.42864 14.4816 9.08473 14.6565ZM8.2087 15.2587C8.04129 15.3865 7.78908 15.5767 7.64819 15.6813C7.39149 15.8719 6.2429 16.7674 5.93175 17.0195C5.84065 17.0934 5.69295 17.2062 5.60354 17.2703C5.51412 17.3344 5.02471 17.7393 4.51596 18.1702C3.62133 18.9279 0.880534 21.5809 0.880534 21.6892C0.880534 21.7185 0.952693 21.8274 1.04083 21.9311C1.12896 22.0348 1.34538 22.31 1.52171 22.5426C1.8722 23.0051 2.31671 23.5631 2.45433 23.7135C2.50242 23.7661 2.69916 24.0032 2.89151 24.2405C3.4051 24.8739 4.81703 26.3033 5.71853 27.1024C6.15133 27.486 6.5843 27.8698 6.68077 27.9552C7.43357 28.6223 10.088 30.3365 10.6242 30.5018C10.8065 30.5581 11.7942 31.0723 11.9977 31.2169C12.0867 31.2802 12.3633 31.4109 12.6123 31.5076C13.0431 31.6747 13.0678 31.678 13.1227 31.5755C13.1544 31.5163 13.2851 31.3469 13.4131 31.199C13.6351 30.9426 14.2232 30.0747 14.5977 29.451C14.8144 29.0903 15.6909 27.332 15.9488 26.7409C16.5111 25.4522 16.9652 24.4704 17.0946 24.2638C17.1748 24.1357 17.2559 23.9784 17.2748 23.9143C17.2937 23.8502 17.4016 23.5294 17.5146 23.2015C17.6276 22.8736 17.728 22.4818 17.7376 22.3309L17.7552 22.0567L17.2889 21.8153C16.5142 21.4144 16.0142 21.135 15.8675 21.021C15.7911 20.9615 15.6993 20.9113 15.6635 20.9094C15.604 20.9062 15.2862 20.7222 14.1923 20.0574C13.8304 19.8374 13.4841 19.5889 12.8261 19.077C12.3627 18.7164 11.2333 17.8465 11.0013 17.6714C10.4876 17.2836 9.74772 16.5009 8.80786 15.3507C8.66359 15.1742 8.5382 15.029 8.52928 15.0281C8.52031 15.0272 8.37604 15.131 8.2087 15.2587Z" fill="black"/>
</svg>
