<svg width="62" height="44" viewBox="0 0 62 44" fill="none" xmlns="http://www.w3.org/2000/svg">
<path fill-rule="evenodd" clip-rule="evenodd" d="M28.7384 0.812599C28.1584 0.85224 28.009 0.921021 27.6847 1.29755C27.5791 1.42004 27.5698 1.58253 27.6683 1.58253C27.9001 1.58253 29.9622 3.48436 31.6252 5.23189C32.5117 6.16333 33.3895 6.86868 34.0589 7.18722L34.4616 7.37885L33.7086 7.34565C32.472 7.29109 30.6093 7.62461 29.7994 8.04568C29.6862 8.10465 29.5172 8.23451 29.4239 8.33431C29.2675 8.5017 29.2621 8.53042 29.3538 8.70377C29.4086 8.80707 29.6523 9.03806 29.8956 9.217C30.7135 9.81877 31.8516 10.0739 33.7677 10.0851L35 10.0922L34.7133 10.2567C34.5557 10.3472 34.2218 10.525 33.9714 10.6518C32.902 11.1933 31.7576 12.1722 31.1888 13.0319C30.4308 14.1778 30.1565 15.0459 30.1704 16.2556C30.1867 17.6896 30.4142 18.1174 30.9093 17.6451C31.4098 17.1677 31.934 16.6182 32.6519 15.8188C33.5383 14.8317 34.2186 14.2909 35.7603 13.3473L36.2279 13.0611L35.6479 14.1675C34.6216 16.125 34.4056 16.5886 34.0884 17.5163C33.9172 18.0171 33.6648 18.7104 33.5276 19.0571C32.1306 22.5879 30.5588 27.7701 30.3341 29.5863C30.2992 29.8688 30.259 30.1114 30.2449 30.1255C30.2308 30.1396 30.0154 30.0929 29.7662 30.0218C29.5171 29.9506 28.935 29.826 28.4727 29.7449C27.4325 29.5625 25.6232 29.5422 24.7026 29.7028C24.3719 29.7604 23.8754 29.8396 23.5994 29.8788C22.2288 30.0731 19.664 31.156 18.0007 32.2424C16.5418 33.1954 14.1011 35.3123 13.5745 36.0816C13.3869 36.3556 13.0912 36.4291 12.4215 36.3681C12.1961 36.3476 11.5073 36.2976 10.8909 36.2571C10.2745 36.2165 9.45668 36.1318 9.07352 36.0688C8.11801 35.9117 7.12804 35.9615 6.51295 36.1975C5.81977 36.4634 5.38274 36.6675 5.10816 36.8535C4.73236 37.1079 3.7496 37.3057 2.67753 37.3426C1.50789 37.3828 1.274 37.4311 1.09636 37.669C0.908566 37.9205 0.913254 38.27 1.10658 38.4265C1.25964 38.5504 2.12934 38.843 2.34467 38.843C2.40946 38.843 2.89313 38.9382 3.41954 39.0546C3.94587 39.171 4.72325 39.3431 5.14703 39.4369C5.94893 39.6145 6.53222 39.6901 8.12403 39.8226C9.20941 39.913 9.77749 39.999 10.2254 40.1409C10.3988 40.1957 10.9545 40.3334 11.4603 40.4467C11.9662 40.56 12.7018 40.752 13.0951 40.8734C13.4884 40.9948 14.2493 41.2019 14.786 41.3336C15.6793 41.5529 17.0253 42.0016 17.1951 42.1366C17.3163 42.233 19.7639 42.9831 20.2772 43.0812C22.2786 43.4636 25.6197 43.5541 27.387 43.2737C28.7274 43.061 29.8324 42.8625 31.2045 42.5879C33.3683 42.1547 33.7938 42.1209 36.4931 42.1672C37.8222 42.19 39.1619 42.2225 39.4701 42.2394C39.7783 42.2564 41.1337 42.29 42.4821 42.3142C45.375 42.3659 45.6228 42.3424 47.6656 41.8217C49.4884 41.3571 49.9446 41.288 51.2176 41.2841C52.6775 41.2796 55.9313 41.6594 57.9525 42.0702C59.5127 42.3874 59.9544 42.3685 60.4873 41.962C60.7015 41.7987 60.7293 41.7404 60.7293 41.4549C60.7293 41.0631 60.5144 40.747 60.079 40.4987C59.7896 40.3336 58.6194 39.9468 57.7173 39.718C57.4669 39.6545 57.2345 39.5759 57.2008 39.5434C57.1098 39.4552 57.5851 39.3492 58.4528 39.264C59.4793 39.1632 60.6144 38.9967 60.8281 38.9154C61.3588 38.7136 61.1242 38.0034 60.4204 37.6812C59.8868 37.437 57.9325 37.2731 54.1449 37.1548L51.6582 37.0772L51.3664 36.8084C50.6722 36.1691 49.6993 35.86 47.2911 35.5135C43.7626 35.0059 42.1616 34.659 39.0337 33.7239C37.0213 33.1222 36.63 32.9785 35.0242 32.2507L33.7418 31.6695L33.789 30.6162C33.8844 28.4887 34.0381 27.1872 34.4345 25.1505C34.9001 22.758 35.3516 20.9004 35.8219 19.4423C35.9824 18.9447 35.9917 18.9318 35.998 19.1972C36.0095 19.6836 36.0651 19.7846 36.3715 19.8764L36.654 19.961L37.0113 19.5731C37.7044 18.8207 38.0106 18.1407 38.5244 16.2122C38.6769 15.6398 38.8353 14.9583 38.8763 14.6979C38.9537 14.2069 39.0802 13.8393 39.1719 13.8393C39.2011 13.8393 39.3644 14.1214 39.5348 14.4664C39.7052 14.8113 40.0316 15.4022 40.2602 15.7796C40.4888 16.157 40.7878 16.6706 40.9247 16.921C41.4738 17.9252 42.6465 19.4722 43.0507 19.7256C43.4121 19.9521 43.5873 19.9092 43.761 19.5517C44.0462 18.9647 44.15 18.1991 44.1072 16.996C44.0657 15.829 43.9386 15.1875 43.6039 14.4566C43.2449 13.6726 42.3262 12.1006 41.8101 11.3875C41.5176 10.9832 41.258 10.6169 41.2334 10.5734C41.1927 10.5018 42.1316 10.8761 43.6991 11.5563C44.0218 11.6963 45.1881 12.2586 46.2909 12.8059L48.296 13.801L48.8087 13.8026L49.3214 13.8042L49.5967 13.5093C49.8328 13.2563 49.872 13.1693 49.872 12.8984C49.872 11.9818 48.7945 10.8825 46.9176 9.88412C45.5105 9.13569 44.0308 8.55591 42.7973 8.26987L42.412 8.1805L42.8696 8.1733C43.1213 8.16937 43.4995 8.11845 43.7101 8.06018C43.9208 8.00191 44.4241 7.87381 44.8287 7.77561C45.9189 7.5108 46.4215 7.3004 46.9126 6.90307C47.5424 6.39354 47.7416 5.92492 47.3284 5.92492C47.2368 5.92492 47.1059 5.863 47.0375 5.78736C46.9689 5.71172 46.7671 5.59609 46.5888 5.53047C46.4105 5.46484 45.9494 5.27909 45.5641 5.11779C44.6217 4.72305 44.221 4.63551 43.6157 4.69175C43.025 4.74666 42.21 5.10995 41.1883 5.77398C40.8234 6.01106 40.5059 6.20507 40.4827 6.20507C40.4595 6.20507 40.5002 5.97653 40.5733 5.69729C40.732 5.09041 40.7017 4.36516 40.5014 3.97491C40.3287 3.63851 39.6201 3.11323 38.6991 2.63893C37.8843 2.21933 37.5025 2.15615 37.1554 2.38363L36.966 2.50767L37.0061 3.25323C37.0465 4.00657 37.1861 5.25591 37.3338 6.18679C37.378 6.46568 37.404 6.74633 37.3914 6.81049C37.3601 6.97088 36.6957 6.1365 35.9055 4.94438C35.1441 3.79575 34.6817 3.22031 33.8134 2.3407C32.9121 1.42768 32.3444 1.13828 31.0957 0.955062C30.0054 0.795094 29.4687 0.762661 28.7384 0.812599ZM30.3729 1.30063C31.4706 1.46466 31.9155 1.62043 32.6066 2.08255C33.2554 2.51643 34.4337 3.7624 35.427 5.06491C36.4433 6.39739 36.9747 7.04729 37.2106 7.24571C37.3209 7.33851 37.5076 7.60718 37.6254 7.84279C37.7433 8.07847 37.8883 8.32632 37.9477 8.39377C38.1099 8.57769 38.0153 8.54177 37.7206 8.30756C37.3612 8.02201 36.8395 7.78478 36.0998 7.57054C35.394 7.36616 34.3757 6.8151 33.5161 6.17236C33.2079 5.94193 32.4356 5.2323 31.7999 4.59544C30.7105 3.5041 29.5808 2.53996 28.4791 1.76156L27.9953 1.41962L28.1542 1.29097C28.3694 1.11671 29.1655 1.12021 30.3729 1.30063ZM38.4089 3.15112C38.7999 3.35899 39.3043 3.58143 39.5297 3.64537C40.0309 3.78769 40.2444 4.00202 40.3081 4.42694C40.4098 5.10421 40.1635 5.92618 39.427 7.36841C39.1144 7.98048 38.7992 8.54638 38.7266 8.62588C38.5732 8.79376 38.552 9.00661 38.6887 9.00661C38.7405 9.00661 38.8429 8.94028 38.9163 8.85925C39.1853 8.56208 39.6273 8.36183 40.0139 8.36211C40.3687 8.36232 41.6192 8.56641 42.4824 8.7649C43.6082 9.02376 45.2315 9.66315 46.9651 10.5304C48.3956 11.246 49.2042 11.8626 49.4558 12.4299C49.637 12.8381 49.6274 13.0159 49.4105 13.2736C49.0772 13.6696 48.4027 13.5475 47.4074 12.9109C46.8069 12.5267 44.6453 11.4218 43.8095 11.0718C43.3876 10.895 42.5854 10.5907 42.0268 10.3954C41.4682 10.2001 40.7524 9.919 40.4363 9.77073C39.6476 9.40079 39.5051 9.36933 39.5051 9.56523C39.5051 9.68899 39.6112 9.76701 40.0516 9.96704C40.5086 10.1746 40.6249 10.2625 40.7617 10.5039C40.8516 10.6627 41.1644 11.1225 41.4567 11.5259C42.3646 12.7786 43.3502 14.6824 43.5698 15.6079C43.8266 16.6895 43.7764 18.3873 43.4658 19.1305L43.3568 19.3913L43.1238 19.0842C42.6269 18.4294 41.6759 16.9911 41.2556 16.2588C41.0134 15.8369 40.7124 15.3484 40.5867 15.1732C40.4609 14.9981 40.2245 14.6184 40.0611 14.3295C39.8978 14.0406 39.6271 13.6036 39.4596 13.3584C39.1643 12.9263 39.1547 12.8948 39.1472 12.3428C39.1431 12.0295 39.1194 11.584 39.0947 11.3529C39.0554 10.9849 39.03 10.9299 38.8901 10.91L38.7305 10.8874L38.777 12.2058C38.8188 13.3929 38.8081 13.6042 38.6693 14.3295C38.4219 15.6217 37.8388 17.5882 37.5064 18.2517C37.3338 18.5962 36.7511 19.375 36.6047 19.4569C36.5347 19.496 36.5027 19.3984 36.4699 19.0468C36.4118 18.4253 36.488 16.913 36.6031 16.401C36.6545 16.1729 36.684 15.966 36.6688 15.9413C36.6385 15.8924 37.1019 13.5856 37.3231 12.6836C37.409 12.3332 37.5817 11.9134 37.7841 11.563C38.1212 10.9795 38.3143 10.4518 38.3143 10.1145C38.3143 9.78887 38.1392 9.88741 38.0118 10.2848C37.9468 10.4871 37.7585 10.8967 37.5932 11.1951C37.2651 11.7874 36.7779 12.255 35.9169 12.8037C33.6912 14.2222 33.3159 14.4929 32.7568 15.0832C32.4424 15.4151 31.8657 16.0227 31.4753 16.4334C31.0848 16.8441 30.7412 17.2558 30.7119 17.3482C30.661 17.5083 30.6558 17.5096 30.6037 17.3762C30.483 17.0674 30.5417 16.319 30.7483 15.5334C31.1316 14.0761 31.7757 12.9482 32.753 12.0232C33.489 11.3266 33.6792 11.1952 34.9898 10.4773C35.5661 10.1616 36.085 9.86479 36.1428 9.81786C36.2006 9.77087 36.5631 9.62736 36.9484 9.49898C37.7702 9.22506 37.894 9.16818 37.894 9.06439C37.894 8.93279 37.2149 9.04541 36.3813 9.31527C35.6114 9.56454 35.5928 9.56691 34.3889 9.56691C32.8946 9.56691 31.3323 9.45507 30.8211 9.31142C30.388 9.18976 29.5891 8.66776 29.6867 8.5702C29.8311 8.42578 31.0648 8.07657 32.0101 7.91261C32.9125 7.75601 33.1624 7.7401 34.2516 7.77008C35.7436 7.81112 36.2917 7.93376 37.3209 8.45695C37.8157 8.70853 38.0592 8.79908 38.0932 8.7441C38.1256 8.69164 38.1787 8.68646 38.2461 8.72904C38.5685 8.93293 38.6091 8.70006 38.3237 8.28382C37.8951 7.65873 37.7758 7.32624 37.7283 6.6253C37.6766 5.86139 37.5777 4.98984 37.4339 4.0308C37.3787 3.66317 37.3336 3.22984 37.3336 3.06777C37.3336 2.79714 37.3485 2.77319 37.5158 2.77319C37.6161 2.77319 38.018 2.94325 38.4089 3.15112ZM44.9337 5.36307C45.4149 5.42603 46.7812 5.95763 46.9862 6.16158C47.061 6.23596 47.0267 6.29808 46.7957 6.5068C46.3689 6.89222 45.7491 7.17181 44.9863 7.32288C44.6106 7.39733 44.1615 7.50876 43.9881 7.57054C43.5939 7.7111 40.7344 7.96437 40.1834 7.9075C39.8572 7.87381 39.7574 7.8895 39.6437 7.99238C39.567 8.06179 39.4921 8.10564 39.4772 8.08988C39.4623 8.07405 39.6123 7.76462 39.8104 7.40231L40.1705 6.74359L40.801 6.48438C41.1477 6.34186 41.6773 6.09098 41.9778 5.92695C43.0908 5.31951 43.7053 5.20233 44.9337 5.36307ZM36.8872 12.8412C36.8677 12.9087 36.8158 13.1021 36.7721 13.2711C36.7 13.5499 36.6824 13.5683 36.5831 13.469C36.4838 13.3697 36.4924 13.3297 36.676 13.0392C36.8937 12.6946 36.9433 12.6482 36.8872 12.8412ZM36.6008 13.9784C36.5836 14.0367 36.5319 14.242 36.4859 14.4346C36.44 14.6272 36.393 14.7961 36.3817 14.8099C36.3703 14.8238 36.2651 14.7668 36.1479 14.6833L35.9347 14.5316L36.1449 14.1154C36.3373 13.7343 36.3666 13.7065 36.4936 13.7857C36.5698 13.8334 36.618 13.92 36.6008 13.9784ZM36.159 15.1124C36.2707 15.1977 36.2724 15.2382 36.179 15.6252C36.1234 15.8564 36.0766 16.1312 36.0753 16.2359L36.0728 16.4263L35.6906 16.1406L35.3084 15.8548L35.5521 15.3707C35.8095 14.8598 35.8217 14.8545 36.159 15.1124ZM36.0027 17.1337C36.0027 17.5039 35.9733 17.5395 35.7981 17.3815C35.7373 17.3265 35.509 17.1742 35.2908 17.043L34.894 16.8042L35.0264 16.5086L35.1587 16.213L35.5807 16.4995C36.0016 16.7853 36.0027 16.7871 36.0027 17.1337ZM35.379 17.4894C35.6257 17.648 35.8399 17.7889 35.8548 17.8026C35.894 17.8385 35.713 18.4594 35.6524 18.4969C35.6244 18.5142 35.4425 18.4517 35.2482 18.3579C35.0539 18.2642 34.8132 18.1671 34.7134 18.142C34.6135 18.1169 34.5318 18.0632 34.5318 18.0226C34.5318 17.8347 34.7764 17.2011 34.8489 17.2011C34.8937 17.2011 35.1322 17.3308 35.379 17.4894ZM35.1447 18.6832C35.3469 18.7595 35.5124 18.8398 35.5124 18.8614C35.5124 18.8831 35.4771 19.0187 35.4339 19.1628L35.3554 19.4248L34.8384 19.2001C34.5541 19.0765 34.3026 18.9564 34.2795 18.9334C34.2565 18.9103 34.2742 18.7805 34.3189 18.6449C34.3952 18.4138 34.412 18.403 34.5886 18.4714C34.6922 18.5115 34.9424 18.6068 35.1447 18.6832ZM35.1512 19.7145C35.2288 19.7635 35.2234 19.8433 35.1201 20.1707C35.0514 20.389 34.9617 20.5543 34.921 20.538C34.3262 20.3007 33.8605 20.1096 33.8374 20.0934C33.8214 20.0823 33.866 19.9036 33.9364 19.6964L34.0645 19.3196L34.5608 19.4874C34.8338 19.5798 35.0994 19.6819 35.1512 19.7145ZM34.3565 20.7448C34.7554 20.8864 34.879 20.9599 34.8492 21.0375C34.8274 21.0946 34.7758 21.2749 34.7347 21.4382L34.6599 21.735L34.0699 21.5452C33.7453 21.4409 33.4619 21.3375 33.4399 21.3156C33.3635 21.2392 33.6443 20.4868 33.7361 20.5221C33.7844 20.5405 34.0636 20.6408 34.3565 20.7448ZM33.9738 21.8784L34.5716 22.0716L34.4452 22.6261C34.3756 22.931 34.3047 23.1946 34.2876 23.2117C34.2705 23.2289 33.9431 23.1243 33.5601 22.9793L32.8639 22.7156L33.0495 22.1996C33.1516 21.9157 33.2668 21.6839 33.3055 21.6844C33.3442 21.6849 33.645 21.7722 33.9738 21.8784ZM33.2797 23.2504C33.4868 23.3417 33.7582 23.4387 33.8831 23.4659C34.0078 23.4931 34.1276 23.5441 34.1494 23.5792C34.1842 23.6355 34.0498 24.4851 34.0061 24.4851C33.9967 24.4851 33.7093 24.3632 33.3673 24.2143C33.0253 24.0653 32.6871 23.9232 32.6157 23.8985C32.5421 23.873 32.502 23.8115 32.5232 23.7564C32.5437 23.703 32.5992 23.5298 32.6466 23.3718C32.6939 23.2137 32.771 23.0843 32.818 23.0843C32.8648 23.0843 33.0727 23.1591 33.2797 23.2504ZM33.0958 24.4851C33.4579 24.6392 33.7872 24.7653 33.8277 24.7653C33.8682 24.7653 33.9008 24.8519 33.9003 24.9579C33.8982 25.3346 33.8533 25.3431 32.9799 25.1338L32.1727 24.9404L32.2755 24.5727C32.332 24.3704 32.3915 24.205 32.4079 24.205C32.4242 24.205 32.7337 24.331 33.0958 24.4851ZM33.7299 25.8609C33.7072 25.9517 33.6699 26.1617 33.6472 26.3275L33.6059 26.6289L32.793 26.3975C32.346 26.2702 31.9426 26.166 31.8967 26.166C31.8346 26.166 31.8401 26.0629 31.9184 25.7633C31.9762 25.5418 32.0358 25.3406 32.051 25.3161C32.0661 25.2916 32.4593 25.367 32.9249 25.4836C33.7391 25.6876 33.7698 25.702 33.7299 25.8609ZM32.1567 26.5754C32.365 26.6465 32.7663 26.7608 33.0486 26.8294C33.5109 26.9418 33.5582 26.9689 33.5248 27.1029C33.5045 27.1847 33.4662 27.4643 33.4398 27.7244C33.4133 27.9844 33.3737 28.1971 33.3516 28.1971C33.3036 28.1971 31.498 27.6143 31.4541 27.5846C31.4247 27.5648 31.6498 26.6072 31.7094 26.4987C31.7465 26.4308 31.7192 26.4261 32.1567 26.5754ZM32.4179 28.2641L33.3511 28.5763L33.3026 29.1746C33.2759 29.5037 33.247 29.7812 33.2384 29.7913C33.2298 29.8013 32.7697 29.6358 32.2158 29.4236C31.662 29.2113 31.171 29.0376 31.1248 29.0376C31.039 29.0376 31.0418 29.0196 31.2515 28.2114C31.2945 28.0459 31.3645 27.9199 31.4072 27.9313C31.4498 27.9427 31.9046 28.0924 32.4179 28.2641ZM31.6637 29.6247C31.989 29.755 32.4759 29.932 32.7456 30.0179L33.2359 30.1741L33.213 30.767C33.1969 31.1876 33.1664 31.3494 33.108 31.3241C33.0627 31.3045 32.5454 31.0736 31.9584 30.8109L30.8911 30.3333L30.8902 30.0794C30.8891 29.7612 30.9616 29.3878 31.0246 29.3878C31.0508 29.3878 31.3384 29.4944 31.6637 29.6247ZM28.5178 30.3342C29.1479 30.4309 29.8369 30.5599 30.0487 30.6207C30.5428 30.7625 32.3987 31.5096 32.9907 31.805C33.6437 32.1308 35.7928 33.0779 36.4947 33.3492C37.3485 33.6791 40.1946 34.5136 41.9567 34.9506C43.5867 35.3549 44.6427 35.5524 47.2453 35.9395C49.8331 36.3245 50.5217 36.6039 51.2754 37.5751C51.5027 37.868 51.7448 38.1528 51.8135 38.2081C52.1677 38.4931 52.5842 38.9094 52.5497 38.9438C52.4253 39.0682 49.3585 38.9522 46.1596 38.7022C44.9736 38.6095 41.6224 38.6054 38.104 38.6922C34.3931 38.7837 33.4607 38.7448 28.8579 38.3057C27.2138 38.1489 26.4934 38.1221 22.5537 38.0718C16.1547 37.99 14.8237 37.9319 13.5397 37.6782L12.9664 37.5649L13.6182 36.8207C15.4346 34.7465 18.1609 32.6828 20.6113 31.5272C21.5715 31.0743 23.1831 30.5454 23.9308 30.4377C24.2328 30.3942 24.7007 30.3171 24.9703 30.2663C25.8087 30.1084 27.2237 30.1355 28.5178 30.3342ZM9.01048 36.5628C9.50536 36.6185 10.624 36.6736 11.4965 36.6854C12.5277 36.6993 13.0689 36.7313 13.0431 36.7769C13.0213 36.8154 12.9128 36.9808 12.8019 37.1446C12.6161 37.419 12.5763 37.4422 12.2926 37.4422C11.7378 37.4422 11.8007 37.7075 12.3777 37.8017C12.5616 37.8317 12.9958 37.9332 13.3425 38.0272C14.5872 38.3647 14.8778 38.3791 20.7675 38.394C23.8111 38.4017 26.5692 38.4279 26.8966 38.452C27.2241 38.4762 28.1697 38.5572 28.998 38.632C29.8263 38.7068 31.0872 38.8203 31.7999 38.8844C32.8111 38.9752 34.4343 39.0129 39.1899 39.0558C42.5416 39.0859 45.6622 39.1449 46.1245 39.1867C48.7757 39.4263 52.1233 39.556 52.6236 39.4384C52.7091 39.4183 53.1212 39.3583 53.5394 39.3051C54.2898 39.2097 54.5705 39.0916 54.4625 38.9169C54.4355 38.8731 54.3511 38.8571 54.2751 38.8812C54.0754 38.9445 53.445 38.8445 53.4414 38.7489C53.4397 38.7043 53.1251 38.4158 52.7423 38.1076L52.0462 37.5473L52.4476 37.5255C52.6684 37.5135 53.1576 37.5371 53.5347 37.578C53.9119 37.6188 54.6053 37.6533 55.0758 37.6545C55.5462 37.6557 56.163 37.6868 56.4465 37.7236C56.73 37.7603 57.5653 37.8223 58.3028 37.8612C59.7698 37.9386 60.0728 37.9948 60.4667 38.263C60.7784 38.4752 60.792 38.5425 60.5427 38.6373C60.2879 38.7341 58.7255 38.9623 57.9047 39.0226C57.0947 39.082 56.8067 39.2178 56.8067 39.5406C56.8067 39.7882 56.9353 39.8673 57.7173 40.1005C58.8224 40.4299 59.9352 40.9885 60.1001 41.2966C60.1624 41.4129 60.1389 41.4547 59.9459 41.5721C59.6092 41.7768 59.2123 41.8103 58.5514 41.6898C58.0286 41.5945 56.5097 41.4044 53.4157 41.047C50.9807 40.7657 49.9421 40.8286 47.6366 41.3963C45.62 41.893 45.0324 41.9517 43.0067 41.8593C42.1393 41.8197 40.516 41.7558 39.3992 41.7173C38.2824 41.6787 36.7032 41.6107 35.8899 41.566C34.1178 41.4687 33.2398 41.5327 31.3096 41.8995C27.0894 42.7016 26.2642 42.831 25.0395 42.8829C24.0422 42.9253 22.6036 42.841 21.1872 42.6574C20.3119 42.544 18.2707 41.9879 17.2495 41.5846C16.4962 41.2871 15.8595 41.0914 15.0587 40.9113C14.1007 40.6958 11.3933 40.0336 10.6038 39.8216C9.75263 39.5932 9.31203 39.528 7.53059 39.3669C6.43456 39.2678 5.76674 39.1493 3.57098 38.6649C3.12793 38.5672 2.60783 38.4544 2.4152 38.4143C1.89706 38.3064 1.39953 38.1394 1.39953 38.0734C1.39953 37.9929 2.1388 37.954 2.52028 38.0144C3.05432 38.0988 3.93403 38.0757 4.40461 37.9648C4.68459 37.8988 5.02663 37.7454 5.31522 37.5565C6.37615 36.8617 6.5643 36.7538 6.89822 36.6492C7.56815 36.4392 7.81926 36.4289 9.01048 36.5628ZM8.50888 37.723C8.42748 37.8547 8.55329 38.0736 8.77695 38.1893C9.24535 38.4317 10.6729 38.7722 11.5213 38.8438C11.9836 38.8828 12.4801 38.9305 12.6246 38.9497C12.8236 38.9763 12.8872 38.9601 12.8872 38.883C12.8872 38.7294 12.8383 38.7151 11.7917 38.5639C10.6377 38.3971 9.05945 37.9802 8.85505 37.7881C8.69513 37.638 8.57542 37.6154 8.50888 37.723ZM17.8606 39.8899C17.8606 40.0042 17.9425 40.0764 18.1933 40.1832C18.3763 40.2611 18.7095 40.42 18.9339 40.5362C19.2388 40.6943 19.6012 40.7922 20.3699 40.9241C22.1095 41.2227 24.0595 41.1512 26.3777 40.7037C27.6723 40.4539 28.2414 40.3952 29.8117 40.3499C32.4114 40.275 32.9207 40.2392 32.9207 40.1316C32.9207 40.0241 32.1141 39.9995 29.5234 40.0279C28.0146 40.0445 27.3884 40.1032 26.0911 40.3496C23.9688 40.7529 22.2047 40.8303 20.6045 40.5905C19.8134 40.4719 19.5249 40.3934 18.9463 40.1393C18.561 39.97 18.1592 39.8106 18.0532 39.7849C17.888 39.7449 17.8606 39.7599 17.8606 39.8899ZM48.0858 40.1395C46.8023 40.266 45.8429 40.4266 45.1098 40.6379C44.6425 40.7725 44.2793 40.8184 43.4112 40.8526C42.5824 40.8852 42.307 40.9184 42.307 40.9858C42.307 41.1248 42.8489 41.1756 43.9062 41.1357C44.6552 41.1074 44.986 41.0616 45.4258 40.9252C46.0235 40.7398 46.9935 40.5921 48.7423 40.42C50.0189 40.2944 51.4225 40.3308 52.814 40.5257C53.3341 40.5985 54.0197 40.6675 54.3375 40.679C54.8417 40.6974 54.9154 40.6849 54.9154 40.5817C54.9154 40.4318 54.8163 40.4059 54.0284 40.3499C53.6754 40.3248 53.1395 40.2579 52.8376 40.2012C52.0474 40.053 49.3228 40.0175 48.0858 40.1395Z" fill="black"/>
</svg>
