<svg width="43" height="33" viewBox="0 0 43 33" fill="none" xmlns="http://www.w3.org/2000/svg">
<path fill-rule="evenodd" clip-rule="evenodd" d="M14.5505 0.834466C14.0135 0.996304 13.6943 1.15593 13.278 1.47076C12.9136 1.74639 12.4118 2.2995 12.2957 2.55349C12.2454 2.66351 12.1885 2.67768 11.8105 2.67439C11.3585 2.67039 10.7205 2.83097 10.2552 3.06578C9.77534 3.30787 8.9979 3.84669 8.65076 4.17772C8.24145 4.56809 8.09457 4.79125 8.03796 5.10924C8.00209 5.31029 7.98046 5.33461 7.86628 5.30192C7.5073 5.19925 7.1592 5.19489 6.91033 5.28985C6.48799 5.45109 5.02632 6.96758 4.30424 7.99359C4.06608 8.33209 4.04869 8.38264 4.06811 8.68086L4.08904 9.0028L3.74853 9.01093C3.56124 9.01541 3.22498 9.07476 3.00129 9.14277C2.67453 9.24216 2.54003 9.32284 2.31741 9.55299C1.91772 9.96613 1.73109 10.3008 1.6294 10.7866C1.47876 11.506 1.62109 12.2934 1.96925 12.667L2.086 12.7923L1.83217 12.911C1.51983 13.057 1.3898 13.1694 1.11141 13.534C0.876178 13.8421 0.730555 14.2566 0.817296 14.3711C0.846528 14.4097 0.876237 14.5477 0.883351 14.6778C0.913899 15.2377 1.22702 15.6094 1.88496 15.8666C2.42985 16.0796 2.78644 16.1518 3.28775 16.1507C3.75188 16.1497 4.58718 15.9755 4.89792 15.8148C4.99099 15.7667 5.08 15.7543 5.11133 15.7852C5.14092 15.8144 5.48788 15.9763 5.88243 16.1448C7.74002 16.9387 8.54484 17.4927 10.3539 19.2223C11.0072 19.8468 11.7237 20.5191 11.9463 20.7163C12.1689 20.9136 12.5724 21.2766 12.8431 21.5231C13.6015 22.214 14.379 22.7679 15.7141 23.5685C17.43 24.5974 18.5619 25.144 21.186 26.2107C21.6463 26.3978 22.3592 26.7008 22.7702 26.8841C23.1812 27.0674 23.9747 27.3643 24.5337 27.544C25.0926 27.7236 25.8331 27.9724 26.1791 28.0967C26.5251 28.2211 27.1034 28.4051 27.4643 28.5058C29.0547 28.9495 31.5672 29.8044 32.7235 30.2953C33.8992 30.7943 34.5196 30.9748 35.2477 31.0294C36.2571 31.1052 37.0817 30.8441 37.744 30.239C38.087 29.9256 38.0882 29.9231 38.3058 29.0234C38.3693 28.7604 38.4732 28.4243 38.5367 28.2764C38.9127 27.3988 39.456 25.3945 39.5973 24.3633C39.845 22.5547 39.7637 21.2164 39.2611 18.8338C38.9674 17.4415 38.026 14.6043 37.5479 13.6707C37.0682 12.734 35.9763 11.3009 35.1066 10.4666C34.5444 9.92721 33.2006 8.8825 32.4545 8.40469C30.8304 7.3647 28.1462 6.05422 26.7455 5.61742C24.8197 5.01698 23.3105 4.76908 21.5447 4.76323C19.9974 4.75809 19.351 4.89214 17.1808 5.66828C14.727 6.54578 13.8793 6.90561 12.1294 7.81245C10.1759 8.82477 8.33023 10.0427 7.38343 10.9442C6.60504 11.6854 5.40754 13.1419 4.85117 14.0243C4.74703 14.1894 4.58007 14.4029 4.48006 14.4987C4.28601 14.6845 4.24691 14.8534 4.37986 14.9313C4.4247 14.9576 4.50469 15.0638 4.55759 15.1672C4.67129 15.3897 4.72832 15.3646 3.75134 15.5218C3.15127 15.6183 3.09155 15.6183 2.70926 15.5223C1.68207 15.2644 1.2495 14.8618 1.2495 14.1636C1.2495 13.9825 1.29631 13.8818 1.46961 13.69C1.74221 13.3884 1.95173 13.2804 2.72821 13.0413C3.32392 12.8579 3.35548 12.8545 3.92381 12.9129C4.24482 12.9458 4.59627 13.0037 4.70483 13.0416C5.05986 13.1654 5.04151 12.9121 4.68462 12.7631C4.34167 12.6198 3.28141 12.5227 2.90934 12.6005C2.62037 12.6608 2.58307 12.6557 2.45424 12.5378C2.18141 12.288 2.06603 11.9685 2.03871 11.3873C2.00912 10.7579 2.09933 10.4812 2.48616 10.0148C2.9662 9.43579 3.61259 9.29223 4.91083 9.47612C5.47037 9.55537 5.52464 9.57701 6.27488 10.0188C6.70457 10.2719 7.07025 10.4648 7.08746 10.4476C7.18562 10.3494 6.97352 10.125 6.45912 9.78265C5.74427 9.30688 5.59064 9.24138 4.98041 9.15221C4.71445 9.1133 4.46894 9.06382 4.43474 9.04213C4.40061 9.0205 4.35404 8.8911 4.33121 8.75467C4.28458 8.47551 4.25983 8.51006 5.60612 6.97086C6.65466 5.77202 6.82474 5.62722 7.18503 5.62662C7.30961 5.62639 7.51137 5.67693 7.63338 5.73902C7.75533 5.80106 8.04496 5.90822 8.2769 5.97713C8.8576 6.14966 9.12787 6.34724 9.87697 7.14687C10.2328 7.52666 10.5489 7.83743 10.5794 7.83743C10.8208 7.83743 10.2063 6.76391 9.59247 6.11303C9.25645 5.75678 9.01841 5.61723 8.5648 5.51055L8.25819 5.43848L8.3041 5.23512C8.38887 4.85939 8.79363 4.47391 9.67855 3.9263C10.3834 3.49021 10.6201 3.37607 11.2404 3.17341C11.7548 3.00536 11.8004 3.00027 12.2088 3.06578C12.4446 3.10355 12.7451 3.18435 12.8766 3.2453C13.179 3.38545 14.2124 4.28464 14.439 4.60473C14.6337 4.87994 14.7002 4.90803 14.6994 4.71482C14.6984 4.47319 14.3651 3.9915 13.8753 3.52362C13.3817 3.05221 13.1627 2.90668 12.7715 2.79002L12.5468 2.72303L12.8261 2.40767C13.164 2.0262 13.7638 1.58844 14.1485 1.44268C15.2806 1.01364 16.3878 1.20978 16.8807 1.92676C17.0512 2.17477 17.5039 3.43134 17.6052 3.93789C17.6576 4.20001 17.7921 4.18364 17.8506 3.90802C17.9612 3.38647 17.8278 2.37282 17.586 1.89801C17.474 1.67802 17.4735 1.67838 18.3421 1.44967C19.2614 1.20769 19.8153 1.12796 20.4017 1.15336C20.8365 1.17212 20.9169 1.19496 21.1729 1.37251C21.3301 1.48146 21.5298 1.68304 21.6166 1.82049C21.875 2.22981 22.2109 3.10116 22.3872 3.81981C22.4833 4.21167 22.5792 4.48449 22.6165 4.47188C22.6576 4.45796 22.6799 4.18394 22.6788 3.70846C22.6772 3.03004 22.6608 2.92103 22.4872 2.43109C22.3828 2.13652 22.3105 1.88247 22.3264 1.86651C22.3423 1.85061 22.7514 1.81266 23.2353 1.78212C24.9978 1.67115 26.0165 1.9604 26.6043 2.73863C26.7238 2.89694 26.9559 3.282 27.1199 3.59426C27.4047 4.13631 27.5093 4.40984 27.6737 5.04351C27.7165 5.20816 27.7818 5.32738 27.8293 5.32738C28.0304 5.32738 27.8373 4.15699 27.4918 3.28051L27.3798 2.99663H27.7574C28.6532 2.99663 29.953 3.49511 30.8404 4.17892C31.6332 4.78975 31.8237 5.29505 31.7876 6.69099C31.7752 7.17166 31.7899 7.49344 31.8244 7.49918C31.938 7.51812 32.1487 7.1073 32.1965 6.77365C32.2233 6.58629 32.2434 6.14219 32.2411 5.78678L32.237 5.14056L32.3906 5.17834C32.6396 5.23959 33.3906 5.73318 33.7724 6.08662C34.2078 6.4896 34.6162 7.09284 34.8216 7.63656C35.0049 8.1216 35.0241 8.74738 34.8716 9.27174C34.7229 9.78331 34.708 9.86937 34.7685 9.86937C34.8566 9.86937 35.0593 9.62447 35.1951 9.35368C35.3277 9.08959 35.4423 8.50593 35.443 8.09142C35.4434 7.85906 35.4564 7.83743 35.5961 7.83743C35.961 7.83743 36.588 8.03428 36.9329 8.2572C37.3455 8.52374 38.1985 9.31829 38.3677 9.5935C38.5442 9.8806 38.587 10.2097 38.4655 10.344C38.4101 10.4052 38.3733 10.4943 38.3837 10.5421C38.3941 10.5898 38.2349 10.9756 38.0299 11.3995C37.6361 12.2137 37.5061 12.6782 37.6718 12.6782C37.7667 12.6782 38.1848 12.0609 38.5826 11.3336C38.7084 11.1035 38.8199 10.9043 38.8304 10.8911C38.8716 10.8387 40.4746 12.1023 40.6657 12.3378C40.9292 12.6624 41.1571 13.1218 41.209 13.4327C41.2426 13.6347 41.2176 13.7508 41.0705 14.0752C40.8537 14.5533 40.3463 15.3428 39.8311 16.004C39.4328 16.5151 39.2831 16.7757 39.3494 16.842C39.4316 16.9243 39.7354 16.6992 40.2762 16.1555L40.8348 15.5939L41.0438 15.7945C41.1586 15.9048 41.4113 16.2045 41.6051 16.4606C42.0662 17.0697 42.2242 17.557 42.1873 18.2558C42.1444 19.0701 41.8883 19.476 40.9581 20.2044C40.7683 20.3531 40.6443 20.4968 40.6443 20.5683C40.6443 20.6333 40.6601 20.6865 40.6795 20.6865C40.7448 20.6865 41.5094 20.2448 41.7883 20.046L42.0654 19.8483L42.1662 20.1C42.2215 20.2384 42.2964 20.5724 42.3325 20.8424C42.3905 21.275 42.3853 21.367 42.2891 21.6189C42.1058 22.0987 41.7929 22.3749 40.9661 22.7863C40.2088 23.1633 40.0668 23.2635 40.1346 23.3732C40.2224 23.5152 40.9402 23.3816 41.4306 23.1319L41.649 23.0207L41.8896 23.4829C42.2405 24.1572 42.4377 24.7891 42.4376 25.239C42.4375 26.0784 41.8243 26.8073 41.0083 26.9378C40.8737 26.9593 40.5082 26.9431 40.1961 26.9018C39.7356 26.8409 39.6114 26.8412 39.5362 26.9036C39.4852 26.9458 39.4515 27.0196 39.4611 27.0675C39.4858 27.1902 40.3358 27.4358 40.9133 27.4869L41.3915 27.5293L41.561 28.1867C41.7031 28.7377 41.731 28.9699 41.734 29.621C41.737 30.2884 41.7184 30.4485 41.6021 30.7565C41.3586 31.4011 40.4681 32.1187 39.7102 32.2812C39.341 32.3604 39.0843 32.2784 38.493 31.8925C37.9247 31.5216 37.6935 31.3102 37.5056 30.9896C37.334 30.697 37.2379 30.6788 37.1517 30.9225C37.0206 31.2932 37.3286 31.7865 37.9787 32.2472C38.6947 32.7546 38.9353 32.847 39.5415 32.8477C40.0505 32.8481 40.1108 32.8343 40.5577 32.6144C41.2032 32.2968 41.8254 31.6831 42.0132 31.1788C42.2053 30.6633 42.2976 29.6621 42.2121 29.0231C42.1559 28.6034 41.9499 27.8856 41.7573 27.4388C41.7301 27.3757 41.7836 27.3133 41.9342 27.2322C42.2922 27.0394 42.6614 26.5778 42.7887 26.1639C42.9449 25.6559 42.9927 25.1384 42.9187 24.7573C42.8501 24.404 42.4341 23.4924 42.1578 23.0898L41.982 22.8337L42.2157 22.5881C42.3442 22.4531 42.5021 22.2196 42.5666 22.0692C42.8158 21.4879 42.7593 20.5072 42.4401 19.8746C42.3494 19.6948 42.2976 19.5338 42.3249 19.5169C42.4168 19.4601 42.6112 18.7233 42.6503 18.2835C42.7384 17.2926 42.4634 16.6036 41.6335 15.7362L41.0807 15.1584L41.1962 14.9791C41.4069 14.6523 41.5921 14.1913 41.6557 13.8358C41.7757 13.1639 41.4684 12.4215 40.8208 11.8198C40.5058 11.5271 39.0808 10.5268 38.9788 10.5268C38.9524 10.5268 38.943 10.3784 38.9581 10.197C39.0069 9.60897 38.8963 9.36592 38.3182 8.79076C37.4148 7.8918 36.7878 7.56473 35.8384 7.49702L35.3538 7.46242L35.135 7.0075C34.8711 6.45858 34.3326 5.80429 33.9022 5.50936C33.3377 5.12263 32.7059 4.83027 32.3746 4.80254C32.0899 4.7787 32.0543 4.75802 31.9165 4.53708C31.6408 4.09513 30.7334 3.44168 29.9424 3.11562C29.2182 2.81704 28.0537 2.59801 27.5222 2.66034L27.2229 2.69542L27.0543 2.42906C26.4674 1.5016 25.0521 1.13221 23.0093 1.37323L22.0827 1.48254L21.8346 1.25777C21.3952 0.859628 21.1432 0.765142 20.4456 0.736754C20.0967 0.722531 19.6255 0.744401 19.3696 0.786653C18.8956 0.864943 17.5239 1.28502 17.4275 1.38141C17.3935 1.41542 17.2806 1.35841 17.1351 1.23398C16.6949 0.857294 16.4258 0.770465 15.6265 0.747277C15.0611 0.730842 14.8332 0.749303 14.5505 0.834466ZM23.4576 5.41732C24.228 5.51007 24.5819 5.58424 25.721 5.89202C27.3052 6.31992 29.0352 7.06882 31.0759 8.20987C32.2473 8.86487 33.1371 9.4754 34.2757 10.4055C35.4638 11.3761 36.9521 13.3349 37.4782 14.6205C37.941 15.7515 38.7326 18.2407 38.9099 19.1225C39.2344 20.7364 39.2863 21.33 39.2483 22.9873C39.2183 24.2934 39.192 24.5979 39.0399 25.4077C38.9442 25.9172 38.7652 26.6702 38.6423 27.0811C38.4224 27.816 37.7587 29.5516 37.6434 29.6936C37.5243 29.8402 36.9543 30.1789 36.4597 30.397C35.9895 30.6044 35.9105 30.6209 35.4011 30.6179C34.6174 30.6134 34.2452 30.5026 32.5143 29.7583C31.5859 29.3591 30.8558 29.0943 29.2264 28.5656C26.993 27.841 26.4698 27.6643 25.4005 27.2732C24.2052 26.8361 24.1698 26.8212 23.0093 26.2742C22.4997 26.0339 21.6658 25.6573 21.1561 25.4372C18.2774 24.1941 16.5139 23.2745 14.738 22.0905C14.0025 21.6 12.5651 20.383 11.3523 19.2236C9.17928 17.1465 8.17163 16.4385 6.71934 15.9688C6.04545 15.7509 5.29288 15.3635 4.89792 15.0313L4.71266 14.8754L4.99864 14.5643C5.15592 14.3932 5.52644 13.9593 5.82193 13.6001C6.55513 12.7091 7.69907 11.4358 7.98153 11.1965C8.42229 10.8229 9.88946 9.77303 10.5154 9.38319C12.575 8.1005 14.7696 7.09057 17.8384 6.01335C19.1214 5.56297 19.6722 5.41135 20.3192 5.33049C20.9097 5.25668 22.4849 5.30025 23.4576 5.41732ZM21.1071 11.3186C21.1325 11.4971 21.3952 11.5476 21.3952 11.374C21.3952 11.2655 21.2889 11.1841 21.1471 11.1841C21.1146 11.1841 21.0967 11.2446 21.1071 11.3186ZM21.6583 11.2678C21.6364 11.3248 21.6481 11.401 21.6842 11.4372C21.732 11.485 21.7609 11.4747 21.7898 11.3993C21.8117 11.3423 21.8 11.2661 21.7638 11.2299C21.716 11.1821 21.6872 11.1925 21.6583 11.2678ZM22.494 11.3307C22.4477 11.4515 22.5166 11.5427 22.6541 11.5427C22.7843 11.5427 22.8074 11.4245 22.6984 11.3156C22.6029 11.2201 22.5345 11.2251 22.494 11.3307ZM23.2442 11.4581C23.1428 11.5803 23.2377 11.7441 23.4258 11.7719C23.6504 11.8051 23.7036 11.6877 23.5415 11.5168C23.372 11.3383 23.3477 11.3335 23.2442 11.4581ZM22.6626 11.734C22.5779 11.8186 22.5672 12.0589 22.6458 12.1075C22.6761 12.1262 22.7569 12.0702 22.8255 11.9831C22.9208 11.8619 22.9343 11.8055 22.8827 11.7435C22.7998 11.6435 22.7549 11.6416 22.6626 11.734ZM24.1601 11.8836C24.0575 11.9216 24.066 12.1097 24.1742 12.1995C24.2634 12.2734 24.4451 12.2448 24.4427 12.1572C24.4399 12.0591 24.2314 11.8572 24.1601 11.8836ZM22.3209 12.5004C22.2696 12.5834 22.3472 12.9173 22.4177 12.9173C22.4932 12.9173 22.6037 12.6186 22.5653 12.5185C22.5292 12.4246 22.3749 12.4132 22.3209 12.5004ZM24.8146 12.5706C24.7107 12.6746 24.7266 12.8983 24.8411 12.9422C24.9524 12.9849 24.9431 12.991 25.0335 12.817C25.1544 12.5845 24.9881 12.3973 24.8146 12.5706ZM22.0947 13.0148C22.0227 13.0868 22.0488 13.2579 22.1439 13.3368C22.2567 13.4304 22.2778 13.4106 22.3023 13.1879C22.3214 13.0155 22.1974 12.9121 22.0947 13.0148ZM25.5194 13.5165C25.4546 13.6729 25.4589 13.7131 25.5513 13.8153C25.7299 14.0125 25.8301 13.9674 25.7871 13.7091C25.7142 13.2704 25.6427 13.2189 25.5194 13.5165ZM21.8884 13.8158C21.7498 13.8713 21.7094 14.0694 21.8058 14.2213C21.8435 14.2808 21.8952 14.2533 22.0166 14.1092C22.2401 13.8436 22.1774 13.7001 21.8884 13.8158ZM28.0239 13.852C27.9 14.0011 28.0349 14.1424 28.3014 14.1424C28.6093 14.1424 28.6242 14.0339 28.3367 13.8842C28.1258 13.7742 28.0914 13.7707 28.0239 13.852ZM29.047 14.2248C29.047 14.3638 29.151 14.4531 29.3444 14.4802C29.5598 14.5104 29.5655 14.3413 29.3534 14.216C29.1279 14.083 29.047 14.0852 29.047 14.2248ZM21.4535 14.5028C21.3946 14.5737 21.3932 14.6282 21.4471 14.7465C21.542 14.9548 21.6589 14.8965 21.6793 14.6308C21.6976 14.3928 21.5937 14.334 21.4535 14.5028ZM25.7127 14.5642C25.5565 14.6735 25.5377 14.877 25.6788 14.9312C25.7954 14.9759 25.9983 14.7555 25.9983 14.584C25.9983 14.4468 25.8909 14.4394 25.7127 14.5642ZM28.7011 14.7214C28.6002 14.8222 28.6077 15.1285 28.711 15.1285C28.8344 15.1285 28.9392 14.9731 28.9171 14.8227C28.8939 14.6644 28.8015 14.621 28.7011 14.7214ZM30.1851 14.8568C30.0925 14.9683 30.1367 15.0996 30.2954 15.1845C30.4452 15.2646 30.4897 15.1968 30.4311 14.9778C30.377 14.7754 30.2888 14.732 30.1851 14.8568ZM21.1681 15.26C21.0825 15.3456 21.0725 15.6446 21.1536 15.6947C21.2166 15.7337 21.3952 15.4278 21.3952 15.2809C21.3952 15.1708 21.2689 15.1592 21.1681 15.26ZM25.3096 15.3226C25.2445 15.3581 25.173 15.415 25.1506 15.4489C25.1 15.5255 25.202 15.7261 25.2914 15.7261C25.4408 15.7261 25.5929 15.3599 25.474 15.2863C25.4485 15.2707 25.3746 15.287 25.3096 15.3226ZM30.8428 15.3946C30.7593 15.4952 30.7797 15.6761 30.8783 15.7089C30.9156 15.7213 30.9895 15.6881 31.0426 15.635C31.1158 15.5618 31.1242 15.5107 31.0773 15.4232C31.0036 15.2854 30.9399 15.2776 30.8428 15.3946ZM21.993 15.8047C21.993 15.9645 22.2115 16.0695 22.3194 15.9616C22.4037 15.8773 22.2808 15.7009 22.1214 15.6771C22.0198 15.662 21.993 15.6886 21.993 15.8047ZM24.8084 15.7817C24.618 15.8304 24.5113 15.9966 24.6081 16.0934C24.7067 16.1919 24.9548 16.0756 24.998 15.9106C25.0373 15.7603 24.9977 15.7333 24.8084 15.7817ZM28.0707 15.766C27.9226 15.9139 28.1461 16.1524 28.3074 16.0187C28.444 15.9053 28.4088 15.7261 28.25 15.7261C28.1732 15.7261 28.0925 15.7441 28.0707 15.766ZM31.2589 15.8158C31.1995 15.8873 31.1995 15.9235 31.2589 15.9951C31.3546 16.1103 31.492 16.11 31.5364 15.9943C31.5708 15.9048 31.4656 15.7261 31.3785 15.7261C31.3536 15.7261 31.2998 15.7665 31.2589 15.8158ZM22.7362 15.8647C22.6757 16.0221 22.7635 16.0847 23.0446 16.0847C23.2304 16.0847 23.3227 16.0566 23.3474 15.9925C23.3955 15.8672 23.371 15.852 23.0506 15.8081C22.8281 15.7776 22.7653 15.7889 22.7362 15.8647ZM24.0056 15.9453C23.9353 16.0156 23.963 16.1904 24.0498 16.2237C24.1523 16.263 24.3516 16.0575 24.2969 15.969C24.2532 15.8984 24.0676 15.8833 24.0056 15.9453ZM20.6251 16.2105C20.484 16.3619 20.4547 16.6226 20.5788 16.6226C20.7009 16.6226 20.8991 16.2222 20.8174 16.1405C20.7695 16.0927 20.7172 16.1117 20.6251 16.2105ZM31.7015 16.3471C31.6471 16.4887 31.771 16.6126 31.8691 16.5146C31.9254 16.4582 31.9194 16.4206 31.8414 16.3426C31.7481 16.2494 31.7389 16.2497 31.7015 16.3471ZM27.4381 16.8964C27.2658 17.0413 27.1972 17.2634 27.2945 17.3607C27.3548 17.421 27.7319 17.0351 27.7319 16.9132C27.7319 16.739 27.6319 16.7333 27.4381 16.8964ZM20.2116 16.9333C20.1147 17.0302 20.1203 17.28 20.2194 17.28C20.3205 17.28 20.466 17.0139 20.4124 16.9271C20.36 16.8424 20.3007 16.8442 20.2116 16.9333ZM31.8032 17.123C31.7132 17.2315 31.782 17.3995 31.9165 17.3995C31.9752 17.3995 32.04 17.3557 32.0605 17.3023C32.0971 17.207 32.0056 17.0409 31.9165 17.0409C31.8917 17.0409 31.8407 17.0779 31.8032 17.123ZM31.5379 17.7979C31.4751 17.8607 31.4913 18.0457 31.5635 18.0903C31.5996 18.1126 31.6713 18.0886 31.7228 18.0371C31.8 17.9599 31.803 17.927 31.7396 17.8507C31.6563 17.7503 31.6002 17.7357 31.5379 17.7979ZM19.6375 18.0584C19.4086 18.3117 19.3661 18.5472 19.5432 18.581C19.6691 18.6049 20.0145 17.9674 19.9244 17.8773C19.8779 17.8309 19.7969 17.882 19.6375 18.0584ZM26.9794 17.9594C26.9345 18.0763 26.9956 18.1764 27.1119 18.1764C27.1706 18.1764 27.1955 18.131 27.1831 18.0466C27.1599 17.889 27.028 17.8326 26.9794 17.9594ZM26.6012 18.271C26.4224 18.4214 26.3537 18.6683 26.4705 18.7405C26.5371 18.7816 26.895 18.3828 26.895 18.2675C26.895 18.1131 26.7873 18.1144 26.6012 18.271ZM27.82 18.2388C27.7639 18.3294 27.9158 18.4946 27.9883 18.422C28.0554 18.355 28.0032 18.1764 27.9166 18.1764C27.8847 18.1764 27.8412 18.2045 27.82 18.2388ZM31.1592 18.3305C31.1393 18.3823 31.1626 18.4643 31.211 18.5128C31.2885 18.5903 31.3082 18.5898 31.3753 18.5089C31.4173 18.4583 31.436 18.3763 31.4169 18.3266C31.3714 18.208 31.2052 18.2105 31.1592 18.3305ZM28.2724 18.5619C28.2097 18.6374 28.2097 18.6717 28.2724 18.7472C28.3419 18.8308 28.3583 18.8308 28.442 18.7472C28.5257 18.6635 28.5257 18.6455 28.442 18.5619C28.3583 18.4782 28.3419 18.4782 28.2724 18.5619ZM30.8205 18.6346C30.7578 18.6974 30.774 18.8824 30.8462 18.927C30.8822 18.9493 30.9539 18.9253 31.0054 18.8738C31.0827 18.7966 31.0857 18.7637 31.0223 18.6874C30.939 18.587 30.8828 18.5723 30.8205 18.6346ZM29.0882 18.7529C29.0002 18.8408 29.0464 19.022 29.1517 19.0017C29.2092 18.9906 29.2563 18.9304 29.2563 18.8679C29.2563 18.7489 29.1588 18.6822 29.0882 18.7529ZM19.1065 18.8112C19.0298 18.8877 19.0617 19.1162 19.1604 19.1981C19.2432 19.2668 19.2732 19.2579 19.3721 19.1359C19.4355 19.0577 19.4792 18.9509 19.4693 18.8988C19.4508 18.8008 19.1818 18.7358 19.1065 18.8112ZM29.8043 18.9334C29.7415 18.9962 29.7577 19.1812 29.8299 19.2258C29.866 19.2481 29.9376 19.2241 29.9892 19.1726C30.0664 19.0954 30.0694 19.0625 30.006 18.9862C29.9227 18.8858 29.8666 18.8712 29.8043 18.9334ZM30.3855 18.979C30.3656 19.0306 30.3661 19.1163 30.3864 19.1693C30.4195 19.2556 30.4376 19.2563 30.5572 19.177C30.6308 19.1281 30.691 19.0511 30.691 19.0058C30.691 18.8874 30.4295 18.8644 30.3855 18.979ZM25.9167 19.5553C25.7356 19.6977 25.729 19.726 25.8417 19.88C25.9207 19.9881 25.9305 19.9854 26.0789 19.8167C26.3602 19.4966 26.2393 19.3016 25.9167 19.5553ZM25.2005 20.497C25.0837 20.626 25.0739 20.7544 25.1733 20.8538C25.2864 20.9668 25.3327 20.9408 25.4292 20.71C25.5606 20.3957 25.415 20.26 25.2005 20.497ZM24.8625 21.122C24.694 21.2068 24.6248 21.488 24.7598 21.5398C24.8418 21.5713 25.2211 21.2656 25.2211 21.1679C25.2211 21.1402 25.1786 21.1013 25.1266 21.0813C25.0111 21.037 25.0403 21.0325 24.8625 21.122Z" fill="black"/>
</svg>
