<svg width="58" height="49" viewBox="0 0 58 49" fill="none" xmlns="http://www.w3.org/2000/svg">
<path fill-rule="evenodd" clip-rule="evenodd" d="M51.2797 0.363793C50.547 0.553961 49.8424 0.892536 49.4099 1.26245C49.2042 1.43833 49.034 1.52572 48.9555 1.49556C48.8222 1.44449 48.7789 1.58137 48.904 1.65865C48.9446 1.68375 48.9797 1.76577 48.9818 1.84092C48.9882 2.07064 49.1369 3.14218 49.1767 3.2459C49.1998 3.30598 49.1167 3.36171 48.9603 3.391C48.8206 3.41721 48.4417 3.59356 48.1182 3.78301C47.6589 4.05204 47.5012 4.10951 47.3984 4.04541C47.3019 3.98518 47.1329 4.00697 46.7643 4.12719C45.9273 4.40001 43.931 4.47193 39.6238 4.3843L37.7273 4.3457L36.8975 4.77072L36.0678 5.19581L34.4083 5.30625C33.4956 5.36695 32.1977 5.43326 31.524 5.45347C30.051 5.49776 29.9601 5.51528 29.897 5.76647L29.8481 5.96121L29.7054 5.78494C29.5689 5.6164 29.5012 5.60764 28.1529 5.58396C27.3775 5.5703 26.1919 5.59004 25.5182 5.62777C24.8446 5.6655 23.9378 5.67142 23.5032 5.64087C22.9826 5.60433 22.3623 5.6239 21.6856 5.69826C20.4688 5.83207 19.6728 5.78581 18.6828 5.52389C17.8892 5.31398 16.9515 5.20489 16.6313 5.28517C16.4953 5.31919 16.3829 5.42774 16.3141 5.59114L16.2075 5.8443L16.0738 5.51023C15.925 5.13881 15.9295 5.14079 14.6779 4.90768C13.8226 4.7483 13.8229 4.7483 13.8229 4.92899C13.8229 5.01101 13.7508 5.16202 13.6627 5.26449L13.5024 5.45087L13.3737 5.26914C13.2134 5.04298 12.8084 4.86647 12.2424 4.77616C12.0034 4.73803 11.4522 4.6516 11.0176 4.5841C10.0532 4.43419 8.16728 4.10785 7.28372 3.9379L6.63178 3.81246V3.54059C6.63178 3.39108 6.57844 3.21543 6.51325 3.15031C6.44806 3.08518 6.39472 2.96859 6.39472 2.89123C6.39472 2.67075 6.06582 2.37109 5.64961 2.21226C5.31787 2.08572 5.20289 2.07846 4.75065 2.15582C4.17133 2.25497 3.88566 2.42564 3.70343 2.78158C3.58166 3.01935 3.57842 3.02037 3.40141 2.87717C3.30303 2.7976 3.09354 2.70832 2.93589 2.67872C2.22294 2.54515 0.629129 3.03987 0.336824 3.48557C0.233304 3.64337 0.217736 3.80109 0.257247 4.29005C0.314776 5.00217 0.552399 6.26119 0.819654 7.26997C1.17059 8.59474 1.55852 10.3397 1.70518 11.253C1.83913 12.0875 1.8509 12.7446 1.8509 19.3838V26.6069L1.63841 28.6988C1.52161 29.8493 1.40419 31.1637 1.37748 31.6196C1.35085 32.0755 1.22567 33.674 1.09947 35.1719C0.719689 39.6773 0.592068 42.0143 0.684683 42.7663C0.729094 43.1265 0.747823 43.6394 0.726329 43.9062C0.676386 44.5269 0.777533 44.8218 1.26898 45.4878C1.88678 46.325 2.70158 46.9582 3.59146 47.2929C4.41077 47.601 7.67797 48.1329 8.68638 48.1224C9.55437 48.1134 9.85908 48.0373 10.1541 47.7556C10.7922 47.1464 10.8437 47.1486 11.3427 47.8068L11.6497 48.212L12.0551 48.1655C12.2781 48.1399 12.7531 48.1583 13.1106 48.2064C13.915 48.3145 14.139 48.2424 14.139 47.8757V47.6299L14.5436 47.9933C14.7662 48.1932 15.0299 48.3772 15.1296 48.4021C15.2293 48.4272 15.5874 48.3862 15.9255 48.311C16.4659 48.1909 16.7888 48.1817 18.5992 48.2353C21.3469 48.3164 21.3361 48.3165 22.8315 48.2087C23.5486 48.1571 24.5746 48.0841 25.1114 48.0465C25.9224 47.9897 26.1266 47.9491 26.3199 47.8064C26.5177 47.6603 26.5905 47.6469 26.8059 47.7169C27.0422 47.7937 31.4292 47.8975 33.7362 47.8809C34.6348 47.8743 34.7532 47.8563 35.0545 47.6799C35.2366 47.5733 35.4132 47.4062 35.4468 47.3087C35.5018 47.1496 35.5125 47.1598 35.5509 47.4076L35.5937 47.6839L36.2639 47.7071C36.8123 47.7262 36.9513 47.7068 37.029 47.6008C37.1107 47.489 37.1793 47.4831 37.5282 47.5578C38.6727 47.8031 43.5668 47.4692 43.9303 47.1212C44.0346 47.0212 44.0187 46.9846 43.7956 46.8101C43.6413 46.6895 43.56 46.5674 43.5871 46.4969C43.6599 46.3071 43.8358 46.3637 44.1922 46.6918L44.5292 47.0022L47.213 46.9304C49.6047 46.8663 50.3067 46.815 50.9496 46.6574C51.1759 46.6019 51.4731 45.9856 51.3939 45.7362C51.3647 45.6443 51.1945 45.4105 51.0157 45.2167L50.6906 44.8644L50.9948 44.9914C51.1621 45.0612 51.3089 45.1184 51.321 45.1184C51.3332 45.1184 51.4166 45.2427 51.5063 45.3947C51.6655 45.6642 51.6818 45.671 52.17 45.671C52.4453 45.671 52.7077 45.7081 52.7533 45.7537C52.811 45.8113 53.2409 45.682 54.1718 45.3272C54.9064 45.0472 55.7197 44.758 55.9792 44.6847C56.9245 44.4174 57.2854 44.1278 57.2854 43.6365C57.2854 43.2986 57.1309 43.0062 56.6912 42.5115C56.4965 42.2925 56.3372 42.0386 56.3372 41.9472C56.3372 41.8559 56.474 41.6327 56.6414 41.4514C56.8823 41.1902 56.9719 41.0055 57.0719 40.5629C57.1901 40.0397 57.1886 39.936 57.0478 38.9375C56.9651 38.3509 56.7712 37.2548 56.6171 36.5017C56.2307 34.6146 56.1818 33.8122 56.1801 29.3303C56.1787 25.2969 56.1432 24.4773 55.8459 21.5942C55.6361 19.561 55.6113 16.6983 55.7625 11.9634C55.8856 8.10626 56.0961 5.81881 56.3773 5.28012C56.4416 5.15697 56.4944 5.02064 56.4947 4.97722C56.495 4.93373 56.673 4.45772 56.8903 3.91934C57.1076 3.38105 57.2854 2.8381 57.2854 2.71298C57.2854 2.58778 57.1943 2.30573 57.0829 2.08619C56.367 0.67466 54.4579 -0.181763 53.3283 0.401764C53.1228 0.507939 53.0365 0.517175 52.9213 0.445339C52.7943 0.366083 52.7607 0.388976 52.6641 0.619718C52.603 0.765758 52.5283 1.07181 52.498 1.29979C52.4677 1.52777 52.4179 1.67389 52.3874 1.62455C52.3179 1.51214 52.4233 0.821411 52.5445 0.595089C52.7716 0.171259 52.3317 0.0908177 51.2797 0.363793ZM52.2631 0.931532C52.2308 1.15943 52.2088 1.54135 52.2141 1.78014C52.2262 2.31867 52.456 3.35871 52.5971 3.51399C52.6861 3.61195 52.7031 3.57588 52.7087 3.27717C52.7125 3.08337 52.7747 2.46455 52.847 1.90202L52.9787 0.879274L53.3343 0.772152C53.5556 0.705526 53.9287 0.676792 54.3221 0.696133C55.3932 0.748707 56.1839 1.27548 56.7951 2.34346L57.0497 2.78844L56.7344 3.44862C56.1266 4.72146 55.7744 6.23498 55.4326 9.04265C55.268 10.3956 55.0455 16.7494 55.1079 18.3181C55.15 19.3785 55.439 22.4345 55.5893 23.4098C55.6128 23.5617 55.6629 26.1727 55.7008 29.2119C55.7637 34.2575 55.7836 34.8097 55.9294 35.5666C56.3631 37.8177 56.7482 39.9977 56.7176 40.0282C56.6988 40.0471 56.4899 39.9862 56.2534 39.8931C55.9523 39.7745 55.6407 39.7222 55.2132 39.7184C54.518 39.7123 54.5458 39.7453 54.4804 38.8481C54.4292 38.145 54.3197 38.1495 54.0516 38.8658C53.9337 39.1806 53.8085 39.3683 53.6562 39.4581C53.4435 39.5836 53.4117 39.5809 52.9556 39.3957C52.3233 39.139 51.9131 39.0802 51.5624 39.1959C51.2057 39.3134 50.8379 39.6169 50.6783 39.925C50.6116 40.0542 50.5433 40.1463 50.5268 40.1297C50.4801 40.0831 50.7169 37.8912 50.8449 37.1849C50.9761 36.461 51.1666 34.8309 51.2415 33.7904C51.2697 33.3997 51.3594 32.4725 51.441 31.7301C51.7355 29.0474 51.7768 27.9984 51.7275 24.436C51.7014 22.5474 51.628 20.2916 51.5643 19.4233C51.4304 17.5995 51.4037 17.1782 51.2387 14.2922C51.102 11.9018 50.9277 10.2188 50.5235 7.3849C50.2198 5.25588 50.1019 4.72493 49.5632 3.06237L49.1986 1.93692L49.3896 1.73286C49.8193 1.27413 50.702 0.866012 51.7538 0.640006C52.0363 0.579301 52.2797 0.526805 52.2947 0.523331C52.3096 0.519937 52.2954 0.703632 52.2631 0.931532ZM5.6843 2.66822C5.82797 2.76595 6.01817 2.9438 6.10699 3.06355C6.26038 3.27038 6.26362 3.31758 6.17084 4.01084C5.81492 6.67239 5.75526 7.60673 5.68359 11.6477C5.64392 13.8837 5.57478 16.3703 5.52997 17.1735C5.44059 18.7736 5.52025 21.8706 5.71773 24.4755C5.78024 25.3004 5.85301 26.4016 5.87941 26.9226C5.96665 28.6444 6.31562 33.0782 6.55972 35.5666C6.72946 37.2974 7.34892 41.9317 7.54102 42.908C7.57113 43.0609 7.54474 43.0404 7.42415 42.8174C7.09533 42.2093 6.19036 41.6359 5.29725 41.4701C4.38501 41.3006 3.52848 41.5506 2.72647 42.2206C2.36834 42.5197 2.33089 42.5341 2.25234 42.4016C1.91807 41.8382 1.73237 41.8492 1.73237 42.4326C1.73237 42.929 1.68203 43.0471 1.41059 43.1873C1.28763 43.2508 1.17636 43.3027 1.1634 43.3028C1.12081 43.3029 1.24203 40.6 1.32619 39.6707C1.37147 39.1719 1.42955 38.4795 1.45539 38.1322C1.48131 37.7848 1.5887 36.5593 1.6942 35.4087C1.79969 34.2582 1.94004 32.5478 2.0061 31.6077C2.07216 30.6678 2.1975 29.2824 2.28474 28.5291C2.57396 26.0304 2.62296 24.2112 2.56566 18.0915C2.52568 13.8081 2.4838 12.155 2.40193 11.6184C2.34148 11.222 2.09042 10.1873 1.84411 9.31894C1.37858 7.67801 0.609454 4.71988 0.515812 4.21048C0.464921 3.93347 0.478749 3.90671 0.768131 3.7242C1.16625 3.47317 2.04095 3.20462 2.64714 3.14731L3.1272 3.10184L3.23491 3.36858C3.3551 3.66602 3.69514 4.14835 3.78475 4.14835C3.81667 4.14835 3.86599 3.87411 3.89435 3.53893C3.92667 3.15686 3.99092 2.88444 4.06654 2.80873C4.40769 2.46716 5.27749 2.39161 5.6843 2.66822ZM49.4502 4.50358C49.9319 7.06567 50.4242 11.2731 50.6463 14.7264C50.8163 17.3686 50.8918 18.4121 51.0772 20.6863C51.3906 24.5318 51.4321 29.4459 51.1678 31.4222C51.0981 31.9432 50.9884 33.08 50.924 33.9483C50.7851 35.822 50.7598 36.0723 50.5687 37.4612C50.1551 40.4669 50.1538 40.5947 50.5257 41.3671C50.8523 42.0455 51.1646 42.2938 51.9119 42.4693C52.8735 42.6951 53.568 42.6027 54.0806 42.1807L54.3616 41.9492V40.9988V40.0483L55.1716 40.0794C56.1592 40.1173 56.5984 40.2875 56.6397 40.6481C56.6588 40.8155 56.6025 40.9398 56.4246 41.1231C55.9175 41.6459 55.9367 42.1204 56.5028 43.0581C56.6725 43.3391 56.8113 43.6148 56.8113 43.6707C56.8113 43.7965 56.5169 43.9513 55.7247 44.242C55.3879 44.3656 54.6794 44.669 54.1503 44.9164C53.2487 45.3377 53.1694 45.3606 52.8859 45.2821C52.7197 45.2359 52.4287 45.198 52.2394 45.1978C51.968 45.1974 51.8627 45.1562 51.7421 45.003C51.6566 44.8945 51.4057 44.7508 51.1746 44.678C50.8654 44.5807 50.6131 44.4096 50.1806 44.0041C49.8617 43.7052 49.5696 43.4606 49.5316 43.4606C49.425 43.4606 49.4491 43.6312 49.5755 43.7706C49.8748 44.1011 51.0406 45.8041 51.0415 45.9124C51.0435 46.1301 50.8489 46.3092 50.5269 46.3863C50.1678 46.4722 47.8164 46.5971 45.9313 46.6303L44.6527 46.6528L44.2985 46.3987C44.1036 46.259 43.9056 46.1446 43.8584 46.1446C43.7395 46.1446 43.7496 46.0227 43.9253 45.3364C44.0776 44.7413 44.0681 44.3753 43.9016 44.4307C43.8533 44.4468 43.7673 44.6348 43.7106 44.8484C43.6538 45.062 43.517 45.5358 43.4067 45.9013C43.2963 46.2667 43.2213 46.6454 43.2399 46.7427C43.2793 46.9485 43.2715 46.9501 41.5599 47.1104C40.3926 47.2197 37.9749 47.242 37.5198 47.1478C37.2657 47.0951 37.2276 47.0551 37.1835 46.7941C37.1222 46.4318 36.8797 46.0975 36.7405 46.1834C36.6694 46.2273 36.6519 46.4004 36.6796 46.7869L36.7184 47.3287H36.3038H35.8892L35.8333 46.434C35.8024 45.942 35.7489 45.4933 35.7141 45.4371C35.6017 45.2556 35.4751 45.4345 35.4755 45.7743C35.4757 45.9562 35.3843 46.3565 35.2724 46.6637C35.0482 47.2788 34.8325 47.4748 34.3602 47.4923C34.2128 47.4978 33.9213 47.5383 33.7124 47.5823C33.4173 47.6445 33.1775 47.6322 32.6364 47.5272C32.0137 47.4064 31.6876 47.4003 29.553 47.4696C26.9962 47.5526 26.5787 47.5186 26.669 47.2345C26.6945 47.1541 26.6917 46.9809 26.6629 46.8495C26.6201 46.6551 26.5896 46.6279 26.4989 46.7031C26.4377 46.7539 26.3875 46.8937 26.3875 47.0139C26.3875 47.134 26.3248 47.3097 26.248 47.4043C26.1164 47.5668 26.0144 47.5804 24.4107 47.6494C23.4769 47.6895 22.3573 47.7588 21.9225 47.8031C21.363 47.8603 20.8321 47.8578 20.105 47.7944C18.8579 47.6858 16.7003 47.7559 15.8929 47.9314L15.3158 48.0569L14.7683 47.5289C14.0997 46.884 13.9518 46.8734 13.9175 47.4676C13.8907 47.9305 13.8484 47.9511 13.2302 47.8005C13.0563 47.7582 12.6386 47.7214 12.302 47.7187L11.6899 47.7137L11.2504 47.2748L10.8111 46.8358L10.858 46.431C10.9204 45.8925 10.815 45.3246 10.6467 45.2921C10.4683 45.2579 10.3142 46.02 10.3669 46.6758C10.3888 46.9481 10.3774 47.1708 10.3416 47.1708C10.3057 47.1708 10.107 47.3173 9.89978 47.4965L9.52315 47.8222L8.53181 47.7781C7.98663 47.754 7.29163 47.6807 6.98739 47.6154C6.68315 47.5501 5.92745 47.4055 5.30815 47.2941C4.07555 47.0725 3.45404 46.8308 2.74078 46.2958C2.06031 45.7853 1.10018 44.5746 1.10018 44.2271C1.10018 43.9772 1.345 43.6441 1.62743 43.5095C1.81242 43.4214 1.90819 43.3128 1.93972 43.1551C1.98247 42.9414 1.99891 42.9328 2.21172 43.0131C2.40849 43.0873 2.46499 43.0733 2.64263 42.9067C2.92332 42.6432 2.99397 42.7787 2.99555 43.584C2.99665 44.1748 3.01238 44.2354 3.21405 44.4276C3.50303 44.703 3.74935 44.7875 4.52203 44.8763C4.87835 44.9172 5.27717 45.0047 5.40827 45.0706C5.72278 45.2288 6.45904 45.1299 6.99434 44.8576C7.4394 44.6312 7.88683 44.1613 7.98647 43.8159C8.07221 43.5186 7.91203 41.8047 7.54766 39.1189C7.10916 35.8878 6.66505 30.8975 6.43415 26.6069C6.40839 26.1293 6.33584 25.0458 6.27286 24.1992C6.0452 21.1387 6.00213 18.9171 6.12114 16.3645C6.18238 15.051 6.23525 12.7864 6.23857 11.3319C6.24196 9.87744 6.2765 8.29666 6.31538 7.81908C6.35426 7.34149 6.43043 6.31787 6.48464 5.54433C6.56967 4.33299 6.60041 4.14361 6.7063 4.17914C7.90034 4.57936 9.97951 4.94533 11.5312 5.0283C12.5249 5.08143 12.8539 5.12532 12.9141 5.21294C12.9576 5.27625 13.0803 5.47107 13.1868 5.64601C13.4499 6.07789 13.6149 6.05713 13.8668 5.56059C14.0628 5.17418 14.0821 5.1595 14.3225 5.21262C14.4606 5.24309 14.834 5.29583 15.1523 5.32985C15.4707 5.36379 15.7719 5.43224 15.8216 5.48189C15.945 5.60519 15.986 6.51893 15.8974 7.17121C15.815 7.77787 15.905 7.95904 16.0343 7.44648C16.0811 7.26065 16.1775 6.87771 16.2486 6.5955C16.3195 6.31329 16.4284 5.98008 16.4905 5.85504C16.5981 5.63811 16.6221 5.62967 17.0109 5.6719C17.235 5.69621 17.7384 5.81383 18.1296 5.93335C19.0637 6.21864 19.6859 6.22551 26.1928 6.02247C29.0623 5.93288 29.5484 5.96011 29.5484 6.21011C29.5484 6.52461 29.7273 7.06914 29.8307 7.06914C29.9479 7.06914 30.0998 6.60576 30.1024 6.24027C30.1032 6.11002 30.1301 5.96382 30.162 5.91535C30.2013 5.85575 30.6552 5.82938 31.5635 5.83388C32.3024 5.83759 33.6181 5.78099 34.4873 5.70821L36.0678 5.57591L36.858 5.15942L37.6483 4.74285L38.5175 4.74427C38.9956 4.74506 40.7767 4.77095 42.4756 4.80182C45.1741 4.85084 45.6184 4.84208 45.9921 4.73282C46.2273 4.66399 46.4536 4.57534 46.4949 4.53587C46.6415 4.39575 46.6669 4.47074 46.6619 5.02877C46.6588 5.37706 46.6906 5.60504 46.7449 5.62382C46.7933 5.64048 46.9505 5.36956 47.0943 5.02159C47.3188 4.47856 47.3791 4.39409 47.5199 4.42511C47.6202 4.44722 47.9917 4.29794 48.4744 4.04154C48.909 3.81064 49.2696 3.62482 49.2758 3.62853C49.2819 3.63224 49.3604 4.02599 49.4502 4.50358ZM30.4177 14.9472C30.4177 14.985 30.3733 15.0189 30.3189 15.0226C30.2646 15.0264 30.1312 15.0536 30.0226 15.0829C29.9139 15.1124 29.6243 15.1479 29.3789 15.1619C29.1335 15.1759 28.8224 15.2444 28.6875 15.3141C28.5525 15.3838 28.4421 15.4151 28.4421 15.3836C28.4421 15.3521 28.3994 15.3689 28.3473 15.421C28.2951 15.4731 28.1873 15.5158 28.1077 15.5158C28.0281 15.5158 27.9425 15.569 27.9175 15.6342C27.8925 15.6993 27.8095 15.7526 27.7331 15.7526C27.6567 15.7526 27.494 15.8313 27.3715 15.9275C27.249 16.0237 27.0753 16.1136 26.9855 16.1271C26.8956 16.1407 26.8103 16.1864 26.7958 16.2285C26.7813 16.2707 26.7327 16.3052 26.6879 16.3052C26.6431 16.3052 26.4023 16.4819 26.1526 16.698C25.903 16.9139 25.6788 17.0708 25.6544 17.0464C25.6301 17.022 25.5749 17.0678 25.5319 17.148C25.4889 17.2283 25.3318 17.4231 25.1826 17.5811C24.7992 17.9872 24.6287 18.3728 24.723 18.6206C24.8217 18.8799 25.0907 18.9639 25.2787 18.7941C25.3882 18.695 25.4309 18.6881 25.4566 18.7649C25.4797 18.834 25.5557 18.801 25.6957 18.6611C25.8087 18.5483 26.204 18.3095 26.5742 18.1305C26.9444 17.9515 27.2677 17.7722 27.2925 17.7321C27.34 17.6553 28.1266 17.3672 28.22 17.3924C28.2499 17.4005 28.2969 17.3363 28.3244 17.2497C28.3519 17.1631 28.4057 17.1115 28.4438 17.1351C28.4821 17.1587 28.6662 17.1092 28.853 17.0252C29.3534 16.8001 29.5687 16.7645 30.6247 16.7323C31.4709 16.7065 31.6023 16.7202 31.752 16.8499C32.0504 17.1085 32.3317 17.7326 32.3321 18.1372C32.3325 18.5174 32.0967 19.3049 31.9825 19.3049C31.9476 19.3049 31.9191 19.3948 31.9191 19.5047C31.9191 19.6147 31.8658 19.725 31.8006 19.75C31.7354 19.775 31.682 19.8624 31.682 19.9442C31.682 20.0948 31.3887 20.489 31.2767 20.489C31.1821 20.489 30.8128 20.8526 30.8128 20.9458C30.8128 20.9918 30.6915 21.0694 30.5432 21.1182C30.3949 21.1671 30.2538 21.2587 30.2296 21.3217C30.2053 21.3847 30.1133 21.4363 30.025 21.4363C29.9303 21.4363 29.8645 21.4882 29.8645 21.5631C29.8645 21.6435 29.821 21.6733 29.746 21.6445C29.6782 21.6186 29.6274 21.6429 29.6274 21.7012C29.6274 21.7574 29.5551 21.8717 29.4666 21.9553C29.3782 22.0389 29.2458 22.1695 29.1725 22.2454C29.0992 22.3214 28.976 22.3836 28.8987 22.3836C28.8214 22.3836 28.7582 22.4216 28.7582 22.4681C28.7582 22.5774 28.5571 22.7783 28.4477 22.7783C28.4012 22.7783 28.3631 22.8138 28.3631 22.8572C28.3631 22.9006 28.278 22.9361 28.174 22.9361C28.07 22.9361 27.9635 22.9917 27.9375 23.0595C27.9114 23.1274 27.8542 23.1609 27.8105 23.1338C27.7649 23.1057 27.7309 23.1722 27.7309 23.2897C27.7309 23.4542 27.6957 23.4916 27.5531 23.4794C27.2134 23.4503 27.1374 23.4922 26.9978 23.7856C26.8771 24.0392 26.8601 24.2754 26.8767 25.4622C26.8873 26.222 26.8683 26.8883 26.8344 26.9428C26.7436 27.0889 26.9506 27.6067 27.0799 27.5572C27.1407 27.5338 27.164 27.5519 27.1344 27.5998C27.0403 27.7519 27.3636 27.9038 27.7506 27.8892C27.957 27.8814 28.126 27.8451 28.126 27.8087C28.126 27.7721 28.1587 27.7624 28.1987 27.7871C28.2387 27.8117 28.3406 27.744 28.4253 27.6365C28.5099 27.5291 28.6035 27.4654 28.6333 27.4952C28.6631 27.525 28.6654 27.4919 28.6385 27.4216C28.6114 27.3514 28.6273 27.2704 28.6738 27.2417C28.821 27.1508 28.7651 26.8348 28.5635 26.6174C28.3651 26.4036 28.3684 26.1727 28.5696 26.1727C28.6569 26.1727 28.6732 26.06 28.6467 25.6399C28.6145 25.1289 28.6229 25.0979 28.8525 24.8863C28.9843 24.7649 29.1321 24.6789 29.1811 24.6953C29.2301 24.7116 29.3354 24.6421 29.415 24.541C29.4947 24.4398 29.6165 24.3571 29.6858 24.3571C29.7551 24.3571 29.7883 24.3335 29.7596 24.3049C29.7022 24.2475 30.2629 23.8358 30.3584 23.8652C30.391 23.8752 30.4177 23.828 30.4177 23.7604C30.4177 23.6927 30.4532 23.6592 30.4967 23.6861C30.5401 23.7129 30.5757 23.6794 30.5757 23.6118C30.5757 23.5441 30.6053 23.4887 30.6415 23.4887C30.6778 23.4887 30.8347 23.3616 30.9902 23.2063C31.1457 23.0509 31.3917 22.8586 31.5368 22.779C31.6819 22.6994 31.7902 22.5913 31.7776 22.5387C31.7638 22.4816 31.8036 22.462 31.8763 22.4898C31.952 22.5188 31.9981 22.4926 31.9981 22.4206C31.9981 22.3568 32.0372 22.3046 32.085 22.3046C32.1327 22.3046 32.2703 22.1993 32.3906 22.0706C32.5111 21.9418 32.632 21.8589 32.6594 21.8864C32.6869 21.9138 32.7093 21.8796 32.7093 21.8104C32.7093 21.7411 32.8022 21.6116 32.9157 21.5224C33.0292 21.4332 33.1666 21.2308 33.221 21.0727C33.2782 20.9065 33.3432 20.8225 33.3749 20.8738C33.4564 21.0056 33.5809 20.9815 33.5282 20.8442C33.5031 20.7791 33.5174 20.7258 33.5598 20.7258C33.6023 20.7258 33.6555 20.5623 33.6781 20.3624C33.7006 20.1625 33.7885 19.9049 33.8735 19.7901C34.0428 19.5611 34.1056 19.2929 34.1723 18.5155C34.1965 18.2333 34.2313 17.9311 34.2497 17.8439C34.2681 17.7568 34.1972 17.5437 34.092 17.3703C33.9869 17.1969 33.7953 16.8497 33.6662 16.5986C33.429 16.137 32.7733 15.4368 32.5782 15.4368C32.5199 15.4368 32.4723 15.4051 32.4723 15.3663C32.4723 15.2785 32.2666 15.1912 31.967 15.1516C31.8412 15.135 31.6989 15.0924 31.6509 15.0569C31.6029 15.0214 31.3679 14.9985 31.1289 15.006C30.8898 15.0135 30.632 14.9879 30.556 14.9491C30.4791 14.91 30.4177 14.9092 30.4177 14.9472ZM33.0254 16.8577C32.9338 17.0287 32.7501 17.0665 32.6666 16.9314C32.584 16.798 32.6934 16.7463 32.826 16.8562C32.9255 16.9387 32.9464 16.9338 32.9464 16.8279C32.9464 16.7575 32.9832 16.6999 33.0282 16.6999C33.0837 16.6999 33.0828 16.7507 33.0254 16.8577ZM27.7309 31.3989C27.7309 31.4334 27.6831 31.4617 27.6246 31.4617C27.4256 31.4617 27.2617 31.7441 27.2104 32.1757C27.1822 32.4125 27.1441 32.6319 27.1257 32.6632C27.077 32.7461 27.2931 33.1249 27.5344 33.3793C27.6783 33.531 27.7908 33.5847 27.8953 33.5516C27.9802 33.5247 28.047 33.5406 28.047 33.5878C28.047 33.7475 28.3243 33.6711 28.6001 33.4352C28.7523 33.3052 28.9018 33.1987 28.9324 33.1985C28.9907 33.1984 29.0442 32.9279 29.1042 32.33C29.1447 31.9269 28.972 31.6552 28.5304 31.427C28.2831 31.2992 27.7309 31.2798 27.7309 31.3989ZM52.9032 39.716C53.0041 39.843 53.0165 40.0326 52.9759 40.8359C52.933 41.6843 52.9423 41.8029 53.0516 41.8029C53.1201 41.8029 53.1762 41.7652 53.1762 41.7192C53.1762 41.6707 53.301 41.6458 53.4726 41.66C53.7078 41.6794 53.774 41.7201 53.7935 41.857C53.8136 41.9975 53.7621 42.0452 53.5169 42.1132C53.3513 42.1591 53.1506 42.1969 53.0709 42.1971C52.7365 42.1981 51.6133 41.8566 51.3435 41.6717C50.9565 41.4068 50.7168 40.9279 50.8095 40.605C50.9088 40.259 51.2437 39.853 51.5803 39.6702C51.9664 39.4606 52.7209 39.4867 52.9032 39.716ZM5.48595 42.1261C5.6598 42.173 6.06076 42.3713 6.37686 42.5666C6.81456 42.8369 7.01828 43.0257 7.23086 43.3575C7.62479 43.9726 7.5867 44.1211 6.94788 44.4608C6.29056 44.8103 5.95906 44.8032 4.10305 44.3998C3.7706 44.3275 3.54989 44.1624 3.54989 43.9859C3.54989 43.9441 3.69688 43.7702 3.87649 43.5995C4.19567 43.2961 4.20104 43.2825 4.11356 42.9908C4.06433 42.8267 4.02403 42.5657 4.02403 42.4107C4.02403 42.1641 4.05106 42.125 4.24134 42.0962C4.67597 42.0305 5.17682 42.0425 5.48595 42.1261Z" fill="black"/>
</svg>
