<svg width="43" height="42" viewBox="0 0 43 42" fill="none" xmlns="http://www.w3.org/2000/svg">
<path fill-rule="evenodd" clip-rule="evenodd" d="M34.157 0.304153C33.2719 0.478843 32.1405 0.744553 31.6948 0.882498C31.4641 0.95394 31.4343 0.950326 31.3333 0.838705C31.126 0.60956 30.799 0.488903 30.3851 0.488903C29.5305 0.488903 29.0574 0.676304 28.2535 1.3332C27.8021 1.7021 27.7043 1.81131 27.7153 1.93407C27.7226 2.01666 27.7718 2.09232 27.8244 2.10232C27.8772 2.11232 28.2025 1.93486 28.5475 1.70806C29.2954 1.21628 29.5196 1.12092 30.1266 1.03653C30.6832 0.959121 30.7747 0.987914 31.2733 1.39687C31.4778 1.56457 32.0404 1.91004 32.5236 2.16454C34.9766 3.45677 34.944 3.42755 35.9247 5.21758C36.6462 6.53451 36.9258 6.94816 37.4565 7.48338C37.9333 7.96432 38.7162 8.51297 39.2519 8.74175C39.4259 8.81602 39.5682 8.9006 39.5682 8.92963C39.5682 8.95867 39.6047 8.98246 39.6492 8.98246C39.6938 8.98246 39.9712 9.11119 40.2657 9.26859C40.6564 9.47732 40.9343 9.68628 41.2932 10.0412C41.7147 10.458 41.8287 10.6176 42.0892 11.1556C42.4724 11.947 42.5651 12.3058 42.6489 13.3196C42.8184 15.3732 42.5499 16.9343 41.7525 18.5302C41.2228 19.5901 40.5721 20.3945 39.4779 21.3417C39.1133 21.6572 38.4783 22.2651 38.0666 22.6926C37.3879 23.3972 37.3219 23.4507 37.3587 23.2664C37.381 23.1546 37.3996 23.0326 37.4001 22.9953C37.4006 22.958 37.4266 22.968 37.4578 23.0174C37.5659 23.1884 37.6467 22.985 37.7017 22.4031C37.7314 22.089 37.8362 21.333 37.9345 20.7232C38.2038 19.0524 38.2585 18.3525 38.227 16.9848C38.2031 15.9442 38.1785 15.691 38.0639 15.3075C37.7407 14.2258 37.1817 13.5726 35.9531 12.841C34.1559 11.7708 33.7817 11.4429 33.2886 10.5071C32.8726 9.71767 32.764 9.12534 32.6998 7.2958C32.6299 5.3068 32.5558 4.98675 32.0569 4.51913C31.5174 4.01355 31.0945 3.89928 29.7471 3.89518C28.8188 3.89235 28.8114 3.89127 28.5119 3.71164C28.3462 3.61224 28.1859 3.53092 28.1558 3.53092C28.1256 3.53092 28.0971 3.74778 28.0926 4.01283C28.086 4.39172 28.0512 4.56557 27.9298 4.82604C27.704 5.31041 27.3173 5.74708 26.7994 6.10242C25.7661 6.81142 25.471 7.18659 25.4698 7.79276C25.4694 7.95016 25.4607 8.07889 25.4504 8.07889C25.44 8.07889 25.317 8.02359 25.1771 7.95595C25.0371 7.88836 24.7683 7.80457 24.5798 7.76969C24.1741 7.69469 23.5467 7.42194 23.3672 7.24249C23.1585 7.03382 23.205 6.78046 23.5993 5.97954C23.8496 5.47125 23.9891 5.09783 24.0583 4.75146C24.1837 4.12433 24.2595 3.94024 24.5105 3.65441C24.9309 3.17582 26.141 2.48507 26.8322 2.32929C27.0601 2.27791 27.3076 2.22183 27.3822 2.2046C27.4771 2.18267 27.5177 2.12924 27.5177 2.02654C27.5177 1.90564 27.4794 1.87263 27.2994 1.8389C26.8584 1.75619 26.1587 1.85052 25.7317 2.05021C24.744 2.51236 24.1723 2.96673 23.8999 3.5061C23.8052 3.69362 23.6811 3.865 23.624 3.88687C23.3735 3.98295 21.9517 4.98187 21.4021 5.44787C20.9202 5.85647 20.7412 6.0555 20.5078 6.44204C20.013 7.26182 19.9624 7.50862 20.1911 7.98853C20.3809 8.38695 20.5304 8.5776 21.2005 9.27558C22.2282 10.3461 22.4883 10.6321 23.207 11.4823C23.5992 11.9462 24.2482 12.6873 24.6494 13.1294C26.1715 14.8065 26.1601 14.7908 26.3003 15.399C26.433 15.9748 26.5633 16.6788 26.6738 17.4158C26.7588 17.9833 26.7603 19.8284 26.6762 20.4277C26.5501 21.3268 26.4172 21.8539 26.1747 22.4155C25.9017 23.0477 25.4987 23.8415 25.3795 23.9817C25.3373 24.0314 25.2521 24.172 25.1901 24.2941C24.9469 24.7735 23.1614 26.6068 21.793 27.782C19.5827 29.6803 17.7764 30.7994 15.9191 31.4209C13.7299 32.1535 11.9314 32.1517 10.0902 31.4153C7.64754 30.4383 5.71012 28.1155 4.39209 24.5841C4.06378 23.7044 3.65773 22.3622 3.65773 22.1566C3.65773 22.0795 3.80644 21.8845 4.03431 21.663C4.68902 21.0263 6.5889 20.0436 9.63744 18.765C10.275 18.4976 11.1234 17.9141 12.1345 17.0475C12.6922 16.5696 12.8963 16.2831 13.2352 15.5016C13.9798 13.7852 14.2138 12.5214 14.0795 10.9402C14.0401 10.4764 13.9885 10.0895 13.9649 10.0804C13.9413 10.0713 13.9343 9.9797 13.9494 9.87687C13.9646 9.77339 13.9516 9.70014 13.9202 9.71273C13.8891 9.72519 13.6242 10.0015 13.3316 10.3267C12.497 11.2542 11.5044 12.046 10.8278 12.324C10.1856 12.588 8.92513 12.9954 8.0396 13.2253C7.58313 13.3438 7.04188 13.5206 6.83678 13.6183C6.63168 13.7159 6.45562 13.7876 6.44556 13.7775C6.4355 13.7675 6.47195 13.5858 6.5266 13.3737C6.60613 13.0653 6.6265 12.6753 6.62842 11.4221C6.63071 9.92669 6.62384 9.83007 6.47653 9.28365C6.30933 8.6635 5.59413 7.03665 5.4059 6.84829C5.29118 6.73354 5.28914 6.7339 5.23798 6.87841C4.89322 7.85179 4.7189 8.2743 4.42071 8.85976C3.97954 9.72574 3.86512 9.89694 2.78859 11.3016C1.59571 12.8582 1.22938 13.5822 0.87877 15.0761C0.717956 15.7615 0.689814 15.9993 0.687524 16.6929C0.684752 17.5082 0.82038 18.4833 1.04627 19.272C1.09664 19.448 1.20238 19.8773 1.28119 20.2261C1.36006 20.5749 1.49708 21.0136 1.58571 21.2011C1.6744 21.3887 1.74977 21.5958 1.75333 21.6615C1.75688 21.7271 1.80497 21.7897 1.86022 21.8004C1.93891 21.8158 1.97566 21.7443 2.02971 21.4702C2.19932 20.6107 2.80679 18.849 3.1577 18.1989C3.7436 17.1134 4.46644 16.1513 5.23846 15.4293C6.26878 14.4656 7.07767 14.0072 8.41768 13.6274C10.1167 13.1458 11.3027 12.6108 12.0201 12.0022C12.565 11.54 13.2998 10.8174 13.6342 10.4149L13.8705 10.1304L13.89 11.0775C13.9208 12.5755 13.7198 13.523 13.0866 14.8651C12.6055 15.8848 12.4077 16.1463 11.7098 16.6853C10.4465 17.6612 9.8476 18.0186 8.32731 18.7041C5.24858 20.0922 3.93694 20.9257 3.51494 21.7624C3.45908 21.8731 3.38286 22.0073 3.34551 22.0605C3.29393 22.1341 3.30616 22.2745 3.39678 22.6478C3.51023 23.115 3.51072 23.1384 3.40805 23.1384C3.26458 23.1384 2.88228 23.5266 2.77654 23.7796C2.68219 24.0053 2.6538 24.0161 2.48636 23.8894C2.34965 23.7861 2.13166 23.7751 1.96668 23.8634C1.85895 23.921 1.85022 23.904 1.85124 23.6375C1.85184 23.4789 1.89203 23.0917 1.94054 22.777C2.06201 21.9892 2.05839 21.8734 1.91276 21.8734C1.82232 21.8734 1.77249 21.9476 1.70055 22.1896C1.44815 23.0382 1.21509 25.1222 1.27631 25.9822C1.29119 26.1906 1.31976 26.604 1.33988 26.9008C1.38941 27.6317 1.56974 28.6163 1.82015 29.5236C3.30857 34.9158 7.55228 39.0586 13.2671 40.6984C15.0744 41.217 16.4068 41.4094 18.2388 41.4161C20.1995 41.4233 21.2371 41.3085 22.8783 40.9028C28.5227 39.5077 33.086 35.5224 34.9769 30.3368C35.3341 29.3571 35.6617 27.993 35.6359 27.5923C35.6159 27.282 35.6446 27.2047 36.1775 26.1317C36.4869 25.5085 36.8042 24.8308 36.8824 24.6257C36.9608 24.4206 37.0682 24.1715 37.1212 24.0721C37.1743 23.9727 37.2178 23.8584 37.218 23.8179C37.2182 23.7766 37.259 23.7601 37.3113 23.7802C37.372 23.8035 37.5479 23.6825 37.8176 23.4319C38.0449 23.2208 38.3854 22.9142 38.5743 22.7508C38.7631 22.5873 38.9352 22.4088 38.9567 22.3541C38.9783 22.2994 39.267 22.0216 39.5984 21.7368C41.2471 20.3196 42.2321 18.7947 42.72 16.9038C42.9411 16.0469 43.0026 15.4965 43.0026 14.3758C43.0026 12.571 42.8309 11.6689 42.2921 10.6433C41.9429 9.97874 41.1561 9.2257 40.3168 8.75289L39.6495 8.37695L39.5188 7.97191C39.447 7.74915 39.3584 7.41778 39.3221 7.23556C39.0547 5.89358 38.8012 5.11795 37.9753 3.1145C37.3335 1.55747 37.1841 1.27718 36.7497 0.814187C36.4607 0.506071 36.3408 0.425532 36.008 0.315537C35.4053 0.116391 35.1174 0.114644 34.157 0.304153ZM35.8928 0.782624C36.1846 0.926893 36.597 1.3844 36.8773 1.87474C37.1656 2.37893 38.4383 5.32818 38.7536 6.2226C38.8317 6.44409 38.9693 6.93202 39.0595 7.30688C39.1497 7.6818 39.2494 8.03901 39.2811 8.10076C39.3374 8.21021 39.3341 8.21021 39.1483 8.10076C38.7833 7.88577 37.9673 7.1914 37.6646 6.83823C37.271 6.37897 37.0691 6.07856 36.4583 5.04308C35.8147 3.95211 35.5707 3.60923 35.1999 3.27437C34.8155 2.92728 34.6428 2.81969 33.7238 2.35532C32.9503 1.96455 31.7957 1.27639 31.7957 1.20622C31.7957 1.18459 31.9244 1.15212 32.0819 1.13405C32.2393 1.11604 32.6121 1.05448 32.9103 0.997251C33.2086 0.940025 33.778 0.831175 34.1756 0.755456C35.0433 0.590103 35.5189 0.597633 35.8928 0.782624ZM28.4818 2.46893C28.4818 2.73747 29.1474 2.96956 30.4056 3.1398C31.364 3.26943 31.7132 3.3646 32.2357 3.63875C33.0064 4.04312 33.6361 5.0694 33.9034 6.35699C33.9419 6.54204 33.9985 6.69342 34.0293 6.69342C34.2063 6.69342 33.8888 5.25927 33.5679 4.60906C33.0046 3.46797 32.0956 2.93047 30.4701 2.77734C29.8596 2.71982 28.8904 2.51989 28.5872 2.38893C28.5059 2.35381 28.4818 2.37218 28.4818 2.46893ZM26.8083 3.17401C26.429 3.36292 26.3722 3.44057 25.8934 4.4216C25.5873 5.04904 25.6706 5.02056 25.4666 5.18938C25.3727 5.28866 25.3616 5.31433 25.234 5.43582C25.1512 5.49471 25.0769 5.55648 24.9185 5.68172C24.6075 5.92743 24.5051 6.07266 24.5051 6.26777C24.5051 6.41253 24.6131 6.43463 24.6647 6.30042C24.6841 6.24988 24.8919 6.09453 25.1266 5.95514C25.688 5.62166 25.9032 5.39721 26.1345 4.90338C26.7226 3.64815 26.7205 3.6517 27.0048 3.44761C27.265 3.26075 27.3399 3.09004 27.1844 3.0383C27.1502 3.02691 26.981 3.08799 26.8083 3.17401ZM28.5149 4.15523C28.663 4.28974 29.0677 4.36215 29.9046 4.40383C30.6988 4.44341 30.8568 4.46883 31.1398 4.60249C31.4396 4.74411 31.4505 4.75622 31.2835 4.76213C30.7185 4.78194 29.5986 5.61823 29.267 6.26783C29.0449 6.70317 29.2607 6.78287 29.5258 6.36343C29.8794 5.80382 30.6004 5.30535 31.361 5.09458C31.8058 4.97133 31.8045 4.97049 32.097 5.57901C32.3058 6.01351 32.4271 6.77341 32.5154 8.19937C32.5492 8.74603 32.6074 9.35594 32.6447 9.55472L32.7125 9.91615L32.4395 10.3985C32.1477 10.914 31.7629 11.3446 31.3248 11.646C31.0587 11.829 31.0423 11.8321 30.3855 11.821C30.0178 11.8148 29.5545 11.7756 29.356 11.734L28.9951 11.6584L28.0907 10.6684C27.5933 10.1239 26.8833 9.3731 26.5128 8.99987C26.1424 8.6267 25.8218 8.26635 25.8005 8.19919C25.6653 7.77336 26.3632 7.0934 27.2423 6.79444C27.5662 6.6842 28.3317 6.65709 28.3914 6.75366C28.4119 6.78679 28.4832 6.81389 28.55 6.81389C28.7475 6.81389 28.6587 6.62836 28.3961 6.49216C27.9366 6.25392 27.1461 6.36512 26.5323 6.75426C26.0208 7.07864 26.2432 6.88648 26.8845 6.44999C27.815 5.81677 28.2803 5.18042 28.3465 4.45039C28.3778 4.10493 28.4057 4.05602 28.5149 4.15523ZM23.6089 5.08356C23.5763 5.26023 23.4121 5.70425 23.244 6.07019C23.0667 6.45644 22.9387 6.82154 22.9388 6.94039C22.9393 7.40236 23.3632 7.72162 24.2891 7.95751C25.0204 8.14389 25.2849 8.32749 25.9813 9.13257C26.1801 9.36238 26.9664 10.1894 27.7286 10.9703C28.4908 11.7511 29.25 12.5714 29.4157 12.7931C29.5814 13.0147 29.7373 13.1968 29.7621 13.1976C29.8696 13.2012 29.7872 12.896 29.5704 12.4878L29.3366 12.0475L29.5268 12.0962C29.6314 12.123 30.0173 12.1424 30.3845 12.1393C31.0012 12.134 31.0767 12.1203 31.3762 11.9586C31.8656 11.6943 32.3116 11.2144 32.5763 10.6672L32.8039 10.1968L32.9475 10.5066C33.3134 11.2958 33.8163 11.9036 34.4769 12.3549C34.6426 12.4681 35.0222 12.7528 35.3204 12.9876C35.6187 13.2223 36.0001 13.5137 36.1681 13.6351C36.5217 13.8908 36.9327 14.3176 37.1984 14.7051L37.3843 14.9761L37.1288 14.9557C36.9561 14.9418 36.7938 14.9757 36.6279 15.0604L36.3824 15.1856L36.3635 14.9924C36.3403 14.7541 36.1154 14.6062 35.8701 14.6677C35.7793 14.6905 35.5863 14.8186 35.4412 14.9522C35.2116 15.1638 35.1608 15.1864 35.0496 15.1269C34.9793 15.0893 34.8431 15.0757 34.747 15.0969C34.5448 15.1413 34.2256 15.4785 34.1677 15.7089C34.0871 16.0301 34.2954 18.364 34.423 18.5707C34.44 18.5981 34.409 18.6205 34.3542 18.6205C34.142 18.6205 33.9024 18.8264 33.8385 19.0637C33.8035 19.1937 33.7982 19.3215 33.8267 19.35C33.8551 19.3783 34.1756 19.508 34.5391 19.6382C34.9026 19.7684 35.4078 19.9587 35.6619 20.061C35.9186 20.1643 36.2345 20.247 36.3729 20.247C36.6002 20.247 36.6297 20.2287 36.7093 20.0381C36.7573 19.9232 36.7972 19.7402 36.7979 19.6315C36.799 19.4643 36.8838 19.3473 37.3472 18.8735C37.6487 18.5654 37.9058 18.3238 37.9185 18.3366C37.9685 18.3866 37.8145 19.8521 37.6419 20.9698C37.5421 21.6159 37.4602 22.2177 37.46 22.3071C37.4597 22.3966 37.4219 22.4914 37.376 22.5179C37.33 22.5444 37.1937 22.8053 37.0731 23.0977C36.9524 23.3901 36.8156 23.6883 36.769 23.7603C36.7225 23.8324 36.6267 24.0405 36.5561 24.2227C36.4856 24.4049 36.2329 24.9975 35.9947 25.5395C35.6748 26.2669 35.5269 26.5382 35.4294 26.5757C35.1615 26.6788 33.7413 26.7435 32.933 26.6893C30.2906 26.5124 27.9798 25.6181 26.1618 24.0688L25.8752 23.8246L26.2712 23.0748C26.8386 22.001 27.2095 20.6645 27.3442 19.2085C27.4336 18.2428 27.3615 17.4717 27.0726 16.3017C26.9581 15.838 26.8747 15.4484 26.8873 15.4358C26.8998 15.4232 27.0469 15.5112 27.2141 15.6313C27.5358 15.8624 27.6384 15.897 27.638 15.7743C27.6366 15.4552 26.1989 13.8993 22.0601 9.7376C20.6727 8.34261 20.3477 7.93034 20.3477 7.56536C20.3477 7.4947 20.5091 7.20562 20.7064 6.92292C21.1037 6.35361 21.7741 5.72611 22.8637 4.90362C23.2367 4.62201 23.562 4.36058 23.5867 4.32269C23.6585 4.21215 23.6737 4.73291 23.6089 5.08356ZM30.8421 6.12019C30.6987 6.16495 30.4779 6.27326 30.3514 6.3609C29.9685 6.62619 29.5659 7.53675 29.8316 7.53675C29.878 7.53675 29.9439 7.45675 29.978 7.35905C30.0335 7.20002 30.0578 7.18635 30.2099 7.22911C30.6838 7.36236 31.1727 7.11948 31.3466 6.66432L31.4505 6.39223H31.834C32.2534 6.39223 32.3373 6.30229 32.0835 6.12459C31.9155 6.00688 31.2132 6.00441 30.8421 6.12019ZM5.72144 8.34996C6.19973 9.64869 6.27336 10.1285 6.27583 11.9642C6.27842 13.8555 6.26323 13.9226 5.75729 14.2497C5.15049 14.6419 4.03967 15.7886 3.56555 16.5122C2.78172 17.7084 2.42599 18.537 2.00513 20.1469C1.91987 20.4729 1.85016 20.7968 1.85016 20.8668C1.85016 21.0986 1.74737 20.8896 1.64898 20.4578C1.24878 18.7013 1.08086 17.2694 1.18136 16.4702C1.37429 14.9363 1.93891 13.5339 2.86204 12.2956C4.1665 10.5458 4.39546 10.187 4.79669 9.26474C4.9381 8.93957 5.12218 8.389 5.20569 8.04124C5.2892 7.69343 5.36451 7.4173 5.37312 7.42766C5.38168 7.43796 5.53846 7.853 5.72144 8.34996ZM27.7884 7.52856C27.0149 7.75005 26.1922 8.24166 26.1922 8.48225C26.1922 8.5767 26.4095 8.58766 26.4661 8.49604C26.4922 8.45381 26.5512 8.47218 26.6353 8.54875C26.8528 8.74645 27.0373 8.81488 27.2468 8.77554C27.6096 8.70753 27.9395 8.33737 27.9395 7.99835C27.9395 7.87143 27.9748 7.84631 28.2009 7.81246C28.6931 7.73867 28.8719 7.90113 29.0241 8.56079C29.1706 9.19552 29.3269 9.63279 29.42 9.66851C29.6101 9.74146 30.2139 9.30708 30.1508 9.14281C30.1167 9.0539 30.0818 9.06005 29.8329 9.19896C29.6791 9.28479 29.5333 9.3322 29.5088 9.30425C29.4844 9.27636 29.3899 8.96891 29.2988 8.62103C29.0792 7.78252 28.9777 7.62367 28.5871 7.50771C28.22 7.39874 28.2438 7.39808 27.7884 7.52856ZM35.9839 7.65608C35.9344 7.73626 36.0497 8.34768 36.2018 8.81066C36.3588 9.28907 36.634 9.83658 36.8253 10.0514C36.9066 10.1427 37.1817 10.502 37.4366 10.8498C37.6916 11.1977 38.2297 11.8212 38.6324 12.2353C39.4318 13.0576 39.6728 13.3748 39.928 13.9408C40.4317 15.0584 40.5144 16.2939 40.1807 17.7161C39.9571 18.6685 39.971 18.5603 40.0719 18.5603C40.1562 18.5603 40.4156 17.9568 40.6543 17.2049C40.8592 16.5596 40.8828 15.6329 40.7154 14.8067C40.5548 14.0139 40.4147 13.5952 40.1626 13.1548C39.9305 12.7492 39.3332 12.1056 38.7356 11.6173C38.463 11.3945 38.0676 10.9666 37.6998 10.4962C37.3727 10.0778 37.0361 9.65098 36.9519 9.54767C36.7655 9.31919 36.5105 8.75982 36.2892 8.09395C36.1316 7.61982 36.0652 7.52464 35.9839 7.65608ZM5.33209 8.83458C5.31034 8.85632 5.30661 9.36606 5.32378 9.96741C5.3521 10.9581 5.34047 11.1426 5.20014 11.9341C5.115 12.4145 4.95148 13.1112 4.83681 13.4824C4.57767 14.3211 4.52501 14.5846 4.61653 14.5846C4.69408 14.5846 4.72342 14.5166 5.05143 13.5765C5.42976 12.4921 5.60197 11.5685 5.60456 10.6089C5.60582 10.1616 5.58666 9.61532 5.56202 9.39485C5.51875 9.008 5.41397 8.75265 5.33209 8.83458ZM30.2092 9.97151C30.1891 10.0239 30.1215 10.0667 30.059 10.0667C29.9965 10.0667 29.8058 10.2142 29.6353 10.3944C29.3001 10.7488 29.2266 10.9546 29.4609 10.8823C29.7888 10.7812 30.0432 10.7518 30.137 10.8043C30.2641 10.8754 30.5729 10.7561 30.6207 10.6174C30.6394 10.563 30.7759 10.4238 30.9239 10.308C31.2905 10.0213 31.2745 9.94645 30.8467 9.94543C30.6562 9.945 30.443 9.92928 30.373 9.91049C30.2893 9.88802 30.2332 9.90892 30.2092 9.97151ZM3.93134 11.648C3.86868 11.7557 3.57543 12.2325 3.27959 12.7075C2.67218 13.683 2.3831 14.3782 2.0587 15.6437C1.87426 16.3631 1.85016 16.5459 1.85016 17.225C1.85016 17.9533 1.95439 18.628 2.08749 18.7613C2.18835 18.8623 2.1951 18.7007 2.10973 18.229C1.94789 17.3346 2.10557 16.2159 2.59367 14.7954C2.878 13.9681 2.99104 13.7231 3.40413 13.0387C3.865 12.2753 4.13975 11.7283 4.13975 11.5744C4.13975 11.3967 4.06143 11.4244 3.93134 11.648ZM11.5735 13.5022C11.2711 13.6558 10.7017 13.8829 10.3082 14.0069C8.83084 14.4719 7.46521 14.9655 6.91348 15.234C5.52972 15.9074 4.12867 17.2857 3.4239 18.6667C3.29152 18.9261 3.25386 19.2229 3.35328 19.2229C3.38467 19.2229 3.47915 19.0861 3.5632 18.9187C4.16916 17.7126 5.07222 16.7402 6.31035 15.9605C6.9838 15.5365 7.38423 15.3694 9.35045 14.6922C10.9279 14.1488 11.6504 13.8294 12.0353 13.5051C12.3972 13.2002 12.1705 13.1988 11.5735 13.5022ZM30.8612 14.0611C30.6761 14.2461 30.6503 14.2561 30.6183 14.1552C30.512 13.8204 30.0042 13.8616 29.6722 14.232C29.5477 14.3709 29.4454 14.5003 29.4449 14.5195C29.4444 14.5388 29.422 14.5892 29.395 14.6316C29.3556 14.6937 29.314 14.6921 29.1812 14.6232C28.8519 14.4524 28.6527 14.6478 28.5756 15.2173C28.5195 15.6318 28.7561 16.6076 29.142 17.5533C29.3072 17.958 29.4164 18.2981 29.3846 18.309C29.1192 18.4002 28.8594 18.9991 29.0366 19.1115C29.0794 19.1386 29.391 19.1612 29.7291 19.1618C30.0736 19.1623 30.4939 19.2018 30.6853 19.2517C30.9142 19.3112 31.1588 19.3285 31.4264 19.304C31.6461 19.2839 31.8921 19.2619 31.9731 19.2551C32.2121 19.2351 32.2591 18.9799 32.0875 18.6339L31.9463 18.3495L32.2674 17.8716C32.7091 17.2143 32.9641 16.6885 33.1469 16.0583C33.3445 15.3769 33.3564 14.8333 33.1773 14.6712C33.0614 14.5663 33.0349 14.5648 32.8007 14.6487L32.5488 14.7392L32.5483 14.4485C32.5475 13.9996 32.3096 13.9123 31.9491 14.2288L31.7367 14.4152L31.6759 14.2439C31.5686 13.942 31.5168 13.8922 31.2902 13.873C31.1045 13.8573 31.0342 13.8881 30.8612 14.0611ZM31.4864 14.3587C31.5203 14.4664 31.5562 14.6201 31.5664 14.7004C31.5947 14.9251 31.6969 14.9128 32.0034 14.6476C32.1583 14.5135 32.2991 14.4039 32.3162 14.4039C32.3335 14.4039 32.3287 14.5801 32.3056 14.7954C32.257 15.249 32.2976 15.2773 32.6522 15.0364C33.1425 14.7033 33.2325 14.9507 32.9355 15.8152C32.7587 16.3297 32.0263 17.7099 31.6485 18.2403C31.5306 18.406 31.5307 18.4654 31.649 18.5636C31.7009 18.6067 31.7841 18.7207 31.8339 18.817L31.9245 18.9921L31.3115 18.9527C30.5413 18.9031 30.3208 18.8357 30.7587 18.7838C31.1122 18.742 31.3136 18.6525 31.3136 18.5373C31.3136 18.4786 31.1816 18.457 30.8023 18.4533C30.5211 18.4507 30.2364 18.4312 30.1696 18.4099C30.0703 18.3784 30.0483 18.3986 30.0483 18.5211C30.0483 18.6299 30.0936 18.6869 30.214 18.7297C30.3503 18.7783 30.3024 18.7891 29.9434 18.7908C29.7033 18.7919 29.4526 18.8101 29.3861 18.8313C29.187 18.8944 29.2492 18.7623 29.4835 18.624C29.6849 18.5052 29.6997 18.4776 29.6718 18.2717C29.6551 18.1488 29.5259 17.7501 29.3845 17.3857C29.0991 16.6496 28.7886 15.5565 28.7852 15.2757C28.784 15.1753 28.8266 15.0311 28.8798 14.9552L28.9766 14.817L29.0756 14.9557C29.1301 15.032 29.2154 15.2011 29.2651 15.3315C29.392 15.6644 29.5061 15.6827 29.5061 15.3703C29.5061 14.9531 29.9709 14.2232 30.2366 14.2232C30.3638 14.2232 30.5906 14.4985 30.5906 14.653C30.5906 14.8241 30.6605 14.7919 31.0007 14.4641C31.1726 14.2985 31.3384 14.1629 31.369 14.1629C31.3997 14.1629 31.4525 14.251 31.4864 14.3587ZM30.5737 15.0433C30.5121 15.1048 30.5197 17.1748 30.5815 17.1748C30.6345 17.1748 30.7143 16.1434 30.7069 15.5541C30.7024 15.1944 30.6445 14.9725 30.5737 15.0433ZM36.1717 15.3123C36.1927 15.4436 36.231 15.5641 36.2568 15.58C36.2826 15.596 36.4225 15.5581 36.5677 15.4959C36.7128 15.4337 36.9191 15.3636 37.0259 15.3402C37.2077 15.3002 37.2264 15.3118 37.3125 15.518L37.4047 15.7385L37.1036 16.2079C36.8143 16.6587 36.3146 17.6203 36.3146 17.7262C36.3146 17.7543 36.3485 17.7769 36.3899 17.7765C36.4537 17.776 37.3069 16.5093 37.5106 16.1127C37.6434 15.8542 37.7494 15.895 37.8133 16.2293C37.9721 17.0604 37.9738 17.0486 37.6429 17.4459C37.3661 17.7784 37.261 18.0182 37.3922 18.0182C37.4216 18.0182 37.5571 17.9032 37.6935 17.7627L37.9414 17.5074V17.6788C37.9414 17.8889 37.7239 18.1571 37.3558 18.4009C37.204 18.5014 36.9415 18.7527 36.7725 18.9594C36.4886 19.3066 36.4652 19.3596 36.4652 19.6555C36.4652 19.9396 36.4502 19.978 36.3328 19.9947C36.26 20.0051 35.8804 19.8783 35.4893 19.7131C35.0982 19.5478 34.6968 19.3931 34.5974 19.3695C34.3507 19.3108 34.0853 19.172 34.0853 19.1017C34.0853 19.0699 34.1734 19.007 34.2811 18.962C34.6317 18.8155 34.6303 18.8235 34.536 17.5034C34.4172 15.8395 34.4174 15.8335 34.6055 15.61C34.8193 15.356 35.0721 15.3708 35.0947 15.6388C35.1502 16.2947 35.183 16.452 35.2645 16.452C35.3219 16.452 35.3506 16.3849 35.3506 16.25C35.3506 16.1389 35.3683 15.8781 35.39 15.6706L35.4295 15.2933L35.7323 15.153C35.8989 15.0758 36.0573 15.0263 36.0844 15.0431C36.1114 15.0597 36.1507 15.1809 36.1717 15.3123ZM31.5609 15.2906C31.238 16.5239 31.2144 16.6557 31.3238 16.6193C31.3988 16.5943 31.735 15.4882 31.7353 15.2658C31.7355 15.0372 31.6231 15.0531 31.5609 15.2906ZM10.1349 15.8234C9.71709 16.188 9.07823 16.5544 7.93187 17.0869C6.28854 17.8502 6.22383 17.8835 5.39403 18.3936C4.81844 18.7474 4.53501 18.9672 4.2455 19.2844C3.85422 19.713 3.29622 20.5757 3.29622 20.7521C3.29622 20.9424 3.41709 20.8434 3.7107 20.4126C4.47476 19.2914 5.30944 18.7084 7.94278 17.4562C8.46035 17.2101 9.07673 16.896 9.31256 16.7584C9.7521 16.5017 10.5265 15.8156 10.5265 15.6828C10.5265 15.5546 10.3846 15.6056 10.1349 15.8234ZM29.5662 16.2562C29.566 16.5063 29.7537 17.4982 29.8133 17.5623C29.92 17.6772 29.9382 17.5322 29.8708 17.1034C29.7659 16.4354 29.6807 16.0905 29.6206 16.0905C29.5907 16.0905 29.5663 16.1651 29.5662 16.2562ZM35.9368 16.6176C35.7754 17.0777 35.4616 18.4359 35.5017 18.5008C35.5757 18.6205 35.6442 18.5539 35.7346 18.2742C35.856 17.898 36.1339 16.6408 36.1339 16.4675C36.1339 16.244 36.0438 16.3126 35.9368 16.6176ZM31.7029 17.0677C31.4953 17.5009 31.4383 17.7772 31.5565 17.7772C31.5907 17.7772 31.6351 17.7297 31.6553 17.6718C31.6755 17.6138 31.7695 17.3857 31.8643 17.1647C32.0507 16.7304 32.0708 16.6327 31.9741 16.6327C31.9396 16.6327 31.8176 16.8285 31.7029 17.0677ZM34.7093 18.8924C34.6286 19.1027 35.021 19.3386 35.559 19.4032C35.9573 19.4509 36.0736 19.4308 36.0736 19.3141C36.0736 19.225 35.8439 19.128 35.5012 19.0724C35.3686 19.0509 35.1705 18.9811 35.0609 18.9173C34.8207 18.7774 34.7552 18.7728 34.7093 18.8924ZM3.74203 23.8741C3.8926 24.4154 4.22718 25.2935 4.58996 26.0993L4.90599 26.8013L4.76114 26.8673C4.58213 26.9489 4.33618 27.4591 4.28201 27.8613L4.24225 28.1567L4.1356 27.9516C3.9778 27.6482 3.53452 27.2431 3.31158 27.1985C2.99297 27.1348 2.68977 27.5156 2.47666 28.2472C2.44334 28.3616 2.09455 28.1455 2.05839 27.9881C1.94271 27.4843 1.84094 26.4967 1.81328 25.6081C1.78237 24.6157 1.78774 24.5425 1.90481 24.3582C2.00037 24.2078 2.07141 24.1624 2.21167 24.1624C2.43184 24.1624 2.58886 24.3844 2.69803 24.8501C2.86138 25.5465 2.96507 25.5115 3.0108 24.7447C3.04538 24.1656 3.18909 23.7458 3.41046 23.5772C3.5829 23.4459 3.63629 23.4937 3.74203 23.8741ZM26.1333 24.4554C26.715 24.9802 27.4407 25.451 28.3254 25.8775C29.4455 26.4176 30.5803 26.7788 31.8559 27.0014C32.3598 27.0893 34.4371 27.1122 35.0292 27.0364C35.3774 26.9918 35.3989 26.996 35.3706 27.1043C35.3442 27.2052 35.2556 27.2263 34.6677 27.272C33.7882 27.3404 32.5997 27.3108 31.7354 27.1992C30.3929 27.0258 28.6601 26.3277 27.0978 25.331C26.4813 24.9376 25.6499 24.2558 25.6499 24.1435C25.6499 24.0483 25.7633 24.1215 26.1333 24.4554ZM25.8374 24.9475C26.667 25.7898 28.9322 27.0178 30.5454 27.4996C31.5614 27.8031 33.0428 27.9056 34.1756 27.7509C34.5733 27.6966 34.9717 27.6367 35.0609 27.6177C35.2175 27.5845 35.2224 27.5914 35.2017 27.8155C35.1338 28.5533 34.5815 30.1686 33.9678 31.4244L33.4953 32.3916L33.1231 32.5899C32.8171 32.753 32.7119 32.7809 32.5314 32.7471C32.2288 32.6903 31.9934 32.5594 31.9083 32.4004C31.8065 32.2102 31.8254 31.1732 31.9355 30.9091C32.0774 30.5687 32.1242 29.9826 32.0166 29.8934C31.9432 29.8325 31.9097 29.8437 31.8312 29.9558C31.7786 30.031 31.7354 30.1294 31.7354 30.1744C31.7354 30.3992 30.8596 31.3277 30.2967 31.6996C29.6421 32.1322 29.3718 32.0916 29.1716 31.5305C29.0518 31.1947 29.0661 30.9024 29.2328 30.2847C29.3144 29.9821 29.3782 29.6524 29.3746 29.5522C29.371 29.4519 29.4033 29.2724 29.4464 29.1532C29.5467 28.8759 29.4941 28.7105 29.3331 28.7965C29.2702 28.8303 29.2023 28.9231 29.1822 29.0029C29.0818 29.403 27.2333 30.7284 26.7759 30.7284C26.5335 30.7284 26.2333 30.4786 26.0518 30.1259C25.9007 29.8324 25.8842 29.7461 25.9066 29.3677C25.9283 28.9997 25.9749 28.8556 26.2428 28.3264C26.4138 27.9886 26.5537 27.6852 26.5537 27.6522C26.5537 27.6192 26.5109 27.5758 26.4586 27.5558C26.3936 27.5308 26.236 27.6506 25.9608 27.9341C25.4977 28.411 24.9671 28.7207 24.476 28.8006C24.0273 28.8736 23.8113 28.7929 23.6594 28.4953C23.3122 27.8148 23.8016 26.5371 24.9161 25.2144C25.2037 24.8731 25.4481 24.5916 25.4593 24.5889C25.4704 24.5863 25.6405 24.7476 25.8374 24.9475ZM31.3531 25.1634C31.1095 25.4071 31.1599 25.7889 31.4357 25.7889C31.4896 25.7889 31.5947 25.7239 31.6693 25.6445C31.8345 25.4686 31.8205 25.2063 31.6393 25.0868C31.5259 25.012 31.4969 25.0197 31.3531 25.1634ZM23.2049 27.3099C23.1586 27.4838 23.1204 27.7909 23.12 27.9923C23.1194 28.3016 23.1483 28.4022 23.3058 28.64C23.6189 29.1125 23.7442 29.1812 24.2227 29.1419C24.5472 29.1154 24.7264 29.058 25.0782 28.8683C25.5112 28.6349 25.5217 28.6325 25.4661 28.7787C25.3803 29.0041 25.3967 29.8602 25.491 30.0827C25.6077 30.3582 26.0334 30.9056 26.2335 31.0375C26.3358 31.1049 26.5119 31.1494 26.6775 31.1496C26.9886 31.1501 27.1099 31.0825 28.1548 30.3261L28.8219 29.8431L28.6737 30.21C28.3875 30.9182 28.505 31.6251 28.9999 32.1727C29.2933 32.4974 29.4449 32.5561 29.7337 32.4564C30.0498 32.3473 30.8789 31.7529 31.213 31.3958C31.4936 31.0958 31.4944 31.0955 31.4944 31.2685C31.4944 31.364 31.4636 31.5755 31.426 31.7386C31.2409 32.54 31.7061 33.2584 32.4101 33.2584C32.5726 33.2584 32.7897 33.2148 32.8927 33.1615C33.0713 33.0692 33.0635 33.0885 32.7284 33.5681C32.1037 34.4625 31.733 34.8976 30.8067 35.8242C29.8947 36.7366 28.7757 37.6638 28.7348 37.5412C28.6959 37.4245 28.9095 36.8519 29.1256 36.4934C29.3274 36.1587 29.3525 35.9691 29.195 35.9691C29.1544 35.9691 28.9804 36.1144 28.8083 36.2921C28.3877 36.7262 27.265 37.4505 26.9283 37.5049C26.2006 37.6224 26.1593 37.0238 26.7604 35.0655C26.9135 34.5666 27.006 34.1692 26.9759 34.1389C26.8828 34.0448 26.7433 34.1495 26.6081 34.415C26.2758 35.0673 25.503 35.6843 24.7694 35.8828C23.733 36.1633 23.5231 35.6293 24.1402 34.2824C24.3147 33.9014 24.4905 33.5018 24.5307 33.3944C24.5709 33.2869 24.6579 33.1378 24.7241 33.0631C24.9024 32.8615 25.0474 32.6124 25.0474 32.5075C25.0474 32.3709 24.8809 32.3953 24.7606 32.5495C24.3653 33.0563 23.722 33.4756 22.9687 33.7173C22.5831 33.8411 22.4122 33.8654 22.1146 33.8389C21.6049 33.7936 21.3501 33.6772 21.2541 33.4454C21.0726 33.0073 21.3376 32.4685 22.2213 31.4791C22.5896 31.0667 22.7369 30.7886 22.5869 30.7886C22.5591 30.7886 22.3897 30.8934 22.2103 31.0216C21.8102 31.3073 21.2428 31.5972 20.9063 31.6878C20.5825 31.775 20.1716 31.6788 19.9761 31.4702C19.8557 31.3417 19.8367 31.2625 19.8434 30.9182C19.8478 30.6971 19.8984 30.3486 19.9559 30.1438C20.06 29.7725 20.0626 29.7698 20.7442 29.2528C21.4816 28.6935 22.3316 27.95 22.9066 27.3617C23.1043 27.1593 23.2713 26.9936 23.2776 26.9936C23.284 26.9936 23.2513 27.1359 23.2049 27.3099ZM5.54701 27.9014C5.89895 28.4664 6.41688 29.1517 6.93885 29.743C7.20703 30.0468 7.20956 30.0535 7.06899 30.0887C6.70416 30.1803 6.63614 30.9091 6.93704 31.5027L7.0937 31.8117L6.59583 31.4568C5.56237 30.7203 5.07367 30.8231 5.07367 31.7774V32.2146L4.75885 32.104C4.19374 31.9054 3.94574 31.9732 3.83054 32.3577L3.75806 32.5996L3.58844 32.3115C3.1824 31.622 2.59416 30.1411 2.33236 29.1492L2.16203 28.5037L2.30681 28.5986C2.38646 28.6508 2.53529 28.8735 2.6376 29.0935C2.73991 29.3135 2.85643 29.5613 2.8965 29.6441C2.93753 29.7288 3.02116 29.7947 3.08762 29.7947C3.18505 29.7947 3.2047 29.7553 3.19915 29.5712C3.19211 29.3337 2.92416 28.744 2.7531 28.5891C2.6567 28.5019 2.65694 28.4775 2.75678 28.175C2.91741 27.688 3.04394 27.4755 3.17318 27.4755C3.31514 27.4755 3.43028 27.6353 3.86741 28.4393C4.22748 29.1016 4.42156 29.362 4.5129 29.3056C4.54387 29.2865 4.55007 28.9953 4.5273 28.6297C4.48585 27.9651 4.54097 27.5946 4.72263 27.3174C4.80651 27.1894 4.8285 27.1846 5.00341 27.256C5.14374 27.3132 5.28539 27.4814 5.54701 27.9014ZM19.5397 30.2615C19.5184 30.336 19.4844 30.5774 19.4641 30.7978C19.4331 31.1371 19.448 31.2409 19.5619 31.4763C19.8061 31.9805 20.4731 32.2042 21.034 31.9699L21.2344 31.8862L21.0373 32.179C20.6428 32.7651 20.6151 33.2181 20.9427 33.7285C21.1818 34.101 21.3397 34.1739 21.9831 34.2084C22.5887 34.2409 23.0381 34.1208 23.6164 33.7721C23.8069 33.6572 23.9628 33.5803 23.9628 33.6013C23.9628 33.6222 23.8831 33.7637 23.7856 33.9157C23.2794 34.7047 23.1556 35.3295 23.4077 35.8234C23.6157 36.2307 23.7372 36.3009 24.2256 36.2963C24.7441 36.2914 25.2363 36.0932 25.8156 35.6558C26.0228 35.4995 26.1922 35.3792 26.1922 35.3887C26.1922 35.3982 26.1227 35.6071 26.0378 35.8531C25.854 36.3856 25.7849 37.0667 25.8851 37.3597C25.9238 37.4728 26.0204 37.6448 26.0998 37.7419C26.2236 37.8932 26.2945 37.9219 26.5948 37.9418C26.9077 37.9626 26.997 37.9392 27.4274 37.7239C27.6925 37.5913 27.9907 37.4284 28.0901 37.3619L28.2709 37.241L28.2502 37.6038L28.2296 37.9666L27.8285 38.2248C25.5866 39.6678 22.4837 40.6871 19.7374 40.8827C19.1781 40.9226 19.1455 40.9179 18.8336 40.7534C18.3458 40.4963 18.3493 40.5004 18.4495 40.3066C18.619 39.9789 19.3752 39.5081 20.4381 39.0684C21.0344 38.8217 21.2041 38.667 20.9747 38.579C20.8145 38.5175 20.2877 38.6485 19.757 38.8818C18.9127 39.253 17.9735 39.2333 17.3364 38.8312C17.0865 38.6735 17.0368 38.5349 17.1694 38.3659C17.2567 38.2546 19.2476 37.0539 19.3471 37.0525C19.4919 37.0504 19.5768 36.9463 19.5367 36.82C19.483 36.6509 19.3397 36.6578 18.8848 36.8516C18.0489 37.2077 17.4535 37.2964 16.7599 37.1682C16.1724 37.0596 15.7683 36.7746 15.7687 36.4689C15.769 36.2693 15.9486 35.9562 16.177 35.7572C16.4368 35.531 17.8209 34.7135 18.2133 34.5546C18.5041 34.4368 18.5738 34.3815 18.5893 34.2559C18.6054 34.1253 18.5845 34.1017 18.4526 34.1017C18.3668 34.1017 18.1298 34.1695 17.9258 34.2524C17.1127 34.5827 16.018 34.6152 15.3919 34.3277C15.2014 34.2402 15.0455 34.1522 15.0455 34.1322C15.0455 34.1121 15.0844 34.0205 15.1319 33.9286C15.2467 33.7068 16.0793 33.3195 16.8832 33.114C17.6922 32.9072 18.0837 32.7512 18.1089 32.6257C18.1422 32.4603 18.0454 32.4172 17.7769 32.4775C17.602 32.5168 17.3202 32.5068 16.848 32.4445C15.7905 32.3051 15.4137 32.0474 15.992 31.859C16.8705 31.5727 18.2394 30.9215 19.0523 30.4031C19.5397 30.0923 19.5925 30.0769 19.5397 30.2615ZM8.17836 30.8481C8.80866 31.313 9.86881 31.8666 10.4511 32.0351C10.8402 32.1476 10.9391 32.2343 10.6784 32.2343C10.4144 32.2343 10.0448 32.4205 9.95184 32.6002C9.82115 32.8529 9.8417 33.2914 9.99889 33.6061C10.1515 33.9115 10.4137 34.1422 11.0672 34.5462C11.5165 34.8239 11.5171 34.8246 11.2985 34.8246C11.178 34.8246 10.8679 34.865 10.6093 34.9145C9.99606 35.0318 9.89159 35.1321 9.90062 35.5945C9.91081 36.1129 10.1107 36.4256 10.602 36.6919L10.9909 36.9028L10.3218 36.9073C9.40625 36.9135 9.00472 36.9726 8.84072 37.1254C8.72244 37.2355 8.70894 37.2975 8.73027 37.6321L8.75455 38.0134L8.58127 37.9038C7.75117 37.3783 6.03132 35.7806 5.26666 34.8246C4.67775 34.0883 4.13699 33.2834 4.07119 33.0454C4.00112 32.7915 4.13933 32.4753 4.32033 32.4753C4.50434 32.4753 5.06861 32.7453 5.52628 33.0522C5.92666 33.3208 6.12809 33.3645 6.12809 33.1827C6.12809 33.139 5.99035 32.9687 5.82194 32.8043C5.50495 32.4948 5.28455 32.1422 5.28455 31.9445C5.28455 31.8819 5.31432 31.7453 5.35071 31.6409C5.46206 31.3216 5.67885 31.3747 6.66687 31.9633C7.7675 32.6189 7.8489 32.6255 7.51829 32.0314C7.16413 31.395 6.99614 30.6677 7.16443 30.4995C7.33446 30.3295 7.59807 30.4201 8.17836 30.8481ZM15.4854 32.2649C15.5892 32.4826 15.8989 32.7156 16.0848 32.716C16.2982 32.7165 16.1715 32.8129 15.6163 33.0725C14.9056 33.4051 14.7925 33.5197 14.7574 33.9438C14.7244 34.3407 14.8088 34.4455 15.3247 34.6487C15.6088 34.7606 15.7925 34.7876 16.2611 34.7868L16.8442 34.7858L16.473 35.0009C15.6904 35.4546 15.3412 35.983 15.4642 36.5277C15.608 37.1655 16.1512 37.4696 17.1543 37.4741L17.6062 37.4762L17.2341 37.7122C17.0294 37.8421 16.8328 38.0027 16.7972 38.0691C16.7052 38.2409 16.7172 38.5388 16.8251 38.7662C16.9846 39.1022 17.6646 39.4055 18.2689 39.4101L18.632 39.4129L18.3195 39.7253C18.1477 39.8971 17.9881 40.1134 17.9648 40.2058C17.9187 40.3896 18.0776 40.8196 18.2213 40.9C18.2664 40.9252 18.0516 40.937 17.7439 40.9263C15.7643 40.8567 13.8216 40.4645 12.1161 39.7901C10.5097 39.155 9.64918 38.6216 9.26507 38.0232C8.88753 37.435 8.98466 37.3874 10.5868 37.3755C11.2661 37.3704 11.8559 37.3637 11.8973 37.3604C11.9387 37.3572 11.9726 37.2782 11.9726 37.1848C11.9726 37.0298 11.932 36.9983 11.5039 36.8216C10.9873 36.6084 10.561 36.348 10.4419 36.173C10.2965 35.9594 10.2237 35.663 10.2873 35.5441C10.3616 35.4053 10.6005 35.335 11.5176 35.1819C11.9135 35.1158 12.249 35.0502 12.2631 35.0361C12.333 34.9662 12.193 34.8211 11.9538 34.7153C11.2464 34.4025 10.5986 33.8522 10.3917 33.3886C10.2312 33.0286 10.2855 32.8565 10.6041 32.7162C10.9263 32.5743 11.9931 32.415 12.6216 32.415C13.2651 32.415 14.1757 32.3165 14.8045 32.1788C15.0861 32.1171 15.3319 32.0637 15.3506 32.0601C15.3693 32.0566 15.43 32.1487 15.4854 32.2649Z" fill="black"/>
</svg>
