<svg width="52" height="33" viewBox="0 0 52 33" fill="none" xmlns="http://www.w3.org/2000/svg">
<path fill-rule="evenodd" clip-rule="evenodd" d="M41.8048 0.650317C41.4994 0.691695 40.938 0.728279 40.5573 0.73161C40.1766 0.734942 39.847 0.748853 39.8248 0.762588C39.7877 0.785498 39.4154 0.824188 37.8004 0.972929C34.5658 1.27088 33.8873 1.36006 32.2469 1.70271C31.5717 1.84374 30.7694 2.00166 30.4639 2.05361C29.5504 2.20902 28.3925 2.46588 27.3072 2.75389C26.7445 2.90322 26.0342 3.06546 25.7288 3.11444C24.8519 3.255 22.8819 3.77807 21.2567 4.30184C20.8709 4.42621 20.3185 4.59804 20.0291 4.68366C19.7398 4.76928 19.1862 4.95355 18.799 5.09318C18.4119 5.23274 17.5964 5.4951 16.9868 5.67604C15.3923 6.14949 13.1139 6.93312 12.4003 7.25339C12.0627 7.40493 11.5366 7.66834 11.2312 7.83876C10.9257 8.00919 9.82939 8.60958 8.79486 9.17298C5.85622 10.7734 4.33795 11.7636 3.01778 12.9406C2.07158 13.7842 1.29069 14.7428 0.936847 15.4952C0.503555 16.4165 0.388801 17.1151 0.559733 17.79C0.606441 17.9743 0.740661 18.5566 0.858045 19.0839C0.975429 19.6112 1.13666 20.2161 1.21634 20.4281C1.39808 20.9116 1.75819 21.6026 1.82839 21.6026C1.85751 21.6026 2.04814 21.744 2.25198 21.9169C2.45582 22.0898 2.80359 22.3317 3.0248 22.4544C3.246 22.5771 3.57477 22.7775 3.75541 22.8997C4.27031 23.248 4.55027 23.3454 5.48133 23.5001C6.59963 23.6858 7.18679 23.748 8.33748 23.8024C8.85191 23.8267 9.29251 23.8513 9.31665 23.8569C9.3408 23.8626 9.60778 23.8706 9.91001 23.8746L10.4595 23.8819L10.5597 24.3348C10.6902 24.9247 10.9497 25.6972 11.2361 26.3479C11.4422 26.816 11.6114 27.0811 12.4742 28.2868C12.8607 28.8271 14.0346 29.8606 15.0017 30.5121C16.0125 31.193 17.9421 31.961 19.4115 32.2674C20.164 32.4243 21.3756 32.5284 22.4735 32.5304C23.2121 32.5318 24.3428 32.3257 24.8519 32.0967C25.0288 32.0172 25.3612 31.8725 25.5906 31.7751C26.5907 31.3508 27.2563 30.8812 28.2319 29.9116C29.8242 28.329 31.3871 25.8557 31.8065 24.255C31.9928 23.544 32.0615 22.6726 32.0212 21.5305L31.9846 20.4942L32.1449 20.456C32.3145 20.4156 34.8641 19.4974 35.6082 19.2088C37.8386 18.3436 40.7409 17.0511 42.0386 16.3452C42.4405 16.1266 42.9404 15.87 43.1493 15.7751C44.2824 15.2603 46.2019 13.9676 47.2999 12.9798C49.1234 11.3394 49.9647 10.4297 50.886 9.10215C51.6101 8.05875 51.6134 8.04729 51.4912 6.96695C51.3779 5.96516 51.0121 4.34176 50.7725 3.77713C50.3814 2.85588 49.7919 2.31562 48.5567 1.74649C47.8142 1.40442 47.0704 1.17759 45.7181 0.880931C44.9317 0.708463 44.5656 0.660718 43.7047 0.618405C42.449 0.556688 42.5027 0.555813 41.8048 0.650317ZM44.4005 1.14422C45.0861 1.2323 46.519 1.56227 47.3553 1.82457C48.1676 2.07939 49.2766 2.62543 49.6486 2.95377C49.7989 3.0865 50.0035 3.32758 50.1031 3.48947L50.2843 3.78385L50.0343 3.63798C49.2207 3.16312 47.8169 2.77552 45.4584 2.37448C44.9119 2.28149 44.241 2.16571 43.9678 2.11715C42.6591 1.88454 40.6974 1.76221 39.5834 1.84374C37.4783 1.99786 36.4235 2.08651 36.0174 2.14356C35.2733 2.24805 33.7338 2.48838 33.2114 2.58154C32.0319 2.79194 31.7217 2.847 31.2385 2.93139C30.2114 3.11082 29.4853 3.25365 28.8563 3.39988C28.5026 3.48211 27.7135 3.66404 27.1026 3.80413C23.514 4.62703 22.3679 4.95362 18.3338 6.30292C16.5011 6.91588 15.2989 7.36256 14.1248 7.86664C13.8355 7.9909 13.3357 8.19767 13.0141 8.32619C11.8687 8.78392 10.3812 9.51337 9.4894 10.0546C9.2095 10.2245 8.77948 10.4689 8.53372 10.5977C8.28797 10.7265 8.01175 10.8849 7.91991 10.9495C7.82808 11.014 7.33235 11.3254 6.81839 11.6415C5.4013 12.5128 4.48678 13.1972 3.5715 14.0709C3.39344 14.2409 2.59262 15.1429 2.10116 15.727C1.70657 16.196 1.18448 17.3908 1.17226 17.8528C1.16857 17.9902 1.15764 17.981 1.07837 17.7745C0.840683 17.1554 1.11058 16.0451 1.71516 15.1551C2.06228 14.6441 2.91291 13.6805 3.40899 13.2364C4.34046 12.4025 5.80034 11.3972 7.43138 10.4663C10.359 8.79544 12.53 7.66191 13.3941 7.35315C13.6674 7.25549 14.3382 7.01446 14.8848 6.81756C15.4314 6.62061 16.3258 6.32775 16.8724 6.16667C17.419 6.00566 18.2345 5.74314 18.6846 5.58329C19.4872 5.29832 20.828 4.87845 22.8643 4.27455C23.427 4.10769 24.2425 3.85936 24.6765 3.72278C25.9214 3.33108 25.9684 3.31823 27.2706 3.01251C29.1315 2.5757 30.0499 2.38319 30.7241 2.28857C31.0597 2.24146 31.8277 2.10948 32.4308 1.99528C33.46 1.80043 34.8804 1.60535 35.8128 1.53077C37.7786 1.37356 38.5371 1.30383 39.1157 1.22721C39.4855 1.17824 39.959 1.12044 40.168 1.09882C40.7637 1.03716 43.823 1.06994 44.4005 1.14422ZM41.3079 2.19891C42.2247 2.28173 43.5856 2.4342 43.9023 2.48961C44.1634 2.53531 46.0877 2.88656 46.803 3.01917C47.8577 3.21467 49.3538 3.68935 50.062 4.05317L50.4566 4.25585V4.74053C50.4566 5.27956 50.3005 5.90918 49.958 6.75141C49.4119 8.09458 48.442 9.2447 46.4609 10.8984C44.9897 12.1263 44.5681 12.4369 43.6846 12.9429C42.4549 13.6472 39.0148 15.3188 37.8296 15.7878C37.2027 16.0359 36.3083 16.4175 35.8421 16.6359C35.078 16.9937 33.2071 17.7065 31.9406 18.1224C31.6757 18.2093 31.4433 18.3057 31.4243 18.3365C31.4053 18.3673 31.317 18.2929 31.2282 18.1712C30.8458 17.647 29.5554 16.5763 28.7161 16.0867C28.3238 15.8579 27.0908 15.4158 26.4118 15.2605C25.3475 15.0171 22.7489 14.8775 21.8706 15.0166C21.1354 15.1329 18.409 15.6612 17.7694 15.8112C17.0148 15.9881 14.2285 17.1285 13.8414 17.4187C13.7401 17.4947 13.5212 17.6249 13.355 17.7081C12.9494 17.9111 12.4544 18.3255 11.6048 19.1734C10.9514 19.8255 10.8739 19.9269 10.596 20.4928C10.4303 20.83 10.2643 21.2534 10.2268 21.4337L10.1589 21.7616L9.59895 21.7987C8.53033 21.8694 7.25916 21.8383 6.61296 21.7256C5.47291 21.5268 3.54911 20.7014 2.6523 20.0264C2.2739 19.7415 1.66383 19.0597 1.4946 18.7325C1.17992 18.1241 1.75871 16.6191 2.77296 15.4084C3.81825 14.1608 4.48789 13.5836 6.1453 12.5016C6.41859 12.3232 7.12886 11.8556 7.72367 11.4624C8.31848 11.0693 8.94983 10.6753 9.12667 10.5871C9.3035 10.4988 9.59287 10.3398 9.76971 10.2336C10.2196 9.96368 13.5915 8.33577 13.7008 8.33577C13.7501 8.33577 14.1551 8.20147 14.6007 8.03736C15.8568 7.57477 18.6216 6.6281 19.883 6.22863C20.5099 6.0301 21.4964 5.71526 22.0752 5.52894C23.6064 5.03602 25.2748 4.60072 27.3421 4.15491C27.7248 4.07239 28.2878 3.94189 28.5932 3.86498C29.3495 3.67451 30.6583 3.41396 32.13 3.16096C32.8052 3.04489 33.9626 2.84588 34.7021 2.71877C37.8051 2.18517 39.5958 2.04421 41.3079 2.19891ZM51.2715 6.96233L51.4074 7.72211L51.1911 8.08931C50.4992 9.26421 49.6822 10.2696 48.379 11.5502C47.5428 12.3719 47.4579 12.4471 46.325 13.3696C45.9449 13.6791 45.57 14.0013 45.4921 14.0855C45.4141 14.1697 45.3333 14.2386 45.3124 14.2386C45.2915 14.2386 44.9475 14.4224 44.548 14.647C43.5836 15.1891 40.6927 16.6298 39.3812 17.2218C38.2434 17.7355 35.4681 18.8602 34.5268 19.1891C34.2052 19.3015 33.5033 19.5617 32.967 19.7674C32.4306 19.9732 31.9806 20.1415 31.9669 20.1415C31.9532 20.1415 31.9255 19.984 31.9054 19.7916C31.8853 19.5992 31.8173 19.2902 31.7544 19.1049C31.666 18.8451 31.6558 18.7529 31.7095 18.7017C31.7479 18.6652 32.0291 18.5564 32.3346 18.4599C33.402 18.1226 34.9661 17.52 35.9117 17.0818C36.4361 16.8388 37.3064 16.4681 37.8458 16.2581C38.9703 15.8202 40.4322 15.1408 42.1556 14.2553C44.2565 13.1759 44.6978 12.8871 46.3614 11.5037C48.3853 9.82072 49.4589 8.62794 50.1071 7.34223C50.3326 6.89489 50.7803 5.70058 50.8438 5.37686C50.8872 5.15547 50.8908 5.16197 51.0119 5.67657C51.08 5.96586 51.1968 6.54446 51.2715 6.96233ZM24.5304 15.5593C25.8106 15.6853 26.3174 15.7851 27.287 16.1022C28.2844 16.4285 28.8121 16.716 29.8623 17.5052C31.2874 18.5763 31.4731 18.8963 31.593 20.4884C31.6879 21.7481 31.6713 23.1572 31.5548 23.727C31.5033 23.9793 31.2999 24.562 31.1029 25.0219C30.2649 26.9775 28.5872 29.2242 27.0149 30.4964C26.4081 30.9873 24.8543 31.7992 24.4077 31.8586C24.2501 31.8796 23.9107 31.9404 23.6535 31.9937C22.9278 32.144 20.858 32.1229 19.8537 31.955C18.5952 31.7445 16.5459 31.0016 15.4677 30.3649C14.4672 29.7741 13.2162 28.7065 12.7337 28.0318C12.5382 27.7584 12.3218 27.4655 12.2527 27.3808C11.9518 27.0122 10.9704 24.7448 10.7582 23.928C10.6144 23.3748 10.5568 22.8427 10.5635 22.1286C10.5676 21.6931 10.5952 21.5669 10.7872 21.1058C10.9077 20.8165 11.0749 20.4615 11.1588 20.3168C11.3576 19.9739 12.6714 18.6623 13.1675 18.3116C14.0943 17.6563 16.6207 16.4904 17.6616 16.2377C18.5805 16.0146 21.2961 15.5174 21.9875 15.4456C22.325 15.4106 23.5958 15.4674 24.5304 15.5593ZM1.73661 19.82C2.16336 20.317 2.24777 20.3944 2.74443 20.7434C3.09945 20.9929 4.1811 21.5467 4.5377 21.6616C4.6663 21.703 4.95567 21.8239 5.18074 21.9303C6.02084 22.3273 7.00516 22.4521 8.60621 22.3645C9.23008 22.3303 9.83255 22.2818 9.94508 22.2566L10.1497 22.2108L10.2477 22.7974C10.3017 23.12 10.3411 23.3883 10.3354 23.3937C10.3297 23.399 10.0883 23.3801 9.79893 23.3516C8.89388 23.2625 8.64988 23.2434 7.92827 23.205C6.79722 23.1448 5.0056 22.8685 4.53384 22.6816C3.95703 22.4531 3.28698 22.1141 2.59133 21.6988C2.00839 21.3509 1.98395 21.3278 1.81278 20.9657C1.54668 20.4028 1.14858 19.1517 1.28087 19.294C1.31075 19.3262 1.51582 19.5629 1.73661 19.82Z" fill="black"/>
</svg>
