<svg width="49" height="68" viewBox="0 0 49 68" fill="none" xmlns="http://www.w3.org/2000/svg">
<path fill-rule="evenodd" clip-rule="evenodd" d="M8.14152 0.589926C6.89776 0.798128 5.5154 1.64163 4.6693 2.70867C3.79672 3.80904 3.41975 4.88152 3.35237 6.45533C3.29692 7.74867 3.40415 8.50376 3.83122 9.82784C4.2171 11.0244 4.51429 11.6336 5.04484 12.3158C5.76767 13.2452 6.32879 13.5841 7.69582 13.9172C8.53818 14.1225 10.2241 14.1504 11.9528 13.9879C12.9238 13.8966 13.1877 13.946 13.3808 14.2553C13.4963 14.4403 13.3421 14.935 13.1084 15.1289C12.8701 15.3267 12.1911 15.5101 10.7598 15.7633C8.1433 16.2262 6.48594 17.159 5.45006 18.7512C4.90266 19.5929 4.70941 20.3393 4.71093 21.6071C4.71235 22.8776 4.84722 23.403 5.38651 24.2405C6.36186 25.7551 7.85832 26.8211 9.83515 27.4093C10.2519 27.5332 10.6526 27.6546 10.7257 27.679C10.7993 27.7034 10.042 28.1291 9.03157 28.6313C6.93547 29.6732 6.63088 29.8696 5.4547 30.9374C4.04863 32.2138 3.42171 33.1905 2.91933 34.8871C2.71975 35.5611 2.67999 35.8744 2.67063 36.8479L2.65949 38.0066L2.9885 38.6955C3.16945 39.0744 3.50729 39.5872 3.73914 39.8351C4.26006 40.392 5.32643 40.9391 6.26961 41.1335C7.17044 41.3191 7.60695 41.526 8.13002 42.0152L8.57001 42.4267L8.36258 42.8014C8.0054 43.4463 7.78184 44.2651 7.72444 45.1382C7.6607 46.1085 7.73665 46.0955 6.6989 45.3144C6.3402 45.0444 5.68245 44.6389 5.23711 44.4133C4.43183 44.0053 4.42354 44.0033 3.67719 44.0417C2.76565 44.0885 2.11842 44.3233 1.50069 44.8317C0.714841 45.4783 0.38788 46.1459 0.252656 47.3798C0.116007 48.6261 0.91478 50.494 1.72728 50.8284C2.34626 51.0832 3.06694 51.1686 3.55088 51.0444C3.9586 50.9398 4.00745 50.8985 4.12431 50.5606C4.23831 50.231 4.23644 50.1671 4.10701 49.9697C4.02723 49.848 3.70901 49.6099 3.39988 49.4408C2.49735 48.9468 2.09809 48.162 2.42425 47.523C2.70388 46.9753 2.91148 46.8425 3.55132 46.8018C4.21514 46.7594 4.44217 46.8692 5.32687 47.6599C6.59015 48.7889 7.34488 49.1921 8.195 49.1921C8.6431 49.1921 8.68071 49.2095 8.81986 49.4818C8.99796 49.8302 10.6577 51.4873 11.3993 52.0572C12.11 52.6033 12.7855 53.0118 13.3718 53.2501L13.8557 53.4467L13.2493 53.9165C12.4788 54.5136 11.0177 56.0034 10.7265 56.4889C10.604 56.6934 10.3702 57.0685 10.2072 57.3226C9.78265 57.9841 9.51942 58.8764 9.344 60.2493C9.16224 61.671 9.20146 62.1949 9.57255 63.3039C10.108 64.9042 11.1353 66.4118 11.9556 66.8011C12.1336 66.8855 12.4894 67.089 12.7465 67.2535C13.5854 67.79 14.6672 67.9474 15.7454 67.6899C16.4011 67.5332 16.8455 67.1953 17.063 66.688C17.2757 66.1918 17.2757 66.0628 17.0633 65.7145C16.8506 65.3657 16.5404 65.2978 15.2493 65.3172C14.1767 65.3333 13.7437 65.2056 13.2798 64.7364C12.7142 64.1641 12.2488 62.7523 12.2442 61.5937C12.2375 59.9351 13.3418 57.9273 14.9606 56.6547C15.2058 56.462 15.5744 56.1479 15.7799 55.9568C15.9854 55.7656 16.2099 55.6093 16.2789 55.6093C16.4969 55.6093 17.4094 56.6521 17.6607 57.1885C17.9978 57.9076 17.9923 58.6105 17.6453 59.197C17.1866 59.9723 16.6945 60.1635 16.0963 59.7987C15.7233 59.5714 15.4844 59.1744 15.4066 58.6527C15.3726 58.4249 15.2904 58.1083 15.2241 57.9489C15.1224 57.7047 15.0571 57.6592 14.8083 57.6592C14.1474 57.6592 13.8562 58.3103 14.0192 59.4233C14.1579 60.3706 14.8209 61.2425 15.7183 61.6578C16.1261 61.8465 16.3435 61.8852 17.0108 61.888C17.7777 61.8911 17.8393 61.8764 18.4078 61.554C18.7349 61.3685 19.1497 61.0538 19.3297 60.8547C19.7143 60.429 20.1751 59.5012 20.1751 59.1521C20.1752 59.0173 20.1935 58.907 20.2159 58.907C20.2382 58.907 20.4069 59.0091 20.5908 59.1338C21.0651 59.4557 21.7234 59.4193 21.9936 59.0565C22.2742 58.6795 22.2505 57.9883 21.9411 57.5255C21.4062 56.7257 21.1716 55.4355 21.4227 54.6747C21.477 54.5103 21.7016 54.2097 21.9218 54.0068C22.2459 53.7081 22.3767 53.643 22.6081 53.6654C23.0196 53.7052 23.1776 54.0909 23.2952 55.3419C23.3481 55.9056 23.4489 56.6423 23.5189 56.9788C23.8447 58.5432 24.958 59.2743 27.0272 59.2828C27.4994 59.2847 28.047 59.242 28.2441 59.1879C28.7068 59.0608 29.4928 58.5855 30.1366 58.0436C30.8017 57.4837 30.8846 57.3888 31.4456 56.5451C32.5977 54.8121 32.9114 53.6785 32.9386 51.1483C32.9648 48.7276 32.4254 47.6771 29.6704 44.7837C28.2565 43.2989 27.9589 42.9377 27.4099 42.0409C26.8738 41.1652 26.5476 40.4878 26.3438 39.8272C26.2444 39.505 26.0539 38.9836 25.9206 38.6685C25.4549 37.5685 25.1669 36.5986 25.1701 36.1404C25.1742 35.5382 25.5175 34.2625 25.8082 33.7693C25.9371 33.5508 26.1621 33.2583 26.3082 33.1193L26.574 32.8668L26.7298 33.3421C26.9529 34.023 27.3863 34.8556 27.9977 35.7784C29.2323 37.6418 30.8219 38.7963 33.5861 39.8374C34.1142 40.0363 34.4942 40.2316 34.5253 40.3202C34.6382 40.6422 34.4269 42.0136 33.9959 43.7553C33.4074 46.1329 33.3027 46.9689 33.4509 48.1046C33.6851 49.8995 34.2309 51.1504 35.1942 52.1005C35.9393 52.8354 36.5495 53.1608 37.8354 53.5091C39.4475 53.9458 41.2447 53.8962 42.3441 53.3844C43.045 53.0582 44.1275 52.2608 44.4803 51.8109C44.9498 51.2123 44.989 51.0795 44.9911 50.0834C44.9929 49.2473 44.962 49.062 44.7022 48.3454C44.1531 46.8309 43.9456 45.659 44.1566 45.2646C44.2983 45.0001 44.4846 45.0575 44.7409 45.4448C44.9357 45.7392 44.986 45.947 45.0455 46.7044C45.1383 47.8853 45.2633 48.078 45.9363 48.078C46.3463 48.078 46.431 48.0463 46.5903 47.8329C46.7444 47.6265 46.7794 47.4209 46.811 46.5325C46.8701 44.8754 46.5631 44.1565 45.548 43.5743C45.1683 43.3565 44.9899 43.3115 44.5101 43.3124C43.8239 43.3138 43.3625 43.4997 42.8874 43.9663C42.7058 44.1447 42.5155 44.441 42.4645 44.6246C42.3521 45.0292 42.3514 46.0431 42.4631 46.6519C42.7527 48.2301 42.7659 48.4456 42.6161 49.1356C42.4225 50.0276 42.2707 50.234 41.5801 50.5438C41.1306 50.7455 40.8549 50.8065 40.3279 50.8207C39.727 50.837 39.5989 50.8098 39.1735 50.575C38.5247 50.217 37.8176 49.4096 37.3868 48.5353C36.6976 47.1361 36.6859 46.5814 37.2831 43.5914C37.5246 42.3825 37.7487 41.2103 37.7811 40.9863L37.84 40.5792L38.3494 40.4741C39.0756 40.3241 40.345 39.6181 41.0183 38.9897C42.6857 37.4336 43.2448 35.4181 42.9046 32.1893C42.8077 31.27 42.9042 30.285 43.1347 29.8393C43.2868 29.5451 44.0326 29.1408 44.4258 29.1392C44.5509 29.1387 44.8574 29.24 45.1068 29.3643C45.7278 29.6737 46.0499 30.1656 46.0969 30.8763C46.1284 31.3523 46.1073 31.438 45.9048 31.6562C45.6129 31.9708 45.3637 31.9664 45.038 31.6408C44.8091 31.4119 44.7775 31.3165 44.7775 30.8565C44.7775 30.2701 44.6812 30.1187 44.3081 30.1187C43.9482 30.1187 43.7576 30.2426 43.5339 30.6215C43.0123 31.5056 43.1381 32.5661 43.8554 33.3331C44.6261 34.1569 45.505 34.354 46.3101 33.8837C46.8622 33.5611 47.7416 32.5486 48.0976 31.8256C48.3657 31.2811 48.383 31.1872 48.3852 30.2592C48.3873 29.3725 48.3634 29.2203 48.1493 28.7637C47.8134 28.0472 46.9061 27.1757 46.0848 26.7807C45.2107 26.3603 44.6581 26.2573 43.5281 26.3038C42.7351 26.3365 42.5203 26.3773 42.2292 26.5512C41.7412 26.8428 41.2259 27.344 41.0355 27.7125C40.7639 28.2382 40.3367 29.744 40.0998 31.01C39.976 31.6718 39.8289 32.4539 39.7728 32.748C39.6428 33.4299 39.3182 34.2473 39.0242 34.6327C38.7703 34.9655 38.2911 35.2432 37.8205 35.3301L37.5127 35.387L37.2984 34.6023C36.6925 32.3834 35.2882 30.0862 33.2907 28.0465L32.6143 27.3558L33.0133 27.355C33.5319 27.3539 35.2047 26.9733 35.7499 26.7323C37.0638 26.1515 38.5744 25.0413 39.025 24.3254C39.4248 23.6902 39.7896 22.5393 39.8939 21.5842C40.0623 20.0416 39.8664 18.5854 39.0338 15.1899C38.4734 12.9049 38.407 12.4381 38.5319 11.6629C38.6618 10.8566 38.9552 10.4769 39.7857 10.0402C40.414 9.70983 40.4902 9.69121 41.05 9.73087C41.9563 9.79495 42.4308 10.0688 42.7874 10.7335C43.0952 11.3071 43.4404 12.446 43.4404 12.8876C43.4404 13.0363 43.3964 13.2842 43.3425 13.4386C43.2116 13.8143 42.8599 13.8228 42.5111 13.4588C42.2706 13.2078 42.2647 13.1798 42.349 12.6908C42.4417 12.1526 42.3898 11.751 42.1853 11.4236C41.9926 11.1151 41.3691 11.1419 41.0381 11.473C40.4694 12.0415 40.4462 14.0008 40.998 14.8595C41.5554 15.727 42.8572 16.1134 43.7562 15.6782C44.4306 15.3518 45.2711 14.2384 45.5379 13.3182C45.722 12.6833 45.7266 11.6898 45.547 11.3574C45.4675 11.2103 45.4024 11.0076 45.402 10.907C45.4011 10.6127 44.7393 9.35136 44.2937 8.79476C43.8014 8.17987 43.2132 7.73111 42.549 7.46373C42.1281 7.2942 41.8886 7.26613 40.8554 7.26497C39.7599 7.26372 39.5881 7.28618 38.9389 7.51578C37.7124 7.94956 37.1878 8.33281 36.5742 9.24388C35.9212 10.2131 35.7655 10.8356 35.76 12.4979C35.7558 13.7465 35.7814 13.9684 36.0861 15.3235C36.8382 18.6677 36.8587 20.3442 36.1655 21.8299C35.889 22.4222 35.7893 22.5423 35.2896 22.8846C33.8838 23.8473 32.559 24.1856 31.1672 23.9373C30.3176 23.7857 29.401 23.3438 29.3215 23.0474C29.1832 22.5321 29.2732 21.5082 29.5186 20.8034C29.7447 20.1538 29.9455 19.8145 30.8556 18.544C31.2492 17.9946 31.975 16.5524 32.2121 15.849C32.6941 14.4183 32.7675 12.9893 32.4411 11.389C32.0828 9.63292 31.4017 8.28326 30.392 7.32834C29.655 6.63136 28.9711 6.17788 27.8506 5.64347C26.7912 5.13812 26.1495 4.98767 25.0461 4.98606C24.0372 4.98455 23.5173 5.10086 22.277 5.60559C19.9075 6.57004 18.3411 7.85972 17.4944 9.54352C17.0097 10.5073 16.8771 11.2576 16.877 13.0364C16.8768 14.4555 16.9011 14.7372 17.2408 17.2656C17.448 18.8083 17.4616 19.9733 17.2782 20.493C17.2047 20.7013 17.1445 21.0489 17.1445 21.2653C17.1445 21.4816 17.0655 21.8137 16.9688 22.0031C16.5811 22.763 14.4558 23.7907 13.272 23.7907C12.4915 23.7907 11.065 23.4899 10.4737 23.2006C9.89799 22.9189 9.34631 22.4448 9.1478 22.0609C8.85632 21.4973 9.04297 20.2235 9.49571 19.686C9.94809 19.1489 11.4944 18.2683 13.3843 17.4716C15.754 16.4726 16.4669 15.8469 16.579 14.6673C16.6929 13.4697 15.8145 12.3011 14.6041 12.0402C14.2046 11.954 12.8994 11.7521 10.994 11.4818C8.96427 11.1938 7.02523 9.94638 6.29777 8.46071C5.93239 7.71444 5.64563 6.67191 5.64563 6.08973C5.64563 5.52038 6.01342 4.36689 6.37523 3.80156C7.09521 2.6765 8.66208 1.96793 9.68397 2.3051C10.2943 2.50653 10.7494 3.27838 10.6026 3.86314C10.5267 4.16573 10.1185 4.62822 9.92732 4.62822C9.82107 4.62822 9.70411 4.47982 9.57647 4.1832C9.33758 3.62794 9.05804 3.42829 8.63151 3.50833C7.76954 3.67 7.76125 5.2522 8.61778 6.10809C9.19362 6.68341 10.1789 6.81942 10.9494 6.43002C11.9592 5.91968 12.6614 4.28106 12.4088 3.02392C12.2145 2.05652 11.8065 1.54342 10.8257 1.03298C9.97875 0.592155 9.04708 0.43832 8.14152 0.589926ZM10.2841 1.3566C11.4307 1.90545 11.9224 2.61767 11.9271 3.73694C11.9295 4.29105 11.8875 4.49167 11.6821 4.90995C10.926 6.44936 9.31262 6.67379 8.64417 5.33259C8.40661 4.85594 8.33058 4.17669 8.48719 3.92972C8.64898 3.67455 8.95669 3.85459 9.12668 4.30388C9.32733 4.8341 9.50605 5.04132 9.81367 5.10006C10.8625 5.30051 11.6268 3.69781 11.04 2.5289C10.7626 1.97631 10.4011 1.72934 9.60687 1.55001C9.04333 1.42274 8.91952 1.42229 8.3296 1.54529C6.74676 1.87524 5.60989 3.08978 5.15163 4.94016C4.7062 6.73921 5.29434 8.7518 6.63516 10.0165C7.98784 11.2924 9.29675 11.8064 11.7516 12.0257C12.9498 12.1328 14.3762 12.3662 14.8081 12.5258C15.5651 12.8056 16.0402 13.4204 16.1311 14.2378C16.1929 14.7928 15.8286 15.5272 15.3151 15.8827C15.1179 16.0193 14.2466 16.3895 13.3789 16.7054C10.3911 17.7932 8.92888 18.7343 8.39387 19.9136C8.12948 20.4964 8.11085 21.7087 8.35892 22.1809C8.85944 23.1333 10.1978 23.9713 11.5752 24.1949C12.9908 24.4246 13.5689 24.379 14.9013 23.9327L16.0737 23.5398L15.6509 24.078C14.9636 24.9529 13.6724 26.0262 12.1813 26.9623C11.5411 27.3642 11.4042 27.4178 11.1937 27.3494C11.0593 27.3056 10.6084 27.1652 10.1917 27.0373C7.8979 26.3335 6.32576 25.1315 5.4851 23.4388L5.15537 22.775L5.15849 21.6117C5.16126 20.6039 5.18978 20.3769 5.37225 19.9136C6.12502 18.0017 7.93427 16.7524 10.7364 16.21C12.87 15.7971 13.0994 15.7165 13.6432 15.1898C14.0235 14.8216 14.1138 14.6778 14.1138 14.441C14.1138 14.0394 13.8715 13.6633 13.4938 13.4785C13.1549 13.3127 13.0517 13.309 10.1026 13.354C8.32131 13.3813 7.93828 13.3271 7.02728 12.9191C6.09356 12.501 5.37813 11.5999 4.77618 10.0839C4.21861 8.67979 4.10478 8.10901 4.09667 6.67815C4.08981 5.46459 4.10487 5.34507 4.34305 4.71734C4.96809 3.06982 6.204 1.82791 7.81286 1.23075C8.49156 0.97888 9.61435 1.03601 10.2841 1.3566ZM26.421 5.84044C26.6873 5.91887 27.3264 6.19909 27.8412 6.463C29.9647 7.55187 31.0784 9.07489 31.5798 11.5756C32.0645 13.9933 31.6554 15.7253 29.8418 18.9332C29.4242 19.672 29.1062 20.3665 28.9644 20.8495C28.8421 21.2661 28.7399 21.5383 28.7373 21.4545C28.7281 21.1586 28.3676 20.3306 28.2241 20.2755C27.933 20.1638 27.8996 20.3781 28.1076 21.0247C28.4072 21.9564 28.268 22.7744 27.653 23.6952C27.2846 24.2468 27.2532 24.5037 27.5543 24.5037C27.8946 24.5037 28.4811 23.6436 28.6032 22.9653C28.6767 22.5576 28.8217 22.4367 28.8217 22.7831C28.8217 23.1238 29.4338 24.3616 29.8716 24.9062C31.0666 26.3929 31.2302 26.5782 32.9328 28.3764C35.6054 31.1992 36.8057 33.541 37.2975 36.8925C37.5527 38.6313 37.5048 39.2892 36.9335 41.8836C36.1522 45.4322 36.1335 45.5394 36.1322 46.4798C36.1309 47.5304 36.2598 48.0417 36.7823 49.0584C37.2183 49.9066 38.0073 50.7457 38.7186 51.1173C39.1722 51.3544 39.2783 51.3724 40.2332 51.374C41.2311 51.3756 41.2776 51.3669 41.8789 51.0638C42.6783 50.6607 42.9698 50.2958 43.0938 49.5427C43.1998 48.8981 43.137 47.8555 42.9356 46.9193C42.7277 45.9527 42.7354 45.025 42.9546 44.6466C43.1717 44.272 43.8669 43.7837 44.2985 43.7027C44.9093 43.5882 45.9228 44.3071 46.1123 44.9895C46.2313 45.4179 46.2281 46.4082 46.1054 47.1126C46.0242 47.5789 45.9769 47.6769 45.8334 47.6769C45.5759 47.6769 45.4015 47.1677 45.4015 46.4156C45.4015 45.391 44.9354 44.6448 44.2975 44.6479C43.9471 44.6497 43.8577 44.7103 43.6721 45.0724C43.3117 45.7756 43.3977 46.9809 43.9277 48.6561C44.3323 49.9349 44.3675 50.3056 44.1506 51.0077C44.0007 51.4929 43.8939 51.6542 43.4544 52.0576C42.0219 53.3734 40.3944 53.6955 38.1282 53.1118C36.7349 52.7529 36.2188 52.5063 35.6578 51.9318C35.089 51.3491 34.7019 50.6384 34.3829 49.5908C34.1638 48.8712 34.1393 48.6569 34.1399 47.4541C34.1405 46.125 34.1434 46.1057 34.6389 44.1564C35.4061 41.1382 35.4487 40.7527 35.1867 39.2032C35.0403 38.337 34.8126 37.6968 34.5397 37.3837C34.4537 37.2852 34.2287 36.9437 34.0398 36.6251C33.5646 35.8239 32.9436 35.0757 31.6727 33.773C31.0749 33.1602 30.3887 32.3809 30.148 32.0411C29.6833 31.3857 28.5476 30.297 28.3285 30.297C28.0411 30.297 28.2324 30.6323 28.9236 31.3403C29.3227 31.7493 29.6273 32.1059 29.6004 32.1329C29.5734 32.1598 29.4173 32.1108 29.2534 32.0238C28.5481 31.6497 26.8072 31.9846 26.1521 32.6202L25.8162 32.9462L25.8606 31.7108C25.9041 30.5031 25.8637 30.3041 25.6325 30.5867C25.5824 30.648 25.5153 31.0189 25.4836 31.4111C25.4015 32.424 25.1763 33.9213 25.0303 34.4247C24.9619 34.6606 24.8627 35.2622 24.8098 35.7616C24.7237 36.575 24.7323 36.7416 24.8919 37.3597C24.99 37.7392 25.1764 38.3007 25.306 38.6075C25.4357 38.9142 25.6751 39.5576 25.838 40.0371C26.1537 40.966 26.54 41.729 27.196 42.7187C27.6709 43.4356 27.9653 43.784 29.3143 45.2259C30.9305 46.9533 31.4117 47.5742 31.9004 48.5628C32.6361 50.0513 32.741 52.2072 32.1573 53.8422C32.0816 54.0543 32.0013 54.3682 31.9788 54.5398C31.8959 55.1713 30.6761 56.9535 29.8913 57.5897C28.6871 58.5659 27.9663 58.8005 26.6591 58.6416C25.7312 58.5288 25.4081 58.4111 24.9698 58.0263C24.4164 57.5405 24.2748 57.0829 24.1021 55.2229C23.9674 53.7708 23.7635 53.3695 23.0369 53.1261C22.3697 52.9027 21.4576 53.4838 21.0595 54.3858C20.6725 55.263 20.8607 56.7402 21.4808 57.6902C21.7898 58.1637 21.8398 58.5457 21.6269 58.8085C21.2862 59.2294 20.7032 58.8651 20.1142 57.8633C19.8752 57.4567 19.8632 57.3835 19.8632 56.3223C19.8632 55.2171 19.8659 55.2029 20.1934 54.5398C20.6023 53.7119 21.2044 52.9424 21.7589 52.539C22.2309 52.1956 23.5528 51.6877 23.9744 51.6877C24.3092 51.6877 24.8154 52.0131 24.9653 52.3247C25.0558 52.5126 25.046 52.7158 24.9113 53.4522C24.729 54.4491 24.7518 55.0517 24.9896 55.5202C25.1975 55.9296 25.3789 56.0851 25.9695 56.3599C26.5332 56.6222 27.3864 56.6704 27.8726 56.4672C28.3249 56.2783 28.9535 55.3729 29.2307 54.5111C29.9971 52.1287 29.2843 50.0321 26.7974 47.3536C26.1932 46.7028 25.6615 46.1474 25.616 46.1192C25.4479 46.0153 23.9384 43.9578 23.5875 43.3542C22.6041 41.6626 22.0319 39.9345 21.5124 37.0869C21.0968 34.8086 21.0702 33.0911 21.4202 31.1437C21.6248 30.0059 21.6263 29.8514 21.4327 29.8514C21.2937 29.8514 21.2412 29.927 21.2012 30.1856C21.1042 30.8118 20.9776 31.4853 20.952 31.5109C20.9379 31.5249 20.7178 31.4331 20.4628 31.307C20.07 31.1126 19.8894 31.0795 19.2799 31.0906C18.8104 31.0992 18.4018 31.164 18.1031 31.2776C17.8514 31.3732 17.6351 31.4411 17.6225 31.4285C17.5743 31.3804 18.6855 29.7996 18.8686 29.6556C19.0198 29.5368 19.0378 29.4812 18.9525 29.3957C18.7701 29.2126 18.5132 29.406 17.9633 30.1407C17.3345 30.9809 16.7265 32.1007 16.6139 32.6264C16.568 32.8404 16.4289 33.3871 16.3048 33.8414C15.8097 35.654 15.6301 37.5504 15.8042 39.1272C15.9502 40.4493 16.3794 41.6915 17.3113 43.4893C18.521 45.8231 19.2723 47.849 19.3042 48.8637C19.3236 49.4809 19.1138 50.5809 18.7992 51.5103C18.6012 52.0956 18.058 52.9571 17.5511 53.4899C17.3116 53.7417 15.5212 55.2208 14.4796 56.0274C12.7816 57.3425 11.5668 59.4891 11.4624 61.3593C11.3821 62.7981 11.9685 64.4745 12.8109 65.214C13.4504 65.7755 14.4328 65.9657 15.7629 65.7856C16.7143 65.6568 16.958 65.8637 16.6385 66.5295C16.3368 67.1584 16.1275 67.2409 14.8425 67.2374L13.7127 67.2344L12.8041 66.7712C12.3044 66.5165 11.7534 66.1833 11.5797 66.0308C10.9215 65.453 9.98161 63.6523 9.68772 62.4061C9.55294 61.8344 9.54803 61.6394 9.64519 60.697C9.81821 59.0183 10.0666 58.2854 10.8756 57.066C11.6535 55.8934 12.8601 54.73 14.3208 53.7442C16.2632 52.4333 17.0025 51.5778 17.2383 50.3684C17.4665 49.1978 17.2043 47.998 16.4924 46.9549C13.6632 42.8097 12.5097 40.2708 12.1483 37.3937C12.0194 36.3678 12.0824 34.5645 12.2785 33.6664C12.4056 33.0847 13.4208 30.5551 13.7701 29.9499C13.9423 29.6515 13.9383 29.4057 13.7613 29.4057C13.7114 29.4057 13.5644 29.5662 13.4347 29.7622C13.2363 30.062 13.1505 30.1187 12.8958 30.1187C12.2029 30.1187 10.1766 30.9886 8.8811 31.8421C7.91207 32.4806 6.89572 33.4049 6.50261 34.0053C6.37078 34.2065 6.22771 34.5875 6.18466 34.852C6.08081 35.4899 6.22726 36.6591 6.46357 37.0796C6.69408 37.4897 7.03005 37.6777 8.33557 38.1272C9.68237 38.5908 9.76473 38.6366 10.5451 39.3583C11.3487 40.1012 12.0016 41.0754 12.2619 41.9199C12.5471 42.8453 12.5428 44.2107 12.2523 45.0031C11.9313 45.8786 11.6484 46.406 11.1048 47.1422C10.226 48.3325 9.88462 48.5928 9.00875 48.74C7.95343 48.9174 7.48662 48.681 5.98659 47.2099C4.95962 46.2027 4.59736 46.0281 3.5351 46.0281C2.85265 46.0281 2.67544 46.0583 2.46543 46.2103C2.16379 46.4288 1.72656 47.2606 1.66247 47.738C1.54454 48.6171 2.13785 49.4597 3.12604 49.8164C3.77221 50.0498 3.8707 50.1422 3.76632 50.4176C3.70054 50.5911 3.62602 50.6181 3.21304 50.6181C1.92035 50.6181 1.14752 49.9518 0.787935 48.5272C0.617324 47.851 0.618839 47.4369 0.794442 46.7593C1.00222 45.9575 1.22703 45.5823 1.74707 45.1697C2.39778 44.6533 2.675 44.5574 3.51852 44.5574C4.17324 44.5574 4.30133 44.5867 4.74524 44.8371C5.27589 45.1366 5.87579 45.5651 6.56234 46.1351C7.0444 46.5353 8.00638 46.9639 8.42266 46.9639C8.95152 46.9639 9.38286 46.7666 9.77846 46.3437C10.1067 45.9929 10.1818 45.8401 10.2789 45.3255C10.4448 44.4464 10.3628 43.7343 10.0169 43.049C9.71134 42.4439 9.06187 41.6946 8.51608 41.3174C8.17771 41.0836 7.0526 40.6059 6.18047 40.3257C5.44525 40.0896 4.51197 39.5771 4.24732 39.2643C4.11824 39.1117 3.88871 38.7263 3.73718 38.4076C3.47725 37.8608 3.46254 37.7732 3.47529 36.8479C3.49133 35.6866 3.6935 34.8259 4.20346 33.7477C4.64907 32.8055 5.18621 32.1208 6.17966 31.2289C7.05082 30.4467 7.69119 30.0417 9.65687 29.0294C11.4168 28.1232 12.3528 27.557 13.4193 26.7537C14.581 25.8789 15.3683 25.1401 15.9122 24.4146C16.1511 24.0959 16.4358 23.7256 16.545 23.5917C16.6541 23.4577 16.8733 23.1168 17.032 22.8341C17.1908 22.5514 17.3212 22.3777 17.3217 22.4481C17.3234 22.6539 17.6925 22.9885 17.9177 22.9885C18.1745 22.9885 18.1827 22.827 17.9491 22.3693C17.5546 21.5962 17.6463 20.6053 18.1764 19.9109C18.3442 19.691 18.4816 19.4512 18.4816 19.3781C18.4816 19.229 18.1226 19.1942 17.9865 19.3302C17.9327 19.384 17.9133 19.2681 17.9336 19.0131C17.9511 18.7919 17.9007 17.9615 17.8214 17.1678C17.5046 13.9946 17.487 11.6364 17.7725 10.6443C18.1873 9.20332 19.6452 7.66765 21.4807 6.73849C22.0172 6.46692 23.6852 5.82342 24.0082 5.76344C24.565 5.65996 25.9599 5.70452 26.421 5.84044ZM42.667 8.00607C44.2169 8.89271 45.414 11.1284 45.1587 12.6595C45.0292 13.4361 44.5724 14.3502 44.0239 14.9301L43.5675 15.4127H43.0035C42.565 15.4127 42.3449 15.3612 42.0145 15.1814C41.4418 14.8697 41.2232 14.5439 41.0643 13.7644C40.8847 12.8842 41.0347 12.0078 41.4128 11.7272C41.5728 11.6083 41.6885 11.5754 41.7454 11.6322C41.7934 11.6803 41.8468 12.0993 41.864 12.5634C41.9129 13.8788 42.1796 14.3216 43.0174 14.4786C43.4604 14.5617 43.7584 14.364 43.9943 13.8305C44.1427 13.4951 44.1645 13.3187 44.1159 12.8449C44.0426 12.1298 43.6399 11.0696 43.1953 10.4215C42.7589 9.78533 41.9611 9.35582 41.0853 9.2855C40.5422 9.24191 39.697 9.38434 39.6962 9.51955C39.6961 9.54994 39.5166 9.64851 39.2974 9.73862C38.5817 10.033 38.003 10.9087 37.8452 11.9367C37.721 12.7453 37.8302 13.646 38.299 15.6801C39.2244 19.6952 39.3495 21.3748 38.843 22.9885C38.5815 23.8218 38.2564 24.3402 37.6584 24.8773C36.6372 25.7947 35.6329 26.3602 34.6157 26.5906C34.248 26.6739 33.7773 26.7803 33.5697 26.827C33.3621 26.8738 32.9653 26.8854 32.688 26.8528C32.1016 26.7839 31.872 26.6124 31.0949 25.6626C30.8154 25.321 30.4471 24.8904 30.2766 24.7058C30.106 24.5211 29.9266 24.297 29.8778 24.2077C29.7945 24.0552 29.802 24.0539 30.002 24.1848C30.3317 24.4009 31.5532 24.682 32.1622 24.682C33.3204 24.682 34.8358 24.2108 35.4965 23.6454C35.6895 23.4802 35.887 23.345 35.9354 23.345C36.1101 23.345 36.6046 22.6768 36.9343 21.9952C37.713 20.3851 37.6511 18.5225 36.7082 15.1899C36.2415 13.5401 36.2202 13.4175 36.2213 12.3859C36.2224 11.2631 36.3382 10.6841 36.7161 9.91189C37.1689 8.98656 38.353 8.06997 39.4655 7.78378C39.7551 7.70927 40.3255 7.67612 41.041 7.69225C42.1206 7.71658 42.1814 7.72826 42.667 8.00607ZM19.3433 18.3242C19.2309 18.4365 19.2844 18.6132 19.55 19.0067C19.9444 19.5909 20.1453 20.1985 20.4773 21.811C20.6417 22.6094 20.7997 23.2861 20.8284 23.3148C20.8571 23.3436 20.9482 23.3411 21.0308 23.3095C21.1632 23.2587 21.1739 23.1494 21.1212 22.3837C20.9955 20.5594 20.5972 19.2992 19.9251 18.599C19.6122 18.2731 19.4643 18.2032 19.3433 18.3242ZM27.128 19.1744C26.1173 19.6695 25.2457 21.0166 24.8959 22.6243C24.7034 23.5095 24.7163 23.733 24.9575 23.6859C25.0613 23.6655 25.1678 23.4191 25.3166 22.8548C25.727 21.2982 26.3411 20.3197 27.4075 19.5231C27.6951 19.3083 27.9303 19.0977 27.9303 19.0551C27.9303 18.9157 27.5369 18.9741 27.128 19.1744ZM18.7606 20.4539C18.3658 20.9558 18.3019 21.676 18.6104 22.1468C18.7546 22.3669 19.2954 22.567 19.5167 22.4822C19.7408 22.3962 19.933 21.8991 19.9756 21.2958C20.0128 20.7674 19.9962 20.6939 19.7881 20.4707C19.4794 20.1393 19.014 20.1317 18.7606 20.4539ZM19.5513 21.1339C19.5513 21.1735 19.4668 21.206 19.3634 21.206C19.2289 21.206 19.191 21.166 19.2297 21.065C19.2595 20.9874 19.2851 20.8772 19.2867 20.8199C19.2898 20.7061 19.5513 21.0165 19.5513 21.1339ZM26.3154 21.4229C26.044 21.6072 25.9792 21.7194 25.8834 22.1708C25.7066 23.0041 25.9541 23.5426 26.5708 23.6659C27.0802 23.7678 27.4829 23.1226 27.4841 22.2028C27.4847 21.726 27.3756 21.5137 27.0407 21.3406C26.7033 21.1661 26.6912 21.1675 26.3154 21.4229ZM26.6766 22.5052C26.5286 22.6836 26.483 22.6131 26.5568 22.3194C26.6091 22.111 26.6306 22.097 26.7019 22.2244C26.7577 22.3241 26.7493 22.4177 26.6766 22.5052ZM17.5902 23.866C17.5902 24.1544 17.83 24.4146 18.0958 24.4146C18.1946 24.4146 18.5086 24.3344 18.7936 24.2363C19.0786 24.1383 19.5061 24.0581 19.7435 24.0581C20.0632 24.0581 20.1752 24.0242 20.1752 23.9275C20.1752 23.5838 19.3693 23.5111 18.6599 23.7907C18.4111 23.8887 18.1717 23.9689 18.1277 23.9689C18.0839 23.9689 18.0224 23.8887 17.9913 23.7907C17.9602 23.6926 17.8573 23.6124 17.7625 23.6124C17.6326 23.6124 17.5902 23.6748 17.5902 23.866ZM25.5681 24.5626C25.4701 24.5836 25.2174 24.6632 25.0066 24.7395C24.4322 24.9476 24.5782 25.0879 25.336 25.0562C25.9282 25.0314 26.0018 25.0491 26.3073 25.2885C26.7939 25.6698 26.9864 25.7515 27.3981 25.7515C27.8344 25.7515 28.2868 25.5134 28.2868 25.2838C28.2868 25.0482 28.0761 25.0046 27.7505 25.173C27.3884 25.3601 27.1969 25.3083 26.6066 24.8632C26.1548 24.5227 25.9845 24.4734 25.5681 24.5626ZM45.2794 26.9141C46.445 27.3019 47.459 28.1862 47.8146 29.1252C47.9773 29.5546 47.997 29.7399 47.9491 30.3861C47.8777 31.3511 47.5792 32.0136 46.8715 32.778C46.2303 33.4705 45.778 33.7193 45.2657 33.6616C44.3257 33.5557 43.4871 32.4075 43.6634 31.4679C43.7485 31.0148 44.0443 30.4753 44.2077 30.4753C44.324 30.4753 44.3354 30.5388 44.2753 30.8541C44.1366 31.5822 44.1838 31.7953 44.5694 32.1808C45.1998 32.8112 45.9074 32.7085 46.4467 31.9083C46.864 31.2893 46.6224 30.1055 45.9396 29.4227C45.541 29.0242 45.0964 28.8165 44.4812 28.7416C44.0259 28.686 43.9029 28.7071 43.4805 28.9138C42.4947 29.396 42.3739 29.7815 42.2782 32.748C42.1835 35.6894 41.9721 36.5804 41.0691 37.8458C40.4712 38.6836 39.0893 39.6486 38.1812 39.8625L37.9584 39.915L37.9444 38.9162C37.9367 38.3669 37.8668 37.5364 37.7888 37.0707C37.592 35.8947 37.5738 35.9608 38.103 35.9308C38.8905 35.8862 39.4758 35.4605 39.9926 34.5564C40.3543 33.9237 40.5686 33.0991 40.81 31.4111C41.0931 29.4316 41.3413 28.2467 41.5646 27.8092C41.7282 27.4883 42.0973 27.1482 42.5309 26.9187C43.1188 26.6075 44.3517 26.6053 45.2794 26.9141ZM12.7178 31.2551C12.0668 32.6526 11.8784 33.1971 11.7109 34.165C11.389 36.0247 11.3939 37.4557 11.7275 39.0205C11.8173 39.4421 11.8114 39.513 11.6784 39.6102C11.5479 39.7057 11.4289 39.6276 10.8033 39.0355C10.405 38.6587 9.91395 38.2689 9.71205 38.1693C9.51015 38.0697 8.95847 37.8025 8.48613 37.5753C7.16331 36.9392 6.83127 36.4277 6.9147 35.1545C6.96774 34.3459 7.25031 33.6995 7.75341 33.2357C8.16389 32.8575 9.61141 31.8857 10.2471 31.5618C10.6239 31.3697 12.3237 30.7082 12.643 30.6292C13.0307 30.5333 13.0354 30.5734 12.7178 31.2551ZM20.4262 31.8135L20.8438 31.9931L20.8126 33.6124C20.7854 35.0183 20.8925 36.6566 21.036 37.0306C21.1616 37.3577 19.5184 38.5786 17.9178 39.3472C17.468 39.5632 16.9609 39.8208 16.791 39.9196C16.4113 40.1405 16.3904 40.1115 16.2609 39.1806C16.0709 37.8148 16.072 37.8111 16.8352 37.1693C17.6697 36.4675 17.9352 36.0823 18.2848 35.0653C18.5695 34.237 18.6919 33.6004 18.7934 32.419C18.8458 31.8099 18.8739 31.7294 19.0458 31.6959C19.5218 31.6032 20.0396 31.6473 20.4262 31.8135ZM18.3449 32.3247C18.0458 34.4874 17.3667 36.0482 16.4369 36.7103L16.1594 36.9079L16.2132 36.5213C16.4836 34.5763 16.848 33.4223 17.4422 32.6293C17.6684 32.3272 18.1857 31.9013 18.3261 31.9013C18.3686 31.9013 18.377 32.0918 18.3449 32.3247ZM29.0684 32.8115C29.9766 33.3098 30.5275 33.7689 31.8078 35.0943C33.0272 36.3566 33.9154 37.5225 34.1584 38.1796C34.3624 38.7313 34.4807 39.4772 34.3643 39.4772C34.2 39.4772 33.0915 39.0283 32.304 38.6428C30.2701 37.6472 28.8881 36.3893 27.8085 34.5513C27.4194 33.8887 26.8941 32.7261 26.9582 32.6697C27.0417 32.5964 27.7328 32.4538 28.0459 32.4453C28.2877 32.4387 28.5797 32.5432 29.0684 32.8115ZM21.3273 38.5678C21.9683 41.9464 23.3368 44.4524 26.1313 47.365C27.9002 49.2087 28.8269 50.7416 28.9521 52.0309C29.0119 52.6478 28.8645 53.6509 28.5944 54.4639C28.1006 55.9505 26.4325 56.334 25.6631 55.1379C25.5027 54.8886 25.477 54.6967 25.4637 53.6485C25.4554 52.9867 25.4453 52.3781 25.4415 52.2961C25.4305 52.0632 25.003 51.6094 24.6015 51.4047C24.2915 51.2465 24.1362 51.2264 23.5654 51.2706C22.7317 51.3353 22.3394 51.4721 21.6015 51.9555C20.5918 52.6169 19.8767 53.4389 19.4546 54.4236L19.2746 54.8435L18.9381 54.3128C18.7529 54.0209 18.5354 53.7279 18.4545 53.6616C18.3201 53.5513 18.3314 53.5061 18.5866 53.1352C18.7402 52.912 18.9432 52.5251 19.0377 52.2754C19.1322 52.0256 19.269 51.7551 19.3416 51.6743C19.4143 51.5934 19.5273 51.2123 19.5928 50.8276C19.6584 50.4427 19.7621 49.8952 19.8231 49.6108C20.0687 48.4684 19.544 46.5903 18.312 44.2009C17.1123 41.8744 16.7117 41.0543 16.6515 40.802C16.5996 40.5844 16.6437 40.5408 17.2488 40.211C17.6082 40.0153 18.1629 39.7416 18.4816 39.6029C19.2411 39.2724 20.513 38.4855 20.8411 38.1431C20.9841 37.9938 21.128 37.902 21.1609 37.9391C21.1939 37.9763 21.2687 38.2591 21.3273 38.5678ZM12.0546 40.3016L12.1521 40.5913L11.9762 40.3684C11.7838 40.1249 11.7523 40.0119 11.8766 40.0119C11.9208 40.0119 12.001 40.1422 12.0546 40.3016ZM12.8999 42.3785C12.9303 42.4578 12.9153 42.4935 12.8649 42.4623C12.8164 42.4324 12.7767 42.3702 12.7767 42.324C12.7767 42.1958 12.8406 42.2241 12.8999 42.3785ZM9.43581 43.7162C9.62068 44.143 9.64885 45.178 9.48849 45.6508C9.36129 46.0257 9.0255 46.2509 8.59336 46.2509C8.24429 46.2509 8.18724 46.0389 8.26051 45.014C8.31596 44.2376 8.49709 43.4776 8.73794 43.0102L8.86933 42.7552L9.07658 43.0602C9.19059 43.2278 9.35229 43.523 9.43581 43.7162ZM13.5425 43.5548C14.0892 44.45 15.3331 46.3148 15.5939 46.6303C15.9134 47.0169 16.4948 48.2429 16.6166 48.787C16.7689 49.4674 16.5986 50.6402 16.2752 51.1389L16.047 51.4909L15.8168 51.2774C15.6902 51.1599 15.0779 50.7983 14.4562 50.4737C13.8344 50.149 13.1811 49.7641 13.0042 49.6183C12.6637 49.3376 11.7388 48.1677 11.5089 47.7268C11.3766 47.4731 11.383 47.4489 11.7077 46.9692C12.1253 46.3521 12.4432 45.7159 12.6231 45.1368C12.8336 44.4598 12.9817 43.5172 12.9177 43.262C12.8583 43.0255 12.9092 42.864 13.0431 42.864C13.0857 42.864 13.3105 43.1748 13.5425 43.5548ZM11.1722 48.0564C11.1722 48.118 11.4329 48.5582 11.7515 49.0346C12.4515 50.0813 12.9232 50.4749 14.1972 51.0755C15.4733 51.6772 15.7183 51.8067 15.7183 51.8796C15.7183 51.9138 15.4131 52.2032 15.0401 52.5226L14.362 53.1036L13.9444 52.9389C13.4328 52.7373 12.7158 52.3194 12.1649 51.9018C11.5751 51.4547 9.90495 49.8852 9.57308 49.4662L9.29247 49.112L9.66882 49.0106C9.92144 48.9426 10.2085 48.7513 10.5418 48.4286C11.0537 47.9333 11.1722 47.8632 11.1722 48.0564ZM18.981 55.3597C19.0546 55.5019 19.1056 55.8693 19.1056 56.2572C19.1056 57.0155 19.2993 57.7617 19.5993 58.1591C19.7978 58.422 19.8027 58.4607 19.695 58.9166C19.458 59.9211 18.949 60.6083 18.0836 61.0923C17.6382 61.3413 17.4321 61.4026 17.0404 61.4026C16.298 61.4026 15.7447 61.1736 15.2256 60.6516C14.6691 60.0919 14.4602 59.6595 14.4031 58.95C14.3638 58.4596 14.3813 58.3791 14.5642 58.2087C14.6771 58.1036 14.7851 58.0333 14.8043 58.0525C14.8234 58.0717 14.8734 58.4517 14.9151 58.8969C15.0006 59.8073 15.1414 60.0831 15.7433 60.5192C16.3777 60.9786 17.4668 60.8325 17.9933 60.2175C18.8121 59.2609 18.8617 57.7376 18.112 56.5694C17.825 56.1221 16.9348 55.2546 16.7585 55.2502C16.7011 55.2488 16.975 54.9527 17.367 54.5922L18.0797 53.9366L18.4681 54.5278C18.6818 54.853 18.9126 55.2274 18.981 55.3597Z" fill="black"/>
</svg>
