<svg width="45" height="37" viewBox="0 0 45 37" fill="none" xmlns="http://www.w3.org/2000/svg">
<path fill-rule="evenodd" clip-rule="evenodd" d="M41.6196 0.808012C41.4181 0.85036 40.9832 1.02085 40.5227 1.23793C39.2111 1.85636 38.4458 2.15651 36.1592 2.94939C35.1495 3.29947 33.9075 3.60077 32.0342 3.9499C31.667 4.01834 31.0983 4.12473 30.7704 4.18635C28.7659 4.56299 27.0581 4.69633 24.1417 4.70382C21.845 4.70968 21.2193 4.67735 19.1821 4.44749C17.899 4.30275 17.6123 4.2594 15.9155 3.95377C14.3136 3.66525 11.241 3.17448 10.3836 3.07023C8.78878 2.87633 7.74645 2.83522 6.67474 2.92402C6.05932 2.97504 5.89361 3.00814 5.18558 3.2216C4.60421 3.3969 4.45799 3.46596 4.30062 3.63945C4.1906 3.76077 4.14325 3.77545 3.8153 3.7899L3.45186 3.80593L3.42454 3.66882C3.40956 3.59343 3.39726 3.36623 3.39726 3.16399C3.39726 2.81495 3.38863 2.7852 3.22696 2.57765C2.98795 2.27087 2.79505 2.18961 2.30042 2.18718C1.82406 2.1848 1.43826 2.31388 1.16034 2.56859L0.98899 2.72558L0.978974 19.0508C0.973489 28.0297 0.984219 35.6121 1.00282 35.9006C1.03415 36.3863 1.04416 36.4262 1.13792 36.4396C1.19896 36.4483 1.25152 36.4218 1.2703 36.3728C1.36988 36.1133 1.40126 35.18 1.37517 33.2538C1.35972 32.1129 1.33621 27.3273 1.32295 22.6192C1.30965 17.9111 1.28576 11.5468 1.26983 8.4763L1.24088 2.8936L1.61566 2.73393C1.9883 2.57522 2.42074 2.50216 2.64874 2.55939C2.71107 2.57508 2.83525 2.65234 2.92467 2.73117C3.01413 2.81 3.09801 2.87476 3.11113 2.87514C3.12424 2.87552 3.12834 3.10905 3.12019 3.39414C3.10602 3.89077 3.10054 3.91466 2.98904 3.96545C2.84259 4.03221 2.84083 4.10346 2.98409 4.1687L3.09548 4.21944L3.12715 9.73539C3.14456 12.7691 3.17312 19.3231 3.19053 24.2997C3.22157 33.1493 3.22029 33.3504 3.13154 33.4484C3.04589 33.543 3.04546 33.552 3.12367 33.6092C3.19802 33.6635 3.20679 33.7819 3.20927 34.7613C3.21075 35.3617 3.2271 35.9387 3.24556 36.0437C3.27555 36.2141 3.29506 36.236 3.42921 36.249C3.56274 36.262 3.58281 36.2474 3.61166 36.1161C3.6295 36.0349 3.62869 35.4329 3.60995 34.7781L3.5758 33.5877H3.93957C4.21674 33.5877 4.30334 33.6033 4.30334 33.6534C4.30334 33.7763 4.43358 33.8274 5.04828 33.9458C5.72016 34.0751 5.99485 34.0883 6.56978 34.0183C7.37467 33.9204 8.22376 33.8684 9.72862 33.8249C10.5872 33.8001 11.6652 33.7593 12.1243 33.7342C16.3314 33.5045 17.324 33.5382 20.9943 34.035C21.989 34.1696 24.5293 34.431 26.5977 34.6116C30.3085 34.9356 35.1401 34.6208 38.2359 33.8534C39.7733 33.4723 40.6901 33.1551 41.7626 32.6332C43.3482 31.8616 43.7497 31.7008 44.1708 31.6689C44.3362 31.6564 44.3381 31.6536 44.3964 31.3463C44.4807 30.9023 44.5878 29.798 44.6488 28.7447C44.7261 27.4085 44.6283 26.1944 44.3148 24.5983C44.1859 23.9426 44.0355 23.1486 43.9805 22.8338C43.8777 22.2459 43.6181 21.2645 43.0025 19.1379C42.2753 16.6257 42.2392 16.3688 42.2425 13.7252C42.2439 12.5974 42.2713 11.2991 42.3034 10.8401C42.3355 10.381 42.3833 9.28658 42.4095 8.40791C42.4359 7.52924 42.4785 6.64938 42.5043 6.45267C42.5836 5.84997 42.6188 1.82307 42.5491 1.34995C42.4597 0.743298 42.4513 0.729281 42.1811 0.733907C42.0559 0.736006 41.8032 0.769384 41.6196 0.808012ZM42.1984 1.9103C42.1831 2.40211 42.1492 3.58776 42.123 4.54511C42.0968 5.50247 42.0537 6.44671 42.0274 6.64342C42.001 6.84014 41.9575 7.65562 41.9308 8.4556C41.9041 9.25558 41.861 10.232 41.8351 10.6254C41.6691 13.139 41.6618 15.2371 41.8149 16.4111C41.9209 17.2239 42.0354 17.7147 42.4789 19.2571C43.2017 21.7712 43.3566 22.3705 43.5511 23.4067C43.657 23.9711 43.7984 24.6847 43.8653 24.9925C44.0485 25.8361 44.1205 26.4576 44.1536 27.4835C44.1856 28.4774 44.1199 29.8844 44.0023 30.7222C43.9639 30.9959 43.9325 31.2258 43.9325 31.2332C43.9325 31.2406 43.852 31.2615 43.7536 31.2797C43.544 31.3185 43.0958 31.5262 42.4303 31.8927C40.9267 32.7207 40.3236 32.961 38.7344 33.3652C36.656 33.8937 35.1816 34.101 32.0103 34.3105C30.6599 34.3998 27.8985 34.3882 27.0507 34.2897C26.6704 34.2455 25.973 34.1763 25.5009 34.1359C24.2052 34.0249 22.1593 33.7942 20.8512 33.6117C16.8676 33.0557 16.0667 33.0266 11.7189 33.2797C11.0632 33.3178 9.89205 33.37 9.11635 33.3955C7.78789 33.4394 6.73536 33.5242 6.09805 33.6389C5.93009 33.6691 5.60533 33.6761 5.28548 33.6564L4.75266 33.6236L4.83483 32.99C4.88004 32.6416 5.04642 31.5766 5.2046 30.6234C5.546 28.5661 5.65407 27.7429 5.77958 26.2436C5.96838 23.9889 5.99523 23.2005 5.9319 21.7716C5.84315 19.7688 5.78306 19.1523 5.50328 17.3734C5.43108 16.9144 5.44024 17.0274 5.37408 16.7235C5.35071 16.5599 5.31564 16.5287 5.31564 16.4235C5.31564 16.2365 5.28772 16.2734 5.23382 16.0339C5.19875 15.878 5.03631 14.4918 4.89849 13.1291C4.78776 12.034 4.7736 11.6647 4.75595 9.41677C4.73712 7.01821 4.70983 6.43907 4.54059 4.84698C4.51503 4.60644 4.49457 4.32745 4.49514 4.22702C4.49705 3.90107 4.56963 3.85825 5.54324 3.60821L6.42548 3.38164L7.7846 3.38026C9.25216 3.37873 9.96067 3.44674 11.9812 3.78313C13.0734 3.96497 13.8557 4.08996 14.6756 4.21362C15.0428 4.26904 15.751 4.38869 16.2493 4.47958C17.1536 4.64449 18.822 4.85022 20.4459 4.99701C22.8304 5.21261 26.5692 5.1592 29.006 4.87473C31.0262 4.63891 34.8828 3.78118 36.35 3.24134C38.0596 2.61233 39.032 2.25132 39.2555 2.16271C39.7068 1.98364 40.6526 1.53551 41.0303 1.32172C41.3895 1.11842 41.6809 1.03192 42.0421 1.02147L42.2261 1.01613L42.1984 1.9103ZM4.13214 4.84316C4.14959 5.26941 4.18679 5.91855 4.21478 6.28576C4.24277 6.65296 4.2702 8.1337 4.27573 9.57629C4.28465 11.906 4.29752 12.3084 4.3907 13.1768C4.5423 14.5892 4.57116 14.7993 4.85266 16.5389C5.26207 19.0689 5.31553 19.505 5.40466 21.0455C5.48353 22.4078 5.47514 24.0657 5.38329 25.266C5.21915 27.411 5.13231 28.0854 4.66558 30.8406C4.51937 31.7034 4.38589 32.576 4.36891 32.7797C4.35193 32.9834 4.32485 33.1702 4.30878 33.1947C4.29266 33.2193 4.12389 33.2536 3.93375 33.2708L3.58801 33.3022L3.57967 29.5583C3.57509 27.4991 3.56617 25.7554 3.55992 25.6832C3.55363 25.6111 3.53584 22.0648 3.52044 17.8026C3.50499 13.5404 3.48138 8.71894 3.46803 7.08817C3.44046 3.73216 3.39516 4.08419 3.85612 4.07375L4.10038 4.06822L4.13214 4.84316ZM32.744 8.26069C32.3879 8.42241 31.8886 8.952 31.4136 9.67167C30.8829 10.4759 30.7874 10.598 30.2551 11.1533C30.0271 11.3911 29.7368 11.7081 29.6101 11.8577C29.4834 12.0073 29.301 12.1702 29.2048 12.2199C28.9235 12.3649 28.6534 12.6247 28.4041 12.9901C28.172 13.3301 28.1714 13.3318 28.1729 13.7202C28.1746 14.1532 28.2573 14.3476 28.5421 14.5872C28.6815 14.7046 28.7178 14.7123 29.0282 14.6913C29.6836 14.6466 30.649 14.209 31.592 13.5291C32.0912 13.1692 33.1681 12.4811 33.482 12.3215C33.5963 12.2634 33.9396 12.13 34.245 12.0252C34.8509 11.8172 35.1769 11.6502 35.2523 11.5093C35.3255 11.3725 35.31 10.9303 35.2265 10.77C35.1858 10.6921 34.9616 10.4494 34.7282 10.2307C34.2375 9.77101 34.1321 9.61907 34.056 9.26278C33.9706 8.86248 33.809 8.54421 33.5916 8.3483C33.4203 8.19407 33.3619 8.16961 33.1666 8.17052C33.0421 8.17109 32.852 8.21167 32.744 8.26069ZM33.221 8.79167C33.3355 8.92782 33.4886 9.33375 33.4887 9.50152C33.4887 9.54262 33.5509 9.70773 33.6269 9.86834C33.7397 10.1068 33.8527 10.2373 34.2429 10.5795C34.7799 11.0505 34.8733 11.1762 34.7746 11.2952C34.6592 11.4342 34.284 11.5904 33.7518 11.7211C33.1117 11.8782 32.7889 12.0097 32.2011 12.3526C31.6854 12.6534 31.5471 12.7417 31.0804 13.0678C30.3002 13.6131 29.4081 14.0644 29.0524 14.0938C28.9097 14.1056 28.8849 14.087 28.7834 13.8921L28.6716 13.6775L28.7626 13.3494C28.8769 12.9371 28.9601 12.825 29.3541 12.5519C29.5284 12.4311 30.0203 11.979 30.4472 11.5471C31.0726 10.9144 31.3111 10.6327 31.6747 10.0975C31.9229 9.73214 32.2233 9.32807 32.3424 9.1995C32.5763 8.94685 32.954 8.64946 33.0433 8.64755C33.0738 8.64688 33.1537 8.71174 33.221 8.79167ZM13.1972 9.41997C12.8969 9.52646 12.8082 9.62894 12.7229 9.96853C12.605 10.4379 12.3837 10.8258 12.1505 10.9718C11.9033 11.1266 11.8874 11.1534 11.8865 11.4171C11.8856 11.7045 12.0769 11.9729 12.4582 12.2194C12.7598 12.4143 13.4719 12.6888 13.9914 12.8104C14.4315 12.9134 15.6459 13.517 16.4162 14.0157C17.1158 14.4686 17.4158 14.6075 17.6944 14.6075C17.8448 14.6075 17.9092 14.5723 18.0833 14.3949L18.2919 14.1823L18.3088 13.7392C18.3228 13.37 18.311 13.2742 18.2382 13.1653C18.0668 12.9092 17.5292 12.4997 16.5252 11.8605C15.9651 11.5039 15.3949 11.1256 15.2581 11.0197C14.8681 10.7181 14.3823 10.2296 14.0769 9.832C13.7314 9.38201 13.5473 9.29583 13.1972 9.41997ZM13.784 10.0413C14.3289 10.707 15.4234 11.5717 16.3924 12.102C17.0832 12.4801 17.5655 12.7973 17.8111 13.0351C18.1179 13.3323 18.1306 13.3834 18.0168 13.8672C17.9085 14.3277 17.7226 14.3999 17.2508 14.1649C16.9285 14.0043 15.8342 13.2643 15.5743 13.0312C15.1201 12.6237 14.3661 12.3024 13.5596 12.1726C13.197 12.1143 12.8288 11.9436 12.5863 11.7214C12.3692 11.5225 12.3599 11.3971 12.5564 11.3157C12.8619 11.1891 13.0949 10.6718 13.0835 10.1451C13.0779 9.88422 13.091 9.83486 13.1835 9.7701C13.3842 9.62951 13.4839 9.67453 13.784 10.0413ZM21.5427 12.2412C21.0689 12.3193 20.7278 12.4179 20.1406 12.6466C19.5942 12.8594 19.2893 13.0441 19.2309 13.1978C19.2073 13.2598 19.1649 13.3249 19.1367 13.3424C19.1084 13.3598 18.9775 13.5339 18.8457 13.7291C18.5542 14.1611 18.1725 15.1631 18.0648 15.779C17.9256 16.575 17.9751 17.0698 18.259 17.7158C18.4611 18.1761 18.5031 18.5365 18.4003 18.9302C18.2834 19.3777 18.3004 19.6523 18.4668 20.004C18.5455 20.1702 18.6106 20.3278 18.6114 20.354C18.6138 20.4238 18.7553 20.5793 18.9261 20.7C19.1107 20.8304 19.5948 20.9485 19.9484 20.9494C20.5276 20.9509 20.7935 21.1093 21.1022 21.6369C21.2062 21.8147 21.2891 21.8872 21.4965 21.9822C21.8831 22.1592 22.5517 22.2823 23.3072 22.3154C23.8837 22.3407 24.0301 22.3313 24.3802 22.2467C24.8789 22.1262 25.3094 21.9397 25.3563 21.8239C25.3757 21.7761 25.4302 21.5546 25.4776 21.3316C25.5596 20.9453 25.5753 20.9155 25.8116 20.6981C26.1988 20.3417 26.3586 20.28 27.0125 20.2341C27.735 20.1834 27.9483 20.0894 28.2107 19.706C28.4652 19.3341 28.477 19.1682 28.2904 18.5796L28.1372 18.0964L28.2378 17.5013C28.3781 16.6709 28.3684 16.1666 28.1958 15.3152C28.0247 14.4711 27.922 14.1853 27.6711 13.8554C27.566 13.7172 27.4799 13.5864 27.4799 13.5648C27.4799 13.4825 27.2895 13.3647 26.55 12.9896C25.7744 12.5962 25.3095 12.4366 24.5062 12.288C23.963 12.1875 22.0514 12.1573 21.5427 12.2412ZM24.5257 12.5752C24.75 12.6119 25.1041 12.6891 25.3125 12.7468C25.6907 12.8514 26.9416 13.4409 27.1143 13.5958C27.2936 13.7566 27.5923 14.2484 27.678 14.5237C27.82 14.98 27.9568 15.8752 27.9568 16.3481C27.9568 16.5904 27.9205 16.9792 27.8762 17.2122C27.7426 17.9142 27.7624 18.3227 27.9544 18.8294L28.1177 19.2601L28.0254 19.4481C27.8907 19.7221 27.7287 19.792 27.0249 19.88C26.6235 19.9302 26.3234 19.9952 26.1685 20.0655C25.8882 20.1927 25.5124 20.5139 25.3612 20.7553C25.2278 20.9686 25.0955 21.3536 25.0955 21.529C25.0955 21.6421 25.0691 21.6688 24.9167 21.7096C24.8184 21.7359 24.5984 21.7957 24.4279 21.8426C23.9789 21.9659 22.7265 21.9512 22.0673 21.8149C21.805 21.7606 21.5737 21.6887 21.5532 21.655C21.5328 21.6214 21.4468 21.4759 21.3622 21.3316C21.1972 21.0503 20.8815 20.8014 20.5736 20.7097C20.4771 20.681 20.1621 20.6393 19.8736 20.6172C19.5851 20.595 19.2921 20.5549 19.2225 20.528C19.0231 20.4509 18.901 20.2861 18.7994 19.9571C18.6851 19.5871 18.6811 19.3346 18.7825 18.8889C18.8769 18.4737 18.8231 18.0527 18.6138 17.5681C18.3445 16.945 18.2939 16.6018 18.374 15.9408C18.4878 15.0016 18.899 14.0399 19.3873 13.5711C19.719 13.2525 19.9898 13.0998 20.6409 12.8641C21.2147 12.6564 21.59 12.561 22.0371 12.5092C22.5253 12.4526 24.0191 12.4922 24.5257 12.5752ZM24.6902 16.5529C24.6115 16.6032 24.4345 16.7642 24.2967 16.9106L24.0464 17.177V17.566C24.0464 18.188 24.2205 18.446 24.93 18.8753C25.3029 19.1009 25.4412 19.1589 25.6469 19.1759C25.9825 19.2037 26.1074 19.1678 26.3186 18.9823C26.5626 18.7681 26.676 18.4841 26.7053 18.0138C26.7262 17.678 26.715 17.5903 26.6278 17.4101C26.4794 17.1037 26.241 16.8478 25.9295 16.6606C25.6845 16.5134 25.6128 16.4943 25.2445 16.4789C24.9014 16.4645 24.8095 16.4767 24.6902 16.5529ZM21.2914 16.6011C20.7854 16.802 20.2215 17.3625 20.0371 17.8478C19.8062 18.4554 20.0461 19.1394 20.5787 19.3922C20.694 19.4469 20.8717 19.4717 21.1471 19.4717C21.4868 19.4717 21.5874 19.4521 21.8076 19.3428C22.165 19.1653 22.4887 18.8216 22.6177 18.4828C22.746 18.1458 22.7883 17.6581 22.7134 17.381C22.6417 17.1161 22.3461 16.794 22.0301 16.6365C21.7485 16.4962 21.5763 16.4879 21.2914 16.6011ZM25.7938 16.8565C26.1452 17.0685 26.4116 17.364 26.4813 17.6195C26.5508 17.8739 26.4845 18.3843 26.3475 18.6496C26.2466 18.8451 25.9545 19.0405 25.7613 19.0418C25.4875 19.0435 24.8505 18.5933 24.6211 18.2357C24.4959 18.0406 24.4756 17.9642 24.4756 17.6896C24.4756 17.3151 24.5415 17.1394 24.7887 16.855L24.9699 16.6464L25.2498 16.6718C25.4519 16.6901 25.6032 16.7415 25.7938 16.8565ZM22.07 16.8982C22.3691 17.0831 22.4917 17.2965 22.5128 17.6687C22.5428 18.2015 22.3607 18.6962 22.0325 18.9734C21.402 19.5057 20.5871 19.4245 20.381 18.8089C20.1954 18.2549 20.5225 17.5784 21.2586 16.9934C21.6505 16.6819 21.7089 16.6751 22.07 16.8982ZM23.2791 19.0545C22.8959 19.3478 22.6109 20.116 22.7555 20.4654C22.831 20.6475 22.9849 20.7117 23.3452 20.7114C23.9942 20.7108 24.1425 20.5751 24.1783 19.9486C24.1947 19.6626 24.1781 19.5361 24.0954 19.3172C23.924 18.8626 23.6464 18.7733 23.2791 19.0545ZM23.7755 19.1965C23.9056 19.3707 23.9942 20.0887 23.906 20.2536C23.7849 20.4798 23.4777 20.5221 23.2714 20.341C23.2061 20.2836 23.188 20.1912 23.188 19.9159C23.188 19.5082 23.2638 19.2912 23.4563 19.1478C23.6183 19.0272 23.6531 19.0325 23.7755 19.1965ZM28.3247 20.281C28.2255 20.3306 28.0087 20.4163 27.8429 20.4714C27.4532 20.6011 27.3684 20.6664 27.3696 20.836C27.3722 21.2092 27.7541 21.6543 28.9583 22.6878C29.5214 23.1711 29.7454 23.3448 31.0422 24.3038C31.6896 24.7825 32.56 25.5537 32.8509 25.9064C32.9684 26.0487 33.1966 26.4243 33.3579 26.7409C33.691 27.3944 33.9621 27.7058 34.3589 27.8905C34.7012 28.0499 34.9509 28.0443 35.1864 27.872C35.4725 27.6626 35.5342 27.5716 35.6342 27.2107C35.6851 27.0268 35.8819 26.5708 36.0715 26.1973C36.3513 25.6461 36.4197 25.4676 36.4351 25.2491C36.4524 25.0016 36.4391 24.9574 36.2708 24.7026C36.1592 24.5336 36.0032 24.3732 35.8714 24.292C35.5721 24.1075 34.9022 23.8499 34.26 23.6723C33.6 23.4897 33.2199 23.3029 32.4157 22.766C32.0747 22.5384 31.6348 22.2694 31.4381 22.1681C30.7982 21.8389 30.2389 21.4362 29.3159 20.6404C28.7444 20.1476 28.656 20.1155 28.3247 20.281ZM28.9106 20.6878C29.0531 20.7796 29.1872 20.8547 29.2087 20.8547C29.2302 20.8547 29.3704 20.9515 29.5203 21.0698C29.6702 21.1881 29.9826 21.4345 30.2145 21.6175C30.6219 21.9387 30.8246 22.071 31.4858 22.4469C31.6563 22.5439 32.0103 22.7751 32.2726 22.9608C32.8443 23.3655 33.4729 23.6698 34.0784 23.8348C34.558 23.9654 35.2249 24.1989 35.448 24.3143C35.7627 24.477 36.1116 24.8967 36.1116 25.1124C36.1116 25.1481 35.9483 25.5059 35.7488 25.9075C35.4792 26.4502 35.3709 26.7251 35.3269 26.9786C35.2602 27.3628 35.218 27.4592 35.0465 27.6196C34.9275 27.7308 34.9241 27.7312 34.6876 27.6526C34.4187 27.5633 34.0999 27.33 33.9623 27.1219C33.9117 27.0454 33.7622 26.762 33.6301 26.4922C33.3526 25.9255 33.1973 25.7385 32.6065 25.2604C32.3704 25.0693 31.9627 24.7393 31.7004 24.5269C31.4381 24.3146 31.0625 24.0306 30.8658 23.8959C30.5475 23.6777 29.5428 22.9146 29.4066 22.7874C29.3778 22.7605 29.2276 22.6314 29.0728 22.5006C28.1022 21.6804 27.6609 21.0555 27.8998 20.8393C28.0006 20.7481 28.4747 20.5275 28.5784 20.5237C28.6186 20.5221 28.7681 20.596 28.9106 20.6878ZM18.8006 21.0748C17.7544 21.2335 17.7997 21.213 17.1533 21.8197C16.2282 22.688 15.5551 23.154 14.5927 23.5927C14.3995 23.6807 14.028 23.9022 13.767 24.0849C13.0303 24.6007 12.1439 25.038 11.6712 25.1188C11.12 25.213 10.7838 25.4438 10.6174 25.8419C10.4658 26.2047 10.5834 26.6673 10.8972 26.9428C11.0665 27.0915 11.1368 27.1162 11.552 27.1728C11.8488 27.2132 11.972 27.2916 12.1945 27.5815C12.4929 27.9704 13.1277 28.2534 13.5329 28.1782C13.7621 28.1356 14.0924 27.8107 14.2667 27.4564C14.6062 26.7662 15.0758 26.1991 16.4388 24.8332C17.2097 24.0606 17.6719 23.6419 18.176 23.2595C19.6357 22.152 19.7703 22.0207 19.7703 21.705C19.7703 21.4885 19.5213 21.1716 19.3233 21.1361C19.2325 21.1199 19.1046 21.0954 19.0391 21.0817C18.9735 21.0679 18.8662 21.0649 18.8006 21.0748ZM19.3864 21.4701C19.4315 21.5463 19.4683 21.6486 19.4683 21.6975C19.4683 21.8644 19.2388 22.1242 18.8646 22.3809C17.7976 23.1128 17.3853 23.4611 16.0194 24.785C14.5287 26.2298 14.21 26.6244 13.8778 27.4364C13.7354 27.7846 13.688 27.8533 13.5385 27.9284C13.3936 28.0012 13.3376 28.0067 13.2017 27.9619C12.8679 27.8516 12.5006 27.6165 12.3908 27.4425C12.1892 27.1232 11.9233 26.9253 11.6163 26.8662C11.1972 26.7854 11.0322 26.696 10.9533 26.5069C10.8599 26.2835 10.8667 26.0837 10.9747 25.8721C11.1058 25.6152 11.2093 25.5405 11.554 25.4543C11.9196 25.3628 12.9567 25.0334 13.2893 24.9031C13.4187 24.8524 13.6939 24.7024 13.9009 24.5695C14.1079 24.4367 14.4957 24.2261 14.7626 24.1014C15.7089 23.6594 16.1021 23.386 17.0362 22.5208C17.3378 22.2414 17.6621 21.9412 17.7568 21.8536C17.9802 21.6469 18.7418 21.3806 19.2315 21.338C19.2717 21.3345 19.3415 21.3939 19.3864 21.4701ZM20.7559 21.7608C20.7559 21.787 20.7773 21.8085 20.8036 21.8085C20.8298 21.8085 20.8512 21.787 20.8512 21.7608C20.8512 21.7346 20.8298 21.7131 20.8036 21.7131C20.7773 21.7131 20.7559 21.7346 20.7559 21.7608ZM19.6113 22.5715C19.6113 22.5978 19.6328 22.6192 19.659 22.6192C19.6853 22.6192 19.7067 22.5978 19.7067 22.5715C19.7067 22.5453 19.6853 22.5238 19.659 22.5238C19.6328 22.5238 19.6113 22.5453 19.6113 22.5715ZM21.1158 22.6067C21.0095 22.8836 21.0621 23.9941 21.1936 24.2526C21.3256 24.5119 22.3039 24.792 23.2423 24.8392C24.3755 24.8961 25.1139 24.657 25.3851 24.1453C25.424 24.0718 25.4559 23.7956 25.468 23.4261C25.4915 22.7154 25.4329 22.5238 25.192 22.5238C25.1153 22.5238 25.0354 22.5528 25.0145 22.5881C24.8807 22.8136 24.2386 23.0491 23.7621 23.0476C23.2083 23.0457 22.2758 22.8575 21.7376 22.6388C21.3981 22.5008 21.1611 22.4886 21.1158 22.6067ZM22.0793 22.9787C22.8148 23.1924 23.2443 23.249 23.9939 23.2307C24.5445 23.2173 24.7226 23.1962 24.8452 23.1299L25.0001 23.046V23.5291C25.0001 23.9975 24.9962 24.0154 24.8709 24.1145C24.7999 24.1708 24.5799 24.2901 24.3821 24.3797C24.0443 24.5328 23.9845 24.5439 23.3959 24.5639C22.7498 24.5859 22.2078 24.5151 21.8382 24.3607C21.5267 24.2305 21.5189 24.2087 21.5189 23.4691C21.5189 22.8511 21.5253 22.8022 21.6023 22.8321C21.6483 22.8499 21.8629 22.9158 22.0793 22.9787Z" fill="black"/>
</svg>
