<svg width="41" height="48" viewBox="0 0 41 48" fill="none" xmlns="http://www.w3.org/2000/svg">
<path fill-rule="evenodd" clip-rule="evenodd" d="M15.9483 0.104489C15.8538 0.173644 15.8384 0.246023 15.8661 0.491605C15.8848 0.657792 15.9277 0.811525 15.9615 0.833334C15.9952 0.855079 16.0725 0.972465 16.1334 1.09415C16.1943 1.21583 16.2958 1.37229 16.3589 1.44182C16.4221 1.51136 16.6788 1.79581 16.9293 2.07395C17.1797 2.35209 17.4591 2.64622 17.5502 2.72757C17.8795 3.02183 18.8853 4.02053 18.8853 4.05334C18.8853 4.07186 19.0275 4.2505 19.2014 4.45031C19.3753 4.65019 19.5175 4.833 19.5175 4.85658C19.5175 4.88016 19.5958 4.97985 19.6914 5.07808C20.0871 5.48485 20.7187 6.31806 20.7187 6.43349C20.7187 6.47742 20.777 6.58754 20.8483 6.67819C21.0945 6.99115 21.4281 8.5094 21.5104 9.6911C21.5539 10.316 21.4039 12.1696 21.2987 12.3065C21.2686 12.3456 21.206 12.5199 21.1594 12.6937C20.985 13.3447 19.8646 15.7375 19.6194 15.9827C19.5785 16.0236 19.4894 16.1821 19.4215 16.335C19.3535 16.4879 19.2477 16.668 19.1864 16.7355C19.1251 16.8029 19.075 16.8818 19.075 16.9108C19.075 16.9399 18.9754 17.1084 18.8537 17.2852C18.732 17.4622 18.6324 17.6424 18.6324 17.6857C18.6324 17.7291 18.5523 17.9179 18.4543 18.1053C18.3564 18.2927 18.2257 18.631 18.1639 18.857C18.1021 19.083 18.0258 19.3172 17.9943 19.3776C17.9628 19.438 17.937 19.6727 17.937 19.8991V20.3109H17.6761C17.1884 20.3109 14.2393 20.5686 14.0805 20.625C13.9936 20.6559 13.7518 20.6988 13.5431 20.7202C12.986 20.7773 12.0955 20.9454 12.0582 21.0005C12.0404 21.0267 11.7342 21.1275 11.3778 21.2245C11.0215 21.3214 10.7298 21.4201 10.7298 21.4436C10.7298 21.4672 10.6349 21.5208 10.5189 21.5627C10.3152 21.6364 10.0089 21.5871 9.81313 21.449C9.77836 21.4244 9.52231 21.3242 9.24414 21.2263C8.96597 21.1282 8.70993 21.0269 8.67516 21.0009C8.64039 20.975 8.42702 20.8902 8.20101 20.8126C7.97499 20.735 7.77585 20.6518 7.75846 20.6279C7.74108 20.604 7.49926 20.505 7.22108 20.4078C6.94291 20.3107 6.6442 20.1962 6.55727 20.1534C6.47034 20.1106 6.18585 20.0251 5.92507 19.9634C5.66428 19.9016 5.42246 19.8294 5.38769 19.8028C5.35292 19.7763 5.03997 19.6918 4.69226 19.6151C3.96807 19.4554 3.0563 19.4301 2.80949 19.5628C2.57633 19.6882 2.08251 20.2942 1.89089 20.6901C1.79834 20.8814 1.70269 21.0526 1.67835 21.0707C1.54476 21.1699 1.1631 22.2619 1.04911 22.871C0.977612 23.2534 0.893209 23.6157 0.861599 23.6761C0.830052 23.7364 0.804199 24.1657 0.804199 24.6299C0.804199 25.4439 0.809255 25.4764 0.946444 25.5388C1.02952 25.5767 1.1478 25.5817 1.23068 25.5511C1.32703 25.5155 1.45916 25.5356 1.64162 25.6137C1.98237 25.7596 2.68368 25.9366 2.92613 25.9378C3.02823 25.9383 3.23826 25.9827 3.39283 26.0365C3.75578 26.1629 6.64793 26.1872 7.18948 26.0684C7.38072 26.0265 7.77844 25.9662 8.0733 25.9345C8.36816 25.9028 8.81923 25.8335 9.07578 25.7804C9.7511 25.6407 9.88508 25.6518 10.0131 25.8578C10.1895 26.1416 10.783 26.7583 11.5492 27.4539C11.8364 27.7147 12.1181 27.9716 12.1751 28.0249C12.4051 28.2398 13.4321 29.0342 13.4799 29.0342C13.5136 29.0342 14.2926 29.5505 14.4915 29.7047C14.561 29.7587 14.7459 29.873 14.9024 29.9589C15.0589 30.0448 15.3434 30.2118 15.5346 30.3302C15.7258 30.4485 16.0472 30.6331 16.2487 30.7404C16.4502 30.8476 16.6271 30.9699 16.6416 31.012C16.6561 31.0541 16.698 31.3873 16.7347 31.7524C16.8342 32.7432 16.9605 33.5888 17.1405 34.4706C17.3107 35.3039 17.3521 36.393 17.2417 37.1255C17.1146 37.9686 16.8526 39.3051 16.8025 39.3661C16.7724 39.4027 16.6988 39.6034 16.6391 39.812C16.5287 40.1969 16.1379 40.9311 15.9064 41.1882C15.5665 41.5658 15.0778 42.0497 14.8065 42.2773C14.6409 42.4164 14.4466 42.5813 14.3748 42.6437C14.303 42.7061 14.1434 42.8188 14.0201 42.8942C13.8969 42.9695 13.7653 43.0609 13.7277 43.0973C13.6901 43.1337 13.4516 43.2912 13.1976 43.4473C12.9436 43.6035 12.6435 43.8094 12.5305 43.9051C12.4176 44.0007 12.3016 44.0789 12.2726 44.0789C12.2437 44.0789 12.1621 44.1369 12.0913 44.2078C12.0205 44.2787 11.7634 44.4849 11.5199 44.6661C11.2764 44.8473 10.9493 45.1258 10.7929 45.2852C10.6365 45.4446 10.4098 45.6429 10.2892 45.7261C10.1685 45.8092 9.8627 46.085 9.60956 46.339C9.18655 46.7633 9.06264 46.9889 9.20457 47.0766C9.26507 47.114 9.98364 47.0335 10.9195 46.8845C11.2498 46.832 11.7761 46.7617 12.0891 46.7285C12.402 46.6952 13.0706 46.6244 13.5748 46.571C14.0789 46.5177 14.4842 46.4872 14.5826 46.4617C14.7538 46.4617 14.7997 46.433 15.0297 46.433C15.1428 46.433 15.1875 46.4301 15.28 46.4213C15.4196 46.4081 15.6674 46.3489 16.0129 46.3255C17.0111 46.2577 18.2118 46.0765 18.3479 45.973C18.3827 45.9466 18.5653 45.8795 18.7539 45.8239C18.9423 45.7683 19.1579 45.6827 19.2329 45.6335C19.3079 45.5844 19.5133 45.5014 19.6892 45.4492C20.0626 45.3383 20.9331 44.8749 21.1606 44.666C21.2472 44.5864 21.3532 44.5214 21.3962 44.5214C21.4392 44.5214 21.521 44.4503 21.578 44.3634C21.635 44.2764 21.7122 44.2053 21.7497 44.2053C21.8144 44.2053 22.2919 43.7185 22.6646 43.2726C22.7592 43.1594 22.9006 42.9997 22.9788 42.9176C23.0571 42.8356 23.1211 42.7486 23.1211 42.7242C23.1211 42.6997 23.1928 42.5858 23.2804 42.471C23.4597 42.2359 23.963 41.2864 24.0364 41.0447C24.0629 40.9578 24.1386 40.7659 24.2048 40.6184C24.2709 40.4708 24.3832 39.9446 24.4543 39.4489C24.5253 38.9533 24.609 38.4624 24.6402 38.3581C24.6714 38.2538 24.7422 37.6707 24.7974 37.0623C24.8527 36.4539 24.9234 35.828 24.9545 35.6716C25.2125 34.3764 25.4205 33.4068 25.4629 33.3011C25.4908 33.2316 25.5747 32.9649 25.6493 32.7084C25.7238 32.452 25.854 32.1325 25.9386 31.9985C26.0232 31.8645 26.0924 31.7366 26.0924 31.7142C26.0924 31.6918 26.2321 31.5418 26.4028 31.381C26.8835 30.9284 26.996 30.8431 27.4359 30.5988C27.5142 30.5553 27.5924 30.5018 27.6097 30.4798C27.6271 30.4578 27.9401 30.3408 28.3052 30.2197C29.0213 29.9822 29.5452 29.9105 31.4346 29.7917C32.8012 29.7057 32.9036 29.6957 33.5575 29.5853C34.1143 29.4912 34.5713 29.3648 34.6272 29.2894C34.6446 29.2659 34.7959 29.1813 34.9634 29.1012C35.1309 29.0211 35.2979 28.9078 35.3344 28.8493C35.3896 28.7608 35.4617 28.7504 35.7663 28.7863C35.9674 28.81 36.1593 28.8463 36.1929 28.867C36.2264 28.8878 36.9607 28.9347 37.8245 28.9712C39.9241 29.0601 40.8868 28.9609 40.8858 28.6555C40.8849 28.3782 40.3134 27.9925 38.8314 27.2689C37.5863 26.6609 37.0414 26.4425 36.7697 26.4425C36.6196 26.4425 36.3342 26.1527 36.3342 26.0004C36.3342 25.7782 35.4769 24.8283 34.9749 24.4943C34.8359 24.4017 34.7078 24.3088 34.6904 24.2877C34.5769 24.1497 33.0031 23.2614 32.2248 22.896C31.9988 22.7898 31.7428 22.6662 31.6559 22.6213C31.5689 22.5764 31.384 22.5039 31.2449 22.4603C31.1058 22.4167 30.8721 22.3274 30.7255 22.2619C30.5789 22.1964 30.1948 22.0827 29.872 22.0092C29.5492 21.9358 29.2566 21.8534 29.2219 21.8263C29.1871 21.7993 29.0378 21.7448 28.89 21.7053C28.6676 21.6459 28.5981 21.5876 28.4864 21.3673C28.4121 21.2208 28.3339 21.0868 28.3125 21.0694C28.266 21.0317 28.0965 20.6765 27.9877 20.3889C27.8824 20.1104 27.9535 19.058 28.1492 17.9985C28.4537 16.3497 28.6784 15.2164 28.7459 14.9882C28.8139 14.7585 29.0713 13.2183 29.198 12.2828C29.2768 11.7008 29.2398 10.0223 29.1443 9.84913C29.106 9.7796 29.0255 9.52359 28.9654 9.28022C28.856 8.83691 28.4038 7.6705 28.3168 7.60716C28.2913 7.58864 28.2001 7.43838 28.1141 7.27321C28.0281 7.10803 27.937 6.97295 27.9118 6.97295C27.8865 6.97295 27.8187 6.88047 27.7612 6.76751C27.6529 6.55479 25.5657 4.44443 25.4637 4.44443C25.432 4.44443 25.3599 4.39835 25.3036 4.34196C25.2472 4.28558 24.9678 4.08602 24.6826 3.8984C24.3975 3.71078 24.0963 3.508 24.0132 3.44776C23.7383 3.24832 22.4024 2.48483 22.3285 2.48483C22.3092 2.48483 22.0884 2.38919 21.838 2.27231C21.5875 2.15537 21.3114 2.03817 21.2245 2.01187C21.1375 1.98558 20.9242 1.89936 20.7503 1.82034C20.2361 1.58664 19.4392 1.24472 19.2014 1.15572C19.0797 1.11021 18.9476 1.04832 18.9078 1.01817C18.868 0.988016 18.6267 0.905523 18.3715 0.834851C18.1164 0.764116 17.8928 0.685922 17.8749 0.661079C17.8338 0.604314 16.9812 0.272383 16.8765 0.272383C16.8339 0.272383 16.799 0.247287 16.799 0.216692C16.799 0.162961 16.3276 0.0195312 16.1509 0.0195312C16.1034 0.0195312 16.0122 0.0577752 15.9483 0.104489ZM16.8106 0.762283C17.2163 0.969368 17.6627 1.17045 18.095 1.34087C18.2689 1.40933 18.6156 1.57387 18.8656 1.70649C19.9611 2.28767 20.575 2.5971 20.7204 2.6416C20.8064 2.6679 20.9194 2.72397 20.9716 2.76613C21.0237 2.80836 21.2086 2.90273 21.3825 2.97587C21.5564 3.04901 22.0086 3.27847 22.3874 3.48581L23.0762 3.86275L22.8884 3.95984C22.6563 4.07988 22.265 4.5055 22.2024 4.70607C22.1767 4.78818 22.1308 4.87144 22.1003 4.89109C21.9914 4.96139 21.7835 5.67645 21.7477 6.10377L21.7112 6.53874L21.5021 6.14745C21.3871 5.93221 21.2491 5.70768 21.1955 5.64845C21.1419 5.58915 21.098 5.52291 21.098 5.50123C21.098 5.45887 20.5668 4.86556 20.2287 4.53028C20.1158 4.4182 20.0233 4.30328 20.0233 4.27483C20.0233 4.24645 19.9412 4.13785 19.8408 4.03355C19.7404 3.92925 19.4345 3.60572 19.1611 3.31469C18.8877 3.0236 18.4791 2.63661 18.2531 2.45468C17.8647 2.14209 16.3565 0.68156 16.3565 0.618031C16.3565 0.554881 16.4832 0.595148 16.8106 0.762283ZM23.9996 4.48754C25.0949 5.20703 26.768 6.77806 27.2943 7.58093C27.8033 8.35769 28.1353 9.17446 28.3448 10.1652C28.4925 10.8638 28.3686 12.1302 27.9244 14.4637C27.8516 14.8461 27.7109 15.5857 27.6117 16.1072C27.5126 16.6287 27.3673 17.3541 27.289 17.7191C27.048 18.8417 27.093 20.2218 27.3802 20.5169C27.4631 20.6022 27.6333 20.953 27.7018 21.18C27.7254 21.2583 27.7682 21.3223 27.7969 21.3223C27.8256 21.3223 27.8667 21.3681 27.8882 21.4241C27.9184 21.5027 27.9019 21.5151 27.8159 21.478C27.7547 21.4517 27.2209 21.3352 26.6298 21.2192C26.0387 21.1032 25.1852 20.9359 24.7332 20.8474C24.2812 20.7588 23.8118 20.6583 23.6901 20.6242C23.0746 20.4515 20.6044 20.2653 18.7339 20.2506L18.3613 20.2477L18.3978 19.7894C18.4192 19.5214 18.4886 19.2208 18.565 19.0654C18.6368 18.9194 18.6956 18.7614 18.6956 18.7144C18.6956 18.6673 18.7752 18.5024 18.8723 18.3479C18.9696 18.1933 19.0878 17.9719 19.1351 17.856C19.1825 17.74 19.2534 17.612 19.2926 17.5715C19.417 17.4434 19.8968 16.7362 19.8968 16.6811C19.8968 16.652 20.0106 16.4616 20.1497 16.2578C20.2888 16.0541 20.4026 15.863 20.4026 15.8332C20.4026 15.8035 20.4546 15.732 20.5182 15.6745C20.5818 15.6169 20.7025 15.4205 20.7863 15.238C20.8701 15.0555 20.9571 14.8919 20.9797 14.8746C21.0023 14.8572 21.1834 14.5016 21.3822 14.0844C21.581 13.6672 21.7808 13.2544 21.8264 13.1671C21.939 12.9512 22.1645 12.1078 22.2741 11.4927C22.3627 10.9952 22.3715 10.5803 22.3504 7.88954C22.3388 6.41181 22.3973 5.96135 22.6785 5.36279C22.8442 5.01038 23.4665 4.25479 23.5911 4.25479C23.621 4.25479 23.8048 4.35954 23.9996 4.48754ZM3.94386 19.963C4.66318 20.1004 5.30354 20.2612 5.46614 20.3453C5.60447 20.4168 5.60219 20.421 5.37131 20.5244C4.47668 20.9246 3.56744 21.726 3.45959 21.8773C3.43372 21.9136 3.42833 21.8921 3.36229 21.9957C3.19878 22.1906 3.14981 22.2616 2.97532 22.7683C2.85704 23.1118 2.882 23.4818 3.10163 24.6409C3.19381 25.1277 3.26936 25.5331 3.26955 25.5417C3.27024 25.5848 2.65472 25.5503 2.60282 25.5043C2.56975 25.475 2.34362 25.4012 2.10022 25.3402C1.85682 25.2792 1.60387 25.2146 1.53819 25.1967C1.42736 25.1665 1.42173 25.1173 1.46055 24.5172C1.4835 24.1614 1.54546 23.6597 1.59818 23.4023C1.70781 22.8666 2.09389 21.6918 2.2271 21.4885C2.27635 21.4134 2.35715 21.2372 2.40659 21.0971C2.53233 20.7406 2.8765 20.1797 3.07299 20.0109C3.26898 19.8426 3.30331 19.8407 3.94386 19.963ZM6.46244 20.6915C6.49721 20.7162 6.76748 20.8156 7.06304 20.9123C7.35859 21.0091 7.61464 21.1059 7.63202 21.1274C7.64941 21.149 7.86277 21.2323 8.10617 21.3125C8.34957 21.3928 8.61984 21.4946 8.70677 21.5387C8.7937 21.5829 9.04974 21.6676 9.27576 21.727C9.85258 21.8785 10.0505 21.9628 10.1686 22.1072C10.2638 22.2238 10.2911 22.2266 10.548 22.1468C10.7001 22.0995 10.8922 22.0198 10.9747 21.9694C11.0572 21.9192 11.3844 21.807 11.7017 21.7201C12.0191 21.6332 12.293 21.5395 12.3103 21.5118C12.3471 21.4532 13.8109 21.1958 14.1074 21.1958C14.2178 21.1958 14.3351 21.1706 14.3682 21.1397C14.4012 21.1089 14.8265 21.0514 15.3133 21.012C15.8001 20.9726 16.5825 20.9094 17.0519 20.8714C18.768 20.7328 22.9107 20.9072 23.3257 21.1355C23.386 21.1687 23.4896 21.1958 23.5559 21.1958C23.7196 21.1958 24.9116 21.4294 25.3022 21.538C25.476 21.5863 25.8743 21.6718 26.1873 21.7281C26.5002 21.7843 26.9839 21.8853 27.262 21.9526C27.5402 22.02 27.9883 22.1232 28.2577 22.1822C28.5272 22.2411 28.7477 22.3136 28.7477 22.3431C28.7477 22.3727 28.8117 22.3975 28.8899 22.3982C29.2071 22.401 31.0994 22.9896 31.3052 23.1495C31.3416 23.1778 31.5136 23.2532 31.6875 23.3172C31.8613 23.3812 32.335 23.6127 32.7401 23.8318C33.1452 24.0509 33.5059 24.2301 33.5417 24.2301C33.5774 24.2301 33.6466 24.27 33.6953 24.3187C33.744 24.3674 33.9277 24.4825 34.1035 24.5744C34.2793 24.6663 34.4735 24.7971 34.535 24.865C34.5965 24.933 34.6794 24.9886 34.7192 24.9886C34.8168 24.9886 35.5776 25.7236 35.7662 26C35.8492 26.1217 35.9468 26.2415 35.9831 26.2662C36.0718 26.3266 35.8499 26.4884 35.6071 26.5403C35.5028 26.5626 35.3179 26.648 35.1962 26.73C35.0745 26.8121 34.8683 26.9235 34.7379 26.9777C34.6075 27.032 34.5 27.0973 34.4991 27.1229C34.4981 27.1485 34.3845 27.2391 34.2465 27.3242C33.8405 27.5747 33.8516 27.7955 34.2866 28.1273C34.4113 28.2224 34.5382 28.3658 34.5687 28.446C34.5992 28.5261 34.6675 28.5918 34.7205 28.5918C34.9581 28.5918 34.735 28.803 34.3646 28.9287C33.7956 29.1219 33.0209 29.2223 31.8288 29.2573C29.2572 29.333 28.3211 29.4147 27.8942 29.6011C27.8247 29.6315 27.6298 29.7005 27.4612 29.7545C26.571 30.0395 25.4521 31.0366 25.1482 31.8156C25.1008 31.9373 25.0253 32.1222 24.9806 32.2265C24.8127 32.6183 24.7603 32.9519 24.6975 34.0281C24.6621 34.6365 24.6047 35.202 24.57 35.2849C24.5353 35.3677 24.4635 35.8798 24.4103 36.4228C24.1952 38.6191 23.9593 40.116 23.7576 40.5644C23.6935 40.7069 23.5749 40.9799 23.4941 41.1711C23.4133 41.3623 23.3106 41.5564 23.2658 41.6023C23.221 41.6482 23.1843 41.7133 23.1843 41.7469C23.1843 41.8196 22.6241 42.6353 22.3779 42.9212C21.9699 43.3948 21.3572 44.0157 21.2979 44.0157C21.2626 44.0157 21.1818 44.0812 21.1184 44.1613C21.055 44.2413 20.8752 44.3755 20.7187 44.4595C20.5622 44.5435 20.3915 44.6428 20.3394 44.6801C20.1617 44.8074 19.75 44.9164 19.1117 45.0052C18.7612 45.054 18.3179 45.1185 18.1267 45.1487C17.7671 45.2052 17.0519 45.1681 17.0519 45.0927C17.0519 45.0692 16.9073 45.0106 16.7306 44.9625C16.5259 44.9067 16.3538 44.8091 16.2564 44.6933C16.1217 44.5332 16.1036 44.4497 16.1036 43.9875C16.1036 43.2937 16.3502 41.8396 16.4847 41.74C16.5081 41.7227 16.5908 41.5164 16.6683 41.2817C16.7459 41.0471 16.8309 40.8551 16.8572 40.8551C16.9142 40.8551 17.0283 40.615 17.1578 40.2229C17.2095 40.0665 17.3072 39.821 17.375 39.6775C17.4428 39.534 17.5374 39.2068 17.5852 38.9505C17.6331 38.6942 17.7215 38.257 17.7817 37.9789C17.9769 37.0771 17.9197 34.8667 17.6869 34.3125C17.5385 33.9595 17.3215 32.8814 17.2033 31.9104C17.1022 31.0797 17.1561 30.2391 17.3277 29.9682C17.3778 29.8891 17.4372 29.7358 17.4598 29.6275C17.4823 29.5192 17.5562 29.371 17.6241 29.2983C17.8049 29.1041 17.7824 28.971 17.5687 28.971C17.322 28.971 17.144 29.1829 16.9681 29.6857C16.8867 29.9185 16.802 30.1269 16.78 30.1489C16.73 30.1989 16.3565 30.0491 16.3565 29.979C16.3565 29.9508 16.3058 29.9117 16.2439 29.892C16.182 29.8724 15.9758 29.755 15.7856 29.6312C15.5954 29.5073 15.3544 29.3652 15.2501 29.3154C15.1458 29.2655 14.8897 29.1115 14.6811 28.9731C14.4725 28.8347 14.2165 28.6746 14.1121 28.6172C13.8896 28.4947 13.2008 28.0349 12.8672 27.786C12.4516 27.476 12.1537 27.2414 12.0891 27.1731C12.0543 27.1363 11.8267 26.9387 11.5833 26.7338C11.0327 26.2704 10.2823 25.4943 10.385 25.4943C10.5178 25.4943 10.5923 25.3453 10.5349 25.1941C10.4939 25.0858 10.4307 25.0518 10.2703 25.0518C10.1545 25.0518 10.0326 25.0781 9.99963 25.1101C9.96663 25.1422 9.56973 25.2291 9.1177 25.3034C8.66567 25.3776 8.23894 25.4621 8.16939 25.4912C8.02449 25.5518 6.17516 25.6865 5.51413 25.6845C5.27073 25.6838 4.84089 25.6652 4.55893 25.6433L4.04628 25.6034L3.89511 25.1222C3.76697 24.7141 3.74395 24.5112 3.74395 23.7876C3.74395 22.9738 3.75243 22.9172 3.92609 22.569C4.03408 22.3525 4.29353 22.0177 4.56316 21.7472C5.07133 21.2372 5.25075 21.102 5.69096 20.8974C5.8578 20.8199 6.0364 20.7142 6.08792 20.6628C6.17542 20.5753 6.314 20.586 6.46244 20.6915ZM33.0107 25.9978C32.855 26.0608 32.6674 26.3289 32.6674 26.4883C32.6674 26.6726 32.9665 26.9482 33.1665 26.9482C33.4337 26.9482 33.6789 26.6898 33.6789 26.4083C33.6789 26.0417 33.3704 25.8522 33.0107 25.9978ZM36.369 26.8137C36.402 26.844 36.627 26.9296 36.8688 27.0041C37.3537 27.1532 37.7659 27.3265 38.294 27.6032C38.4853 27.7033 38.9365 27.9383 39.2968 28.1253C39.973 28.4763 40.0167 28.5287 39.5071 28.3773C39.3441 28.3288 38.784 28.2247 38.2624 28.1459C37.7408 28.0671 37.2714 27.98 37.2193 27.9524C37.1292 27.9048 36.1068 27.7639 35.1795 27.6713C34.9443 27.6479 34.7385 27.607 34.7221 27.5805C34.6844 27.5195 35.4969 27.0464 35.8124 26.9456C35.9429 26.9038 36.0767 26.8447 36.1097 26.8141C36.1862 26.7433 36.2921 26.7432 36.369 26.8137ZM35.5439 28.0807L35.7968 28.1335L35.4454 28.1414C35.2118 28.1466 35.0528 28.1162 34.9712 28.0508C34.8556 27.958 34.8613 27.9545 35.0698 27.9901C35.1915 28.0109 35.4048 28.0517 35.5439 28.0807ZM36.1287 28.1928C36.0678 28.2087 35.9683 28.2087 35.9074 28.1928C35.8466 28.177 35.8964 28.1639 36.0181 28.1639C36.1398 28.1639 36.1896 28.177 36.1287 28.1928ZM36.7293 28.2543C36.6859 28.2719 36.6148 28.2719 36.5713 28.2543C36.5278 28.2368 36.5634 28.2225 36.6503 28.2225C36.7372 28.2225 36.7728 28.2368 36.7293 28.2543ZM15.6841 42.4828C15.6607 42.5784 15.6217 42.6708 15.5973 42.6882C15.5729 42.7056 15.4848 42.9332 15.4015 43.1939C15.2305 43.7295 15.2011 44.5127 15.3371 44.9144C15.4263 45.1781 15.7117 45.4487 15.9662 45.5109C16.0591 45.5337 16.1511 45.5762 16.1704 45.6056C16.1898 45.6349 16.4743 45.6792 16.8026 45.704L17.3996 45.7491L16.9255 45.8345C16.1083 45.9816 16.1123 45.9027 15.9771 45.9187C15.842 45.9348 15.6494 45.9185 15.5639 45.9348C15.4893 45.949 15.2587 45.9792 14.9191 46.0025C14.5796 46.0258 14.0173 46.0742 13.6696 46.1101C13.3219 46.146 12.7956 46.1999 12.5 46.23C11.768 46.3046 11.1651 46.397 10.6212 46.5179C10.3701 46.5736 10.1325 46.6085 10.0931 46.5953C10.0051 46.566 10.6647 45.9121 10.7822 45.9121C10.8086 45.9121 10.9361 45.8004 11.0654 45.6639C11.1948 45.5274 11.478 45.2848 11.6948 45.1248C12.1306 44.8031 12.3681 44.617 12.586 44.4266C12.6655 44.357 12.8565 44.2312 13.0105 44.1469C13.1643 44.0625 13.3045 43.9739 13.3219 43.9499C13.3393 43.9259 13.4815 43.8417 13.638 43.7627C13.7944 43.6837 14.0414 43.5377 14.1867 43.4381C14.3321 43.3386 14.48 43.2571 14.5155 43.2571C14.551 43.2571 14.6027 43.2209 14.6305 43.1766C14.6583 43.1323 14.7553 43.0489 14.8461 42.9913C14.9368 42.9337 15.0506 42.8486 15.099 42.8021C15.22 42.6858 15.6856 42.309 15.7083 42.309C15.7184 42.309 15.7075 42.3871 15.6841 42.4828Z" fill="black"/>
</svg>
