<svg width="58" height="55" viewBox="0 0 58 55" fill="none" xmlns="http://www.w3.org/2000/svg">
<path fill-rule="evenodd" clip-rule="evenodd" d="M28.5985 0.374807C28.7659 0.405714 29.1769 0.508176 29.5118 0.602452C30.4437 0.864922 31.1886 0.978809 32.1162 1.00086L32.9618 1.02087L32.9548 1.2665C32.9382 1.84237 32.1283 3.01607 31.4643 3.42631C31.3357 3.50578 31.2419 3.60513 31.2559 3.64713C31.2944 3.76223 32.3101 4.35359 32.6574 4.46308C32.8248 4.51583 33.076 4.57819 33.2155 4.60152C33.5588 4.65907 33.5361 4.78926 33.1479 4.98822C32.9712 5.07878 32.494 5.34043 32.0875 5.5697C30.7872 6.30314 29.9085 6.37138 28.335 5.86111C26.8157 5.3685 26.0434 5.35241 25.2161 5.79626C24.5318 6.16342 24.5837 5.99799 24.6739 7.52419C24.7175 8.26148 24.7689 9.05938 24.7881 9.2973L24.8232 9.72986L26.0513 9.68197C27.5031 9.6253 28.0679 9.5714 28.9466 9.4055L29.5991 9.28236L29.8037 9.44548C30.0778 9.66399 30.9197 10.9443 31.2391 11.6282C31.5513 12.2969 32.1259 14.1131 32.3265 15.0656C32.4333 15.5728 32.4754 16.0211 32.4808 16.7098C32.4934 18.2985 32.2389 19.4081 31.5309 20.8521C31.2891 21.3449 31.0633 21.7481 31.0288 21.7481C30.9944 21.7481 30.9662 21.7938 30.9662 21.8496C30.9662 22.0269 30.8498 21.9596 30.6856 21.6872C30.3846 21.1882 29.5619 20.6875 28.4512 20.3277C27.6599 20.0712 26.2838 19.7869 25.8341 19.7869H25.4867V20.6914C25.4867 21.1889 25.5066 21.6958 25.5311 21.8178L25.5754 22.0396L28.2137 22L30.8519 21.9604L31.4198 22.5475C32.4033 23.5642 32.5917 23.9107 33.3375 26.0764C33.5248 26.6201 33.8579 28.037 33.9814 28.8154C34.152 29.8913 34.1869 32.3269 34.0495 33.5865C33.919 34.7844 33.7641 35.4783 33.3972 36.5098C33.1325 37.2538 33.0063 37.4816 32.6111 37.9287C32.4877 38.0683 32.3868 38.2316 32.3868 38.2917C32.3868 38.3729 32.348 38.3894 32.2346 38.3563C30.8148 37.9409 28.6586 37.6448 27.0375 37.6424L26.1191 37.6411L26.0041 39.8221C25.9408 41.0217 25.8822 42.4004 25.8739 42.8859L25.8587 43.7686L26.7382 43.7555C28.6285 43.727 30.4575 43.5701 30.9122 43.3972C31.0094 43.3603 31.2758 43.309 31.5044 43.2831C31.8635 43.2425 31.9702 43.1946 32.2914 42.9304C32.7384 42.5625 33.2995 41.741 33.6945 40.8764C34.3973 39.3381 34.497 39.2133 35.0704 39.1549C35.8702 39.0734 37.0981 38.837 38.0016 38.5905C38.5411 38.4434 39.0674 38.3056 39.1712 38.2844L39.3599 38.2458L39.3145 37.7451C39.2895 37.4696 39.2655 36.5272 39.2611 35.6507C39.2567 34.7743 39.2497 34.0571 39.2454 34.057C39.2362 34.0566 38.1869 34.4559 37.4266 34.749C37.129 34.8637 36.7403 35.0091 36.5628 35.072C36.3853 35.135 36.2205 35.2062 36.1964 35.2303C36.1723 35.2544 36.0968 35.274 36.0285 35.274C35.8725 35.274 35.8666 35.0532 36.0011 34.2596C36.5146 31.2297 36.5655 30.8406 36.6217 29.5134C36.6537 28.7561 36.6435 28.2227 36.5905 27.8903C36.2505 25.7579 36.1554 25.2706 35.9398 24.5548C35.8054 24.1084 35.6335 23.6575 35.5578 23.5526C35.3621 23.2817 35.4326 23.1684 35.797 23.1684C35.9633 23.1684 36.115 23.1433 36.1339 23.1126C36.1529 23.082 36.1968 22.831 36.2314 22.5547C36.2706 22.2428 36.4108 21.7559 36.6013 21.2699C37.1129 19.965 37.7869 17.9979 37.9732 17.2657C38.4273 15.4818 38.582 12.8505 38.4056 9.913C38.2732 7.7097 38.278 7.10536 38.4291 6.95441C38.5751 6.80847 38.7333 6.89077 38.888 7.19314L38.9965 7.40503L39.1897 7.20343C39.5339 6.84431 40.5362 6.65536 41.3477 6.79664C42.0542 6.91965 42.8367 7.18583 43.6625 7.58417C44.66 8.06542 44.9748 8.13712 45.2855 7.95377C45.5824 7.77868 45.6459 7.78104 45.6459 7.96736C45.6459 8.21252 44.8783 8.88517 44.1201 9.30433C42.9308 9.96189 42.3021 10.0946 41.4179 9.87499C41.1946 9.81953 40.6833 9.75509 40.2816 9.73182L39.5511 9.68948L39.5943 10.3254C39.6181 10.6751 39.6634 11.1355 39.695 11.3486C39.7266 11.5616 39.7359 11.8383 39.7155 11.9636C39.6811 12.1755 39.6992 12.2033 39.9778 12.3665C40.5188 12.6835 41.4872 13.8053 42.063 14.7823C42.4802 15.4901 43.0429 16.9975 43.3503 18.2314C43.5295 18.9506 43.6048 20.781 43.4865 21.5415C43.3906 22.1584 43.1931 22.6269 43.0088 22.6751C42.9337 22.6947 42.8723 22.7171 42.8723 22.7248C42.8723 22.7325 43.1182 22.9952 43.4188 23.3086C43.9966 23.9111 44.4649 24.621 44.9075 25.565C45.2182 26.228 45.6014 27.3605 45.7056 27.9242C45.8178 28.5311 45.8645 29.851 45.791 30.3371C45.7544 30.5789 45.6892 31.0049 45.646 31.2839C45.5494 31.9074 45.2182 33.1548 45.0213 33.6361C44.8502 34.0541 44.7155 34.1145 44.326 33.9478C44.1068 33.8539 43.7678 33.8263 42.5219 33.8007C40.9013 33.7674 40.602 33.7929 40.6658 33.9588C40.6867 34.0136 40.7406 34.956 40.7855 36.0533C40.8573 37.8103 40.8797 38.0447 40.9734 38.0181C41.0318 38.0015 41.4145 37.9227 41.8238 37.8431C42.233 37.7635 42.8723 37.6127 43.2444 37.508C43.6165 37.4034 44.1796 37.2542 44.4959 37.1765C44.8121 37.099 45.2383 36.988 45.443 36.9301C45.9073 36.7985 46.8434 36.7719 47.0473 36.8844C47.2785 37.0119 47.3684 37.4437 47.2818 38.0114C47.2422 38.2709 47.2213 38.4947 47.2354 38.5087C47.2823 38.5556 48.7765 38.0325 50.1107 37.5021C50.8362 37.2136 51.8865 36.825 52.4446 36.6385C53.5787 36.2595 54.3178 35.9912 55.2182 35.6316C55.7696 35.4114 55.8917 35.3879 56.5126 35.382C57.3475 35.3741 57.4844 35.4519 57.4844 35.9348C57.4844 36.2029 57.4524 36.2662 57.1969 36.5027C56.9074 36.7707 56.0239 37.2558 54.7108 37.8677C53.2646 38.5417 49.3011 40.459 47.8519 41.1856L46.3562 41.9355L45.9041 43.1185C45.3965 44.4463 44.9532 45.2693 43.8636 46.9063C42.632 48.7566 41.8538 49.7467 40.785 50.823C39.8382 51.7764 39.642 51.925 38.9825 52.1876L38.7796 52.2684L39.1855 52.3572C39.7054 52.471 40.398 52.476 40.582 52.3674C40.6911 52.303 40.7322 52.3019 40.7544 52.363C40.7704 52.4071 40.8749 52.5692 40.9865 52.7233C41.2327 53.063 41.5451 53.213 42.3988 53.4009C43.5365 53.6514 43.6165 53.6778 43.6165 53.8044C43.6165 53.9662 43.2796 54.0119 42.6597 53.9342C41.6716 53.8103 41.0593 53.4982 40.705 52.938C40.6116 52.7903 40.5876 52.7859 40.2716 52.8567C39.4482 53.0414 37.8151 52.595 37.0379 51.9726L36.7843 51.7695L36.5248 52.0424C35.9743 52.6209 34.7456 53.0239 33.6721 52.9782C32.8579 52.9435 32.5042 52.7765 31.9878 52.183L31.6237 51.7645L31.2104 52.1646C29.4461 53.8721 27.7812 54.0194 26.1245 52.6144L25.6803 52.2377L25.296 52.6123C24.8454 53.0516 24.607 53.2268 23.9646 53.5909C23.4122 53.904 22.6818 54.1431 22.2832 54.1415C21.9076 54.1399 21.1524 53.9758 20.8851 53.8376C20.5095 53.6434 19.8472 53.133 19.5936 52.8423L19.3491 52.5621L19.0185 52.8032C18.5678 53.132 17.8164 53.4975 17.3792 53.6005C16.8988 53.7139 16.078 53.6564 15.61 53.4767C15.3413 53.3735 15.0857 53.1878 14.6899 52.8083C14.3885 52.5193 14.0934 52.2099 14.034 52.1208L13.9261 51.9588L13.518 52.3122C12.9748 52.7826 12.2649 53.1392 11.4927 53.3293C10.9152 53.4715 10.8182 53.4779 10.3936 53.4021C10.1375 53.3563 9.91084 53.2912 9.88994 53.2574C9.83068 53.1615 9.65695 53.1851 9.65695 53.289C9.65695 53.4137 9.01714 53.9012 8.62742 54.0736C8.17059 54.2756 7.285 54.3833 7.04119 54.2665C6.80456 54.1531 6.72689 53.9008 6.94628 53.9581C7.14259 54.0094 8.0727 53.8476 8.40546 53.7041C8.69527 53.5793 9.33753 53.1455 9.37548 53.049C9.43731 52.8917 9.61068 52.7928 9.75937 52.8302C9.86679 52.8571 9.66257 52.6176 9.13978 52.1032C8.35317 51.3294 7.68284 50.5383 7.16006 49.7668C6.83602 49.2886 5.87061 47.3695 5.39795 46.2638C5.22301 45.8547 4.95952 45.3246 4.81238 45.0859C4.55417 44.6669 4.52508 44.6436 3.97219 44.4148C3.49838 44.2188 3.32351 44.1009 2.95976 43.7322C2.31271 43.0764 2.10117 42.4598 1.74683 40.1971C1.46974 38.4273 1.29581 37.7612 0.907105 36.9807C0.782361 36.7302 0.630555 36.3234 0.569739 36.0767C0.469823 35.671 0.46909 35.5952 0.562174 35.2819C0.746042 34.6629 0.752327 34.6623 2.49887 35.1097C4.42685 35.6035 5.31839 35.7988 5.86865 35.8478C6.11049 35.8694 6.4057 35.9024 6.5247 35.9211C6.72622 35.9528 6.74341 35.9399 6.77554 35.733C6.81437 35.4826 6.92451 33.649 6.99094 32.1462L7.03503 31.1486H6.34631C5.59149 31.1486 4.66565 31.3264 3.48498 31.698C2.81614 31.9085 2.48622 31.9183 2.48622 31.7277C2.48622 31.6489 2.72057 30.8733 3.01869 29.9651C3.46727 28.599 3.75044 26.2423 3.68272 24.4388C3.62407 22.8752 3.47808 22.0118 3.0178 20.5062C2.86518 20.0069 2.78118 19.8305 2.6839 19.8051C2.60401 19.7842 2.55387 19.7122 2.55387 19.6182C2.55387 19.2981 2.66035 19.2791 4.41265 19.2876C5.3119 19.2919 6.30626 19.317 6.62252 19.3434L7.1974 19.3913L7.20774 18.507L7.21809 17.6228H6.88885C6.52301 17.6228 5.56916 17.4429 5.36554 17.3355C4.88395 17.0814 4.88795 17.1067 4.67127 12.9817L4.6317 12.2294L4.94484 12.046C5.117 11.9451 5.41818 11.818 5.61402 11.7637C5.80986 11.7094 6.1314 11.6207 6.32859 11.5667C6.52572 11.5127 6.80673 11.4685 6.95305 11.4685C7.17385 11.4685 7.22472 11.4426 7.2526 11.3163C7.27106 11.2327 7.29561 10.1903 7.30705 9C7.33052 6.56987 7.35184 6.44103 7.72445 6.47742C7.88045 6.4927 7.93727 6.53552 7.95357 6.64988C7.98259 6.85419 8.10247 6.8416 8.48766 6.59388C8.76935 6.41276 8.8539 6.39045 9.13917 6.42237C9.31945 6.44252 9.88263 6.63026 10.3907 6.83951C11.9986 7.50187 11.9855 7.49822 12.7856 7.50552C13.603 7.51296 13.6602 7.55611 13.2868 7.88377C13.1625 7.99293 12.9667 8.2583 12.8517 8.4735C12.3542 9.40429 11.6646 9.68738 10.6608 9.37284C9.80301 9.10401 9.35632 9.21641 8.72631 9.8595L8.37063 10.2226L8.4307 10.8149C8.46371 11.1407 8.50767 11.4242 8.52837 11.4449C8.54907 11.4656 8.81913 11.5251 9.12842 11.5772C9.90394 11.7077 10.6105 11.972 10.8484 12.2204C11.0314 12.4117 11.0431 12.4572 11.0341 12.944C11.0287 13.2297 10.907 14.27 10.7635 15.2557L10.5026 17.0479L9.9841 17.3035C9.61217 17.4869 9.33961 17.5709 9.02011 17.6007L8.57458 17.6423V18.2412L8.572 18.467L8.572 18.6358C8.57199 18.8046 8.57199 18.8269 8.57199 18.8663C8.57199 18.9058 8.57199 18.9404 8.572 18.9981L8.57199 19.1119V19.274C8.59648 19.3763 8.66928 19.3571 8.67909 19.369C8.68897 19.381 9.62077 19.3975 10.7498 19.4058C12.7778 19.4207 13.1747 19.4617 13.1747 19.6564C13.1747 19.6981 13.2329 19.8139 13.304 19.9138C13.3752 20.0137 13.5116 20.3532 13.6072 20.6682C13.7027 20.9832 13.9781 21.8192 14.2192 22.5259C15.1357 25.2127 15.2768 27.0013 14.7687 29.4917C14.4394 31.1062 14.2254 31.7223 13.7995 32.2814C13.593 32.5526 13.4687 32.556 13.0551 32.3016C12.5706 32.0035 11.7947 31.6909 11.2665 31.5808C10.4255 31.4055 8.8223 31.2115 8.77995 31.2799C8.75803 31.3154 8.68674 32.3428 8.62166 33.5629C8.55652 34.783 8.48583 35.8478 8.46452 35.9291C8.41602 36.1141 8.40377 36.1121 10.4011 36.2493C11.2382 36.3068 12.3341 36.3996 12.8364 36.4555C13.3387 36.5115 14.1852 36.6046 14.7175 36.6627C15.2497 36.7206 15.7586 36.796 15.8482 36.8301C16.001 36.8882 16.1717 37.1962 16.7175 38.3989C17.0085 39.0403 17.5511 40.4741 17.8511 41.3945C18.033 41.9525 18.2644 42.5992 18.3654 42.8316C18.5384 43.2301 18.5621 43.2543 18.7768 43.2543C18.902 43.2543 19.3594 43.3136 19.7933 43.3861C20.2272 43.4586 21.0845 43.55 21.6984 43.5894C22.3123 43.6286 23.0153 43.6773 23.2607 43.6974L23.7068 43.7339L23.7541 42.9361C23.8162 41.8869 23.9944 38.2095 23.9967 37.9285C23.9984 37.711 23.995 37.7087 23.6759 37.7087C23.4986 37.7087 22.7908 37.7554 22.1031 37.8124C20.9529 37.9079 20.3371 37.9864 18.3923 38.2853C18.0065 38.3447 17.6488 38.3771 17.5974 38.3574C17.4172 38.2883 17.5545 37.4444 17.8092 37.0558C17.8647 36.9711 17.9101 36.8152 17.9101 36.7091C17.9101 36.6031 18.0126 36.1987 18.1379 35.8106C18.2632 35.4225 18.4042 34.8006 18.451 34.4287C18.5668 33.5109 18.5079 29.9799 18.3597 28.9507C18.3008 28.5415 18.2075 27.7807 18.1523 27.2599C18.0972 26.7392 17.9736 25.9023 17.8778 25.4001C17.6797 24.3628 17.1202 22.6273 16.9838 22.6273C16.8596 22.6273 16.8735 22.4591 17.0069 22.3482C17.1552 22.2249 19.0629 22.0968 21.5462 22.0434C22.5972 22.0208 23.4593 21.9985 23.4617 21.9936C23.4864 21.9453 23.6423 19.9493 23.6229 19.93C23.6086 19.9157 23.4209 19.9669 23.2058 20.0438C22.9906 20.1206 22.4645 20.2786 22.0366 20.3948C21.1923 20.6243 19.7974 21.0944 19.1389 21.3715C18.9117 21.4671 18.6766 21.5453 18.6163 21.5453C18.5561 21.5453 18.4533 21.6112 18.3881 21.6918C18.1993 21.9248 18.0176 21.8125 18.067 21.4933C18.1631 20.8732 18.3968 19.9065 18.5848 19.3515C18.6974 19.0191 18.7895 18.6649 18.7895 18.5643C18.7895 18.4638 18.8568 18.0815 18.939 17.7147C19.072 17.1217 19.0888 16.8533 19.0904 15.2895C19.0918 13.9034 19.0662 13.3737 18.9695 12.7872C18.7461 11.4327 18.3048 9.81392 18.1419 9.75136C17.9821 9.69009 18.033 9.50864 18.2314 9.43215C18.4427 9.35079 19.6032 9.39279 21.191 9.53941C21.7491 9.59094 22.4763 9.65235 22.807 9.67589L23.4082 9.7187L23.3638 9.49661C23.2948 9.15197 23.1701 5.34219 23.1638 3.38675C23.158 1.56935 23.2042 1.18082 23.4369 1.09155C23.5007 1.06707 23.5967 1.10514 23.6705 1.18426C23.7947 1.31756 23.8004 1.31621 24.4889 0.983271C25.5127 0.488156 26.0588 0.361894 27.2794 0.338291C27.8375 0.32747 28.4311 0.343901 28.5985 0.374807ZM26.2646 0.882707C25.6283 0.974142 25.2264 1.07349 24.794 1.24615L24.6087 1.32013L24.8447 1.77859C25.1909 2.45083 25.3051 2.98057 25.3085 3.92779C25.3107 4.58075 25.2841 4.81577 25.1719 5.13065C25.0953 5.34585 25.051 5.51167 25.0736 5.49916C25.7077 5.14742 26.5409 4.94866 27.1779 4.99715C27.4197 5.01554 28.0436 5.15526 28.5643 5.30763C29.9757 5.72071 30.7066 5.69089 31.9607 5.16893L32.4676 4.95799L32.072 4.74597C31.5333 4.45726 31.071 4.13169 30.9109 3.92806C30.8376 3.83494 30.7287 3.75872 30.669 3.75872C30.4783 3.75872 30.5523 3.57544 30.7802 3.48326C31.0725 3.36491 32.1882 2.21244 32.4168 1.79253C32.6252 1.40988 32.5912 1.38864 32.0678 1.57388C31.4318 1.79895 30.8532 1.72483 29.2412 1.21165C28.423 0.951146 27.7736 0.823666 27.1102 0.793233C27.0172 0.788973 26.6367 0.82928 26.2646 0.882707ZM24.0182 1.52694C23.9358 1.52694 23.9239 1.57327 23.9612 1.74674C24.0899 2.34425 24.2141 3.13788 24.3676 4.34459C24.4605 5.07451 24.5481 5.68331 24.5622 5.69745C24.6183 5.75358 24.8883 4.98511 24.9607 4.56364C25.0594 3.98798 24.9498 2.79547 24.75 2.27087C24.5422 1.7253 24.3513 1.43923 24.2269 1.48698C24.1696 1.50896 24.0757 1.52694 24.0182 1.52694ZM23.5162 3.40231C23.562 4.32369 23.631 5.45791 23.6696 5.92286C23.7109 6.42142 23.7209 7.37169 23.6937 8.23917L23.6478 9.71011H24.0644C24.4299 9.71011 24.4766 9.69557 24.4449 9.59176C24.425 9.52663 24.3772 8.95604 24.3387 8.3237C24.2069 6.16017 24.0093 4.21096 23.7592 2.60902C23.6079 1.63948 23.5895 1.57049 23.5059 1.65415C23.4536 1.70643 23.4566 2.20364 23.5162 3.40231ZM8.67138 6.95171C8.49468 7.03225 8.49218 7.04233 8.54089 7.47584C8.56822 7.71903 8.62504 8.22862 8.66712 8.60836L8.7437 9.29872L9.03898 9.10023C9.40848 8.85189 9.68394 8.79907 10.2554 8.8669C10.503 8.89632 10.9338 8.9231 11.2129 8.92635C11.8497 8.93393 12.1129 8.80326 12.4953 8.28989L12.7723 7.91793L12.111 7.87661C11.3503 7.829 11.3094 7.8175 10.1505 7.3234C8.93169 6.80373 8.97336 6.81415 8.67138 6.95171ZM7.59672 8.1833C7.56986 8.83316 7.56979 9.83819 7.59672 10.4167L7.64564 11.4685H7.91656H8.1875L8.15022 11.0796C8.08494 10.3995 7.89871 8.68133 7.82951 8.12082C7.79271 7.82325 7.76267 7.43343 7.76273 7.25455C7.76273 7.07567 7.73642 6.94562 7.70422 6.9655C7.67202 6.98538 7.62364 7.53338 7.59672 8.1833ZM40.1249 7.21682C39.8857 7.27701 39.8301 7.31684 39.8652 7.4028C40.0092 7.75549 40.0447 7.98353 40.0455 8.56217L40.0464 9.20647L40.4966 9.18104C40.8327 9.16204 41.1093 9.20012 41.5882 9.33139C41.941 9.42803 42.3285 9.50715 42.4492 9.50715C42.8497 9.50729 44.1086 8.98945 44.7213 8.57251L44.9129 8.44219L44.5933 8.39424C44.4175 8.36786 43.9836 8.19419 43.629 8.00821C43.2746 7.8223 42.8299 7.60731 42.6409 7.53048C41.7747 7.17854 40.7731 7.05363 40.1249 7.21682ZM8.05572 7.46143C8.07771 7.63808 8.13114 8.14787 8.17457 8.59422C8.28395 9.71958 8.39078 9.82927 8.33923 8.7633C8.27591 7.45412 8.23282 7.14019 8.1164 7.14019C8.0359 7.14019 8.02379 7.2043 8.05572 7.46143ZM38.5643 8.10391C38.6318 9.3372 38.8106 11.6873 38.8551 11.925C38.8942 12.1346 38.9104 12.1448 39.2024 12.1448H39.5087L39.4689 11.7559C39.2863 9.97204 38.9712 8.28854 38.6714 7.49524C38.5546 7.18645 38.5237 7.36195 38.5643 8.10391ZM39.2305 7.54678C39.0921 7.66208 39.0809 7.70571 39.1398 7.8996C39.1767 8.02127 39.2591 8.40229 39.3229 8.74639C39.3868 9.09049 39.4581 9.37149 39.4814 9.37094C39.5046 9.37034 39.5694 9.34105 39.6252 9.30582C39.7844 9.20525 39.7697 7.84293 39.6067 7.59398C39.4651 7.37757 39.4377 7.37412 39.2305 7.54678ZM28.8808 9.77585C28.6826 9.81325 28.4999 9.85632 28.4749 9.87154C28.3758 9.93186 26.5478 10.1111 25.622 10.1513C24.5968 10.1957 22.7758 10.1132 21.0632 9.94451C20.1833 9.85794 18.5865 9.80736 18.5865 9.86613C18.5865 9.87749 18.7084 10.1993 18.8572 10.5812C19.4437 12.0857 19.6727 13.339 19.7176 15.2895C19.7477 16.5957 19.7345 16.8793 19.6092 17.6122C19.5308 18.0713 19.4071 18.5817 19.3342 18.7464C19.2613 18.9112 19.1705 19.2148 19.1323 19.4213C19.0941 19.6278 18.9853 20.0423 18.8905 20.3423C18.7956 20.6423 18.7318 20.9014 18.7485 20.9181C18.7652 20.9348 18.9106 20.8715 19.0716 20.7774C19.4605 20.5501 20.3105 20.2401 21.4278 19.9182C21.9301 19.7734 22.615 19.5705 22.9499 19.4673C23.5329 19.2876 23.6146 19.28 24.8778 19.2885C26.3747 19.2984 26.8392 19.3704 28.1904 19.8022C29.3291 20.166 29.9643 20.4953 30.4737 20.9859L30.8894 21.3864L31.0933 20.9417C31.3988 20.2756 31.7567 19.2128 31.8809 18.6034C32.1369 17.3474 31.9387 15.6776 31.2655 13.4205C30.894 12.175 30.7858 11.9021 30.3528 11.1201C29.7964 10.1151 29.4637 9.63795 29.3452 9.67514C29.288 9.69313 29.079 9.73845 28.8808 9.77585ZM6.36668 12.1823C5.81886 12.3402 5.22321 12.5827 5.00329 12.7373C4.93192 12.7874 4.93415 12.9661 5.01533 13.706C5.07005 14.205 5.13466 15.024 5.15882 15.526C5.18303 16.0279 5.21097 16.4467 5.22091 16.4567C5.23079 16.4666 5.61652 16.3493 6.07808 16.196C6.80889 15.9533 7.01765 15.9129 7.69583 15.8831C8.55544 15.8453 9.38481 15.971 9.91321 16.219C10.0728 16.2938 10.2149 16.3435 10.2291 16.3293C10.2433 16.3152 10.3359 15.7559 10.4349 15.0864C10.5339 14.417 10.6582 13.6619 10.711 13.4084C10.7638 13.1549 10.807 12.8802 10.807 12.7979C10.807 12.5806 10.3405 12.3049 9.76553 12.1826C9.09229 12.0395 8.99711 12.031 7.92259 12.0197C7.07982 12.0107 6.89488 12.0301 6.36668 12.1823ZM39.0322 12.482L38.8113 12.4829L38.8547 13.3114C38.9127 14.4201 38.7327 16.3057 38.4712 17.3278C38.2045 18.3702 37.6168 19.9673 36.7215 22.0824C36.4378 22.7528 36.4623 22.8227 36.8854 22.5508C37.4016 22.2192 38.0243 21.9788 38.8811 21.7805C39.5601 21.6234 39.7709 21.6036 40.5386 21.6251C41.3937 21.6489 41.4333 21.6568 41.9592 21.9062C42.2568 22.0473 42.5647 22.2232 42.6433 22.2969L42.7865 22.4309L42.8252 22.2374C42.9316 21.7054 43.0193 20.2155 42.9813 19.584C42.9143 18.4697 42.402 16.4725 41.9017 15.375C41.5258 14.5505 40.6922 13.3863 40.0331 12.7653C39.7477 12.4964 39.5707 12.4101 39.3884 12.4509C39.314 12.4674 39.1537 12.4815 39.0322 12.482ZM6.71425 16.621C5.60475 16.9889 5.64263 16.9535 6.21453 17.0883C6.48939 17.153 6.84197 17.2253 6.99804 17.2489L7.28175 17.2918L7.26863 17.0046C7.2574 16.7609 7.28094 16.7037 7.42456 16.6262C7.63981 16.51 8.17228 16.5508 8.40161 16.701C8.51066 16.7724 8.57458 16.8767 8.57458 16.9831C8.57458 17.1222 8.60137 17.1465 8.72679 17.1211C8.81054 17.1041 9.00502 17.0733 9.15905 17.0526C9.31309 17.0318 9.57138 16.9587 9.73299 16.8901C10.0158 16.77 10.0212 16.7622 9.87668 16.6849C9.79401 16.6407 9.45962 16.5608 9.13362 16.5073C8.80755 16.4539 8.46465 16.3966 8.37163 16.3802C8.02906 16.3195 7.30671 16.4244 6.71425 16.621ZM7.62372 16.9485C7.50297 17.0131 7.4962 17.0779 7.52955 17.8446C7.54937 18.2991 7.5817 18.8307 7.60139 19.0261L7.63725 19.3811H7.90297C8.04909 19.3811 8.17275 19.3735 8.17769 19.3642C8.18256 19.3549 8.20543 18.8223 8.22843 18.1806L8.27016 17.0138L8.10104 16.9517C7.87137 16.8673 7.77674 16.8667 7.62372 16.9485ZM24.0881 19.8281C23.9476 19.8658 23.94 19.9091 23.919 20.791C23.8871 22.125 23.8327 22.0187 24.5475 22.0187H25.1484V20.9028V19.7869L24.6918 19.7878C24.4406 19.7883 24.169 19.8065 24.0881 19.8281ZM3.26228 20.0514C3.39744 20.4771 3.77668 22.0922 3.88303 22.695C3.987 23.2844 4.00729 23.7382 4.00215 25.3663C3.996 27.3334 3.91232 28.4401 3.74475 28.7726C3.69537 28.8705 3.63794 29.1235 3.61717 29.3348C3.59633 29.546 3.46834 30.0436 3.33271 30.4406C3.19707 30.8374 3.0958 31.172 3.10778 31.1839C3.11968 31.1958 3.37288 31.1471 3.67033 31.0757C5.05753 30.7425 5.31954 30.7295 8.33781 30.8444C9.16718 30.876 11.2287 31.1991 11.8555 31.3958C12.0416 31.4541 12.4494 31.636 12.7619 31.7999C13.0743 31.9638 13.3387 32.0893 13.3493 32.0787C13.36 32.0681 13.4785 31.7557 13.6129 31.3847C13.8495 30.7314 14.2308 29.0085 14.398 27.8379C14.4961 27.1505 14.4452 25.7031 14.292 24.8253C14.0916 23.677 13.3636 21.3439 12.8838 20.3121L12.735 19.9919H11.8555C11.3718 19.9919 10.5347 20.0198 9.9952 20.054C9.21413 20.1035 4.35556 20.0145 3.34422 19.9322C3.25228 19.9246 3.23157 19.9548 3.26228 20.0514ZM40.5182 22.4514L40.498 22.9179L40.9579 22.8755C41.2109 22.8521 41.6842 22.8127 42.0098 22.7878C42.3353 22.763 42.6017 22.7224 42.6017 22.6977C42.6017 22.6214 42.2464 22.3854 41.8914 22.2261C41.5206 22.0596 41.057 21.9581 40.7414 21.9744C40.5387 21.9848 40.5385 21.9853 40.5182 22.4514ZM39.4973 22.0594C39.3413 22.0924 39.3372 22.1092 39.3773 22.5391C39.4002 22.7842 39.4335 22.9993 39.4513 23.0171C39.4691 23.0349 39.6183 23.0293 39.7828 23.0046C40.0644 22.9624 40.0844 22.9449 40.1234 22.709C40.1462 22.5711 40.1652 22.3503 40.1656 22.2182C40.1664 21.9817 40.1627 21.9786 39.9127 22.0017C39.7731 22.0147 39.5863 22.0406 39.4973 22.0594ZM38.1369 22.3737C37.8951 22.4474 37.5149 22.5995 37.2921 22.7119C37.0692 22.8242 36.78 22.9554 36.6494 23.0034C36.4394 23.0807 36.5105 23.0874 37.2632 23.0619C37.7314 23.0461 38.3326 23.0331 38.5992 23.0331H39.084V22.5905V22.1478L38.8303 22.1938C38.6908 22.2191 38.3788 22.3 38.1369 22.3737ZM27.2455 22.4206C25.6271 22.4564 23.3362 22.4871 22.1547 22.4889C20.4077 22.4915 17.6623 22.5928 17.5889 22.6574C17.5796 22.6655 17.6934 22.9519 17.8417 23.2938C18.263 24.2648 18.6365 25.8553 18.8213 27.4657C18.8809 27.9849 18.9577 28.5922 18.9918 28.8154C19.1419 29.7974 19.2086 31.2915 19.1764 32.9507C19.1392 34.8625 19.0995 35.1384 18.6852 36.3608C18.5537 36.7488 18.3904 37.256 18.3222 37.488L18.1984 37.9097L18.3417 37.8781C19.3179 37.6631 22.2547 37.318 23.7616 37.2412C25.7109 37.1418 29.1667 37.2845 30.0074 37.4993C30.1441 37.5341 30.4233 37.5839 30.628 37.6098C30.8326 37.6357 31.2552 37.7305 31.5671 37.8204C31.879 37.9102 32.1402 37.9752 32.1476 37.9646C32.3341 37.6986 32.3868 37.5767 32.3868 37.4123C32.3868 37.303 32.5408 36.7309 32.729 36.1408C33.1418 34.8468 33.2223 34.4674 33.3723 33.1099C33.6343 30.7394 33.3355 28.3693 32.4175 25.5354C32.0424 24.3777 31.8386 23.9527 31.2662 23.1346C30.6717 22.285 30.6542 22.2684 30.4014 22.3156C30.2842 22.3375 28.864 22.3848 27.2455 22.4206ZM40.7312 23.3072C39.1287 23.4897 38.7358 23.5116 37.3928 23.4934C36.4017 23.4799 35.8766 23.4963 35.8876 23.5403C35.8968 23.5775 36.0235 23.9458 36.169 24.3586C36.3304 24.8166 36.491 25.4625 36.5811 26.0155C36.6622 26.514 36.7532 26.9697 36.7832 27.0282C36.8918 27.2398 36.9279 29.0564 36.8582 30.8105C36.7912 32.4977 36.6345 33.9258 36.4502 34.5297C36.4105 34.6596 36.3781 34.7716 36.3781 34.7785C36.3781 34.7854 36.5074 34.7193 36.6656 34.6316C36.9583 34.4692 38.2331 33.9606 38.8487 33.7606C39.8292 33.4422 41.605 33.3103 43.1307 33.4428C43.6263 33.4858 44.1191 33.5384 44.2258 33.5597C44.4152 33.5976 44.4229 33.5876 44.554 33.1344C44.6278 32.8792 44.8041 32.2899 44.9457 31.8249L45.2033 30.9796L45.2022 29.5255C45.2011 28.0968 45.1974 28.0585 44.9863 27.3187C44.55 25.79 43.9213 24.4834 43.2288 23.6661C42.7488 23.0997 42.6693 23.0252 42.5948 23.0712C42.5688 23.0873 41.7301 23.1935 40.7312 23.3072ZM7.46568 31.6051C7.44349 31.8563 7.39318 32.8833 7.3538 33.8876C7.31443 34.8919 7.26774 35.7631 7.25002 35.8236C7.21308 35.9497 7.39081 36.0156 7.77099 36.017C8.01249 36.018 8.01655 36.0134 8.05721 35.6967C8.07994 35.5201 8.14419 34.5994 8.2 33.6509C8.25588 32.7024 8.31495 31.7684 8.33132 31.5753C8.36426 31.1862 8.36095 31.1837 7.75272 31.1588L7.50593 31.1486L7.46568 31.6051ZM39.6658 33.968C39.5437 34.0028 39.5395 34.0615 39.5824 35.1296C39.6273 36.2492 39.7596 38.1283 39.7964 38.1703C39.807 38.1824 39.9581 38.1709 40.132 38.1448C40.4123 38.1028 40.4439 38.0811 40.4097 37.9538C40.3885 37.8748 40.3708 36.9173 40.3703 35.826L40.3693 33.8419L40.0818 33.8866C39.9237 33.9112 39.7365 33.9478 39.6658 33.968ZM0.9732 35.4019C0.899396 35.8631 1.34561 36.8645 1.65808 36.9391C1.76009 36.9635 2.0691 37.0401 2.34483 37.1094C2.6205 37.1786 2.97058 37.2359 3.12279 37.2367C3.27493 37.2375 3.59735 37.282 3.83919 37.3357C4.08103 37.3893 4.55288 37.4805 4.88774 37.5383C5.2226 37.596 5.90754 37.7174 6.40983 37.8078C6.91212 37.8982 7.67316 38.0212 8.10104 38.0811C8.52892 38.1411 9.51828 38.2922 10.2996 38.417C11.8028 38.6571 13.8514 38.7695 14.4153 38.6429C14.6283 38.595 14.7059 38.6058 14.8072 38.6974C14.8767 38.7603 14.9335 38.8512 14.9335 38.8995C14.9335 38.9477 15.0426 39.2352 15.176 39.5385C15.3094 39.8417 15.6445 40.7791 15.9207 41.6214C16.5961 43.6811 17.2372 45.4054 17.3426 45.4458C17.3901 45.464 19.7061 45.4837 22.4894 45.4896C26.7887 45.4987 27.667 45.4841 28.3279 45.3926C28.7558 45.3334 29.7451 45.2386 30.5265 45.182C32.7128 45.0236 33.0286 44.9812 33.3864 44.7973C33.6982 44.6371 33.848 44.4669 35.0277 42.9322C35.4576 42.3729 36.1075 41.3102 36.1075 41.1665C36.1075 41.0171 36.1947 40.9927 37.7279 40.714C38.2657 40.6162 39.453 40.3604 40.3662 40.1455C41.2795 39.9307 42.3159 39.7017 42.6694 39.6368C43.9236 39.4065 46.3285 38.7514 46.6271 38.5587C46.7659 38.4692 46.9989 37.7495 46.9989 37.4102C46.9989 37.2495 46.9756 37.2353 46.7114 37.2356C46.5439 37.2358 46.0284 37.3727 45.4768 37.5634C44.9559 37.7434 44.3623 37.9284 44.1576 37.9744C43.953 38.0203 43.5573 38.1312 43.2782 38.2208C42.5559 38.4525 41.0554 38.7556 39.7943 38.9244C39.199 39.0041 38.3182 39.1618 37.8371 39.2748C36.9786 39.4764 35.71 39.6106 35.221 39.5516C34.9458 39.5184 34.9554 39.5029 34.5856 40.5755C33.8504 42.7075 32.8117 43.7757 31.3003 43.9544C31.1351 43.974 30.7595 44.0526 30.4654 44.1292C29.4994 44.3809 28.7975 44.4357 26.6029 44.431C23.2849 44.4239 20.3022 44.1253 18.7475 43.6448C18.4504 43.553 18.0702 43.1621 17.8462 42.7179C17.5063 42.0445 16.7569 40.1573 16.3403 38.926C16.0823 38.1635 15.8429 37.5295 15.8082 37.5171C15.7737 37.5047 15.7453 37.4553 15.7453 37.4073C15.7453 37.3415 15.4609 37.3086 14.5784 37.2726C13.9365 37.2464 13.0461 37.1964 12.5997 37.1615C12.1532 37.1267 11.2399 37.0691 10.5702 37.0336C9.05198 36.9533 8.43509 36.9095 7.66133 36.8271C7.32647 36.7914 6.70443 36.7306 6.27906 36.692C5.1126 36.5861 4.35393 36.3958 2.7767 35.8137C1.98772 35.5224 1.28756 35.2523 1.22079 35.2135C1.03563 35.1058 1.01846 35.1188 0.9732 35.4019ZM55.4547 36.0503C55.1013 36.1868 54.7644 36.3234 54.706 36.3541C54.5845 36.4177 53.9763 36.6594 53.1887 36.9567C52.2674 37.3047 49.3023 38.3174 49.2048 38.3174C49.1541 38.3174 48.9946 38.3676 48.8505 38.429C48.7064 38.4904 48.2725 38.6264 47.8861 38.7311C47.4998 38.8359 47.1771 38.9302 47.1691 38.9407C47.1517 38.9634 47.0535 39.3354 46.8337 40.211C46.6004 41.1405 46.5811 41.2413 46.6411 41.2152C46.6708 41.2022 46.9537 41.0639 47.2697 40.9077C48.2973 40.4001 53.028 38.1767 54.0005 37.7444C55.5063 37.0749 56.7009 36.4517 56.9766 36.1918C57.1989 35.9823 57.2197 35.9375 57.1395 35.8409C56.988 35.6584 56.2229 35.7535 55.4547 36.0503ZM1.74209 37.4729C1.74209 37.4919 1.80508 37.7278 1.882 37.997C1.95898 38.2662 2.09433 38.9236 2.18281 39.4579C2.2713 39.9921 2.35296 40.4366 2.36426 40.4456C2.45085 40.5147 4.64847 41.3743 5.0231 41.4856C5.88501 41.7417 7.28405 42.0398 8.25738 42.175C8.78531 42.2482 9.38568 42.3386 9.5916 42.3758C9.79752 42.413 10.4456 42.485 11.0317 42.5358C11.6178 42.5866 12.1145 42.6453 12.1355 42.6662C12.3979 42.9286 10.8954 42.8894 8.84517 42.5803C5.19662 42.0301 4.21606 41.7862 2.80126 41.0771L2.40599 40.879L2.44489 41.0691C2.46633 41.1737 2.51565 41.4571 2.55448 41.6988C2.59338 41.9406 2.66448 42.34 2.71257 42.5863C2.85842 43.3334 3.32635 43.8287 4.18028 44.14C4.4188 44.2269 4.66755 44.3831 4.82625 44.5456C4.98036 44.7033 5.14786 44.8098 5.24189 44.8098C5.32861 44.8098 5.78665 44.899 6.25985 45.008C7.81434 45.3662 8.73551 45.5525 9.28489 45.6199C9.58254 45.6563 10.0696 45.715 10.3673 45.7501C10.8656 45.809 11.4693 45.9088 14.2909 46.3987C15.5209 46.6124 15.5424 46.6184 15.5424 46.7497C15.5424 46.8384 15.4725 46.8475 15.0857 46.8091C14.8346 46.7842 14.2943 46.7046 13.885 46.6323C12.543 46.3954 10.4187 46.1171 9.28489 46.0296C8.47615 45.9672 6.2217 45.5086 5.64899 45.29L5.46317 45.2191L5.76271 45.8091C5.9275 46.1336 6.3959 47.0074 6.80361 47.7509L7.54491 49.1028L8.41492 49.2497C8.8934 49.3306 9.88939 49.5213 10.6282 49.6735C11.367 49.8257 12.3412 49.9817 12.793 50.0201C14.2932 50.1477 15.7037 50.2955 16.3541 50.3934C16.7076 50.4466 17.5734 50.5377 18.2781 50.5958C18.9828 50.6539 19.5839 50.7167 19.6141 50.7353C19.6442 50.7539 19.6689 50.809 19.6689 50.8577C19.6689 50.9888 18.3508 50.9324 15.035 50.6594C14.3653 50.6043 13.5586 50.5584 13.2423 50.5574C12.4021 50.5549 11.4395 50.4096 9.68875 50.0215C8.83414 49.832 8.07859 49.6592 8.00986 49.6376C7.72783 49.5487 9.21419 51.4505 10.123 52.3415L10.8038 53.0088L11.1255 52.9606C11.5066 52.9034 12.2175 52.6447 12.5592 52.4389C13.0754 52.1279 13.6992 51.6293 13.7721 51.4695C13.9009 51.1868 14.0809 51.2644 14.4494 51.7614C14.9354 52.4168 15.5144 52.9456 15.9144 53.0995C16.1596 53.1938 16.4202 53.2293 16.8615 53.2282C17.4191 53.227 17.5073 53.2077 17.9101 52.9992C18.5381 52.674 19.1395 52.2525 19.1763 52.1117C19.2149 51.9644 19.4472 51.8927 19.5353 52.0011C20.6046 53.3161 21.3009 53.738 22.3989 53.7361C22.8013 53.7354 22.9726 53.6958 23.4222 53.4996C24.1416 53.1856 24.8045 52.7196 25.3146 52.1692C25.7971 51.6485 25.7402 51.6448 26.4432 52.2434C26.6799 52.4449 27.1018 52.7188 27.3808 52.8521C27.8565 53.0793 27.9283 53.0941 28.5309 53.0897C29.1314 53.0853 29.2045 53.0691 29.6471 52.8416C29.9075 52.7077 30.2161 52.5264 30.3328 52.4389C30.7001 52.1633 31.4138 51.4778 31.4985 51.3191C31.6364 51.0611 31.8058 51.1408 32.2434 51.6696C32.5508 52.0412 32.757 52.2202 33.0335 52.3554C33.388 52.5288 33.4457 52.5366 34.1318 52.5034C34.7353 52.4742 34.951 52.4316 35.4259 52.2477C35.9953 52.0274 36.5317 51.6317 36.6145 51.3709C36.6918 51.1275 36.8947 51.1735 37.4002 51.5489C38.279 52.2016 38.374 52.1738 39.7455 50.8626C40.4921 50.1489 41.4834 49.0796 41.4395 49.0356C41.4225 49.0188 41.0303 49.1078 40.5677 49.2334C38.0915 49.906 35.6452 50.3629 32.4206 50.7553C31.8429 50.8256 29.8733 50.9748 28.3279 51.0653C27.4643 51.1159 24.6493 51.0023 23.88 50.8858C23.4128 50.815 23.3219 50.7809 23.3219 50.6762C23.3219 50.5601 23.3636 50.555 23.9139 50.6055C24.2394 50.6353 25.3581 50.6554 26.3999 50.6501C28.0196 50.6418 28.5784 50.6094 30.2559 50.4273C32.4244 50.1918 34.4145 49.9349 35.2957 49.7766C36.6336 49.5364 39.5563 48.9 41.0157 48.5311C41.4602 48.4188 41.8694 48.3256 41.9252 48.3242C42.0364 48.3211 42.0794 48.2632 43.1794 46.6358C43.8039 45.7119 44.6988 44.2579 44.6988 44.1671C44.6988 44.1388 43.8591 44.3508 43.0753 44.5771C41.2745 45.0969 39.7412 45.3798 36.6567 45.7615C35.5664 45.8965 35.1282 45.8882 35.1789 45.7336C35.1931 45.6905 35.3241 45.6459 35.47 45.6345C35.616 45.6232 36.8465 45.4308 38.2046 45.2071C40.5188 44.8258 41.0731 44.7065 42.8723 44.2026C43.263 44.0931 43.886 43.9339 44.2568 43.8488L44.9309 43.6939L45.2832 42.8485C45.477 42.3836 45.7618 41.6075 45.9162 41.124C46.0705 40.6404 46.2859 39.9655 46.3948 39.6241C46.5038 39.2827 46.593 38.9893 46.593 38.9722C46.593 38.9549 46.2961 39.0317 45.9334 39.1428C45.0151 39.4239 43.6418 39.7824 43.2782 39.836C42.7661 39.9115 40.8522 40.3378 40.0649 40.5518C39.0581 40.8256 37.3119 41.2116 36.8337 41.2662L36.4438 41.3107L36.1091 41.9792C35.7468 42.7027 35.516 43.0646 35.0157 43.6939C34.8383 43.9171 34.5609 44.2666 34.3993 44.4705C33.795 45.2334 33.3746 45.3845 31.575 45.4856C30.1998 45.5629 29.0728 45.6594 28.3956 45.7577C27.4046 45.9017 25.8267 45.9472 22.7807 45.9199C19.929 45.8942 17.7736 45.846 17.214 45.7954C17.1102 45.786 16.9953 45.7483 16.9587 45.7117C16.865 45.618 16.2523 43.8601 15.3951 41.2254C15.2438 40.7605 15.0103 40.0809 14.8762 39.7153L14.6324 39.0506L14.191 39.0884C12.7919 39.2082 11.9119 39.2033 10.9761 39.0706C8.98832 38.7885 6.75037 38.4373 5.97012 38.285C5.52364 38.1978 5.02135 38.1054 4.85392 38.0796C4.68649 38.0539 4.24508 37.9599 3.87302 37.8709C3.50095 37.7817 3.08999 37.7067 2.95976 37.7042C2.82954 37.7016 2.52512 37.6449 2.28328 37.5782C1.74892 37.431 1.74209 37.4296 1.74209 37.4729ZM24.5405 37.6848C24.3302 37.7269 24.3229 37.7391 24.357 37.993C24.3984 38.3016 24.2941 42.5172 24.2273 43.2374L24.1817 43.7277H24.7314C25.2472 43.7277 25.2831 43.7183 25.3122 43.5756C25.3759 43.2632 25.419 42.7086 25.4871 41.3269C25.5256 40.5458 25.5852 39.6784 25.6195 39.3994C25.6538 39.1205 25.7021 38.6107 25.7268 38.2666L25.7716 37.6411H25.2655C24.9872 37.6411 24.6609 37.6608 24.5405 37.6848ZM5.43806 38.9206C5.57471 39.0039 5.69216 39.1598 5.76833 39.3593C6.04312 40.0786 5.62416 40.7057 4.86825 40.7066C3.97516 40.7077 3.63037 39.3928 4.40061 38.9233C4.68216 38.7516 5.15888 38.7504 5.43806 38.9206ZM4.64726 39.1986C4.50296 39.2757 4.31273 39.6025 4.31273 39.7732C4.31273 39.9677 4.68723 40.2786 4.92156 40.2786C5.19311 40.2786 5.5304 39.9602 5.5304 39.7038C5.5304 39.315 4.99835 39.0107 4.64726 39.1986ZM9.18112 39.5179C9.49507 39.6762 9.683 40.0162 9.683 40.4258C9.683 40.9722 9.31094 41.3434 8.69987 41.4064C8.24865 41.4529 7.90357 41.315 7.67688 40.9973C7.45128 40.681 7.46102 40.0218 7.69515 39.7682C8.03664 39.3982 8.71664 39.2836 9.18112 39.5179ZM12.0585 39.6002C12.5143 39.7041 12.8513 40.0345 12.9767 40.5002C13.0965 40.9446 13.0194 41.2908 12.7446 41.5425C11.9692 42.253 10.7474 41.5694 10.8227 40.4671C10.8404 40.2084 10.8923 40.0331 10.9801 39.9361C11.2343 39.6553 11.6848 39.515 12.0585 39.6002ZM8.1509 39.9574C7.80982 40.2655 7.78086 40.4239 8.01736 40.6885C8.17329 40.863 8.27578 40.911 8.54908 40.9372C8.85979 40.967 8.90538 40.9519 9.10318 40.7542C9.36214 40.4953 9.38521 40.2294 9.16644 40.0239C8.80777 39.6871 8.47433 39.6652 8.1509 39.9574ZM11.3817 40.1037C10.9962 40.4891 11.1362 41.0021 11.7035 41.2835C12.059 41.4597 12.28 41.4435 12.4982 41.2254C12.8293 40.8944 12.6894 40.3753 12.1938 40.0955C11.841 39.8963 11.5866 39.8989 11.3817 40.1037ZM43.3528 41.4466C43.773 41.7272 43.9353 42.293 43.7168 42.7155C43.6027 42.9361 43.3653 43.0792 43.0056 43.1441C42.7164 43.1964 42.2398 42.9782 42.0381 42.7014C41.8781 42.4816 41.8115 41.9113 41.9219 41.7051C42.1423 41.2933 42.9144 41.1538 43.3528 41.4466ZM42.371 41.8393C42.1491 42.1029 42.1513 42.1779 42.3885 42.4317C42.7166 42.7829 43.1736 42.8005 43.39 42.4703C43.5407 42.2403 43.4526 41.9901 43.1489 41.7855C42.8269 41.5685 42.5848 41.5852 42.371 41.8393ZM39.6552 41.8483C40.3857 42.2725 40.3833 43.3957 39.6511 43.7016C39.131 43.9188 38.5265 43.748 38.3057 43.3213C38.1327 42.9867 38.1089 42.5151 38.2513 42.2422C38.4988 41.7682 39.1855 41.5755 39.6552 41.8483ZM38.9273 42.1802C38.4353 42.4317 38.4089 43.0441 38.8797 43.2875C39.1629 43.4338 39.3829 43.4139 39.612 43.2212C39.9806 42.9111 39.9078 42.3946 39.4686 42.2036C39.2025 42.0879 39.1152 42.0841 38.9273 42.1802Z" fill="black"/>
</svg>
