<svg width="42" height="50" viewBox="0 0 42 50" fill="none" xmlns="http://www.w3.org/2000/svg">
<path fill-rule="evenodd" clip-rule="evenodd" d="M40.512 0.809005C40.3589 0.9333 39.9834 1.23514 39.6774 1.47983C39.3715 1.72451 38.8841 2.11984 38.5945 2.3583C38.3049 2.59683 37.5233 3.15123 36.8577 3.5903C33.2402 5.97667 32.6089 6.34393 30.9183 7.04562C29.9285 7.45643 29.9243 7.45746 29.071 7.49722L28.2158 7.53713L27.9672 8.52956C26.0387 16.2295 19.2931 27.4129 12.4525 34.2513L11.5358 35.1677L11.4501 34.9639C11.403 34.8518 11.3287 34.738 11.285 34.711C11.2414 34.684 11.1775 34.5879 11.1431 34.4975C11.0574 34.272 10.663 34.2617 10.5632 34.4823C10.4694 34.6896 9.2504 35.351 8.13527 35.7998C7.13808 36.201 6.3274 36.5342 6.31358 36.5485C6.30886 36.5534 6.28485 36.6231 6.26029 36.7033C6.22437 36.8203 6.29874 36.9285 6.63699 37.2508C6.86886 37.4718 7.20985 37.833 7.39492 38.0536L7.73133 38.4546L7.35428 38.7381C6.53902 39.3508 4.70427 40.7809 3.52913 41.7196C2.84947 42.2625 2.28209 42.6726 2.2682 42.631C2.25431 42.5893 2.1523 42.4299 2.04146 42.277C1.76834 41.8998 1.6144 41.9135 0.873302 42.3813C0.159229 42.832 0.151292 42.8585 0.494748 43.6455C0.673728 44.0555 0.707936 44.201 0.659565 44.3462C0.612563 44.4872 0.637193 44.614 0.766502 44.8965C0.979485 45.3618 1.79146 46.2358 2.06096 46.2897C2.18767 46.3151 2.41858 46.5039 2.71585 46.8253C3.47529 47.6463 4.76249 48.4635 6.07652 48.9587C8.35071 49.8157 10.802 49.4506 12.3999 48.0166C13.2544 47.2498 13.9926 45.9884 14.3405 44.7007C14.511 44.0693 14.5252 43.9147 14.5286 42.649C14.5326 41.1428 14.4859 40.7956 14.1102 39.5433C13.9817 39.1151 13.8856 38.7574 13.8966 38.7484C13.9076 38.7394 14.1475 38.5691 14.4297 38.37C16.0838 37.2027 19.4451 34.5438 21.3056 32.9309C25.3104 29.4592 28.9275 25.7483 31.8542 22.1089C36.6423 16.1546 39.6556 10.4466 40.703 5.34691C40.9105 4.33647 41.0336 3.09969 41.0573 1.78782C41.0778 0.649188 41.0752 0.623861 40.9342 0.60367C40.8499 0.591624 40.6748 0.67684 40.512 0.809005ZM40.5499 2.31827C40.1197 8.63538 35.7701 16.7823 28.5164 24.8575C26.8186 26.7475 23.8271 29.698 21.6556 31.6241C18.7687 34.1847 14.8532 37.2248 11.752 39.3135C11.144 39.723 11.2588 39.7755 10.5907 38.7819C10.1529 38.1306 9.92514 37.6857 9.91795 37.4677C9.91569 37.3988 10.3251 37.0106 10.9233 36.5147C12.699 35.0426 15.2445 32.3984 17.1746 30.021C21.1222 25.1589 24.8665 18.9472 27.034 13.6646C27.7534 11.9114 28.5057 9.59846 28.7319 8.44401L28.8224 7.98201H29.4357C29.9719 7.98201 30.1532 7.94697 30.877 7.70331C32.0305 7.31503 33.6384 6.50656 34.8149 5.72336C36.9116 4.32737 37.6232 3.88111 37.6229 3.96235C37.6221 4.15598 37.0451 6.24306 36.7349 7.17479C36.1832 8.83141 35.728 9.9196 34.9225 11.5069C33.172 14.957 30.8876 18.714 28.8085 21.5626C28.426 22.0865 28.1132 22.5408 28.1132 22.5721C28.1132 22.6035 28.1739 22.6291 28.2482 22.6291C28.4153 22.6291 29.4149 21.3183 30.7284 19.3771C32.9812 16.0473 35.4463 11.6804 36.4365 9.26499C37.1679 7.48072 38.1021 4.42361 38.1021 3.81404C38.1021 3.57045 38.1703 3.49031 38.8163 2.97444C39.115 2.73591 39.6384 2.31799 39.9794 2.04572C40.3203 1.77345 40.6 1.55018 40.6009 1.5495C40.6017 1.54882 40.5787 1.8948 40.5499 2.31827ZM10.9991 35.1761L11.2065 35.4374L10.7485 35.854C10.4966 36.083 10.098 36.4253 9.86281 36.6144C9.44854 36.9477 9.4352 36.9684 9.4352 37.2777C9.4352 37.7756 9.64449 38.2942 10.1849 39.1357C10.8344 40.147 10.9149 40.2192 11.3938 40.2192C11.7533 40.2192 11.8088 40.1934 12.568 39.6725C13.1799 39.2527 13.3771 39.148 13.4181 39.2211C13.5049 39.3764 13.8005 40.6875 13.8877 41.3045C14.0161 42.2121 13.9357 43.7987 13.7193 44.6284C13.0425 47.2233 11.1114 48.7725 8.55138 48.7742C7.81747 48.7747 6.74215 48.6293 7.14321 48.5838C7.6064 48.5313 8.19192 48.3386 8.55193 48.1202C10.1673 47.1406 10.7705 44.7293 10.085 41.9913C9.67069 40.3364 8.71299 38.5643 7.60661 37.4056L7.10935 36.8848L7.77628 36.6261C8.14307 36.4838 8.61419 36.3006 8.82327 36.219C9.45374 35.9731 10.0658 35.5944 10.4231 35.2291C10.609 35.0391 10.768 34.8907 10.7764 34.8992C10.7848 34.9078 10.885 35.0324 10.9991 35.1761ZM8.29044 39.3123C8.61351 39.8492 9.06068 40.7704 9.10378 40.9881C9.12034 41.0716 9.00225 41.1831 8.70512 41.3645C8.47284 41.5063 7.99563 41.8014 7.64465 42.0204C6.47594 42.7493 3.72549 44.3937 3.49998 44.4983C3.37772 44.5551 3.27763 44.6297 3.27763 44.6644C3.27763 44.699 3.21284 44.7479 3.13361 44.773C3.02428 44.8078 2.92418 44.7553 2.71749 44.5552C2.21059 44.0642 1.97989 43.5045 2.28441 43.5045C2.34264 43.5045 2.44841 43.4088 2.51956 43.2917C2.64497 43.0855 3.55828 42.3002 4.68019 41.4339C5.74018 40.6156 6.80701 39.751 7.34847 39.2716C7.6495 39.0051 7.91277 38.7858 7.9335 38.7845C7.95423 38.783 8.11488 39.0205 8.29044 39.3123ZM9.38991 41.879C9.69108 42.9483 9.77489 44.0798 9.61411 44.9076C9.51278 45.4297 9.49089 45.471 9.14278 45.7974C8.71237 46.2009 8.29174 46.374 7.61037 46.4278C7.00857 46.4753 6.67319 46.3959 5.84835 46.0102C5.14296 45.6805 4.0099 44.9616 4.06224 44.8769C4.08092 44.8468 4.31997 44.6898 4.59343 44.5284C5.85314 43.7843 7.95683 42.4405 8.54577 42.0035C8.90325 41.7383 9.21667 41.5209 9.24219 41.5205C9.26778 41.52 9.33421 41.6813 9.38991 41.879ZM1.80056 43.2361C1.74747 43.2955 1.70403 43.4822 1.70403 43.6508C1.70403 44.1588 2.32697 45.045 2.89949 45.3515C3.04864 45.4313 3.10549 45.43 3.29022 45.3426C3.50471 45.2409 3.51025 45.2431 3.99067 45.6081C4.25702 45.8105 4.93709 46.208 5.50202 46.4914C6.40862 46.9462 6.59273 47.0138 7.07247 47.0676C7.61092 47.128 8.07492 47.0678 8.6484 46.8633C9.02175 46.7301 8.29379 47.3307 7.79845 47.5646C5.90671 48.4576 3.13135 46.8111 1.27094 43.6921C1.05755 43.3345 0.883017 43.0141 0.883017 42.9802C0.883017 42.9463 1.04455 42.8358 1.24194 42.7346L1.60085 42.5507L1.74898 42.8394C1.87733 43.0897 1.88424 43.1424 1.80056 43.2361Z" fill="black"/>
</svg>
