<svg width="54" height="39" viewBox="0 0 54 39" fill="none" xmlns="http://www.w3.org/2000/svg">
<path fill-rule="evenodd" clip-rule="evenodd" d="M44.6281 0.838318C44.4675 0.914091 44.3084 0.995367 44.2745 1.01894C44.2406 1.04251 43.9931 1.203 43.7245 1.37555C43.4559 1.54813 43.1759 1.76448 43.1022 1.85624C43.0285 1.94802 42.9448 2.01716 42.9162 2.0098C42.8119 1.98293 42.8101 2.22291 42.913 2.44706C42.9711 2.57358 43.0582 2.77953 43.1065 2.9048C43.1549 3.03 43.2413 3.213 43.2987 3.31144C43.5532 3.74856 43.5561 3.74088 43.0086 4.08525C42.729 4.26106 42.0313 4.68962 41.458 5.03767C40.8847 5.38573 39.8673 6.00686 39.1972 6.41789C38.5271 6.82891 37.944 7.14058 37.9013 7.11047C37.8557 7.07821 37.8096 7.11101 37.7892 7.19015C37.7698 7.26558 37.4269 7.52656 37.0086 7.78443C36.5983 8.03734 35.8487 8.50026 35.3427 8.81311C34.8366 9.12596 34.0702 9.59605 33.6395 9.85783L32.8565 10.3337L32.6674 10.1369C32.5043 9.96709 32.4485 9.9448 32.261 9.9743C32.0042 10.0147 30.6393 10.7838 30.6048 10.9075C30.5917 10.9546 30.5501 10.985 30.5123 10.9753C30.2955 10.9194 30.4201 11.613 30.7103 12.0777L30.8762 12.3433L30.5137 12.5737C29.986 12.9091 29.7386 13.0481 29.2901 13.2611C28.5402 13.6173 26.7142 14.7243 25.5665 15.5187C25.2733 15.7216 24.7014 16.0885 24.2956 16.3341C23.8897 16.5796 23.3567 16.9206 23.1112 17.0917C22.2731 17.6754 22.3202 17.6539 22.2004 17.508C22.0007 17.2647 21.7487 17.2651 21.3941 17.5089C21.0435 17.7499 20.3642 18.2055 20.1356 18.3531C19.9455 18.4757 19.9581 18.7232 20.1736 19.1006C20.2715 19.2722 20.3461 19.4342 20.3392 19.4606C20.3324 19.487 20.1539 19.6042 19.9424 19.721C19.731 19.8378 19.5526 19.9543 19.546 19.9799C19.5394 20.0056 19.3679 20.1273 19.1649 20.2503C18.9618 20.3735 18.5951 20.6134 18.3497 20.7834C18.1044 20.9535 17.1462 21.5412 16.2202 22.0895C15.2943 22.6378 14.4216 23.1722 14.2808 23.277C13.9301 23.538 13.0401 24.1298 12.3692 24.5482C11.8377 24.8796 11.8006 24.8908 11.5591 24.7928C11.3238 24.6973 11.2689 24.7105 10.7689 24.9822C10.4734 25.1427 10.2164 25.2929 10.1979 25.3158C10.1794 25.3388 10.0173 25.4731 9.83771 25.6143C9.38484 25.9706 9.36793 26.2097 9.751 26.841C9.90806 27.0998 10.0289 27.3412 10.0196 27.3773C10.0102 27.4135 9.19507 27.9217 8.20815 28.5066C6.49033 29.5246 5.74908 29.9885 5.02319 30.4994C4.47452 30.8856 2.06445 32.3171 1.69796 32.4746C1.51018 32.5552 1.30568 32.6081 1.24343 32.5921C1.06318 32.5456 0.574992 32.6799 0.3008 32.8514C0.081287 32.9887 0.0431013 33.0491 0.00513786 33.3188C-0.0356347 33.6085 0.00769339 33.7045 0.676183 34.8061C1.06919 35.4537 1.47664 36.0985 1.58152 36.2389C1.75676 36.4735 1.93031 36.74 2.57848 37.7699C3.0131 38.4605 3.10501 38.5543 3.31007 38.5166C3.41114 38.4981 3.50398 38.4443 3.51643 38.3971C3.52886 38.35 3.56645 38.3185 3.59978 38.327C3.63318 38.3356 3.69259 38.2933 3.73183 38.2329C3.77114 38.1724 3.84429 38.0842 3.89455 38.0367C3.94481 37.9892 4.13562 37.7707 4.31857 37.5512C4.75069 37.0327 4.71248 37.0601 6.82839 35.7492C7.28971 35.4634 7.79193 35.1478 7.94447 35.0477C8.09708 34.9477 8.43132 34.761 8.68735 34.6327C8.94335 34.5045 9.42063 34.2331 9.748 34.0295C10.0753 33.8259 10.4929 33.5813 10.6759 33.4861C10.9932 33.3208 11.7987 32.8695 12.6462 32.3824L13.0385 32.1568L13.2649 32.5321C13.4548 32.847 13.5341 32.9179 13.757 32.972C14.0834 33.0514 14.3336 33.0258 14.6095 32.8853C14.7255 32.8261 14.9152 32.7314 15.0311 32.6747C15.1469 32.6181 15.3797 32.4685 15.5481 32.3421C15.8107 32.1454 15.8579 32.0747 15.8786 31.8492C15.9073 31.5351 16.0545 31.3526 16.2403 31.4004C16.3304 31.4237 16.3873 31.3886 16.4114 31.2949C16.4313 31.2178 16.4987 31.1163 16.5611 31.0694C16.8336 30.865 17.639 30.4171 18.3143 30.0945C18.7165 29.9023 19.6064 29.4244 20.2918 29.0323C20.9772 28.6402 21.977 28.073 22.5138 27.7718C23.0505 27.4706 23.6323 27.132 23.8068 27.0193C23.9812 26.9067 24.2348 26.7458 24.3704 26.6618L24.617 26.5089L24.7774 26.7601C24.8656 26.8982 25.0193 27.1557 25.1189 27.3324C25.2185 27.5091 25.3555 27.6679 25.4232 27.6854C25.5366 27.7148 26.5585 27.1776 26.5849 27.0748C26.5913 27.05 26.7515 26.9403 26.9408 26.8312C27.298 26.6252 27.4342 26.3841 27.3065 26.1839C27.2349 26.0715 27.4229 25.9391 28.1085 25.6191C28.6098 25.3852 28.7894 25.2926 29.7358 24.7808C30.2243 24.5164 30.7415 24.2369 30.885 24.1596C31.4768 23.8407 33.9403 22.4607 34.8635 21.9309C35.4086 21.6181 35.8834 21.3695 35.9186 21.3785C35.9537 21.3876 36.0385 21.3518 36.107 21.2989C36.223 21.2093 36.2378 21.218 36.3259 21.4285C36.3779 21.5527 36.4631 21.6653 36.5153 21.6788C36.5675 21.6922 36.6262 21.7687 36.6458 21.8489C36.6943 22.0476 37.0107 22.2729 37.2433 22.2743C37.4417 22.2756 38.1888 21.9593 38.8203 21.6067C39.3112 21.3326 39.3696 21.1122 39.0777 20.6344C38.8788 20.3088 38.8739 20.2796 39.0101 20.2254C39.1847 20.1558 40.1001 19.6967 40.3502 19.5532C40.4471 19.4976 40.6775 19.38 40.8623 19.2918C41.0471 19.2036 41.3948 19.0295 41.6351 18.9048C41.8753 18.7801 42.2907 18.5696 42.5583 18.4371C42.8257 18.3045 43.126 18.1504 43.2254 18.0946C43.325 18.0388 43.6882 17.8505 44.0327 17.6762C45.0259 17.1735 45.3907 16.9846 45.679 16.8235C45.827 16.7407 46.0768 16.617 46.2341 16.5486C46.3914 16.4801 46.6354 16.3617 46.7764 16.2854C46.9174 16.209 47.3137 16.0047 47.657 15.8312C48.0003 15.6578 48.5306 15.3832 48.8353 15.221C49.1401 15.0589 49.5118 14.8611 49.6615 14.7816L49.9337 14.6371L50.1195 14.873C50.2217 15.0028 50.4166 15.3081 50.5525 15.5516C50.7882 15.9737 50.8137 15.9963 51.1016 16.0378C51.3392 16.0721 51.4859 16.0343 51.7891 15.8605C52.0012 15.7391 52.3841 15.5288 52.64 15.3933C53.161 15.1174 53.2941 14.8785 53.1207 14.5306C53.0079 14.3043 53.004 14.2267 53.0785 13.6931C53.1098 13.4695 53.112 13.2805 53.0834 13.2732C53.0548 13.2658 53.0357 13.0896 53.0409 12.8816C53.0508 12.4915 53.0096 12.2074 52.8031 11.2395C52.632 10.4383 52.5732 10.2189 52.4844 10.0495C52.4413 9.96752 52.4116 9.87898 52.4184 9.85267C52.4251 9.82643 52.3612 9.61473 52.2762 9.38232C51.9544 8.50171 51.455 7.51105 50.7911 6.43642C50.0187 5.18598 49.9862 5.13748 49.7612 4.89681C49.6722 4.80158 49.5887 4.69691 49.5757 4.66412C49.5456 4.58815 48.6223 3.55292 48.5735 3.54035C48.5534 3.53518 48.4685 3.44964 48.3848 3.35029C48.3011 3.25093 48.1092 3.0801 47.9583 2.97075C47.8074 2.86135 47.6739 2.74718 47.6615 2.71689C47.6492 2.68667 47.4828 2.56447 47.2918 2.44538C47.1008 2.32623 46.858 2.15973 46.7522 2.07532C46.6464 1.99087 46.3691 1.85151 46.1359 1.76543C45.8186 1.64846 45.6811 1.55783 45.5895 1.40546C45.5222 1.29339 45.4449 1.19604 45.4178 1.18907C45.3907 1.18208 45.305 1.07757 45.2274 0.956857C45.0498 0.680635 44.988 0.668466 44.6281 0.838318ZM45.0526 1.736C45.6977 3.05479 51.9112 13.777 52.0513 13.8131C52.0856 13.822 52.2302 14.0314 52.3727 14.2785L52.6317 14.7278L51.9191 15.1403L51.2065 15.5529L51.1142 15.3423C51.0634 15.2264 50.726 14.6414 50.3643 14.0422C48.6869 11.2631 43.4347 2.34196 43.4473 2.29318C43.4752 2.18464 44.7498 1.38326 44.8524 1.40971C44.878 1.41629 44.968 1.56315 45.0526 1.736ZM46.5598 2.65489C46.6069 2.66724 46.8179 2.82072 47.0286 2.99589C47.2394 3.17105 47.4453 3.32298 47.4862 3.33352C47.5271 3.34405 47.5914 3.40195 47.6292 3.46208C47.6669 3.52227 47.8048 3.66495 47.9355 3.77906C48.0662 3.89324 48.1984 4.01998 48.2293 4.06075C48.2602 4.10153 48.4645 4.32622 48.6832 4.56007C48.9019 4.79384 49.0924 5.01461 49.1064 5.05061C49.1205 5.0866 49.2048 5.19397 49.2937 5.28919C49.3827 5.38442 49.5042 5.53026 49.5636 5.6134C49.8063 5.95298 51.0299 8.03939 51.1348 8.29257C51.197 8.44249 51.2994 8.65326 51.3623 8.76096C51.4252 8.86866 51.4717 8.97618 51.4656 8.99988C51.4562 9.03622 51.672 9.60744 51.8101 9.91188C51.8327 9.9618 51.8781 10.1218 51.9109 10.2675C51.9437 10.4132 51.986 10.5528 52.0048 10.5778C52.0678 10.6613 52.4171 12.4027 52.4117 12.6057C52.4087 12.7156 52.4339 12.8128 52.4676 12.8215C52.5013 12.8302 52.5169 12.8837 52.5023 12.9403C52.4877 12.997 52.4569 13.0385 52.4338 13.0326C52.4107 13.0266 51.9793 12.3008 51.4753 11.4196C50.9712 10.5385 50.3883 9.5394 50.1798 9.19955C49.9713 8.85963 49.6618 8.33311 49.4919 8.02952C49.3221 7.72585 48.4957 6.31719 47.6555 4.89905C46.8152 3.48097 46.2057 2.39081 46.301 2.47653C46.3963 2.56224 46.5127 2.64247 46.5598 2.65489ZM44.3566 5.24937C44.8319 6.09828 45.2534 6.83372 46.4395 8.88335C46.7602 9.43752 47.3354 10.3896 47.7179 10.9989C48.1002 11.6082 48.6709 12.5423 48.986 13.0747L49.5588 14.0426L49.2675 14.1728C49.1073 14.2444 48.8766 14.3584 48.755 14.4262C48.5604 14.5346 47.8202 14.9121 47.1205 15.2598C46.9916 15.3239 46.7011 15.4769 46.475 15.6C46.2489 15.7231 45.9933 15.856 45.9072 15.8955C45.821 15.9349 45.5382 16.0763 45.2787 16.2097C45.0192 16.3431 44.5461 16.5829 44.2273 16.7425C43.9085 16.9022 43.4578 17.1413 43.2258 17.2739C42.9939 17.4066 42.7585 17.5273 42.703 17.5421C42.6473 17.557 42.3746 17.692 42.0968 17.842C41.8191 17.9921 41.3326 18.2459 41.0158 18.406C40.6989 18.5661 40.2661 18.7874 40.0538 18.8977C39.8416 19.008 39.5633 19.1491 39.4352 19.2113C39.3072 19.2734 39.0659 19.397 38.8989 19.4859C38.5761 19.6579 38.4447 19.6162 38.3185 19.3019C38.2866 19.2224 38.1298 18.9762 37.9701 18.7548C37.8103 18.5335 37.5686 18.1755 37.4329 17.9593C37.2972 17.743 36.9349 17.1717 36.6277 16.6896C36.3206 16.2076 35.4142 14.7113 34.6135 13.3646L33.1577 10.9159L33.4075 10.7463C33.6459 10.5847 34.3331 10.1617 36.7256 8.7046C38.0672 7.88745 39.1499 7.22163 40.6891 6.26733C41.3525 5.85603 42.3138 5.26039 42.8253 4.94369C43.337 4.62708 43.7812 4.37062 43.8127 4.37389C43.8441 4.37721 44.0888 4.77118 44.3566 5.24937ZM53.774 13.4084C53.7586 13.4681 53.795 13.5297 53.8548 13.5451C53.9147 13.5605 53.9609 13.5333 53.9574 13.4846C53.9478 13.3462 53.8053 13.287 53.774 13.4084ZM32.5684 11.1491C32.729 11.438 33.0827 12.0593 33.3544 12.5298C33.6261 13.0003 33.8435 13.4044 33.8376 13.4277C33.8315 13.451 34.0504 13.8496 34.3239 14.3134C34.5973 14.7771 34.9506 15.3808 35.1089 15.6546C35.4326 16.2147 36.3487 17.6649 36.7133 18.1941C37.2195 18.9289 37.4356 19.2618 37.8632 19.9646C38.1062 20.3641 38.3627 20.7554 38.4331 20.8341C38.6488 21.0754 38.582 21.1599 37.9636 21.4292C37.7891 21.5051 37.5856 21.6092 37.5111 21.6606C37.4367 21.7119 37.3572 21.7491 37.3344 21.7432C37.3117 21.7374 37.1211 21.4496 36.911 21.1036C36.7008 20.7577 36.3705 20.2573 36.1769 19.9918C35.6693 19.2956 35.0804 18.3823 34.4578 17.3256C33.6665 15.9825 32.9614 14.7379 32.8861 14.5513C32.8501 14.4619 32.735 14.2727 32.6305 14.1309C32.526 13.9891 32.1821 13.4557 31.8662 12.9458C31.5504 12.4358 31.1864 11.8649 31.0573 11.677C30.923 11.4815 30.8608 11.3304 30.9119 11.3238C30.961 11.3174 31.2667 11.1545 31.5913 10.9617C31.9159 10.769 32.2029 10.6141 32.2291 10.6176C32.2552 10.6211 32.4079 10.8602 32.5684 11.1491ZM31.9113 14.0462C32.1012 14.357 32.3582 14.7528 32.4822 14.9258C32.6063 15.0988 32.7024 15.2641 32.6959 15.2931C32.6675 15.4185 35.4128 20.0991 35.6756 20.3734C35.7709 20.4728 35.81 20.5443 35.7626 20.5322C35.6285 20.4981 34.4217 21.1398 31.2142 22.9505C29.9495 23.6644 28.1606 24.7175 27.6208 25.0657C27.1917 25.3426 27.1397 25.3589 27.1024 25.2289C27.052 25.0528 26.8494 24.6787 26.7058 24.4966C26.6054 24.3692 26.6025 24.3721 26.6464 24.5533C26.6717 24.6582 26.769 24.8778 26.8623 25.0414C26.9557 25.2049 27.0254 25.365 27.0172 25.3969C26.9783 25.5478 26.8316 25.361 26.4515 24.6761C26.092 24.0286 24.5412 21.4025 23.0647 18.9411L22.5965 18.1606L24.5105 17.0266C25.5632 16.403 26.8953 15.6014 27.4706 15.2453C28.0459 14.8892 28.8089 14.4429 29.1663 14.2536C29.5236 14.0643 30.087 13.7654 30.4182 13.5897C30.7494 13.4138 31.0268 13.2449 31.0347 13.2143C31.0426 13.1837 31.0987 13.126 31.1593 13.0863C31.281 13.0065 31.258 12.9773 31.9113 14.0462ZM25.7414 24.5623L26.772 26.2954L26.2026 26.6146C25.8894 26.7902 25.6211 26.9307 25.6062 26.9269C25.5914 26.9231 25.4422 26.6951 25.2748 26.4203C23.9126 24.1845 23.3386 23.2483 22.7281 22.2663C22.3403 21.6426 21.7776 20.7312 21.4776 20.2409C21.1776 19.7507 20.9198 19.3463 20.9047 19.3424C20.8896 19.3386 20.7997 19.2082 20.7049 19.0529L20.5326 18.7704L21.1873 18.3504L21.8419 17.9303L23.2763 20.3798C24.0653 21.727 25.1746 23.6092 25.7414 24.5623ZM20.9498 20.3912C21.0065 20.5002 21.4545 21.2574 21.9453 22.0739C22.4361 22.8904 22.9766 23.8043 23.1465 24.1049C23.3164 24.4054 23.5939 24.8641 23.7633 25.124C23.9326 25.3841 24.0847 25.6448 24.1012 25.7034C24.1221 25.778 23.6556 26.0905 22.5508 26.7421C21.6815 27.2547 20.4373 27.9982 19.7858 28.3945C19.1343 28.7907 18.1233 29.388 17.5392 29.7217C16.5206 30.3036 15.9037 30.6972 15.9286 30.7493C15.9351 30.7627 15.8548 30.8269 15.7501 30.8917L15.5597 31.0097L14.766 29.6995C13.0589 26.8816 12.623 26.1734 12.4046 25.8634C12.2799 25.6864 12.1841 25.5172 12.1918 25.4873C12.2058 25.433 12.7183 25.1117 14.5077 24.0353C15.0323 23.7197 15.748 23.2454 16.0982 22.9812C16.4484 22.717 17.164 22.243 17.6885 21.928C19.0109 21.1336 20.1761 20.3947 20.4341 20.1871C20.6727 19.995 20.762 20.0303 20.9498 20.3912ZM12.0398 26.5694C12.4632 27.2725 13.1071 28.3006 14.1307 29.9078C15.3655 31.8467 15.3173 31.7424 15.0672 31.9334C14.9638 32.0123 14.8554 32.0519 14.8261 32.0215C14.7969 31.9911 14.7622 32.0081 14.749 32.0593C14.7358 32.1106 14.574 32.2392 14.3896 32.3451C14.1477 32.484 14.0293 32.5138 13.965 32.4521C13.916 32.4049 13.4038 31.5965 12.8267 30.6553C11.5169 28.5191 11.3448 28.2476 11.0258 27.8136C10.6355 27.2826 10.1771 26.4811 10.204 26.3767C10.2172 26.3256 10.3365 26.2142 10.4694 26.129C10.6022 26.0438 10.8615 25.8716 11.0458 25.7461C11.3166 25.5619 11.3957 25.5385 11.4576 25.6242C11.4999 25.6826 11.7618 26.1079 12.0398 26.5694ZM10.8654 28.5141C11.035 28.7593 11.2431 29.0867 11.3278 29.2418C11.4125 29.3968 11.7392 29.9672 12.0538 30.5093C12.3684 31.0515 12.6018 31.4895 12.5725 31.4826C12.4969 31.4651 11.1932 32.225 10.3073 32.8029C9.89556 33.0715 9.24609 33.4807 8.86404 33.7121C8.48199 33.9436 8.0231 34.2242 7.8443 34.3357C7.66552 34.4472 7.39257 34.6107 7.23776 34.6991C7.08294 34.7875 6.79528 34.9606 6.59851 35.0839C6.40175 35.2071 6.01717 35.4199 5.74386 35.557C5.47056 35.694 5.06094 35.9016 4.83352 36.0184C4.60612 36.1352 4.39615 36.2246 4.36701 36.2171C4.33781 36.2096 4.20936 36.0548 4.08161 35.8731C3.9538 35.6914 3.73911 35.3943 3.60446 35.213C3.36728 34.8935 2.97653 34.3463 2.69343 33.9373C2.61755 33.8277 2.49122 33.657 2.41262 33.5579L2.26967 33.3778L3.65225 32.5393C4.88946 31.7889 5.61468 31.3079 6.08702 30.9244C6.17348 30.8542 6.34391 30.7299 6.4657 30.6483C6.58749 30.5666 6.84957 30.3813 7.04807 30.2365C7.24656 30.0918 7.74466 29.7583 8.15493 29.4955C8.56522 29.2326 9.2403 28.7881 9.65511 28.5076C10.0699 28.2271 10.4426 28.0135 10.4833 28.033C10.5239 28.0525 10.6959 28.269 10.8654 28.5141ZM1.33784 33.6237C1.34403 33.6958 1.49087 33.9726 1.66404 34.2388C1.83728 34.505 2.3147 35.277 2.72504 35.9544L3.47114 37.1859L3.30662 37.37C3.11826 37.5806 3.0541 37.5376 2.80164 37.031C2.65397 36.7347 2.49651 36.4715 1.28024 34.4879L0.546739 33.2917L0.936581 33.3921C1.24602 33.4718 1.32882 33.5196 1.33784 33.6237ZM3.59889 36.2376C3.7664 36.5017 3.88229 36.7302 3.85647 36.7454C3.8041 36.7763 3.21399 35.8754 3.23448 35.7959C3.25681 35.7092 3.28635 35.745 3.59889 36.2376Z" fill="black"/>
</svg>
