<svg width="59" height="45" viewBox="0 0 59 45" fill="none" xmlns="http://www.w3.org/2000/svg">
<path fill-rule="evenodd" clip-rule="evenodd" d="M41.9004 0.588999C41.2059 0.726468 40.5546 1.18872 39.7777 2.09552C38.0415 4.12221 37.1565 6.60303 37.0327 9.79057C36.9781 11.1944 37.1154 12.2301 37.6258 14.2643C38.079 16.0708 38.2152 16.4681 38.381 16.4681C38.567 16.4681 38.6046 16.3966 38.5265 16.1911C38.4877 16.0891 38.3836 15.4685 38.2951 14.812C38.013 12.7181 38.1702 11.528 38.9543 9.82188C39.9902 7.56759 40.9032 6.15081 42.3316 4.58052C43.543 3.24893 44.0766 2.51347 44.2642 1.91709C44.4123 1.44602 44.3805 1.07238 44.1705 0.819328C43.9448 0.547279 42.7327 0.424326 41.9004 0.588999ZM43.724 1.10642C44.1087 1.44625 43.3397 2.80627 41.9128 4.30946C40.6426 5.64759 39.87 6.78663 38.8847 8.77426C38.2334 10.088 38.0216 10.6389 37.8545 11.4534C37.7767 11.8331 37.6959 12.1607 37.6751 12.1816C37.6085 12.2481 37.5329 11.2743 37.5321 10.3419C37.5313 9.32983 37.6648 8.37538 38.0051 6.96027C38.1806 6.23007 38.3501 5.76797 38.7158 5.02249C39.2981 3.83497 39.759 3.17278 40.6559 2.23459C41.3461 1.5126 41.9192 1.12473 42.5869 0.927536C42.9405 0.823123 43.5036 0.911654 43.724 1.10642ZM32.5756 6.21479C32.4124 6.34314 32.3754 6.43531 32.3754 6.71367C32.3754 7.15921 32.4781 7.33635 32.8184 7.478C33.4855 7.75567 34.1307 8.28297 34.7005 9.01636C35.011 9.41592 35.3 9.78563 35.343 9.83783C35.4644 9.98564 35.643 9.94969 35.643 9.77741C35.643 9.50369 35.2832 8.16731 35.0369 7.5261C34.6512 6.52202 34.0765 6.06235 33.2026 6.05893C32.8842 6.05771 32.725 6.09723 32.5756 6.21479ZM33.5225 6.4778C34.0805 6.67462 34.2997 6.95707 34.6812 7.97057L34.8629 8.45342L34.429 8.02885C34.1735 7.77884 33.755 7.48156 33.4109 7.30572C32.7433 6.96452 32.6041 6.74347 32.9043 6.50037C33.1121 6.33212 33.11 6.3322 33.5225 6.4778ZM30.0957 9.60248C29.7384 9.74717 29.5155 10.2216 29.5979 10.6614C29.6979 11.1938 29.9682 11.3799 31.7482 12.1412C33.9515 13.0836 34.2783 13.2836 35.3424 14.3403C36.3581 15.3489 36.6988 15.8598 37.6355 17.7789C38.2025 18.9405 38.4546 19.2885 38.4546 18.9094C38.4546 18.831 38.4015 18.6173 38.3366 18.4344C38.2717 18.2515 38.1497 17.8454 38.0655 17.532C37.8483 16.7231 37.2839 15.6576 36.2138 14.0364C34.8602 11.9856 33.6729 10.7329 32.548 10.1686C31.8047 9.79574 30.4123 9.47429 30.0957 9.60248ZM31.2938 10.1676C31.6813 10.2967 32.2114 10.5443 32.4718 10.7179C32.9465 11.0342 34.4266 12.4596 34.582 12.7498C34.6565 12.889 34.6333 12.8846 34.3505 12.7061C33.9449 12.45 33.1098 12.0683 31.9195 11.5947C31.397 11.3868 30.8432 11.1629 30.6888 11.0971C30.1278 10.8579 29.9166 10.4086 30.2119 10.0823C30.3901 9.88548 30.4649 9.89141 31.2938 10.1676ZM42.191 19.1362C41.8847 19.1718 41.0982 19.3228 40.4432 19.4717C39.7884 19.6207 38.9277 19.8103 38.5306 19.8932C37.3353 20.1426 36.4679 20.3801 34.2372 21.0691C33.0669 21.4305 31.9556 21.7715 31.7675 21.8269C30.8263 22.1041 24.631 24.2199 22.7888 24.8932C20.5208 25.7222 17.5758 26.5727 16.4322 26.729C14.7816 26.9546 11.0204 26.6408 9.58088 26.1574C9.26886 26.0527 8.8927 25.9668 8.74498 25.9665C8.29245 25.9656 6.24731 25.3531 6.43281 25.274C6.53509 25.2303 7.23914 24.375 7.45739 24.0292C7.78863 23.5045 7.97762 22.7957 8.13196 21.499C8.17322 21.1523 8.30992 20.5734 8.43576 20.2126C8.5616 19.8518 8.64968 19.5418 8.63152 19.5236C8.61343 19.5055 8.43797 19.5454 8.24176 19.6122C7.7881 19.7668 7.20207 20.2189 6.54953 20.9176C5.66303 21.8669 4.93222 23.6263 5.03724 24.5584L5.07394 24.8842L4.57142 24.9221C3.19903 25.0257 1.43748 26.161 0.710023 27.4108C0.33349 28.0577 0.322555 28.1125 0.582747 28.0496C0.702964 28.0204 0.886777 27.9376 0.991264 27.8654C1.54531 27.483 2.00224 27.3282 3.02492 27.1767C4.12101 27.0143 4.6734 26.8188 5.37601 26.3446L5.71979 26.1126L6.59315 26.9707C7.07348 27.4427 7.52274 27.8828 7.59144 27.9488C7.66021 28.0148 8.09259 28.3899 8.55234 28.7824C9.01208 29.1749 9.6789 29.7665 10.0342 30.097C11.1989 31.1805 14.2523 33.6473 15.7086 34.6812C18.5853 36.7237 22.6234 39.0419 24.3964 39.6688C26.4329 40.3888 28.8636 40.8099 31.5195 40.9028L33.0573 40.9566L33.0089 41.1559C32.9288 41.4852 32.4776 42.6384 32.2633 43.0613C32.129 43.3265 32.0706 43.5486 32.0862 43.7358C32.1063 43.9773 32.1378 44.0182 32.3193 44.0391C32.4348 44.0523 32.7083 43.9796 32.9272 43.8774C33.1462 43.7752 33.4905 43.6323 33.6925 43.5597C34.3894 43.3092 36.4145 41.6456 37.0422 40.8078C37.2432 40.5397 37.3204 40.4997 37.8781 40.3746C39.2271 40.0721 41.4276 39.2646 42.8621 38.5458C44.0707 37.9402 46.743 36.4703 47.5355 35.9752C48.3176 35.4866 51.4028 33.1371 52.4369 32.2425C53.4002 31.4094 55.905 28.9256 56.4476 28.2655C57.0542 27.5276 58.2476 25.8227 58.4821 25.3591C58.641 25.0448 58.6997 24.8061 58.7187 24.3966C58.744 23.8537 58.743 23.8508 58.4211 23.4604C57.9789 22.924 56.484 21.8879 55.2928 21.2923C53.3147 20.3032 50.6093 19.6138 47.2348 19.239C45.48 19.0441 43.3567 19.0008 42.191 19.1362ZM46.6996 19.9619C47.5773 20.0444 48.6203 20.1676 49.0174 20.2357C51.1307 20.5979 53.9775 21.4119 55.1053 21.9762C55.8879 22.3679 57.3422 23.2249 57.8679 23.6041L58.2454 23.8766L58.0199 23.9249C57.8958 23.9515 57.3668 23.9784 56.8444 23.9847C56.322 23.9911 55.0396 24.0605 53.9947 24.1392C50.8882 24.3729 48.6119 24.8884 47.3923 25.6343C46.2332 26.3432 45.1068 27.4206 44.105 28.7787C43.4029 29.7306 42.2255 30.5845 40.5064 31.3889C39.4079 31.9028 39.4425 31.901 39.4425 31.4485C39.4425 31.0913 39.0065 28.531 38.8101 27.7356C38.7398 27.4507 38.6839 27.3676 38.5496 27.3485C38.4556 27.3352 38.3787 27.3352 38.3787 27.3485C38.3787 27.3619 38.4818 27.8998 38.6078 28.5438C38.8195 29.6261 38.8365 29.8361 38.8331 31.3175C38.8289 33.1366 38.7683 33.796 38.4511 35.4741C38.0923 37.3717 37.4889 38.9979 36.7622 40.0254C36.3084 40.6671 35.3256 41.6222 34.4651 42.258C34.089 42.5359 33.639 42.8821 33.4653 43.0274C33.1816 43.2645 32.769 43.484 32.7127 43.4278C32.7009 43.4159 32.806 43.1671 32.9464 42.8747C33.0867 42.5824 33.3263 41.9841 33.4788 41.5452C34.3154 39.1378 34.6686 36.867 34.6726 33.8701C34.6751 32.0173 34.6068 31.5144 34.3527 31.5144C34.1309 31.5144 34.0908 31.6493 34.114 32.3183L34.1353 32.9353L33.5783 32.9827C33.2719 33.0087 32.611 33.0856 32.1094 33.1535C31.4904 33.2373 30.38 33.2891 28.6519 33.3145C26.1914 33.3509 26.0607 33.3454 24.746 33.1514C23.2246 32.9269 22.3535 32.7679 20.5209 32.3804C18.005 31.8482 17.468 31.703 15.9614 31.1472C15.7316 31.0624 15.1649 30.871 14.7023 30.7219C13.2015 30.2383 11.7684 29.5595 10.5661 28.7626C8.88328 27.6472 6.398 25.7721 6.80455 25.9244C6.88814 25.9558 7.27698 26.0618 7.66871 26.1599C8.06037 26.2581 8.50317 26.3965 8.65272 26.4674C9.30305 26.776 10.4566 27.1026 11.478 27.2674C12.4327 27.4213 12.8488 27.4452 14.5936 27.4456L16.6073 27.446L17.4432 27.2122C19.5785 26.6151 20.8589 26.2049 22.6866 25.5324C25.2236 24.5989 30.2705 22.9241 32.6794 22.2161C33.0346 22.1117 34.0092 21.8177 34.8451 21.5628C35.681 21.3078 36.8019 20.9925 37.3359 20.8621L38.3069 20.6251L38.4807 20.7884C38.8361 21.1223 39.8317 20.9074 40.0393 20.4519C40.1315 20.2493 40.3213 20.1885 41.5323 19.9733C42.6753 19.7701 44.6145 19.7658 46.6996 19.9619ZM39.1576 20.5459C39.1054 20.5671 39.0199 20.5671 38.9676 20.5459C38.9154 20.5249 38.9581 20.5076 39.0626 20.5076C39.1671 20.5076 39.2098 20.5249 39.1576 20.5459ZM7.60747 20.8443C7.56803 20.966 7.49834 21.3638 7.4526 21.7282C7.28838 23.0366 7.03807 23.7524 6.39929 24.7407L6.10787 25.1917L5.82929 25.0325C5.48331 24.8347 5.47228 24.6556 5.73962 23.5813C5.99046 22.5734 6.55219 21.552 7.17037 20.9796C7.41757 20.7508 7.63316 20.5769 7.64942 20.5933C7.66576 20.6096 7.64691 20.7225 7.60747 20.8443ZM58.1127 24.6942C57.902 25.2728 56.3201 27.4182 55.198 28.6473C54.3943 29.5275 52.6479 31.1959 51.601 32.0836C50.6333 32.9041 48.0156 34.8167 47.2345 35.274C46.3737 35.778 43.0038 37.5651 42.2922 37.8952C41.9996 38.0308 41.4525 38.2602 41.0763 38.4049C40.3602 38.6804 37.9881 39.4321 37.9512 39.3953C37.9394 39.3835 38.0659 39.0161 38.2322 38.5788C38.7723 37.1586 39.1221 35.5534 39.2836 33.7532C39.3251 33.2919 39.3813 32.8562 39.4086 32.7849C39.4361 32.7132 39.6289 32.6048 39.8408 32.5419C40.3172 32.4004 42.0415 31.5322 42.7352 31.0846C43.4003 30.6554 44.1198 29.9348 44.8803 28.9363C46.7994 26.4166 48.0873 25.5881 51.2661 24.8284C52.3303 24.5741 53.0885 24.4929 55.5146 24.3732C57.2301 24.2887 57.8192 24.2568 58.1159 24.2329L58.2857 24.2192L58.1127 24.6942ZM5.09476 25.3721C5.09476 25.421 5.15167 25.524 5.2212 25.6009C5.33998 25.732 5.33656 25.7526 5.1649 25.9352C4.80447 26.3189 3.84077 26.7112 2.85304 26.8763C2.3515 26.9601 1.85566 27.0487 1.75117 27.0732C1.28642 27.182 2.83852 25.9978 3.60512 25.6587C4.28447 25.3582 5.09476 25.2023 5.09476 25.3721ZM43.3668 27.8734C42.8395 28.412 41.7118 29.002 40.8346 29.1983C39.9405 29.3984 39.8907 29.6871 40.7499 29.6894C41.2282 29.6907 41.9399 29.4647 42.5101 29.1305C43.149 28.7561 44.0842 27.6814 43.9542 27.4709C43.8881 27.3641 43.8193 27.4113 43.3668 27.8734ZM10.7941 29.9342C11.6154 30.4257 13.481 31.1897 15.2775 31.77C17.1842 32.3859 17.706 32.5206 19.305 32.8099C23.2083 33.5161 25.0653 33.7476 27.55 33.8378C29.0339 33.8917 30.307 33.8119 31.9955 33.5593C33.3287 33.3598 34.0758 33.2747 34.1232 33.3169C34.2012 33.3865 34.1575 35.4595 34.0603 36.3018C33.9502 37.2564 33.652 38.8922 33.4593 39.599L33.3373 40.0465L30.6336 40.0025C28.3537 39.9654 27.8287 39.9356 27.284 39.8126C24.9388 39.2831 23.122 38.6519 21.8814 37.9356C17.8664 35.6178 14.997 33.6969 12.8523 31.8908C12.5771 31.6591 12.1812 31.3402 11.9727 31.1823C11.5254 30.8437 9.95816 29.4588 9.95816 29.4022C9.95816 29.3807 10.018 29.4148 10.0911 29.4781C10.1643 29.5413 10.4806 29.7466 10.7941 29.9342Z" fill="black"/>
</svg>
