<svg width="66" height="45" viewBox="0 0 66 45" fill="none" xmlns="http://www.w3.org/2000/svg">
<path fill-rule="evenodd" clip-rule="evenodd" d="M61.6567 0.836844C60.7647 1.17415 60.3401 1.41686 60.3401 1.58928C60.3401 1.79049 60.3663 1.79645 60.7576 1.68431C60.9215 1.63728 61.0423 1.63588 61.0423 1.68081C61.0423 1.7238 61.4543 1.9637 61.9578 2.21395C62.7563 2.61075 62.9586 2.67445 63.5386 2.71166C64.3621 2.76448 64.9284 2.58223 65.1255 2.20105C65.197 2.06303 65.2553 1.89632 65.2553 1.83059C65.2553 1.67431 64.8498 1.29848 64.4798 1.11167C63.7751 0.755939 62.2605 0.608525 61.6567 0.836844ZM63.8326 1.37316C64.0881 1.44933 64.4239 1.62552 64.5787 1.76469L64.8604 2.01784L64.5124 2.16411C64.0149 2.37339 63.2472 2.30346 62.5436 1.98476C62.2349 1.84489 62.0208 1.71765 62.0679 1.70203C62.115 1.68632 62.496 1.72827 62.9145 1.79531C63.6447 1.91219 63.6754 1.91044 63.6754 1.75162C63.6754 1.56147 63.4906 1.47784 62.647 1.28629L62.0517 1.15108L62.7099 1.19284C63.072 1.21583 63.5772 1.297 63.8326 1.37316ZM52.25 3.0494C51.9039 3.19304 51.763 3.40504 51.9136 3.55562C52.0459 3.68785 53.2647 3.24525 53.3028 3.05124C53.3258 2.93436 53.2585 2.90752 52.9517 2.9112C52.743 2.91366 52.4273 2.97586 52.25 3.0494ZM63.2848 5.23642C62.3263 5.75914 60.852 6.33485 59.594 6.67759C55.1946 7.87623 52.8574 8.81003 50.4117 10.3461C48.5447 11.5186 47.2395 12.547 45.3432 14.3394C43.6067 15.9806 41.7323 17.4177 40.2842 18.2183C39.1814 18.828 38.0944 19.2866 37.5201 19.3845C37.2511 19.4303 37.1166 19.4997 37.0967 19.6029C37.0519 19.836 37.7513 19.7994 38.5579 19.5263C40.8038 18.7659 43.1554 17.2184 46.8915 14.0422C50.2718 11.1685 52.5968 9.8574 57.4436 8.09174C62.4222 6.27809 63.2715 5.89848 63.7914 5.25433C63.9373 5.07357 64.04 4.90991 64.0196 4.89069C63.9993 4.87148 63.6686 5.02706 63.2848 5.23642ZM59.6818 4.98968C55.1715 5.4479 52.6672 6.06609 50.378 7.28639C48.6191 8.22389 47.8527 8.8153 45.5644 11.0007C43.6586 12.8209 42.8657 13.7953 43.1483 13.9699C43.2151 14.0113 43.5768 13.6962 44.1387 13.1071C44.9482 12.2585 46.8133 10.6194 48.0399 9.67848C49.7731 8.34884 52.4653 7.06753 54.5033 6.60238C58.6084 5.66532 59.7675 5.37305 59.9693 5.22396C60.1703 5.07549 60.0225 4.95502 59.6818 4.98968ZM42.6979 8.40605C42.4721 8.48985 42.3468 8.71904 42.3468 9.04818C42.3468 9.42374 42.4737 9.57546 42.7879 9.57546C43.2219 9.57546 43.5685 8.92306 43.332 8.55137C43.2519 8.42554 42.877 8.33953 42.6979 8.40605ZM43.049 8.91428C43.049 9.08355 42.7298 9.25938 42.6518 9.13311C42.5809 9.01843 42.7659 8.78572 42.928 8.78572C42.9946 8.78572 43.049 8.84356 43.049 8.91428ZM31.5783 9.46892C31.4535 9.54816 31.2875 9.96023 31.2875 10.1905C31.2875 10.4928 31.6569 10.8194 32.0101 10.8294C32.4663 10.8423 32.6919 10.6137 32.6919 10.1386C32.6919 9.83808 32.646 9.72761 32.4606 9.58186C32.2304 9.40075 31.7768 9.34274 31.5783 9.46892ZM35.0698 10.2903C34.6875 11.4768 33.0667 14.4761 32.4659 15.1084C32.2197 15.3677 32.1867 15.63 32.4005 15.63C32.8915 15.63 34.5866 12.9274 35.1523 11.2427C35.3638 10.6125 35.4854 9.6632 35.3545 9.6632C35.3091 9.6632 35.1809 9.9454 35.0698 10.2903ZM32.2854 9.91372C32.4713 10.1191 32.3887 10.3498 32.1037 10.4213C31.8143 10.4939 31.5069 10.2031 31.5915 9.93679C31.667 9.69891 32.0786 9.68523 32.2854 9.91372ZM24.2171 14.7602C24.119 14.9189 24.2758 14.9803 25.0541 15.0878C25.9525 15.2119 26.5546 15.4888 27.1914 16.0706C27.6675 16.5057 28.1479 17.286 28.2569 17.8018C28.3437 18.2124 28.4788 18.1528 28.4788 17.7039C28.4788 16.8707 27.5683 15.5792 26.6509 15.1114C25.9367 14.747 24.3654 14.5204 24.2171 14.7602ZM22.9463 16.1785C22.3828 16.4629 22.0281 17.1746 22.0278 18.0215C22.0275 18.5927 22.0437 18.6419 22.3089 18.879C22.6124 19.1503 23.0788 19.2803 23.4313 19.1918C23.8233 19.0934 23.6897 18.9027 23.1957 18.8553C22.3943 18.7783 22.1122 18.1739 22.5336 17.4371C22.6415 17.2486 22.8367 17.015 22.9675 16.9182C23.574 16.4685 25.1296 16.7346 25.9101 17.4215C26.6275 18.0527 26.7858 18.7238 26.4631 19.7669C26.204 20.6047 25.897 21.0038 24.8363 21.8817C22.9481 23.4445 20.9768 24.588 17.9461 25.8787C17.1013 26.2385 15.872 26.7617 15.2142 27.0415C12.5429 28.1775 8.72199 29.3365 6.4041 29.7137C5.59344 29.8456 3.1101 30.0999 2.57434 30.1058C2.33885 30.1085 2.1626 30.4043 2.33358 30.5099C2.44935 30.5815 5.16854 30.3919 6.27245 30.2353C8.37476 29.937 9.96906 29.5609 12.3314 28.8059C14.066 28.2515 15.539 27.6976 16.6646 27.1765C17.046 26.9999 17.7569 26.6944 18.2445 26.4975C19.7427 25.8926 21.8868 24.807 22.993 24.0935C24.2562 23.2789 25.7478 22.1249 26.2707 21.5577C27.2372 20.5096 27.6307 18.4409 27.0506 17.4574C26.3731 16.3084 24.095 15.5986 22.9463 16.1785ZM55.2493 16.6393C54.3827 16.7936 53.5695 17.0825 52.3462 17.671C50.7469 18.4405 49.752 19.1977 46.7471 21.932C46.0407 22.5748 44.9887 23.4616 44.4094 23.9026C43.8302 24.3436 43.0402 24.9442 42.654 25.2373C42.2678 25.5303 41.5371 25.9819 41.0302 26.2408C40.5233 26.4997 40.004 26.7846 39.8762 26.8739C39.4857 27.147 37.5162 27.893 36.7989 28.0397C36.0039 28.2022 35.1646 28.2163 34.3831 28.0802C33.9683 28.008 33.8339 27.951 33.868 27.862C34.2438 26.8831 34.3752 26.2156 34.3463 25.4345C34.3056 24.3408 34.0905 23.9849 33.2334 23.5938C31.8962 22.9833 30.7535 23.4411 30.197 24.8103C29.7888 25.8146 29.82 26.8137 30.2802 27.4784C30.5776 27.9081 31.3531 28.3529 32.1915 28.5747L32.899 28.7619L32.5102 29.1843C32.0934 29.6372 29.7648 31.2173 28.6105 31.8306C27.2276 32.5653 22.9472 34.1512 21.6524 34.4086C21.376 34.4636 20.4389 34.6801 19.5699 34.8898C16.6376 35.5975 14.3309 36.0071 12.0654 36.2221C10.1395 36.4049 4.9003 36.4857 4.07814 36.3453C3.13775 36.1846 2.6529 36.1588 2.52756 36.2628C2.28803 36.4615 2.42478 36.5288 3.33208 36.6586C3.4769 36.6794 3.85994 36.754 4.18321 36.8245C4.62488 36.9209 5.41061 36.9524 7.343 36.9516C10.6014 36.9502 13.6259 36.7092 15.7022 36.2855C16.2847 36.1666 17.0772 36.0116 17.4634 35.941C19.9565 35.4857 23.9218 34.3492 26.3284 33.3999C28.3749 32.5927 28.9426 32.3163 30.2929 31.4694C31.8992 30.4621 32.6826 29.8554 33.136 29.268C33.399 28.9272 33.5508 28.7999 33.6493 28.8377C33.9316 28.9463 36.9009 28.8784 37.4999 28.7497C38.1402 28.6122 39.2728 28.1847 40.1086 27.765C40.3983 27.6195 41.0105 27.336 41.4691 27.1349C41.9277 26.9337 42.5453 26.5827 42.8414 26.3547C43.7045 25.6905 45.6581 23.9768 45.9681 23.612C46.2359 23.2968 47.5257 22.184 48.4031 21.5111C48.6203 21.3446 49.1338 20.9269 49.5441 20.583C50.7025 19.6124 51.9019 18.8239 53.0274 18.2932C54.3059 17.6903 54.7135 17.5387 55.8198 17.2552C57.1412 16.9166 57.2815 16.8618 57.25 16.6965C57.2133 16.5045 56.1744 16.4747 55.2493 16.6393ZM42.9967 19.6506C42.0293 20.1482 40.8547 21.1619 40.6485 21.6771C40.5734 21.8648 40.4871 22.2295 40.4566 22.4876C40.4263 22.7457 40.3453 23.1059 40.277 23.2878C40.0132 23.9889 40.2448 24.2488 40.5498 23.5939C40.6946 23.283 40.784 23.2047 41.0943 23.1175C41.6013 22.9749 42.44 22.5178 42.87 22.1498C43.3492 21.7397 43.6393 21.218 43.8855 20.3236C43.9986 19.9126 44.116 19.4979 44.1465 19.402C44.2368 19.1176 43.8852 19.1936 42.9967 19.6506ZM43.4813 20.3465C43.2301 21.0891 42.759 21.6586 41.9579 22.1882C41.5754 22.4411 41.2453 22.6308 41.2243 22.6098C41.1541 22.5397 41.801 21.8193 42.208 21.5146C42.5963 21.2236 42.7284 20.9826 42.4994 20.9826C42.2726 20.9826 41.5085 21.5688 41.1327 22.031C40.7534 22.4975 40.7012 22.425 40.9972 21.843C41.2365 21.3726 43.2007 19.8595 43.5918 19.8443C43.6249 19.843 43.5751 20.069 43.4813 20.3465ZM16.036 20.8779C15.4597 21.1354 15.3155 21.2367 15.3338 21.3707C15.3465 21.4634 15.3966 21.5523 15.4452 21.5683C15.5974 21.6182 16.846 20.8588 16.8766 20.6975C16.9153 20.4934 16.8786 20.5012 16.036 20.8779ZM56.4251 21.2252C55.8211 21.7575 55.5352 22.2559 55.3334 23.129C55.2273 23.5881 55.1598 24.0377 55.1835 24.1282C55.2133 24.2425 55.1496 24.3381 54.9746 24.4415C54.6984 24.6045 54.6539 24.7349 54.8487 24.8097C54.9928 24.8649 56.236 24.4599 56.5659 24.2503C57.1001 23.9109 57.371 23.3187 57.4178 22.3882C57.4482 21.785 57.4247 21.5814 57.2959 21.3336C57.089 20.9353 56.7957 20.8988 56.4251 21.2252ZM57.0696 22.4743C57.0225 23.1716 56.7669 23.7063 56.3608 23.9572C55.9686 24.1995 55.8746 24.1908 56.1155 23.9345C56.3113 23.7261 56.6537 22.9361 56.6537 22.6927C56.6537 22.4422 56.4851 22.5648 56.3206 22.935C56.1509 23.3166 55.6965 23.916 55.6285 23.8479C55.5605 23.7799 55.8722 22.7011 56.0461 22.4028C56.1393 22.2428 56.3615 21.9375 56.5397 21.7243L56.8639 21.3366L56.9861 21.6203C57.0658 21.8054 57.0947 22.1021 57.0696 22.4743ZM32.4256 21.941C32.0365 22.0173 31.9019 22.0992 31.9019 22.2602C31.9019 22.3623 32.0801 22.3866 32.827 22.3866C33.906 22.3866 34.1634 22.483 34.822 23.1341C35.2634 23.5705 35.7938 24.5533 35.8991 25.1297C35.968 25.5067 36.0891 25.6274 36.1748 25.4042C36.2741 25.1453 36.0522 24.1434 35.7674 23.565C35.4134 22.8461 34.6929 22.177 34.0753 21.9937C33.6108 21.8557 32.9661 21.8352 32.4256 21.941ZM10.6839 22.647C10.6963 23.0913 10.6588 23.221 10.4006 23.6283C9.85452 24.4902 9.78316 24.6772 9.78719 25.235C9.7893 25.5265 9.8467 25.9211 9.91464 26.1119C10.0477 26.4853 10.0416 26.5029 9.61718 26.972C9.44901 27.1578 9.42233 27.2379 9.50185 27.3174C9.58137 27.3969 9.68195 27.3565 9.9357 27.143C10.1174 26.9901 10.4917 26.7412 10.7673 26.5898C11.043 26.4383 11.4836 26.0891 11.7464 25.8136C12.6004 24.9186 12.6302 23.9716 11.831 23.1325C11.6931 22.9877 11.4559 22.71 11.3041 22.5156C11.1521 22.3211 10.9473 22.1558 10.8488 22.1484C10.686 22.1362 10.671 22.1815 10.6839 22.647ZM11.7363 23.7291C12.2302 24.4475 11.9193 25.2279 10.8011 26.0767C10.6395 26.1994 10.6384 26.1948 10.7694 25.9404C10.9697 25.5512 11.2755 24.5118 11.2755 24.2201C11.2755 23.7664 11.1255 23.9503 10.8926 24.69C10.7672 25.0881 10.5687 25.5705 10.4516 25.762L10.2387 26.1101L10.1761 25.6933C10.0886 25.1099 10.1709 24.8027 10.5856 24.1665C10.8273 23.7957 10.9611 23.4804 10.9916 23.21L11.0371 22.8068L11.266 23.0924C11.3918 23.2496 11.6036 23.5361 11.7363 23.7291ZM50.2585 24.1141C50.1339 24.215 50.0418 24.4085 50.0117 24.633C49.9695 24.9478 49.9927 25.0139 50.2046 25.1806C50.6933 25.5649 51.1871 25.3406 51.2698 24.6968C51.3235 24.2781 51.1814 24.083 50.7687 24.009C50.5366 23.9674 50.4066 23.9941 50.2585 24.1141ZM32.9913 24.3485C33.5087 24.6317 33.6806 24.9238 33.7598 25.6547C33.8197 26.2079 33.7985 26.3987 33.5975 27.1101L33.3661 27.9286L32.8315 27.8676C31.6474 27.7322 30.7679 26.9031 30.7628 25.9175C30.759 25.1917 31.2914 24.4192 31.9578 24.183C32.335 24.0494 32.4904 24.0743 32.9913 24.3485ZM50.8572 24.4445C51.101 24.7382 50.7093 25.0958 50.4394 24.826C50.3006 24.6873 50.3064 24.6204 50.472 24.4549C50.643 24.284 50.7222 24.2818 50.8572 24.4445ZM20.2721 27.0478C17.2057 28.6334 15.3448 29.2954 11.4071 30.2017C8.96398 30.7641 8.58507 30.8294 7.69602 30.8412C6.75976 30.8535 6.70718 30.8638 6.73053 31.0297C6.75388 31.1959 6.81883 31.2048 7.94012 31.1972C9.06983 31.1895 9.24731 31.1616 11.7496 30.5985C16.0221 29.6371 18.3985 28.7002 21.6106 26.7111C22.2146 26.3372 22.3315 26.2185 22.1811 26.1324C22.1449 26.1116 21.2859 26.5235 20.2721 27.0478ZM49.2369 27.9717C49.0921 27.9886 48.5984 28.045 48.1398 28.0972C46.4272 28.2919 43.6767 29.0373 42.0615 29.7442C41.6642 29.9181 41.4888 30.1961 41.7765 30.1961C41.849 30.1961 42.6285 29.9739 43.5087 29.7023C44.3889 29.4307 45.4651 29.1371 45.9003 29.0498C47.6773 28.6935 50.5658 28.5809 51.5015 28.8314C52.403 29.0728 53.0121 29.4577 53.1986 29.904C53.3128 30.1772 53.3045 30.2446 53.0924 30.7746C52.9659 31.0906 52.885 31.3717 52.9126 31.3992C52.9401 31.4267 52.8961 31.5618 52.8149 31.6994C52.5806 32.0958 52.7676 32.1964 53.2787 31.949C53.6214 31.7832 53.7276 31.6698 53.9069 31.2782C54.4471 30.0986 53.9774 28.9874 52.6902 28.3994C51.8307 28.0067 50.4274 27.8329 49.2369 27.9717ZM47.7448 30.0233C46.712 30.209 45.1032 30.6763 43.4978 31.2569C41.6172 31.9371 38.9034 33.2653 36.2175 34.8203C35.4129 35.286 34.5373 35.7927 34.2718 35.946C33.3683 36.4677 31.9881 37.2998 29.9709 38.5389C28.6348 39.3597 25.6416 40.8411 24.291 41.3499C23.4524 41.6659 20.7287 42.5252 18.2061 43.2695C17.6008 43.4481 16.7209 43.647 16.2507 43.7115C15.4297 43.8243 15.1009 43.9714 15.2772 44.1471C15.3907 44.2602 17.0589 44.0888 17.877 43.88C18.2499 43.7848 19.0599 43.552 19.6769 43.3627C20.2939 43.1732 21.4504 42.8215 22.247 42.5809C23.0435 42.3403 24.1297 41.9683 24.6607 41.7543C26.2473 41.1146 29.0596 39.77 30.2781 39.0684C33.6129 37.1482 37.8973 34.8066 40.1973 33.6469C42.3084 32.5826 44.6394 31.7133 46.8671 31.1597C48.3372 30.7943 49.7829 30.7469 50.4218 31.0432C50.9913 31.3073 51.1593 31.5244 51.0959 31.9145C51.028 32.3333 50.8694 32.5623 50.443 32.8578C50.15 33.0608 49.9897 33.1039 49.4743 33.1184C48.967 33.1326 48.8122 33.1028 48.6079 32.9515C48.29 32.7161 48.2339 32.3152 48.4866 32.0866C48.6725 31.9184 48.7251 31.6468 48.5882 31.5621C48.5452 31.5355 48.3675 31.6715 48.1932 31.8643C47.2735 32.882 48.5503 34.0418 50.113 33.6081C50.9511 33.3755 51.622 32.6532 51.7003 31.8991C51.7376 31.5405 51.7042 31.3951 51.5004 31.0297C51.2928 30.6576 51.1629 30.5445 50.645 30.2847C50.0738 29.9982 49.974 29.9772 49.1089 29.9613C48.6 29.952 47.9862 29.9799 47.7448 30.0233ZM26.6795 31.1378C25.6726 31.5474 25.0723 32.0388 25.5788 32.0388C25.9565 32.0388 27.1622 31.3327 27.1622 31.1115C27.1622 30.9565 27.1193 30.9588 26.6795 31.1378ZM20.6144 31.2285C20.3199 31.4251 20.226 32.0241 20.4539 32.252C20.6586 32.4565 21.152 32.4272 21.3658 32.1977C21.59 31.9572 21.5995 31.5012 21.3843 31.3066C21.2196 31.1576 20.7864 31.1136 20.6144 31.2285ZM21.0996 31.8861C20.9919 31.9733 20.8604 32.0302 20.8074 32.0125C20.642 31.9575 20.6405 31.6611 20.805 31.5408C20.9372 31.4442 20.9884 31.4499 21.1287 31.5768C21.2919 31.7245 21.2913 31.7309 21.0996 31.8861ZM0.2231 33.9327C0.227313 34.0349 0.248116 34.0557 0.276115 33.9858C0.301481 33.9224 0.298322 33.8467 0.269181 33.8176C0.240041 33.7884 0.219326 33.8402 0.2231 33.9327ZM4.2098 34.8949C3.87188 35.0084 3.525 35.1031 3.43907 35.1056C3.24843 35.111 3.1417 35.3496 3.27169 35.4796C3.46514 35.673 5.04364 35.0687 5.04364 34.8014C5.04364 34.6348 4.9556 34.6447 4.2098 34.8949ZM28.5773 35.2414C28.3177 35.4024 27.8546 35.646 27.5483 35.7828C27.1053 35.9805 26.9909 36.0717 26.989 36.2288C26.9857 36.5091 27.2155 36.4832 27.8998 36.1267C28.5677 35.7786 29.2688 35.2301 29.2688 35.0556C29.2688 34.8726 29.0972 34.9187 28.5773 35.2414ZM42.0835 35.9765C41.4184 36.1177 39.4597 36.9581 39.0992 37.2568C39.0268 37.3168 38.7369 37.4105 38.4549 37.4651C37.195 37.7088 34.9663 38.9956 33.3721 40.3997C32.7409 40.9555 32.5366 41.2593 32.8016 41.2474C32.862 41.2448 33.1088 41.0859 33.3502 40.8945C35.0685 39.5315 36.5188 38.6041 37.676 38.1283C38.339 37.8557 38.4406 37.8577 38.2562 38.1391C38.1213 38.3449 38.1215 38.3871 38.2599 38.7492C38.428 39.1895 38.6352 39.2987 38.9815 39.1299C39.4345 38.9091 39.6151 38.3554 39.4083 37.8214C39.3671 37.7152 39.4995 37.6052 39.9507 37.3702C41.1751 36.7327 42.6644 36.3464 43.9267 36.3387C44.4966 36.3352 44.7315 36.2305 44.558 36.057C44.4285 35.9275 42.5948 35.8679 42.0835 35.9765ZM23.4319 37.0728C22.9157 37.3153 21.9534 38.146 21.6114 38.6443C21.3275 39.0582 21.1949 39.4889 21.1942 39.9998C21.1939 40.2152 21.1202 40.491 21.0185 40.6579C20.8341 40.9602 20.7836 41.3401 20.9276 41.3401C20.9744 41.3401 21.1724 41.1239 21.3677 40.8596C21.6023 40.5421 22.0957 40.1028 22.8215 39.5653C24.0569 38.6503 24.3535 38.2464 24.3535 37.4795C24.3535 36.8221 24.1535 36.7339 23.4319 37.0728ZM24.0024 37.4836C24.0024 37.8965 23.7867 38.2224 23.2351 38.6426C22.4965 39.2054 22.4296 39.2255 22.7956 38.7756C23.1062 38.3938 23.2177 38.0934 23.049 38.0934C22.945 38.0934 22.2626 38.8364 21.9005 39.3437C21.7368 39.5729 21.586 39.7433 21.5652 39.7225C21.449 39.6064 21.8065 38.9729 22.2645 38.4835C22.7434 37.9717 23.7333 37.216 23.9247 37.216C23.9674 37.216 24.0024 37.3363 24.0024 37.4836ZM38.852 38.3757C38.789 38.4386 38.7481 38.4438 38.7481 38.3889C38.7481 38.2717 38.852 38.1679 38.9105 38.2266C38.9354 38.2515 38.9091 38.3186 38.852 38.3757ZM44.7605 38.6835C44.3453 38.7855 44.2018 39.1979 44.5631 39.2509C44.8401 39.2915 45.8582 39.1523 46.0554 39.0468C46.2654 38.9344 46.2117 38.7731 45.939 38.6968C45.6928 38.6281 45.017 38.6204 44.7605 38.6835ZM18.5425 42.3526C18.473 42.4221 15.5895 42.9703 13.9524 43.2253C11.8394 43.5546 9.27908 43.4982 7.65108 43.0868C7.27489 42.9917 6.92924 42.9372 6.88308 42.9658C6.50206 43.2011 7.53408 43.5411 9.16893 43.7186C10.8695 43.9033 12.6944 43.8549 14.21 43.5851C17.2725 43.0397 18.8239 42.6513 18.8239 42.4299C18.8239 42.3087 18.6376 42.2576 18.5425 42.3526ZM6.00913 43.5338C6.00913 43.582 6.04863 43.6215 6.0969 43.6215C6.14518 43.6215 6.18467 43.582 6.18467 43.5338C6.18467 43.4855 6.14518 43.446 6.0969 43.446C6.04863 43.446 6.00913 43.4855 6.00913 43.5338Z" fill="black"/>
</svg>
