<svg xmlns="http://www.w3.org/2000/svg" xmlns:xlink="http://www.w3.org/1999/xlink" width="4000" zoomAndPan="magnify" viewBox="0 0 3000 1012.49997" height="1350" preserveAspectRatio="xMidYMid meet" version="1.0"><defs><g/></defs><g fill="#f6f7fc" fill-opacity="1"><g transform="translate(77.126349, 804.786975)"><g><path d="M 705.859375 -152.984375 L 721.359375 -121.03125 L 562.5625 0 C 542.550781 0 524.796875 -10.328125 509.296875 -30.984375 C 493.804688 -51.640625 479.445312 -78.75 466.21875 -112.3125 C 452.988281 -145.882812 440.238281 -181.710938 427.96875 -219.796875 L 390.21875 -177.1875 L 262.40625 -177.1875 C 258.53125 -156.53125 253.6875 -137.488281 247.875 -120.0625 C 242.0625 -102.632812 234.640625 -87.46875 225.609375 -74.5625 C 200.429688 -40.988281 169.765625 -10.164062 133.609375 17.90625 C 97.460938 45.988281 53.894531 77.132812 2.90625 111.34375 L -17.421875 83.265625 C 21.304688 54.867188 50.675781 24.375 70.6875 -8.21875 C 90.695312 -40.820312 105.054688 -73.90625 113.765625 -107.46875 C 122.484375 -141.039062 127.972656 -173.800781 130.234375 -205.75 C 132.492188 -237.707031 134.910156 -267.882812 137.484375 -296.28125 C 140.066406 -324.6875 145.554688 -349.863281 153.953125 -371.8125 C 168.796875 -410.539062 189.289062 -441.6875 215.4375 -465.25 C 241.582031 -488.8125 269.5 -510.597656 299.1875 -530.609375 C 296.613281 -533.835938 293.875 -536.582031 290.96875 -538.84375 C 288.0625 -541.101562 284.992188 -543.523438 281.765625 -546.109375 C 262.398438 -562.242188 241.90625 -570.3125 220.28125 -570.3125 C 198.65625 -570.3125 177.515625 -565.789062 156.859375 -556.75 C 136.203125 -547.71875 118.128906 -537.710938 102.640625 -526.734375 L 85.203125 -555.78125 C 109.734375 -580.957031 136.359375 -605.328125 165.078125 -628.890625 C 193.804688 -652.453125 223.175781 -671.816406 253.1875 -686.984375 C 283.207031 -702.148438 311.773438 -709.734375 338.890625 -709.734375 C 364.066406 -709.734375 386.984375 -698.921875 407.640625 -677.296875 C 428.296875 -655.671875 447.335938 -627.269531 464.765625 -592.09375 C 482.191406 -556.914062 498.488281 -518.507812 513.65625 -476.875 C 528.832031 -435.238281 543.359375 -393.765625 557.234375 -352.453125 C 571.109375 -311.140625 585.304688 -273.859375 599.828125 -240.609375 C 614.359375 -207.367188 629.367188 -181.710938 644.859375 -163.640625 C 653.898438 -153.953125 663.742188 -147.816406 674.390625 -145.234375 C 685.046875 -142.648438 695.535156 -145.234375 705.859375 -152.984375 Z M 278.859375 -290.484375 L 405.703125 -290.484375 C 393.441406 -328.566406 381.015625 -365.359375 368.421875 -400.859375 C 355.835938 -436.359375 341.476562 -467.019531 325.34375 -492.84375 C 312.425781 -464.445312 302.578125 -432.65625 295.796875 -397.46875 C 289.023438 -362.289062 283.378906 -326.628906 278.859375 -290.484375 Z M 278.859375 -290.484375 "/></g></g></g><g fill="#f6f7fc" fill-opacity="1"><g transform="translate(727.800452, 804.786975)"><g><path d="M 335.984375 -313.71875 C 326.953125 -329.207031 316.945312 -344.695312 305.96875 -360.1875 C 295 -375.6875 283.378906 -386.820312 271.109375 -393.59375 C 258.847656 -400.375 245.941406 -397.3125 232.390625 -384.40625 L 226.578125 -378.59375 L 226.578125 -364.0625 L 227.546875 -207.203125 C 226.898438 -182.679688 231.09375 -164.445312 240.125 -152.5 C 249.164062 -140.5625 264.984375 -142.660156 287.578125 -158.796875 L 309.84375 -128.78125 L 150.078125 0 C 128.128906 -13.550781 109.894531 -34.367188 95.375 -62.453125 C 80.851562 -90.535156 73.914062 -125.554688 74.5625 -167.515625 L 74.5625 -318.5625 C 73.914062 -348.25 67.296875 -367.289062 54.703125 -375.6875 C 42.117188 -384.082031 21.625 -378.914062 -6.78125 -360.1875 L -23.234375 -391.171875 L 150.078125 -536.421875 C 168.796875 -522.222656 183.960938 -508.019531 195.578125 -493.8125 C 207.203125 -479.613281 215.273438 -462.1875 219.796875 -441.53125 L 318.5625 -536.421875 C 337.28125 -536.421875 355.191406 -530.445312 372.296875 -518.5 C 389.398438 -506.5625 404.566406 -492.84375 417.796875 -477.34375 C 431.035156 -461.851562 441.6875 -448.140625 449.75 -436.203125 C 457.820312 -424.265625 461.859375 -418.296875 461.859375 -418.296875 Z M 335.984375 -313.71875 "/></g></g></g><g fill="#f6f7fc" fill-opacity="1"><g transform="translate(1101.550782, 804.786975)"><g><path d="M 160.734375 -413.453125 C 158.148438 -381.816406 159.757812 -350.34375 165.5625 -319.03125 C 171.375 -287.726562 180.894531 -259.328125 194.125 -233.828125 C 207.363281 -208.335938 223.828125 -188.328125 243.515625 -173.796875 C 263.203125 -159.273438 285.3125 -152.335938 309.84375 -152.984375 C 334.375 -153.628906 360.84375 -164.601562 389.25 -185.90625 L 413.453125 -157.828125 L 209.140625 0 C 182.035156 0 156.863281 -8.550781 133.625 -25.65625 C 110.382812 -42.757812 90.050781 -65.351562 72.625 -93.4375 C 55.195312 -121.519531 41.640625 -151.859375 31.953125 -184.453125 C 22.265625 -217.054688 17.257812 -249.007812 16.9375 -280.3125 C 16.613281 -311.625 22.265625 -339.21875 33.890625 -363.09375 C 40.992188 -376.65625 52.773438 -393.117188 69.234375 -412.484375 C 85.691406 -431.847656 104.734375 -451.050781 126.359375 -470.09375 C 147.984375 -489.132812 169.929688 -504.945312 192.203125 -517.53125 C 214.472656 -530.125 235.289062 -536.421875 254.65625 -536.421875 C 275.3125 -536.421875 296.453125 -532.0625 318.078125 -523.34375 C 339.703125 -514.632812 359.550781 -501.722656 377.625 -484.609375 C 395.695312 -467.503906 409.253906 -446.367188 418.296875 -421.203125 L 291.453125 -330.171875 C 281.765625 -347.609375 268.53125 -363.910156 251.75 -379.078125 C 234.96875 -394.242188 218.179688 -405.535156 201.390625 -412.953125 C 184.609375 -420.378906 171.054688 -420.546875 160.734375 -413.453125 Z M 160.734375 -413.453125 "/></g></g></g><g fill="#f6f7fc" fill-opacity="1"><g transform="translate(1478.205875, 804.786975)"><g><path d="M 493.8125 -157.828125 L 515.125 -130.71875 L 355.359375 0 C 345.023438 0 334.851562 -5.484375 324.84375 -16.453125 C 314.84375 -27.429688 306.289062 -41.148438 299.1875 -57.609375 C 292.09375 -74.066406 287.578125 -89.722656 285.640625 -104.578125 L 142.328125 0 C 115.867188 -0.644531 92.957031 -9.519531 73.59375 -26.625 C 54.226562 -43.726562 39.863281 -64.867188 30.5 -90.046875 C 21.132812 -115.222656 18.066406 -139.109375 21.296875 -161.703125 C 29.046875 -212.046875 55.03125 -252.707031 99.25 -283.6875 C 143.46875 -314.675781 198.175781 -339.535156 263.375 -358.265625 C 253.039062 -375.046875 238.515625 -387.46875 219.796875 -395.53125 C 201.078125 -403.601562 180.582031 -407.960938 158.3125 -408.609375 C 136.039062 -409.253906 113.769531 -406.507812 91.5 -400.375 C 69.226562 -394.238281 49.054688 -385.6875 30.984375 -374.71875 L 11.625 -404.734375 L 194.625 -536.421875 C 223.019531 -536.421875 251.097656 -534.484375 278.859375 -530.609375 C 306.617188 -526.734375 331.957031 -518.820312 354.875 -506.875 C 377.789062 -494.9375 396.1875 -477.1875 410.0625 -453.625 C 423.9375 -430.070312 431.195312 -398.925781 431.84375 -360.1875 L 432.8125 -209.140625 C 432.164062 -183.972656 436.519531 -165.09375 445.875 -152.5 C 455.238281 -139.914062 471.21875 -141.691406 493.8125 -157.828125 Z M 217.859375 -115.21875 L 278.859375 -154.921875 L 277.890625 -312.75 C 246.910156 -301.132812 222.863281 -286.445312 205.75 -268.6875 C 188.644531 -250.9375 178.15625 -232.054688 174.28125 -212.046875 C 170.414062 -192.035156 172.351562 -173.316406 180.09375 -155.890625 C 187.84375 -138.460938 200.429688 -124.90625 217.859375 -115.21875 Z M 217.859375 -115.21875 "/></g></g></g><g fill="#f6f7fc" fill-opacity="1"><g transform="translate(1916.829967, 804.786975)"><g><path d="M 556.75 -159.765625 L 579.015625 -129.75 L 419.265625 0 C 397.960938 -12.90625 379.882812 -33.398438 365.03125 -61.484375 C 350.1875 -89.566406 343.085938 -124.910156 343.734375 -167.515625 L 343.734375 -268.203125 C 343.734375 -275.953125 343.894531 -286.117188 344.21875 -298.703125 C 344.539062 -311.296875 343.085938 -323.078125 339.859375 -334.046875 C 336.628906 -345.023438 329.53125 -351.160156 318.5625 -352.453125 C 303.71875 -353.742188 290.484375 -345.023438 278.859375 -326.296875 C 267.242188 -307.578125 250.140625 -276.273438 227.546875 -232.390625 L 227.546875 -207.203125 C 226.898438 -182.679688 231.09375 -164.609375 240.125 -152.984375 C 249.164062 -141.367188 264.984375 -143.628906 287.578125 -159.765625 L 309.84375 -129.75 L 151.046875 0 C 129.097656 -12.90625 110.863281 -33.398438 96.34375 -61.484375 C 81.820312 -89.566406 74.5625 -124.910156 74.5625 -167.515625 L 74.5625 -315.65625 C 73.914062 -345.988281 67.617188 -365.191406 55.671875 -373.265625 C 43.734375 -381.335938 23.5625 -376.335938 -4.84375 -358.265625 L -23.234375 -391.171875 L 151.046875 -536.421875 C 170.410156 -522.222656 185.578125 -507.695312 196.546875 -492.84375 C 207.523438 -478 215.4375 -460.410156 220.28125 -440.078125 C 225.125 -419.742188 227.222656 -394.082031 226.578125 -363.09375 L 226.578125 -343.734375 C 247.878906 -379.878906 268.859375 -412.472656 289.515625 -441.515625 C 310.171875 -470.566406 331.3125 -493.644531 352.9375 -510.75 C 374.5625 -527.863281 396.671875 -536.421875 419.265625 -536.421875 C 438.628906 -537.066406 453.957031 -529.316406 465.25 -513.171875 C 476.550781 -497.035156 484.617188 -475.734375 489.453125 -449.265625 C 494.296875 -422.804688 496.394531 -394.082031 495.75 -363.09375 L 496.71875 -207.203125 C 496.070312 -182.679688 500.265625 -164.609375 509.296875 -152.984375 C 518.335938 -141.367188 534.15625 -143.628906 556.75 -159.765625 Z M 556.75 -159.765625 "/></g></g></g><g fill="#f6f7fc" fill-opacity="1"><g transform="translate(2430.97862, 804.786975)"><g><path d="M 493.8125 -157.828125 L 515.125 -130.71875 L 355.359375 0 C 345.023438 0 334.851562 -5.484375 324.84375 -16.453125 C 314.84375 -27.429688 306.289062 -41.148438 299.1875 -57.609375 C 292.09375 -74.066406 287.578125 -89.722656 285.640625 -104.578125 L 142.328125 0 C 115.867188 -0.644531 92.957031 -9.519531 73.59375 -26.625 C 54.226562 -43.726562 39.863281 -64.867188 30.5 -90.046875 C 21.132812 -115.222656 18.066406 -139.109375 21.296875 -161.703125 C 29.046875 -212.046875 55.03125 -252.707031 99.25 -283.6875 C 143.46875 -314.675781 198.175781 -339.535156 263.375 -358.265625 C 253.039062 -375.046875 238.515625 -387.46875 219.796875 -395.53125 C 201.078125 -403.601562 180.582031 -407.960938 158.3125 -408.609375 C 136.039062 -409.253906 113.769531 -406.507812 91.5 -400.375 C 69.226562 -394.238281 49.054688 -385.6875 30.984375 -374.71875 L 11.625 -404.734375 L 194.625 -536.421875 C 223.019531 -536.421875 251.097656 -534.484375 278.859375 -530.609375 C 306.617188 -526.734375 331.957031 -518.820312 354.875 -506.875 C 377.789062 -494.9375 396.1875 -477.1875 410.0625 -453.625 C 423.9375 -430.070312 431.195312 -398.925781 431.84375 -360.1875 L 432.8125 -209.140625 C 432.164062 -183.972656 436.519531 -165.09375 445.875 -152.5 C 455.238281 -139.914062 471.21875 -141.691406 493.8125 -157.828125 Z M 217.859375 -115.21875 L 278.859375 -154.921875 L 277.890625 -312.75 C 246.910156 -301.132812 222.863281 -286.445312 205.75 -268.6875 C 188.644531 -250.9375 178.15625 -232.054688 174.28125 -212.046875 C 170.414062 -192.035156 172.351562 -173.316406 180.09375 -155.890625 C 187.84375 -138.460938 200.429688 -124.90625 217.859375 -115.21875 Z M 217.859375 -115.21875 "/></g></g></g></svg>