<svg xmlns="http://www.w3.org/2000/svg" xmlns:xlink="http://www.w3.org/1999/xlink" width="4000" zoomAndPan="magnify" viewBox="0 0 3000 1012.49997" height="1350" preserveAspectRatio="xMidYMid meet" version="1.0"><defs><g/><clipPath id="8bc1bf1350"><rect x="0" width="2912" y="0" height="1012"/></clipPath></defs><g transform="matrix(1, 0, 0, 1, 56, 0)"><g clip-path="url(#8bc1bf1350)"><g fill="#000000" fill-opacity="1"><g transform="translate(21.303464, 794.312479)"><g><path d="M 705.8125 -152.96875 L 721.296875 -121.03125 L 562.515625 0 C 542.503906 0 524.753906 -10.328125 509.265625 -30.984375 C 493.773438 -51.640625 479.410156 -78.75 466.171875 -112.3125 C 452.941406 -145.875 440.195312 -181.695312 427.9375 -219.78125 L 390.171875 -177.171875 L 262.375 -177.171875 C 258.5 -156.523438 253.65625 -137.488281 247.84375 -120.0625 C 242.039062 -102.632812 234.625 -87.460938 225.59375 -74.546875 C 200.414062 -40.984375 169.753906 -10.164062 133.609375 17.90625 C 97.460938 45.988281 53.894531 77.132812 2.90625 111.34375 L -17.421875 83.265625 C 21.296875 54.859375 50.660156 24.359375 70.671875 -8.234375 C 90.679688 -40.828125 105.039062 -73.90625 113.75 -107.46875 C 122.46875 -141.03125 127.957031 -173.785156 130.21875 -205.734375 C 132.476562 -237.691406 134.898438 -267.867188 137.484375 -296.265625 C 140.066406 -324.660156 145.550781 -349.832031 153.9375 -371.78125 C 168.78125 -410.507812 189.273438 -441.648438 215.421875 -465.203125 C 241.566406 -488.765625 269.484375 -510.550781 299.171875 -530.5625 C 296.585938 -533.789062 293.84375 -536.535156 290.9375 -538.796875 C 288.03125 -541.054688 284.96875 -543.476562 281.75 -546.0625 C 262.382812 -562.195312 241.890625 -570.265625 220.265625 -570.265625 C 198.640625 -570.265625 177.5 -565.742188 156.84375 -556.703125 C 136.1875 -547.671875 118.113281 -537.664062 102.625 -526.6875 L 85.203125 -555.734375 C 109.722656 -580.910156 136.34375 -605.273438 165.0625 -628.828125 C 193.789062 -652.390625 223.160156 -671.753906 253.171875 -686.921875 C 283.191406 -702.097656 311.753906 -709.6875 338.859375 -709.6875 C 364.035156 -709.6875 386.953125 -698.875 407.609375 -677.25 C 428.265625 -655.625 447.304688 -627.222656 464.734375 -592.046875 C 482.160156 -556.867188 498.457031 -518.460938 513.625 -476.828125 C 528.789062 -435.203125 543.3125 -393.734375 557.1875 -352.421875 C 571.070312 -311.109375 585.273438 -273.832031 599.796875 -240.59375 C 614.316406 -207.351562 629.320312 -181.695312 644.8125 -163.625 C 653.851562 -153.9375 663.695312 -147.800781 674.34375 -145.21875 C 684.988281 -142.644531 695.476562 -145.226562 705.8125 -152.96875 Z M 278.84375 -290.453125 L 405.671875 -290.453125 C 393.410156 -328.535156 380.984375 -365.328125 368.390625 -400.828125 C 355.804688 -436.328125 341.445312 -466.988281 325.3125 -492.8125 C 312.40625 -464.40625 302.5625 -432.613281 295.78125 -397.4375 C 289 -362.257812 283.351562 -326.597656 278.84375 -290.453125 Z M 278.84375 -290.453125 "/></g></g></g><g fill="#000000" fill-opacity="1"><g transform="translate(671.876984, 794.312479)"><g><path d="M 335.96875 -313.6875 C 326.925781 -329.175781 316.914062 -344.664062 305.9375 -360.15625 C 294.96875 -375.65625 283.351562 -386.789062 271.09375 -393.5625 C 258.832031 -400.34375 245.921875 -397.28125 232.359375 -384.375 L 226.5625 -378.5625 L 226.5625 -364.03125 L 227.53125 -207.1875 C 226.882812 -182.664062 231.078125 -164.429688 240.109375 -152.484375 C 249.148438 -140.546875 264.960938 -142.644531 287.546875 -158.78125 L 309.8125 -128.765625 L 150.0625 0 C 128.125 -13.550781 109.890625 -34.363281 95.359375 -62.4375 C 80.835938 -90.519531 73.898438 -125.539062 74.546875 -167.5 L 74.546875 -318.53125 C 73.898438 -348.226562 67.285156 -367.269531 54.703125 -375.65625 C 42.117188 -384.050781 21.625 -378.890625 -6.78125 -360.171875 L -23.234375 -391.140625 L 150.0625 -536.375 C 168.78125 -522.175781 183.945312 -507.972656 195.5625 -493.765625 C 207.1875 -479.566406 215.257812 -462.144531 219.78125 -441.5 L 318.53125 -536.375 C 337.25 -536.375 355.160156 -530.398438 372.265625 -518.453125 C 389.367188 -506.515625 404.535156 -492.800781 417.765625 -477.3125 C 431.003906 -461.820312 441.65625 -448.101562 449.71875 -436.15625 C 457.789062 -424.21875 461.828125 -418.25 461.828125 -418.25 Z M 335.96875 -313.6875 "/></g></g></g><g fill="#000000" fill-opacity="1"><g transform="translate(1045.566266, 794.312479)"><g><path d="M 160.71875 -413.421875 C 158.132812 -381.785156 159.75 -350.316406 165.5625 -319.015625 C 171.375 -287.710938 180.894531 -259.3125 194.125 -233.8125 C 207.351562 -208.320312 223.8125 -188.3125 243.5 -173.78125 C 263.1875 -159.257812 285.289062 -152.320312 309.8125 -152.96875 C 334.34375 -153.613281 360.8125 -164.585938 389.21875 -185.890625 L 413.421875 -157.8125 L 209.125 0 C 182.019531 0 156.847656 -8.550781 133.609375 -25.65625 C 110.367188 -42.757812 90.035156 -65.347656 72.609375 -93.421875 C 55.179688 -121.503906 41.625 -151.84375 31.9375 -184.4375 C 22.257812 -217.03125 17.257812 -248.976562 16.9375 -280.28125 C 16.613281 -311.59375 22.265625 -339.191406 33.890625 -363.078125 C 40.984375 -376.628906 52.757812 -393.085938 69.21875 -412.453125 C 85.6875 -431.816406 104.726562 -451.015625 126.34375 -470.046875 C 147.96875 -489.085938 169.914062 -504.898438 192.1875 -517.484375 C 214.457031 -530.078125 235.273438 -536.375 254.640625 -536.375 C 275.285156 -536.375 296.421875 -532.015625 318.046875 -523.296875 C 339.671875 -514.585938 359.519531 -501.679688 377.59375 -484.578125 C 395.664062 -467.472656 409.21875 -446.332031 418.25 -421.15625 L 291.421875 -330.15625 C 281.742188 -347.582031 268.515625 -363.878906 251.734375 -379.046875 C 234.953125 -394.210938 218.164062 -405.503906 201.375 -412.921875 C 184.59375 -420.347656 171.039062 -420.515625 160.71875 -413.421875 Z M 160.71875 -413.421875 "/></g></g></g><g fill="#000000" fill-opacity="1"><g transform="translate(1422.159908, 794.312479)"><g><path d="M 493.78125 -157.8125 L 515.078125 -130.703125 L 355.328125 0 C 344.992188 0 334.820312 -5.484375 324.8125 -16.453125 C 314.8125 -27.429688 306.257812 -41.148438 299.15625 -57.609375 C 292.0625 -74.066406 287.546875 -89.71875 285.609375 -104.5625 L 142.328125 0 C 115.859375 -0.644531 92.941406 -9.519531 73.578125 -26.625 C 54.210938 -43.726562 39.847656 -64.863281 30.484375 -90.03125 C 21.128906 -115.207031 18.066406 -139.09375 21.296875 -161.6875 C 29.046875 -212.03125 55.023438 -252.691406 99.234375 -283.671875 C 143.453125 -314.660156 198.15625 -339.515625 263.34375 -358.234375 C 253.019531 -375.015625 238.5 -387.4375 219.78125 -395.5 C 201.0625 -403.570312 180.566406 -407.929688 158.296875 -408.578125 C 136.023438 -409.222656 113.753906 -406.476562 91.484375 -400.34375 C 69.222656 -394.207031 49.054688 -385.65625 30.984375 -374.6875 L 11.625 -404.703125 L 194.609375 -536.375 C 223.003906 -536.375 251.078125 -534.4375 278.828125 -530.5625 C 306.585938 -526.6875 331.925781 -518.78125 354.84375 -506.84375 C 377.757812 -494.90625 396.15625 -477.15625 410.03125 -453.59375 C 423.90625 -430.03125 431.164062 -398.890625 431.8125 -360.171875 L 432.78125 -209.125 C 432.132812 -183.957031 436.488281 -165.078125 445.84375 -152.484375 C 455.207031 -139.898438 471.1875 -141.675781 493.78125 -157.8125 Z M 217.84375 -115.21875 L 278.84375 -154.90625 L 277.875 -312.71875 C 246.882812 -301.101562 222.835938 -286.421875 205.734375 -268.671875 C 188.628906 -250.921875 178.140625 -232.039062 174.265625 -212.03125 C 170.398438 -192.019531 172.335938 -173.300781 180.078125 -155.875 C 187.828125 -138.445312 200.414062 -124.894531 217.84375 -115.21875 Z M 217.84375 -115.21875 "/></g></g></g><g fill="#000000" fill-opacity="1"><g transform="translate(1860.713674, 794.312479)"><g><path d="M 556.703125 -159.75 L 578.96875 -129.734375 L 419.21875 0 C 397.925781 -12.90625 379.851562 -33.394531 365 -61.46875 C 350.15625 -89.550781 343.054688 -124.894531 343.703125 -167.5 L 343.703125 -268.1875 C 343.703125 -275.9375 343.863281 -286.101562 344.1875 -298.6875 C 344.507812 -311.269531 343.054688 -323.046875 339.828125 -334.015625 C 336.609375 -344.992188 329.507812 -351.128906 318.53125 -352.421875 C 303.6875 -353.710938 290.453125 -345 278.828125 -326.28125 C 267.210938 -307.5625 250.113281 -276.253906 227.53125 -232.359375 L 227.53125 -207.1875 C 226.882812 -182.664062 231.078125 -164.59375 240.109375 -152.96875 C 249.148438 -141.351562 264.960938 -143.613281 287.546875 -159.75 L 309.8125 -129.734375 L 151.03125 0 C 129.09375 -12.90625 110.859375 -33.394531 96.328125 -61.46875 C 81.804688 -89.550781 74.546875 -124.894531 74.546875 -167.5 L 74.546875 -315.625 C 73.898438 -345.96875 67.609375 -365.171875 55.671875 -373.234375 C 43.734375 -381.304688 23.5625 -376.304688 -4.84375 -358.234375 L -23.234375 -391.140625 L 151.03125 -536.375 C 170.394531 -522.175781 185.5625 -507.65625 196.53125 -492.8125 C 207.507812 -477.96875 215.421875 -460.378906 220.265625 -440.046875 C 225.109375 -419.710938 227.207031 -394.054688 226.5625 -363.078125 L 226.5625 -343.703125 C 247.851562 -379.847656 268.828125 -412.441406 289.484375 -441.484375 C 310.140625 -470.535156 331.28125 -493.613281 352.90625 -510.71875 C 374.53125 -527.820312 396.632812 -536.375 419.21875 -536.375 C 438.582031 -537.019531 453.910156 -529.273438 465.203125 -513.140625 C 476.503906 -497.003906 484.578125 -475.703125 489.421875 -449.234375 C 494.265625 -422.773438 496.363281 -394.054688 495.71875 -363.078125 L 496.6875 -207.1875 C 496.039062 -182.664062 500.234375 -164.59375 509.265625 -152.96875 C 518.304688 -141.351562 534.117188 -143.613281 556.703125 -159.75 Z M 556.703125 -159.75 "/></g></g></g><g fill="#000000" fill-opacity="1"><g transform="translate(2374.781246, 794.312479)"><g><path d="M 493.78125 -157.8125 L 515.078125 -130.703125 L 355.328125 0 C 344.992188 0 334.820312 -5.484375 324.8125 -16.453125 C 314.8125 -27.429688 306.257812 -41.148438 299.15625 -57.609375 C 292.0625 -74.066406 287.546875 -89.71875 285.609375 -104.5625 L 142.328125 0 C 115.859375 -0.644531 92.941406 -9.519531 73.578125 -26.625 C 54.210938 -43.726562 39.847656 -64.863281 30.484375 -90.03125 C 21.128906 -115.207031 18.066406 -139.09375 21.296875 -161.6875 C 29.046875 -212.03125 55.023438 -252.691406 99.234375 -283.671875 C 143.453125 -314.660156 198.15625 -339.515625 263.34375 -358.234375 C 253.019531 -375.015625 238.5 -387.4375 219.78125 -395.5 C 201.0625 -403.570312 180.566406 -407.929688 158.296875 -408.578125 C 136.023438 -409.222656 113.753906 -406.476562 91.484375 -400.34375 C 69.222656 -394.207031 49.054688 -385.65625 30.984375 -374.6875 L 11.625 -404.703125 L 194.609375 -536.375 C 223.003906 -536.375 251.078125 -534.4375 278.828125 -530.5625 C 306.585938 -526.6875 331.925781 -518.78125 354.84375 -506.84375 C 377.757812 -494.90625 396.15625 -477.15625 410.03125 -453.59375 C 423.90625 -430.03125 431.164062 -398.890625 431.8125 -360.171875 L 432.78125 -209.125 C 432.132812 -183.957031 436.488281 -165.078125 445.84375 -152.484375 C 455.207031 -139.898438 471.1875 -141.675781 493.78125 -157.8125 Z M 217.84375 -115.21875 L 278.84375 -154.90625 L 277.875 -312.71875 C 246.882812 -301.101562 222.835938 -286.421875 205.734375 -268.671875 C 188.628906 -250.921875 178.140625 -232.039062 174.265625 -212.03125 C 170.398438 -192.019531 172.335938 -173.300781 180.078125 -155.875 C 187.828125 -138.445312 200.414062 -124.894531 217.84375 -115.21875 Z M 217.84375 -115.21875 "/></g></g></g></g></g></svg>