<svg width="49" height="55" viewBox="0 0 49 55" fill="none" xmlns="http://www.w3.org/2000/svg">
<path fill-rule="evenodd" clip-rule="evenodd" d="M10.7076 0.652592C10.4509 0.71869 10.1856 0.821088 10.118 0.880264C10.0505 0.939441 9.96707 0.9879 9.93254 0.9879C9.8003 0.9879 9.50348 1.3924 9.41217 1.69699C9.3378 1.94528 9.33656 2.23215 9.40649 2.99857L9.49633 3.98172L9.1561 4.29276C8.73039 4.68196 8.64631 4.84978 8.64631 5.31067C8.64631 5.58532 8.69679 5.74395 8.8466 5.94038L9.04697 6.2029L8.79752 6.48697C8.4226 6.91388 8.26105 7.33339 8.25911 7.88557C8.25669 8.56319 8.35167 8.72129 8.93084 9.00333L9.42414 9.24361L9.42391 10.073C9.42368 10.8914 9.20938 12.4702 9.03678 12.9243C8.83206 13.4633 8.19742 13.9595 6.7729 14.6946C4.5847 15.8239 3.87539 16.3635 2.52709 17.9249C2.23509 18.2632 1.71208 19.3475 1.44147 20.176C0.83577 22.0303 0.718241 23.1332 0.714429 26.9991C0.708984 32.4803 1.0055 37.2774 1.45648 39.0025C1.76404 40.1792 1.93866 40.426 2.6181 40.6444C2.78922 40.6995 3.05174 40.7909 3.20147 40.8475C3.93132 41.124 4.70223 41.3064 5.29952 41.3438L5.95858 41.385L6.32105 42.4737C6.52041 43.0725 6.79701 43.8073 6.93578 44.1067C7.07446 44.4061 7.44471 45.4209 7.75849 46.3618C9.55116 51.7374 9.83383 52.4645 10.2329 52.7259C10.7644 53.074 12.4579 52.7232 14.1552 51.9134C15.4957 51.2738 16.6256 50.8221 17.0045 50.7745C17.1776 50.7527 17.3717 50.6923 17.4358 50.6404C17.5 50.5884 17.92 50.386 18.3692 50.1906C20.1581 49.4123 20.5191 49.2421 21.1388 48.8843C21.4932 48.6797 22.0123 48.403 22.2925 48.2693C22.6901 48.0795 22.8127 47.9801 22.8514 47.8161C22.9224 47.5155 23.1718 47.2654 23.3532 47.3128C23.436 47.3344 23.5544 47.3102 23.6163 47.2588C23.6782 47.2074 23.7987 47.1876 23.8842 47.2147C23.9697 47.2419 24.1457 47.2092 24.2753 47.1422C24.4358 47.0592 24.6086 47.0361 24.8174 47.0694C25.0744 47.1105 25.1402 47.0923 25.2249 46.9567C25.2937 46.8465 25.3781 46.8081 25.4897 46.8361C25.5842 46.8599 25.6942 46.8281 25.7498 46.7612C25.8149 46.6829 25.9288 46.6588 26.1014 46.6867C26.2563 46.7119 26.4488 46.6806 26.5906 46.6073C26.7638 46.5177 26.8472 46.5091 26.912 46.5739C26.9768 46.6387 27.0352 46.6307 27.1374 46.5428C27.3804 46.334 27.5177 46.3297 27.7274 46.5241C27.9548 46.7349 28.0922 46.7647 28.0922 46.6034C28.0922 46.4536 28.3224 46.379 28.4522 46.4867C28.5143 46.5382 28.6619 46.555 28.8036 46.5267C28.9435 46.4987 29.0927 46.5151 29.1529 46.5651C29.2108 46.613 29.3457 46.6355 29.4529 46.615C29.5601 46.5945 29.6478 46.6004 29.6478 46.628C29.6478 46.7718 30.1196 46.9296 30.5668 46.9353C30.9352 46.94 31.1078 46.9809 31.2579 47.0988C31.3678 47.1853 31.4904 47.256 31.5303 47.256C31.5702 47.256 31.7202 47.3456 31.8637 47.455C32.0073 47.5645 32.248 47.688 32.3986 47.7296C32.5492 47.7712 32.6926 47.8686 32.7172 47.946C32.7829 48.1533 33.0887 48.4153 33.2935 48.4399C33.4884 48.4633 34.2333 49.134 34.2432 49.2949C34.2465 49.3497 34.2443 49.6086 34.2382 49.8702L34.2271 50.346L34.6404 50.6964C35.132 51.1131 35.8463 51.5734 36.9595 52.1909C37.4087 52.4401 37.8287 52.6878 37.8929 52.7415C38.2677 53.0549 40.1211 54.0213 40.3473 54.0213C40.5191 54.0213 40.7565 53.6466 41.3289 52.4716C41.6321 51.8496 42.1206 50.9115 42.4146 50.387C42.7087 49.8625 43.1092 49.0746 43.3048 48.6363C43.5004 48.1979 43.9349 47.2794 44.2705 46.5951C44.606 45.9108 45.0208 44.9485 45.1922 44.4566C45.8205 42.6538 46.1588 41.8211 46.8352 40.413C47.5416 38.9427 47.734 38.4946 48.0057 37.6884C48.1894 37.1432 48.1958 36.9938 48.0504 36.6458C47.959 36.4274 47.7428 36.2651 46.7742 35.6881C45.7418 35.0731 45.4511 34.9417 44.2401 34.5435C42.8933 34.1007 42.5988 34.0549 42.1709 34.2224C42.0517 34.2692 42.0078 34.207 41.2028 32.8515L40.8453 32.2495L39.9136 32.2996C39.1792 32.3391 38.9818 32.3285 38.9818 32.2495C38.9818 32.1944 38.7667 31.7883 38.5038 31.347C38.1532 30.7586 37.9688 30.5248 37.8126 30.4703C37.6114 30.4002 36.0773 30.4755 35.6566 30.5762C35.5604 30.5992 35.4816 30.5862 35.4816 30.5474C35.4816 30.4184 34.3105 29.0999 34.1356 29.0321C34.0094 28.9831 33.7644 29.04 33.2146 29.2459C32.8026 29.4002 32.4402 29.5264 32.4095 29.5264C32.3788 29.5264 32.0975 29.2781 31.7845 28.9746C31.1275 28.3377 31.073 28.3311 30.3068 28.7923C30.0623 28.9395 29.8268 29.0598 29.7833 29.0598C29.7398 29.0598 29.3884 28.8324 29.0023 28.5544C28.6163 28.2764 28.2253 28.0489 28.1336 28.0489C28.0419 28.0489 27.7277 28.2461 27.4354 28.4872L26.9039 28.9255L26.3118 28.6736C25.3445 28.2619 24.9024 28.1192 24.7935 28.1831C24.737 28.2162 24.5549 28.4008 24.3886 28.5933C24.0334 29.0042 23.8582 29.0474 23.43 28.829L23.114 28.6678V26.9594C23.114 24.7134 22.8359 21.6595 22.5191 20.4283C22.1303 18.9168 21.8243 18.2949 21.1125 17.5702C20.4813 16.9275 20.2134 16.7282 19.4971 16.3686C19.1976 16.2183 18.7601 15.9916 18.5248 15.8649C18.2895 15.7382 17.9745 15.5866 17.8247 15.528C17.675 15.4694 17.535 15.3992 17.5136 15.372C17.4922 15.3448 17.2815 15.2289 17.0453 15.1145C16.4196 14.8114 15.7101 14.205 15.3498 13.6656C14.847 12.913 14.7734 12.5507 14.6744 10.346L14.6321 9.40085L15.1467 9.15024C15.7933 8.8353 15.9855 8.56443 15.9149 8.06753C15.8433 7.56255 15.6092 7.11947 15.1745 6.6662C14.9637 6.44637 14.7912 6.25112 14.7912 6.23222C14.7912 6.2134 14.8544 6.19792 14.9316 6.19792C15.0088 6.19792 15.206 6.07514 15.37 5.92498C15.6672 5.65289 15.6679 5.65072 15.6283 5.15748C15.5698 4.42901 15.4135 4.25248 14.4606 3.83871L14.1689 3.71205V2.44507C14.1689 1.00313 14.1454 0.931825 13.5853 0.676767C13.2962 0.545039 13.086 0.522192 12.2092 0.526935C11.5469 0.530512 11.0062 0.575764 10.7076 0.652592ZM13.3836 1.1106C13.9475 1.33618 13.8671 1.65719 13.1775 1.93325C12.3868 2.24973 10.9986 2.15472 10.0854 1.72151L9.80715 1.58947L10.0629 1.42055C10.2035 1.32763 10.4762 1.20554 10.6687 1.14916C10.8612 1.09286 11.0537 1.03626 11.0965 1.02351C11.1393 1.01068 11.6023 0.997397 12.1256 0.994053C12.8223 0.989543 13.1588 1.0207 13.3836 1.1106ZM10.0892 2.1429C10.2493 2.28652 11.5707 2.54368 12.1414 2.5422C12.5237 2.54119 13.1714 2.39125 13.4597 2.23697C13.5576 2.18456 13.6544 2.15836 13.6748 2.17873C13.7155 2.2194 13.5681 4.34213 13.505 4.62355C13.4793 4.73817 13.3384 4.85895 13.0979 4.97232C12.7833 5.12061 12.6001 5.14566 11.8354 5.14489C11.1032 5.14419 10.8844 5.11618 10.6298 4.99052C10.3469 4.85101 10.3132 4.80187 10.2584 4.44829C10.194 4.03297 10.0016 3.0254 9.88439 2.48924C9.84518 2.30992 9.81306 2.14373 9.81306 2.11986C9.81306 2.05267 10.0067 2.06879 10.0892 2.1429ZM14.6021 4.49083C15.2188 4.9151 15.3498 5.4273 14.9273 5.76269C14.7882 5.87311 14.5931 6.0375 14.4936 6.12817C14.3123 6.29326 13.6612 6.50632 13.3328 6.50803C13.1006 6.50928 13.1046 6.72599 13.338 6.78447C13.4371 6.80935 13.743 6.77778 14.0179 6.71424C14.3817 6.63026 14.5455 6.62197 14.6198 6.68363C14.8086 6.84032 15.3421 7.80984 15.385 8.07447C15.4738 8.62175 14.9437 8.96492 13.6439 9.20155C13.0948 9.30147 12.8466 9.37962 12.8466 9.45241C12.8466 9.53569 12.9745 9.55006 13.4494 9.52012C13.7809 9.49928 14.131 9.45644 14.2273 9.4251L14.4023 9.36803V10.6796C14.4023 12.3805 14.5585 13.1588 15.0482 13.8963C15.5799 14.6974 16.0512 15.0674 17.4747 15.8019C18.9258 16.5505 19.8582 17.1115 20.215 17.4504C20.5539 17.7725 21.2096 18.674 21.4192 19.1064C22.0728 20.4547 22.4917 23.3987 22.4917 26.6443V28.294L21.9279 28.8749C21.2929 29.529 21.2544 29.5368 20.6249 29.1382C20.1192 28.8179 19.3758 28.5065 19.2287 28.5531C19.1037 28.5928 18.8184 29.0277 18.4032 29.8113C18.1687 30.2538 18.2127 30.2497 17.5305 29.8921C17.3045 29.7736 16.9894 29.6691 16.8304 29.6598C16.5476 29.6434 16.5354 29.6545 16.2692 30.1665C16.091 30.5092 15.9299 30.7159 15.8025 30.7651C15.4325 30.908 14.9844 31.003 14.6745 31.0042C14.5034 31.0049 14.2059 31.055 14.0134 31.1153C13.5621 31.2569 11.9453 32.0537 11.6365 32.2869C11.1537 32.6514 10.143 33.121 9.45393 33.3011C8.78648 33.4754 8.12477 33.7061 7.81224 33.8733C7.22708 34.1863 5.42904 35.0447 5.20082 35.12C4.84885 35.2361 4.54658 35.5855 4.47689 35.9569C4.38036 36.4717 4.79619 38.1088 5.52728 40.092C5.70657 40.5782 5.83592 40.9934 5.81468 41.0147C5.79353 41.0359 5.43308 40.9996 5.01383 40.9341C3.39508 40.6811 2.2081 40.0639 2.06732 39.4021C2.04453 39.2952 1.99474 39.0678 1.95663 38.8967C1.76575 38.0404 1.63531 36.7223 1.40234 33.2978C1.2698 31.3494 1.26848 24.0342 1.40048 22.9555C1.64596 20.9488 2.10629 19.3623 2.70903 18.4454C2.99395 18.0118 3.7374 17.2151 4.32933 16.7088C4.88175 16.2364 5.79438 15.6806 7.19526 14.9634C8.1632 14.4678 9.05249 13.7767 9.26648 13.3537C9.49998 12.8921 9.75457 10.9545 9.69063 10.1249C9.6382 9.44361 9.70611 9.3181 10.0616 9.4398C10.7173 9.66422 12.1466 9.64884 12.1466 9.41742C12.1466 9.33088 11.9744 9.30785 11.3104 9.30567C10.7325 9.30372 10.4142 9.26858 10.2798 9.19175C10.1728 9.13063 9.99593 9.07938 9.8868 9.07783C9.75192 9.07596 9.54339 8.93257 9.23676 8.63086C8.79309 8.19438 8.78585 8.1803 8.82054 7.81933C8.8662 7.34491 9.46 6.3207 9.64769 6.3927C9.71544 6.41868 10.0312 6.50974 10.3496 6.59504C11.032 6.77786 11.472 6.7673 11.5099 6.5673C11.5308 6.45711 11.479 6.43091 11.2383 6.42958C10.8423 6.42741 9.67188 6.07948 9.48124 5.90724C9.39778 5.83189 9.26165 5.67488 9.17858 5.55839C9.00769 5.31873 9.05428 5.15942 9.40532 4.78297L9.60087 4.57325L9.7653 4.81602C10.138 5.36626 11.3627 5.68554 12.4193 5.50809C12.9296 5.42232 13.5523 5.17155 13.8391 4.93617C13.8929 4.89192 13.9586 4.72038 13.9851 4.55483C14.0439 4.18686 14.1449 4.17636 14.6021 4.49083ZM28.6867 28.9809C28.9604 29.2369 29.2886 29.5002 29.416 29.5662C29.5435 29.632 29.6477 29.7112 29.6475 29.7423C29.6474 29.7732 29.5963 30.1135 29.5342 30.4984C29.351 31.6324 28.965 34.7518 28.8365 36.1361C28.6105 38.5711 28.4293 42.8236 28.5516 42.8236C28.6505 42.8236 28.6909 42.394 28.8329 39.8298C28.9686 37.3802 29.1398 35.5984 29.5389 32.4814C29.6895 31.3052 29.8331 30.1755 29.8581 29.9709C29.9059 29.5791 30.005 29.4693 30.5731 29.179L30.8372 29.0441L30.781 29.7324C30.6537 31.2904 30.5214 33.4556 30.5515 33.487C30.5692 33.5056 30.6147 33.4881 30.6525 33.4482C30.7149 33.3821 30.7752 32.8574 31.0562 29.9336L31.148 28.9801L31.4266 29.3115C31.58 29.4939 31.8238 29.7641 31.9686 29.9121L32.2319 30.1812L31.9515 31.4673C31.4397 33.8144 30.9939 36.7353 31.127 36.8684C31.2227 36.9641 31.2448 36.8781 31.3955 35.8251C31.5711 34.5982 31.8787 32.9235 32.1167 31.8981C32.226 31.4277 32.3736 30.7822 32.4448 30.4637L32.5741 29.8847L33.0902 29.6733C33.8971 29.3427 33.9488 29.3315 33.8963 29.4993C33.8244 29.7293 33.1683 33.4162 33.127 33.8227C33.1004 34.0839 33.1175 34.1921 33.1853 34.1921C33.2485 34.1921 33.4062 33.55 33.6485 32.3064C33.8505 31.2692 34.0514 30.2525 34.0949 30.0469L34.174 29.6731L34.659 30.3734L35.1441 31.0737L34.0777 34.2853C33.4913 36.0517 32.9523 37.6328 32.88 37.7988C32.7438 38.1115 32.801 38.296 33.0094 38.216C33.0673 38.1939 33.3113 37.568 33.5518 36.8254C33.7924 36.0828 34.2942 34.5304 34.6669 33.3756C35.0398 32.2208 35.3843 31.2345 35.4326 31.1838C35.516 31.0962 37.096 30.8812 37.1632 30.9483C37.2405 31.0256 36.2596 33.6262 35.0304 36.6027C34.8626 37.009 34.5749 37.7614 34.3909 38.2746C34.207 38.7878 33.7875 39.8551 33.4585 40.6463C32.7333 42.3909 32.5571 42.8809 32.629 42.9528C32.7177 43.0414 32.8002 42.905 33.1308 42.1238C33.3027 41.7175 33.5306 41.1926 33.6373 40.9574C33.9184 40.3371 34.2483 39.5164 34.7313 38.2357C34.9652 37.6156 35.356 36.6358 35.5999 36.0584C36.4147 34.1293 36.9429 32.7618 37.2441 31.8013C37.4084 31.2776 37.5627 30.849 37.5869 30.8487C37.6111 30.8485 37.8339 31.2662 38.0819 31.777L38.5329 32.7055L38.043 33.6238C37.3358 34.9492 36.5705 36.4973 36.5705 36.6027C36.5705 36.7666 36.7432 36.6401 36.8937 36.3661C36.9749 36.2183 37.4233 35.3974 37.8901 34.542C38.3568 33.6866 38.7936 32.9312 38.8606 32.8632C38.9434 32.7795 39.1297 32.7384 39.4396 32.7354C39.6909 32.7331 40.0064 32.707 40.1406 32.6775L40.3848 32.6239L40.2363 33.0005C40.1546 33.2076 39.327 34.8989 38.397 36.7589C36.7926 39.9679 36.3993 40.7697 35.1738 43.3291C34.5079 44.7198 34.115 45.6825 34.1848 45.7523C34.2149 45.7825 34.2714 45.7745 34.3102 45.7345C34.378 45.6649 36.1595 42.1165 36.6111 41.1518C36.7312 40.8952 37.5791 39.163 38.4953 37.3026C39.4115 35.4421 40.2319 33.745 40.3183 33.5311C40.4048 33.3173 40.5102 33.0548 40.5525 32.9479C40.6287 32.7555 40.6306 32.7566 40.752 33.0646C40.8195 33.2356 41.072 33.6921 41.3132 34.079L41.7518 34.7822L41.5073 35.4009C41.2417 36.0732 41.0628 36.3924 40.2885 37.5747C38.7068 39.9902 36.8233 43.4815 36.0304 45.4675C35.7999 46.0449 35.3546 47.0294 35.0409 47.6552C34.7271 48.2811 34.4704 48.8282 34.4704 48.871C34.4704 48.9139 34.3426 48.8319 34.1863 48.6888L33.9023 48.4287L34.1474 47.8805C34.2823 47.5791 34.3926 47.2773 34.3926 47.21C34.3926 46.9743 34.1961 47.1556 33.9566 47.6121C33.6448 48.2065 33.4237 48.2516 33.0571 47.7956C32.9217 47.6271 32.7644 47.4893 32.7076 47.4893C32.5993 47.4893 32.6473 47.3421 33.1002 46.284C33.3138 45.785 33.3534 45.5453 33.2223 45.5453C33.1394 45.5453 32.6284 46.5931 32.4549 47.1186C32.361 47.4029 32.3561 47.4059 32.1703 47.2842C32.0663 47.2161 31.9813 47.1264 31.9813 47.0849C31.9813 46.9456 33.0718 44.298 33.6184 43.1103C33.9159 42.4639 34.1593 41.9075 34.1593 41.8739C34.1593 41.8403 34.1042 41.8127 34.037 41.8127C33.8466 41.8127 32.8776 43.909 31.9791 46.2646C31.8364 46.6388 31.6789 46.945 31.6292 46.945C31.5794 46.945 31.4753 46.875 31.3979 46.7895C31.3206 46.7039 31.1798 46.634 31.0852 46.634H30.9133L31.049 46.1479C31.1237 45.8807 31.3143 45.252 31.4727 44.751C31.7338 43.925 31.7715 43.6072 31.5956 43.716C31.5272 43.7582 30.9905 45.3414 30.7697 46.1521C30.6801 46.4809 30.6104 46.6165 30.5579 46.564C30.5076 46.5137 30.4304 46.512 30.3416 46.5595C30.167 46.6529 29.9784 46.5823 29.8721 46.3837C29.8105 46.2686 29.7312 46.2381 29.5597 46.2633C29.4333 46.2818 29.3151 46.2732 29.2972 46.2441C29.2528 46.1724 29.5222 44.4419 29.7994 43.018C30.2227 40.8441 30.5461 38.5582 30.4446 38.4568C30.3249 38.3372 30.3304 38.3153 30.0785 39.9076C29.9635 40.6346 29.7475 41.8419 29.5985 42.5903C29.4496 43.3388 29.258 44.4061 29.1729 44.9621C29.0877 45.5181 28.9847 45.9846 28.944 45.9989C28.9033 46.0132 28.87 46.0744 28.87 46.135C28.87 46.2637 28.5922 46.2842 28.5161 46.1611C28.4867 46.1135 28.3783 46.0986 28.2662 46.1266L28.0684 46.1763L28.1118 44.1501C28.1503 42.3576 28.1216 41.8875 27.9869 42.1054C27.9658 42.1393 27.9234 43.0825 27.8924 44.2013L27.8361 46.2353L27.6568 46.1042C27.4839 45.9777 27.4766 45.9267 27.4542 44.6963C27.4361 43.7038 27.4074 43.4118 27.3251 43.3844C27.237 43.3551 27.2288 43.5681 27.2764 44.647C27.3335 45.94 27.333 45.9452 27.1563 46.0689C27.0588 46.1373 26.8881 46.199 26.7771 46.206C26.6662 46.2131 26.5209 46.2434 26.4542 46.2734C26.3484 46.3211 26.3203 46.128 26.2326 44.7508C26.1774 43.8833 26.1175 43.1584 26.0997 43.1399C26.0818 43.1213 26.0304 43.143 25.9853 43.188C25.9281 43.2453 25.9285 43.581 25.9866 44.3065C26.0324 44.8766 26.0698 45.5594 26.0698 45.8239C26.0698 46.2866 26.0617 46.3063 25.8561 46.3456C25.6091 46.3928 25.5596 46.3351 25.4937 45.9234C25.4629 45.7308 25.4041 45.6231 25.3299 45.6231C25.2083 45.6231 25.1942 45.7939 25.2818 46.2026C25.32 46.3803 25.2907 46.4726 25.1524 46.6108C25.0542 46.7091 24.931 46.7895 24.8788 46.7895C24.8267 46.7895 24.6851 46.4658 24.5643 46.0702C24.4436 45.6745 24.2229 45.001 24.074 44.5733C23.9251 44.1456 23.7373 43.5202 23.6566 43.1835C23.4953 42.5104 23.4535 42.426 23.3782 42.622C23.3061 42.8101 23.4805 43.5826 23.8187 44.5733C23.9793 45.0437 24.1968 45.7156 24.302 46.0662L24.4933 46.7039L24.2252 46.8311C24.0777 46.9011 23.9392 46.9406 23.9175 46.9188C23.8526 46.854 23.2732 45.1003 23.0269 44.2233C22.9007 43.7743 22.6622 42.9869 22.4969 42.4737C22.3315 41.9605 22.1161 41.2518 22.0184 40.899C21.9205 40.5462 21.812 40.2575 21.7772 40.2575C21.5894 40.2575 21.8662 41.5561 22.3741 43.0569C22.5261 43.506 22.7419 44.2233 22.8537 44.651C22.9655 45.0787 23.1093 45.5317 23.1731 45.6576C23.3568 46.0198 23.5855 46.8935 23.5151 46.9639C23.3401 47.1389 23.1825 46.8887 22.8056 45.8369C22.7634 45.7193 22.6915 45.6231 22.6457 45.6231C22.5394 45.6231 22.6169 46.0674 22.8185 46.6135C22.9599 46.9965 22.9561 47.1783 22.8067 47.1783C22.7711 47.1783 22.7184 47.0846 22.6897 46.9701C22.6609 46.8557 22.484 46.427 22.2964 46.0175C22.1087 45.6081 21.7572 44.6957 21.5153 43.9901C21.2589 43.2421 20.8442 42.2529 20.521 41.6183C19.4486 39.5131 19.3115 39.1973 18.951 38.0024C18.4717 36.4136 17.6087 34.0888 17.0315 32.8313C16.7763 32.2753 16.4952 31.6629 16.4068 31.4704C16.2106 31.0428 16.2104 31.0549 16.4209 30.5762L16.5919 30.1874L16.8259 30.7317C16.9545 31.0311 17.428 32.2558 17.878 33.4534C18.3279 34.6509 18.9867 36.2606 19.3418 37.0304C19.697 37.8002 20.2023 39.007 20.4646 39.7121C20.928 40.9574 21.0405 41.19 21.134 41.0965C21.2303 41.0002 20.3115 38.539 19.5144 36.7582C18.9817 35.5682 18.695 34.8476 17.8748 32.6369C17.597 31.8884 17.2598 31.0188 17.1254 30.7044C16.9911 30.3901 16.8969 30.1169 16.9164 30.0975C16.9358 30.0781 17.2587 30.2214 17.6339 30.4159L18.3159 30.7697L18.7244 32.1894C19.1537 33.6811 19.5059 34.726 19.6207 34.8479C19.8029 35.0416 19.7705 34.7439 19.5348 34.0604C19.3918 33.6457 19.0939 32.6746 18.8728 31.9024L18.4707 30.4984L18.7591 29.9541C18.9176 29.6547 19.0926 29.3235 19.1479 29.2179C19.2423 29.0378 19.2642 29.0804 19.5067 29.9178C19.7369 30.7125 19.8916 31.3508 20.4766 33.9199C20.7107 34.9481 21.008 35.9029 21.0941 35.9029C21.2038 35.9029 21.1952 35.8486 20.9051 34.7174C20.7597 34.1505 20.512 33.0918 20.3547 32.3647C20.1972 31.6376 19.9468 30.6101 19.7981 30.0813C19.6494 29.5525 19.5416 29.1061 19.5585 29.0892C19.5753 29.0723 19.796 29.168 20.0487 29.3018C20.3014 29.4356 20.6702 29.6277 20.8681 29.7286C21.1761 29.8856 21.24 29.9599 21.3115 30.2442C21.6486 31.5842 22.162 34.0664 22.5303 36.1361C22.9933 38.7392 23.1857 39.7319 23.2376 39.7845C23.2552 39.8023 23.2918 39.7946 23.3191 39.7674C23.403 39.6835 22.2758 33.2377 21.875 31.5092L21.4964 29.8767L22.0149 29.3542L22.5334 28.8317L23.1731 29.1596L23.813 29.4875L23.8135 29.8868C23.8138 30.1064 23.9005 30.9287 24.0062 31.7142C24.5748 35.9414 24.7719 37.9887 24.9408 41.4239C25.087 44.3949 25.1194 44.7677 25.2322 44.7677C25.3852 44.7677 25.1921 39.7087 24.9383 37.0693C24.7965 35.5943 24.4754 32.9368 24.2806 31.626C24.2012 31.0914 24.112 30.4033 24.0824 30.0969L24.0287 29.5399L24.303 29.2416C24.454 29.0775 24.6475 28.8559 24.7332 28.7491L24.8888 28.555L24.9348 28.8268C24.9601 28.9764 25.0182 30.0785 25.064 31.276C25.1546 33.6419 25.1971 34.0438 25.3623 34.099C25.4441 34.1262 25.4579 34.0891 25.4177 33.9498C25.3884 33.8479 25.3317 32.7846 25.2917 31.5871C25.2517 30.3896 25.2017 29.2411 25.1807 29.0349C25.1596 28.8287 25.1728 28.6713 25.21 28.685C25.2471 28.6987 25.6421 28.8849 26.0876 29.0987L26.8977 29.4875L26.9466 31.4704C27.0006 33.6639 26.9242 36.7135 26.7296 40.1282C26.6137 42.1623 26.6137 42.5391 26.7296 42.4232C26.7865 42.3663 26.9083 40.7843 27.049 38.2746C27.1274 36.8764 27.1769 34.7342 27.1792 32.6369L27.1829 29.2542L27.6112 28.8849C27.8467 28.6817 28.0731 28.5155 28.1142 28.5155C28.1554 28.5155 28.4129 28.7249 28.6867 28.9809ZM15.8291 31.202C15.8036 31.2682 15.8375 31.3645 15.9042 31.4159C16.2514 31.6834 17.9452 36.0539 18.6375 38.469C18.8559 39.231 19.0987 39.8021 19.7613 41.1129C20.5297 42.633 21.1176 44.0402 21.4452 45.1437C21.5129 45.3718 21.6915 45.8267 21.842 46.1546C22.2369 47.0144 22.4334 47.5597 22.3896 47.6739C22.3686 47.7286 22.1817 47.838 21.9743 47.9169C21.767 47.9959 21.3024 48.2344 20.9419 48.447C20.5815 48.6595 20.0564 48.9352 19.7752 49.0597C19.4939 49.1842 19.1062 49.3674 18.9137 49.4668C18.7212 49.5662 18.2578 49.7772 17.8841 49.9358C17.321 50.1747 17.1876 50.2063 17.1063 50.1203C16.9185 49.922 15.8802 47.2973 15.8802 47.0211C15.8802 46.9334 15.827 46.7806 15.762 46.6815C15.697 46.5823 15.5095 46.1024 15.3453 45.615C15.1811 45.1276 14.8493 44.202 14.6079 43.5582C14.3664 42.9143 14.1689 42.3176 14.1689 42.2323C14.1689 42.147 14.1342 42.0424 14.0916 41.9998C13.9797 41.8879 13.5467 40.5741 13.5467 40.3462C13.5467 40.24 13.4994 40.0979 13.4415 40.0304C13.3837 39.9628 13.1332 39.4002 12.8849 38.78C12.6366 38.1599 12.235 37.2316 11.9925 36.7171C11.7501 36.2026 11.5668 35.7364 11.5853 35.6811C11.6036 35.6259 11.549 35.5045 11.4636 35.4113C11.2724 35.2024 10.9798 34.6302 10.9798 34.4649C10.9798 34.3977 10.9273 34.3226 10.8631 34.298C10.799 34.2734 10.7465 34.2045 10.7465 34.1449C10.7465 34.0853 10.7153 34.0366 10.6772 34.0366C10.6121 34.0366 10.3245 33.4134 10.3737 33.3794C10.3862 33.3709 10.6675 33.237 10.9988 33.0821C11.3301 32.9272 11.7501 32.6983 11.9322 32.5734C12.1143 32.4485 12.4382 32.2687 12.6522 32.1737C12.8661 32.0787 13.2861 31.8829 13.5856 31.7385C13.885 31.5942 14.2875 31.4411 14.4801 31.3982C14.6726 31.3554 15.0226 31.2708 15.2579 31.2101C15.8338 31.0616 15.8833 31.0609 15.8291 31.202ZM10.1483 34.0408C10.1136 34.0738 9.64777 34.2891 9.11301 34.5191C7.98546 35.0039 7.48073 35.3052 7.47676 35.4956C7.47489 35.5896 7.19689 35.7672 6.5628 36.0798C6.06165 36.3269 5.50472 36.5784 5.32512 36.6387L4.99858 36.7485L4.94545 36.3945C4.87086 35.8973 5.04191 35.5599 5.43285 35.4332C5.59596 35.3804 6.18447 35.1196 6.74062 34.8535C8.52333 34.0007 8.67385 33.9353 9.34636 33.7214L10.0075 33.5112L10.1094 33.7459C10.1654 33.875 10.1829 34.0077 10.1483 34.0408ZM43.4778 34.8089C43.8071 34.9342 44.3217 35.1078 44.6211 35.1946C44.9206 35.2814 45.4852 35.5415 45.8758 35.7726C46.2664 36.0038 46.8351 36.3274 47.1397 36.4919C47.4443 36.6564 47.7115 36.8479 47.7336 36.9175C47.7558 36.9872 47.686 37.2774 47.5787 37.5625C47.3852 38.0765 46.6298 39.6354 46.5743 39.6354C46.515 39.6354 45.5389 39.2521 45.1042 39.058C44.578 38.8232 43.265 38.5919 42.8716 38.6648C42.3334 38.7645 42.1208 38.9728 41.7367 39.7769C41.5389 40.1909 41.2792 40.7746 41.1594 41.074C41.0397 41.3734 40.6128 42.2657 40.2108 43.0569C39.0437 45.3539 37.8151 48.2973 37.8151 48.7963C37.8151 49.2626 38.0646 49.5055 39.3781 50.3177C40.0563 50.7371 40.73 51.1745 40.8752 51.2899L41.1393 51.4997L40.8511 52.1578C40.334 53.3386 40.2681 53.477 40.2219 53.477C40.1967 53.477 39.6242 53.1446 38.9494 52.7385C38.2746 52.3323 37.2621 51.7506 36.6993 51.4458C35.7078 50.9087 34.8308 50.3412 34.6428 50.1146C34.5696 50.0264 34.7008 49.7093 35.2972 48.5334C35.7075 47.7245 36.2495 46.5804 36.5017 45.9909C37.2223 44.3068 38.0225 42.7554 39.5194 40.1409C41.6622 36.3979 41.6928 36.3384 41.947 35.421C42.0336 35.1086 42.1598 34.7919 42.2275 34.717C42.4062 34.5196 42.7922 34.5479 43.4778 34.8089ZM10.8463 35.1178C10.9198 35.242 10.9798 35.3589 10.9798 35.3776C10.9798 35.3963 10.7261 35.5091 10.4159 35.6282C9.4516 35.9987 8.17961 36.6257 8.17961 36.7305C8.17961 36.7855 8.11832 36.863 8.04349 36.9027C7.91406 36.9714 5.46349 37.9247 5.41643 37.9247C5.38237 37.9247 5.14606 37.2098 5.14606 37.1066C5.14606 37.0568 5.29486 36.9727 5.47664 36.9197C5.65842 36.8666 6.21146 36.6197 6.70554 36.3708C7.34235 36.0501 7.66251 35.9297 7.80524 35.9569C7.916 35.9781 8.0893 35.9496 8.19034 35.8935C8.42393 35.764 10.5251 34.9083 10.6324 34.899C10.6767 34.8952 10.773 34.9936 10.8463 35.1178ZM11.516 36.5862C11.8786 37.3044 11.8935 37.2725 11.0576 37.5648C10.4118 37.7906 7.58177 38.9034 6.29375 39.438L5.84696 39.6234L5.6837 39.0657C5.59393 38.7589 5.50713 38.4554 5.49072 38.3912C5.4694 38.3076 5.63135 38.2103 6.06188 38.0478C6.39238 37.9232 7.00314 37.6876 7.41904 37.5245C7.9447 37.3182 8.24332 37.2414 8.39865 37.2725C8.62811 37.3184 9.68767 36.9109 10.7076 36.3845C10.9643 36.252 11.2 36.142 11.2315 36.1399C11.2629 36.1379 11.391 36.3387 11.516 36.5862ZM12.1067 37.8953C12.2724 38.292 12.2573 38.354 11.9715 38.4503C10.4868 38.9509 9.65749 39.3726 9.65749 39.6268C9.65749 39.7066 9.61378 39.8053 9.56026 39.8461C9.35531 40.0028 6.79406 40.971 6.5523 40.9833C6.30495 40.9958 6.29375 40.9826 6.14402 40.5005C6.05931 40.2278 6.01894 39.978 6.05418 39.9454C6.08949 39.9129 6.55588 39.721 7.09064 39.5192C8.2826 39.0691 9.53911 38.5712 9.85195 38.4248C10.302 38.2142 11.7975 37.6233 11.8928 37.6185C11.9456 37.6158 12.0419 37.7404 12.1067 37.8953ZM43.8433 39.2915C44.2285 39.3588 44.8156 39.5332 45.1488 39.6796C45.4818 39.8259 45.8931 39.9677 46.0628 39.9948C46.2324 40.0219 46.3712 40.0571 46.3712 40.073C46.3712 40.0888 46.2524 40.3381 46.1071 40.6268C45.7129 41.4102 45.4151 42.127 45.0167 43.2513C44.4659 44.8057 44.3646 45.0485 43.8483 46.0507C43.5839 46.564 43.2339 47.2988 43.0706 47.6837C42.7963 48.3298 41.4107 50.9886 41.3482 50.9886C41.3331 50.9886 41.2057 50.889 41.0653 50.7672C40.7624 50.5049 39.4789 49.6846 38.9818 49.4359C38.4824 49.1859 38.204 48.9022 38.204 48.643C38.204 48.2013 39.4442 45.2871 40.4988 43.251C40.8976 42.481 41.3291 41.5887 41.4576 41.2681C41.8565 40.2726 42.2227 39.5241 42.375 39.3928C42.6723 39.1363 42.8744 39.1224 43.8433 39.2915ZM12.1534 40.2444C11.7433 40.3868 11.3026 40.536 11.1743 40.5758C10.7588 40.7048 10.165 41.0696 10.0891 41.2425C10.0347 41.3662 9.59457 41.591 8.43303 42.0882C7.56287 42.4607 6.83855 42.7523 6.8233 42.7362C6.80805 42.7201 6.70748 42.4188 6.59975 42.0666L6.40389 41.4263L6.72786 41.34C6.90598 41.2926 7.60985 41.0419 8.29193 40.7829C8.97409 40.524 9.66146 40.3011 9.81952 40.2877C10.0901 40.2647 12.035 39.5814 12.4577 39.3608C12.6467 39.2622 12.6557 39.2695 12.7757 39.6223L12.8992 39.9853L12.1534 40.2444ZM13.3697 41.3896C13.4893 41.7573 13.5099 41.9089 13.4439 41.9329C13.3934 41.9512 13.0022 42.0696 12.5744 42.1959C12.1466 42.3221 11.604 42.5111 11.3687 42.6158C10.9584 42.7984 10.5136 43.1368 10.5127 43.267C10.5125 43.3012 10.1187 43.4659 9.63766 43.6332C9.15657 43.8005 8.48864 44.0542 8.15324 44.197C7.46494 44.4901 7.47956 44.4863 7.47956 44.3737C7.47956 44.3282 7.35853 44.0291 7.21066 43.7091C6.97055 43.1895 6.95592 43.1221 7.07454 43.0789C7.14758 43.0524 7.86272 42.7589 8.66373 42.4268C9.46482 42.0948 10.2174 41.8239 10.3361 41.8249C10.5281 41.8265 11.6383 41.4427 12.6133 41.0376C13.1591 40.8108 13.1854 40.8231 13.3697 41.3896ZM43.2844 40.9579C42.93 41.1007 42.8306 41.6434 43.1217 41.8472C43.3848 42.0316 43.6136 41.9937 43.8364 41.729C44.2681 41.2162 43.9044 40.7081 43.2844 40.9579ZM44.4258 41.5211C44.2443 41.8188 44.2372 41.8922 44.3721 42.0767C44.4393 42.1684 44.5499 42.2061 44.7013 42.1888C45.0024 42.1543 45.1169 41.859 44.9634 41.5124C44.8237 41.1968 44.6216 41.2001 44.4258 41.5211ZM43.571 41.3767C43.571 41.3935 43.5168 41.4281 43.4503 41.4536C43.3811 41.4802 43.3499 41.4671 43.3771 41.4231C43.4228 41.3491 43.571 41.3137 43.571 41.3767ZM42.6986 42.3376C42.3662 42.7186 42.3284 43.0037 42.5878 43.1736C42.8151 43.3225 42.9575 43.2726 43.1279 42.9841C43.2983 42.6957 43.2951 42.4908 43.1176 42.3302C42.9366 42.1665 42.8465 42.1681 42.6986 42.3376ZM43.7367 42.7159C43.5795 43.0607 43.8226 43.5235 44.1608 43.5235C44.3703 43.5235 44.66 43.1859 44.66 42.9418C44.66 42.697 44.4204 42.5126 44.1025 42.5126C43.8834 42.5126 43.811 42.5529 43.7367 42.7159ZM13.9479 43.1202L14.0676 43.4946L13.5933 43.6769C12.982 43.9118 10.8669 44.8022 9.42414 45.4318C8.80382 45.7025 8.24845 45.935 8.18995 45.9485C8.12011 45.9646 8.02023 45.7881 7.89827 45.4329C7.79637 45.136 7.71291 44.8726 7.71291 44.8479C7.71291 44.7264 10.4252 43.7584 10.7795 43.7534C10.911 43.7516 11.6137 43.5268 12.341 43.254C13.0683 42.9811 13.7004 42.7552 13.7457 42.7519C13.7911 42.7486 13.882 42.9143 13.9479 43.1202ZM41.8625 43.5961C41.6524 43.9888 41.9308 44.4712 42.2646 44.2926C42.6768 44.072 42.6109 43.4457 42.1754 43.4457C42.0253 43.4457 41.9146 43.499 41.8625 43.5961ZM14.3821 44.4782C14.36 44.5447 13.5039 44.9197 12.275 45.4011C11.7929 45.59 11.6328 45.694 11.5139 45.8953C11.36 46.1561 11.0467 46.3103 9.14436 47.061L8.51462 47.3096L8.35929 46.832L8.20396 46.3544L10.3502 45.4785C11.5308 44.9967 12.8816 44.4361 13.3522 44.2328L14.2078 43.8629L14.3064 44.1364C14.3606 44.2869 14.3947 44.4406 14.3821 44.4782ZM43.3309 44.012C43.0062 44.2613 42.9251 44.7856 43.1894 44.9271C43.5433 45.1164 43.8858 44.8509 43.8993 44.3767C43.9106 43.9802 43.6175 43.7921 43.3309 44.012ZM43.5353 44.4514C43.5072 44.4971 43.4468 44.5344 43.4014 44.5344C43.3497 44.5344 43.3557 44.4898 43.417 44.4159C43.5238 44.2874 43.619 44.316 43.5353 44.4514ZM41.2375 44.8454C41.152 44.931 41.082 45.0989 41.082 45.2187C41.082 45.6459 41.4306 45.7588 41.6986 45.4182C41.9009 45.1611 41.9056 44.8754 41.7094 44.7704C41.4956 44.6561 41.414 44.669 41.2375 44.8454ZM42.5754 45.3276C42.4423 45.4607 42.46 45.9009 42.6043 46.0452C42.7712 46.212 43.0043 46.1988 43.1016 46.017C43.2348 45.7681 43.1954 45.4856 43.0092 45.3553C42.8016 45.2099 42.6996 45.2034 42.5754 45.3276ZM14.9538 45.9917L15.0924 46.3992L14.5334 46.5611C13.5601 46.8429 12.6137 47.1944 12.4218 47.3454C12.3198 47.4256 12.2152 47.5871 12.1895 47.7043C12.1478 47.894 12.0466 47.9534 11.2696 48.2444C10.7893 48.4243 10.1175 48.6771 9.77658 48.8065C9.43566 48.9358 9.13487 49.016 9.10827 48.9848C9.06198 48.9305 8.64631 47.7756 8.64631 47.7014C8.64631 47.6817 8.86511 47.5868 9.13246 47.4903C9.39988 47.3938 10.0386 47.1384 10.552 46.9227C11.0654 46.707 11.6429 46.5056 11.8354 46.4749C12.0279 46.4444 12.728 46.2267 13.3911 45.9913C14.0542 45.7559 14.6459 45.5679 14.7061 45.5737C14.7662 45.5794 14.8777 45.7675 14.9538 45.9917ZM40.4253 46.2625C40.2702 46.4836 40.2707 46.7449 40.4263 46.9006C40.6717 47.1459 41.0296 46.9861 41.13 46.5865C41.2334 46.1744 40.6688 45.9147 40.4253 46.2625ZM41.9182 46.6875C41.7626 46.7282 41.6804 46.9804 41.7176 47.3036C41.7522 47.6036 42.0956 47.7372 42.3172 47.5367C42.5364 47.3383 42.5895 47.0406 42.445 46.8201C42.3275 46.641 42.2098 46.6113 41.9182 46.6875ZM42.1709 47.1005C42.1709 47.1433 42.1338 47.1783 42.0886 47.1783C42.0433 47.1783 42.0278 47.1433 42.0543 47.1005C42.0807 47.0578 42.1177 47.0228 42.1366 47.0228C42.1555 47.0228 42.1709 47.0578 42.1709 47.1005ZM39.9541 47.4716C39.7497 47.5186 39.6845 47.6299 39.683 47.9347C39.6816 48.2566 39.9726 48.4806 40.2202 48.348C40.3871 48.2587 40.4922 47.9851 40.4472 47.7575C40.4121 47.5805 40.1476 47.4271 39.9541 47.4716ZM15.613 47.8976C15.6869 48.1221 15.7608 48.3427 15.7773 48.3877C15.8133 48.4862 15.5411 48.5986 13.08 49.5012C12.0318 49.8856 10.8428 50.3242 10.4376 50.4761C10.0324 50.6279 9.67686 50.7265 9.64754 50.6954C9.58469 50.6285 9.26858 49.6146 9.26858 49.4797C9.26858 49.4286 9.39988 49.3406 9.56026 49.2841C9.72073 49.2275 10.377 48.9868 11.0187 48.749C11.6604 48.5112 12.2555 48.3226 12.341 48.33C12.4266 48.3373 12.5666 48.309 12.6522 48.2671C12.7377 48.2251 13.3502 48.0477 14.0131 47.8727C14.6761 47.6978 15.2332 47.54 15.2511 47.522C15.3657 47.4075 15.4965 47.5433 15.613 47.8976ZM41.2809 47.9732C40.967 48.4211 41.3733 48.9088 41.7311 48.5135C41.8999 48.327 41.8944 48.0891 41.7175 47.9291C41.527 47.7567 41.4254 47.7669 41.2809 47.9732ZM39.2552 48.6778C39.0153 49.0202 39.208 49.5111 39.5825 49.5111C39.7454 49.5111 39.993 49.2135 39.993 49.0177C39.993 48.6351 39.4579 48.3885 39.2552 48.6778ZM16.5356 50.1861C16.5826 50.4009 16.5704 50.4099 15.9402 50.6256C15.5863 50.7468 14.7192 51.1017 14.0134 51.4145C12.1526 52.2389 10.7347 52.6147 10.416 52.3679C10.3476 52.315 10.1796 52.0315 10.0426 51.738C9.84052 51.305 9.81368 51.1916 9.90049 51.1374C9.95937 51.1007 10.375 50.9406 10.8242 50.7818C11.2734 50.6229 12.621 50.137 13.8189 49.702L15.9968 48.9111L16.2422 49.4389C16.3772 49.7293 16.5093 50.0654 16.5356 50.1861ZM40.5562 49.2768C40.4165 49.5005 40.4375 49.7222 40.6153 49.8999C40.8227 50.1073 40.974 50.096 41.1276 49.8616C41.2919 49.611 41.221 49.3307 40.9635 49.2134C40.6973 49.0921 40.6688 49.0966 40.5562 49.2768Z" fill="white"/>
</svg>
