<svg width="33" height="43" viewBox="0 0 33 43" fill="none" xmlns="http://www.w3.org/2000/svg">
<path fill-rule="evenodd" clip-rule="evenodd" d="M15.2924 0.929046C14.6214 1.16387 14.4541 1.27379 13.8574 1.87148C13.2165 2.51357 13.0049 2.8896 12.8446 3.67146C12.7278 4.24054 12.7445 5.36427 12.876 5.79604C12.9842 6.15122 13.5462 6.81299 14.1755 7.32626C15.0117 8.00812 15.0873 8.3569 14.5687 9.13974C14.206 9.68723 14.0493 9.74623 12.7108 9.83881C12.0696 9.88314 11.4319 9.89787 11.2935 9.87153C10.9061 9.7978 10.751 9.58331 10.6971 9.04677C10.6436 8.51375 10.7591 8.5678 9.44314 8.46043C8.5646 8.38878 8.49059 8.3921 8.06137 8.52249C7.67778 8.63899 7.57052 8.70575 7.36566 8.9557C7.07198 9.31407 7.0416 9.47503 6.94601 11.1809C6.89757 12.0458 6.89672 12.5086 6.94327 12.6804C7.04401 13.0519 7.31023 13.3997 7.61884 13.5627C7.876 13.6986 7.97073 13.7075 9.087 13.7004C10.4754 13.6916 10.4715 13.6932 10.6065 13.0846C10.6543 12.8692 10.7355 12.658 10.787 12.6153C10.8526 12.5609 11.2809 12.5377 12.2234 12.5377H13.5663L13.925 12.7333C14.2118 12.8898 14.3162 12.9941 14.4466 13.2549C14.6042 13.5701 14.6103 13.6311 14.6316 15.1129C14.6608 17.1384 14.4698 21.3843 14.2211 24.2399C14.0493 26.2135 13.994 27.2764 13.9551 29.3576C13.8951 32.562 13.7867 33.6432 13.4845 34.051C13.2263 34.3994 12.0134 34.4927 11.2517 34.2227C10.2642 33.8727 8.87816 33.1172 7.08535 31.9518C6.89176 31.8259 6.39297 31.3906 5.97691 30.9844C5.56085 30.5781 5.14708 30.1878 5.05742 30.1168L4.89442 29.9879L5.25303 30.0808C5.45027 30.132 5.89678 30.1925 6.24535 30.2154C6.93552 30.2607 7.0787 30.214 7.0787 29.943C7.0787 29.7977 6.05939 28.3159 5.42438 27.5381C5.10906 27.1519 4.8924 26.8313 4.16102 25.6688C3.56383 24.7195 3.04991 24.0453 2.40205 23.3611C1.87431 22.8038 1.79072 22.7405 1.58266 22.7405C1.37864 22.7405 1.34297 22.7657 1.28351 22.9524C1.17012 23.3084 0.96271 24.5566 0.885315 25.3482C0.84502 25.7606 0.755041 26.4247 0.685405 26.8242C0.615703 27.2237 0.514313 27.9309 0.46013 28.3959C0.405947 28.8608 0.333441 29.4581 0.299014 29.7231C0.206296 30.4373 0.217837 31.25 0.324313 31.5048C0.489536 31.9002 0.760713 31.8716 1.39546 31.3918C1.5985 31.2382 1.83968 31.0655 1.93123 31.008L2.09782 30.9033L2.28567 31.4343C2.86538 33.0733 3.29715 33.7093 4.95173 35.3617C5.95409 36.3627 6.40985 36.7677 6.88309 37.0781C7.99838 37.8097 9.51147 38.4626 11.1213 38.9071C13.4022 39.5369 13.8453 39.7927 15.6491 41.5202C16.1995 42.0474 16.51 42.2989 16.6114 42.2999C16.7188 42.3009 16.9921 42.0629 17.5763 41.4594C18.9246 40.0668 19.4852 39.7504 22.2057 38.8476C23.3483 38.4684 24.4106 38.0501 24.7397 37.8499C25.4213 37.4352 27.1704 36.1535 27.5914 35.7604C28.6983 34.7268 30.4088 32.1345 30.7514 30.9711C30.7963 30.8187 30.8578 30.6941 30.8882 30.6941C30.9184 30.6941 31.0972 30.8428 31.2853 31.0247C31.9138 31.6321 32.1875 31.8306 32.2994 31.76C32.5601 31.5955 32.5558 31.48 32.1768 28.5008C32.081 27.7472 32.0509 27.0991 32.0498 25.7626C32.048 23.5468 31.9134 22.4145 31.6517 22.4145C31.5177 22.4145 30.9062 22.9104 30.3574 23.464C30.0478 23.7763 29.4864 24.4691 29.0894 25.0286C28.6976 25.5809 28.1068 26.3994 27.7766 26.8477C27.4463 27.2959 27.0661 27.8386 26.9316 28.0537C26.7971 28.2689 26.5286 28.6808 26.3348 28.969L25.9826 29.4931L26.083 29.7334C26.2672 30.1743 26.6136 30.2425 27.7805 30.0681L28.0413 30.0291L27.5197 30.5606C27.2328 30.8529 26.8073 31.2492 26.5742 31.4413C26.3411 31.6334 25.989 31.9255 25.7918 32.0906C25.1995 32.5863 24.4285 33.0733 23.7379 33.3881C22.1401 34.1164 21.2796 34.2846 20.3648 34.0476C19.6982 33.8749 19.6565 33.8231 19.2945 32.7214C19.0187 31.8818 18.8862 31.0929 18.7844 29.6836C18.7301 28.9306 18.6419 27.8011 18.5886 27.1736C18.5133 26.2868 18.4932 24.9803 18.4985 21.3062C18.5031 18.0985 18.4794 16.2423 18.4246 15.5298C18.3625 14.7215 18.3613 14.3492 18.4196 13.9118C18.4945 13.3483 18.498 13.3409 18.8445 12.9888L19.1939 12.6338L20.1039 12.5304C21.4773 12.3743 21.9889 12.5251 22.347 13.1918C22.4427 13.3699 22.5878 13.5505 22.6695 13.5932C22.7761 13.6489 23.1861 13.6617 24.1256 13.6387C26.0551 13.5915 26.037 13.6109 26.1302 11.4817C26.2062 9.74662 26.1583 9.50124 25.6756 9.15076C25.2281 8.82577 24.7372 8.72394 23.6184 8.72394C22.9454 8.72394 22.659 8.74708 22.611 8.80543C22.5741 8.85028 22.5231 9.02683 22.4976 9.19783C22.4649 9.41733 22.403 9.54668 22.2871 9.63788C22.1354 9.75712 22.0198 9.76703 20.7783 9.76703C20.0388 9.76703 19.3373 9.73939 19.2194 9.70555C18.8852 9.60972 18.4733 9.06431 18.3274 8.52432C18.2747 8.32932 18.2135 8.10649 18.1913 8.02917C18.1573 7.91033 18.2252 7.83848 18.6298 7.56539C19.5279 6.95916 19.8415 6.4852 20.1448 5.27535C20.3369 4.50939 20.3503 4.26687 20.2264 3.80185C20.1161 3.38807 19.9866 3.13681 19.577 2.54167C19.0146 1.7246 18.4541 1.31773 17.4008 0.961708C16.6693 0.714495 15.9378 0.703152 15.2924 0.929046ZM17.1851 1.3571C17.4096 1.42882 17.6347 1.48749 17.6852 1.48749C17.8614 1.48749 18.2789 1.74448 18.6426 2.0769C19.136 2.52778 19.6295 3.28096 19.8006 3.84429C19.9465 4.32457 19.9428 4.39654 19.7206 5.3908C19.5661 6.08192 19.0469 6.76449 18.3327 7.2155C18.1125 7.35455 17.8963 7.51174 17.8522 7.56487C17.7055 7.74161 17.684 8.23225 17.8019 8.71318C17.8924 9.08257 17.9791 9.2479 18.2611 9.58983C18.4672 9.83965 18.6973 10.0451 18.8261 10.0942C18.9659 10.1476 19.5343 10.1879 20.4203 10.2073C22.3429 10.2497 22.6915 10.1334 22.8438 9.39895L22.8959 9.14769L23.704 9.12931C24.5817 9.10929 25.1705 9.19542 25.2609 9.3569C25.3204 9.46323 25.2886 11.5828 25.2146 12.44L25.1724 12.9289L24.8464 13.0401C24.6094 13.121 24.2962 13.1521 23.6993 13.1542L22.8781 13.1571L22.6605 12.8382C22.2816 12.283 21.7643 12.0888 20.7046 12.1037C19.5196 12.1204 19.0312 12.2098 18.6195 12.4851C18.022 12.8846 17.7761 13.1534 17.6765 13.5153C17.6026 13.7838 17.5899 14.9317 17.6046 20.0024C17.6245 26.8826 17.6433 27.3032 18.1018 31.1522C18.3025 32.837 18.4028 33.2513 18.7722 33.9211C18.9472 34.2382 19.055 34.3493 19.3417 34.5079C19.6834 34.6968 19.723 34.7033 20.5104 34.6991C21.7995 34.6921 22.3796 34.5266 24.0639 33.6855C24.9472 33.2445 25.1715 33.1003 26.1942 32.316C27.5366 31.2866 28.6331 30.1082 28.5818 29.75C28.5637 29.624 28.5218 29.6189 27.6012 29.6326C26.554 29.6481 26.4855 29.6211 26.8096 29.32C26.9032 29.2331 27.2759 28.766 27.6379 28.2819C27.9999 27.7978 28.7097 26.8884 29.2155 26.2609C29.7211 25.6334 30.3792 24.7973 30.6778 24.4029C30.9764 24.0085 31.2335 23.6716 31.2491 23.6544C31.2646 23.6371 31.2571 23.7756 31.2323 23.9622C31.1356 24.6909 31.4349 29.0507 31.6648 30.2629C31.698 30.4381 31.7252 30.6075 31.7252 30.6393C31.7252 30.671 31.5757 30.5789 31.393 30.4345C31.0542 30.1668 30.8456 30.0784 30.6453 30.1178C30.5758 30.1315 30.3478 30.4998 30.0463 31.0852C29.7786 31.6051 29.4875 32.1263 29.3995 32.2434C29.3114 32.3605 29.0667 32.71 28.8556 33.0202C28.0668 34.1792 27.3277 34.9989 26.3134 35.8394C25.6576 36.3827 25.4408 36.5356 24.6009 37.0468C24.1717 37.308 22.9061 37.8589 21.1974 38.5281C19.1727 39.3211 18.3964 39.8142 17.1492 41.0992L16.4939 41.7743L16.1795 41.4333C15.8037 41.0258 15.0379 40.3293 14.4283 39.8407C13.8851 39.4054 12.8712 38.8959 12.113 38.6774C10.862 38.317 9.48265 37.7666 8.81035 37.3597C7.10928 36.3304 6.74428 36.0494 5.54012 34.8428C4.03296 33.3324 3.53925 32.6107 2.96977 31.0852C2.86936 30.8163 2.76745 30.5467 2.74326 30.4861C2.66632 30.2936 2.35785 30.2769 2.07956 30.4503C1.94225 30.5358 1.77865 30.6247 1.71599 30.6478C1.65327 30.6709 1.43608 30.796 1.23317 30.9257L0.864384 31.1616L0.908266 30.2922C0.932456 29.814 0.994856 29.2174 1.04702 28.9664C1.09911 28.7154 1.2629 27.8353 1.41091 27.0106C1.55899 26.1859 1.7201 25.2912 1.769 25.0222C1.81791 24.7533 1.85898 24.2889 1.86022 23.9902L1.8625 23.4471L2.20482 23.8202C2.66241 24.3189 3.26247 25.1931 3.87178 26.2487C4.14733 26.726 4.77921 27.6594 5.27585 28.3229C5.77256 28.9864 6.16834 29.5399 6.15537 29.5528C6.14239 29.5658 5.92892 29.5339 5.68089 29.4818C4.88575 29.3152 4.3402 29.4498 4.3402 29.8125C4.3402 29.8975 4.47673 30.0861 4.68251 30.2853C4.87075 30.4676 5.34758 30.9301 5.74205 31.313C6.14239 31.7017 6.71852 32.1788 7.0461 32.3928C7.36885 32.6036 7.83831 32.9204 8.08934 33.0967C9.02949 33.757 9.924 34.1952 11.3128 34.676C11.9948 34.9121 12.6883 34.9354 13.2216 34.7403C13.4112 34.6709 13.6889 34.5823 13.8387 34.5435C14.1731 34.4567 14.3889 34.2132 14.5771 33.7103C14.8446 32.9956 14.9158 32.1013 14.9421 29.1294C14.9651 26.5294 14.996 25.7619 15.1698 23.4902C15.3321 21.3685 15.2272 14.083 15.0252 13.4504C14.8988 13.0543 14.6687 12.7207 14.3752 12.5081C13.9103 12.1715 13.7567 12.1466 12.1428 12.1466H10.6541L10.4684 12.3544C10.3487 12.4885 10.2667 12.6698 10.2372 12.8661L10.1917 13.17L9.85776 13.1318C9.67408 13.1109 9.1717 13.0755 8.74136 13.0532C8.31103 13.0309 7.92542 12.9856 7.88454 12.9524C7.75883 12.8505 7.74527 12.5278 7.80264 11.0057C7.88232 8.89129 7.8668 8.91137 9.38106 8.96913L10.2615 9.00277L10.302 9.27293C10.3557 9.63077 10.5449 9.92962 10.8087 10.0732C11.2504 10.3135 13.8788 10.2553 14.3814 9.9941C14.5855 9.88796 15.1062 9.2874 15.2878 8.94866C15.6001 8.36577 15.3726 7.57967 14.7512 7.09476C13.5518 6.15891 13.2225 5.46969 13.3971 4.26035C13.5927 2.90577 14.9092 1.57505 16.3047 1.32144C16.5558 1.27581 16.7648 1.23585 16.7691 1.23259C16.7734 1.22939 16.9606 1.28539 17.1851 1.3571ZM15.9404 2.36682C15.5576 2.49016 14.9747 3.15579 14.8086 3.65921C14.6372 4.17873 14.6008 4.94599 14.7312 5.2876C14.987 5.95701 15.69 6.33376 16.6961 6.34047C17.2184 6.34393 17.3151 6.32535 17.5763 6.17091C18.2952 5.74591 18.7451 4.91092 18.7583 3.97748C18.7627 3.66038 18.7297 3.51806 18.6007 3.29797C18.3948 2.94684 17.9844 2.61462 17.5524 2.44961C17.111 2.28096 16.3313 2.24086 15.9404 2.36682ZM17.367 3.11132C17.8021 3.33513 18.1193 3.76684 18.1882 4.22886C18.2271 4.49022 18.203 4.58332 17.9858 5.01118C17.6354 5.70164 17.3546 5.88882 16.6739 5.88588C16.2928 5.88425 16.1126 5.85087 15.9136 5.74519C15.435 5.49087 15.0986 5.00193 15.0986 4.5605C15.0986 4.26016 15.3486 3.52837 15.5189 3.33011C15.7957 3.00793 16.9096 2.87611 17.367 3.11132Z" fill="white"/>
</svg>
