<svg width="28" height="39" viewBox="0 0 28 39" fill="none" xmlns="http://www.w3.org/2000/svg">
<path fill-rule="evenodd" clip-rule="evenodd" d="M11.8122 0.719855C9.58966 0.792606 8.13949 0.913371 6.61785 1.15238C5.03354 1.40124 4.42659 1.54738 3.77978 1.83569L3.28141 2.05788L3.11666 2.51579C2.83465 3.29941 2.27308 5.60061 1.96779 7.22384C1.3748 10.3765 1.20724 11.6032 1.05509 13.9069C1.00502 14.6646 0.935958 15.6539 0.9016 16.1053C0.867242 16.5567 0.824795 17.7966 0.807264 18.8606C0.773845 20.8901 0.815176 21.6488 1.08505 23.9608C1.33071 26.0652 1.52619 27.3875 1.75626 28.5008C1.8333 28.8734 1.96293 29.5002 2.04431 29.8937C2.12575 30.2872 2.36256 31.2765 2.57058 32.0921C2.7786 32.9077 3.02789 33.9197 3.12457 34.3409C3.35839 35.3594 3.61034 35.954 3.92137 36.2212C4.55365 36.7644 6.70245 37.5091 9.11516 38.0212C10.6888 38.3552 10.9725 38.3784 13.5125 38.3804C15.5129 38.382 16.0001 38.3642 17.0889 38.25C18.5864 38.0929 19.2716 37.9938 20.4895 37.7583C22.0362 37.4591 22.6579 37.2507 23.285 36.8208C23.4372 36.7165 23.6061 36.6528 23.7303 36.6528C23.9839 36.6528 24.0515 36.5757 24.3836 35.9075C24.8487 34.9717 25.0476 34.2558 25.6234 31.445C25.8326 30.424 26.1081 29.2137 26.2356 28.7555C26.7129 27.0407 27.1548 24.1688 27.2891 21.909C27.3933 20.1557 27.5141 17.1211 27.4921 16.8088C27.4807 16.6476 27.4578 15.9485 27.441 15.2553C27.4243 14.562 27.3839 13.7574 27.3513 13.4672C27.3187 13.177 27.267 12.3988 27.2364 11.7378C27.1942 10.8268 27.1307 10.2453 26.9742 9.33428C26.8607 8.6733 26.7001 7.73679 26.6173 7.25315C26.4136 6.06356 26.3601 5.86963 25.876 4.56948C25.4679 3.47358 25.1946 2.86471 24.949 2.50465C24.8829 2.40792 24.8288 2.27349 24.8286 2.20596C24.8279 2.01649 24.668 1.91103 24.0042 1.66223C23.0146 1.29138 21.5778 1.08561 17.9977 0.801986C16.6019 0.691422 13.8122 0.654431 11.8122 0.719855ZM18.0856 1.27754C18.7467 1.32479 19.3272 1.37515 19.3755 1.38951C19.4239 1.40387 19.9252 1.45675 20.4895 1.50711C22.0202 1.64353 22.9478 1.80685 23.6211 2.0584L24.2022 2.27555L24.573 2.97633C24.7768 3.36178 24.944 3.69576 24.9446 3.7185C24.945 3.74125 24.8333 3.71962 24.6963 3.67037C24.2965 3.52686 23.3698 3.36624 22.2123 3.23978C18.8252 2.86981 11.9251 2.89994 7.6494 3.30327C7.31081 3.33522 6.65121 3.3976 6.18363 3.44186C4.97244 3.55659 3.85354 3.69781 3.58671 3.76968C3.46065 3.80363 3.3445 3.81834 3.32855 3.80245C3.31266 3.78651 3.37464 3.4564 3.4664 3.06884L3.6332 2.36418L4.10224 2.18573C6.26911 1.36137 13.0744 0.91935 18.0856 1.27754ZM15.4706 3.89695C15.4926 4.16293 15.5505 4.62781 15.599 4.9299C15.6475 5.23204 15.6751 5.49134 15.6603 5.50617C15.6185 5.54797 12.69 5.65894 12.6513 5.62019C12.6212 5.59012 12.6871 4.70666 12.7883 3.78252L12.8217 3.47762L13.1231 3.45628C13.2889 3.44462 13.8758 3.43014 14.4274 3.42416L15.4304 3.41331L15.4706 3.89695ZM18.3601 4.22607C18.4627 4.62471 18.5633 5.04926 18.5836 5.16949L18.6205 5.3881L17.3137 5.42298C16.5949 5.44221 15.9963 5.44743 15.9835 5.43459C15.964 5.41507 15.8485 4.66961 15.7113 3.67712L15.6789 3.44262L16.9262 3.47193L18.1736 3.50125L18.3601 4.22607ZM12.4949 3.69177C12.475 3.81271 12.4161 4.28094 12.3638 4.73234C12.3117 5.18374 12.2593 5.58607 12.2476 5.62635C12.2326 5.67805 12.0685 5.69963 11.6896 5.69963C11.3944 5.69963 10.574 5.72859 9.86623 5.76405C9.15856 5.79946 8.56339 5.81236 8.54369 5.7926C8.52399 5.77291 8.6052 5.32842 8.72416 4.80491C8.84312 4.28135 8.94015 3.80931 8.93986 3.75591C8.93939 3.68315 9.01625 3.64821 9.24632 3.61656C9.52265 3.57857 11.0803 3.50541 12.1277 3.48125L12.5311 3.47193L12.4949 3.69177ZM21.1726 3.62711C21.4654 3.66152 21.4808 3.67237 21.5664 3.90452C21.7927 4.51836 22.0064 5.15959 22.042 5.33176L22.0812 5.52088L20.743 5.49028C20.007 5.47346 19.2948 5.44643 19.1605 5.43025L18.9161 5.40076L18.845 4.97862C18.8058 4.74641 18.7119 4.34542 18.6361 4.08748C18.5604 3.82954 18.498 3.59452 18.4973 3.56526C18.4961 3.51092 20.5971 3.55946 21.1726 3.62711ZM8.58749 3.95558C8.53167 4.12482 8.41388 4.57992 8.32576 4.96683C8.23764 5.35375 8.15667 5.70086 8.14589 5.7382C8.13434 5.77806 7.93698 5.82068 7.66798 5.84144C7.41587 5.86084 6.99859 5.90276 6.74062 5.93459C6.01993 6.02358 4.30745 6.04035 4.30745 5.95845C4.30745 5.92152 4.37195 5.60413 4.4508 5.25315C4.5296 4.90223 4.61169 4.48032 4.63315 4.31558L4.67213 4.01614L5.23733 3.94977C5.54819 3.91325 6.15871 3.85434 6.59405 3.81881C7.02938 3.78328 7.58344 3.73398 7.82529 3.70918C8.06714 3.68444 8.36041 3.66053 8.47703 3.65601L8.68898 3.6478L8.58749 3.95558ZM23.3331 3.86031C23.6878 3.90927 24.2487 4.03114 24.5795 4.1311L25.1809 4.31283L25.3507 4.84501C25.4441 5.13772 25.551 5.49591 25.5883 5.641C25.6255 5.7861 25.6692 5.9503 25.6853 6.00587C25.7121 6.09838 25.698 6.10002 25.5192 6.02528C25.2307 5.90475 24.5111 5.78164 23.4192 5.66598L22.4499 5.56327L22.2857 4.99356C22.1954 4.68022 22.0577 4.28621 21.9798 4.11796C21.9018 3.94972 21.838 3.78557 21.838 3.75327C21.838 3.68667 22.3322 3.72202 23.3331 3.86031ZM4.27591 4.62975C4.2015 4.94415 4.0911 5.39795 4.03054 5.63825L3.92044 6.07517L3.40818 6.14909C3.1264 6.18978 2.86766 6.24049 2.83318 6.26183C2.7939 6.2861 2.78212 6.25954 2.80164 6.1906C2.81882 6.13016 2.91732 5.66773 3.02063 5.16305L3.20836 4.24547L3.62599 4.15836C3.8557 4.11046 4.12628 4.06831 4.22736 4.06473L4.41111 4.05817L4.27591 4.62975ZM22.4638 5.93641C23.6262 6.02956 24.7104 6.16445 25.0334 6.25608C25.8835 6.49737 25.7987 6.43623 25.8807 6.86717C25.9211 7.07945 25.9685 7.31658 25.9861 7.39414C26.0146 7.51971 26.0027 7.53085 25.8775 7.49585C25.8002 7.47428 25.2815 7.39115 24.7248 7.31118C23.7328 7.16867 23.6401 7.1658 20.0637 7.16686C17.1739 7.16768 16.2439 7.14921 15.5938 7.07798C14.9417 7.00652 14.1043 6.99022 11.519 6.9986C9.72932 7.00435 7.88245 7.02833 7.41488 7.05178C6.67074 7.08918 4.96042 7.15196 3.6033 7.19171C3.36115 7.1988 3.10564 7.23533 3.03552 7.27285C2.9654 7.31036 2.83858 7.34108 2.75362 7.34108C2.63495 7.34108 2.60576 7.31734 2.62739 7.23849C2.64287 7.1821 2.67101 7.04357 2.68995 6.93072L2.72437 6.72554L3.35874 6.58889C3.7151 6.51209 4.28681 6.44027 4.66328 6.42503C5.03189 6.41014 5.37306 6.38394 5.42143 6.36688C5.49935 6.33938 7.10836 6.26294 8.96859 6.19828C12.9321 6.06057 15.5461 5.93799 16.3854 5.85058C16.7944 5.80796 21.7307 5.87767 22.4638 5.93641ZM15.7991 6.22724C15.7991 6.25948 15.8254 6.28586 15.8577 6.28586C15.8899 6.28586 15.9163 6.25948 15.9163 6.22724C15.9163 6.19499 15.8899 6.16861 15.8577 6.16861C15.8254 6.16861 15.7991 6.19499 15.7991 6.22724ZM12.0106 8.32303C11.9439 9.51085 11.9444 12.8184 12.0119 16.1537L12.065 18.7814L11.86 18.7429C11.5101 18.6773 11.1706 18.8106 10.8361 19.1451C10.4902 19.491 10.3729 19.8089 10.4257 20.2569C10.4898 20.7997 10.9034 21.2261 11.494 21.3582L11.8122 21.4294L11.8147 21.9916C11.8162 22.3009 11.842 22.8309 11.8721 23.1694C11.9348 23.8747 12.0148 25.3547 12.1064 27.5076C12.1414 28.3298 12.2214 29.635 12.2843 30.4081C12.3471 31.1812 12.3985 31.9163 12.3985 32.0417V32.2697L12.0027 32.2306C11.0033 32.1317 9.52323 31.9056 8.87507 31.7528L8.4884 31.6617L8.30337 30.332C8.04756 28.4938 7.95979 27.6978 7.8855 26.5403C7.83109 25.6938 7.75722 24.7177 7.5614 22.2608C7.35431 19.6616 7.23177 14.0372 7.35126 12.6157C7.46489 11.2645 7.63474 10.1086 7.91569 8.77531C8.05946 8.09293 8.17707 7.51842 8.17707 7.49855C8.17707 7.45458 8.94555 7.42843 10.7207 7.41208L12.0624 7.39971L12.0106 8.32303ZM15.4055 7.51238C15.6566 7.53882 15.873 7.5713 15.8863 7.5846C15.9129 7.61128 15.9904 8.39121 16.3102 11.8551C16.5187 14.113 16.5241 14.2387 16.528 16.8967C16.5309 18.9503 16.507 19.9553 16.4307 20.971C16.3751 21.7126 16.3009 22.8734 16.2658 23.5505C16.2044 24.735 16.1202 25.5775 15.8613 27.5955C15.7952 28.1114 15.6879 29.2062 15.6231 30.0284C15.5082 31.4848 15.4234 32.2408 15.3689 32.2953C15.3542 32.31 14.759 32.3033 14.0462 32.2803C12.9148 32.2438 12.7503 32.2266 12.7502 32.1447C12.7501 32.0931 12.7115 31.5365 12.6641 30.9077C12.5085 28.8398 12.4625 28.0273 12.3986 26.2178C12.3638 25.2344 12.2984 24.0341 12.2533 23.5505C12.208 23.0668 12.1532 22.3888 12.1314 22.0437L12.0917 21.4163L12.2598 21.3773C12.5457 21.3108 12.9101 21.0694 13.0388 20.8613C13.4449 20.2043 13.2187 19.2994 12.5611 18.9506C12.3096 18.8172 12.2968 18.7984 12.3225 18.6006C12.3376 18.4856 12.3237 17.0594 12.2918 15.4311C12.2375 12.6627 12.2693 9.8759 12.3755 8.0795L12.4168 7.38159L13.6828 7.42298C14.3792 7.44573 15.1543 7.486 15.4055 7.51238ZM7.73746 7.79542C7.50394 8.81259 7.27961 10.036 7.13714 11.0697C6.97813 12.2232 6.97643 12.2701 6.98048 15.3139C6.98476 18.5614 7.05635 20.3478 7.32582 23.9315C7.40462 24.9794 7.49737 26.2853 7.53202 26.8334C7.60115 27.9272 7.69484 28.7959 7.91986 30.4298C8.0013 31.0213 8.05958 31.5129 8.04926 31.5222C8.03894 31.5315 7.75347 31.4626 7.41488 31.369C7.07628 31.2755 6.44307 31.1137 6.00774 31.0094L5.21622 30.8198L4.96745 29.8818C4.69177 28.8426 4.59944 28.4131 4.25492 26.5696C3.97355 25.064 3.83061 24.0362 3.63537 22.1142C3.28915 18.7062 3.28634 18.6596 3.29115 16.3691C3.29789 13.1613 3.4281 11.0819 3.76828 8.74805L3.92635 7.66351L4.68855 7.61925C5.10776 7.59492 5.80693 7.5526 6.24226 7.52522C6.6776 7.49784 7.20955 7.47158 7.42432 7.46689L7.81492 7.45833L7.73746 7.79542ZM19.151 8.86529C19.7223 12.2052 19.7834 13.063 19.7842 17.7467C19.7849 21.6004 19.7243 22.6718 19.37 25.0747C19.0274 27.3986 18.7267 29.0229 18.2835 30.9439L18.0115 32.1233L17.5649 32.1599C17.3192 32.18 16.8067 32.214 16.4259 32.2354L15.7336 32.2743L15.7641 32.1333C15.8199 31.8755 15.9139 30.9509 16.005 29.7646C16.0545 29.1197 16.1596 28.0777 16.2385 27.4489C16.446 25.7962 16.5495 24.7184 16.5903 23.785C16.61 23.3336 16.6655 22.3575 16.7136 21.6159C16.9354 18.1909 16.9157 15.18 16.6521 12.2361C16.4758 10.2676 16.2833 8.24881 16.2356 7.86869L16.2026 7.60489H17.5689H18.9353L19.151 8.86529ZM22.849 8.46958C23.2307 10.0724 23.2928 10.6054 23.4548 13.6724C23.5595 15.6532 23.5445 18.8291 23.4229 20.4434C23.1472 24.1015 22.6889 27.8654 22.3373 29.3581C22.1721 30.0595 21.7858 31.3826 21.7278 31.4456C21.633 31.5488 20.0012 31.9083 19.2528 31.9908C18.795 32.0413 18.4088 32.0711 18.3948 32.057C18.3807 32.043 18.488 31.5083 18.6332 30.8687C19.0568 29.0032 19.3942 27.1501 19.6933 25.0454C20.0647 22.4329 20.1076 21.6145 20.0915 17.4536C20.0733 12.78 20.0176 12.0107 19.469 8.86529C19.3538 8.20431 19.2591 7.64376 19.2588 7.61954C19.2585 7.59533 20.0183 7.57558 20.9472 7.57558H22.6361L22.849 8.46958ZM24.4304 7.66322C25.7186 7.83393 25.9986 7.88335 26.0499 7.94895C26.0785 7.98541 26.12 8.14716 26.1421 8.30837C26.3584 9.88417 26.4213 10.4152 26.5238 11.5327C26.7891 14.4234 26.8577 16.4825 26.7672 18.8313C26.6151 22.7745 26.1594 26.8773 25.6506 28.8852L25.4278 29.7646L25.0922 29.9903C24.5864 30.3305 23.6498 30.7819 22.8787 31.0571C22.4998 31.1924 22.1898 31.2916 22.1898 31.2776C22.1898 31.2637 22.2807 30.9366 22.3918 30.5509C22.9513 28.6073 23.4029 25.1895 23.7851 20.0038C23.8966 18.4909 23.8797 14.5377 23.7532 12.5586C23.6324 10.6686 23.4945 9.62124 23.2142 8.46536C23.1023 8.00359 23.0106 7.61444 23.0106 7.60067C23.0106 7.5455 23.8065 7.58056 24.4304 7.66322ZM3.54525 7.77132C3.54525 7.81453 3.47917 8.32238 3.39844 8.89982C3.19581 10.3495 3.08888 11.4946 3.02116 12.9396C2.91269 15.2551 2.88912 17.0924 2.95279 18.2744C3.02549 19.6243 3.38953 23.6667 3.52033 24.5764C3.72484 25.9987 4.22085 28.6623 4.45373 29.5887C4.59151 30.1368 4.69717 30.5933 4.68849 30.6029C4.6753 30.6178 3.94177 30.3382 3.06765 29.9852L2.85394 29.8988L2.58318 28.5127C2.20149 26.558 1.97747 24.8868 1.69405 21.8797C1.5178 20.0095 1.66268 15.1409 1.99406 11.7965C2.07913 10.938 2.46317 8.1199 2.52162 7.92474C2.55756 7.80491 2.85734 7.71123 3.23745 7.70109C3.45966 7.69511 3.54525 7.71463 3.54525 7.77132ZM12.3588 19.4033C12.5796 19.5322 12.8065 19.9063 12.808 20.1434C12.8102 20.5448 12.3274 20.9417 11.8367 20.9417C11.1466 20.9417 10.5981 20.1345 10.9295 19.6066C11.0592 19.3999 11.2365 19.3052 11.607 19.2446C11.8741 19.201 12.0907 19.2467 12.3588 19.4033ZM25.2058 30.9072C25.1082 31.3589 25.0898 31.3928 24.8523 31.5561C24.7145 31.6509 24.5824 31.7284 24.5586 31.7284C24.5348 31.7284 24.2361 31.8563 23.8949 32.0126C23.4664 32.2089 23.0205 32.355 22.4536 32.4852C22.0022 32.5887 21.4745 32.7098 21.281 32.7542C20.521 32.9287 19.2305 33.1226 16.7371 33.4369C16.1334 33.513 11.6193 33.4652 11.2259 33.3785C10.8975 33.3061 9.97627 33.2087 9.20311 33.1646C8.32436 33.1144 7.984 33.049 6.29479 32.6053C4.92084 32.2443 4.66135 32.1565 3.98229 31.8224L3.21739 31.446L3.11156 30.9971C3.0534 30.7503 3.02092 30.5331 3.03945 30.5146C3.05798 30.496 3.39703 30.6016 3.79291 30.7493C4.58202 31.0435 5.84639 31.4353 6.00698 31.4353C6.06286 31.4353 6.62014 31.5768 7.24543 31.7498C8.51578 32.1011 8.47791 32.0926 9.61353 32.284C10.6676 32.4617 11.9202 32.6088 12.3692 32.6077C12.5626 32.6072 13.4597 32.6176 14.3626 32.6308C15.2655 32.644 16.2681 32.6325 16.5906 32.6053C19.4495 32.364 20.0967 32.2827 20.9879 32.0526C22.5054 31.6606 24.0085 31.1036 24.8868 30.6077C25.0964 30.4894 25.2771 30.4012 25.2884 30.4116C25.2996 30.4221 25.2624 30.6452 25.2058 30.9072ZM24.963 32.0948C24.8792 32.461 24.6846 33.1102 24.4969 33.6488L24.2874 34.2501L23.8689 34.4485C23.2406 34.7462 20.8937 35.435 20.8061 35.3474C20.7915 35.3328 20.9583 34.8236 21.1768 34.2158L21.5742 33.1108L22.5709 32.8648C23.3499 32.6725 23.7149 32.5476 24.2419 32.2929C24.6127 32.1137 24.9334 31.9662 24.9546 31.965C24.9757 31.9639 24.9795 32.0223 24.963 32.0948ZM4.13156 32.3688C4.47015 32.4986 4.85524 32.6318 4.98727 32.6648C5.22525 32.7242 5.22848 32.7286 5.35887 33.1792C5.43116 33.4292 5.58237 33.8801 5.69488 34.1813C5.80734 34.4825 5.89001 34.7382 5.87858 34.7497C5.86715 34.7611 5.52872 34.6674 5.12658 34.5415C4.72443 34.4156 4.28189 34.2837 4.14322 34.2485C4.0045 34.2133 3.88196 34.1529 3.87088 34.1143C3.8598 34.0757 3.75562 33.6439 3.6393 33.1546C3.52297 32.6655 3.41011 32.219 3.38841 32.1626C3.35969 32.0876 3.3716 32.0697 3.43245 32.0963C3.47836 32.1163 3.79297 32.2389 4.13156 32.3688ZM7.8587 33.3806L8.33203 33.449L8.51573 34.4185C8.61675 34.9517 8.69402 35.3934 8.68739 35.4C8.67068 35.4166 7.03483 35.0965 6.70274 35.0115L6.43029 34.9419L6.20902 34.3171C6.08736 33.9735 5.93 33.5064 5.85935 33.279L5.73088 32.8658L6.55816 33.089C7.01314 33.2117 7.59838 33.3429 7.8587 33.3806ZM21.1344 33.2087C21.1343 33.2743 20.3294 35.4254 20.2904 35.4645C20.2582 35.4968 18.7278 35.67 17.8359 35.7424L17.3223 35.7841L17.3772 35.6399C17.4073 35.5605 17.5424 35.103 17.6773 34.6233C17.8123 34.1435 17.943 33.729 17.9679 33.7022C17.9928 33.6753 18.2208 33.6287 18.4745 33.5985C19.2794 33.5027 20.6285 33.3074 20.8413 33.2558C21.0829 33.1972 21.1344 33.1889 21.1344 33.2087ZM9.78942 33.604C10.1764 33.6373 10.8096 33.7029 11.1966 33.7499C11.5835 33.7969 12.0347 33.8361 12.1993 33.8371L12.4984 33.8389L12.5378 34.4691C12.5594 34.8157 12.5937 35.2684 12.6141 35.4752L12.6511 35.8511L11.9239 35.8132C11.2386 35.7775 9.59611 35.5883 9.27787 35.5085C9.14202 35.4744 9.12243 35.4183 8.97492 34.6408C8.88815 34.1837 8.80301 33.7373 8.78577 33.649C8.75658 33.4999 8.76631 33.4903 8.9201 33.5159C9.01127 33.5311 9.40246 33.5707 9.78942 33.604ZM17.558 33.7984C17.558 33.8646 16.9802 35.7856 16.9524 35.8116C16.918 35.844 15.2127 35.8538 15.2127 35.8217C15.2129 35.6893 15.3473 34.7862 15.4316 34.3518L15.5311 33.8389L16.0608 33.8325C16.3522 33.829 16.7489 33.8065 16.9424 33.7825C17.4921 33.7143 17.558 33.716 17.558 33.7984ZM15.1527 33.8829C15.1519 33.9071 15.1265 34.0323 15.0962 34.1613C15.0658 34.2903 14.999 34.686 14.9477 35.0407C14.8067 36.0153 14.9382 35.9138 13.8722 35.8705C13.368 35.85 12.953 35.8329 12.9498 35.8326C12.9467 35.8323 12.9267 35.4853 12.9052 35.0615C12.8838 34.6378 12.8499 34.1893 12.8301 34.0649L12.7939 33.8389H13.974C14.623 33.8389 15.1535 33.8586 15.1527 33.8829ZM5.32534 35.0917C6.42267 35.4606 6.7897 35.552 8.27845 35.8269C10.1961 36.181 11.2079 36.298 12.9262 36.3643C14.9233 36.4414 16.8481 36.3725 18.9944 36.1474C19.4781 36.0967 19.9794 36.0471 20.1084 36.0372C20.6484 35.9955 22.0979 35.6412 23.1865 35.2847C23.6218 35.1421 23.9813 35.0289 23.9854 35.0331C23.9893 35.0373 23.8789 35.2753 23.74 35.562C23.4668 36.1257 23.5447 36.0567 22.5709 36.5977C22.1225 36.8467 21.2766 37.0518 19.0531 37.4502C18.7951 37.4964 17.7397 37.6111 16.7078 37.705C14.8633 37.8729 14.7951 37.8749 12.6623 37.8255C10.6989 37.7799 10.4262 37.7613 9.78942 37.6297C8.38744 37.3399 6.84721 36.9176 5.81232 36.5391C4.84351 36.1849 4.50363 36.0158 4.26072 35.7674C4.10347 35.6066 4.07293 35.5306 4.07293 35.3007C4.07293 35.1496 4.05651 34.9439 4.0364 34.8435L3.99988 34.6609L4.25626 34.7397C4.39727 34.7831 4.87834 34.9415 5.32534 35.0917Z" fill="white"/>
</svg>
