<svg width="34" height="43" viewBox="0 0 34 43" fill="none" xmlns="http://www.w3.org/2000/svg">
<path fill-rule="evenodd" clip-rule="evenodd" d="M14.0387 0.688453C13.6994 0.809512 13.2724 1.21904 13.0378 1.64845L12.8588 1.97627L12.5175 1.74136C12.0563 1.42405 11.7411 1.3303 11.2914 1.37672C10.7727 1.43028 10.3037 1.67954 10.052 2.03529C9.8655 2.29897 9.72643 2.36745 9.72643 2.1957C9.72643 2.05966 9.15526 1.23332 9.00843 1.15693C8.69894 0.995895 8.14471 0.866925 7.75893 0.866225C7.3143 0.865385 6.53212 1.15168 6.09113 1.47677C5.71536 1.75383 5.15238 2.39049 4.97566 2.7384C4.89244 2.9021 4.81714 3.03597 4.80811 3.03597C4.79915 3.03597 4.57155 2.97295 4.30238 2.89594C3.74786 2.73728 2.75404 2.70668 2.37064 2.83642C2.01756 2.95587 1.22858 3.5013 0.912378 3.84452C0.167008 4.65342 0.307614 6.00166 1.2192 6.78718C1.60113 7.11626 1.61743 7.14384 1.57796 7.39338C1.45681 8.15867 1.39249 9.29447 1.32706 11.8231C1.28716 13.3634 1.20759 15.0333 1.1502 15.5339C1.08966 16.0624 1.01869 17.6922 0.981036 19.4199C0.945413 21.0565 0.868846 23.0572 0.810896 23.8659C0.692127 25.5243 0.607861 27.1298 0.445139 30.8326C0.316291 33.7651 0.347017 35.2481 0.570908 36.9069L0.724601 38.0458L0.431352 38.3277C0.103949 38.6424 0.0956903 38.6694 0.240985 38.9504C0.372422 39.2047 0.736429 39.4869 1.39788 39.8475C2.10574 40.2333 2.48661 40.371 3.88245 40.746C6.05858 41.3306 6.25553 41.3858 7.31185 41.7075C9.74477 42.4482 12.3524 42.6498 15.28 42.3232C18.5152 41.9623 20.2431 41.6372 22.2452 41.013C23.0365 40.7662 24.8926 39.8858 25.137 39.6414C25.3173 39.461 25.294 39.2541 25.0679 39.0279L24.8721 38.832L24.8836 37.0203C24.8899 36.0239 24.8757 34.8035 24.8519 34.3083L24.8088 33.408L25.2287 33.0706C25.4597 32.885 25.8691 32.5425 26.1386 32.3094C26.408 32.0763 26.9229 31.6585 27.2828 31.381C27.6427 31.1035 27.983 30.8064 28.0391 30.7208C28.0952 30.6352 28.2885 30.4503 28.4685 30.3099C29.0592 29.8495 30.2323 28.5061 30.8553 27.5768C31.7081 26.3047 32.6752 24.4154 32.988 23.4108C33.5529 21.5965 33.7614 20.1846 33.7115 18.5096C33.6543 16.5824 33.389 15.4302 32.6763 14.0142C32.027 12.7239 30.9035 11.115 30.207 10.4783C29.9013 10.1987 29.8366 10.1051 29.9081 10.0458C29.9583 10.0041 30.0885 9.80616 30.1974 9.60591C30.3495 9.32633 30.397 9.14303 30.4017 8.81696C30.4071 8.44125 30.3807 8.3545 30.1722 8.06477C30.0426 7.88462 29.8378 7.69557 29.7173 7.64467C29.3673 7.49687 28.6486 7.55568 28.2428 7.76538C27.7783 8.0054 27.0523 8.09117 26.1908 8.00778C25.536 7.94441 25.1827 7.86417 23.9807 7.50555L23.4326 7.34199L23.4558 6.66059C23.4767 6.04661 23.4946 5.9682 23.6369 5.86863C23.8829 5.69646 24.0234 5.36731 23.9708 5.08669C23.9149 4.78863 23.4368 4.25111 23.1768 4.19418C22.9978 4.15491 22.9902 4.13572 23.0126 3.77766C23.0777 2.73938 21.9218 2.0521 20.7706 2.44447C20.4715 2.54641 20.4254 2.54424 20.0255 2.40946C19.791 2.33041 19.4957 2.26558 19.3695 2.26523C19.1756 2.26481 19.1152 2.22168 18.9822 1.98866C18.6457 1.39912 18.0412 1.1666 17.3183 1.34871L16.9982 1.42937L16.5889 1.10771C16.3638 0.930781 16.0297 0.740895 15.8464 0.685722C15.4264 0.559272 14.3967 0.560813 14.0387 0.688453ZM15.8504 1.22394C16.2676 1.33968 16.793 1.72064 17.1242 2.14753L17.4182 2.52653L17.2337 2.61062C16.9055 2.76024 16.5152 3.11264 16.5152 3.25939C16.5152 3.36757 16.5442 3.38864 16.6377 3.34873C17.1042 3.14947 17.6698 2.97197 18.0802 2.89601C19.0837 2.71032 20.3322 2.95363 20.713 3.40916C21.0688 3.83472 21.2157 3.96292 21.2773 3.9013C21.3429 3.8357 20.9842 3.01111 20.8555 2.93157C20.7063 2.83929 20.8729 2.7559 21.2066 2.7559C21.5846 2.7559 22.1878 2.99123 22.4459 3.2393C22.7479 3.52966 22.759 4.08769 22.4642 4.15666C22.1514 4.22982 22.2555 4.39765 22.6392 4.43896C23.076 4.48594 23.274 4.59356 23.4475 4.87839C23.6331 5.18275 23.6192 5.32215 23.3794 5.56196C23.1577 5.78384 22.7875 5.83859 22.5429 5.68575C22.4319 5.61643 22.3747 5.64787 22.1414 5.90651C21.8427 6.23762 21.5148 6.40993 21.2936 6.35203C21.215 6.33151 21.0035 6.14408 20.8236 5.93564C20.6437 5.72713 20.4511 5.55657 20.3955 5.55657C20.2681 5.55657 20.269 5.59235 20.4009 5.79385C20.503 5.94978 20.4961 5.96364 20.2275 6.14149C20.0736 6.24336 19.8658 6.32675 19.7658 6.32675C19.5862 6.32675 19.2744 6.07469 19.1279 5.81115C19.0182 5.61391 18.7976 5.76774 18.694 6.11383C18.6059 6.40783 18.1012 7.03826 17.7812 7.25398C17.5198 7.43021 17.1941 7.40914 16.9456 7.2C16.7356 7.02327 16.4765 6.39222 16.4311 5.94705C16.4196 5.83453 16.366 5.72783 16.3119 5.71004C16.231 5.68344 16.2209 5.77299 16.2546 6.21927L16.2956 6.76085L15.8642 7.22646C15.3548 7.77616 14.9274 8.14718 14.8033 8.14718C14.6479 8.14718 14.3456 7.86242 14.2447 7.62094C14.176 7.45647 14.1094 7.39485 14.019 7.41201C13.9484 7.42538 13.8731 7.43868 13.8517 7.44162C13.8302 7.44464 13.7592 7.56828 13.6938 7.71644C13.6285 7.86459 13.4155 8.12044 13.2205 8.28491C12.9081 8.54845 12.8363 8.57918 12.6164 8.54348C12.4691 8.51953 12.2292 8.38692 12.0313 8.22007C11.6963 7.93741 11.4752 7.85948 11.4772 8.02465C11.4777 8.07282 11.5236 8.2382 11.5791 8.39224C11.7212 8.78692 11.7105 9.45467 11.5547 9.90768C11.3439 10.5206 10.9562 11.3168 10.6459 11.7739C10.3657 12.1866 10.348 12.1991 9.97678 12.2455C9.43087 12.3137 9.02487 12.1459 8.71924 11.7255C8.37945 11.2581 8.25431 10.9835 8.2098 10.6075L8.17039 10.2747L8.45021 10.1909C8.72148 10.1095 8.9446 9.93233 8.86985 9.85748C8.84962 9.83731 8.56953 9.874 8.24745 9.93905C7.51391 10.0871 7.19168 10.0156 6.7474 9.60591C6.41517 9.29945 6.33027 9.04892 6.4214 8.64381C6.46556 8.44741 6.52393 8.38839 6.75139 8.30955C7.15144 8.17099 7.83676 7.46172 7.83676 7.18634C7.83676 7.00101 7.6487 7.13005 7.29254 7.55981C6.88283 8.05427 6.64501 8.14718 5.78885 8.14718C4.88293 8.14718 4.11124 7.80697 3.73821 7.24313L3.56352 6.97903L3.66206 6.21654C3.76515 5.41947 3.75521 5.2765 3.59683 5.2765C3.41962 5.2765 3.08655 6.14205 3.06646 6.65457C3.05261 7.00808 2.91907 7.06648 2.38604 6.95214C2.07138 6.88464 1.99509 6.82744 1.63955 6.39278C1.20521 5.86163 1.12213 5.62686 1.11961 4.92264C1.11821 4.5358 1.14929 4.41488 1.31754 4.15245C1.55228 3.78648 1.97808 3.38213 2.31388 3.20632C2.87477 2.91274 4.34437 3.03226 5.10017 3.43289C5.26947 3.52266 5.4506 3.5961 5.5026 3.5961C5.66385 3.5961 5.60695 3.46979 5.38719 3.33991C5.27171 3.27165 5.17722 3.19533 5.17722 3.17019C5.17722 3.14513 5.42134 2.88102 5.71963 2.58338C6.15061 2.15341 6.39214 1.97886 6.89514 1.73387C7.57186 1.40437 7.7842 1.37202 8.41073 1.50324C8.93907 1.61393 9.38895 2.09243 9.58562 2.75296C9.66302 3.01321 9.72643 3.29363 9.72643 3.37611C9.72643 3.46272 9.77073 3.52609 9.83141 3.52609C9.94157 3.52609 9.96621 3.42344 9.94234 3.06447C9.93227 2.91253 9.99756 2.75569 10.1611 2.53934C10.483 2.11308 10.8292 1.95603 11.4486 1.95526C11.8769 1.9547 12.0115 1.98782 12.4173 2.19388C12.6794 2.32705 13.1575 2.67503 13.4946 2.97821C13.8279 3.27795 14.1396 3.52385 14.1871 3.52462C14.323 3.52693 14.0655 3.15157 13.577 2.63561L13.1432 2.17729L13.587 1.72904C13.831 1.48251 14.1252 1.25321 14.2406 1.21946C14.5447 1.13068 15.5238 1.13341 15.8504 1.22394ZM18.2299 1.76797C18.3839 1.83904 18.582 1.97564 18.6701 2.07142L18.8303 2.24562L18.4601 2.28637C18.2565 2.30878 17.9936 2.34757 17.8758 2.37256C17.6826 2.41359 17.6434 2.39028 17.4734 2.13332C17.3699 1.97676 17.2851 1.81838 17.2851 1.78141C17.2851 1.74437 17.4033 1.70173 17.5476 1.68661C17.692 1.67156 17.8415 1.65454 17.88 1.64894C17.9185 1.64334 18.076 1.6969 18.2299 1.76797ZM14.4477 2.48053C14.3865 2.5796 14.4628 2.64836 14.6489 2.66187C14.7323 2.66789 14.8714 2.6952 14.958 2.7225C15.1341 2.7781 15.1787 2.63708 15.0315 2.48984C14.9274 2.38573 14.5104 2.37907 14.4477 2.48053ZM18.9551 3.8712C18.8307 3.97286 18.8096 4.02642 18.8698 4.08776C18.9306 4.14965 18.9871 4.14923 19.1057 4.08573C19.2365 4.01571 19.2935 4.02593 19.4603 4.1493C19.7072 4.33191 19.9646 4.34661 19.9318 4.17619C19.9018 4.0204 19.479 3.73614 19.2772 3.73614C19.1909 3.73614 19.0459 3.79691 18.9551 3.8712ZM2.41061 4.43861C2.31129 4.5484 2.27532 4.69249 2.2742 4.9846C2.27294 5.33349 2.2903 5.38405 2.41789 5.40225C2.54841 5.42095 2.56255 5.38846 2.55786 5.08059C2.55191 4.68892 2.66613 4.50632 2.91704 4.50632C3.18285 4.50632 3.07038 4.33457 2.78868 4.31034C2.61147 4.29515 2.50894 4.32995 2.41061 4.43861ZM14.2178 4.80837C14.0582 4.97844 14.0106 5.2765 14.1431 5.2765C14.1856 5.2765 14.285 5.19451 14.3638 5.09425C14.4881 4.93615 14.5429 4.91767 14.7763 4.95505C14.9736 4.98656 15.0455 4.97354 15.0455 4.90625C15.0455 4.61134 14.4671 4.54294 14.2178 4.80837ZM6.99691 4.75481C6.93917 4.76706 6.77477 4.79619 6.6315 4.8195C6.30123 4.87335 5.94709 5.16524 5.94709 5.38363C5.94709 5.62994 6.0471 5.645 6.21094 5.42333C6.36674 5.21251 6.78708 5.06645 7.23788 5.06645C7.53854 5.06645 7.58222 4.88924 7.3073 4.78463C7.20855 4.74711 7.12198 4.72001 7.11484 4.72449C7.1077 4.72897 7.05465 4.74262 6.99691 4.75481ZM22.8909 6.1167H23.0795L23.0485 7.11444C23.0313 7.66316 23.0589 8.74855 23.1097 9.52637L23.2022 10.9406L22.7457 11.0163C22.4947 11.0578 22.1167 11.0989 21.9058 11.1074L21.5223 11.1229L21.4732 10.7378C21.4461 10.526 21.3885 9.67529 21.3452 8.84735C21.2594 7.21015 21.2345 7.0001 21.1333 7.06263C21.0935 7.08727 21.0813 7.40844 21.1033 7.85318C21.165 9.09948 21.2785 10.7596 21.3177 10.9857L21.3545 11.1986L20.3651 11.2904C19.821 11.341 19.3575 11.364 19.3351 11.3416C19.2849 11.2913 19.1408 6.61753 19.188 6.57027C19.2067 6.5515 19.3246 6.58735 19.4498 6.64988C19.5939 6.72178 19.7742 6.75063 19.9403 6.72829L20.203 6.69308L20.2535 8.03277C20.3116 9.57335 20.3609 9.9784 20.4961 10.0233C20.5753 10.0496 20.5843 9.95046 20.5466 9.46882C20.5213 9.14625 20.4697 8.34792 20.4319 7.69473C20.3656 6.55024 20.3682 6.502 20.5039 6.36638L20.6445 6.22558L20.7511 6.37779C20.9415 6.64967 21.0648 6.74055 21.3045 6.78557C21.6563 6.8516 22.129 6.61739 22.3653 6.26009C22.4977 6.05992 22.5789 5.9934 22.6294 6.04388C22.6694 6.08393 22.7871 6.1167 22.8909 6.1167ZM10.4088 6.82247C10.1789 6.95641 10.2693 7.08132 10.6188 7.11269C10.9544 7.14279 11.3245 7.06192 11.2396 6.97699C11.1836 6.92098 10.6986 6.74853 10.6013 6.75C10.5628 6.75063 10.4761 6.78319 10.4088 6.82247ZM18.9568 9.98379L18.9648 11.4353L18.8073 11.4673C18.7207 11.4849 18.4408 11.5176 18.1854 11.5398C17.7997 11.5734 17.7136 11.5613 17.678 11.4683C17.6544 11.4069 17.6351 10.6318 17.6351 9.74601C17.6351 8.48872 17.6159 8.14193 17.5476 8.16476C17.4808 8.18702 17.4601 8.59312 17.4601 9.87841V11.5629L17.1101 11.6039C16.9177 11.6264 16.2642 11.6662 15.6579 11.6923L14.5556 11.7398V10.5139C14.5556 9.83962 14.5361 9.10102 14.5122 8.87248L14.4687 8.45694L14.7424 8.48305C14.9864 8.50637 15.0706 8.46639 15.5207 8.11414C15.7982 7.89687 16.0262 7.69725 16.0274 7.67058C16.0285 7.6439 16.1256 7.51633 16.243 7.38701L16.4566 7.15203L16.5704 7.317C16.8483 7.72008 17.0572 7.86712 17.352 7.86712C17.5101 7.86712 17.7413 7.82461 17.8656 7.77259C18.0909 7.67842 18.8141 6.94934 18.8367 6.79369C18.8692 6.56887 18.9498 8.70871 18.9568 9.98379ZM2.83669 7.33247C3.15255 7.27338 3.1671 7.27869 3.4607 7.56065C3.62608 7.71945 3.93032 7.92922 4.13686 8.02689C4.52039 8.20831 5.42778 8.42725 5.79599 8.42725H6.0007L5.89824 8.72475C5.80257 9.00257 5.80614 9.04718 5.95171 9.39852C6.09365 9.74118 6.10379 9.84978 6.06537 10.615C6.04213 11.0772 6.01183 11.4666 5.99797 11.4804C5.98418 11.4942 5.77807 11.4712 5.54004 11.4293L5.10724 11.353L5.08974 10.7128C5.08015 10.3607 5.07224 9.80749 5.07224 9.48345C5.07224 9.11215 5.04334 8.8846 4.99414 8.86807C4.8641 8.82452 4.81819 9.37954 4.86963 10.372L4.91813 11.3082L4.64525 11.2619C4.09311 11.1683 4.12741 11.2242 4.12741 10.418C4.12741 9.83493 4.10739 9.68755 4.02838 9.68755C3.95622 9.68755 3.91604 9.82982 3.88021 10.2125C3.8532 10.5011 3.84662 10.8189 3.86565 10.9185C3.89568 11.0757 3.88056 11.0945 3.75136 11.0597C3.66948 11.0377 3.53167 11.0193 3.44503 11.0188C3.31002 11.018 3.28748 10.9805 3.28692 10.7553C3.28566 10.1954 3.20091 9.75756 3.09383 9.75756C3.00753 9.75756 2.99521 9.85377 3.02202 10.3177C3.05897 10.9565 3.06436 10.952 2.47633 10.7736C2.28736 10.7162 2.04765 10.669 1.94372 10.6685L1.75461 10.6678L1.78499 10.0901C1.80171 9.77241 1.83216 9.08715 1.85273 8.56728C1.87331 8.04741 1.90823 7.53951 1.93035 7.43861C1.96884 7.26336 1.98284 7.25825 2.24201 7.324C2.40641 7.3658 2.64087 7.36909 2.83669 7.33247ZM22.2148 8.36682C22.3065 9.91832 22.3391 10.2477 22.4005 10.2477C22.4718 10.2477 22.4741 9.19113 22.4048 8.29275C22.3741 7.89505 22.3287 7.69312 22.2656 7.67219C22.1896 7.64712 22.18 7.77819 22.2148 8.36682ZM14.177 8.12275C14.253 8.29282 14.2756 8.72811 14.2756 10.0208V11.6981L13.8454 11.7431C13.6089 11.7678 12.9469 11.788 12.3745 11.788H11.3338L11.5164 11.4274C11.8699 10.7297 12.1276 9.67389 12.0631 9.18784L12.018 8.84693L12.2697 8.95216C12.6189 9.09815 12.9917 9.08414 13.2274 8.91624C13.4872 8.73119 13.9018 8.16202 13.9674 7.90023C13.998 7.77847 14.0315 7.73618 14.0488 7.79766C14.065 7.85507 14.1226 8.00141 14.177 8.12275ZM24.1492 8.11546C24.8664 8.36157 25.6903 8.54628 26.3135 8.60068C26.8243 8.64528 27.27 8.57484 28.7281 8.21902C29.1126 8.1252 29.4471 8.19787 29.5825 8.40456C29.7571 8.67119 29.5974 9.45222 29.3001 9.78578C29.0926 10.0186 29.0483 10.0359 28.6231 10.0495C28.3729 10.0575 27.9514 10.0376 27.6864 10.0052C27.2908 9.9569 27.2104 9.96355 27.2366 10.0424C27.2885 10.1979 28.1014 10.333 28.7057 10.2865L29.2432 10.2452L29.5455 10.6063C29.7119 10.8049 29.9456 11.0812 30.065 11.2202C31.1038 12.4303 32.1632 14.1595 32.654 15.4463C33.0545 16.496 33.1335 17.0708 33.1331 18.9297C33.1327 20.5152 33.1243 20.6156 32.9033 21.6862C32.4465 23.8995 31.5605 25.8689 30.1541 27.7963C29.371 28.8696 27.9398 30.3156 26.56 31.4277C25.9867 31.8898 25.3544 32.417 25.1548 32.5992L24.7919 32.9305L24.7484 32.6342C24.7245 32.4712 24.6849 31.8338 24.6604 31.2177L24.6158 30.0974L24.8523 29.963C25.2846 29.7173 26.4793 28.6894 27.1884 27.9528C28.9502 26.1229 30.1909 24.1115 30.7457 22.1855C31.0592 21.097 31.1495 20.4858 31.1491 19.4549C31.1482 17.2252 30.3127 15.2738 28.6611 13.6435C27.5425 12.5394 26.1455 11.6792 24.3889 11.0129L23.689 10.7474L23.6073 9.84992C23.5086 8.76613 23.4932 7.93713 23.5718 7.93713C23.6035 7.93713 23.8633 8.01737 24.1492 8.11546ZM16.6891 8.44034C16.6285 8.59781 16.6758 10.2921 16.7427 10.3587C16.8555 10.4711 16.8798 10.2932 16.8695 9.43458C16.8588 8.55986 16.7897 8.17904 16.6891 8.44034ZM15.7914 8.54978C15.7737 8.57869 15.7851 9.16536 15.8168 9.85356C15.8686 10.9792 15.9351 11.3606 16.0479 11.178C16.069 11.1438 16.0677 10.5267 16.045 9.80658C16.0136 8.80702 15.9825 8.49726 15.9137 8.49726C15.8642 8.49726 15.8091 8.52086 15.7914 8.54978ZM10.8812 9.40748C10.8574 9.44599 10.8537 9.50284 10.8728 9.53379C10.8919 9.56474 10.8774 9.72431 10.8405 9.88836C10.7586 10.2531 10.8131 10.3694 10.9906 10.2088C11.1582 10.057 11.2891 9.66017 11.2315 9.47862C11.185 9.33186 10.9566 9.28551 10.8812 9.40748ZM7.48115 10.3177H7.94174L7.94216 10.7553C7.94244 11.0945 7.98024 11.2537 8.1102 11.4634L8.27782 11.7338L8.07479 11.6949C7.96316 11.6736 7.53322 11.6355 7.11939 11.6103L6.36702 11.5646V10.7756V9.98666L6.69379 10.1522C6.93889 10.2763 7.13583 10.3177 7.48115 10.3177ZM8.84186 10.913C8.81967 10.9708 8.82121 11.0968 8.84536 11.193C8.87986 11.3306 8.93375 11.3679 9.09787 11.3679C9.33737 11.3679 9.34773 11.3322 9.19641 11.0286C9.07947 10.7942 8.90876 10.7385 8.84186 10.913ZM2.90262 11.4107C3.49325 11.5223 4.25444 11.6817 4.7223 11.7915C5.28466 11.9237 6.35876 12.0617 7.47513 12.1452C8.53587 12.2246 8.62566 12.2421 8.72155 12.3886C8.92164 12.694 9.76927 12.908 10.2563 12.7758C10.4076 12.7349 10.6131 12.625 10.7131 12.5318C10.8877 12.369 10.9457 12.3606 12.1829 12.3198C15.6449 12.2054 17.5299 12.0831 19.3148 11.8572C19.9114 11.7817 20.935 11.6555 21.5894 11.5769C22.2438 11.4982 22.8794 11.4065 23.0018 11.3729C23.1811 11.3238 23.2332 11.3343 23.2691 11.4275C23.3087 11.53 23.4345 14.1026 23.4414 14.9501L23.444 15.2766L23.1639 15.3239C23.0098 15.3499 22.813 15.3823 22.7265 15.3959C22.64 15.4095 22.4432 15.452 22.2892 15.4905C21.9256 15.5813 19.3318 15.897 18.4749 15.9547C18.1092 15.9793 16.6696 16.1232 15.2758 16.2744C13.1462 16.5053 12.5092 16.549 11.2865 16.5477C9.53369 16.546 8.08074 16.4584 6.71696 16.2723C6.1588 16.1962 5.025 16.0846 4.1974 16.0244C2.83557 15.9254 1.72725 15.7862 1.6532 15.7049C1.63773 15.6879 1.65096 15.2486 1.68273 14.7287C1.71444 14.2089 1.74208 13.1784 1.74411 12.4388L1.74782 11.0941L2.04527 11.1995C2.2089 11.2574 2.59467 11.3525 2.90262 11.4107ZM24.3154 11.6092C24.8935 11.8268 26.1656 12.4767 26.7433 12.8496C29.136 14.3937 30.5837 16.8813 30.5825 19.4465C30.5815 21.5942 29.51 24.2498 27.7691 26.4198C27.1631 27.175 25.5943 28.7923 24.9182 29.3585L24.5638 29.6553L24.5617 26.6556C24.5603 24.5685 24.5292 23.3577 24.4594 22.6756C24.4043 22.1365 24.3257 20.9707 24.2849 20.085C24.2441 19.1993 24.178 17.8602 24.138 17.1093C24.098 16.3584 24.0207 14.846 23.9662 13.7485C23.9117 12.651 23.847 11.6822 23.8224 11.5955C23.7671 11.4008 23.7616 11.4006 24.3154 11.6092ZM21.0662 13.167C20.9809 13.2755 20.9266 13.4318 20.9386 13.5346C20.9845 13.9283 21.8343 13.7079 21.8343 13.3023C21.8343 12.9341 21.3205 12.8437 21.0662 13.167ZM3.4192 13.397C3.35691 13.4345 3.26656 13.5602 3.21841 13.6764C3.14513 13.8535 3.14863 13.9147 3.23996 14.0542C3.36153 14.2397 3.67725 14.3298 3.86117 14.2313C4.12363 14.0908 4.15372 13.4003 3.8975 13.3974C3.85075 13.397 3.74947 13.3813 3.67249 13.3627C3.5955 13.3441 3.48156 13.3595 3.4192 13.397ZM7.93034 13.7119C7.63961 13.9156 7.66571 14.385 7.97317 14.4826C8.13652 14.5344 8.50214 14.3596 8.56316 14.2005C8.73855 13.7433 8.3327 13.4299 7.93034 13.7119ZM16.8003 13.793C16.6114 14.0331 16.6173 14.1405 16.8268 14.2778C17.2162 14.5331 17.7075 14.041 17.3851 13.7185C17.2187 13.552 16.9643 13.5844 16.8003 13.793ZM11.841 14.2143C11.7452 14.5269 11.8321 14.7287 12.0626 14.7287C12.2586 14.7287 12.456 14.5265 12.456 14.3257C12.456 14.133 12.2762 13.9586 12.0777 13.9586C11.9567 13.9586 11.9012 14.0186 11.841 14.2143ZM23.5396 16.2516C23.5648 16.5886 23.6171 17.8118 23.6558 18.9698C23.6946 20.1279 23.7605 21.4512 23.8023 21.9105C23.8442 22.3699 23.8937 23.931 23.9125 25.3797L23.9466 28.0138L23.7128 28.0969C23.4771 28.1807 22.0414 28.382 21.6795 28.382H21.4844L21.4821 27.7343C21.481 27.3782 21.4343 26.6771 21.3785 26.1765C21.3227 25.6758 21.2417 23.9744 21.1986 22.3956C21.1553 20.8167 21.1069 19.5112 21.0911 19.4946C21.0027 19.4018 20.9149 19.6661 20.9042 20.0575C20.885 20.7554 21.0609 25.1235 21.1365 25.8264C21.1738 26.173 21.2244 26.8991 21.2491 27.4401L21.2939 28.4236L20.8509 28.5061C20.6072 28.5514 20.3982 28.579 20.3866 28.5675C20.3046 28.4854 20.2303 26.8579 20.2373 25.3013C20.2429 24.0901 20.2065 23.0082 20.1326 22.1855C20.0703 21.4923 20.0017 20.0588 19.9801 18.9998C19.9585 17.9408 19.9244 16.8932 19.9043 16.6717L19.8677 16.2691L20.1686 16.2653C20.3341 16.2632 20.7254 16.2229 21.0381 16.1758L21.6066 16.0901L21.6423 16.6632C21.6798 17.2639 21.7265 17.421 21.8457 17.3473C21.8912 17.3191 21.9005 17.1079 21.8712 16.7685C21.8172 16.1432 21.8758 16.0259 22.2717 15.9669L22.5342 15.9278L22.5328 16.6061C22.532 16.9791 22.5695 18.269 22.6162 19.4724C22.6825 21.1855 22.7208 21.6604 22.7925 21.6604C22.863 21.6604 22.8835 21.4703 22.8815 20.8377C22.8784 19.8596 22.7693 17.1533 22.7028 16.4042L22.6558 15.8742L23.0324 15.7647C23.2395 15.7045 23.4282 15.6516 23.4515 15.6471C23.4748 15.6426 23.5145 15.9147 23.5396 16.2516ZM2.39087 16.2424C2.5783 16.2782 2.57886 16.2802 2.55394 16.8164C2.53085 17.3129 2.50579 18.9187 2.51412 19.3673C2.51608 19.4732 2.5447 19.5599 2.57767 19.5599C2.65248 19.5599 2.83914 17.2999 2.81318 16.7081L2.79407 16.2719L2.98836 16.3017C3.33935 16.3556 5.6397 16.6186 5.76365 16.619C5.79851 16.6191 5.80642 17.4599 5.78185 18.5622C5.75812 19.6307 5.7183 22.3562 5.69346 24.6186C5.66854 26.881 5.62886 28.7321 5.6052 28.7322C5.58154 28.7323 5.13698 28.6717 4.61732 28.5976C4.09766 28.5233 3.30029 28.4234 2.84544 28.3754L2.0184 28.2882L2.06179 27.4424C2.14423 25.8374 2.2222 22.871 2.18686 22.6861C2.15179 22.5026 2.06956 22.4464 2.00027 22.5585C1.9806 22.5903 1.94834 23.1811 1.9286 23.8713C1.90886 24.5615 1.87079 25.8307 1.84399 26.6918L1.79527 28.2574L1.52078 28.2205C1.36982 28.2003 1.23572 28.1731 1.22277 28.1601C1.19513 28.1325 1.36443 24.5512 1.46542 23.0257C1.5037 22.4481 1.53562 20.7585 1.53639 19.2711C1.53723 17.7836 1.55795 16.4662 1.58251 16.3433C1.63052 16.103 1.64823 16.1009 2.39087 16.2424ZM19.5827 18.4546C19.5895 19.6658 19.6419 21.1399 19.7054 21.9029C19.7679 22.6535 19.8281 24.3216 19.8434 25.7214C19.8583 27.0884 19.8793 28.3167 19.8901 28.4509L19.9097 28.6949L19.5247 28.7403C19.313 28.7653 18.7178 28.8043 18.202 28.8271L17.2643 28.8685L17.3082 28.1176C17.3324 27.7046 17.3735 26.3663 17.3996 25.1437C17.4419 23.1675 17.4352 22.9207 17.3393 22.9207C17.1682 22.9207 17.1471 23.1349 17.1461 24.8875C17.1456 25.7959 17.1244 27.0641 17.0992 27.7056L17.0532 28.8721H16.1304H15.2076L15.1597 27.2092C15.0897 24.783 14.8482 18.3802 14.7956 17.5592L14.7505 16.8537L15.5454 16.7655C17.6418 16.5328 18.7229 16.4296 18.7549 16.4591C18.7741 16.477 18.792 17.4576 18.7945 18.6383C18.7998 21.0204 18.7971 20.9602 18.8948 20.9602C18.94 20.9602 18.9648 20.1565 18.9648 18.6891V16.418L19.1923 16.3897C19.3174 16.3743 19.4538 16.3565 19.4953 16.3503C19.5478 16.3426 19.5746 16.9856 19.5827 18.4546ZM7.34685 16.8649C7.71253 16.9216 8.4684 16.9886 9.02655 17.0138L10.0414 17.0597V17.9071C10.0414 20.2369 10.1562 28.6556 10.1906 28.8497L10.2301 29.0724L9.6808 29.0399C7.97107 28.939 7.97835 28.9401 7.94594 28.7783C7.92928 28.6951 7.89744 27.9811 7.87519 27.1917C7.80695 24.7695 7.76096 24.181 7.64003 24.181C7.54785 24.181 7.54022 24.3817 7.57956 25.7739C7.60433 26.65 7.64584 27.7248 7.67187 28.1624L7.71911 28.9581L7.51545 28.9142C7.40347 28.8902 7.03323 28.8648 6.69274 28.858L6.07363 28.8455L6.11359 28.4212C6.13564 28.1878 6.1623 25.4685 6.17287 22.3781L6.19205 16.7592L6.43701 16.7605C6.57173 16.7612 6.98116 16.8082 7.34685 16.8649ZM14.4864 17.827C14.4869 18.3373 14.5172 19.6842 14.5538 20.8202C14.5903 21.9562 14.6529 24.0515 14.6928 25.4763C14.7328 26.9011 14.7821 28.2639 14.8024 28.5045L14.8395 28.9421H14.0851C13.3517 28.9421 13.3306 28.9378 13.3236 28.7846C13.3064 28.4088 13.0763 24.7622 13.0155 23.9046C12.9788 23.3867 12.9275 22.1973 12.9013 21.2615C12.8635 19.9082 12.8345 19.5599 12.7598 19.5599C12.6316 19.5599 12.6351 21.0176 12.768 22.9557C12.905 24.9531 13.1101 28.9417 13.0774 28.9717C13.0628 28.985 12.4918 29.0093 11.8086 29.0256L10.5663 29.0552V27.6635C10.5663 26.0018 10.447 19.3643 10.3927 18.002L10.3543 17.0393H11.0136H11.673L11.7187 17.722C11.7438 18.0975 11.7925 18.767 11.827 19.2098C11.8615 19.6527 11.9081 21.102 11.9306 22.4306C11.9691 24.7049 12.0552 26.7887 12.1485 27.6993C12.1782 27.9893 12.2187 28.1019 12.2932 28.1019C12.3781 28.1019 12.3914 28.0044 12.3678 27.5593C12.3519 27.2608 12.2866 25.6776 12.2226 24.041C12.1587 22.4043 12.0584 20.3091 11.9997 19.3848C11.9411 18.4606 11.8937 17.5748 11.8946 17.4164L11.8961 17.1284L12.6834 17.0757C13.1165 17.0467 13.6283 16.9994 13.8207 16.9705C14.5534 16.8605 14.4855 16.7732 14.4864 17.827ZM4.66204 17.6578C4.62887 17.7092 4.57526 18.3551 4.54286 19.0932C4.51038 19.8312 4.4658 20.7187 4.44368 21.0652C4.40568 21.6603 4.46524 21.99 4.57778 21.8078C4.63377 21.7172 4.77717 18.3342 4.74449 17.8756C4.72986 17.67 4.70187 17.5961 4.66204 17.6578ZM8.74023 18.7022C8.69992 19.474 8.79937 20.266 8.9425 20.3137C9.01046 20.3364 9.0204 20.1669 8.98736 19.5488C8.96405 19.112 8.93277 18.7153 8.91793 18.6672C8.87755 18.5361 8.74751 18.5617 8.74023 18.7022ZM15.9971 21.5729C16.0158 21.9869 16.0628 22.9169 16.1015 23.6397C16.1403 24.3625 16.1503 25.3434 16.1239 25.8194C16.0684 26.8168 16.2094 28.7526 16.3344 28.7104C16.3814 28.6945 16.4052 28.4877 16.397 28.1658C16.3896 27.8804 16.3816 26.9852 16.3791 26.1765C16.3738 24.5074 16.2605 21.3838 16.1928 21.0453C16.168 20.9215 16.1062 20.8202 16.0555 20.8202C15.9827 20.8202 15.9704 20.9793 15.9971 21.5729ZM7.55506 21.5599C7.41215 21.9359 7.56206 23.3408 7.74508 23.3408C7.8299 23.3408 7.83704 23.247 7.7891 22.7631C7.75753 22.4454 7.73976 22.0044 7.74949 21.7829C7.76831 21.356 7.67376 21.2476 7.55506 21.5599ZM8.79363 22.343C8.71903 22.4685 8.665 24.2355 8.73442 24.2785C8.86747 24.3608 8.90471 24.1713 8.94068 23.2276C8.96539 22.5798 8.953 22.2905 8.90064 22.2905C8.85893 22.2905 8.81078 22.3141 8.79363 22.343ZM3.40422 22.8274C3.33305 22.8985 3.34851 27.1078 3.42004 27.1521C3.45448 27.1734 3.49934 27.1201 3.51984 27.0337C3.5652 26.8425 3.53181 22.8617 3.4845 22.8143C3.46602 22.7958 3.42984 22.8017 3.40422 22.8274ZM4.65036 23.8484C4.58604 24.0213 4.72153 28.1252 4.79229 28.1485C4.88629 28.1796 4.9245 26.3543 4.86039 24.8987C4.81588 23.888 4.75289 23.5728 4.65036 23.8484ZM23.9624 29.7624C24.0077 30.9656 24.069 31.8168 24.1864 32.8731L24.2303 33.2682L23.7497 33.3775C23.4853 33.4375 22.8439 33.568 22.3242 33.6673C21.8046 33.7665 21.1273 33.9081 20.8193 33.9819C19.2798 34.3503 13.8617 34.6646 10.3563 34.5887C8.15507 34.5411 5.32266 34.3134 4.44235 34.1134C3.49661 33.8984 2.42103 33.5792 1.68581 33.2951L1.02884 33.0413L1.07489 31.4993C1.10022 30.6512 1.14054 29.663 1.16447 29.3033L1.20801 28.6492L1.46045 28.6801C1.59924 28.6971 2.1695 28.7765 2.72765 28.8566C6.32768 29.3736 8.8413 29.5453 11.8261 29.4783C16.7951 29.3666 19.9528 29.2206 20.4425 29.0797C20.5729 29.0422 21.1992 28.9345 21.8343 28.8403C22.4695 28.7461 23.1781 28.6095 23.409 28.5366C23.64 28.4638 23.8479 28.4139 23.8709 28.4257C23.894 28.4376 23.9351 29.0391 23.9624 29.7624ZM22.6441 30.5925C22.5058 30.731 22.5056 30.8305 22.6432 31.027C22.7712 31.2099 22.9328 31.2248 23.1485 31.0736C23.3675 30.9202 23.3545 30.6383 23.1245 30.5507C22.8753 30.4559 22.7717 30.465 22.6441 30.5925ZM2.6641 31.0007C2.46142 31.2166 2.49347 31.4681 2.73871 31.5853C3.14261 31.7783 3.56513 31.3682 3.33088 31.0105C3.17837 30.7777 2.8777 30.7733 2.6641 31.0007ZM17.5675 31.3881C17.4529 31.6023 17.4825 31.8012 17.6416 31.8863C17.8568 32.0015 18.115 31.9119 18.1672 31.7038C18.2557 31.3512 17.7342 31.0766 17.5675 31.3881ZM12.6887 31.5666C12.3877 31.7776 12.4469 32.3029 12.7717 32.3029C13.1227 32.3029 13.2743 31.7552 12.9776 31.5592C12.8564 31.4791 12.812 31.4803 12.6887 31.5666ZM7.70189 31.7872C7.52294 32.0147 7.5179 32.176 7.68482 32.3271C7.83515 32.4632 8.05421 32.4775 8.1727 32.3589C8.29252 32.2391 8.27656 31.8427 8.14674 31.7127C7.98968 31.5557 7.86791 31.5761 7.70189 31.7872ZM1.78282 33.7973C2.54638 34.0727 5.09877 34.7535 5.36773 34.7535H5.60933L5.56251 37.3265C5.53675 38.7417 5.50799 39.9073 5.49861 39.9167C5.48923 39.926 5.29061 39.8493 5.05727 39.7461L4.633 39.5585L4.62166 37.6286C4.61123 35.8548 4.57449 35.4732 4.42836 35.6194C4.3688 35.6789 4.39875 39.304 4.45964 39.4025C4.48365 39.4414 4.44543 39.4467 4.36635 39.4155C4.29265 39.3863 4.07107 39.3015 3.87384 39.2269L3.51529 39.0911L3.48373 38.546C3.46644 38.2461 3.42872 37.9628 3.40002 37.9164C3.28853 37.7358 3.21757 37.9345 3.21757 38.4274V38.9423L3.0076 38.863L2.79764 38.7838V37.0428C2.79764 35.6813 2.7786 35.3083 2.71015 35.3311C2.64416 35.353 2.61805 35.7689 2.60391 37.0243C2.58803 38.4273 2.56955 38.6824 2.48577 38.6503C2.43118 38.6293 2.25852 38.5777 2.10217 38.5356L1.81781 38.459V37.0304C1.81781 35.7039 1.77561 35.3788 1.63318 35.6094C1.6033 35.6578 1.58783 36.3041 1.59882 37.0458C1.61786 38.3275 1.61254 38.3918 1.4909 38.3457C1.243 38.2517 1.18792 38.1291 1.18792 37.6716C1.18792 37.4226 1.1586 36.9084 1.12283 36.5288C1.087 36.1493 1.03717 35.3226 1.01197 34.6917L0.966268 33.5447L1.12955 33.5826C1.21941 33.6035 1.51336 33.7001 1.78282 33.7973ZM24.3132 34.911C24.3376 35.5753 24.3707 36.7018 24.3868 37.4143L24.416 38.7096L24.1861 38.8605C23.8544 39.078 22.4535 39.6655 22.3559 39.628C22.306 39.6089 22.2531 39.339 22.2225 38.9482C22.1575 38.1171 21.8673 36.0537 21.8 35.9449C21.7688 35.8944 21.7233 35.8869 21.6844 35.9257C21.6456 35.9646 21.6881 36.5399 21.7923 37.3846C22.0582 39.5416 22.0719 39.7341 21.9634 39.8029C21.9117 39.8357 21.8354 39.863 21.7939 39.8637C21.7176 39.8647 21.5978 39.0692 21.5122 37.9918C21.487 37.674 21.4343 37.4141 21.3951 37.4141C21.3478 37.4141 21.3406 37.7489 21.3739 38.4119C21.4015 38.9606 21.4298 39.533 21.4367 39.6839C21.4478 39.9256 21.4275 39.9643 21.2653 40.0082L21.0813 40.0582L21.0051 39.3137C20.9632 38.9044 20.9124 38.0968 20.8923 37.5191C20.8721 36.9415 20.8105 36.2483 20.7552 35.9788C20.7 35.7092 20.6333 35.2781 20.607 35.0208L20.5593 34.553L20.8538 34.4736C21.3558 34.3384 22.3535 34.1293 22.3783 34.1542C22.3913 34.1671 22.4208 34.6866 22.444 35.3084C22.5013 36.8506 22.6193 36.8443 22.5913 35.3007L22.5692 34.0834L23.3041 33.9015C23.7082 33.8013 24.0907 33.7158 24.1539 33.7114C24.2548 33.7042 24.2742 33.8508 24.3132 34.911ZM20.3961 36.2182C20.421 36.2585 20.4703 37.0781 20.5057 38.0397C20.5412 39.0013 20.5895 39.8651 20.6132 39.9594C20.653 40.1182 20.63 40.1363 20.297 40.2077C20.0994 40.2501 19.8946 40.2848 19.8418 40.2848C19.7359 40.2848 19.7499 40.3991 19.5228 37.6615C19.443 36.7001 19.3657 35.9013 19.3509 35.8866C19.3362 35.8718 19.2905 35.8805 19.2495 35.9059C19.1573 35.9629 19.1548 36.3612 19.241 37.2539C19.2774 37.6308 19.3415 38.3804 19.3836 38.9195C19.4256 39.4586 19.4752 39.998 19.4939 40.1182C19.5249 40.3187 19.5088 40.3405 19.2987 40.3827C18.867 40.4694 17.5301 40.6938 17.1694 40.74L16.8087 40.7862L16.7663 40.1679C16.6377 38.2915 16.5551 37.4141 16.5072 37.4141C16.3606 37.4141 16.365 37.5311 16.6169 40.369C16.6365 40.5887 16.6294 40.7816 16.6013 40.7976C16.5732 40.8137 16.3267 40.8481 16.0535 40.8741L15.5566 40.9213L15.5106 39.1152C15.4853 38.1219 15.4445 36.7971 15.42 36.1713L15.3754 35.0336H15.9847C16.8052 35.0336 18.4004 34.9076 19.3847 34.765L20.1896 34.6485L20.2702 35.3967C20.3146 35.8083 20.3712 36.178 20.3961 36.2182ZM7.10189 34.9601C7.52532 34.9981 8.38134 35.0504 9.00423 35.0765L10.1367 35.1238L10.159 38.0019C10.1713 39.5848 10.1814 40.8839 10.1814 40.8888C10.1814 40.9091 8.71182 40.7031 8.13967 40.6026C7.29177 40.4537 6.77533 40.3088 6.70674 40.2006C6.67503 40.1506 6.64865 39.6136 6.64802 39.007C6.64711 38.0739 6.6308 37.9042 6.54199 37.9042C6.41566 37.9042 6.40887 37.9886 6.4342 39.2467L6.45352 40.2041L6.16531 40.1309L5.8771 40.0577V37.4374V34.8171L6.10456 34.8541C6.2297 34.8745 6.67846 34.9222 7.10189 34.9601ZM15.0704 36.5156C15.0945 37.2986 15.1342 38.6212 15.1588 39.4548L15.2035 40.9703L14.4535 41.0214C13.676 41.0745 11.7876 41.0399 11.7192 40.9714C11.6977 40.95 11.6512 40.5267 11.6157 40.0309C11.4709 38.0069 11.4586 37.9042 11.3607 37.9042C11.2932 37.9042 11.2664 38.0092 11.2672 38.2718C11.2688 38.8168 11.4031 40.7193 11.4509 40.8729C11.4892 40.9964 11.4612 41.003 11.0587 40.9666C10.8203 40.9449 10.6163 40.9166 10.6055 40.9036C10.5946 40.8906 10.5657 39.5881 10.5414 38.0093L10.497 35.1386L12.7618 35.1153L15.0265 35.092L15.0704 36.5156ZM8.03896 36.535C8.01649 36.5575 8.01754 38.9296 8.04043 39.8822C8.04386 40.0267 8.07822 40.1448 8.11671 40.1448C8.1615 40.1448 8.1867 39.5043 8.1867 38.3635C8.1867 36.8116 8.155 36.419 8.03896 36.535ZM12.5079 37.2566C12.4731 37.4073 12.522 39.2795 12.5664 39.4971C12.5841 39.5837 12.6489 39.6547 12.7104 39.6547C12.7922 39.6547 12.8109 39.6124 12.78 39.4971C12.7568 39.4105 12.7374 38.8434 12.7369 38.2368C12.736 37.3289 12.7183 37.1341 12.636 37.1341C12.5812 37.1341 12.5235 37.1892 12.5079 37.2566ZM18.5173 38.3007C18.5894 39.3145 18.6453 39.6871 18.7199 39.6523C18.7626 39.6324 18.78 39.3235 18.7647 38.8607C18.7371 38.0312 18.6871 37.7533 18.5577 37.7102C18.4937 37.6888 18.4839 37.8324 18.5173 38.3007ZM14.3602 37.9225C14.2856 38.0133 14.3675 40.3112 14.4563 40.6174C14.4814 40.704 14.5496 40.7749 14.6079 40.7749C14.6916 40.7749 14.7046 40.7197 14.6696 40.5124C14.6452 40.368 14.6047 39.7208 14.5793 39.0743C14.5541 38.4278 14.5104 37.8846 14.4824 37.8673C14.4544 37.8499 14.3994 37.8748 14.3602 37.9225ZM1.64284 38.7346C2.02777 38.8498 2.61042 39.0702 2.93761 39.2242C4.1841 39.811 5.95136 40.4911 6.89193 40.7461C8.17718 41.0943 11.7379 41.4742 13.7234 41.4747C15.4068 41.4752 18.2359 41.1743 20.0496 40.8019C21.7365 40.4554 23.9874 39.5989 24.4143 39.141L24.5797 38.9636L24.7555 39.1266C24.8522 39.2163 24.9098 39.3244 24.8835 39.3668C24.8029 39.4974 23.8124 39.9304 22.685 40.3281C20.5946 41.0653 17.9387 41.6134 14.9055 41.9336C12.3434 42.204 9.72776 41.8966 6.36702 40.9299C4.78256 40.4741 3.31828 40.0744 3.23373 40.0745C3.06737 40.0749 2.14857 39.7267 1.82523 39.5408C1.64795 39.4389 1.27456 39.2126 0.995593 39.0378C0.507918 38.7325 0.492941 38.715 0.607931 38.588C0.673649 38.5153 0.775972 38.4713 0.835251 38.4903C0.894461 38.5094 1.25791 38.6193 1.64284 38.7346Z" fill="white"/>
</svg>
