<svg width="53" height="32" viewBox="0 0 53 32" fill="none" xmlns="http://www.w3.org/2000/svg">
<path fill-rule="evenodd" clip-rule="evenodd" d="M17.6496 1.04166C17.4059 1.06747 16.4159 1.21777 15.4498 1.37565C14.4835 1.53354 13.4455 1.70185 13.143 1.74966C12.6173 1.83277 10.1527 2.27123 9.17758 2.45516C8.59116 2.56576 7.30763 2.66773 6.36721 2.67838C5.50964 2.68816 5.56503 2.64979 5.08547 3.56585C4.92199 3.87809 4.65569 4.3059 4.49366 4.51656C4.24392 4.84125 4.15495 4.91342 3.90962 4.99051C3.50977 5.11616 2.76821 5.26213 2.52982 5.26213C2.42093 5.26213 2.3001 5.30038 2.26126 5.34709C2.11352 5.52506 1.76161 8.48477 1.62441 10.7025C1.47957 13.0444 1.42534 13.6165 1.10324 16.2006C1.03776 16.7259 0.95887 17.8067 0.927956 18.6025C0.850153 20.6032 0.762313 22.3461 0.696087 23.2036C0.503719 25.6935 0.49737 27.1633 0.669997 29.2227C0.786529 30.6129 0.860858 31.004 1.05716 31.2589C1.24345 31.5008 1.3726 31.5523 2.14398 31.6929C2.61167 31.7782 3.08781 31.7935 5.32791 31.7957C6.9079 31.7972 8.30935 31.77 8.83024 31.7277C9.30783 31.6889 10.2949 31.6426 11.0237 31.6248C11.7526 31.6069 12.3665 31.5815 12.3881 31.5682C12.4096 31.5548 12.9335 31.5295 13.5522 31.5118C14.1708 31.4942 15.12 31.4653 15.6612 31.4475C16.6367 31.4156 20.768 31.1912 22.5501 31.0733C23.5343 31.0082 24.4052 31.0527 25.5982 31.2289C26.3109 31.3342 26.6043 31.3012 27.4966 31.0156L28.0434 30.8405L29.6964 30.846C30.6055 30.849 32.0266 30.8718 32.8545 30.8967C34.4553 30.9448 37.4955 30.9326 40.5827 30.8655C41.6175 30.843 44.1574 30.8213 46.227 30.8172C49.0628 30.8115 50.0611 30.7915 50.2793 30.736C50.4385 30.6954 50.7665 30.6277 51.0081 30.5854C51.4746 30.5038 52.0944 30.238 52.1488 30.0961C52.1668 30.0493 52.156 30.0024 52.1248 29.9921C52.0878 29.9797 52.088 29.8534 52.1251 29.6289C52.1678 29.3709 52.1581 29.0775 52.0866 28.4579C52.0341 28.0031 51.9275 27.0842 51.8498 26.4157C51.6813 24.9671 51.6077 24.0614 51.5224 22.3933C51.4874 21.709 51.4341 20.9016 51.404 20.5992C51.3739 20.2968 51.3239 18.669 51.2928 16.982C51.2618 15.2949 51.2239 13.8625 51.2086 13.7988C51.1933 13.7351 51.1514 13.1752 51.1154 12.5545C51.0794 11.9338 51.026 11.2827 50.9966 11.1076C50.9673 10.9325 50.916 10.2944 50.8828 9.68962C50.8495 9.08482 50.7747 8.06569 50.7167 7.42483C50.6586 6.78403 50.6239 6.19271 50.6396 6.11082C50.6626 5.99032 50.6421 5.95617 50.5315 5.93134C50.4565 5.91456 50.2176 5.86126 50.0007 5.81293C49.7838 5.76467 49.4842 5.72503 49.335 5.72486C49.0659 5.72457 49.0616 5.72155 48.832 5.36567C48.2599 4.4789 48.0793 4.23508 47.8415 4.02777C47.7018 3.90594 47.5874 3.7701 47.5874 3.72594C47.5874 3.59491 47.4147 3.54039 46.8638 3.49744C46.5772 3.47516 45.965 3.40536 45.5034 3.34245C45.0417 3.27948 44.3774 3.20482 44.0272 3.17658C43.6769 3.14828 43.1038 3.06198 42.7536 2.98478C42.4034 2.90757 41.8172 2.77751 41.4511 2.69579C40.0506 2.38321 37.1664 1.83796 36.5015 1.76006C33.9731 1.46385 32.7217 1.48417 30.6257 1.85556C29.6224 2.03335 28.3649 2.52837 27.6434 3.02963C27.4518 3.16275 27.2514 3.28839 27.1981 3.30882C27.1323 3.33406 26.9366 3.22334 26.5912 2.96539C25.6652 2.274 24.9461 1.92542 23.7947 1.60971C22.3178 1.20481 22.0816 1.14792 21.5362 1.06602C20.9052 0.971278 18.4587 0.955941 17.6496 1.04166ZM21.2186 1.61596C21.2397 1.71151 21.2391 1.95511 21.2174 2.15739C21.1831 2.47767 21.1912 2.53016 21.2805 2.56443C21.4098 2.61402 21.4771 2.51211 21.4783 2.26521C21.4797 1.95511 21.6247 1.67383 21.783 1.67383C21.8579 1.67383 21.9454 1.6475 21.9776 1.61532C22.0171 1.57585 22.2992 1.63465 22.8431 1.79561C23.2869 1.92693 23.8193 2.07989 24.0263 2.13551C24.5907 2.28726 25.2882 2.5797 25.6588 2.81994C25.8403 2.93766 26.2389 3.20199 26.5447 3.40744C27.0986 3.77964 27.1005 3.78172 27.0682 3.9862C27.0503 4.09906 27.0231 5.37643 27.0078 6.82477C26.9808 9.38456 26.9197 11.185 26.8054 12.786C26.7748 13.2157 26.7359 14.1924 26.7191 14.9563C26.7024 15.7203 26.6741 16.5927 26.6563 16.8952C26.6386 17.1976 26.6147 17.8226 26.6031 18.2842C26.5916 18.7457 26.5154 19.6442 26.4339 20.2809C26.3524 20.9175 26.2563 21.777 26.2202 22.1908C26.14 23.1112 26.1215 26.3816 26.1884 27.8163L26.2375 28.8696L26.0615 28.8033C25.9583 28.7643 25.8719 28.6822 25.8524 28.6045C25.8328 28.5267 25.7596 28.4571 25.6748 28.4359C25.5803 28.4121 25.5188 28.3468 25.4969 28.2468C25.4233 27.9114 25.3729 27.8039 25.2806 27.786C25.2009 27.7706 25.1841 27.8177 25.1841 28.0575C25.1841 28.2171 25.1646 28.3598 25.1407 28.3745C25.1168 28.3892 25.0191 28.3692 24.9236 28.33C24.7623 28.2639 24.7499 28.2374 24.7499 27.9608C24.7499 27.5934 24.6408 27.5598 24.6165 27.9196C24.6068 28.0633 24.5852 28.1809 24.5684 28.1809C24.5517 28.1809 24.3121 28.0994 24.0361 27.9998C23.76 27.9003 23.0653 27.6838 22.4922 27.5188C21.5161 27.2377 21.442 27.2065 21.3199 27.0257C21.2483 26.9195 21.1897 26.7562 21.1897 26.6628C21.1897 26.3977 21.0528 26.5 20.9918 26.8107C20.9626 26.9595 20.9082 27.0813 20.871 27.0813C20.8338 27.0813 20.4496 26.9922 20.0173 26.8834C18.8313 26.5847 18.1948 26.5396 15.6912 26.5763C13.9907 26.6013 13.312 26.6342 12.5641 26.7281C12.0388 26.794 11.4005 26.874 11.1458 26.9058C10.8911 26.9376 10.2033 26.9916 9.61738 27.0257C9.03142 27.0599 8.38068 27.1085 8.17129 27.1337C7.79067 27.1796 7.79049 27.1795 7.5998 26.9832C7.38764 26.7648 7.29616 26.7756 7.29616 27.0192C7.29616 27.1605 7.2693 27.1863 7.09239 27.215C6.87472 27.2503 6.56137 27.1487 6.40467 26.992C6.33346 26.9208 6.31204 26.7787 6.31204 26.3778C6.31204 25.9864 6.29398 25.8622 6.23968 25.8801C6.19886 25.8934 6.15469 26.0406 6.13837 26.2177C6.12135 26.4024 6.05147 26.629 5.9684 26.7687C5.83161 26.9989 5.81446 27.008 5.39349 27.0735C5.06676 27.1242 4.94936 27.1244 4.91839 27.0743C4.89575 27.0377 4.88911 26.7965 4.90352 26.5381C4.91793 26.2798 4.88941 25.6908 4.84015 25.2293C4.76362 24.5125 4.75892 24.0354 4.80789 21.9593C4.83944 20.6224 4.90405 18.6821 4.95146 17.6475C4.99887 16.613 5.05081 14.9201 5.0669 13.8856C5.09625 11.9955 5.14387 11.1395 5.29699 9.7475C5.48229 8.06326 5.61824 6.30916 5.6737 4.88594C5.706 4.05831 5.74889 3.30808 5.7691 3.21878C5.80557 3.05719 5.80747 3.0566 6.13125 3.10238C6.3103 3.12773 6.9061 3.14364 7.45536 3.1378L8.45396 3.12721V3.29598C8.45396 3.51341 8.63126 4.34902 8.69199 4.4176C8.71931 4.44845 8.77396 4.4407 8.82461 4.39868C8.8924 4.34242 8.90557 4.22147 8.88641 3.83011C8.86261 3.34407 8.8658 3.32954 9.0287 3.17385C9.15565 3.0526 9.27586 3.00555 9.53376 2.97621C9.71994 2.95497 10.5626 2.82059 11.4063 2.67752C12.2501 2.53451 13.4093 2.34328 13.9824 2.25265C14.5555 2.16201 15.2719 2.03464 15.5744 1.96959C17.4543 1.56532 18.3415 1.46218 20.0418 1.45026L21.1805 1.44233L21.2186 1.61596ZM35.1122 2.05065C36.7181 2.18429 37.0615 2.22996 38.1514 2.4547C38.7086 2.56958 39.2817 2.68601 39.4249 2.71339C39.5682 2.74082 39.8939 2.80496 40.1486 2.85601C40.4033 2.90705 40.8201 2.98872 41.0748 3.03756C41.3295 3.08647 41.7203 3.17622 41.9431 3.23717C42.9893 3.52313 43.8097 3.65075 45.1271 3.73224C45.7467 3.77061 45.8237 3.80586 45.952 4.1093C46.0277 4.28848 46.1262 4.41644 46.2217 4.45996C46.4486 4.56333 46.4653 4.48358 46.2857 4.15369L46.123 3.85489L46.532 3.89291C47.0735 3.9432 47.11 3.96201 47.1491 4.21041C47.2032 4.55454 47.2971 6.27229 47.3553 7.98229C47.4123 9.65709 47.4322 9.93079 47.5608 10.8182C47.6046 11.1206 47.6819 11.8368 47.7325 12.4098C47.9998 15.437 48.0437 16.9667 47.9354 19.4762C47.9039 20.2053 47.8644 21.7394 47.8476 22.8853C47.7998 26.1333 47.8028 26.1004 47.5538 26.0528C47.473 26.0374 47.2085 26.0568 46.9659 26.0958C46.4484 26.1793 44.5221 26.1935 44.4688 26.1142C44.4488 26.0844 44.3803 26.0393 44.3166 26.0141C44.2428 25.9848 44.2271 25.9584 44.2732 25.9411C44.313 25.9263 44.3456 25.8614 44.3456 25.797C44.3456 25.714 44.3189 25.6901 44.254 25.715C44.2036 25.7343 44.1225 25.7501 44.0738 25.7501C44.0082 25.7501 43.9917 25.7953 44.0106 25.9238C44.0335 26.0796 44.0203 26.0974 43.8817 26.0974C43.68 26.0974 43.593 25.9069 43.593 25.4651C43.593 25.1482 43.4982 24.9383 43.3995 25.0368C43.3786 25.0578 43.3614 25.0445 43.3614 25.0074C43.3614 24.9703 43.3354 24.9399 43.3036 24.9399C43.2206 24.9399 43.2322 25.1322 43.3261 25.3132C43.4053 25.4658 43.3913 25.6923 43.3025 25.6923C43.2776 25.6923 43.205 25.7805 43.1414 25.8883C43.0304 26.0764 43.0142 26.0833 42.7449 26.0568C42.5905 26.0417 42.1646 25.9802 41.7984 25.9202C39.8907 25.608 38.3404 25.581 36.5884 25.8297C35.1226 26.0377 33.7599 26.2515 32.9992 26.393C32.6649 26.4552 32.018 26.5698 31.5617 26.6479C30.6903 26.7968 29.6544 27.1118 28.9195 27.4513L28.4831 27.6529L28.3387 27.4405C28.2593 27.3236 28.1943 27.1576 28.1943 27.0716C28.1943 26.8656 28.0978 26.6183 28.0175 26.6183C27.9771 26.6183 27.9671 26.68 27.9905 26.7864C28.0117 26.8828 28.0013 26.9707 27.9662 26.9924C27.9325 27.0132 27.9049 27.169 27.9049 27.3385C27.9049 27.747 27.7914 27.9972 27.5202 28.1869L27.2971 28.3431L27.2392 28.0493C27.2073 27.8877 27.1446 27.7435 27.0998 27.7288C27.0329 27.707 27.0247 27.7709 27.054 28.0843L27.0897 28.4664L26.8401 28.6709C26.7028 28.7834 26.5767 28.8754 26.5599 28.8754C26.5431 28.8754 26.5155 28.6346 26.4987 28.3401C26.4819 28.0456 26.4368 27.3229 26.3984 26.734C26.2817 24.9398 26.385 22.6358 26.6916 20.1941C26.8188 19.1816 26.886 17.9222 26.9759 14.8695C27.0064 13.835 27.046 12.8974 27.0641 12.786C27.1764 12.0894 27.2837 9.35955 27.3024 6.72007C27.3139 5.08682 27.337 3.72847 27.3537 3.7015C27.4249 3.58633 27.6094 3.71575 27.6267 3.89302C27.6514 4.14669 27.8142 4.16602 27.8982 3.92531C27.9337 3.82345 27.9633 3.68537 27.964 3.61852C27.9648 3.53345 28.0779 3.42289 28.3403 3.25059C28.5465 3.11511 28.7154 3.0349 28.7154 3.0724C28.7154 3.16442 28.8903 3.35223 28.976 3.35223C29.014 3.35223 29.0925 3.24729 29.1503 3.1191C29.2753 2.84182 29.3744 2.84807 29.3988 3.13473C29.4304 3.50589 29.5631 3.44842 29.8104 2.95659C29.935 2.70912 30.0716 2.47888 30.1142 2.44508C30.2278 2.3548 32.253 2.0341 32.9124 2.00198C33.7571 1.96089 34.1333 1.96922 35.1122 2.05065ZM5.38055 4.13355C5.35519 4.38821 5.30603 5.05233 5.27135 5.60939C5.20704 6.64253 5.04617 8.46648 4.89108 9.92112C4.7503 11.2413 4.68591 12.9571 4.72389 14.3776C4.74895 15.3162 4.73193 16.1524 4.66605 17.2135C4.57337 18.7079 4.43079 23.0286 4.43218 24.3032C4.43258 24.6693 4.45605 25.3684 4.48436 25.8568C4.51712 26.4229 4.51549 26.7586 4.47983 26.7828C4.4491 26.8038 4.38292 26.8808 4.33279 26.9542C4.24798 27.0783 4.23894 27.0059 4.20288 25.9124C4.16294 24.7019 4.13549 24.419 4.05821 24.419C3.99228 24.419 3.93856 25.1892 3.93856 26.1351C3.93856 26.5918 3.91713 26.9655 3.8909 26.9655C3.86468 26.9655 3.84426 27.0892 3.84548 27.2404C3.8497 27.7643 3.76988 28.0439 3.51974 28.3814C3.38833 28.5588 3.25964 28.6828 3.23382 28.657C3.186 28.6092 3.14686 25.9899 3.1908 25.7791C3.20857 25.6939 3.18049 25.6585 3.08469 25.6449C2.98222 25.6303 2.95397 25.6549 2.95217 25.7606C2.94777 26.0195 2.77365 28.7917 2.74331 29.085C2.71605 29.3489 2.67916 29.4145 2.40609 29.6841L2.09946 29.9869L2.14686 29.735C2.32812 28.7726 2.34531 28.3583 2.35318 24.7663C2.36117 21.1031 2.38815 20.446 2.60732 18.5735C2.63899 18.303 2.6912 17.2221 2.72327 16.1717C2.78371 14.1955 2.83593 13.4561 2.98488 12.4677C3.03287 12.1493 3.11028 11.5113 3.15688 11.0497C3.20354 10.5881 3.28106 9.92402 3.32922 9.57387C3.37738 9.22372 3.4341 8.33197 3.45534 7.59226C3.4895 6.39962 3.50572 6.23651 3.59829 6.15282C3.69861 6.06207 3.70127 6.09976 3.66717 7.12468C3.63076 8.21876 3.70247 8.96617 3.84378 8.96617C3.89015 8.96617 3.90967 8.69671 3.90984 8.05463C3.90996 7.55331 3.93191 6.81493 3.9586 6.41391C4.00121 5.77369 4.02382 5.66424 4.14411 5.51683L4.28115 5.34894L4.25059 6.07239C4.21812 6.84139 4.27385 7.46719 4.37793 7.5018C4.42135 7.51621 4.4529 7.14113 4.47918 6.29834L4.51734 5.07392L4.79956 4.69054C4.95482 4.4797 5.15448 4.15735 5.24328 3.97423C5.33209 3.79111 5.40972 3.64786 5.41574 3.65591C5.42176 3.66395 5.40596 3.8789 5.38055 4.13355ZM47.7183 4.5128C47.8713 4.73817 47.964 5.34304 48.0306 6.54987C48.0518 6.93451 48.0931 7.2299 48.1254 7.2299C48.1622 7.2299 48.1721 6.84456 48.1532 6.15306L48.1237 5.0763L48.2463 5.26862C48.3388 5.41372 48.3973 5.68457 48.4847 6.37265C48.5484 6.87414 48.6265 7.28477 48.6584 7.28523C48.7268 7.28622 48.7304 6.97988 48.6697 6.30389L48.6256 5.81194L48.742 5.95664C48.806 6.03622 48.9019 6.19248 48.955 6.30389C49.0082 6.4153 49.0793 6.52429 49.1129 6.54611C49.2085 6.60815 49.2674 8.01326 49.2579 10.0079C49.2503 11.6065 49.298 13.7917 49.412 17.0688C49.461 18.4768 49.5459 19.6937 49.6726 20.8018C49.8407 22.273 49.9018 23.7767 49.9024 26.4591C49.9029 28.4741 49.8897 28.8754 49.8232 28.8754C49.6664 28.8754 49.612 28.5501 49.586 27.4575C49.5712 26.8335 49.521 26.145 49.47 25.8659C49.3975 25.4693 49.3876 25.132 49.4186 24.1266C49.4584 22.8341 49.4313 22.4512 49.2999 22.4512C49.194 22.4512 49.1474 23.3609 49.1373 25.623C49.1329 26.6195 49.1118 27.4456 49.0907 27.4586C49.0694 27.4717 49.0191 27.4118 48.9787 27.3253C48.9384 27.2388 48.8855 27.128 48.8613 27.079C48.7544 26.8625 48.7425 26.3773 48.8286 25.7481C48.9192 25.0866 48.9131 24.3505 48.8095 23.4669C48.806 23.4367 48.7705 23.4446 48.7307 23.4844C48.6809 23.5343 48.6572 23.7855 48.6545 24.2918C48.6514 24.9009 48.6241 25.1244 48.4953 25.5973C48.4099 25.9111 48.34 26.2611 48.34 26.375V26.582L48.1742 26.4233C48.0113 26.2672 48.0098 26.2604 48.0915 26.0234C48.1569 25.8338 48.1789 25.2824 48.1948 23.4368C48.206 22.1467 48.248 20.213 48.2884 19.1397C48.3471 17.5748 48.3474 16.8754 48.2895 15.6093C48.1978 13.5997 48.0237 11.5862 47.8202 10.1816C47.7902 9.97467 47.7369 9.10219 47.7016 8.24273C47.6664 7.38328 47.6013 6.17813 47.5569 5.56458C47.4873 4.60147 47.4889 4.21839 47.5623 4.29172C47.5725 4.30185 47.6426 4.40134 47.7183 4.5128ZM3.76489 5.41678C3.76489 5.43819 3.63343 5.60684 3.47267 5.79158C3.11955 6.19752 3.1094 6.2433 2.97996 8.01123C2.92873 8.71153 2.83755 9.62306 2.77735 10.0369C2.71714 10.4507 2.63992 11.0757 2.60571 11.4259C2.5715 11.776 2.50643 12.2969 2.4611 12.5834C2.31319 13.5187 2.2601 14.2886 2.20215 16.3394C2.17078 17.4502 2.11972 18.5701 2.08863 18.828C1.86292 20.7022 1.8403 21.2449 1.84817 24.5926C1.8528 26.5552 1.83125 28.1579 1.79565 28.4992C1.68699 29.5404 1.66419 29.9642 1.71097 30.0718C1.73632 30.13 1.75185 30.2099 1.74548 30.2493C1.73917 30.2888 1.76011 30.3698 1.79201 30.4295C1.84208 30.523 1.95207 30.5438 2.59042 30.5808C4.0071 30.663 4.7456 30.6354 8.01978 30.3779C8.878 30.3103 10.221 30.2551 11.3195 30.242C16.5407 30.18 17.8951 30.1534 18.903 30.0934C19.508 30.0574 21.1231 30.0196 22.4922 30.0095C24.1598 29.9972 25.0579 29.9689 25.213 29.9239C25.3404 29.8869 25.7442 29.8455 26.1103 29.832C26.4765 29.8185 26.9323 29.7925 27.1234 29.7743C27.3144 29.7561 28.0959 29.7293 28.8601 29.7148C29.6242 29.7003 30.6272 29.6501 31.0888 29.6034C32.3484 29.4756 32.7629 29.4551 35.3148 29.3938C37.8216 29.3335 39.7277 29.3535 40.5249 29.4485C42.1862 29.6464 46.9583 29.7006 48.3979 29.5379C49.661 29.3951 50.1996 29.2982 50.3027 29.1951C50.3835 29.1143 50.3974 28.8128 50.4142 26.7825C50.4344 24.312 50.3634 22.1644 50.2191 20.8886C50.0243 19.166 49.9729 18.4248 49.8456 15.5061C49.813 14.7581 49.7727 13.9637 49.756 13.7409C49.7393 13.5181 49.7013 12.255 49.6715 10.934C49.6011 7.81578 49.4832 6.29347 49.3028 6.17679C49.1486 6.07707 49.3516 6.07262 49.7874 6.16626L50.2618 6.26818L50.227 6.47416C50.184 6.728 50.292 10.0538 50.369 10.8471C50.3999 11.1654 50.4643 11.8166 50.5121 12.294C50.8067 15.2359 50.8096 15.2823 50.8869 18.342C50.9155 19.4721 50.9664 20.6701 51.0001 21.0043C51.0337 21.3386 51.1146 22.185 51.1799 22.8853C51.3179 24.3667 51.6756 27.4533 51.7537 27.8368C51.8727 28.4221 51.934 29.1588 51.8967 29.5572C51.852 30.0356 51.8176 30.0719 51.3127 30.1754C51.1069 30.2176 50.8237 30.2184 50.3975 30.1781C50.058 30.146 49.2607 30.1328 48.6258 30.1487C47.9909 30.1646 47.4715 30.1581 47.4715 30.1342C47.4716 30.1104 47.3283 30.0908 47.1532 30.0908C46.9781 30.0908 46.8348 30.1118 46.8348 30.1375C46.8348 30.1631 46.0208 30.1859 45.0258 30.1881C44.0308 30.1904 42.5134 30.2207 41.6537 30.2556C40.794 30.2905 39.5306 30.3338 38.846 30.3518C38.1615 30.3698 37.2758 30.4129 36.8778 30.4476C36.4345 30.4863 35.1449 30.5023 33.5491 30.4889C32.1164 30.4768 30.2928 30.4696 29.4969 30.4728C28.1194 30.4783 28.0245 30.4858 27.5286 30.6291C26.5135 30.9224 26.3108 30.9296 25.0683 30.7171C24.5104 30.6217 20.6283 30.6282 19.0767 30.7272C18.4718 30.7658 16.6482 30.8224 15.0244 30.853C11.1441 30.9263 10.9975 30.9317 10.017 31.0372C8.2954 31.2223 7.60773 31.2515 4.98057 31.2513C3.06547 31.2512 2.16423 31.2298 1.8573 31.1774C1.45265 31.1082 1.41445 31.0886 1.24089 30.8609C1.0388 30.5958 1.01815 30.4973 0.927787 29.3674C0.79933 27.7609 0.870703 25.5123 1.13179 22.9432C1.26898 21.5934 1.3007 21.1905 1.47582 18.5735C1.52167 17.8892 1.63727 16.7693 1.73279 16.0849C1.95757 14.4747 2.07086 13.3592 2.14415 12.0336C2.22525 10.5671 2.3158 9.20971 2.34868 8.96617C2.36379 8.85476 2.40193 8.37295 2.43354 7.89548C2.53664 6.33735 2.60663 5.70338 2.68073 5.65632C2.71986 5.63149 2.82997 5.6087 2.92549 5.60563C3.02101 5.60262 3.22941 5.55336 3.38861 5.49624C3.73253 5.37279 3.76489 5.36596 3.76489 5.41678ZM40.438 26.3076C41.5955 26.4725 41.7719 26.4886 42.0033 26.4507C42.1294 26.4301 42.4019 26.432 42.6089 26.4549C42.8158 26.4778 43.2814 26.4979 43.6435 26.4996C44.0055 26.5012 44.5786 26.5444 44.9171 26.5956C45.6683 26.7092 47.3722 26.7341 47.5974 26.6349C47.7208 26.5805 47.7652 26.5825 47.8172 26.6451C47.888 26.7304 47.8281 26.7504 47.2788 26.8259C47.0205 26.8614 46.8802 26.9723 46.9744 27.0665C46.9954 27.0875 47.2915 27.1189 47.6323 27.1364L48.2521 27.1681L48.5344 27.5421L48.8167 27.9163L48.6658 27.9566C48.3521 28.0405 47.2982 28.1221 46.5505 28.1204C46.0886 28.1193 45.7498 28.1429 45.714 28.1787C45.6809 28.2118 45.5874 28.239 45.5062 28.2391C45.2599 28.2397 44.9245 28.3551 44.9245 28.4393C44.9245 28.5219 45.3798 28.5223 47.2718 28.4412C47.864 28.4158 48.1068 28.4293 48.3963 28.5034C48.5993 28.5554 48.8484 28.5845 48.9497 28.568C49.1172 28.5408 49.1393 28.5553 49.1917 28.7258L49.2493 28.9136L48.4907 28.9876C48.0735 29.0283 47.4325 29.0909 47.0664 29.1267C46.0666 29.2245 42.8222 29.193 41.068 29.0686C38.8229 28.9093 34.3077 28.9676 30.8776 29.2C30.1405 29.25 29.2158 29.2913 28.8225 29.2916C28.4293 29.292 27.8147 29.3174 27.4568 29.3481C27.0989 29.3788 26.7781 29.3865 26.7439 29.3653C26.6827 29.3276 27.3837 28.8479 28.0299 28.4854C28.9155 27.9886 30.6107 27.3788 31.523 27.2289C31.8414 27.1766 32.4145 27.0707 32.7966 26.9937C33.9643 26.7582 37.242 26.2868 38.1602 26.2222C38.8995 26.1703 39.6791 26.1995 40.438 26.3076ZM19.0721 27.2251C19.3879 27.2734 19.9609 27.3926 20.3453 27.4902C20.7298 27.5876 21.2268 27.7027 21.4499 27.7458C22.0778 27.8672 23.3925 28.2558 24.2868 28.5842C24.7325 28.748 25.3317 28.9641 25.6183 29.0645L26.1393 29.247L25.5893 29.328C25.2009 29.3851 24.3079 29.4135 22.5501 29.4244C21.181 29.4329 19.3184 29.4707 18.411 29.5084C16.6311 29.5822 13.7377 29.6713 10.8274 29.7419C9.8245 29.7662 8.56105 29.8279 8.01978 29.8789C6.39465 30.0321 4.72557 30.1486 3.5936 30.188L2.52501 30.2252L2.83524 29.8686C3.08989 29.5759 3.17759 29.512 3.32492 29.5114C3.42363 29.511 3.64766 29.4722 3.82278 29.4252C3.9979 29.3782 4.21284 29.3395 4.30037 29.3391C4.42072 29.3386 4.45957 29.3102 4.45957 29.2227C4.45957 29.116 4.42096 29.1069 3.96363 29.1069H3.4677L3.6726 28.8569C3.78531 28.7194 3.94626 28.4569 4.0302 28.2735C4.16809 27.9723 4.19674 27.9436 4.32607 27.976C4.54529 28.031 5.15424 27.9471 5.15424 27.8619C5.15424 27.7673 4.96669 27.7197 4.59058 27.7187L4.2874 27.7179L4.41395 27.4575C4.55062 27.1763 4.6047 27.1394 4.64649 27.2993C4.70751 27.5327 7.00428 27.8288 8.16451 27.7528C8.46698 27.733 9.18337 27.6905 9.75647 27.6584C10.3296 27.6262 11.085 27.5621 11.4353 27.5159C13.8885 27.1922 14.2067 27.1705 16.7901 27.1505C18.0818 27.1405 18.6377 27.1587 19.0721 27.2251ZM31.9861 27.632C31.1755 27.8225 29.8424 28.2908 29.107 28.6434C28.4562 28.9555 28.3725 29.0188 28.4756 29.1219C28.5205 29.1668 28.7187 29.0989 29.178 28.8809C30.0053 28.4881 31.0436 28.1105 31.9791 27.8623C32.3891 27.7536 32.7368 27.6522 32.7519 27.6372C32.7959 27.5933 32.7092 27.4859 32.634 27.4912C32.596 27.4938 32.3045 27.5572 31.9861 27.632ZM19.8253 28.3031C19.7727 28.3882 19.9064 28.4683 20.1027 28.4694C20.1894 28.4699 20.7104 28.5468 21.2605 28.6402C22.2594 28.8098 23.2286 28.9333 23.5609 28.9333C23.6763 28.9333 23.7368 28.9043 23.7368 28.8491C23.7368 28.7565 23.7239 28.7538 22.6193 28.6172C22.2116 28.5668 21.5286 28.461 21.1015 28.3822C20.2562 28.2261 19.8871 28.2033 19.8253 28.3031ZM35.6253 28.3832C35.5615 28.5494 35.7142 28.5838 36.5594 28.5943C38.5986 28.6193 39.0413 28.6298 39.7868 28.6703C40.4872 28.7085 40.5827 28.7028 40.5827 28.6236C40.5827 28.5668 40.513 28.5219 40.3946 28.5023C39.9977 28.4366 38.4168 28.3653 37.1986 28.3582C36.4995 28.3541 35.868 28.3358 35.7953 28.3176C35.7031 28.2944 35.6517 28.3143 35.6253 28.3832ZM12.3326 28.6266C12.1893 28.6378 11.4469 28.7153 10.6827 28.7987C8.90654 28.9927 7.51818 29.0088 6.26806 28.85C5.59208 28.764 5.36873 28.7536 5.31675 28.8056C5.22986 28.8924 5.27545 28.9361 5.48165 28.9637C5.57219 28.9758 5.98496 29.0325 6.39887 29.0897C7.60535 29.2565 8.86629 29.2254 11.1645 28.9722C12.2255 28.8553 13.1177 28.7597 13.1472 28.7597C13.1768 28.7597 13.2009 28.7206 13.2009 28.6729C13.2009 28.5843 13.0069 28.574 12.3326 28.6266ZM26.5155 30.1776C26.441 30.257 26.3931 30.3349 26.409 30.3508C26.4249 30.3667 26.4989 30.3149 26.5734 30.2355C26.648 30.1562 26.6959 30.0783 26.68 30.0623C26.6641 30.0464 26.5901 30.0983 26.5155 30.1776ZM46.6612 30.0908C46.6612 30.1227 46.6872 30.1487 46.719 30.1487C46.7509 30.1487 46.7769 30.1227 46.7769 30.0908C46.7769 30.059 46.7509 30.0329 46.719 30.0329C46.6872 30.0329 46.6612 30.059 46.6612 30.0908ZM14.2815 30.4767C14.2025 30.5556 14.2469 30.6192 14.3687 30.6013C14.5277 30.5778 14.5812 30.4381 14.4311 30.4381C14.3701 30.4381 14.3027 30.4554 14.2815 30.4767Z" fill="white"/>
</svg>
