<svg width="27" height="48" viewBox="0 0 27 48" fill="none" xmlns="http://www.w3.org/2000/svg">
<path fill-rule="evenodd" clip-rule="evenodd" d="M12.597 0.917452C11.6075 1.06265 11.0268 1.40007 10.7179 2.00958C10.5585 2.32402 10.5545 2.35947 10.5936 3.12589C10.6158 3.56128 10.6714 4.12396 10.7172 4.37638C10.763 4.62879 10.781 4.83526 10.7573 4.83526C10.7336 4.83526 10.5702 4.94982 10.3943 5.08988C9.76087 5.59408 9.56865 6.34107 9.94042 6.85413C10.0463 7.00021 10.1727 7.13502 10.2213 7.1537C10.2846 7.17794 10.2051 7.31225 9.94326 7.62403C9.34364 8.33792 9.13636 9.25776 9.4357 9.87595C9.54174 10.0951 9.63975 10.1829 9.95232 10.339C10.1644 10.445 10.3755 10.5317 10.4214 10.5317C10.4672 10.5317 10.5512 10.6026 10.6081 10.6893C10.8546 11.0654 10.5207 14.3916 10.1683 15.0714C10.041 15.3168 9.33712 15.9788 8.92307 16.2424C8.73257 16.3637 8.14934 16.6799 7.62702 16.9451C5.22354 18.1656 3.95004 19.1403 2.82082 20.6232C2.2426 21.3827 1.51217 23.1818 1.20682 24.5985C0.912427 25.9646 0.877226 26.4119 0.824551 29.4564C0.751174 33.6961 0.869945 37.4265 1.20657 41.4505C1.38859 43.6261 1.72389 45.1781 2.12585 45.7056C2.31097 45.9486 2.71756 46.198 3.06862 46.2841C3.2079 46.3182 3.53554 46.4214 3.7967 46.5133C5.07919 46.9648 5.18809 46.9823 8.00689 47.192C10.5706 47.3827 10.8124 47.3899 14.7495 47.3949C19.1003 47.4004 18.753 47.418 21.0626 47.0771C21.7652 46.9733 23.1244 46.6238 23.6694 46.4066C23.857 46.3318 24.1419 46.1487 24.3025 45.9996C24.4631 45.8505 24.641 45.6878 24.6979 45.638C24.8396 45.5142 25.0443 44.946 25.2604 44.0772C25.5532 42.8996 25.6698 41.7916 25.7632 39.2986C25.7972 38.3935 25.8682 36.9694 25.9212 36.1339C26.2021 31.7009 26.1448 28.2695 25.7342 24.9309C25.63 24.0841 25.3563 22.8981 25.0986 22.1777C24.5663 20.689 23.6394 19.6602 22.1275 18.8798C21.7084 18.6635 21.2658 18.4258 21.144 18.3515C21.0221 18.2773 20.7087 18.1199 20.4475 18.0017C19.7383 17.6807 18.7848 17.1592 18.4273 16.8968C18.2532 16.7691 17.9293 16.4687 17.7076 16.2291C16.8515 15.3048 16.6171 14.4926 16.5645 12.2688C16.5266 10.666 16.4461 10.8771 17.2503 10.4708C17.865 10.1603 18.0035 9.94532 17.9455 9.39239C17.8873 8.83648 17.6567 8.39146 17.1404 7.83872C16.9048 7.58662 16.7122 7.35117 16.7122 7.31541C16.7122 7.27971 16.7956 7.23212 16.8977 7.20971C16.9997 7.1873 17.2172 7.04432 17.3809 6.89185L17.6786 6.61475L17.6489 6.10239C17.6235 5.66396 17.5922 5.55167 17.4322 5.32394C17.2215 5.02425 16.9203 4.83329 16.364 4.64658L15.9841 4.51904V3.0681C15.9841 1.38076 15.9875 1.39127 15.3481 1.06929C14.9817 0.88473 14.9436 0.879096 13.9898 0.86821C13.4501 0.86207 12.8233 0.884223 12.597 0.917452ZM15.086 1.41393C15.4382 1.5233 15.5947 1.7021 15.5471 1.94053C15.5006 2.17269 15.3528 2.28776 14.8535 2.4803C13.9263 2.83784 12.0137 2.66068 11.2252 2.14421L11.0524 2.03097L11.2669 1.85192C11.5195 1.64115 12.1071 1.43329 12.6701 1.35563C13.2056 1.28177 14.783 1.31981 15.086 1.41393ZM12.0905 2.85651C12.5397 2.98601 12.7804 3.01335 13.5466 3.02152C14.5328 3.03215 14.891 2.95962 15.3326 2.66005L15.5409 2.51865L15.4948 3.24975C15.4472 4.00238 15.3362 5.16052 15.2786 5.50496C15.2046 5.94745 14.0185 6.2491 12.8586 6.12043C12.1228 6.03878 11.6657 5.86352 11.6232 5.64687C11.491 4.97349 11.075 2.63473 11.0761 2.57169C11.0771 2.51156 11.1364 2.5177 11.3149 2.5965C11.4455 2.6541 11.7945 2.77113 12.0905 2.85651ZM16.4972 5.25382C16.8664 5.49882 17.1147 5.8539 17.1806 6.23145C17.2147 6.42709 17.19 6.49158 16.9928 6.72197C16.8678 6.86786 16.7281 6.98723 16.6822 6.98723C16.6363 6.98723 16.5136 7.08414 16.4095 7.20262C16.2494 7.38491 16.1452 7.43352 15.7314 7.51909C15.4625 7.57466 15.158 7.62017 15.0547 7.62017C14.7702 7.62017 14.8363 7.83448 15.1299 7.86379C15.3693 7.88765 16.1744 7.76454 16.3382 7.67903C16.5345 7.5765 17.3573 8.89117 17.4467 9.45024C17.5483 10.0851 16.7847 10.5072 15.1019 10.7462C14.7257 10.7997 14.5913 10.8435 14.5913 10.9126C14.5913 11.074 15.4002 11.0516 16.1266 10.87L16.269 10.8344L16.2697 12.1863C16.2703 13.3614 16.29 13.6332 16.4208 14.266C16.6121 15.1918 16.7787 15.6266 17.1171 16.0841C17.7281 16.9099 18.2886 17.3315 19.8144 18.1132C20.4238 18.4253 21.0648 18.7669 21.2389 18.8722C21.413 18.9776 21.7613 19.1813 22.0129 19.325C22.6021 19.6617 23.1428 20.1652 23.6068 20.8096C24.068 21.4499 24.3031 21.9149 24.5543 22.684C24.9801 23.9877 25.1504 25.0208 25.399 27.8108C25.5186 29.1529 25.497 33.7512 25.3616 35.7541C25.3028 36.6244 25.227 38.1767 25.1932 39.2036C25.1594 40.2306 25.0892 41.5265 25.0373 42.0835C24.9486 43.0355 24.6491 44.7947 24.4978 45.2531C24.402 45.5434 23.9514 45.9351 23.5335 46.0915C22.9482 46.3103 21.6562 46.6569 21.049 46.7579C19.0964 47.0828 19.0732 47.0839 14.7179 47.0792C11.0133 47.0751 10.4447 47.0606 9.01987 46.9345C8.14934 46.8575 7.00974 46.7664 6.48742 46.7321C5.44222 46.6633 4.98612 46.5787 4.17194 46.3024C3.13566 45.9507 2.52072 45.5316 2.3382 45.0524C2.12161 44.484 1.89445 42.8934 1.71072 40.6594C1.48615 37.9281 1.45399 37.043 1.41411 32.4945C1.36479 26.8767 1.42202 25.9707 1.96308 23.8001C2.22354 22.7553 2.54067 21.8715 2.8552 21.3138C3.10306 20.8742 3.94187 19.9353 4.61069 19.3487C5.39429 18.6615 6.52965 17.9366 7.94358 17.2208C8.32661 17.027 8.81601 16.7599 9.03114 16.6273C9.51484 16.3292 10.2908 15.6409 10.416 15.3989C10.6896 14.8699 10.9072 13.3205 10.9144 11.8503C10.9171 11.305 10.9423 10.8357 10.9704 10.8075C10.9986 10.7793 11.204 10.8198 11.427 10.8976C12.13 11.1429 13.7049 11.1523 13.7049 10.9112C13.7049 10.8318 13.5562 10.8153 12.7869 10.8091C12.0175 10.8029 11.8102 10.7798 11.5064 10.6667C11.3071 10.5924 11.0972 10.5317 11.0401 10.5317C10.9028 10.5317 10.0834 9.80234 9.96631 9.57606C9.91585 9.47847 9.87457 9.32536 9.87457 9.23574C9.87457 8.95642 10.114 8.37513 10.4119 7.93126C10.569 7.69713 10.6976 7.4713 10.6976 7.42953C10.6976 7.38212 10.7394 7.37041 10.8084 7.39852C11.262 7.58289 12.2404 7.81005 12.581 7.81005C12.9346 7.81005 12.9768 7.79657 12.9768 7.68346C12.9768 7.5727 12.9346 7.55688 12.6397 7.55688C12.3111 7.55688 11.1602 7.25427 10.816 7.07743C10.6498 6.99198 10.1911 6.41278 10.1911 6.28835C10.1911 6.02638 10.8503 5.22717 10.9153 5.41028C10.9328 5.45952 10.9749 5.57604 11.0089 5.66915C11.0977 5.91238 11.9756 6.33386 12.5653 6.41639C13.5381 6.55247 14.3335 6.45962 15.0377 6.12784C15.582 5.87124 15.6789 5.76978 15.7782 5.35167C15.8443 5.07343 15.8777 5.02514 16.0042 5.02514C16.0858 5.02514 16.3077 5.12805 16.4972 5.25382ZM11.9015 30.6273C11.6758 30.6785 11.1487 30.8196 10.7303 30.9408C10.3119 31.062 9.64804 31.2298 9.25507 31.3139L8.54054 31.4666L8.70262 31.2685C8.93155 30.9886 9.01132 30.8106 8.96352 30.686C8.92902 30.5961 8.86761 30.5849 8.59119 30.6182C7.42873 30.7579 6.15441 30.7996 5.24133 30.7276C4.71515 30.6861 4.26121 30.6756 4.23247 30.7044C4.20379 30.733 4.14902 31.5392 4.11072 32.4958C4.04234 34.2058 4.07102 35.3934 4.186 35.6117C4.24696 35.7275 4.49312 35.7674 4.49312 35.6614C4.49312 35.6279 4.55175 35.569 4.62341 35.5306C4.74098 35.4677 4.73763 35.4852 4.58885 35.71C4.30977 36.1315 4.1639 36.6011 4.13256 37.1782C4.09932 37.7917 4.32604 40.5921 4.42373 40.7746C4.5665 41.0413 5.5551 41.2529 8.02354 41.5448C8.62468 41.616 9.30939 41.7147 9.54516 41.7643C10.3395 41.9314 11.2263 41.9763 13.2934 41.9541C15.6235 41.9291 16.3826 41.8945 17.3769 41.768C17.76 41.7193 18.515 41.6335 19.0547 41.5774C20.5664 41.4202 22.0223 40.9736 22.1359 40.6323C22.1964 40.4503 22.1761 39.8421 22.0905 39.2781L22.0187 38.8045L22.3007 38.5635C22.5441 38.3556 22.5924 38.2724 22.6537 37.9561C22.8087 37.1566 22.8581 36.5976 22.8584 35.6374C22.8588 34.6955 22.8975 34.2876 23.2318 31.7033C23.2679 31.4248 23.3276 31.105 23.3647 30.9926C23.4018 30.8801 23.4149 30.7601 23.3938 30.726C23.2879 30.5548 22.6567 30.5753 20.4792 30.821C19.9666 30.8788 19.286 30.9046 18.6748 30.8894C17.5419 30.8612 17.4086 30.89 17.4086 31.1638C17.4086 31.3874 17.4348 31.3819 16.9584 31.2584C16.753 31.2053 15.9512 31.0315 15.1766 30.8724C13.5543 30.5391 12.6046 30.468 11.9015 30.6273ZM6.51908 31.0012C7.30255 30.999 8.02633 30.9764 8.12744 30.951L8.31135 30.9048L8.11769 31.1253C7.92231 31.3478 7.80537 31.6771 7.87932 31.7968C7.90135 31.8324 7.99701 31.8616 8.09192 31.8616C8.34852 31.8616 10.2147 31.4406 10.7615 31.2594C12.311 30.7458 13.3226 30.7908 15.7942 31.4831C17.5642 31.979 17.7152 32.0119 17.8201 31.9249C17.9376 31.8274 17.9443 31.569 17.8312 31.5008C17.7851 31.4729 17.7274 31.3963 17.7031 31.3305C17.6618 31.2184 17.6843 31.2136 18.0561 31.2545C19.6572 31.4304 20.9933 31.4045 22.4578 31.1691C23.0392 31.0757 23.1038 31.075 23.077 31.1626C23.0605 31.2163 22.9145 31.9154 22.7525 32.716C22.4763 34.0808 22.4549 34.2588 22.4099 35.5642C22.3488 37.3358 22.2757 37.7631 21.9806 38.0753L21.7608 38.3078L21.7721 39.3286C21.7784 39.89 21.7966 40.3835 21.8127 40.4253C21.8585 40.5447 21.661 40.6341 20.8192 40.8751C20.2047 41.0511 19.7632 41.1267 18.7698 41.2262C18.0734 41.296 17.2757 41.3838 16.9971 41.4214C16.2577 41.521 11.3122 41.6542 10.5843 41.594C10.2461 41.5661 9.78435 41.503 9.55802 41.4538C9.33168 41.4046 8.53396 41.29 7.7853 41.1989C5.46938 40.9175 4.91351 40.8001 4.84228 40.577C4.82892 40.5353 4.78467 39.6894 4.74383 38.6973C4.67033 36.9097 4.6709 36.8901 4.80714 36.5305C4.8828 36.3309 5.03785 36.056 5.15175 35.9197C5.4005 35.6221 5.53497 35.3194 5.48096 35.1787C5.44114 35.075 5.37644 35.0762 4.79385 35.1917L4.61974 35.2262L4.61898 34.6673C4.61778 33.8325 4.55789 31.6921 4.52402 31.2723L4.49426 30.9046L4.79442 30.9549C4.95953 30.9826 5.7356 31.0034 6.51908 31.0012ZM11.0144 34.2465C10.4241 34.3703 9.43139 35.0895 9.43139 35.3934C9.43139 35.5885 9.5287 35.5676 9.83285 35.3072L10.0962 35.0818L10.1297 36.7788C10.1481 37.7121 10.1876 38.5421 10.2175 38.6233C10.2583 38.7339 10.3053 38.7618 10.4056 38.7349C10.4791 38.7151 10.5881 38.6986 10.6477 38.6982C10.8223 38.6968 10.907 38.2471 10.8705 37.5152C10.8417 36.9376 10.8491 36.8749 10.9421 36.9079C11.1354 36.9764 11.2082 37.0699 11.4348 37.5411C11.7506 38.1974 12.1276 38.4019 12.5854 38.1652C12.7333 38.0888 12.7747 38.0888 12.8793 38.1652C13.1102 38.334 13.3452 38.259 13.5593 37.9481C13.6606 37.8011 13.6615 37.801 13.7034 37.9329C13.764 38.1241 14.0237 38.2326 14.5091 38.2699C15.0591 38.3121 15.103 38.263 15.1469 37.558C15.1922 36.8299 15.2512 36.6917 15.3606 37.0575C15.4065 37.211 15.4444 37.4134 15.445 37.5074C15.4455 37.6014 15.4768 37.8222 15.5145 37.9979C15.577 38.2893 15.5987 38.3175 15.76 38.3175H15.9369L15.9648 37.7637C15.9933 37.1962 16.2113 36.5192 16.325 36.6448C16.3542 36.6771 16.4135 37.088 16.4568 37.558C16.5015 38.0443 16.5667 38.4331 16.608 38.4605C16.6479 38.4869 16.7518 38.5012 16.8388 38.4921L16.9971 38.4757L16.9823 37.7517C16.9543 36.3847 16.6338 35.8513 16.1468 36.3608C16.0441 36.4681 15.9402 36.6462 15.9157 36.7564L15.8713 36.9567L15.8093 36.7985C15.6799 36.4679 15.6151 36.361 15.5231 36.3257C15.3948 36.2765 15.1495 36.4455 15.0936 36.6217L15.0482 36.7647L14.9959 36.6234C14.9311 36.4484 14.7146 36.4373 14.6251 36.6044C14.5891 36.6718 14.5596 37.0013 14.5596 37.3367C14.5596 37.9322 14.5562 37.9461 14.4177 37.9264C14.236 37.9004 14.1334 37.6813 14.0599 37.1625C13.9905 36.6725 13.9015 36.482 13.7421 36.482C13.5442 36.482 13.4777 36.6367 13.4931 37.061C13.5042 37.3665 13.479 37.5067 13.3882 37.6448C13.2801 37.8093 13.2644 37.8153 13.2222 37.7081C13.1966 37.6429 13.1728 37.4045 13.1692 37.1782C13.1626 36.7605 13.0722 36.5453 12.9034 36.5453C12.7154 36.5453 12.6603 36.6966 12.6603 37.2127C12.6603 37.6318 12.6386 37.7479 12.5445 37.833C12.4808 37.8906 12.3983 37.9377 12.3611 37.9377C12.2625 37.9377 11.9266 37.5371 11.798 37.2661C11.737 37.1376 11.5652 36.9466 11.4164 36.8417L11.1457 36.651L11.5706 36.4316C12.091 36.1629 12.5045 35.8359 12.6296 35.594C12.8486 35.1706 12.671 34.631 12.2276 34.3721C12.014 34.2474 11.3417 34.1778 11.0144 34.2465ZM11.8486 34.7572C12.0018 34.9371 12.1077 35.2654 12.066 35.4315C12.0447 35.5165 11.9157 35.6951 11.7793 35.8284C11.5373 36.0648 10.8417 36.524 10.7996 36.475C10.788 36.4614 10.7612 36.0717 10.74 35.6089C10.6953 34.6323 10.6787 34.6577 11.3684 34.6505C11.6613 34.6474 11.777 34.6732 11.8486 34.7572Z" fill="white"/>
</svg>
