<svg width="71" height="39" viewBox="0 0 71 39" fill="none" xmlns="http://www.w3.org/2000/svg">
<path fill-rule="evenodd" clip-rule="evenodd" d="M66.4366 1.12778C65.0797 1.41816 64.8125 1.60295 64.6961 2.33137C64.6569 2.57603 64.3422 2.65502 63.3007 2.68162C62.8835 2.69224 62.3031 2.73493 62.011 2.7766C61.6308 2.83071 61.4799 2.81867 61.4799 2.73432C61.4799 2.55874 61.1639 2.30689 60.8434 2.22689C60.4754 2.13505 59.7244 2.41967 59.4653 2.74899C59.2812 2.98293 59.1781 3.00487 57.7698 3.10945C56.9451 3.17065 54.6643 3.36332 52.7014 3.53759L49.1324 3.85447L48.9826 3.62588C48.6788 3.16225 48.1338 3.22941 47.4699 3.81219L47.0935 4.14262L44.0446 4.36533C42.3678 4.48781 40.3357 4.6375 39.529 4.69799C38.7223 4.75847 36.8332 4.89886 35.331 5.01001C32.8311 5.1949 31.2979 5.31769 25.7093 5.78021L23.7755 5.94032L23.5138 5.67866C23.3294 5.49428 23.1446 5.41701 22.8884 5.41701C22.4794 5.41701 21.9807 5.63891 21.8966 5.85829C21.8319 6.02679 21.6588 6.05916 19.3484 6.33517C16.9579 6.6208 14.7691 6.754 13.6257 6.68361C12.7569 6.63 12.6309 6.64477 12.3995 6.82672C12.0435 7.10678 11.9134 7.67096 11.8433 9.23957C11.7936 10.3502 11.753 10.6053 11.6096 10.7061C11.5142 10.7732 11.2476 11.0973 11.0172 11.4265C10.636 11.971 10.5983 12.0808 10.5983 12.6495C10.5983 13.4909 10.9046 14.0897 11.4775 14.3681C11.9316 14.5887 12.1732 14.9702 12.2793 15.6338C12.3218 15.899 12.3057 16.0369 12.2323 16.0369C12.171 16.0369 12.0454 16.1848 11.9531 16.3656C11.7723 16.7196 11.3937 17.1876 10.4632 18.207C9.88244 18.8431 9.01716 19.4843 8.01713 20.0197C7.73804 20.1691 7.29417 20.4755 7.03086 20.7006L6.55208 21.1098V22.8144C6.55208 24.4944 6.54874 24.5202 6.32448 24.5884C5.92785 24.709 4.98598 25.3193 4.50367 25.7684L4.03814 26.2017L3.10003 26.2165C1.97041 26.2343 1.02592 26.494 0.947018 26.8083C0.918593 26.9213 0.896132 27.8668 0.896941 28.9093C0.89775 29.9519 0.868107 30.854 0.831084 30.914C0.793959 30.974 0.79548 31.405 0.834425 31.8719L0.905137 32.7208L1.26475 32.82C1.46251 32.8746 1.69749 32.8859 1.78692 32.8453C1.87634 32.8046 2.05801 32.7724 2.19073 32.7736C2.38434 32.7755 2.45586 32.8564 2.55287 33.1838C2.90034 34.3555 3.80215 35.6875 4.78185 36.4757C6.46246 37.8278 8.98287 38.4036 11.0045 37.8973C13.2981 37.3228 15.1538 35.7392 15.929 33.6948L16.2008 32.9782L26.9798 33.0021C38.1818 33.0268 39.4279 33.0545 39.4279 33.279C39.4279 33.351 39.6172 33.7907 39.8486 34.256C40.4488 35.4631 41.667 36.6758 42.8672 37.261C44.1268 37.8752 44.8138 38.0277 46.3065 38.0246C47.3984 38.0221 47.6814 37.9852 48.3802 37.754C49.7248 37.309 50.9034 36.5062 51.7395 35.4659C52.1766 34.922 52.9824 33.3986 52.9831 33.115C52.9834 33.0051 53.3407 32.9782 54.799 32.9782C56.1478 32.9782 56.6481 32.9446 56.745 32.8475C56.8517 32.7408 56.8513 32.7019 56.7429 32.6349C56.6529 32.5793 56.5992 32.2468 56.5764 31.6023C56.5074 29.6597 55.9014 27.9121 54.9312 26.8582C54.361 26.2388 54.092 26.1621 52.463 26.1556L51.3869 26.1511L51.337 25.8224C51.3096 25.6415 51.2785 23.9861 51.268 22.1435C51.245 18.1477 51.1542 16.3218 50.9673 16.0966C50.8613 15.969 50.622 15.9357 49.8093 15.9354C49.2458 15.9352 48.2045 15.9053 47.4951 15.8692L46.2053 15.8034V14.8582C46.2053 14.3383 46.2395 13.9105 46.2812 13.9075C46.3229 13.9044 46.7141 13.8646 47.1505 13.8189C47.7826 13.7526 48.0065 13.7668 48.251 13.8888C48.4198 13.9729 48.7525 14.0637 48.9903 14.0905C49.3631 14.1326 49.4545 14.1028 49.653 13.8744C49.7798 13.7288 49.9397 13.6095 50.0085 13.6095C50.0773 13.6095 50.1489 13.5636 50.1676 13.5073C50.1991 13.413 51.6612 13.209 55.9163 12.7054C56.8343 12.5968 57.8585 12.4811 58.1924 12.4482C58.5262 12.4154 59.1309 12.3382 59.5362 12.2766C60.2077 12.1746 60.2852 12.181 60.4078 12.3487C60.5047 12.4811 60.7162 12.5452 61.1631 12.5776C61.8732 12.6289 62.3004 12.4914 62.4434 12.1654C62.5292 11.9699 62.6669 11.9252 63.5031 11.8218C64.0316 11.7565 64.6514 11.675 64.8804 11.6407L65.2966 11.5784L65.3593 11.97C65.43 12.4121 65.641 12.6391 66.0778 12.7433C66.4281 12.8269 68.4089 12.6242 68.733 12.4717C68.9778 12.3565 69.1678 11.9189 69.1678 11.4705C69.1678 11.212 69.2023 11.1821 69.4993 11.1821C70.5013 11.1821 70.6669 10.1541 70.2329 6.63071C70.154 5.99099 70.0125 4.83908 69.9183 4.07091C69.7071 2.34937 69.6329 2.22537 68.8253 2.24408C68.3325 2.25551 68.2559 2.23063 68.203 2.0418C68.0479 1.48785 67.9035 1.24935 67.6413 1.11372C67.3108 0.942793 67.3004 0.942995 66.4366 1.12778ZM67.5518 2.40803C67.6189 2.81139 67.7136 3.30061 67.7621 3.49531C67.8108 3.69001 67.897 4.78234 67.9537 5.92272C68.0104 7.06309 68.1021 8.67883 68.1576 9.51326C68.3111 11.8255 68.3408 11.6495 67.7769 11.7723C66.8815 11.9672 66.4764 11.9921 66.3019 11.8633C66.1522 11.7526 66.1298 11.4196 66.1063 8.95698L66.0798 6.17557L65.64 4.26793C65.1218 2.01995 65.109 2.06779 66.2904 1.83324C67.4738 1.59829 67.4124 1.57038 67.5518 2.40803ZM60.8629 3.11603C60.9217 3.29687 61.0179 3.87672 61.0768 4.40468C61.1358 4.93274 61.2498 5.77475 61.3303 6.2758C61.5044 7.35893 61.6801 9.67073 61.6813 10.8931C61.6822 11.8082 61.641 11.8901 61.1783 11.8901C61.0111 11.8901 60.9933 11.7772 60.9826 10.6511C60.9577 7.98166 60.6025 5.31091 60.0004 3.26592C59.9621 3.13575 60.0392 3.04745 60.284 2.94126C60.7407 2.74282 60.7418 2.74322 60.8629 3.11603ZM69.3127 4.68373C69.4108 5.7268 69.5319 7.41962 69.5817 8.4457C69.6762 10.3903 69.6637 10.4687 69.2574 10.4726C69.0508 10.4745 69.006 10.1606 68.81 7.3387C68.6513 5.05239 68.5173 3.66462 68.4023 3.11603C68.3336 2.78894 68.3352 2.78732 68.7337 2.78732H69.1342L69.3127 4.68373ZM64.8511 3.5206C64.8837 3.75697 64.9807 4.42834 65.0665 5.01244C65.209 5.98057 65.4802 10.8572 65.3963 10.9412C65.3547 10.9827 64.1546 11.1411 63.1743 11.2344L62.4915 11.2993V10.8065C62.4915 10.0863 62.1214 6.66469 61.8976 5.31587C61.7915 4.67614 61.6763 3.95925 61.6417 3.72288L61.5787 3.29303L62.111 3.2817C62.5862 3.27158 64.3879 3.1491 64.6785 3.10713C64.7408 3.09812 64.8185 3.28423 64.8511 3.5206ZM59.5894 4.43087C59.839 5.8419 60.048 8.20842 60.0831 10.019L60.1143 11.6372L59.2039 11.7537C58.7032 11.8177 56.6093 12.0786 54.5507 12.3335C52.4922 12.5885 50.6828 12.8127 50.5298 12.8318C50.3592 12.8531 50.2516 12.8187 50.2516 12.743C50.2516 12.1823 49.78 8.21065 49.6362 7.5598C49.4878 6.88832 49.2242 4.48883 49.2915 4.42147C49.3244 4.3886 50.066 4.30728 50.9395 4.24073C53.4318 4.05088 56.3516 3.80116 57.7877 3.65511C58.511 3.58148 59.175 3.51544 59.2634 3.50826C59.3887 3.49814 59.4603 3.70043 59.5894 4.43087ZM48.4678 4.0528C48.5002 4.13695 48.5747 4.71731 48.6335 5.34236C48.6924 5.96752 48.8063 6.95689 48.8866 7.54099C49.0434 8.68035 49.292 11.013 49.4013 12.3698C49.4684 13.2048 49.3877 13.5107 49.1012 13.5068C48.7641 13.5022 48.7044 13.306 48.5742 11.7743C48.3882 9.58497 47.942 5.64559 47.8254 5.16415C47.6611 4.48509 47.6964 4.26652 48.0009 4.07768C48.3456 3.86397 48.3943 3.86134 48.4678 4.0528ZM47.2056 5.34115C47.2675 5.68888 47.3626 6.42843 47.4167 6.98471C47.4708 7.54099 47.5896 8.65608 47.6805 9.46268C47.7715 10.2693 47.8751 11.4402 47.9107 12.0648L47.9756 13.2004L47.5204 13.257C47.27 13.2882 46.8772 13.3367 46.6475 13.3648L46.2298 13.4159L46.1707 12.7794C46.1383 12.4294 46.0833 11.8208 46.0488 11.4272C46.0142 11.0334 45.9458 10.6466 45.8967 10.5675C45.829 10.4584 45.5613 10.4236 44.7925 10.4239L43.7776 10.4243V10.1493C43.7776 9.98104 43.7017 9.83377 43.582 9.76965C43.4719 9.71078 42.7194 9.66497 41.8623 9.66497H40.3383V9.4283C40.3383 9.04598 39.7543 7.98783 39.2664 7.48586C38.0792 6.26437 36.0703 6.0804 34.6132 7.05965C33.9891 7.47919 33.2356 8.41475 32.9798 9.08785C32.7373 9.72596 32.6893 9.74274 31.0644 9.75599C30.0703 9.76419 29.8006 9.79797 29.6677 9.93087C29.5771 10.0215 29.5237 10.1497 29.5492 10.216C29.58 10.2964 29.3389 10.379 28.8215 10.4652C27.0782 10.7556 26.0447 11.2826 25.0384 12.3945C24.7184 12.748 24.4567 13.0749 24.4567 13.121C24.4567 13.1672 24.4213 13.2049 24.3779 13.2049C24.3346 13.2049 24.2183 12.3744 24.1195 11.3591C24.0206 10.3438 23.8967 9.09584 23.8441 8.58578C23.7916 8.07562 23.7486 7.38482 23.7486 7.05065V6.44299L24.2797 6.38939C24.5719 6.35985 26.2447 6.2405 27.9972 6.12409C31.4242 5.89632 37.1719 5.48406 39.2256 5.3186C39.921 5.26256 41.7646 5.12359 43.3224 5.00971C44.8802 4.89582 46.223 4.78689 46.3065 4.76758C46.3899 4.74826 46.6011 4.72722 46.7756 4.72075C47.0873 4.70922 47.0948 4.72004 47.2056 5.34115ZM23.0405 8.11234C23.0405 9.88364 23.0895 10.668 23.2968 12.2186C23.4377 13.2728 23.5614 14.165 23.5717 14.2012C23.5819 14.2373 23.5284 14.4262 23.4528 14.6209L23.3152 14.9749L23.2334 14.4692C22.9736 12.8635 22.534 9.4106 22.4286 8.14784C22.3207 6.85595 22.3252 6.63607 22.4659 6.302C22.5766 6.03893 22.6891 5.92272 22.8331 5.92272C23.0359 5.92272 23.0405 5.97197 23.0405 8.11234ZM21.7616 8.42598C21.8675 11.075 22.2677 15.1091 22.4765 15.6323C22.5292 15.7643 22.3215 15.7794 20.8798 15.7487C19.9681 15.7291 18.6817 15.767 18.0209 15.8326C17.3601 15.8983 16.3588 15.9768 15.7957 16.0072L14.772 16.0623L14.6598 15.5691C14.2446 13.745 13.8359 10.1875 13.8355 8.39331L13.8353 7.37451L14.3158 7.37329C15.3523 7.37056 20.6141 6.95487 21.1186 6.83573C21.3133 6.78981 21.5224 6.74763 21.5833 6.74197C21.6569 6.73529 21.7165 7.29825 21.7616 8.42598ZM13.1787 7.79384C13.0136 9.57758 12.9979 9.1986 13.3622 12.1935C13.4468 12.8889 13.5677 13.9584 13.6309 14.5704C13.694 15.1823 13.7708 15.7854 13.8015 15.9105C13.8669 16.1774 13.6333 16.225 13.4006 15.9924C13.0343 15.6261 12.4756 8.2421 12.7555 7.46513C12.8021 7.33547 12.9219 7.23756 13.0338 7.23756C13.2106 7.23756 13.2251 7.29289 13.1787 7.79384ZM37.4839 7.69786C38.4334 8.09383 38.9387 8.9234 39.003 10.1919L39.0476 11.0728L38.4342 11.6861C37.7297 12.3905 37.146 12.6939 36.4889 12.697C35.6005 12.7013 34.6354 12.0053 34.1178 10.987C33.7487 10.2608 34.17 9.03404 35.0647 8.22966C35.8121 7.55778 36.6868 7.36541 37.4839 7.69786ZM34.2462 8.32484C33.9905 8.61643 33.734 9.17848 33.6115 9.71554C33.4979 10.2133 33.4898 10.2215 33.0985 10.2352C32.7988 10.2456 32.7755 10.2372 33.0041 10.2007C33.3335 10.1482 33.4557 10.0216 33.4581 9.7302C33.461 9.38744 34.1603 8.14784 34.3508 8.14784C34.3787 8.14784 34.3315 8.22754 34.2462 8.32484ZM41.4866 10.2331C42.8552 10.1721 43.0695 10.183 43.0695 10.3137C43.0695 10.4407 42.795 10.4697 41.3497 10.4947L39.6299 10.5247L39.6301 10.2272C39.6302 9.95251 39.6406 9.94402 39.767 10.1168C39.8939 10.2903 40.0172 10.2986 41.4866 10.2331ZM33.1988 11.1062C33.5053 12.1751 34.1386 13.0296 34.9239 13.4335C35.4412 13.6997 36.7096 13.7899 37.3629 13.6071C38.3914 13.3191 39.5891 12.2186 39.8803 11.294C39.9559 11.0537 39.9648 11.0523 40.9819 11.1142C41.5459 11.1486 42.7036 11.1269 43.5546 11.0661C44.4057 11.0052 45.1182 10.9723 45.1381 10.9929C45.1755 11.0316 45.4335 13.5293 45.5522 15.0002L45.6194 15.8346L45.1284 15.8451C40.7024 15.9398 23.7633 15.9841 23.6804 15.9012C23.6196 15.8404 24.1529 14.7827 24.2662 14.7394C24.314 14.721 24.4406 14.5161 24.5472 14.2842C24.8627 13.598 25.7821 12.4796 26.3638 12.0745C27.4437 11.3224 28.8914 11.0125 31.4144 10.9932C32.7355 10.983 33.1714 11.0107 33.1988 11.1062ZM44.4351 16.49C45.1027 16.5128 46.7486 16.5452 48.0927 16.5622L50.5365 16.5932L50.5952 16.9472C50.6746 17.4256 50.6726 24.5268 50.593 24.9249L50.5298 25.241L49.809 24.8447C47.1612 23.3887 44.1992 23.5722 41.8479 25.3378L41.1827 25.8374L30.8725 25.8451C25.1629 25.8494 19.2238 25.9041 17.5628 25.9678L14.5635 26.0827L14.0224 25.6206C13.2781 24.9849 12.1014 24.3714 11.1458 24.1207C10.2825 23.8943 8.76568 23.8169 7.94298 23.9574L7.46249 24.0396L7.46137 22.946C7.46077 22.3446 7.43497 21.6933 7.40412 21.4986C7.34838 21.1471 7.35323 21.1417 8.08803 20.7468C8.77043 20.38 9.46235 19.9338 10.0926 19.4543C10.612 19.059 11.6756 17.9629 12.1157 17.3694C12.366 17.0317 12.6186 16.7353 12.677 16.7106C12.7355 16.6858 13.0769 16.6948 13.4357 16.7305C13.7946 16.7662 15.0441 16.7624 16.2125 16.7219C20.0954 16.5876 23.3372 16.5291 29.3032 16.4857C32.553 16.462 35.2387 16.4153 35.2715 16.3819C35.3278 16.3244 41.8261 16.401 44.4351 16.49ZM48.2015 24.8657C50.7957 25.7893 52.4318 27.9649 52.5529 30.6519C52.6407 32.6008 52.0758 34.0367 50.6588 35.4669C49.7086 36.4259 48.8424 36.9309 47.6215 37.2375C46.7708 37.4511 45.4187 37.452 44.5994 37.2394C42.6044 36.7218 40.7757 35.0184 40.0581 33.0092C39.6743 31.9347 39.6196 30.2974 39.933 29.2656C40.2186 28.3256 40.4521 27.8644 41.0236 27.112C41.9463 25.8969 43.2607 25.0291 44.688 24.6925C45.6884 24.4567 47.2716 24.5347 48.2015 24.8657ZM10.8553 24.7909C13.1102 25.3778 14.8713 27.1607 15.4567 29.4492C15.7 30.4006 15.72 31.8311 15.5016 32.6695C15.2563 33.6111 14.6778 34.595 13.8556 35.4688C13.2285 36.1353 12.9497 36.3442 12.1796 36.7243C10.092 37.7546 7.95077 37.7072 6.09688 36.5896C3.5614 35.061 2.28076 31.949 3.08 29.258C3.5529 27.666 4.85266 26.0789 6.30526 25.3198C7.49314 24.699 9.57332 24.4573 10.8553 24.7909ZM36.1679 26.5138L40.5453 26.5796L40.3366 26.8963C39.4679 28.2148 39.1141 29.439 39.1124 31.1323L39.1112 32.3208H32.3064C28.5637 32.3208 23.457 32.2907 20.9581 32.2541L16.4148 32.1874V30.8634C16.4148 29.6756 16.3856 29.4541 16.1303 28.7108C15.9738 28.2551 15.6716 27.6128 15.4588 27.2836L15.0719 26.685L16.4514 26.6061C19.8271 26.4131 27.1698 26.3787 36.1679 26.5138ZM54.0857 27.2216C54.4709 27.643 54.6799 28.0096 54.9966 28.8195C55.462 30.0099 55.7104 30.9644 55.7125 31.5723L55.714 31.9871L54.788 32.0527C54.2788 32.0889 53.7211 32.1185 53.5489 32.1186H53.2357L53.2706 31.2191C53.3195 29.9633 53.0939 28.9496 52.5029 27.7694C52.2383 27.2409 52.0093 26.7823 51.994 26.7503C51.9786 26.7183 52.3306 26.6882 52.7759 26.6834L53.5857 26.6746L54.0857 27.2216ZM3.20816 27.4407C2.60547 28.3907 2.12437 30.5096 2.27003 31.5721C2.30645 31.8385 2.29098 32.0173 2.2313 32.0173C2.17647 32.0173 2.0741 31.3916 2.0039 30.6266C1.9337 29.8618 1.8209 28.771 1.75333 28.2028L1.63032 27.1697L2.04283 27.1156C2.26963 27.0858 2.63734 27.0463 2.85988 27.0278C3.08243 27.0094 3.32045 26.9866 3.38873 26.9772C3.45701 26.9679 3.37577 27.1765 3.20816 27.4407ZM8.52463 27.1652C6.87568 27.4975 5.69459 28.9438 5.56834 30.7854C5.45737 32.4045 5.98905 33.3903 7.29741 33.991C8.75123 34.6586 9.89257 34.6829 11.1126 34.0727C11.898 33.6798 12.3397 33.2242 12.7087 32.4266C13.0794 31.6247 13.1396 30.0944 12.8324 29.2785C12.4159 28.1724 11.5714 27.4745 10.3317 27.212C9.57331 27.0514 9.14421 27.0402 8.52463 27.1652ZM45.5233 27.2693C44.4785 27.4755 43.1783 28.5014 42.7332 29.471C42.4004 30.196 42.4209 31.5689 42.7755 32.3208C43.2911 33.4136 44.2569 34.1066 45.5984 34.3464C46.9258 34.5837 48.2335 34.2326 49.1103 33.4036C49.8474 32.7065 50.1728 31.9915 50.2304 30.9419C50.2908 29.8445 50.0951 29.2613 49.4179 28.5204C48.8214 27.868 48.1712 27.5076 47.2301 27.3082C46.4884 27.151 46.161 27.1435 45.5233 27.2693ZM10.3464 27.9807C11.045 28.242 11.9302 29.0744 12.2402 29.7613C12.726 30.8382 12.4548 31.9824 11.5025 32.8732C10.458 33.8499 9.44353 34.0479 8.34174 33.4897C6.79931 32.7082 6.19278 31.0516 6.89116 29.5275C7.57376 28.0376 8.90518 27.4416 10.3464 27.9807ZM47.4512 28.0315C47.7112 28.1201 48.1494 28.3953 48.4251 28.6431C49.7685 29.8508 49.8367 31.6597 48.5827 32.8155C47.8859 33.4577 47.1899 33.7627 46.3065 33.8132C45.564 33.8556 45.5349 33.8481 44.9409 33.4606C44.535 33.1957 44.1999 32.866 43.9293 32.4651L43.5247 31.8656V30.6938C43.5247 29.5757 43.5376 29.5031 43.8073 29.1143C43.9627 28.89 44.1992 28.6039 44.3328 28.4784C44.9097 27.9365 46.5023 27.7083 47.4512 28.0315ZM8.6794 29.0894C7.36538 29.6464 6.98514 31.1491 7.89585 32.1862C8.82659 33.2463 10.6016 33.1552 11.1863 32.0173C11.3791 31.642 11.4143 31.438 11.3867 30.8542C11.348 30.0313 11.1296 29.6541 10.4816 29.2898C10.0244 29.0329 9.0645 28.9261 8.6794 29.0894ZM45.287 29.2697C44.6644 29.6646 44.4495 30.1615 44.5017 31.0851C44.5506 31.9522 44.8534 32.4149 45.5443 32.6788C46.1095 32.8946 46.9172 32.8369 47.3002 32.5532C48.2061 31.8824 48.3988 30.4259 47.6887 29.6172C47.0683 28.9108 46.079 28.7675 45.287 29.2697ZM46.6818 29.7887C47.0019 29.9838 47.4192 30.644 47.4192 30.9553C47.4192 31.4802 46.7339 32.2196 46.2476 32.2196C45.7203 32.2196 45.0926 31.4637 45.0926 30.8286C45.0926 30.4055 45.4894 29.8653 45.9054 29.722C46.3602 29.5655 46.3083 29.561 46.6818 29.7887ZM10.1001 30.1531C10.1918 30.236 10.3505 30.4895 10.4529 30.7163C10.6345 31.1193 10.6343 31.1371 10.4415 31.4894C10.1935 31.9429 9.60649 32.2622 9.18943 32.1707C8.57753 32.0362 8.06942 31.3963 8.06942 30.7598C8.06942 30.4228 8.61607 29.814 8.95949 29.7685C9.26559 29.728 9.84694 29.924 10.1001 30.1531Z" fill="white"/>
</svg>
