<svg width="59" height="34" viewBox="0 0 59 34" fill="none" xmlns="http://www.w3.org/2000/svg">
<path fill-rule="evenodd" clip-rule="evenodd" d="M56.6444 0.178975C56.619 0.245136 56.6172 0.48299 56.6404 0.707494C56.682 1.11053 56.6789 1.11812 56.4011 1.29734C56.2088 1.42137 56.112 1.54572 56.0954 1.68978C56.0671 1.93524 56.1962 1.96424 56.5357 1.78879L56.7523 1.67681L56.7995 2.02212C56.8611 2.47105 56.9714 2.66823 57.1612 2.66823C57.3784 2.66823 57.4199 2.49262 57.3358 1.92972L57.2623 1.4382L57.675 1.20531C57.902 1.07729 58.073 0.93091 58.055 0.880099C58.0194 0.779322 57.9659 0.776645 57.4878 0.852247L57.167 0.902985L57.0442 0.480758C56.9215 0.0586912 56.7425 -0.0764605 56.6444 0.178975ZM27.8676 1.8756C26.7848 2.01015 25.9933 2.24354 24.9995 2.72126C23.6747 3.35808 22.8559 3.89812 22.0288 4.68078C18.4661 8.05248 17.75 13.693 20.3577 17.8455C21.5534 19.7496 23.4162 21.3015 25.402 22.0479L25.8582 22.2193L23.3698 22.2719C20.4637 22.3334 18.025 22.434 16.4815 22.5561C15.8773 22.604 15.2382 22.6193 15.0612 22.5901C14.6041 22.5147 14.4552 22.5256 14.383 22.6395C14.3482 22.6943 14.3192 23.4221 14.3185 24.2567C14.3173 25.7577 14.3192 25.7751 14.4901 25.8488C14.5851 25.8899 15.1119 25.9496 15.6608 25.9815L16.6589 26.0396V27.2906V28.5417L13.4728 28.541C9.07979 28.5402 2.39334 28.677 1.41965 28.7878L0.61354 28.8795L0.596821 29.8389C0.587685 30.3666 0.557034 31.0281 0.528858 31.3091C0.477959 31.816 0.479171 31.8206 0.700658 31.9351C1.20037 32.1935 2.04227 32.2633 5.48856 32.3318C7.14153 32.3647 8.8894 32.3137 12.3213 32.1324C13.1869 32.0867 14.966 32.0181 16.275 31.9801C17.584 31.9421 18.7871 31.8897 18.9486 31.8637C19.3921 31.7922 19.4281 31.6485 19.3271 30.3542C19.2804 29.755 19.2484 29.2584 19.256 29.2508C19.2743 29.2326 21.5649 29.4752 21.5967 29.4988C21.6101 29.5087 21.5629 29.8337 21.4917 30.221C21.4205 30.6083 21.3577 31.1698 21.3521 31.4689C21.3422 32.0001 21.3468 32.0141 21.5527 32.0704C21.6703 32.1025 21.7833 32.0961 21.8082 32.0557C21.8329 32.0159 21.9625 32.0011 22.0965 32.023C22.2304 32.0448 22.8755 32.1537 23.53 32.2649C24.8583 32.4906 25.7249 32.5291 32.7042 32.6724C34.8577 32.7166 37.3017 32.772 38.1354 32.7955C39.802 32.8425 39.9591 32.8135 39.9591 32.4586C39.9591 32.3406 39.9337 32.2184 39.9026 32.1873C39.8715 32.1562 39.8408 32.0209 39.8345 31.8867C39.8282 31.7525 39.7969 31.1399 39.7649 30.5254L39.7066 29.4081L40.2359 29.4329C41.4777 29.491 42.1636 29.5477 42.2469 29.5991C42.3127 29.6398 42.3164 29.8235 42.2613 30.303C42.2203 30.6599 42.1872 31.2282 42.1878 31.5659C42.1895 32.4873 42.194 32.4905 43.6058 32.5965C45.8899 32.7678 47.7251 32.831 50.5537 32.8357C52.1371 32.8383 54.659 32.886 56.158 32.9418C57.657 32.9976 58.908 33.0291 58.9381 33.0118C58.9681 32.9946 58.9925 32.1856 58.9923 31.2141C58.9921 29.9056 58.9679 29.4388 58.8993 29.413C58.8154 29.3816 57.7444 29.3274 56.8388 29.3089C56.4082 29.3001 56.4177 29.3237 56.3118 27.9968C56.2697 27.4692 56.2187 26.8914 56.1983 26.7129L56.1614 26.3884L56.486 26.4284C56.8745 26.4763 56.926 26.4427 57.1128 26.0193C57.2425 25.7253 57.2484 25.6275 57.1706 25.0599C57.014 23.9164 57.0004 23.6807 56.9675 21.5237L56.9348 19.387L57.5253 19.413L58.1157 19.4388L58.1771 18.4027C58.211 17.8328 58.2166 17.0512 58.1899 16.6658L58.1411 15.9651L57.8981 15.8955C57.6845 15.8343 57.6488 15.7844 57.6032 15.4833C57.5746 15.2949 57.5488 14.6709 57.5456 14.0967C57.5392 12.9305 57.4625 12.5914 57.1895 12.523C57.0897 12.4979 56.985 12.405 56.9569 12.3165C56.9289 12.228 56.919 11.4803 56.935 10.6548L56.9641 9.1539L56.7032 9.12903L56.4423 9.10408L56.4918 8.24636C56.5189 7.77456 56.5413 7.22454 56.5415 7.02399L56.5419 6.65942H56.9243C57.2744 6.65942 57.311 6.64213 57.358 6.45508C57.3861 6.34271 57.3692 5.83323 57.3202 5.32297C57.2711 4.81272 57.2314 4.23545 57.232 4.04019C57.2327 3.71507 57.2151 3.68131 57.0217 3.63879C56.9056 3.61323 56.5687 3.53954 56.2732 3.47499C55.3801 3.27996 54.1598 3.20673 51.8204 3.20788C49.3388 3.20904 46.0167 3.33945 42.0156 3.59289C40.5968 3.68277 39.8926 3.85907 39.7286 4.1654C39.6486 4.31484 39.6454 4.3809 39.715 4.45044C39.8148 4.55022 39.8307 5.11566 39.7559 5.90699C39.7104 6.38931 39.695 6.42247 39.5069 6.44426L39.3066 6.46752L39.3193 8.53988C39.3312 10.4652 39.3245 10.5776 39.2266 10.1247C38.2818 5.75794 34.9143 2.60775 30.4778 1.94031C29.7819 1.83569 28.4539 1.80269 27.8676 1.8756ZM31.2839 2.77561C32.2171 3.02422 32.6996 3.21113 33.5175 3.64094C35.581 4.72516 37.3994 6.80463 38.1883 8.98205C38.762 10.5654 38.9501 12.4215 38.6889 13.9217C37.9816 17.9847 34.8621 21.1651 30.7849 21.9801C29.9261 22.1517 28.0643 22.1497 27.2534 21.9763C25.2669 21.5513 23.6446 20.6783 22.2619 19.2899C20.8162 17.8384 19.9312 16.2054 19.4932 14.1812C19.3044 13.3088 19.2635 11.5332 19.4125 10.6788C19.9613 7.53109 22.0343 4.78608 24.9327 3.36898C26.2997 2.70061 27.3601 2.50752 29.403 2.55472C30.3323 2.57621 30.6954 2.6188 31.2839 2.77561ZM54.79 3.81469C55.1986 3.85123 55.8119 3.94134 56.1527 4.01495L56.7722 4.14873L56.7778 4.80928C56.7809 5.17255 56.808 5.64243 56.8382 5.8535L56.893 6.23726H50.8252C45.011 6.23726 43.0447 6.26888 41.1107 6.3933L40.2278 6.45009L40.2155 5.37409L40.2031 4.2981L40.6377 4.20766C41.1222 4.10689 41.297 4.09522 44.1816 3.97096C45.3005 3.92275 46.8034 3.85707 47.5212 3.82498C49.3704 3.74224 53.9073 3.73579 54.79 3.81469ZM27.2918 4.16416C26.2407 4.39841 25.1594 4.84811 24.3744 5.37763C23.972 5.64903 22.6441 6.98484 22.2227 7.54207C21.5382 8.44722 21.0183 9.70153 20.7939 10.989C20.6313 11.9215 20.689 13.7398 20.9073 14.565C21.4472 16.6063 22.6638 18.368 24.3018 19.48C24.9985 19.953 26.107 20.4544 26.9634 20.684C27.6275 20.862 27.8645 20.8859 29.0191 20.8912C30.0362 20.8959 30.4581 20.8658 30.9309 20.755C33.7064 20.1047 35.8634 18.2294 36.8496 15.6095C37.2972 14.4202 37.4677 13.0468 37.3443 11.6229C37.0439 8.15679 34.7134 5.32781 31.3223 4.31306C30.7022 4.12747 30.4857 4.10352 29.2111 4.07965C28.168 4.06008 27.6583 4.08249 27.2918 4.16416ZM30.8261 4.96239C32.6609 5.46083 34.3441 6.63263 35.3478 8.11028C36.3919 9.64758 36.9211 11.6102 36.7257 13.2215C36.5036 15.0534 35.7301 16.6484 34.4344 17.946C33.7368 18.6447 33.1105 19.0801 32.1762 19.5159C31.0035 20.0629 30.3616 20.2024 29.0191 20.2019C27.8796 20.2015 27.215 20.0998 27.215 19.9258C27.215 19.879 27.1318 19.859 27.0231 19.8798C26.9175 19.9 26.8311 19.8878 26.8311 19.8528C26.8311 19.8177 26.7806 19.8085 26.7187 19.8322C26.5385 19.9014 25.0824 19.1588 24.4128 18.6562C21.8959 16.7673 20.7506 13.5323 21.5377 10.5355C21.8416 9.37871 22.3953 8.31835 23.2682 7.22216C23.4755 6.96181 23.7488 6.69372 23.8754 6.62641C24.0021 6.5591 24.3303 6.34625 24.6048 6.15344C25.5183 5.51156 26.7092 5.01167 27.7826 4.81948C28.4381 4.70204 30.1667 4.78325 30.8261 4.96239ZM28.0885 5.97555C27.0612 6.09537 26.0721 6.57468 25.4251 7.26622C24.9704 7.75207 24.4594 8.79246 24.4034 9.34578C24.3473 9.90032 24.4799 10.6746 24.6789 10.9539C24.9339 11.3119 25.7201 11.7856 26.4227 12.0047C26.7788 12.1157 27.1376 12.2622 27.2201 12.3303C27.3025 12.3985 27.4844 12.7306 27.6242 13.0683C27.841 13.5919 27.92 13.703 28.1604 13.8227C28.8052 14.1438 30.1217 13.6288 30.3937 12.949C30.4611 12.7807 30.5162 12.4412 30.5162 12.1945C30.5162 11.4824 30.6457 10.9772 31.0498 10.1133C31.5151 9.11828 31.59 8.84335 31.5906 8.12931C31.5915 6.99382 30.9275 6.2827 29.605 6.00239C29.0462 5.88404 28.8962 5.88138 28.0885 5.97555ZM29.991 6.79435C30.6935 7.14004 31.0158 7.59334 31.0138 8.23285C31.0127 8.6325 30.9547 8.81511 30.5752 9.61442C30.0517 10.7174 29.9831 10.9922 29.9806 11.9979L29.9788 12.7697L29.4222 13.0544C28.524 13.514 28.3905 13.4592 28.015 12.4768C27.7715 11.8397 27.6093 11.7136 26.6478 11.4131C25.9127 11.1833 25.3044 10.8326 25.0498 10.4916C24.9719 10.3874 24.8771 10.1128 24.839 9.88144C24.7813 9.53044 24.7967 9.38478 24.9318 9.0004C25.4869 7.42158 26.964 6.47758 28.7967 6.53031C29.4034 6.54774 29.5606 6.58251 29.991 6.79435ZM55.4181 6.77454C55.3937 6.83786 55.3973 6.88968 55.4259 6.88968C55.4546 6.88968 55.5299 6.83786 55.5932 6.77454C55.6565 6.71121 55.794 6.65942 55.8987 6.65942H56.0889L56.0364 7.82991C56.0075 8.47364 55.9683 9.01766 55.9494 9.03876C55.9305 9.05987 54.6223 9.08449 53.0424 9.09347C50.8333 9.10606 50.1695 9.08833 50.1686 9.01672C50.1677 8.94588 50.1537 8.94526 50.1098 9.01434C50.0673 9.08104 49.0833 9.11668 46.3936 9.14877C44.3815 9.17271 42.6893 9.20702 42.6331 9.2249C42.577 9.24278 42.1164 9.28 41.6097 9.30756C41.103 9.33519 40.4726 9.40266 40.2087 9.45754L39.7288 9.55731L39.7167 8.43456C39.7099 7.81708 39.7096 7.25141 39.7158 7.17749C39.7219 7.10358 39.6929 7.04318 39.6511 7.04318C39.6094 7.04318 39.5753 7.00864 39.5753 6.96643C39.5753 6.92022 39.9038 6.88837 40.4006 6.8863C40.8545 6.88446 41.5885 6.85298 42.0316 6.8163C42.6237 6.76733 42.8524 6.7733 42.8941 6.83884C42.9366 6.90554 42.9512 6.9047 42.9521 6.83539C42.9529 6.76578 43.4127 6.74232 44.8074 6.74063C45.8272 6.73948 46.6794 6.72065 46.7011 6.69893C46.7229 6.6772 48.703 6.65942 51.1014 6.65942C54.9462 6.65942 55.457 6.67307 55.4181 6.77454ZM29.1151 8.35413C28.8918 8.48423 28.7504 8.8535 28.7504 9.30711C28.7504 9.66624 28.7829 9.76893 28.9482 9.93425C29.117 10.103 29.1928 10.1257 29.4656 10.0891C29.9422 10.0252 30.0556 9.83884 30.0556 9.11889C30.0556 8.64125 30.0282 8.50049 29.9151 8.39825C29.7593 8.25726 29.3228 8.23317 29.1151 8.35413ZM27.0023 9.24484C26.8176 9.31684 26.6776 9.72126 26.6776 10.1826C26.6776 10.9727 26.9375 11.2646 27.6408 11.2646C28.1115 11.2646 28.4251 11.0739 28.5208 10.7293C28.6959 10.0992 28.5257 9.63574 28.0429 9.42851C27.6886 9.27654 27.1603 9.18321 27.0023 9.24484ZM56.4293 9.66821C56.4472 9.68602 56.4366 10.3016 56.4058 11.0361L56.3499 12.3716L56.0812 12.4311C55.838 12.4851 52.7022 12.5489 43.0492 12.6965L39.7288 12.7472V11.4042V10.0611L40.1319 9.97024C40.7752 9.82533 42.587 9.73192 44.9877 9.71987C46.2122 9.71381 47.905 9.68756 48.7495 9.66162C50.4171 9.61035 56.3766 9.61548 56.4293 9.66821ZM32.5464 10.6698C32.3472 10.8533 32.2094 11.1029 32.0247 11.6146C31.684 12.5584 31.1826 13.3301 30.4229 14.0801L29.7869 14.7081L29.4414 14.644C29.2514 14.6087 28.8574 14.5401 28.5659 14.4916C27.6957 14.3467 26.6042 13.9619 26.0307 13.5978C25.4308 13.2171 25.1216 13.1719 24.807 13.4193C24.6508 13.5421 24.6048 13.646 24.6048 13.8753C24.6048 14.0386 24.6393 14.1935 24.6815 14.2196C24.8381 14.3163 24.7501 14.4029 24.4718 14.4261C24.2366 14.4456 24.1718 14.4886 24.1096 14.6662C24.0074 14.9586 24.1693 15.2331 24.5664 15.4407C24.8562 15.5922 24.9846 15.6007 26.8503 15.5924C27.9377 15.5876 28.8272 15.5901 28.8272 15.598C28.8272 15.6059 28.5384 15.8583 28.1854 16.1588C27.6628 16.6037 27.4455 16.7351 27.0146 16.8668C26.7238 16.9556 26.3759 17.0827 26.2417 17.149C25.8052 17.3647 25.7073 18.0068 26.0848 18.1786C26.2348 18.2469 26.2521 18.3035 26.2278 18.6505C26.1958 19.1085 26.3134 19.247 26.7345 19.247C27.1693 19.247 27.4285 19.0477 27.8635 18.3792C28.3174 17.6816 28.4735 17.5231 29.7498 16.4643C30.4503 15.8831 30.6735 15.7374 30.8246 15.7627C30.9295 15.7803 31.4308 15.8224 31.9388 15.8564C32.7586 15.9113 32.8967 15.9414 33.1658 16.1242C33.5448 16.3817 33.9773 16.4007 34.2079 16.1702C34.3388 16.0393 34.3635 15.9349 34.3423 15.6007L34.3164 15.1916L34.5952 15.1082C34.9845 14.9917 35.0579 14.8723 35.0308 14.3985C35.0074 13.9897 35.0072 13.9894 34.7325 13.9663C34.5753 13.9531 33.9199 14.0927 33.2003 14.2925C32.5087 14.4846 31.9074 14.6418 31.8639 14.6418C31.7277 14.6418 32.8161 13.7041 33.5434 13.1949C34.428 12.5756 34.5045 12.479 34.5067 11.9789C34.5086 11.5029 34.3445 11.3415 33.8578 11.3411L33.5487 11.3409L33.5464 10.9879C33.5425 10.3773 33.038 10.2168 32.5464 10.6698ZM33.188 10.901C33.2442 10.9686 33.2423 11.0957 33.1817 11.3227C33.0766 11.7162 33.1281 11.7839 33.5919 11.8631C33.8192 11.9019 33.9395 11.9638 33.9562 12.0507C33.9848 12.199 33.3474 12.8473 32.8194 13.2072C32.4059 13.489 31.7571 14.0601 30.8282 14.9599C30.4514 15.3249 30.0112 15.7215 29.8498 15.8413C29.4919 16.1071 28.6826 16.7791 28.2074 17.2052C28.0143 17.3783 27.6934 17.7345 27.4942 17.9966C27.108 18.5048 26.7995 18.7865 26.6289 18.7865C26.5189 18.7865 26.5011 18.696 26.5218 18.2403C26.5321 18.0107 26.5041 17.9548 26.3595 17.9171L26.1847 17.8713L26.3568 17.6881C26.4515 17.5873 26.7265 17.4436 26.968 17.3688C27.6842 17.1468 27.83 17.0671 28.6697 16.4391C30.5541 15.0298 31.7839 13.4994 32.2995 11.9219C32.4563 11.4422 32.5966 11.1607 32.7511 11.0152C33.002 10.779 33.0717 10.7607 33.188 10.901ZM28.5995 11.0697C28.4345 11.2684 28.4125 11.7602 28.5587 11.9832C28.7331 12.2494 29.1457 12.2666 29.3218 12.015C29.5191 11.7336 29.4727 11.4214 29.1972 11.1755C28.9264 10.9337 28.7397 10.9007 28.5995 11.0697ZM57.0813 13.1643C57.0824 13.2803 57.0911 13.9107 57.1005 14.565L57.1177 15.7547L50.1698 15.7471C46.3485 15.7429 42.439 15.7132 41.4822 15.6813C39.7934 15.6248 39.7411 15.6183 39.6961 15.4586C39.6707 15.3682 39.6277 14.8365 39.6007 14.2772L39.5516 13.2602L39.8514 13.2535C40.0162 13.2498 41.5157 13.2333 43.1836 13.217C44.8514 13.2006 46.907 13.1523 47.7515 13.1096C48.596 13.0669 50.8545 13.0329 52.7706 13.0341C54.6866 13.0352 56.2729 13.0174 56.2957 12.9946C56.3185 12.9718 56.5041 12.9532 56.7082 12.9532C57.0613 12.9532 57.0793 12.9634 57.0813 13.1643ZM25.6915 14.0672C26.3662 14.4836 27.7933 14.8904 28.94 14.9934C29.3686 15.0318 29.451 15.0588 29.3542 15.1294C29.2706 15.1903 28.6095 15.2174 27.2069 15.2174C25.4316 15.2174 25.1432 15.2005 24.8791 15.0813C24.54 14.9283 24.5737 14.8243 25.0077 14.684C25.3344 14.5784 25.3772 14.3261 25.1102 14.0788C25.0025 13.979 24.9368 13.8748 24.9643 13.8474C25.0669 13.7447 25.2667 13.8051 25.6915 14.0672ZM34.6619 14.5519C34.6619 14.6427 34.5467 14.7443 34.3356 14.8397C34.0461 14.9706 34.0082 15.0174 33.9999 15.2558C33.9844 15.7014 33.9778 15.7175 33.7793 15.793C33.6294 15.8499 33.5137 15.8265 33.2486 15.6856C33.0409 15.5752 32.7063 15.486 32.3847 15.4555C31.2425 15.347 31.1198 15.3227 31.2041 15.221C31.2481 15.1682 31.5441 15.1028 31.8618 15.0759C32.4016 15.0304 33.4806 14.7876 34.278 14.5323C34.468 14.4715 34.6322 14.4195 34.6427 14.4166C34.6532 14.4138 34.6619 14.4747 34.6619 14.5519ZM39.3514 16.0695C39.4005 16.1286 39.5688 16.1768 39.7257 16.1768H40.0107L40.0184 17.4057C40.0226 18.0816 40.0475 18.7019 40.0736 18.7841C40.1172 18.9215 40.0911 18.9305 39.7522 18.8948C39.5494 18.8734 39.3404 18.8853 39.2878 18.9214C39.0667 19.073 39.006 19.8422 39.1172 21.0853C39.2365 22.4208 39.2374 22.4812 39.157 23.9289C39.1225 24.5502 39.1301 25.1495 39.176 25.4256C39.2181 25.6789 39.2459 25.8933 39.2379 25.9022C39.2299 25.9109 38.9657 25.958 38.6508 26.0066C37.7708 26.1424 37.6962 26.2008 37.5912 26.8369C37.5423 27.1323 37.5024 27.7029 37.5024 28.1048C37.5024 28.9484 37.4674 28.9946 36.8281 28.9946H36.4509L36.3972 27.9009C36.341 26.756 36.1995 25.8193 36.0621 25.6819C36.0176 25.6374 35.7587 25.5831 35.4867 25.5612L34.9922 25.5216L34.9888 25.0131C34.987 24.7334 34.9558 23.9865 34.9197 23.3533L34.8538 22.202L34.0861 22.1887C33.6638 22.1813 33.1989 22.1727 33.053 22.1695C32.8191 22.1643 32.8969 22.1096 33.7055 21.7101C34.8218 21.1585 35.6399 20.5594 36.5067 19.6587C37.3151 18.8189 37.7841 18.1676 38.2762 17.2012C38.6213 16.5234 39.0995 15.2214 39.1248 14.8903C39.1305 14.8169 39.1637 15.0281 39.1987 15.3595C39.2337 15.691 39.3024 16.0104 39.3514 16.0695ZM50.093 16.2158C53.7877 16.2161 57.0438 16.2459 57.3288 16.2822L57.847 16.3482V16.7493C57.847 16.97 57.8249 17.5618 57.7979 18.0644L57.7488 18.9783L57.51 18.9849C57.3786 18.9886 56.5975 19.0187 55.7742 19.0518C54.8999 19.0869 52.7121 19.0745 50.5153 19.022C46.5066 18.9261 43.539 18.9147 41.7179 18.9882L40.5977 19.0334L40.5514 17.6292C40.526 16.8568 40.5259 16.1916 40.5511 16.1508C40.5803 16.1035 41.0985 16.1017 41.9861 16.146C42.7503 16.184 46.3984 16.2154 50.093 16.2158ZM47.3292 19.4821C50.7834 19.5458 52.2211 19.5974 52.2618 19.659C52.3043 19.7231 52.3349 19.7221 52.3784 19.655C52.4226 19.5869 52.9421 19.5755 54.4512 19.6094L56.4651 19.6546L56.4656 20.3143C56.4658 20.6771 56.4887 21.2643 56.5163 21.6194L56.5665 22.2649L55.9016 22.2138C55.3657 22.1726 52.9775 22.1624 46.9838 22.1758C45.878 22.1782 42.8606 22.3675 41.6097 22.5128C41.0608 22.5765 40.4195 22.6492 40.1845 22.6742L39.7572 22.7198L39.5948 21.3096C39.5055 20.534 39.45 19.7785 39.4715 19.6307L39.5107 19.3621L40.9824 19.3771C41.7919 19.3854 44.648 19.4326 47.3292 19.4821ZM34.384 23.7178C34.4098 24.2771 34.4519 24.8988 34.4774 25.0994L34.5238 25.464L33.806 25.467C33.4111 25.4686 31.5334 25.4917 29.6333 25.5183C24.7022 25.5873 24.5856 25.587 22.7622 25.5034C20.7625 25.4118 17.8074 25.4354 17.2519 25.5475C16.9597 25.6064 16.5637 25.6041 15.8316 25.5393C15.2732 25.4899 14.8094 25.4429 14.801 25.435C14.7925 25.427 14.7612 24.8726 14.7313 24.203L14.677 22.9856L15.783 23.0259C16.3915 23.0482 17.1137 23.0337 17.3882 22.994C17.9155 22.9175 18.5554 22.9056 26.9079 22.8156C29.8003 22.7845 32.1812 22.7459 32.1988 22.73C32.2164 22.7139 32.7046 22.7009 33.2839 22.7009H34.337L34.384 23.7178ZM56.5419 23.4603C56.5419 23.878 56.578 24.5712 56.622 25.0009C56.7274 26.0278 56.7089 26.078 56.2246 26.078C56.0135 26.078 55.7657 26.0379 55.674 25.9887C55.553 25.924 54.6611 25.9055 52.4354 25.9213C46.6314 25.9624 45.5947 25.9628 42.6719 25.9245L39.7419 25.8861L39.6967 25.5407C39.6719 25.3508 39.6304 24.7381 39.6045 24.1794C39.5665 23.3568 39.5775 23.1575 39.6624 23.1326C39.8329 23.0825 42.0202 22.9174 43.8361 22.8176C44.8031 22.7645 47.8799 22.7197 51.0335 22.7128L56.5419 22.7009V23.4603ZM0.767684 24.542C0.741965 24.5836 0.757015 24.7477 0.801159 24.9065C0.845303 25.0653 0.881562 25.3062 0.881792 25.4417C0.882176 25.6628 0.850688 25.6976 0.575154 25.7801C0.326797 25.8544 0.268066 25.9075 0.268066 26.0579C0.268066 26.2278 0.289486 26.239 0.517575 26.1882C0.990106 26.0831 0.990704 26.0835 1.04767 26.5855C1.07692 26.8436 1.13942 27.1975 1.18648 27.3722C1.25903 27.6416 1.30241 27.6898 1.47254 27.6898H1.67313L1.6214 26.9799C1.59299 26.5893 1.55068 26.1828 1.52742 26.0763C1.49041 25.9068 1.52173 25.8699 1.77869 25.7801C2.18151 25.6394 2.41768 25.4812 2.41768 25.3519C2.41768 25.2376 2.06469 25.2537 1.63699 25.3875C1.43946 25.4493 1.42864 25.4373 1.33905 25.0549C1.28784 24.8366 1.21175 24.6149 1.16991 24.5621C1.07909 24.4477 0.833554 24.4354 0.767684 24.542ZM29.4414 26.0349L35.6983 26.0302L35.7586 26.2268C35.7917 26.3349 35.8403 27.0044 35.8664 27.7144L35.914 29.0055L28.436 28.9739L20.9581 28.9424L19.3459 28.7413C18.4592 28.6308 17.6032 28.5026 17.4438 28.4564L17.1539 28.3723L17.1751 27.206L17.1963 26.0396L18.1175 25.9979C18.6242 25.9749 19.9716 25.9749 21.1116 25.9979C22.2517 26.0208 26.0001 26.0375 29.4414 26.0349ZM43.9897 26.422C44.7497 26.4417 46.598 26.4509 48.097 26.4424C53.4957 26.412 55.609 26.4245 55.6718 26.4871C55.7308 26.5459 55.8572 29.2271 55.8041 29.2921C55.7911 29.3079 54.3713 29.2807 52.6489 29.2317C49.0722 29.13 44.9954 29.1063 44.0118 29.1818C43.6416 29.2101 43.0759 29.1966 42.7451 29.1516C42.2078 29.0785 41.5654 29.0323 38.7884 28.8672L37.9631 28.8181L37.9635 28.3115C37.9644 27.2845 38.0541 26.5498 38.1853 26.4943C38.4139 26.3975 40.1424 26.3216 41.3794 26.3541C42.055 26.3718 43.2296 26.4024 43.9897 26.422ZM18.6503 29.1954C18.7511 29.234 18.7701 29.4146 18.7701 30.3339V31.4265L17.2539 31.4858C16.4199 31.5185 15.3576 31.5388 14.8931 31.531C14.4286 31.5231 13.6168 31.5541 13.089 31.5997C11.2121 31.7621 3.17112 31.8697 1.99543 31.7483L1.15094 31.661V30.5262C1.15094 29.9021 1.17974 29.3626 1.21482 29.3274C1.31961 29.2224 18.3839 29.0931 18.6503 29.1954ZM39.2298 30.6448C39.2298 31.2781 39.2551 31.9094 39.2859 32.0477L39.342 32.2993L35.7927 32.2565C33.8407 32.2329 31.7254 32.1853 31.092 32.1506C30.4586 32.1159 29.2322 32.1021 28.3666 32.12C26.4815 32.1588 25.2109 32.071 23.1077 31.7565C22.8544 31.7186 22.4785 31.6661 22.2724 31.6397L21.8976 31.5918L21.9494 30.7729C21.9779 30.3225 22.0192 29.8504 22.0412 29.7238L22.0812 29.4935H30.6555H39.2298V30.6448ZM50.6665 29.6473C52.0164 29.6748 53.1504 29.7154 53.1865 29.7378C53.2226 29.76 54.0328 29.7729 54.9868 29.7664C55.9408 29.7598 57.1229 29.7779 57.6135 29.8066L58.5055 29.8588L58.404 30.6739C58.3125 31.4088 58.3216 31.9346 58.4323 32.3142C58.4656 32.428 58.4189 32.4485 58.1273 32.4485C57.9238 32.4485 57.7671 32.4093 57.7441 32.3526C57.7142 32.279 57.6875 32.2818 57.6296 32.3649C57.566 32.456 57.2713 32.4626 55.762 32.4066C54.7764 32.3701 52.5363 32.3349 50.784 32.3284C48.119 32.3185 46.4337 32.2664 43.6442 32.1076C43.4542 32.0968 43.1865 32.0827 43.0492 32.0764L42.7997 32.0648L42.8006 31.1629C42.801 30.6669 42.8221 30.136 42.8474 29.9831L42.8934 29.7051L43.9021 29.6377C44.9841 29.5654 46.7624 29.5679 50.6665 29.6473Z" fill="white"/>
</svg>
