<svg width="41" height="52" viewBox="0 0 41 52" fill="none" xmlns="http://www.w3.org/2000/svg">
<path fill-rule="evenodd" clip-rule="evenodd" d="M19.1233 0.573272C16.3625 1.26988 14.5932 3.91688 14.8979 6.89465C15.0842 8.71585 16.0252 10.2536 17.5667 11.2562C17.9114 11.4805 18.2763 11.7 18.3777 11.7441C18.5252 11.8084 18.5577 11.86 18.5412 12.0035C18.5212 12.1763 18.4979 12.1865 17.8664 12.2972C16.0866 12.609 14.9507 12.921 13.484 13.5009C10.0748 14.8489 7.008 17.2443 4.77873 20.3004C1.68587 24.5404 0.333274 30.003 1.12806 35.0437C1.80007 39.306 3.70616 43.0065 6.75618 45.9705C9.64562 48.7784 13.2903 50.5645 17.4413 51.2069C18.7165 51.4043 21.0562 51.4492 22.4111 51.3023C28.5574 50.6363 33.9377 47.2864 37.2546 42.0604C38.9092 39.4535 39.8707 36.6916 40.2779 33.3757C40.3949 32.4234 40.3782 30.0912 40.2469 29.0365C39.4348 22.5134 35.6551 17.09 29.8712 14.1489C27.8753 13.134 25.5093 12.4236 23.3281 12.1843C22.6408 12.1089 22.4778 12.073 22.4802 11.9974C22.4816 11.9556 22.7686 11.7844 23.118 11.6169C24.5429 10.9339 25.6448 9.58567 26.0766 7.9968C26.2545 7.34205 26.322 6.02157 26.2108 5.37343C25.9726 3.9853 25.3957 2.89009 24.4189 1.97115C23.7817 1.37173 23.1351 0.984244 22.2959 0.698928C21.7006 0.49655 21.5956 0.481566 20.6463 0.463774C19.8102 0.448142 19.5432 0.467308 19.1233 0.573272ZM21.0696 0.772115C23.2153 1.08222 24.9757 2.67679 25.6574 4.92773C25.8115 5.43642 25.8342 5.62446 25.8353 6.39427C25.8366 7.449 25.7096 8.00741 25.2624 8.91254C24.7803 9.88819 23.96 10.7564 23.085 11.2169C22.4349 11.559 22.4417 11.5604 22.4665 11.0816L22.488 10.6681L22.8292 10.5008C23.277 10.2812 23.9453 9.7409 24.2933 9.31704C24.971 8.4917 25.2903 7.54522 25.2903 6.36157C25.2903 5.1301 24.9398 4.11226 24.2223 3.26056C23.1631 2.00319 21.3415 1.38344 19.6627 1.70931C19.0453 1.8292 18.0327 2.30238 17.5143 2.71328C16.7777 3.29713 16.1844 4.24425 15.9672 5.18314C15.8431 5.7193 15.8255 6.8692 15.9342 7.34028C16.1364 8.21684 16.5911 9.05317 17.1921 9.65396C17.5412 10.0029 18.3442 10.5805 18.4802 10.5805C18.5259 10.5805 18.5532 10.7281 18.5532 10.9742V11.3679L18.3733 11.3238C18.2744 11.2996 18.0239 11.1653 17.8166 11.0253C16.4786 10.1218 15.5571 8.6838 15.2738 7.05726C15.1801 6.51894 15.2398 5.25739 15.3842 4.72633C15.9348 2.70151 17.5828 1.16922 19.6032 0.803577C20.2073 0.694277 20.489 0.688194 21.0696 0.772115ZM21.8603 2.15449C23.1562 2.58488 24.3133 3.74171 24.7456 5.0393C24.9011 5.50607 24.9246 5.67974 24.9241 6.36157C24.9235 7.04863 24.9009 7.21169 24.7423 7.66976C24.3891 8.69021 23.8187 9.45819 23.0135 9.99729L22.5105 10.3341L22.4725 9.91762C22.4176 9.31572 22.3704 9.20688 22.1637 9.20688C21.8279 9.20688 18.8461 9.40541 18.7035 9.43726C18.5775 9.46545 18.557 9.51863 18.54 9.86236L18.5205 10.2553L18.1608 10.0144C16.1682 8.67975 15.6041 5.92771 16.9265 3.9923C17.2163 3.56805 17.7967 2.96183 18.1935 2.66879C18.5244 2.42436 19.2573 2.12452 19.796 2.013C20.2936 1.91005 21.3402 1.98174 21.8603 2.15449ZM22.0773 10.7121C22.078 11.396 22.093 11.9791 22.1107 12.0078C22.1285 12.0364 21.7547 12.0493 21.2802 12.0363C20.8056 12.0234 20.0861 12.037 19.6812 12.0666C19.0353 12.1139 18.941 12.1077 18.912 12.0164C18.8783 11.9102 18.9217 9.73233 18.9582 9.6959C18.9693 9.68484 19.6259 9.64232 20.4174 9.60131C21.6663 9.53669 22.0111 9.51045 22.0644 9.47611C22.0708 9.47192 22.0767 10.0281 22.0773 10.7121ZM22.3469 12.4792C27.1558 12.8137 31.6639 14.9731 34.88 18.4828C40.1971 24.285 41.413 32.5269 38.0131 39.7188C35.0967 45.8877 28.8966 50.2549 22.0853 50.9379C21.0567 51.0411 19.0323 51.0242 17.9893 50.9039C16.4705 50.7286 15.0886 50.4016 13.6802 49.8843C12.7203 49.5317 10.9026 48.6319 10.0366 48.0807C5.22489 45.0181 2.03888 39.8314 1.4258 34.0625C1.34175 33.2713 1.33632 31.1493 1.41619 30.3015C1.80864 26.1368 3.59823 22.1338 6.5103 18.9069C9.7387 15.3293 14.7071 12.8524 19.2727 12.5443C19.9023 12.5018 20.4762 12.4587 20.5482 12.4485C20.8425 12.4065 21.4501 12.4169 22.3469 12.4792ZM20.0903 14.4203C17.5722 14.518 15.0856 15.1949 12.6714 16.4403C11.0702 17.2661 9.89568 18.1364 8.45825 19.5619C6.38171 21.6214 4.72026 24.5295 3.9727 27.4133C2.9062 31.5274 3.35504 35.7272 5.27054 39.5576C6.09705 41.2103 7.01526 42.4822 8.40416 43.8984C11.0571 46.6034 14.4572 48.3142 18.3897 48.9227C19.5011 49.0946 22.0388 49.1293 23.0664 48.9865C25.7212 48.6178 28.2525 47.6741 30.355 46.2697C31.8195 45.2913 33.2396 44.0078 34.2719 42.7293C38.1414 37.9374 39.2229 31.3864 37.0876 25.6754C35.5484 21.5589 32.5455 18.2317 28.5703 16.2383C26.0271 14.9629 22.9746 14.3085 20.0903 14.4203ZM23.1318 14.9599C24.8436 15.196 26.6664 15.7781 28.3925 16.6399C32.1391 18.5105 35.0942 21.8182 36.6252 25.855C37.9216 29.2732 38.0602 33.2723 37.0013 36.7042C36.4233 38.5775 35.4467 40.4894 34.2953 42.0015C32.5447 44.3007 30.1001 46.2211 27.5133 47.3293C26.0641 47.9501 24.4893 48.3916 22.8898 48.6255C21.9398 48.7644 19.5395 48.7842 18.6186 48.6608C13.4755 47.9715 8.9447 45.0112 6.29047 40.6059C5.12632 38.6737 4.3263 36.4608 3.99598 34.2588C3.85535 33.3215 3.80087 31.1447 3.89414 30.1901C4.27672 26.2745 5.75509 23.024 8.51293 20.0351C10.0966 18.3188 12.5785 16.6956 14.9884 15.8003C15.6932 15.5385 17.3129 15.1301 18.183 14.9948C19.539 14.784 21.7442 14.7684 23.1318 14.9599ZM19.5998 16.1144C18.0968 16.2429 17.0069 16.4592 15.778 16.8729C11.6713 18.2554 8.40337 21.1333 6.54 25.0083C5.83914 26.4657 5.35649 28.0911 5.10408 29.8436C4.96659 30.7985 4.94729 32.8952 5.06771 33.8009C5.78145 39.1697 8.98564 43.7048 13.7183 46.0447C15.5912 46.9707 17.3429 47.4608 19.5344 47.6718C20.5092 47.7657 22.2834 47.7169 23.23 47.5702C26.0001 47.1409 28.6302 45.9903 30.7821 44.2666C31.4409 43.7388 32.6566 42.5262 33.1757 41.879C34.595 40.1095 35.7118 37.8168 36.2344 35.5997C36.5604 34.2168 36.6376 33.496 36.6369 31.8386C36.6363 30.1189 36.5576 29.447 36.183 27.9595C34.9234 22.9583 31.144 18.7787 26.3042 17.0348C24.5511 16.4032 23.0775 16.1355 21.2023 16.1083C20.4828 16.0979 19.7616 16.1006 19.5998 16.1144ZM20.2566 16.6799C20.2619 17.084 20.4187 17.9666 20.4997 18.0475C20.6702 18.218 20.7429 17.9901 20.7678 17.2068L20.7918 16.4477L21.7042 16.4892C22.2059 16.512 22.6515 16.5532 22.6943 16.5808C22.7374 16.6085 22.7721 16.7768 22.7721 16.9579C22.7721 17.2413 22.7896 17.285 22.9029 17.285C23.0093 17.285 23.0443 17.2224 23.0905 16.9503L23.1473 16.6158L23.8754 16.7703C24.2759 16.8554 24.8243 16.9932 25.0941 17.0768C25.545 17.2165 25.5827 17.2416 25.5597 17.3877C25.4985 17.7765 25.5165 17.8736 25.6501 17.8736C25.7396 17.8736 25.8023 17.8075 25.8486 17.6642C25.8858 17.5491 25.9362 17.4349 25.9605 17.4105C26.0148 17.3563 26.9148 17.7092 27.5797 18.0452C28.3007 18.4098 28.2672 18.3691 28.1063 18.6847C27.8728 19.1423 28.1215 19.259 28.3977 18.8213L28.5634 18.559L28.9709 18.8179C29.195 18.9604 29.6067 19.2419 29.8858 19.4437L30.3933 19.8106L30.2292 20.0257C30.139 20.144 30.0652 20.3042 30.0652 20.3817C30.0652 20.6031 30.2884 20.5543 30.4656 20.2943C30.5511 20.1686 30.6447 20.0656 30.6734 20.0653C30.7021 20.0651 31.1129 20.4472 31.5863 20.9145L32.4469 21.7641L32.2372 21.9805C32.1219 22.0995 32.0275 22.2323 32.0275 22.2756C32.0275 22.4079 32.2459 22.3631 32.448 22.1892C32.5534 22.0987 32.6593 22.0472 32.6833 22.0749C32.8514 22.2691 33.5563 23.2399 33.7567 23.5534L34.0007 23.9348L33.7336 24.1634C33.5867 24.2892 33.4665 24.4192 33.4665 24.4524C33.4665 24.5719 33.7875 24.5093 33.9724 24.3538L34.1613 24.1948L34.5107 24.8924C34.7029 25.276 34.9418 25.788 35.0416 26.0302L35.2232 26.4705L34.9335 26.6152C34.5825 26.7905 34.5358 26.9696 34.8564 26.9113C34.9734 26.89 35.1326 26.8539 35.2103 26.8312C35.3393 26.7935 35.3661 26.8377 35.5166 27.3356C35.6907 27.9121 35.8474 28.5257 35.9105 28.878C35.9439 29.0645 35.9291 29.0938 35.7867 29.1233C35.6978 29.1418 35.5493 29.1726 35.4568 29.1919C35.1619 29.2535 35.3177 29.3864 35.674 29.3773L36.0039 29.3687L36.0758 29.8526C36.1154 30.1188 36.1668 30.6687 36.19 31.0746L36.2321 31.8126L35.8065 31.891C35.5724 31.9342 35.2624 31.9694 35.1175 31.9694C34.9412 31.9694 34.8413 32.0026 34.8156 32.0696C34.7571 32.222 35.035 32.2965 35.6619 32.2965H36.2136L36.2125 32.5418C36.2113 32.8101 36.1076 33.8868 36.0459 34.2715L36.0072 34.513L35.6853 34.4749C35.3933 34.4403 35.3633 34.449 35.3633 34.5689C35.3633 34.6712 35.4307 34.7181 35.6615 34.7762C35.8964 34.8353 35.9524 34.8751 35.9255 34.9638C35.9067 35.0258 35.8598 35.2235 35.8212 35.4034C35.6996 35.97 35.3451 37.0714 35.2843 37.0714C35.2523 37.0714 35.1365 37.0251 35.0271 36.9685C34.7957 36.8488 34.6438 36.8848 34.6438 37.0594C34.6438 37.1395 34.7349 37.2234 34.9055 37.3003C35.0494 37.3652 35.1671 37.4431 35.1671 37.4734C35.1671 37.5657 34.5796 38.8444 34.3384 39.2769L34.1115 39.6837L33.8496 39.5184C33.5732 39.3438 33.3684 39.3317 33.3684 39.4898C33.3684 39.5762 33.6938 39.8398 33.8749 39.9002C33.9708 39.9322 33.779 40.2505 33.1761 41.0602C32.9221 41.4014 32.6939 41.7094 32.669 41.7447C32.6427 41.7821 32.5148 41.7214 32.3627 41.599C32.206 41.4731 32.0606 41.4049 31.9991 41.4285C31.8482 41.4864 31.8707 41.5556 32.136 41.8493L32.3754 42.1143L31.6069 42.8708L30.8383 43.6274L30.5962 43.3909C30.463 43.2609 30.3037 43.1545 30.2423 43.1545C30.0744 43.1545 30.1039 43.4014 30.3028 43.6622L30.475 43.888L30.2864 44.0447C29.9853 44.295 28.543 45.2476 28.4652 45.2476C28.4262 45.2476 28.3389 45.1446 28.271 45.0186C28.1841 44.8572 28.1025 44.7897 27.9945 44.7897C27.8032 44.7897 27.7992 44.9071 27.9802 45.214C28.0566 45.3434 28.1082 45.4594 28.0947 45.4717C27.9689 45.5864 26.1073 46.425 25.9784 46.425C25.963 46.425 25.9306 46.3196 25.9064 46.1908C25.8585 45.935 25.7326 45.8443 25.5899 45.9627C25.5193 46.0213 25.5133 46.0912 25.5633 46.2722C25.5988 46.4008 25.6035 46.528 25.5736 46.5548C25.4374 46.6769 23.2894 47.193 23.2173 47.1209C23.1979 47.1015 23.1623 46.9885 23.1382 46.8698C23.1055 46.7091 23.0549 46.6483 22.9404 46.6318C22.7944 46.6108 22.7882 46.6248 22.8196 46.9038C22.86 47.2619 22.8813 47.2544 21.6526 47.3166L20.7947 47.36L20.7369 46.7126C20.6846 46.1281 20.6663 46.0652 20.5482 46.0652C20.4324 46.0652 20.4155 46.1142 20.4013 46.4904C20.3925 46.7242 20.369 47.0112 20.3493 47.1281C20.3141 47.3362 20.3061 47.3407 19.9729 47.3402C19.629 47.3396 18.5956 47.2379 18.2886 47.1744C18.142 47.1441 18.1253 47.1129 18.1486 46.9133C18.1729 46.7058 18.1606 46.6866 18.0044 46.6866C17.8858 46.6866 17.8334 46.7215 17.8327 46.8011C17.8304 47.0706 17.7558 47.0817 17.0869 46.912C16.733 46.8222 16.2044 46.6685 15.9122 46.5705L15.3809 46.3922L15.4027 46.0816C15.4233 45.7855 15.4164 45.7709 15.2555 45.7709C15.1242 45.7709 15.0863 45.8036 15.0856 45.918C15.0831 46.2783 15.0134 46.2713 14.0953 45.8186C13.6152 45.582 13.185 45.3618 13.1392 45.3295C13.0734 45.2831 13.0838 45.2078 13.1886 44.971C13.3199 44.6741 13.3106 44.4617 13.1663 44.4636C13.0396 44.4653 12.951 44.5514 12.8307 44.7897C12.7672 44.9156 12.7065 45.0287 12.6958 45.0409C12.6465 45.0975 10.835 43.7745 10.835 43.6818C10.835 43.6571 10.921 43.5543 11.0263 43.4535C11.2249 43.2632 11.2297 43.0891 11.0364 43.0891C10.9751 43.0891 10.8396 43.178 10.7355 43.2867L10.5461 43.4844L9.96632 42.9106C9.64739 42.595 9.29791 42.2266 9.18972 42.0918L8.9929 41.8467L9.19443 41.6772C9.3053 41.5839 9.39595 41.466 9.39595 41.4153C9.39595 41.2868 9.10253 41.2979 8.8944 41.4343C8.72806 41.5434 8.72119 41.5416 8.56807 41.3526C8.48206 41.2463 8.2146 40.8678 7.97377 40.5112C7.57143 39.9156 7.54566 39.8572 7.65607 39.7917C7.96611 39.6079 8.05671 39.5025 7.9756 39.42C7.91248 39.3558 7.84138 39.3606 7.63102 39.4432L7.36599 39.5473L7.22281 39.2741C7.02507 38.8971 6.64459 38.1128 6.58258 37.9544C6.55439 37.8825 6.46897 37.6669 6.39283 37.4753L6.25436 37.127L6.51698 37.0239C6.6614 36.9671 6.77959 36.8772 6.77959 36.8241C6.77959 36.7463 6.71752 36.7357 6.46236 36.7696L6.14513 36.8116L6.00581 36.3365C5.85589 35.8249 5.67019 35.0557 5.66862 34.9395C5.6681 34.9003 5.78413 34.8333 5.92653 34.7906C6.21276 34.7049 6.27117 34.6502 6.20007 34.5352C6.16462 34.4779 6.08802 34.4759 5.90095 34.5275C5.71415 34.5791 5.63736 34.5772 5.60197 34.52C5.55782 34.4485 5.46494 33.7077 5.3714 32.681L5.33196 32.2479L5.8759 32.2193C6.17508 32.2035 6.474 32.1604 6.54013 32.1233C6.64838 32.0626 6.65035 32.0458 6.55982 31.9552C6.49422 31.8896 6.26312 31.8383 5.89481 31.8076L5.33039 31.7606L5.37749 31.0311C5.40339 30.6298 5.4425 30.1553 5.46435 29.9766L5.50412 29.6517L5.80814 29.6704C5.97539 29.6807 6.13002 29.6603 6.15173 29.6251C6.2331 29.4935 6.10928 29.3672 5.85981 29.3273C5.66339 29.2959 5.60223 29.2562 5.60223 29.1601C5.60223 28.9818 5.77589 28.2429 5.9765 27.5678C6.11451 27.1035 6.16737 27.001 6.25089 27.0356C6.46086 27.1226 6.58382 27.1429 6.67939 27.1063C6.82616 27.0499 6.73204 26.8903 6.4969 26.7968C6.38256 26.7513 6.27974 26.7074 6.26842 26.6993C6.22859 26.6708 7.04058 24.8327 7.14379 24.7179C7.15556 24.7048 7.24426 24.7562 7.34093 24.8323C7.52401 24.9763 7.72711 25.0125 7.78905 24.9123C7.80887 24.8803 7.70945 24.7496 7.5681 24.6219L7.31117 24.3898L7.62671 23.8703C7.80017 23.5847 8.11525 23.1151 8.32678 22.8269L8.71138 22.3029L8.9065 22.4591C9.13576 22.6425 9.19018 22.6514 9.24296 22.5138C9.26658 22.4524 9.21104 22.3376 9.10345 22.2253L8.92475 22.0387L9.20784 21.7223C9.53057 21.3615 10.2085 20.6787 10.4237 20.4978C10.5668 20.3775 10.5704 20.3784 10.7402 20.5802C11.0577 20.9576 11.2586 20.804 10.9946 20.3857C10.8999 20.2357 10.8478 20.0948 10.8788 20.0726C10.9099 20.0504 11.2145 19.8233 11.5556 19.568C12.1942 19.0902 12.7338 18.7312 12.7578 18.7683C12.7653 18.7799 12.822 18.8704 12.884 18.9693C12.9963 19.1487 13.1486 19.203 13.2193 19.0888C13.2398 19.0555 13.196 18.9257 13.122 18.8003L12.9874 18.5721L13.98 18.0757C14.5259 17.8027 15.0247 17.5793 15.0886 17.5793C15.1588 17.5793 15.2317 17.6571 15.2733 17.7764C15.3497 17.9956 15.5151 18.0926 15.6251 17.9827C15.6772 17.9306 15.6692 17.8406 15.5959 17.654L15.4951 17.3971L16.0267 17.228C16.6187 17.0395 17.5496 16.7944 17.6732 16.7944C17.7179 16.7944 17.7726 16.9223 17.7968 17.0834C17.8206 17.2423 17.8815 17.4067 17.9322 17.4487C18.0971 17.5857 18.173 17.4521 18.15 17.065L18.1281 16.6963L18.7821 16.5887C19.1419 16.5295 19.6202 16.478 19.845 16.4742L20.2538 16.4674L20.2566 16.6799ZM23.3156 17.8082C23.2972 17.9661 23.3153 18.0372 23.3739 18.0372C23.4274 18.0372 23.4589 17.9524 23.4589 17.8082C23.4589 17.6823 23.4327 17.5793 23.4006 17.5793C23.3686 17.5793 23.3304 17.6823 23.3156 17.8082ZM21.1761 18.5535C21.105 18.5998 21.0874 18.7845 21.0974 19.3845L21.1101 20.156L20.9667 20.0286C20.7586 19.8441 20.0965 18.9444 20.0551 18.79C20.013 18.6335 19.6593 18.5733 19.551 18.7043C19.3662 18.9278 19.1662 20.7553 19.3023 20.9756C19.3263 21.0144 19.4605 21.046 19.6007 21.046C19.8952 21.046 19.8851 21.0751 19.9732 19.975L20.0249 19.3292L20.3433 19.7961C20.5183 20.0529 20.7401 20.319 20.8361 20.3874C20.9322 20.4558 21.0514 20.5878 21.1012 20.6808C21.1646 20.7992 21.2452 20.8498 21.3702 20.8498C21.5433 20.8498 21.5499 20.8363 21.5864 20.4083C21.7248 18.7887 21.7039 18.5403 21.4269 18.5108C21.3393 18.5015 21.2265 18.5207 21.1761 18.5535ZM23.2489 23.9077C22.4386 25.2657 21.7012 26.5053 21.6102 26.6623L21.4448 26.9476L21.4061 26.7604C21.3848 26.6574 21.323 26.2273 21.2689 25.8046C21.0449 24.0558 20.7052 21.7884 20.6465 21.6511C20.612 21.5701 20.5395 21.5039 20.4854 21.5039C20.3731 21.5039 20.3472 21.5964 20.2561 22.3215C20.181 22.9191 19.7306 27.14 19.7306 27.2461C19.7306 27.2846 19.5618 27.3651 19.3556 27.4251C18.8679 27.5668 18.1916 27.875 17.9298 28.0747L17.7226 28.2327L17.5001 28.0497C17.3778 27.9491 16.6743 27.4059 15.9369 26.8425C15.1994 26.2792 14.5441 25.7748 14.4808 25.7215C14.3534 25.6145 14.197 25.5949 14.1447 25.6794C14.1023 25.7479 14.5255 26.3532 15.7582 27.9872L16.7242 29.2677L16.4935 29.6509C16.3666 29.8615 16.198 30.2413 16.1189 30.4948C16.0397 30.7482 15.9689 30.9653 15.9615 30.9773C15.954 30.9893 15.7173 31.0268 15.4355 31.0608C15.1536 31.0948 13.9282 31.259 12.7123 31.4257C10.6036 31.7149 10.5025 31.7351 10.5211 31.8629C10.5458 32.0325 10.494 32.0223 13.2224 32.3901C14.4455 32.5551 15.5524 32.7063 15.6821 32.7264C15.9058 32.7608 15.9219 32.7804 15.9955 33.1094C16.084 33.5047 16.4312 34.2507 16.6792 34.5782L16.8468 34.7996L16.562 35.1669C16.4054 35.369 15.8475 36.0781 15.3222 36.743C14.7968 37.4077 14.367 37.989 14.367 38.0348C14.367 38.2544 14.7455 38.0256 16.215 36.9181L17.807 35.7183L17.2044 37.9483C16.873 39.1748 16.4676 40.6605 16.3035 41.2498C16.1394 41.8391 16.0209 42.3468 16.0403 42.3781C16.0596 42.4094 16.1297 42.435 16.1961 42.435C16.3464 42.435 16.5672 42.0885 18.2956 39.142L19.6325 36.863L19.7095 37.3106C19.7518 37.5568 19.8931 38.494 20.0235 39.3934C20.3696 41.7809 20.456 42.2387 20.5604 42.2387C20.6094 42.2387 20.6751 42.1716 20.7063 42.0895C20.7375 42.0074 20.9159 40.7198 21.1028 39.2281C21.2947 37.6963 21.4738 36.4968 21.5144 36.4717C21.5539 36.4473 21.6911 36.4079 21.8194 36.3843C21.9477 36.3606 22.3028 36.2201 22.6086 36.072C22.9144 35.924 23.1981 35.8048 23.2391 35.8072C23.2802 35.8097 23.6923 36.0913 24.1548 36.4332C25.7035 37.5775 26.5651 38.1816 26.6496 38.1825C26.9027 38.1851 26.7294 37.8893 25.5611 36.3246L24.3156 34.6565L24.5436 34.2777C24.747 33.9401 25.0941 33.0075 25.0941 32.7989C25.0941 32.7428 25.8451 32.6373 27.6614 32.4387C29.0734 32.2842 30.3096 32.1414 30.4086 32.1214C30.6662 32.0692 30.6304 31.9195 30.3432 31.8478C30.0632 31.778 25.7254 30.9469 25.3134 30.8842C25.0863 30.8496 25.0365 30.8145 25.0073 30.6686C24.9398 30.3314 24.7018 29.7747 24.4833 29.4433L24.2625 29.1084L24.8064 28.386C25.6173 27.3088 26.7929 25.6646 26.7939 25.6063C26.7944 25.5782 26.7524 25.5389 26.7006 25.5191C26.5892 25.4763 26.1839 25.7743 23.8759 27.596L23.4754 27.9121L24.2515 24.8552C24.6784 23.1739 25.0279 21.7172 25.0282 21.6184C25.0286 21.4731 24.9991 21.4385 24.8754 21.4385C24.7433 21.4385 24.5181 21.7804 23.2489 23.9077ZM24.1783 23.8527C23.9978 24.5445 23.6871 25.7634 23.4878 26.5614C23.2885 27.3593 23.0979 28.1004 23.0643 28.2084C23.0307 28.3163 22.8114 29.1846 22.5771 30.138C22.3185 31.1899 22.0803 32.0102 21.971 32.2245C21.7091 32.7384 21.2689 33.1679 20.8982 33.2714C20.497 33.3834 20.2337 33.318 19.9089 33.0255C19.4399 32.603 19.2638 31.9661 19.4045 31.2009C19.4491 30.9581 19.5219 30.7152 19.5661 30.6612C19.7168 30.4775 22.8314 25.3319 23.9125 23.4806C24.2125 22.9668 24.4688 22.5574 24.4821 22.5707C24.4954 22.5841 24.3587 23.161 24.1783 23.8527ZM2.16669 22.9478C2.11495 23.1109 2.15962 23.169 2.29626 23.1166C2.42348 23.0678 2.42957 22.8121 2.30346 22.8121C2.25192 22.8121 2.19037 22.8732 2.16669 22.9478ZM20.6109 23.4489C20.636 23.6922 20.757 24.6125 20.88 25.4939C21.003 26.3753 21.1038 27.1412 21.1039 27.1958C21.1041 27.2783 21.0181 27.291 20.5972 27.2704C20.3185 27.2568 20.0788 27.2349 20.0647 27.2217C20.0206 27.1805 20.4769 22.9517 20.5224 22.9799C20.5461 22.9945 20.5859 23.2056 20.6109 23.4489ZM25.7271 26.6222C25.6343 26.7391 25.3881 27.0702 25.18 27.358C24.9719 27.6458 24.6368 28.108 24.4353 28.3851L24.0692 28.8889L23.7636 28.5786L23.458 28.2684L24.0635 27.8008C24.3965 27.5436 24.9339 27.1262 25.2576 26.8734C25.5814 26.6205 25.8574 26.4127 25.871 26.4116C25.8846 26.4105 25.8199 26.5053 25.7271 26.6222ZM16.4178 27.602C16.9268 27.9972 17.3711 28.3468 17.4054 28.379C17.4437 28.4151 17.3713 28.5361 17.2165 28.6947L16.9653 28.9518L16.5329 28.3824C15.6209 27.1818 15.3342 26.7858 15.4119 26.8338C15.4562 26.8611 15.9089 27.2068 16.4178 27.602ZM20.9535 27.7669C20.3626 28.8204 19.3592 30.5164 19.2953 30.5697C19.2478 30.6094 18.9261 31.669 18.5805 32.9245C18.2349 34.18 17.9285 35.2322 17.8996 35.2627C17.8198 35.3468 17.1117 34.5858 16.8334 34.117C16.3338 33.2754 16.1243 32.1629 16.2874 31.2177C16.4015 30.5566 16.7542 29.7635 17.1628 29.2494C17.6831 28.5948 18.6546 27.998 19.4992 27.8142C19.9254 27.7214 20.9987 27.6865 20.9535 27.7669ZM23.8833 29.4512C24.4502 30.2473 24.7122 31.0001 24.7143 31.8386C24.7178 33.1904 24.3848 33.9958 23.4295 34.9456C22.7709 35.6005 22.189 35.9423 21.4312 36.1197C21.059 36.2067 20.0576 36.263 20.0576 36.1968C20.0576 36.1836 20.5711 35.3006 21.1988 34.2348L22.3399 32.2969L22.6091 31.2338C22.9144 30.0281 23.1903 28.9718 23.2355 28.8363C23.2773 28.7113 23.5218 28.9434 23.8833 29.4512ZM20.2552 30.645C19.9188 30.814 19.7305 31.1345 19.7308 31.5376C19.7313 32.1501 20.1112 32.5173 20.7444 32.5173C21.3214 32.5173 21.6968 32.1995 21.7931 31.6297C21.8515 31.2837 21.6156 30.8133 21.3014 30.6493C21.0131 30.4989 20.5498 30.497 20.2552 30.645ZM21.0409 30.8913C21.3999 31.077 21.5315 31.5506 21.3223 31.9047C21.1929 32.1238 20.9826 32.2311 20.6827 32.2311C20.3673 32.2311 20.0576 31.8703 20.0576 31.5027C20.0576 31.2875 20.1 31.1944 20.28 31.0144C20.5274 30.7671 20.7355 30.7334 21.0409 30.8913ZM7.25381 31.0323C7.20887 31.05 7.17205 31.1532 7.17205 31.2614C7.17205 31.4248 7.33348 32.3351 7.46907 32.9365C7.50544 33.0981 7.76439 33.2318 7.92294 33.1709C7.97684 33.1503 8.05285 33.015 8.09176 32.8703C8.13075 32.7256 8.19243 32.53 8.22886 32.4355C8.29336 32.2685 8.30022 32.2749 8.48062 32.67C8.66586 33.0758 8.85515 33.2177 9.09076 33.1273C9.17919 33.0933 9.78946 31.3804 9.7888 31.1682C9.78821 31.0014 9.56007 31.0258 9.48288 31.2009C9.44717 31.2818 9.3484 31.5917 9.26337 31.8895C9.14007 32.3216 9.09599 32.4075 9.0453 32.3147C9.0103 32.2507 8.87883 32.0719 8.75318 31.9172C8.45675 31.5524 8.29774 31.5662 8.16424 31.9679C8.05481 32.2975 8.0414 32.2829 7.86538 31.6424C7.81096 31.4445 7.72842 31.2341 7.68185 31.1748C7.58661 31.0534 7.37691 30.9836 7.25381 31.0323ZM32.0765 31.1892C32.0136 31.2586 31.9841 31.3153 32.0111 31.3153C32.0381 31.3153 32.05 31.7283 32.0375 32.233C32.0218 32.8657 32.0385 33.1794 32.091 33.2426C32.1485 33.3119 32.3291 33.3315 32.8277 33.3224C33.552 33.3091 33.7704 33.1961 33.224 33.1172C32.6333 33.032 32.6504 33.0454 32.6343 32.6527L32.6198 32.2965H32.9043C33.0625 32.2965 33.2212 32.2575 33.2617 32.2087C33.3553 32.0958 33.292 32.0351 33.0794 32.0339C32.6867 32.0319 32.6162 31.975 32.6162 31.6601V31.366L33.0725 31.3918C33.392 31.4098 33.538 31.3936 33.5595 31.3376C33.6017 31.2278 33.2718 31.1373 32.6816 31.0967C32.2544 31.0674 32.1762 31.0793 32.0765 31.1892ZM26.2061 31.3406C26.6917 31.4287 27.6544 31.5978 28.3453 31.7162C29.0363 31.8347 29.5931 31.9401 29.5828 31.9503C29.5725 31.9607 28.6982 32.0578 27.6398 32.1662C26.5815 32.2746 25.5924 32.3807 25.442 32.4021L25.1685 32.4408L25.1477 31.7806C25.1299 31.2178 25.1413 31.1248 25.2249 31.1503C25.2789 31.1668 25.7204 31.2524 26.2061 31.3406ZM15.8832 31.9039C15.8716 32.2277 15.8518 32.4927 15.8391 32.4927C15.8265 32.4927 14.8828 32.3603 13.7421 32.1984C12.6013 32.0365 11.5909 31.9004 11.4968 31.896C11.2831 31.8861 11.8056 31.8139 12.8299 31.7118C14.3063 31.5647 15.9042 31.3613 15.9042 31.3204C15.9042 31.3174 15.8947 31.58 15.8832 31.9039ZM19.3219 32.7871C19.5773 33.2845 19.9901 33.5393 20.5407 33.5393C20.738 33.5393 20.9775 33.5096 21.0728 33.4733C21.1682 33.4371 21.2364 33.4311 21.2243 33.46C21.2039 33.5087 19.8893 35.7711 19.5819 36.2865C19.5068 36.4124 18.8428 37.5387 18.1065 38.7896C17.3702 40.0403 16.7573 41.0532 16.7445 41.0405C16.7318 41.0277 17.0418 39.8425 17.4335 38.4067C17.8253 36.9707 18.3611 34.989 18.6242 34.0027C18.9655 32.7241 19.1149 32.2549 19.1452 32.3675C19.1685 32.4544 19.248 32.6432 19.3219 32.7871ZM25.0265 36.1393C25.4989 36.7599 25.8676 37.2676 25.8459 37.2676C25.8136 37.2676 24.3021 36.1878 23.6551 35.7025L23.4916 35.5799L23.7839 35.2784C23.9446 35.1125 24.0968 34.9845 24.1219 34.994C24.1471 35.0033 24.5542 35.5187 25.0265 36.1393ZM17.4575 35.5696C17.4153 35.6057 15.6165 36.9672 15.3509 37.1642C15.2633 37.2292 15.752 36.5944 16.6461 35.4818L17.0036 35.0369L17.255 35.2824C17.3933 35.4174 17.4844 35.5467 17.4575 35.5696ZM21.0374 36.728C21.0367 36.8269 21.0071 37.1089 20.9716 37.3547C20.9235 37.6871 20.6489 39.958 20.5747 40.6362C20.5661 40.715 19.9986 36.8262 19.9948 36.6626C19.9925 36.5629 20.0597 36.5481 20.5155 36.5481H21.0388L21.0374 36.728ZM20.0466 42.9929C19.849 43.1002 19.7046 43.4556 19.7645 43.6875C19.8184 43.8965 19.9687 44.066 20.3275 44.3224C20.6309 44.5392 20.8136 44.8087 20.7389 44.9295C20.6793 45.0258 20.3992 45.1182 20.2917 45.077C20.2399 45.0571 20.1676 44.9549 20.131 44.8499C20.0576 44.6392 19.9623 44.6029 19.9011 44.7624C19.7718 45.0994 20.0137 45.3363 20.4802 45.3293C20.8273 45.324 21.093 45.1595 21.2112 44.8766C21.4054 44.4118 21.2615 44.1134 20.7117 43.8409C20.3962 43.6844 20.2538 43.5486 20.2538 43.4039C20.2538 43.2158 20.4386 43.1868 20.6484 43.3419C20.862 43.4998 21.0388 43.5238 21.0388 43.3948C21.0388 43.2177 20.5486 42.887 20.2987 42.8954C20.256 42.8969 20.1426 42.9407 20.0466 42.9929Z" fill="white"/>
</svg>
