<svg width="40" height="50" viewBox="0 0 40 50" fill="none" xmlns="http://www.w3.org/2000/svg">
<path fill-rule="evenodd" clip-rule="evenodd" d="M36.7268 0.163674C36.3197 0.348743 35.3442 0.714156 34.8154 0.879661C34.1839 1.0773 33.6051 1.29293 33.0011 1.55567C32.7695 1.6564 32.3758 1.81886 32.1264 1.91668C31.8769 2.01449 31.5124 2.17313 31.3164 2.26919C31.1204 2.36532 30.6976 2.52785 30.3769 2.63039C29.233 2.99619 27.6508 3.85701 26.3635 4.8139C26.0653 5.0355 25.5674 5.40421 25.2569 5.6332C24.9464 5.86225 24.4966 6.22662 24.2575 6.44291C22.8534 7.71306 21.8406 8.58905 21.111 9.16453C20.504 9.6433 18.6682 11.5687 17.8792 12.5542C17.6432 12.8489 17.4502 13.1065 17.4502 13.1268C17.4502 13.147 17.3963 13.2121 17.3304 13.2712C17.1106 13.4684 16.0247 14.7528 16.0247 14.8154C16.0247 14.9053 15.2451 15.6536 14.5344 16.2458C13.7402 16.9077 13.4809 17.1587 12.9791 17.7512C12.7527 18.0184 12.5343 18.2662 12.4936 18.3018C12.354 18.424 11.6834 19.2231 11.6834 19.2672C11.6834 19.2914 11.6304 19.3681 11.5657 19.4376C11.5009 19.5071 11.321 19.7901 11.1659 20.0665C11.0107 20.3429 10.7024 20.8459 10.4808 21.1844C9.94297 22.0058 9.54519 22.6639 9.54519 22.7322C9.54519 22.7629 9.49912 22.8262 9.44275 22.8729C9.38638 22.9197 9.21273 23.231 9.0567 23.5646C8.90074 23.8983 8.69903 24.2594 8.60838 24.367C8.5178 24.4747 8.44367 24.5902 8.44367 24.6239C8.44367 24.6574 8.36566 24.8082 8.27028 24.959C8.09481 25.2363 8.04959 25.3873 7.89725 26.2046C7.85073 26.454 7.78056 26.738 7.74123 26.8357C7.64754 27.0684 7.22779 27.5199 6.79373 27.8546C6.23927 28.2823 6.22165 28.3513 6.23241 30.0547C6.23746 30.8586 6.25903 31.6389 6.28042 31.7886C6.31638 32.0408 6.2593 32.1818 5.50683 33.6995C4.4957 35.7392 4.10239 36.5883 4.10239 36.7316C4.10239 36.7929 4.04407 36.9171 3.9728 37.0077C3.90152 37.0983 3.84321 37.1961 3.84321 37.2252C3.84321 37.2542 3.74537 37.4828 3.62576 37.7332C3.41828 38.1673 3.34771 38.3286 2.87354 39.4516C2.76073 39.7188 2.60011 40.0977 2.51665 40.2937C2.17738 41.0904 1.96414 41.6572 1.96414 41.7622C1.96414 41.8232 1.8755 42.1519 1.76723 42.4924C1.09517 44.605 0.904933 45.3599 0.939404 45.7777C0.973616 46.1926 1.14597 46.1402 1.37781 45.6446C1.48647 45.4122 1.57537 45.1806 1.57537 45.1297C1.57537 45.0181 1.8965 44.5008 2.27134 44.0088C2.42244 43.8103 2.57477 43.5273 2.60989 43.3798C2.64501 43.2322 2.73598 42.9366 2.81205 42.7228C2.88812 42.509 2.99056 42.1704 3.03974 41.9703C3.08886 41.7702 3.18702 41.4787 3.25791 41.3225C3.32879 41.1663 3.38731 40.9803 3.38789 40.909C3.38847 40.8378 3.47964 40.5463 3.59044 40.2613C3.87295 39.5347 4.06617 39.0192 4.19757 38.6418C4.47898 37.8335 4.57131 37.5872 4.68904 37.3308C4.75837 37.1798 4.81514 37.008 4.81514 36.9489C4.81514 36.7684 5.14229 36.3125 5.39039 36.1472C5.51946 36.0612 5.85834 35.8939 6.14344 35.7753C6.66174 35.5598 6.66193 35.5597 7.50414 35.5945C8.57715 35.6389 8.93139 35.6732 9.96636 35.8331C10.6871 35.9445 10.8809 35.9527 11.3092 35.8904C11.9045 35.8036 12.659 35.5575 12.9772 35.3464C13.1031 35.2628 13.3173 35.1285 13.4533 35.0479C13.5891 34.9674 13.7713 34.7957 13.8581 34.6664C13.9448 34.5371 14.085 34.3286 14.1696 34.203C14.2542 34.0774 14.4539 33.8678 14.6135 33.737C15.0616 33.37 15.5035 33.0386 15.5449 33.0386C15.6115 33.0386 16.1773 32.6277 16.5247 32.327C16.7106 32.1662 16.9849 31.9325 17.1342 31.8078C17.3932 31.5915 18.4869 30.3714 18.4869 30.2989C18.4869 30.2798 18.64 30.033 18.8271 29.7505C19.0143 29.4678 19.1965 29.1908 19.2321 29.1348C19.2677 29.0788 19.4135 28.8668 19.5561 28.6635C19.6986 28.4603 19.859 28.2262 19.9124 28.1433C20.0737 27.8935 20.3855 27.4475 20.5434 27.2411C20.6251 27.1342 20.7142 27.0176 20.7414 26.9819C21.0944 26.5198 21.6085 25.8503 21.7762 25.6346C22.3891 24.846 23.2248 23.3499 23.5699 22.4231C23.8471 21.6789 24.151 20.8605 24.2305 20.6439C24.2809 20.507 24.3941 20.289 24.4823 20.1593C24.5704 20.0296 24.6425 19.9 24.6425 19.8712C24.6425 19.8424 24.6958 19.7399 24.7609 19.6433C24.8261 19.5468 24.9938 19.2929 25.1335 19.0791C25.2733 18.8654 25.4103 18.6805 25.4379 18.6683C25.5505 18.6187 25.999 17.8783 26.2288 17.3625C26.3637 17.0597 26.4957 16.7828 26.5221 16.7471C26.5674 16.6859 26.7979 16.2608 27.3177 15.2796C27.5652 14.8124 28.1258 13.9541 28.3949 13.6305C28.4871 13.5195 28.6355 13.3348 28.7246 13.22C29.257 12.5339 30.2318 11.6536 30.7106 11.4265C30.8437 11.3633 31.4354 10.8261 32.0254 10.2326C32.6155 9.63915 33.2221 9.07636 33.3735 8.98205C33.5248 8.88773 33.9476 8.52635 34.313 8.17895C34.6784 7.83155 35.1231 7.41853 35.3013 7.26118C36.3848 6.30436 37.6144 5.06925 37.7383 4.81332C37.8136 4.65785 38.0119 4.36441 38.179 4.16121C39.0902 3.05319 39.1832 2.81119 39.1826 1.54874C39.182 0.5675 39.1152 0.35775 38.7832 0.294333C38.6857 0.275677 38.4164 0.216666 38.1847 0.16316C37.67 0.0443587 36.9888 0.0446138 36.7268 0.163674ZM38.2866 0.465733C38.9663 0.616211 38.9809 0.637069 39.014 1.50392C39.0412 2.21355 39.0336 2.27107 38.8616 2.6543C38.762 2.87622 38.4377 3.36619 38.141 3.7432C37.8417 4.1235 37.6016 4.49118 37.6016 4.56911C37.6016 4.73818 36.6007 5.70244 34.9508 7.12281C34.6511 7.38082 34.2721 7.71818 34.1084 7.87261C33.5254 8.42289 32.8659 8.9415 32.7492 8.9415C32.6988 8.9415 31.8045 9.81696 31.1322 10.5243C30.9418 10.7246 30.6357 10.9848 30.4519 11.1023C30.2681 11.2199 30.0011 11.4266 29.8585 11.5617C29.716 11.6967 29.4763 11.916 29.3258 12.0489C29.1755 12.1818 28.8467 12.5499 28.5954 12.867C28.3441 13.1841 28.0881 13.5018 28.0266 13.5731C27.965 13.6443 27.8855 13.7527 27.8499 13.8139C27.8142 13.8751 27.6465 14.1274 27.4773 14.3746C27.308 14.6217 27.1695 14.8646 27.1695 14.9143C27.1695 14.964 27.134 15.0401 27.0907 15.0835C26.9701 15.204 26.6365 15.8086 26.1191 16.8443C25.8422 17.3985 25.454 18.0471 25.1722 18.4263C24.9096 18.7798 24.6782 19.115 24.6581 19.1712C24.6379 19.2275 24.5712 19.3463 24.5099 19.4354C24.3267 19.7017 23.9968 20.335 23.8913 20.6232C23.837 20.7716 23.7105 21.1261 23.6102 21.4111C23.4048 21.9945 23.3498 22.1213 22.809 23.2573C22.5969 23.7026 22.3541 24.1597 22.2694 24.2732C22.1847 24.3866 22.1155 24.495 22.1155 24.5142C22.1155 24.5584 21.3985 25.5193 21.0473 25.9455C20.9006 26.1236 20.7383 26.3312 20.6867 26.4068C20.635 26.4825 20.4616 26.7157 20.3012 26.9251C20.1408 27.1345 19.9805 27.3518 19.9448 27.4079C19.6645 27.8494 19.0858 28.6895 18.9916 28.7918C18.9279 28.8608 18.8757 28.9401 18.8757 28.968C18.8757 28.9959 18.7925 29.1434 18.6909 29.2958C18.5892 29.4483 18.4223 29.7042 18.3201 29.8645C18.1239 30.172 17.5129 30.8942 17.1188 31.2845C16.7619 31.6379 15.6026 32.5755 15.4313 32.6492C15.0886 32.7968 14.34 33.3903 13.67 34.0457C13.2679 34.439 12.8944 34.7304 12.5985 34.8818C12.0095 35.1832 11.1576 35.2845 10.096 35.1794C9.70394 35.1406 8.87249 35.0906 8.24825 35.0681C6.88729 35.0192 6.14 35.1026 5.76918 35.3446L5.52445 35.5042L5.73361 35.1297C5.84869 34.9238 6.0502 34.5949 6.18148 34.3989C6.45984 33.9833 6.66679 33.6095 7.329 32.3261C7.5955 31.8095 7.8679 31.3173 7.93425 31.2323C8.0006 31.1473 8.0549 31.0506 8.0549 31.0172C8.0549 30.9839 8.13505 30.8344 8.23309 30.6849C8.47879 30.31 8.5548 30.1865 8.67849 29.9617C8.73733 29.8548 8.86886 29.6611 8.97091 29.5313C9.07296 29.4015 9.15642 29.2666 9.15642 29.2316C9.15642 29.1965 9.20243 29.1297 9.25867 29.083C9.31491 29.0364 9.43336 28.8651 9.5218 28.7026C9.85971 28.0819 10.0064 27.8347 10.13 27.6776C10.2004 27.5882 10.2579 27.4886 10.2579 27.4562C10.2579 27.4239 10.3818 27.2373 10.5333 27.0415C11.0807 26.334 11.486 25.7419 11.7489 25.2653C11.8964 24.9981 12.0996 24.6921 12.2003 24.5852C12.3011 24.4783 12.5451 24.1722 12.7426 23.905C12.9401 23.6378 13.1257 23.39 13.1551 23.3544C13.3489 23.1198 13.8217 22.4719 13.8217 22.441C13.8217 22.4204 13.8917 22.326 13.9774 22.2312C14.063 22.1364 14.3036 21.8632 14.5119 21.6242C14.7203 21.3851 15.0949 20.9611 15.3444 20.682C15.5938 20.4028 15.9146 20.0326 16.0571 19.8594C16.542 19.27 16.705 19.0792 16.7787 19.0143C16.8192 18.9787 17.1826 18.5706 17.5863 18.1075C17.99 17.6443 18.5254 17.0584 18.7762 16.8055C19.0269 16.5526 19.4911 16.0716 19.8077 15.7367C20.1244 15.4017 20.55 14.9528 20.7537 14.7391C21.1217 14.3527 21.8488 13.6775 22.6118 13.0135C22.8313 12.8225 23.429 12.302 23.9401 11.8569C24.4512 11.4117 25.0913 10.8287 25.3626 10.5613C25.9151 10.0167 25.94 9.99555 26.5063 9.58908C26.7295 9.42888 27.2106 9.0636 27.5754 8.77748C27.9402 8.49129 28.3115 8.22073 28.4006 8.17623C28.4897 8.13166 28.7148 8.00145 28.9008 7.8868C29.0867 7.77214 29.4512 7.5506 29.7107 7.39449C30.6374 6.83689 31.2954 6.37347 32.0616 5.73885C32.4892 5.38465 32.8488 5.07126 32.8607 5.04243C32.8726 5.01367 32.9185 4.99009 32.9627 4.99009C33.0069 4.99009 33.2012 4.83625 33.3946 4.6482C33.588 4.46015 33.8556 4.23914 33.9894 4.157C34.2531 3.99505 34.3589 3.75007 34.2315 3.59655C34.0781 3.41167 33.857 3.47645 33.2279 3.8905C33.0141 4.03126 32.6966 4.22689 32.5223 4.32535C32.1402 4.54119 32.1475 4.53672 31.3797 5.02125C31.0419 5.23437 30.5761 5.5374 30.3445 5.69474C29.1513 6.50498 28.4587 6.9851 28.0972 7.25243C27.8768 7.41541 27.616 7.60709 27.5177 7.67834C27.4193 7.7496 27.0602 8.02594 26.7196 8.2925C26.379 8.55899 26.0712 8.79893 26.0356 8.82562C25.8001 9.00188 22.6668 11.6633 22.0959 12.172C21.1086 13.0518 18.4257 15.7932 17.4599 16.9091C17.0129 17.4257 16.6018 17.895 16.5465 17.9521C16.4912 18.0091 16.3584 18.1651 16.2515 18.2987C16.1446 18.4323 16.0164 18.5846 15.9667 18.637C15.7288 18.8881 14.074 20.9478 13.2709 21.9925C13.1284 22.1779 12.8222 22.5738 12.5906 22.8722C12.3589 23.1707 12.1257 23.4786 12.0722 23.5565C11.9429 23.7452 11.2109 24.706 11.1651 24.7471C11.1136 24.7935 10.0056 26.2932 9.51416 26.9819C9.2853 27.3026 9.06837 27.5991 9.03208 27.641C8.92141 27.7685 7.51568 29.9593 7.31371 30.3189C7.27593 30.3863 7.11375 30.6652 6.95338 30.9387L6.6618 31.436L6.64146 30.4397C6.61995 29.3882 6.69407 28.825 6.87932 28.6323C6.9379 28.5715 7.10441 28.4478 7.24949 28.3575C7.64805 28.1095 8.06656 27.6604 8.26549 27.2674C8.42521 26.9518 8.44367 26.8469 8.44367 26.254C8.44367 25.6309 8.45643 25.5672 8.66417 25.1537C9.00305 24.479 9.21131 24.0922 9.28051 24.0089C9.31511 23.9671 9.56496 23.4978 9.83567 22.9658C10.1064 22.4339 10.3653 21.9539 10.4111 21.8992C10.5351 21.7511 11.2947 20.5423 11.2947 20.4932C11.2947 20.3197 12.006 19.3794 12.6841 18.6566C12.9356 18.3885 13.3163 17.9783 13.5301 17.745C13.7439 17.5117 14.225 17.0705 14.5992 16.7646C15.4001 16.11 16.0708 15.4277 16.5107 14.82C16.6848 14.5795 16.845 14.3828 16.8668 14.3828C16.8886 14.3828 17.1235 14.1172 17.3889 13.7926C18.5109 12.4203 18.9092 11.9443 19.0659 11.7883C19.1573 11.6973 19.5955 11.2345 20.0397 10.7598C20.4839 10.2852 21.0002 9.78387 21.1871 9.64583C21.5246 9.39656 23.8029 7.4741 23.865 7.3862C23.9539 7.26021 25.2953 6.13004 25.61 5.91601C25.8084 5.78095 26.1413 5.53927 26.3498 5.37888C27.2237 4.70637 28.0406 4.17468 28.8718 3.73724C29.2557 3.53527 29.6202 3.34126 29.6818 3.30621C29.8689 3.19959 30.7953 2.85245 30.8926 2.85245C30.9427 2.85245 31.2951 2.69213 31.6757 2.49617C32.0563 2.30022 32.3953 2.1399 32.4292 2.1399C32.463 2.1399 32.642 2.06942 32.8269 1.98327C33.463 1.68698 33.9783 1.4885 34.7685 1.23529C35.6059 0.966916 36.0094 0.81488 36.6944 0.509714C37.1593 0.302557 37.5064 0.292973 38.2866 0.465733ZM31.5108 5.72713C31.5108 5.74054 31.4598 5.79159 31.3974 5.84049C31.2946 5.92101 31.2924 5.91874 31.3729 5.81601C31.4576 5.70809 31.5108 5.67382 31.5108 5.72713ZM30.8604 6.2182C30.737 6.32366 30.6083 6.41111 30.5745 6.41253C30.5049 6.41551 30.543 6.37781 30.823 6.16716C31.0963 5.96156 31.1211 5.99543 30.8604 6.2182ZM30.4057 6.51663C30.3594 6.5724 30.2319 6.66322 30.1224 6.71835C29.9087 6.82601 29.942 6.77988 30.2398 6.55582C30.4601 6.39012 30.5231 6.37522 30.4057 6.51663ZM9.62483 27.9374C9.56152 28.0532 9.30636 28.451 9.05774 28.8216C8.08769 30.2669 8.09579 30.2541 7.74576 30.901C7.65907 31.0613 7.56641 31.207 7.53997 31.2249C7.51353 31.2427 7.3417 31.5633 7.15814 31.9374C6.97451 32.3115 6.72122 32.7925 6.59519 33.0062C6.46923 33.22 6.33783 33.4624 6.30329 33.545C6.26876 33.6276 6.16761 33.7907 6.07858 33.9075C5.98949 34.0242 5.91666 34.1498 5.91666 34.1866C5.91666 34.2234 5.86845 34.2935 5.80955 34.3424C5.71638 34.4197 6.46618 32.9087 6.98694 31.9698C7.08575 31.7916 7.21457 31.5585 7.27321 31.4516C7.38291 31.2516 7.45315 31.1401 8.0779 30.1728C8.27909 29.8614 8.44367 29.5936 8.44367 29.5777C8.44367 29.5265 9.68016 27.7269 9.71541 27.7269C9.72882 27.7269 9.68807 27.8216 9.62483 27.9374ZM4.33792 37.398C4.24928 37.5917 4.14263 37.8779 4.1009 38.034C4.05911 38.1902 4.00247 38.3471 3.97507 38.3827C3.92323 38.4501 3.7764 38.8379 3.32517 40.0993C2.97929 41.0663 2.95175 41.1488 2.79527 41.6864C2.7227 41.9358 2.6062 42.2856 2.53648 42.4637C2.46676 42.6418 2.38265 42.9284 2.34961 43.1005C2.29434 43.3881 2.05213 43.8364 1.98708 43.7714C1.97185 43.7561 2.01475 43.6014 2.08246 43.4276C2.1501 43.2537 2.24075 42.9511 2.28378 42.7552C2.39477 42.2499 2.65156 41.4681 2.95409 40.7147C3.09709 40.3584 3.29348 39.8483 3.39055 39.5811C3.48755 39.3139 3.65595 38.8621 3.76487 38.5771C3.87373 38.292 3.99755 37.9568 4.03999 37.8321C4.08249 37.7074 4.15695 37.5325 4.20554 37.4435C4.25414 37.3544 4.32878 37.1948 4.37148 37.0889C4.41418 36.983 4.46031 36.93 4.47405 36.9712C4.48779 37.0123 4.42649 37.2044 4.33792 37.398ZM19.6857 37.0371C19.1671 37.0877 18.0428 37.3811 17.6334 37.5726C16.986 37.8755 16.8651 38.0365 16.7931 38.6924C16.7544 39.0437 16.7559 39.3414 16.797 39.5238C16.8592 39.7993 16.8538 39.8156 16.6168 40.0669C16.1249 40.5887 16.0874 41.0883 16.5299 41.2287C16.6439 41.2649 16.669 41.3082 16.6385 41.4163C16.569 41.6636 16.3295 42.2668 16.2698 42.345C16.2008 42.4354 15.8024 43.3691 15.6387 43.824C15.5746 44.0021 15.4767 44.2499 15.4211 44.3746C15.3655 44.4993 15.2307 44.9045 15.1216 45.275C14.9635 45.8119 14.9232 46.0696 14.9232 46.5446C14.9232 47.1041 14.9375 47.1678 15.158 47.5875C15.2872 47.8334 15.4694 48.0996 15.563 48.1791C15.8472 48.4205 16.5802 48.909 16.6584 48.909C16.6987 48.909 16.9881 48.9788 17.3015 49.064C18.3564 49.351 19.861 49.4634 21.2407 49.3584C22.5955 49.2552 22.9231 49.1906 23.5287 48.9072C24.1654 48.6092 24.4926 48.3245 24.7922 47.8078L24.9989 47.4515L24.9956 46.2855C24.9927 45.2218 24.9794 45.0883 24.8441 44.7633C24.6624 44.3267 24.2537 42.9935 24.2537 42.8369C24.2536 42.7742 24.1545 42.4172 24.0335 42.0437L23.8134 41.3646L24.0083 41.1426C24.1764 40.9511 24.1985 40.8842 24.1684 40.6558C24.1408 40.4458 24.072 40.3349 23.8373 40.1212L23.541 39.8516V39.3639C23.541 39.0957 23.5701 38.8582 23.6058 38.8362C23.6414 38.8141 23.6706 38.6388 23.6706 38.4465C23.6706 38.1283 23.6512 38.0813 23.4563 37.9258C23.2183 37.736 22.5168 37.4455 21.8238 37.2499C21.4147 37.1344 20.2865 36.9775 20.042 37.002C19.9886 37.0074 19.8282 37.0232 19.6857 37.0371ZM21.7773 37.7013C22.0723 37.7786 22.5097 37.9219 22.7492 38.0198C23.4886 38.3222 23.3542 38.528 22.187 38.8808C21.4088 39.1159 20.3475 39.2192 19.2645 39.165C18.4899 39.1264 18.4314 39.1133 17.9252 38.8665C17.634 38.7245 17.3834 38.5722 17.3681 38.528C17.1935 38.0226 18.8731 37.4841 20.4632 37.5356C20.981 37.5523 21.42 37.6077 21.7773 37.7013ZM17.4325 39.1652C17.7421 39.3466 18.7402 39.6111 19.3617 39.6765C19.5946 39.7009 20.0343 39.677 20.4583 39.6168C20.8476 39.5615 21.2996 39.5163 21.4627 39.5163C21.725 39.5163 22.9732 39.2058 23.1499 39.0967C23.2393 39.0415 23.2362 39.3649 23.1426 39.8731C23.047 40.3913 22.9531 40.4486 21.9091 40.6256C21.4702 40.7 21.0834 40.7869 21.0496 40.8187C20.9095 40.9506 21.1469 41.0227 21.6857 41.0121C22.6773 40.9925 23.4011 40.7048 23.411 40.326L23.4161 40.1317L23.5742 40.3253C23.6612 40.4317 23.7677 40.604 23.8109 40.7082C23.8838 40.8842 23.8751 40.9094 23.6872 41.0652C23.4634 41.251 22.9042 41.4809 22.4071 41.5915C21.8435 41.7169 19.7849 41.6761 19.0377 41.5247C18.6813 41.4525 18.1698 41.3517 17.901 41.3007C17.3144 41.1896 16.7876 41.0183 16.7222 40.9176C16.6421 40.7941 16.6669 40.66 16.8139 40.4232C16.9545 40.1967 16.9547 40.1966 16.9946 40.3579C17.0771 40.6906 17.9073 40.9771 18.927 41.0247C19.3829 41.046 19.4614 41.0348 19.4452 40.9508C19.4313 40.8784 19.1909 40.8059 18.5515 40.6813C18.0706 40.5876 17.6177 40.4789 17.5451 40.4399C17.4504 40.3887 17.3635 40.1896 17.2366 39.732C17.1394 39.3818 17.0603 39.0734 17.0607 39.0467C17.0619 38.967 17.1325 38.9895 17.4325 39.1652ZM18.7455 41.7858C20.1732 42.0419 20.9886 42.0861 21.8625 41.9549C22.6033 41.8437 23.195 41.705 23.4028 41.5938C23.5229 41.5295 23.536 41.5481 23.5717 41.832C23.7551 43.2916 24.0413 44.424 24.4552 45.3281C24.6257 45.7002 24.7409 46.622 24.679 47.1173C24.6152 47.6282 24.1467 48.3036 23.7678 48.431C23.6965 48.4549 23.5221 48.5478 23.3802 48.6372C23.0612 48.8385 22.8108 48.8974 21.8239 49.0032C20.9009 49.1022 18.9059 49.0907 18.4709 48.984C18.3017 48.9425 17.9667 48.8807 17.7266 48.8467C17.4864 48.8127 17.0854 48.706 16.8355 48.6096C16.4723 48.4695 16.3392 48.3783 16.1726 48.1551C15.7743 47.6214 15.5089 47.0178 15.5074 46.6418C15.506 46.2906 15.6739 45.575 15.933 44.8281C16.6323 42.812 16.8671 41.9992 16.8671 41.5942V41.3419L17.272 41.4681C17.4948 41.5374 18.1578 41.6804 18.7455 41.7858Z" fill="white"/>
</svg>
