<svg width="34" height="25" viewBox="0 0 34 25" fill="none" xmlns="http://www.w3.org/2000/svg">
<path fill-rule="evenodd" clip-rule="evenodd" d="M2.3656 0.268223C2.3656 0.365199 2.48827 0.611647 2.75695 1.05432C2.97219 1.409 3.26081 1.93499 3.39829 2.22322C3.78814 3.04045 3.83897 3.13556 3.95108 3.258C4.00884 3.32103 4.04984 3.37631 4.04219 3.38082C3.88243 3.47456 3.65416 3.69202 3.4361 3.95811C3.28577 4.14158 2.91543 4.54917 2.61313 4.86384C1.818 5.6915 1.54564 6.00945 1.54564 6.10984C1.54564 6.17305 1.56855 6.19164 1.62536 6.17455C1.66918 6.16138 1.92296 6.08797 2.18926 6.01141C2.92909 5.79882 3.02302 5.76104 5.12157 4.83258C6.32218 4.30136 6.12876 4.31949 6.86262 4.66934C7.66245 5.05063 8.26594 5.32629 9.9024 6.05798C10.6277 6.38227 11.2427 6.66417 11.269 6.6844C11.3767 6.7673 12.3898 7.21257 12.7511 7.3358C13.3373 7.53572 14.4601 7.85654 14.8679 7.94066C16.0226 8.17882 16.7853 8.25168 18.3389 8.27233C19.1773 8.28349 20.1612 8.27082 20.5509 8.24385C21.3775 8.18661 23.007 7.99402 23.5251 7.89236C25.3211 7.53986 27.1478 6.8722 28.2709 6.15774C28.7618 5.84544 29.5154 5.14032 29.5154 4.99326C29.5154 4.93502 29.437 4.82688 29.3218 4.72621C29.2153 4.63316 28.9744 4.42221 28.7865 4.25742C28.4232 3.93884 27.0939 3.02828 26.6 2.75969C26.4371 2.67114 25.9144 2.43381 25.4384 2.23225C23.5229 1.42131 22.6491 1.20512 20.2453 0.947369C17.6853 0.672803 16.2349 0.672712 14.1184 0.946959C11.7612 1.25238 11.146 1.39164 8.87777 2.13304C8.11251 2.38313 7.47099 2.58779 7.45213 2.58779C7.43327 2.58779 7.19298 2.6721 6.91811 2.77518L6.41834 2.96257L6.17276 2.81369C6.0377 2.7318 5.64576 2.43198 5.30178 2.14748C4.35263 1.36243 3.60852 0.83089 2.99196 0.497583C2.7477 0.365518 2.54781 0.228075 2.54781 0.192211C2.54781 0.156301 2.50681 0.126953 2.4567 0.126953C2.38519 0.126953 2.3656 0.157349 2.3656 0.268223ZM3.86886 1.57283C4.10687 1.7476 4.5271 2.07092 4.8027 2.29126C5.41202 2.77851 5.81152 3.03995 6.15627 3.17707C6.38969 3.2699 6.44144 3.27523 6.65736 3.22866C6.95683 3.16408 7.59234 3.01174 7.72941 2.97168C7.82334 2.94425 7.82954 2.95332 7.80403 3.08078C7.78048 3.19863 7.80211 3.24629 7.94629 3.39367C8.13028 3.58183 8.26485 3.76603 8.23674 3.79123C8.22708 3.79994 8.1321 3.85093 8.02565 3.90466C7.78535 4.02588 7.58578 4.30992 7.61261 4.49262L7.63165 4.6224L7.28518 4.47621C7.09458 4.39582 6.8373 4.27889 6.71344 4.21646C6.38012 4.04839 6.25745 4.03732 5.79399 4.13361C5.4271 4.2098 5.22553 4.2968 4.2224 4.81189C3.05906 5.40919 2.63965 5.60373 2.28383 5.71105L2.08818 5.77006L2.30661 5.58035C2.42673 5.47599 2.67258 5.2521 2.85293 5.0829C3.04293 4.90458 3.22109 4.7752 3.27657 4.7752C3.41291 4.7752 4.92223 4.08435 4.9513 4.00865C4.98596 3.91824 4.87486 3.86556 4.71374 3.896C4.63739 3.91045 4.35145 4.01193 4.07831 4.12153C3.80513 4.23113 3.57053 4.30969 3.557 4.29611C3.52279 4.26194 4.09344 3.68806 4.23328 3.61597C4.3197 3.57144 4.43504 3.56739 4.71159 3.59929C5.40569 3.67931 5.86879 3.61291 5.81517 3.44111C5.80906 3.4217 5.53611 3.39777 5.20854 3.38797C4.41431 3.36419 4.26636 3.32167 4.12359 3.07622C4.06209 2.9705 3.96962 2.77623 3.9181 2.64444L3.8244 2.40491L4.14122 2.56455C4.78762 2.89016 5.37244 3.02532 5.37198 2.84896C5.37189 2.81811 5.22325 2.73335 5.04172 2.66057C4.86014 2.58779 4.55544 2.45099 4.36457 2.35656C4.1737 2.26219 3.93473 2.16011 3.83355 2.12976C3.68418 2.08501 3.63376 2.03953 3.56561 1.88818C3.51942 1.78565 3.37406 1.51947 3.2425 1.29672C3.11094 1.07397 3.00334 0.879377 3.00334 0.864248C3.00334 0.849118 3.10074 0.930827 3.21972 1.04589C3.33871 1.16092 3.63084 1.39802 3.86886 1.57283ZM16.6921 1.47317C16.9472 1.80119 17.0502 2.04472 17.0104 2.226C16.9798 2.36536 16.7547 2.50102 16.2233 2.70044C15.7523 2.87717 15.4846 3.06916 15.3483 3.32818C15.2424 3.52938 15.2392 3.55331 15.3031 3.66997C15.3493 3.7545 15.5168 3.87043 15.8163 4.02533C16.3488 4.30063 16.4582 4.39687 16.4185 4.55509C16.4028 4.61762 16.2672 4.83116 16.1171 5.02963C15.7857 5.4677 15.6672 5.68649 15.6672 5.86002C15.6672 6.02458 15.7546 6.10415 16.0999 6.25385C16.3989 6.3835 16.5964 6.60684 16.5704 6.78598C16.5617 6.84627 16.451 6.97196 16.3049 7.0873C16.1671 7.19612 15.9634 7.36606 15.8521 7.46485L15.6498 7.64449L15.2224 7.55718C14.6396 7.43806 13.4351 7.09714 13.4351 7.05134C13.4351 7.03083 13.5159 6.95637 13.6146 6.88583C14.0812 6.55257 13.9423 6.09512 13.287 5.80684C13.1421 5.74313 13.0251 5.6622 13.0251 5.62579C13.0251 5.53528 13.3947 5.04034 13.5299 4.94979C13.7598 4.7958 13.9361 4.58267 13.9361 4.45876C13.9361 4.30509 13.8081 4.18501 13.4699 4.0215C13.3262 3.95205 13.1774 3.86073 13.1393 3.81853C13.077 3.74967 13.0781 3.73249 13.15 3.6496C13.194 3.59883 13.4088 3.44202 13.6272 3.30112C14.1675 2.9525 14.2917 2.73626 14.1486 2.3937C14.0654 2.19438 13.7558 1.84986 13.5401 1.71647C13.4536 1.66297 13.3999 1.60218 13.4208 1.58131C13.4975 1.50452 14.0256 1.40413 14.8244 1.3144C15.8052 1.2043 15.9407 1.1919 16.2366 1.18539L16.4644 1.18033L16.6921 1.47317ZM19.303 1.28373C19.6115 1.31909 19.8717 1.35582 19.8813 1.36535C19.8908 1.37492 19.6691 1.53998 19.3887 1.73215C18.7565 2.16526 18.3786 2.49925 18.262 2.72788C18.1008 3.04405 18.1543 3.14344 18.6634 3.47292C19.001 3.69139 19.2502 3.94982 19.2959 4.12882C19.3183 4.21668 19.2467 4.31202 18.8675 4.69846C18.2527 5.3252 18.0948 5.65195 18.3118 5.84845C18.3633 5.89507 18.561 6.01615 18.7511 6.11754C19.1192 6.31377 19.2494 6.44634 19.2902 6.6664C19.3129 6.78885 19.2667 6.85944 18.8466 7.34386L18.3776 7.88465L17.7854 7.85836C17.4597 7.84391 16.9815 7.80768 16.7227 7.77788L16.2523 7.72365L16.524 7.45437C16.8639 7.11742 16.9791 6.85393 16.9008 6.59226C16.8243 6.33692 16.6158 6.12269 16.3033 5.97842C16.1539 5.90938 16.0316 5.82799 16.0316 5.79754C16.0316 5.7671 16.1245 5.61599 16.238 5.46169C16.4817 5.13066 16.704 4.71619 16.7408 4.52456C16.7815 4.31257 16.6124 4.11556 16.1455 3.83115C15.92 3.6938 15.7252 3.57135 15.7127 3.559C15.6623 3.50947 15.9842 3.31078 16.4389 3.11076C17.0032 2.86254 17.2022 2.72314 17.2891 2.51488C17.4371 2.16079 17.3265 1.75334 16.9803 1.37587L16.7832 1.1611L17.7626 1.19031C18.3013 1.20635 18.9944 1.24841 19.303 1.28373ZM21.6066 1.64497C21.6933 1.7249 21.8359 1.84717 21.9233 1.91667C22.0235 1.99628 22.1091 2.1216 22.1546 2.25517C22.2736 2.60447 22.2574 2.65478 21.9615 2.85579C21.6105 3.09427 21.4069 3.32987 21.4069 3.49766C21.4069 3.61091 21.4589 3.66632 21.7732 3.88789C21.9747 4.02993 22.1705 4.19344 22.2084 4.25127C22.3175 4.41783 22.2051 4.60445 21.7009 5.0942C21.2683 5.51441 21.0885 5.73876 21.0882 5.85879C21.0881 5.89083 21.1988 6.02016 21.3341 6.14616C21.7579 6.54081 21.7664 6.72701 21.3814 7.19056C21.267 7.32837 21.1332 7.51803 21.0842 7.612C21.0095 7.75523 20.9713 7.78308 20.848 7.78399C20.767 7.78458 20.3331 7.80463 19.8836 7.82851C19.4341 7.85239 19.0597 7.8652 19.0514 7.85699C19.0432 7.84874 19.1523 7.70073 19.2938 7.52801C19.6303 7.11728 19.7431 6.88482 19.7033 6.68376C19.6479 6.40373 19.4513 6.19087 18.9958 5.91799C18.7596 5.77649 18.5594 5.63982 18.5509 5.6143C18.5255 5.53802 18.7877 5.17732 19.1305 4.81717C19.3074 4.63115 19.4843 4.41925 19.5235 4.34624C19.6763 4.06156 19.4863 3.62822 19.0782 3.33115C18.9685 3.25126 18.8085 3.12608 18.7227 3.05294L18.5667 2.91996L18.8138 2.68568C18.9497 2.5568 19.2862 2.27185 19.5615 2.05247C19.8368 1.83309 20.1026 1.59152 20.152 1.51564L20.2419 1.3777L20.8454 1.43867C21.4229 1.497 21.4557 1.50589 21.6066 1.64497ZM13.0251 1.65404C13.0251 1.71693 13.069 1.80411 13.1227 1.84772C13.5358 2.18335 13.7995 2.48289 13.7995 2.61655C13.7995 2.6499 13.5979 2.80808 13.3516 2.96799C12.8928 3.2658 12.7332 3.44416 12.6779 3.72037C12.6591 3.81479 12.6739 3.89996 12.7219 3.97329C12.7985 4.09027 13.3902 4.41063 13.5296 4.41063C13.6657 4.41063 13.6698 4.48674 13.5383 4.57291C13.0847 4.87026 12.69 5.41994 12.7148 5.71985C12.7283 5.88408 12.7436 5.89876 13.0579 6.05119C13.3455 6.19069 13.52 6.3289 13.5247 6.42109C13.5255 6.43659 13.4433 6.50403 13.3421 6.57107C13.2409 6.63806 13.1342 6.74533 13.105 6.8094C13.0595 6.90934 13.0305 6.92247 12.9008 6.90141C12.8176 6.88788 12.3964 6.70979 11.9649 6.50563C11.5333 6.30147 11.015 6.06309 10.8131 5.97582L10.4462 5.81723L10.3178 5.52252C10.1981 5.24764 10.1945 5.22226 10.2643 5.1451C10.3055 5.09958 10.4838 5.00561 10.6606 4.93621C11.1715 4.73569 11.1821 4.56735 10.7158 4.0637C10.6024 3.94121 10.4797 3.79634 10.4432 3.74174C10.3634 3.62239 10.3813 3.60995 10.8586 3.45314C11.3601 3.2884 11.4797 3.11159 11.3881 2.67009C11.3426 2.45099 11.2831 2.32744 11.1021 2.07639C11.0653 2.02531 11.0611 1.98247 11.0901 1.95381C11.1287 1.91562 12.4364 1.62761 12.8201 1.57283C12.8952 1.56208 12.9721 1.55023 12.9909 1.54649C13.0097 1.54271 13.0251 1.59111 13.0251 1.65404ZM22.6628 1.72258C23.2461 1.84266 24.2312 2.13331 24.2312 2.18535C24.2312 2.20777 24.2 2.30078 24.1619 2.39197C24.031 2.70546 23.8255 3.4772 23.7275 4.02328C23.5523 5.00023 23.6596 6.65168 23.9342 7.20232C23.9723 7.2787 24.0034 7.34559 24.0034 7.35102C24.0034 7.35639 23.9368 7.37225 23.8554 7.38624C23.7739 7.40023 23.5228 7.44344 23.2974 7.48231C22.8857 7.55326 21.7505 7.69175 21.5807 7.69175C21.4963 7.69175 21.4985 7.68159 21.6106 7.54825C21.8172 7.30257 22.0128 6.86746 22.01 6.65984C22.007 6.43572 21.9562 6.32763 21.7203 6.04304C21.6231 5.92574 21.5435 5.81696 21.5435 5.80133C21.5435 5.7857 21.7294 5.57776 21.9565 5.33928C22.696 4.56275 22.7245 4.24307 22.0962 3.77706C21.9175 3.64458 21.7713 3.51817 21.7713 3.49621C21.7713 3.47424 21.9186 3.35826 22.0987 3.2385C22.5091 2.96548 22.6125 2.82968 22.6042 2.57458C22.595 2.2934 22.4271 1.88199 22.2663 1.74664C22.1008 1.60724 22.102 1.60715 22.6628 1.72258ZM10.8263 2.35205C10.9073 2.52117 10.9863 2.72305 11.0018 2.80065C11.0298 2.94078 11.0277 2.94261 10.7179 3.04346C10.3093 3.17643 10.2204 3.2364 10.1093 3.45423C9.97574 3.71627 10.0243 3.8301 10.439 4.22753L10.7994 4.57291L10.4814 4.67536C10.2352 4.7547 10.1253 4.82005 9.99432 4.9651C9.8368 5.13954 9.82691 5.16725 9.85069 5.36827L9.87625 5.58414L9.34382 5.35737C9.05101 5.23269 8.65683 5.06736 8.46797 4.98998C8.2064 4.88289 8.09019 4.80528 7.98055 4.66465L7.8366 4.47999L7.93499 4.37518C7.98911 4.31753 8.1162 4.24931 8.21742 4.22356C8.50218 4.15115 8.65196 3.99607 8.65196 3.77382C8.65196 3.64878 8.50938 3.3723 8.36442 3.21622L8.24968 3.09272L8.42428 2.93491C8.52031 2.84809 8.65264 2.74187 8.71828 2.69885C8.81303 2.63673 10.567 2.04468 10.6563 2.04463C10.6688 2.04463 10.7454 2.18298 10.8263 2.35205ZM25.2903 2.56765C25.6974 2.73202 26.2238 2.96954 26.4601 3.09545C26.9317 3.34691 27.8346 3.92362 28.2627 4.24694C28.413 4.36046 28.6944 4.56166 28.888 4.69404C29.0816 4.82638 29.239 4.94496 29.2376 4.95749C29.232 5.01208 28.4945 5.61353 28.2539 5.75977C27.6109 6.15058 26.5653 6.60443 25.6251 6.90077C25.1625 7.04656 24.3315 7.2812 24.2767 7.28147C24.2642 7.28157 24.2519 7.21494 24.2494 7.13351C24.2469 7.05207 24.1997 6.78033 24.1446 6.52969C24.0024 5.88326 23.9667 4.74617 24.0673 4.06885C24.1706 3.3733 24.4573 2.26879 24.5346 2.26879C24.5431 2.26879 24.8832 2.40327 25.2903 2.56765ZM26.4587 3.83115C26.2502 3.97124 26.0078 4.38233 26.0078 4.59556C26.0078 5.05282 26.6361 5.426 27.0464 5.21246C27.4424 5.00634 27.6943 4.30869 27.4822 4.00569C27.2957 3.73937 26.7369 3.64408 26.4587 3.83115ZM27.077 4.27182C27.1297 4.35709 27.0478 4.54735 26.9585 4.54735C26.8392 4.54735 26.7381 4.3297 26.8303 4.27137C26.9165 4.21682 27.0432 4.21709 27.077 4.27182ZM18.3776 15.5769C17.5278 15.6381 16.3291 15.8094 15.6444 15.9674C13.9826 16.351 11.9711 17.119 9.44914 18.3328C8.25004 18.9099 7.0314 19.4444 6.79816 19.4956C6.67777 19.522 6.54616 19.5536 6.50571 19.5658C6.46061 19.5794 6.25239 19.4471 5.9675 19.2237C5.15237 18.5847 4.38229 18.1649 3.54616 17.9038C2.15555 17.4697 1.89002 17.3955 1.49881 17.332C0.859559 17.2283 0.589017 17.2421 0.589017 17.3782C0.589017 17.4119 0.616441 17.4558 0.650013 17.4759C0.683541 17.4959 0.731144 17.5494 0.755743 17.5946C0.832227 17.7353 1.31327 18.2035 1.60704 18.4234C3.08958 19.5327 3.348 19.6929 3.90963 19.8512L4.20099 19.9332L3.88685 20.0344C3.37697 20.1987 2.68383 20.5704 2.17783 20.9509C1.61789 21.3719 0.654295 22.3461 0.456503 22.6912C0.312099 22.943 0.277524 23.12 0.366854 23.1498C0.483151 23.1886 2.00231 22.9469 2.34282 22.8354C2.86705 22.6638 3.59558 22.3524 4.09599 22.086C4.81345 21.7041 5.94409 20.8709 6.28359 20.4739L6.44139 20.2895L7.89973 20.979C8.70179 21.3583 9.59377 21.793 9.8819 21.945C10.4042 22.2206 11.0846 22.5317 12.2507 23.0279C13.618 23.6099 14.2582 23.8329 15.4394 24.1386C16.7014 24.4653 17.1214 24.5424 18.9926 24.7912C20.0548 24.9325 20.179 24.9396 21.5663 24.9393C24.0467 24.9388 24.9904 24.7718 27.2149 23.9399C28.1828 23.578 28.5119 23.4298 29.2561 23.021C30.1352 22.5382 30.6378 22.1905 31.2009 21.6755C31.8192 21.11 32.1326 20.7376 32.5377 20.0871C32.7015 19.8239 32.8992 19.5283 32.977 19.4301C33.0548 19.332 33.1124 19.2175 33.1049 19.1757C33.084 19.0589 30.3395 17.6822 29.2818 17.258C26.992 16.3396 24.5004 15.7772 22.0446 15.6244C20.9804 15.5582 18.9944 15.5324 18.3776 15.5769ZM21.7713 16.0797C23.5194 16.1842 25.1147 16.4592 26.9475 16.9721L27.2267 17.0502L27.1183 17.369C27.0587 17.5443 27.0099 17.7266 27.0099 17.774C27.0099 17.8345 26.9861 17.8534 26.9302 17.8374C26.8491 17.8142 26.0618 17.7586 24.5501 17.6694C24.0866 17.642 23.2666 17.593 22.7279 17.5605C21.501 17.4865 20.6714 17.4665 18.8559 17.4675C17.2666 17.4684 16.3305 17.5321 15.5077 17.6955C15.2071 17.7552 14.6741 17.8577 14.3233 17.9235C13.3333 18.1089 11.2418 18.6383 10.2691 18.9496C9.7036 19.1306 7.74253 19.6325 7.61065 19.63C7.56952 19.6292 7.74089 19.5499 7.99143 19.4539C8.24198 19.3579 8.97006 19.0323 9.60935 18.7306C10.624 18.2516 11.2137 17.9907 12.5923 17.4104C13.11 17.1925 14.709 16.6796 15.3981 16.5103C16.3654 16.2727 17.4596 16.1148 18.8331 16.0147C19.1723 15.9899 20.9133 16.0285 21.7713 16.0797ZM28.7182 17.5601C29.7589 17.9487 29.9946 18.0474 30.5635 18.3328C30.8306 18.4668 31.2729 18.6709 31.5464 18.7862C31.8198 18.9016 32.0846 19.0159 32.1347 19.0402C32.1848 19.0645 32.3029 19.1104 32.3972 19.1423L32.5686 19.2001L32.1525 19.8373C31.8047 20.3699 31.6309 20.5798 31.0929 21.1167C30.6709 21.5377 30.308 21.8526 30.0392 22.031C29.3556 22.4847 28.3331 23.0492 28.195 23.0492C28.1599 23.0492 27.921 22.5456 27.921 22.4716C27.921 22.4485 27.8285 22.1434 27.7153 21.7938C27.4598 21.0042 27.2373 19.8126 27.2392 19.244C27.2413 18.5968 27.3141 17.7677 27.3978 17.4364L27.4746 17.1326L27.7092 17.2018C27.8382 17.2398 28.2923 17.401 28.7182 17.5601ZM2.32004 17.9809C2.63322 18.0824 3.09627 18.2284 3.34905 18.3053C3.92653 18.4811 4.87891 18.9586 5.5393 19.4035C5.81831 19.5915 6.04344 19.7467 6.03961 19.7483C6.03578 19.75 5.80715 19.7365 5.53155 19.7184C4.94314 19.6796 4.07667 19.4698 3.65298 19.2633C3.49664 19.1872 3.1436 18.9628 2.86842 18.7647C2.59323 18.5667 2.15382 18.2609 1.89203 18.0851C1.17738 17.6055 1.16841 17.6077 2.32004 17.9809ZM21.9835 17.9448C22.7391 17.9698 23.6615 18.0104 24.0334 18.0351C24.4053 18.0597 25.211 18.1019 25.8241 18.1288C26.4371 18.1557 26.9454 18.1845 26.9536 18.1927C26.9619 18.2009 26.9472 18.3788 26.9209 18.5879C26.8947 18.7971 26.8733 19.1476 26.8733 19.3668V19.7654L24.6298 19.7686C23.3959 19.7703 21.6073 19.7761 20.6553 19.7813C19.7032 19.7866 18.4835 19.7658 17.9448 19.7351C16.5026 19.6529 13.0943 19.5706 12.3865 19.6008C10.7989 19.6687 9.8588 19.7206 9.34715 19.769C9.04048 19.7979 8.76662 19.8139 8.73851 19.8045C8.71036 19.7952 8.95102 19.7298 9.27326 19.6592C9.59546 19.5886 10.1564 19.4423 10.5196 19.3339C12.3729 18.7814 15.5524 18.0953 16.7604 17.9871C18.029 17.8736 19.4761 17.8618 21.9835 17.9448ZM29.151 18.3412C28.8466 18.4988 28.6814 19.0975 28.8592 19.3986C28.9914 19.6224 29.2274 19.7455 29.5213 19.7438C29.7449 19.7424 29.8099 19.7214 29.9572 19.603C30.2872 19.3377 30.4245 18.8078 30.2215 18.5832C29.9793 18.3153 29.4375 18.1928 29.151 18.3412ZM29.7887 18.8286C29.7887 18.8604 29.7392 18.9329 29.6787 18.9897C29.5695 19.0924 29.5684 19.0924 29.5194 19.0009C29.4549 18.8803 29.4986 18.7749 29.6217 18.7544C29.7439 18.7342 29.7887 18.754 29.7887 18.8286ZM15.9405 20.0501C17.1797 20.0891 18.851 20.1018 20.7919 20.0869C22.4205 20.0745 24.4704 20.0643 25.3473 20.0643H26.9416L27.061 20.6567C27.1266 20.9826 27.1779 21.2512 27.1749 21.2537C27.128 21.2922 26.2028 21.4219 25.5522 21.4811C24.8497 21.545 24.4025 21.5529 22.8646 21.5285C18.9464 21.4662 18.0839 21.4177 15.8359 21.1336C15.2295 21.0569 14.5693 20.9762 14.3689 20.9543C14.1685 20.9323 13.5125 20.85 12.9112 20.7714C11.8809 20.6367 11.4468 20.5676 9.90467 20.2926C9.55391 20.23 9.24643 20.177 9.22137 20.1746C9.19632 20.1723 9.23732 20.1518 9.31248 20.1292C9.38764 20.1065 10.0613 20.0684 10.8095 20.0444C11.5577 20.0204 12.1829 19.9872 12.1989 19.9707C12.2292 19.9392 12.8063 19.9514 15.9405 20.0501ZM5.8758 20.3649C5.52595 20.6912 4.65101 21.3252 4.18914 21.587C3.70058 21.864 2.76492 22.2908 2.29677 22.4503C1.94022 22.5718 0.968613 22.7606 0.924928 22.7169C0.883338 22.6752 2.08062 21.5366 2.47948 21.2384C3.0289 20.8277 3.95441 20.3611 4.52938 20.2051C4.86734 20.1133 5.04737 20.0935 5.55433 20.0925L6.1693 20.0911L5.8758 20.3649ZM8.99361 20.4318C9.52244 20.5467 10.1992 20.6862 11.3017 20.9075C11.9507 21.0378 13.6288 21.3007 14.46 21.4023C16.9699 21.7091 18.4312 21.8483 19.5164 21.8841C19.9424 21.8982 21.0091 21.9332 21.887 21.962C24.5467 22.0491 26.5245 21.9375 27.244 21.6595C27.3036 21.6365 27.3467 21.7042 27.458 21.9957C27.6236 22.4296 27.7085 22.7302 27.6749 22.7637C27.6615 22.7771 27.4501 22.8382 27.205 22.8994C25.4402 23.3402 24.1794 23.4522 21.8852 23.3721C19.5017 23.2888 18.0484 23.1719 16.9882 22.9782C15.595 22.7237 11.8336 21.8004 10.7474 21.4463C10.0609 21.2225 8.07475 20.3915 7.96866 20.2837C7.92648 20.2409 8.4886 20.3221 8.99361 20.4318ZM10.7702 21.7821C10.9205 21.8308 11.6687 22.0442 12.4329 22.2564C16.7009 23.4415 18.7156 23.7268 22.9375 23.744C24.6379 23.751 26.1893 23.5787 27.3744 23.2512C27.8997 23.106 27.897 23.1065 27.9033 23.1631C27.9101 23.2253 27.0393 23.5658 25.8256 23.9755C24.6314 24.3785 23.3259 24.5589 21.5904 24.5607C19.9963 24.5623 17.6082 24.251 15.9074 23.8199C14.4234 23.4437 13.4738 23.0925 11.2713 22.1049C10.781 21.8851 10.2251 21.6009 10.4058 21.6624C10.4559 21.6795 10.6199 21.7333 10.7702 21.7821Z" fill="white"/>
</svg>
