<svg width="30" height="33" viewBox="0 0 30 33" fill="none" xmlns="http://www.w3.org/2000/svg">
<path fill-rule="evenodd" clip-rule="evenodd" d="M22.897 0.845625C23.6823 0.935727 24.8747 1.4141 25.8115 2.01486C27.0122 2.78492 27.5092 3.30584 28.365 4.69123C28.8689 5.50699 29.5293 7.09509 29.6254 7.72219C29.6475 7.86626 29.7096 8.1808 29.7636 8.42121C29.9032 9.04371 29.8979 10.4805 29.7543 10.9426C29.5802 11.5023 29.2277 11.8015 28.7419 11.8015C28.4832 11.8015 28.3459 11.6854 28.1562 11.3061C27.9916 10.9772 27.9213 10.6992 27.8176 9.96758C27.7677 9.61603 27.6611 9.14395 27.5805 8.91852C27.5 8.69309 27.381 8.35133 27.3161 8.15906C26.868 6.83102 25.8773 5.4388 24.9304 4.80657C23.7976 4.05026 22.5405 3.76509 21.461 4.01966C20.4321 4.26223 19.1967 5.52978 18.6905 6.86225C18.2708 7.96679 18.0591 8.87813 18.0575 9.58683C18.0563 10.1369 18.2073 11.1077 18.3877 11.7101C18.6603 12.6205 18.7216 13.0602 18.7256 14.1327C18.7291 15.0929 18.721 15.1714 18.5867 15.4732C18.3023 16.1124 17.9667 16.6043 17.5053 17.0577L17.039 17.5161L17.5748 18.0747C17.8694 18.3819 18.1677 18.7549 18.2376 18.9036C18.3074 19.0523 18.4435 19.3412 18.54 19.5455C18.7122 19.9101 18.7149 19.9297 18.6851 20.6237C18.6643 21.1081 18.6064 21.5229 18.5009 21.9424C18.4164 22.279 18.2819 22.8166 18.2021 23.1371C18.1066 23.5213 17.9303 23.9783 17.6851 24.4776C17.3579 25.1436 16.959 26.0389 16.4257 27.3042C16.3379 27.5126 16.0793 28.0565 15.8511 28.513C15.6228 28.9695 15.436 29.3524 15.436 29.364C15.436 29.3837 15.1252 29.895 14.5931 30.7504C14.0883 31.5618 13.4669 32.2581 13.2476 32.2581C13.0318 32.2581 11.8206 31.8042 11.4724 31.5928C11.296 31.4858 11.0931 31.3802 11.0214 31.3582C10.6503 31.2444 9.23634 30.5086 8.42927 30.0092C7.26308 29.2876 6.75071 28.8966 5.41029 27.7051C3.91704 26.3778 2.65753 25.0536 1.51891 23.6139C1.0906 23.0723 0.978395 22.9196 0.501473 22.2288C0.121137 21.6779 0.116178 21.6419 0.370901 21.2722C0.611869 20.9222 2.95591 18.5776 3.37641 18.2658C3.52406 18.1563 3.97424 17.7913 4.37678 17.4548C4.77933 17.1182 5.23556 16.7434 5.3906 16.622C5.54571 16.5005 5.89556 16.2244 6.16806 16.0084C7.80016 14.7144 8.61143 14.1785 9.25739 13.9677C10.6216 13.5224 11.5701 13.5513 12.5387 14.0676C12.9469 14.2853 13.6334 14.7083 13.7638 14.8224C13.8928 14.9355 13.903 14.9233 14.1955 14.3085C14.4574 13.7578 14.4952 13.2588 14.3848 11.8051C14.2577 10.1291 14.3906 8.81117 14.8495 7.19731C15.4814 4.97494 15.7164 4.47501 16.8162 3.01391C17.4654 2.15147 18.1182 1.64314 19.1374 1.20609C20.0036 0.834726 20.0433 0.827441 21.2941 0.810889C21.9353 0.802439 22.6566 0.818058 22.897 0.845625ZM20.0992 1.50746C19.3968 1.75696 18.5896 2.19121 18.2434 2.5057C17.5892 3.09987 16.541 4.59495 16.1936 5.42913C15.9237 6.07739 15.3699 8.02094 15.1583 9.0623C15.0765 9.46496 15.0618 9.78679 15.0799 10.7816C15.1426 14.2301 15.1367 14.3005 14.7255 14.982L14.492 15.3692L14.6871 15.5314C14.7945 15.6206 14.9411 15.7423 15.013 15.802C15.0849 15.8615 15.2657 16.0021 15.4147 16.1143C15.5637 16.2265 15.8661 16.4708 16.0867 16.6572L16.4878 16.9962L16.7052 16.8225C17.4749 16.2068 18.1735 14.9827 18.1735 14.2493C18.1735 13.8451 18.0381 12.8637 17.8881 12.1803C17.3182 9.58438 17.2824 8.87737 17.6484 7.45544C18.1569 5.48041 18.8581 4.57251 20.5107 3.74994C21.3326 3.34081 21.6594 3.26912 22.5182 3.30945C23.1935 3.34115 23.7319 3.47398 24.2523 3.73723C24.312 3.76747 24.3369 3.77286 24.452 3.81265C24.5631 3.85103 24.5626 3.88303 24.6055 3.89748C24.6456 3.911 24.6803 3.9197 24.7671 3.96212C24.8426 3.99898 24.7642 3.98702 24.997 4.11985C25.767 4.55888 26.2488 5.02489 26.8531 5.91513C27.2195 6.45487 27.6183 7.20786 27.7328 7.57614C27.7726 7.70435 27.8974 8.0453 28.0099 8.33379C28.1618 8.72316 28.2512 9.10292 28.3567 9.8076C28.5223 10.9137 28.6486 11.277 28.8673 11.277C29.0496 11.277 29.2804 11.0343 29.4029 10.7138C29.5482 10.3336 29.4908 9.16359 29.2833 8.27551C28.9091 6.67412 27.8516 4.54932 26.9542 3.59567C26.2803 2.87951 24.7865 1.98204 23.7243 1.65509C22.8208 1.37703 22.3786 1.31583 21.4107 1.33489C20.6379 1.3501 20.4856 1.37015 20.0992 1.50746ZM10.1908 14.2649L9.92928 14.3414L10.2192 14.6513C10.4894 14.9401 11.4871 15.779 11.7165 15.9103C11.8905 16.0099 12.6025 16.5055 12.734 16.6187C13.0305 16.8738 13.6944 17.3387 14.2737 17.697C14.3595 17.7501 14.547 17.8812 14.6903 17.9884C15.533 18.6187 17.4908 19.9608 17.5676 19.9608C17.5813 19.9608 17.7203 20.0526 17.8764 20.1648C18.0326 20.277 18.1807 20.3688 18.2056 20.3688C18.2304 20.3688 18.2349 20.1987 18.2154 19.9907C18.1878 19.6944 18.1355 19.5429 17.9739 19.2902C17.8604 19.1129 17.7676 18.946 17.7676 18.9195C17.7676 18.7584 15.932 17.0462 15.1446 16.4729C14.8721 16.2745 14.5049 15.995 14.3285 15.8517C13.3471 15.0545 12.264 14.4103 11.5889 14.2222C11.2286 14.1218 10.6162 14.1406 10.1908 14.2649ZM9.12624 14.637C9.0381 14.6819 8.96594 14.7383 8.96594 14.7623C8.96594 14.8172 9.70031 15.636 10.3279 16.2809C10.7579 16.7228 11.6281 17.461 11.997 17.6971C12.0771 17.7483 12.2121 17.8525 12.2969 17.9285C12.5067 18.1166 13.4225 18.8333 14.0371 19.2904C14.425 19.5788 15.4712 20.2209 15.8732 20.4172C16.0335 20.4955 16.2302 20.6054 16.3104 20.6613C16.3905 20.7172 16.6266 20.8549 16.835 20.9672C17.6662 21.4151 17.7994 21.4895 17.8644 21.5429C17.9508 21.6137 17.9929 21.5458 18.0898 21.1785L18.1657 20.8912L17.9812 20.7958C17.8797 20.7433 17.7312 20.6561 17.651 20.602C17.5709 20.5479 17.3924 20.4274 17.2544 20.3342C17.1163 20.241 16.8609 20.073 16.6868 19.9608C16.3496 19.7436 15.1929 18.9476 14.8531 18.699C14.4594 18.411 13.613 17.8328 13.4726 17.7559C13.3945 17.7131 13.0584 17.4771 12.7256 17.2314C12.3929 16.9856 11.9862 16.6927 11.8219 16.5805C10.9727 16.0005 9.90019 15.0536 9.65777 14.6698C9.52883 14.4657 9.47014 14.4621 9.12624 14.637ZM8.2502 15.2392C8.08279 15.367 7.83058 15.5571 7.6897 15.6617C7.43299 15.8524 6.28441 16.7479 5.97326 17C5.88215 17.0738 5.73446 17.1867 5.64504 17.2508C5.55562 17.3149 5.06621 17.7198 4.55746 18.1507C3.66284 18.9083 0.922038 21.5613 0.922038 21.6697C0.922038 21.699 0.994197 21.8079 1.08233 21.9116C1.17046 22.0153 1.38689 22.2905 1.56321 22.5231C1.91371 22.9856 2.35821 23.5436 2.49584 23.694C2.54392 23.7465 2.74066 23.9837 2.93301 24.2209C3.4466 24.8544 4.85853 26.2838 5.76004 27.0829C6.19283 27.4665 6.6258 27.8503 6.72227 27.9357C7.47507 28.6027 10.1296 30.3169 10.6657 30.4823C10.848 30.5385 11.8357 31.0528 12.0392 31.1974C12.1282 31.2606 12.4048 31.3914 12.6538 31.488C13.0846 31.6551 13.1094 31.6585 13.1642 31.556C13.1959 31.4968 13.3266 31.3274 13.4546 31.1794C13.6766 30.9231 14.2647 30.0551 14.6392 29.4315C14.8559 29.0707 15.7324 27.3124 15.9903 26.7214C16.5526 25.4327 17.0067 24.4509 17.1361 24.2442C17.2163 24.1161 17.2974 23.9589 17.3163 23.8948C17.3352 23.8307 17.4431 23.5099 17.5561 23.182C17.6691 22.8541 17.7695 22.4623 17.7791 22.3114L17.7967 22.0371L17.3304 21.7958C16.5557 21.3949 16.0557 21.1154 15.909 21.0014C15.8326 20.942 15.7408 20.8918 15.705 20.8898C15.6455 20.8866 15.3277 20.7026 14.2338 20.0378C13.8719 19.8179 13.5256 19.5694 12.8676 19.0575C12.4042 18.6969 11.2748 17.8269 11.0428 17.6519C10.5291 17.2641 9.78922 16.4813 8.84936 15.3312C8.7051 15.1546 8.57971 15.0095 8.57079 15.0085C8.56181 15.0077 8.41755 15.1114 8.2502 15.2392Z" fill="white"/>
</svg>
