<svg width="61" height="44" viewBox="0 0 61 44" fill="none" xmlns="http://www.w3.org/2000/svg">
<path fill-rule="evenodd" clip-rule="evenodd" d="M27.7799 0.793067C27.1999 0.832709 27.0505 0.901489 26.7262 1.27802C26.6206 1.40051 26.6113 1.563 26.7098 1.563C26.9416 1.563 29.0037 3.46483 30.6667 5.21236C31.5532 6.1438 32.431 6.84915 33.1004 7.16768L33.5031 7.35931L32.7501 7.32612C31.5135 7.27156 29.6508 7.60508 28.841 8.02615C28.7277 8.08512 28.5587 8.21498 28.4654 8.31478C28.309 8.48217 28.3036 8.51089 28.3953 8.68424C28.4501 8.78754 28.6938 9.01852 28.9371 9.19747C29.755 9.79924 30.8931 10.0544 32.8092 10.0655L34.0415 10.0727L33.7548 10.2372C33.5972 10.3277 33.2633 10.5054 33.0129 10.6323C31.9435 11.1737 30.7991 12.1527 30.2303 13.0124C29.4723 14.1582 29.198 15.0263 29.2119 16.2361C29.2283 17.67 29.4557 18.0979 29.9508 17.6256C30.4513 17.1482 30.9755 16.5987 31.6934 15.7993C32.5799 14.8122 33.2601 14.2713 34.8018 13.3278L35.2694 13.0416L34.6894 14.148C33.6631 16.1055 33.4471 16.5691 33.1299 17.4968C32.9587 17.9975 32.7063 18.6909 32.5691 19.0376C31.1721 22.5684 29.6003 27.7506 29.3756 29.5668C29.3407 29.8492 29.3005 30.0919 29.2864 30.106C29.2723 30.1201 29.0569 30.0734 28.8078 30.0023C28.5586 29.931 27.9765 29.8065 27.5142 29.7254C26.474 29.5429 24.6648 29.5227 23.7441 29.6832C23.4134 29.7409 22.9169 29.8201 22.6409 29.8592C21.2703 30.0536 18.7055 31.1365 17.0422 32.2229C15.5833 33.1759 13.1427 35.2928 12.616 36.0621C12.4285 36.336 12.1327 36.4096 11.463 36.3486C11.2376 36.328 10.5488 36.2781 9.9324 36.2376C9.31598 36.197 8.49818 36.1123 8.11503 36.0492C7.15952 35.8922 6.16954 35.9419 5.55446 36.178C4.86127 36.4439 4.42425 36.648 4.14966 36.8339C3.77386 37.0884 2.7911 37.2862 1.71903 37.323C0.549389 37.3633 0.315505 37.4116 0.137866 37.6495C-0.0499301 37.901 -0.045242 38.2505 0.148088 38.407C0.30114 38.5309 1.17085 38.8235 1.38617 38.8235C1.45097 38.8235 1.93464 38.9187 2.46104 39.0351C2.98737 39.1515 3.76475 39.3235 4.18854 39.4174C4.99044 39.595 5.57372 39.6706 7.16554 39.8031C8.25092 39.8934 8.819 39.9794 9.26695 40.1213C9.44031 40.1762 9.996 40.3139 10.5018 40.4272C11.0077 40.5405 11.7433 40.7325 12.1366 40.8539C12.5299 40.9752 13.2908 41.1824 13.8275 41.3141C14.7208 41.5334 16.0668 41.982 16.2366 42.1171C16.3578 42.2135 18.8054 42.9636 19.3187 43.0617C21.3201 43.4441 24.6612 43.5346 26.4285 43.2542C27.7689 43.0415 28.8739 42.843 30.246 42.5683C32.4098 42.1351 32.8353 42.1013 35.5346 42.1477C36.8637 42.1704 38.2034 42.203 38.5116 42.2199C38.8198 42.2368 40.1752 42.2705 41.5236 42.2946C44.4165 42.3464 44.6643 42.3229 46.7071 41.8022C48.5299 41.3376 48.9861 41.2685 50.2591 41.2646C51.719 41.2601 54.9728 41.6399 56.994 42.0507C58.5542 42.3678 58.9959 42.349 59.5288 41.9425C59.743 41.7791 59.7708 41.7209 59.7708 41.4354C59.7708 41.0435 59.5559 40.7275 59.1205 40.4792C58.8311 40.3141 57.6609 39.9273 56.7588 39.6985C56.5084 39.635 56.276 39.5564 56.2423 39.5238C56.1514 39.4357 56.6266 39.3296 57.4943 39.2445C58.5208 39.1437 59.656 38.9771 59.8696 38.8959C60.4003 38.6941 60.1657 37.9838 59.4619 37.6617C58.9283 37.4174 56.974 37.2535 53.1864 37.1352L50.6997 37.0576L50.4079 36.7889C49.7137 36.1495 48.7408 35.8404 46.3326 35.494C42.8041 34.9864 41.2031 34.6394 38.0752 33.7043C36.0628 33.1027 35.6715 32.959 34.0657 32.2312L32.7833 31.65L32.8305 30.5967C32.926 28.4692 33.0796 27.1677 33.476 25.1309C33.9416 22.7384 34.3931 20.8809 34.8634 19.4228C35.0239 18.9252 35.0332 18.9122 35.0395 19.1777C35.051 19.664 35.1066 19.7651 35.413 19.8568L35.6955 19.9415L36.0528 19.5536C36.7459 18.8011 37.0521 18.1211 37.5659 16.1927C37.7184 15.6203 37.8768 14.9388 37.9178 14.6784C37.9952 14.1874 38.1217 13.8197 38.2134 13.8197C38.2426 13.8197 38.4059 14.1019 38.5763 14.4469C38.7467 14.7918 39.0731 15.3827 39.3017 15.7601C39.5303 16.1374 39.8293 16.651 39.9662 16.9014C40.5153 17.9056 41.688 19.4527 42.0922 19.7061C42.4536 19.9326 42.6288 19.8897 42.8025 19.5322C43.0877 18.9451 43.1915 18.1796 43.1487 16.9765C43.1072 15.8095 42.9801 15.168 42.6454 14.4371C42.2864 13.653 41.3677 12.081 40.8516 11.368C40.5591 10.9637 40.2995 10.5974 40.2749 10.5539C40.2342 10.4823 41.1731 10.8565 42.7407 11.5368C43.0633 11.6768 44.2296 12.2391 45.3324 12.7864L47.3375 13.7814L47.8502 13.783L48.3629 13.7847L48.6382 13.4898C48.8743 13.2368 48.9135 13.1498 48.9135 12.8789C48.9135 11.9623 47.836 10.863 45.9591 9.86459C44.552 9.11616 43.0723 8.53637 41.8388 8.25034L41.4535 8.16097L41.9111 8.15377C42.1628 8.14984 42.541 8.09892 42.7517 8.04065C42.9623 7.98238 43.4656 7.85428 43.8702 7.75608C44.9604 7.49127 45.463 7.28086 45.9541 6.88354C46.5839 6.37401 46.7831 5.90538 46.3699 5.90538C46.2783 5.90538 46.1474 5.84347 46.079 5.76783C46.0104 5.69219 45.8086 5.57656 45.6303 5.51093C45.452 5.44531 44.9909 5.25956 44.6057 5.09826C43.6632 4.70352 43.2625 4.61598 42.6572 4.67222C42.0665 4.72713 41.2515 5.09042 40.2298 5.75445C39.8649 5.99153 39.5474 6.18554 39.5242 6.18554C39.501 6.18554 39.5417 5.957 39.6148 5.67776C39.7735 5.07088 39.7432 4.34563 39.5429 3.95538C39.3702 3.61898 38.6616 3.0937 37.7406 2.6194C36.9258 2.1998 36.544 2.13661 36.1969 2.3641L36.0075 2.48814L36.0476 3.2337C36.088 3.98704 36.2276 5.23638 36.3753 6.16726C36.4196 6.44615 36.4455 6.7268 36.4329 6.79096C36.4016 6.95135 35.7372 6.11697 34.947 4.92485C34.1856 3.77622 33.7232 3.20078 32.8549 2.32117C31.9536 1.40815 31.3859 1.11875 30.1372 0.935531C29.0469 0.775563 28.5102 0.74313 27.7799 0.793067ZM29.4144 1.2811C30.5121 1.44513 30.957 1.6009 31.6481 2.06301C32.2969 2.4969 33.4752 3.74287 34.4685 5.04538C35.4848 6.37786 36.0162 7.02776 36.2521 7.22617C36.3624 7.31898 36.5491 7.58765 36.6669 7.82326C36.7848 8.05893 36.9298 8.30679 36.9892 8.37424C37.1514 8.55816 37.0568 8.52223 36.7621 8.28803C36.4027 8.00248 35.881 7.76525 35.1413 7.55101C34.4355 7.34663 33.4172 6.79557 32.5576 6.15283C32.2494 5.9224 31.4771 5.21277 30.8414 4.57591C29.7521 3.48457 28.6223 2.52043 27.5206 1.74202L27.0368 1.40009L27.1957 1.27144C27.4109 1.09718 28.207 1.10068 29.4144 1.2811ZM37.4504 3.13159C37.8414 3.33946 38.3458 3.5619 38.5712 3.62584C39.0724 3.76816 39.2859 3.98249 39.3496 4.40741C39.4513 5.08468 39.205 5.90665 38.4685 7.34888C38.1559 7.96095 37.8407 8.52685 37.7681 8.60635C37.6147 8.77423 37.5935 8.98708 37.7302 8.98708C37.782 8.98708 37.8844 8.92075 37.9578 8.83972C38.2268 8.54255 38.6688 8.3423 39.0554 8.34258C39.4102 8.34279 40.6607 8.54688 41.5239 8.74537C42.6497 9.00423 44.273 9.64361 46.0066 10.5108C47.4371 11.2265 48.2457 11.8431 48.4973 12.4103C48.6785 12.8185 48.6689 12.9964 48.452 13.254C48.1187 13.6501 47.4442 13.5279 46.4489 12.8914C45.8484 12.5072 43.6868 11.4023 42.851 11.0522C42.4292 10.8755 41.6269 10.5711 41.0683 10.3759C40.5097 10.1805 39.7939 9.89947 39.4778 9.7512C38.6891 9.38126 38.5466 9.3498 38.5466 9.5457C38.5466 9.66946 38.6527 9.74748 39.0931 9.94751C39.5501 10.1551 39.6664 10.2429 39.8032 10.4844C39.8931 10.6431 40.2059 11.103 40.4982 11.5064C41.4061 12.7591 42.3917 14.6629 42.6114 15.5884C42.8681 16.6699 42.8179 18.3678 42.5073 19.111L42.3983 19.3718L42.1653 19.0646C41.6684 18.4098 40.7174 16.9716 40.2971 16.2393C40.0549 15.8174 39.7539 15.3288 39.6282 15.1537C39.5024 14.9786 39.266 14.5989 39.1026 14.31C38.9393 14.0211 38.6686 13.5841 38.5011 13.3388C38.2058 12.9068 38.1962 12.8753 38.1887 12.3233C38.1846 12.0099 38.1609 11.5645 38.1362 11.3334C38.0969 10.9654 38.0715 10.9103 37.9316 10.8905L37.772 10.8678L37.8185 12.1862C37.8603 13.3734 37.8496 13.5847 37.7108 14.31C37.4634 15.6022 36.8803 17.5687 36.5479 18.2322C36.3753 18.5767 35.7926 19.3554 35.6462 19.4374C35.5762 19.4765 35.5442 19.3789 35.5114 19.0273C35.4533 18.4058 35.5295 16.8935 35.6446 16.3815C35.696 16.1533 35.7255 15.9464 35.7103 15.9217C35.68 15.8728 36.1434 13.5661 36.3646 12.6641C36.4505 12.3137 36.6232 11.8939 36.8256 11.5435C37.1627 10.96 37.3558 10.4323 37.3558 10.0949C37.3558 9.76934 37.1807 9.86788 37.0533 10.2653C36.9883 10.4675 36.8 10.8771 36.6347 11.1756C36.3066 11.7679 35.8194 12.2355 34.9584 12.7841C32.7327 14.2026 32.3574 14.4734 31.7983 15.0637C31.4839 15.3956 30.9072 16.0032 30.5168 16.4139C30.1263 16.8246 29.7827 17.2363 29.7534 17.3287C29.7025 17.4888 29.6974 17.4901 29.6452 17.3567C29.5245 17.0479 29.5832 16.2994 29.7898 15.5138C30.1731 14.0565 30.8173 12.9286 31.7945 12.0036C32.5305 11.3071 32.7207 11.1756 34.0313 10.4577C34.6077 10.1421 35.1265 9.84526 35.1843 9.79833C35.2421 9.75134 35.6046 9.60783 35.9899 9.47945C36.8117 9.20553 36.9355 9.14865 36.9355 9.04486C36.9355 8.91325 36.2564 9.02588 35.4229 9.29574C34.6529 9.54501 34.6343 9.54738 33.4304 9.54738C31.9361 9.54738 30.3739 9.43554 29.8626 9.29189C29.4295 9.17023 28.6306 8.64823 28.7282 8.55067C28.8726 8.40625 30.1064 8.05704 31.0516 7.89308C31.954 7.73647 32.2039 7.72057 33.2931 7.75055C34.7851 7.79159 35.3332 7.91423 36.3624 8.43742C36.8572 8.689 37.1007 8.77955 37.1347 8.72457C37.1672 8.67211 37.2202 8.66693 37.2876 8.70951C37.61 8.9134 37.6506 8.68053 37.3652 8.26429C36.9366 7.6392 36.8173 7.30671 36.7699 6.60577C36.7181 5.84186 36.6192 4.9703 36.4754 4.01127C36.4202 3.64364 36.3751 3.21031 36.3751 3.04824C36.3751 2.77761 36.39 2.75366 36.5573 2.75366C36.6576 2.75366 37.0595 2.92371 37.4504 3.13159ZM43.9752 5.34354C44.4564 5.4065 45.8227 5.9381 46.0277 6.14205C46.1025 6.21643 46.0682 6.27855 45.8372 6.48726C45.4104 6.87269 44.7906 7.15227 44.0278 7.30335C43.6521 7.3778 43.203 7.48923 43.0296 7.55101C42.6354 7.69157 39.7759 7.94484 39.2249 7.88796C38.8987 7.85428 38.7989 7.86997 38.6852 7.97285C38.6085 8.04226 38.5336 8.08611 38.5187 8.07035C38.5038 8.05452 38.6538 7.74509 38.8519 7.38278L39.212 6.72406L39.8425 6.46485C40.1892 6.32233 40.7188 6.07145 41.0193 5.90742C42.1323 5.29998 42.7468 5.1828 43.9752 5.34354ZM35.9287 12.8217C35.9092 12.8891 35.8573 13.0826 35.8136 13.2516C35.7415 13.5303 35.7239 13.5488 35.6246 13.4494C35.5253 13.3502 35.5339 13.3101 35.7175 13.0197C35.9352 12.6751 35.9848 12.6287 35.9287 12.8217ZM35.6423 13.9588C35.6251 14.0172 35.5734 14.2224 35.5274 14.4151C35.4815 14.6077 35.4345 14.7766 35.4232 14.7904C35.4118 14.8043 35.3066 14.7473 35.1894 14.6638L34.9762 14.5121L35.1864 14.0959C35.3788 13.7147 35.4082 13.687 35.5351 13.7662C35.6113 13.8138 35.6595 13.9005 35.6423 13.9588ZM35.2005 15.0928C35.3122 15.1781 35.3139 15.2187 35.2206 15.6057C35.1649 15.8368 35.1181 16.1117 35.1168 16.2164L35.1143 16.4068L34.7321 16.1211L34.3499 15.8352L34.5936 15.3512C34.851 14.8403 34.8632 14.835 35.2005 15.0928ZM35.0442 17.1141C35.0442 17.4843 35.0148 17.52 34.8396 17.3619C34.7788 17.307 34.5505 17.1547 34.3323 17.0234L33.9355 16.7847L34.0679 16.4891L34.2002 16.1935L34.6222 16.48C35.0431 16.7658 35.0442 16.7676 35.0442 17.1141ZM34.4205 17.4699C34.6672 17.6284 34.8814 17.7693 34.8963 17.7831C34.9355 17.8189 34.7545 18.4399 34.6939 18.4774C34.6659 18.4947 34.484 18.4322 34.2897 18.3384C34.0954 18.2447 33.8547 18.1475 33.7549 18.1225C33.655 18.0974 33.5733 18.0437 33.5733 18.0031C33.5733 17.8152 33.8179 17.1816 33.8904 17.1816C33.9352 17.1816 34.1737 17.3113 34.4205 17.4699ZM34.1862 18.6637C34.3884 18.74 34.5539 18.8203 34.5539 18.8419C34.5539 18.8636 34.5186 18.9992 34.4754 19.1433L34.3969 19.4053L33.8799 19.1805C33.5956 19.0569 33.3441 18.9369 33.321 18.9138C33.298 18.8907 33.3157 18.761 33.3604 18.6254C33.4367 18.3943 33.4535 18.3835 33.6301 18.4519C33.7337 18.492 33.9839 18.5872 34.1862 18.6637ZM34.1927 19.695C34.2703 19.7439 34.2649 19.8238 34.1616 20.1512C34.0929 20.3694 34.0032 20.5347 33.9625 20.5185C33.3677 20.2811 32.902 20.0901 32.8789 20.0739C32.8629 20.0627 32.9075 19.8841 32.9779 19.6768L33.106 19.3001L33.6023 19.4679C33.8753 19.5602 34.1409 19.6624 34.1927 19.695ZM33.398 20.7252C33.7969 20.8669 33.9206 20.9403 33.8907 21.018C33.8689 21.0751 33.8173 21.2554 33.7762 21.4186L33.7015 21.7154L33.1114 21.5257C32.7868 21.4214 32.5034 21.318 32.4814 21.2961C32.405 21.2197 32.6858 20.4673 32.7776 20.5025C32.8259 20.521 33.1051 20.6213 33.398 20.7252ZM33.0153 21.8589L33.6131 22.0521L33.4867 22.6065C33.4171 22.9115 33.3462 23.175 33.3291 23.1922C33.312 23.2094 32.9846 23.1047 32.6016 22.9598L31.9054 22.6961L32.091 22.1801C32.1931 21.8962 32.3083 21.6644 32.347 21.6649C32.3857 21.6654 32.6865 21.7526 33.0153 21.8589ZM32.3212 23.2309C32.5283 23.3222 32.7997 23.4191 32.9246 23.4464C33.0493 23.4736 33.1692 23.5245 33.1909 23.5597C33.2257 23.616 33.0913 24.4656 33.0476 24.4656C33.0382 24.4656 32.7508 24.3437 32.4088 24.1947C32.0668 24.0458 31.7286 23.9037 31.6572 23.879C31.5836 23.8535 31.5435 23.7919 31.5647 23.7369C31.5852 23.6834 31.6407 23.5103 31.6881 23.3522C31.7354 23.1942 31.8125 23.0648 31.8595 23.0648C31.9063 23.0648 32.1142 23.1395 32.3212 23.2309ZM32.1373 24.4656C32.4994 24.6197 32.8287 24.7457 32.8692 24.7457C32.9097 24.7457 32.9424 24.8324 32.9418 24.9383C32.9397 25.3151 32.8948 25.3236 32.0214 25.1143L31.2142 24.9208L31.317 24.5531C31.3735 24.3509 31.433 24.1854 31.4494 24.1854C31.4657 24.1854 31.7752 24.3115 32.1373 24.4656ZM32.7714 25.8413C32.7487 25.9322 32.7114 26.1422 32.6887 26.3079L32.6474 26.6094L31.8345 26.378C31.3875 26.2507 30.9841 26.1465 30.9382 26.1465C30.8761 26.1465 30.8816 26.0434 30.9599 25.7438C31.0177 25.5223 31.0773 25.321 31.0925 25.2966C31.1076 25.2721 31.5009 25.3475 31.9665 25.4641C32.7806 25.6681 32.8114 25.6825 32.7714 25.8413ZM31.1982 26.5559C31.4065 26.627 31.8079 26.7413 32.0901 26.8099C32.5525 26.9222 32.5997 26.9494 32.5663 27.0834C32.546 27.1651 32.5077 27.4448 32.4813 27.7049C32.4548 27.9649 32.4152 28.1776 32.3931 28.1776C32.3451 28.1776 30.5395 27.5948 30.4956 27.5651C30.4662 27.5452 30.6913 26.5877 30.7509 26.4792C30.7881 26.4113 30.7607 26.4065 31.1982 26.5559ZM31.4594 28.2446L32.3926 28.5567L32.3441 29.1551C32.3174 29.4842 32.2885 29.7617 32.2799 29.7718C32.2713 29.7818 31.8112 29.6163 31.2573 29.4041C30.7035 29.1918 30.2125 29.0181 30.1663 29.0181C30.0805 29.0181 30.0833 29.0001 30.293 28.1919C30.336 28.0264 30.406 27.9003 30.4487 27.9117C30.4913 27.9232 30.9461 28.0729 31.4594 28.2446ZM30.7052 29.6052C31.0305 29.7355 31.5174 29.9125 31.7871 29.9983L32.2774 30.1546L32.2546 30.7475C32.2384 31.1681 32.2079 31.3299 32.1495 31.3046C32.1042 31.285 31.5869 31.054 30.9999 30.7914L29.9326 30.3138L29.9317 30.0599C29.9306 29.7416 30.0031 29.3683 30.0661 29.3683C30.0923 29.3683 30.3799 29.4749 30.7052 29.6052ZM27.5593 30.3146C28.1894 30.4114 28.8784 30.5404 29.0903 30.6012C29.5843 30.743 31.4402 31.4901 32.0322 31.7855C32.6852 32.1112 34.8343 33.0584 35.5362 33.3296C36.39 33.6596 39.2361 34.494 40.9982 34.9311C42.6282 35.3353 43.6843 35.5328 46.2868 35.92C48.8746 36.3049 49.5632 36.5844 50.3169 37.5556C50.5442 37.8485 50.7863 38.1333 50.855 38.1886C51.2092 38.4735 51.6257 38.8898 51.5912 38.9243C51.4668 39.0486 48.4 38.9326 45.2011 38.6827C44.0151 38.59 40.6639 38.5858 37.1455 38.6727C33.4346 38.7642 32.5022 38.7253 27.8995 38.2862C26.2553 38.1294 25.5349 38.1026 21.5952 38.0523C15.1962 37.9705 13.8652 37.9123 12.5812 37.6586L12.0079 37.5454L12.6597 36.8012C14.4761 34.727 17.2024 32.6633 19.6528 31.5077C20.613 31.0548 22.2246 30.5259 22.9723 30.4182C23.2743 30.3747 23.7422 30.2976 24.0118 30.2468C24.8502 30.0888 26.2653 30.1159 27.5593 30.3146ZM8.05198 36.5433C8.54687 36.599 9.66552 36.6541 10.538 36.6658C11.5692 36.6798 12.1104 36.7118 12.0846 36.7573C12.0628 36.7958 11.9543 36.9613 11.8434 37.125C11.6576 37.3994 11.6178 37.4227 11.3341 37.4227C10.7793 37.4227 10.8422 37.6879 11.4192 37.7821C11.6032 37.8122 12.0373 37.9137 12.384 38.0077C13.6287 38.3452 13.9193 38.3595 19.809 38.3744C22.8526 38.3822 25.6107 38.4083 25.9381 38.4325C26.2656 38.4567 27.2112 38.5377 28.0395 38.6124C28.8679 38.6872 30.1287 38.8008 30.8414 38.8648C31.8526 38.9557 33.4758 38.9934 38.2314 39.0362C41.5831 39.0664 44.7037 39.1253 45.166 39.1671C47.8172 39.4068 51.1648 39.5364 51.6651 39.4188C51.7506 39.3987 52.1627 39.3388 52.5809 39.2856C53.3313 39.1902 53.612 39.0721 53.504 38.8973C53.477 38.8536 53.3926 38.8375 53.3166 38.8616C53.1169 38.9249 52.4865 38.8249 52.4829 38.7293C52.4812 38.6848 52.1666 38.3962 51.7838 38.088L51.0877 37.5277L51.4891 37.506C51.7099 37.494 52.1991 37.5176 52.5762 37.5585C52.9534 37.5993 53.6468 37.6338 54.1173 37.635C54.5877 37.6362 55.2045 37.6673 55.488 37.704C55.7715 37.7408 56.6068 37.8028 57.3443 37.8417C58.8113 37.9191 59.1143 37.9753 59.5082 38.2435C59.8199 38.4557 59.8335 38.5229 59.5842 38.6178C59.3294 38.7146 57.767 38.9428 56.9462 39.003C56.1362 39.0625 55.8482 39.1983 55.8482 39.521C55.8482 39.7687 55.9768 39.8478 56.7588 40.0809C57.8639 40.4104 58.9767 40.969 59.1416 41.2771C59.2039 41.3934 59.1804 41.4352 58.9874 41.5526C58.6507 41.7573 58.2538 41.7908 57.5929 41.6703C57.0701 41.575 55.5512 41.3849 52.4572 41.0275C50.0222 40.7462 48.9836 40.809 46.6781 41.3768C44.6615 41.8734 44.0739 41.9322 42.0482 41.8397C41.1808 41.8002 39.5575 41.7363 38.4407 41.6978C37.3239 41.6592 35.7447 41.5912 34.9314 41.5465C33.1593 41.4492 32.2813 41.5131 30.3511 41.88C26.1309 42.6821 25.3057 42.8115 24.081 42.8634C23.0837 42.9057 21.6451 42.8215 20.2287 42.6379C19.3534 42.5244 17.3122 41.9683 16.2911 41.565C15.5377 41.2676 14.901 41.0719 14.1002 40.8918C13.1422 40.6763 10.4348 40.014 9.64527 39.8021C8.79413 39.5736 8.35353 39.5084 6.57209 39.3473C5.47607 39.2482 4.80825 39.1298 2.61249 38.6454C2.16944 38.5477 1.64934 38.4349 1.45671 38.3948C0.938569 38.2868 0.441029 38.1198 0.441029 38.0539C0.441029 37.9734 1.1803 37.9344 1.56178 37.9948C2.09582 38.0793 2.97554 38.0562 3.44611 37.9453C3.72609 37.8793 4.06813 37.7259 4.35672 37.5369C5.41765 36.8421 5.60581 36.7343 5.93972 36.6296C6.60965 36.4197 6.86077 36.4094 8.05198 36.5433ZM7.55038 37.7035C7.46899 37.8352 7.59479 38.0541 7.81845 38.1698C8.28685 38.4122 9.71441 38.7526 10.5628 38.8242C11.0251 38.8633 11.5216 38.9109 11.6661 38.9302C11.8651 38.9567 11.9287 38.9406 11.9287 38.8635C11.9287 38.7099 11.8798 38.6956 10.8332 38.5444C9.67917 38.3775 8.10095 37.9606 7.89655 37.7686C7.73664 37.6184 7.61693 37.5959 7.55038 37.7035ZM16.9021 39.8704C16.9021 39.9847 16.984 40.0568 17.2348 40.1636C17.4178 40.2415 17.751 40.4004 17.9754 40.5167C18.2803 40.6748 18.6427 40.7726 19.4114 40.9046C21.151 41.2031 23.101 41.1316 25.4192 40.6842C26.7138 40.4343 27.2829 40.3757 28.8532 40.3304C31.4529 40.2555 31.9622 40.2197 31.9622 40.1121C31.9622 40.0045 31.1557 39.9799 28.5649 40.0084C27.0562 40.025 26.4299 40.0837 25.1326 40.3301C23.0103 40.7333 21.2462 40.8108 19.646 40.571C18.8549 40.4524 18.5664 40.3739 17.9878 40.1197C17.6025 39.9505 17.2007 39.791 17.0947 39.7654C16.9295 39.7254 16.9021 39.7404 16.9021 39.8704ZM47.1273 40.1199C45.8438 40.2464 44.8844 40.4071 44.1513 40.6183C43.684 40.7529 43.3208 40.7989 42.4527 40.8331C41.6239 40.8657 41.3485 40.8989 41.3485 40.9663C41.3485 41.1053 41.8904 41.1561 42.9477 41.1162C43.6967 41.0879 44.0275 41.0421 44.4673 40.9056C45.065 40.7203 46.035 40.5725 47.7838 40.4004C49.0604 40.2749 50.464 40.3113 51.8555 40.5061C52.3756 40.579 53.0612 40.648 53.379 40.6595C53.8832 40.6779 53.9569 40.6654 53.9569 40.5622C53.9569 40.4123 53.8578 40.3864 53.0699 40.3303C52.7169 40.3053 52.181 40.2384 51.8791 40.1817C51.0889 40.0334 48.3643 39.998 47.1273 40.1199Z" fill="white"/>
</svg>
