<svg width="43" height="33" viewBox="0 0 43 33" fill="none" xmlns="http://www.w3.org/2000/svg">
<path fill-rule="evenodd" clip-rule="evenodd" d="M14.592 0.814934C14.055 0.976772 13.7358 1.1364 13.3195 1.45123C12.9551 1.72686 12.4533 2.27996 12.3372 2.53396C12.2869 2.64398 12.23 2.65815 11.852 2.65486C11.4 2.65086 10.762 2.81144 10.2967 3.04624C9.81684 3.28834 9.03941 3.82716 8.69226 4.15819C8.28295 4.54856 8.13608 4.77171 8.07946 5.08971C8.0436 5.29076 8.02196 5.31508 7.90778 5.28239C7.5488 5.17972 7.2007 5.17536 6.95184 5.27032C6.52949 5.43156 5.06782 6.94805 4.34575 7.97406C4.10758 8.31256 4.09019 8.36311 4.10962 8.66133L4.13054 8.98327L3.79004 8.9914C3.60275 8.99588 3.26649 9.05523 3.04279 9.12324C2.71603 9.22263 2.58153 9.30331 2.35891 9.53345C1.95922 9.9466 1.77259 10.2813 1.6709 10.7671C1.52026 11.4865 1.66259 12.2739 2.01075 12.6475L2.1275 12.7728L1.87368 12.8915C1.56133 13.0375 1.43131 13.1498 1.15291 13.5144C0.917682 13.8225 0.772059 14.237 0.8588 14.3515C0.888032 14.3901 0.917741 14.5281 0.924855 14.6582C0.955402 15.2182 1.26853 15.5898 1.92646 15.8471C2.47136 16.0601 2.82794 16.1323 3.32925 16.1312C3.79338 16.1302 4.62868 15.9559 4.93942 15.7953C5.0325 15.7472 5.12151 15.7348 5.15283 15.7657C5.18242 15.7949 5.52938 15.9567 5.92393 16.1253C7.78152 16.9192 8.58634 17.4731 10.3955 19.2027C11.0487 19.8273 11.7652 20.4996 11.9878 20.6968C12.2104 20.894 12.6139 21.2571 12.8846 21.5036C13.643 22.1945 14.4205 22.7484 15.7556 23.549C17.4715 24.5779 18.6034 25.1245 21.2275 26.1912C21.6878 26.3783 22.4007 26.6813 22.8117 26.8646C23.2227 27.0478 24.0162 27.3447 24.5752 27.5244C25.1341 27.7041 25.8746 27.9529 26.2206 28.0772C26.5666 28.2015 27.1449 28.3856 27.5058 28.4863C29.0962 28.93 31.6087 29.7848 32.765 30.2757C33.9407 30.7748 34.5611 30.9553 35.2892 31.0099C36.2986 31.0857 37.1232 30.8246 37.7855 30.2195C38.1285 29.9061 38.1297 29.9036 38.3473 29.0038C38.4108 28.7409 38.5147 28.4047 38.5782 28.2568C38.9542 27.3793 39.4975 25.3749 39.6388 24.3437C39.8866 22.5352 39.8052 21.1968 39.3026 18.8143C39.0089 17.422 38.0675 14.5847 37.5894 13.6512C37.1097 12.7145 36.0178 11.2813 35.1481 10.447C34.5859 9.90768 33.2421 8.86297 32.496 8.38516C30.8719 7.34517 28.1877 6.03469 26.787 5.59788C24.8612 4.99745 23.352 4.74955 21.5862 4.7437C20.0389 4.73856 19.3925 4.87261 17.2223 5.64875C14.7685 6.52625 13.9208 6.88608 12.1709 7.79292C10.2174 8.80524 8.37173 10.0232 7.42494 10.9247C6.64655 11.6659 5.44904 13.1224 4.89267 14.0048C4.78854 14.1699 4.62157 14.3833 4.52156 14.4791C4.32752 14.6649 4.28842 14.8339 4.42137 14.9118C4.4662 14.9381 4.54619 15.0442 4.59909 15.1477C4.71279 15.3702 4.76982 15.3451 3.79285 15.5023C3.19278 15.5988 3.13306 15.5988 2.75077 15.5028C1.72357 15.2449 1.29101 14.8423 1.29101 14.144C1.29101 13.963 1.33781 13.8623 1.51111 13.6705C1.78371 13.3689 1.99324 13.2609 2.76972 13.0218C3.36542 12.8383 3.39699 12.8349 3.96531 12.8933C4.28633 12.9263 4.63777 12.9842 4.74633 13.0221C5.10136 13.1458 5.08301 12.8926 4.72613 12.7435C4.38317 12.6003 3.32292 12.5032 2.95085 12.5809C2.66187 12.6413 2.62457 12.6362 2.49575 12.5182C2.22291 12.2684 2.10754 11.949 2.08022 11.3678C2.05063 10.7384 2.14083 10.4617 2.52767 9.99524C3.0077 9.41626 3.6541 9.2727 4.95233 9.45659C5.51187 9.53584 5.56615 9.55748 6.31638 9.99924C6.74608 10.2523 7.11175 10.4453 7.12897 10.428C7.22712 10.3299 7.01503 10.1054 6.50062 9.76312C5.78578 9.28735 5.63215 9.22184 5.02192 9.13268C4.75596 9.09377 4.51044 9.04429 4.47625 9.0226C4.44211 9.00096 4.39554 8.87157 4.37271 8.73513C4.32608 8.45598 4.30133 8.49053 5.64763 6.95133C6.69616 5.75249 6.86624 5.60769 7.22653 5.60709C7.35111 5.60685 7.55287 5.6574 7.67488 5.71949C7.79683 5.78153 8.08646 5.88869 8.31841 5.9576C8.89911 6.13013 9.16937 6.32771 9.91847 7.12734C10.2743 7.50713 10.5904 7.8179 10.6209 7.8179C10.8623 7.8179 10.2478 6.74437 9.63398 6.0935C9.29796 5.73725 9.05991 5.5977 8.6063 5.49102L8.29969 5.41895L8.3456 5.21558C8.43037 4.83985 8.83514 4.45438 9.72006 3.90677C10.4249 3.47068 10.6616 3.35654 11.2819 3.15388C11.7963 2.98583 11.8419 2.98074 12.2504 3.04624C12.4861 3.08401 12.7866 3.16481 12.9182 3.22577C13.2205 3.36592 14.2539 4.26511 14.4805 4.5852C14.6753 4.86041 14.7417 4.8885 14.7409 4.69529C14.7399 4.45366 14.4066 3.97197 13.9168 3.50409C13.4232 3.03268 13.2042 2.88715 12.813 2.77049L12.5883 2.7035L12.8676 2.38813C13.2055 2.00667 13.8053 1.56891 14.19 1.42314C15.3221 0.994106 16.4293 1.19025 16.9222 1.90723C17.0927 2.15524 17.5454 3.41181 17.6467 3.91836C17.6991 4.18048 17.8336 4.16411 17.8921 3.88849C18.0027 3.36694 17.8693 2.35329 17.6275 1.87848C17.5155 1.65849 17.515 1.65885 18.3836 1.43014C19.3029 1.18815 19.8568 1.10843 20.4432 1.13383C20.8781 1.15259 20.9584 1.17542 21.2144 1.35298C21.3717 1.46193 21.5713 1.66351 21.6581 1.80096C21.9165 2.21028 22.2524 3.08163 22.4287 3.80028C22.5248 4.19214 22.6207 4.46496 22.658 4.45235C22.6991 4.43843 22.7214 4.16441 22.7203 3.68893C22.7187 3.0105 22.7023 2.9015 22.5287 2.41156C22.4243 2.11699 22.352 1.86294 22.3679 1.84698C22.3838 1.83108 22.7929 1.79313 23.2768 1.76259C25.0393 1.65161 26.058 1.94086 26.6458 2.7191C26.7653 2.87741 26.9974 3.26247 27.1614 3.57473C27.4462 4.11678 27.5508 4.39031 27.7152 5.02398C27.758 5.18863 27.8233 5.30785 27.8708 5.30785C28.0719 5.30785 27.8788 4.13746 27.5333 3.26097L27.4214 2.9771H27.7989C28.6947 2.9771 29.9945 3.47558 30.8819 4.15938C31.6747 4.77022 31.8652 5.27552 31.8291 6.67146C31.8167 7.15213 31.8314 7.47391 31.8659 7.47964C31.9796 7.49859 32.1902 7.08777 32.238 6.75412C32.2648 6.56676 32.2849 6.12266 32.2826 5.76725L32.2785 5.12103L32.4321 5.1588C32.6811 5.22006 33.4321 5.71365 33.814 6.06709C34.2493 6.47007 34.6577 7.07331 34.8631 7.61703C35.0464 8.10207 35.0656 8.72785 34.9131 9.25221C34.7644 9.76378 34.7495 9.84984 34.81 9.84984C34.8981 9.84984 35.1008 9.60494 35.2366 9.33415C35.3692 9.07006 35.4838 8.4864 35.4845 8.07189C35.4849 7.83953 35.4979 7.8179 35.6376 7.8179C36.0025 7.8179 36.6295 8.01475 36.9744 8.23767C37.387 8.50421 38.24 9.29876 38.4092 9.57397C38.5857 9.86107 38.6286 10.1901 38.507 10.3245C38.4516 10.3857 38.4148 10.4748 38.4252 10.5225C38.4356 10.5702 38.2764 10.9561 38.0714 11.38C37.6776 12.1942 37.5476 12.6587 37.7133 12.6587C37.8082 12.6587 38.2263 12.0413 38.6241 11.314C38.7499 11.0839 38.8614 10.8848 38.8719 10.8715C38.9131 10.8192 40.5161 12.0828 40.7072 12.3182C40.9707 12.6429 41.1986 13.1023 41.2505 13.4132C41.2841 13.6151 41.2592 13.7313 41.112 14.0557C40.8952 14.5338 40.3878 15.3233 39.8726 15.9844C39.4743 16.4956 39.3246 16.7562 39.3909 16.8225C39.4731 16.9047 39.7769 16.6797 40.3177 16.1359L40.8763 15.5744L41.0853 15.775C41.2002 15.8853 41.4528 16.185 41.6466 16.441C42.1077 17.0501 42.2657 17.5374 42.2288 18.2363C42.1859 19.0506 41.9298 19.4565 40.9997 20.1849C40.8098 20.3336 40.6858 20.4773 40.6858 20.5488C40.6858 20.6137 40.7016 20.6669 40.721 20.6669C40.7863 20.6669 41.5509 20.2253 41.8298 20.0265L42.1069 19.8288L42.2077 20.0804C42.263 20.2188 42.3379 20.5529 42.374 20.8228C42.432 21.2555 42.4268 21.3475 42.3306 21.5994C42.1473 22.0792 41.8344 22.3553 41.0076 22.7668C40.2503 23.1437 40.1083 23.244 40.1761 23.3536C40.2639 23.4957 40.9817 23.362 41.4722 23.1124L41.6905 23.0012L41.9311 23.4634C42.282 24.1377 42.4792 24.7696 42.4791 25.2194C42.479 26.0589 41.8658 26.7878 41.0498 26.9182C40.9152 26.9398 40.5497 26.9236 40.2376 26.8823C39.7771 26.8214 39.6529 26.8217 39.5777 26.8841C39.5267 26.9263 39.493 27.0001 39.5026 27.0479C39.5273 27.1707 40.3773 27.4163 40.9548 27.4674L41.4331 27.5098L41.6025 28.1672C41.7446 28.7181 41.7725 28.9504 41.7755 29.6015C41.7785 30.2689 41.7599 30.429 41.6436 30.737C41.4001 31.3815 40.5096 32.0992 39.7517 32.2617C39.3825 32.3408 39.1259 32.2589 38.5345 31.873C37.9662 31.5021 37.735 31.2907 37.5471 30.9701C37.3755 30.6775 37.2794 30.6592 37.1932 30.903C37.0621 31.2737 37.3701 31.767 38.0202 32.2277C38.7362 32.735 38.9768 32.8275 39.583 32.8281C40.092 32.8286 40.1523 32.8148 40.5992 32.5949C41.2447 32.2772 41.8669 31.6635 42.0547 31.1593C42.2468 30.6438 42.3391 29.6426 42.2536 29.0036C42.1975 28.5839 41.9914 27.8661 41.7988 27.4193C41.7716 27.3561 41.8251 27.2937 41.9757 27.2126C42.3337 27.0199 42.7029 26.5583 42.8302 26.1444C42.9864 25.6363 43.0342 25.1189 42.9602 24.7378C42.8916 24.3845 42.4756 23.4729 42.1993 23.0702L42.0235 22.8141L42.2572 22.5686C42.3857 22.4335 42.5436 22.2 42.6081 22.0497C42.8573 21.4683 42.8008 20.4876 42.4816 19.8551C42.3909 19.6752 42.3391 19.5143 42.3664 19.4974C42.4583 19.4405 42.6527 18.7038 42.6918 18.264C42.7799 17.2731 42.5049 16.5841 41.675 15.7166L41.1222 15.1388L41.2377 14.9596C41.4484 14.6327 41.6336 14.1717 41.6972 13.8163C41.8173 13.1444 41.5099 12.402 40.8623 11.8003C40.5473 11.5076 39.1223 10.5072 39.0203 10.5072C38.9939 10.5072 38.9845 10.3588 38.9996 10.1775C39.0484 9.58944 38.9378 9.34639 38.3597 8.77123C37.4563 7.87227 36.8293 7.5452 35.8799 7.47748L35.3953 7.44289L35.1765 6.98797C34.9126 6.43905 34.3742 5.78476 33.9437 5.48982C33.3792 5.1031 32.7474 4.81074 32.4161 4.78301C32.1315 4.75917 32.0958 4.73849 31.958 4.51754C31.6823 4.0756 30.7749 3.42215 29.9839 3.09608C29.2597 2.79751 28.0952 2.57848 27.5638 2.64081L27.2644 2.67589L27.0958 2.40953C26.5089 1.48207 25.0937 1.11268 23.0508 1.3537L22.1242 1.46301L21.8761 1.23824C21.4367 0.840097 21.1847 0.745611 20.4872 0.717223C20.1382 0.703 19.667 0.72487 19.4111 0.767122C18.9371 0.845412 17.5654 1.26549 17.469 1.36188C17.435 1.39589 17.3221 1.33887 17.1766 1.21445C16.7365 0.837762 16.4673 0.750934 15.668 0.727746C15.1026 0.711311 14.8747 0.729772 14.592 0.814934ZM23.4992 5.39779C24.2695 5.49054 24.6234 5.56471 25.7625 5.87249C27.3467 6.30039 29.0767 7.04928 31.1174 8.19034C32.2888 8.84534 33.1786 9.45587 34.3172 10.386C35.5053 11.3566 36.9936 13.3154 37.5197 14.601C37.9825 15.7319 38.7741 18.2211 38.9514 19.103C39.2759 20.7169 39.3279 21.3105 39.2898 22.9678C39.2598 24.2739 39.2335 24.5784 39.0814 25.3882C38.9857 25.8977 38.8068 26.6507 38.6838 27.0616C38.4639 27.7965 37.8002 29.5321 37.6849 29.674C37.5658 29.8206 36.9958 30.1594 36.5012 30.3775C36.031 30.5849 35.952 30.6014 35.4426 30.5984C34.6589 30.5938 34.2868 30.483 32.5558 29.7388C31.6274 29.3395 30.8973 29.0747 29.2679 28.5461C27.0345 27.8214 26.5113 27.6448 25.442 27.2536C24.2467 26.8165 24.2113 26.8017 23.0508 26.2546C22.5412 26.0144 21.7073 25.6378 21.1976 25.4177C18.3189 24.1746 16.5554 23.2549 14.7795 22.0709C14.044 21.5805 12.6066 20.3634 11.3938 19.2041C9.22078 17.1269 8.21313 16.419 6.76085 15.9493C6.08695 15.7313 5.33438 15.344 4.93942 15.0117L4.75416 14.8559L5.04015 14.5448C5.19743 14.3737 5.56794 13.9398 5.86343 13.5806C6.59663 12.6895 7.74058 11.4163 8.02303 11.1769C8.46379 10.8034 9.93096 9.75349 10.5569 9.36366C12.6165 8.08097 14.8111 7.07104 17.8799 5.99381C19.1629 5.54344 19.7137 5.39182 20.3607 5.31096C20.9512 5.23715 22.5264 5.28072 23.4992 5.39779ZM21.1486 11.2991C21.174 11.4775 21.4368 11.528 21.4368 11.3545C21.4368 11.246 21.3304 11.1646 21.1886 11.1646C21.1561 11.1646 21.1382 11.2251 21.1486 11.2991ZM21.6998 11.2483C21.6779 11.3053 21.6896 11.3815 21.7257 11.4177C21.7735 11.4655 21.8024 11.4551 21.8313 11.3798C21.8532 11.3228 21.8415 11.2466 21.8054 11.2104C21.7575 11.1626 21.7287 11.1729 21.6998 11.2483ZM22.5355 11.3112C22.4892 11.4319 22.5581 11.5232 22.6956 11.5232C22.8258 11.5232 22.8489 11.405 22.74 11.2961C22.6444 11.2006 22.576 11.2056 22.5355 11.3112ZM23.2857 11.4386C23.1844 11.5607 23.2792 11.7245 23.4673 11.7524C23.6919 11.7856 23.7451 11.6681 23.583 11.4973C23.4135 11.3187 23.3892 11.314 23.2857 11.4386ZM22.7041 11.7144C22.6194 11.7991 22.6087 12.0394 22.6873 12.088C22.7176 12.1067 22.7984 12.0507 22.867 11.9635C22.9623 11.8424 22.9758 11.786 22.9243 11.7239C22.8413 11.624 22.7964 11.6221 22.7041 11.7144ZM24.2016 11.8641C24.099 11.902 24.1075 12.0902 24.2157 12.1799C24.3049 12.2539 24.4867 12.2252 24.4842 12.1376C24.4814 12.0395 24.2729 11.8377 24.2016 11.8641ZM22.3624 12.4808C22.3111 12.5638 22.3887 12.8977 22.4592 12.8977C22.5347 12.8977 22.6452 12.599 22.6068 12.499C22.5707 12.4051 22.4164 12.3936 22.3624 12.4808ZM24.8561 12.5511C24.7522 12.655 24.7682 12.8787 24.8826 12.9227C24.9939 12.9653 24.9846 12.9714 25.075 12.7975C25.1959 12.565 25.0296 12.3777 24.8561 12.5511ZM22.1362 12.9953C22.0642 13.0673 22.0903 13.2384 22.1854 13.3173C22.2982 13.4109 22.3193 13.3911 22.3438 13.1684C22.3629 12.9959 22.2389 12.8926 22.1362 12.9953ZM25.5609 13.4969C25.4961 13.6533 25.5004 13.6936 25.5928 13.7957C25.7714 13.993 25.8716 13.9479 25.8286 13.6896C25.7557 13.2508 25.6842 13.1994 25.5609 13.4969ZM21.9299 13.7963C21.7913 13.8517 21.7509 14.0499 21.8473 14.2018C21.885 14.2613 21.9368 14.2338 22.0581 14.0897C22.2816 13.8241 22.2189 13.6806 21.9299 13.7963ZM28.0654 13.8324C27.9415 13.9816 28.0764 14.1229 28.3429 14.1229C28.6508 14.1229 28.6657 14.0144 28.3782 13.8646C28.1673 13.7547 28.1329 13.7512 28.0654 13.8324ZM29.0886 14.2052C29.0886 14.3442 29.1925 14.4335 29.386 14.4607C29.6013 14.4909 29.607 14.3218 29.3949 14.1965C29.1694 14.0634 29.0886 14.0657 29.0886 14.2052ZM21.495 14.4833C21.4362 14.5542 21.4347 14.6087 21.4886 14.727C21.5835 14.9352 21.7004 14.877 21.7208 14.6113C21.7391 14.3733 21.6352 14.3144 21.495 14.4833ZM25.7542 14.5446C25.598 14.654 25.5792 14.8575 25.7203 14.9116C25.837 14.9564 26.0398 14.736 26.0398 14.5645C26.0398 14.4273 25.9324 14.4198 25.7542 14.5446ZM28.7426 14.7019C28.6417 14.8027 28.6492 15.109 28.7525 15.109C28.8759 15.109 28.9807 14.9535 28.9587 14.8032C28.9354 14.6449 28.843 14.6015 28.7426 14.7019ZM30.2266 14.8373C30.134 14.9488 30.1782 15.0801 30.3369 15.165C30.4867 15.2451 30.5312 15.1773 30.4726 14.9583C30.4185 14.7559 30.3303 14.7124 30.2266 14.8373ZM21.2096 15.2405C21.124 15.326 21.114 15.6251 21.1951 15.6752C21.2581 15.7141 21.4368 15.4083 21.4368 15.2614C21.4368 15.1512 21.3104 15.1396 21.2096 15.2405ZM25.3511 15.303C25.286 15.3386 25.2145 15.3954 25.1921 15.4294C25.1415 15.506 25.2435 15.7066 25.3329 15.7066C25.4823 15.7066 25.6344 15.3403 25.5155 15.2668C25.4901 15.2512 25.4161 15.2675 25.3511 15.303ZM30.8843 15.375C30.8008 15.4757 30.8212 15.6566 30.9198 15.6894C30.9571 15.7018 31.031 15.6685 31.0841 15.6155C31.1573 15.5423 31.1657 15.4911 31.1188 15.4037C31.0451 15.2658 30.9814 15.2581 30.8843 15.375ZM22.0345 15.7851C22.0345 15.9449 22.253 16.05 22.3609 15.9421C22.4452 15.8578 22.3223 15.6813 22.163 15.6576C22.0613 15.6425 22.0345 15.6691 22.0345 15.7851ZM24.8499 15.7622C24.6595 15.8109 24.5528 15.977 24.6496 16.0739C24.7482 16.1724 24.9963 16.056 25.0395 15.891C25.0788 15.7407 25.0392 15.7138 24.8499 15.7622ZM28.1122 15.7465C27.9642 15.8944 28.1876 16.1329 28.3489 15.9991C28.4855 15.8858 28.4503 15.7066 28.2915 15.7066C28.2148 15.7066 28.134 15.7245 28.1122 15.7465ZM31.3004 15.7963C31.241 15.8678 31.241 15.904 31.3004 15.9755C31.3961 16.0908 31.5335 16.0905 31.578 15.9748C31.6123 15.8853 31.5071 15.7066 31.42 15.7066C31.3951 15.7066 31.3413 15.7469 31.3004 15.7963ZM22.7777 15.8452C22.7172 16.0026 22.805 16.0652 23.0861 16.0652C23.2719 16.0652 23.3642 16.037 23.3889 15.973C23.437 15.8476 23.4125 15.8325 23.0921 15.7885C22.8696 15.7581 22.8068 15.7694 22.7777 15.8452ZM24.0471 15.9257C23.9768 15.996 24.0045 16.1709 24.0913 16.2042C24.1938 16.2434 24.3931 16.0379 24.3384 15.9494C24.2948 15.8788 24.1091 15.8638 24.0471 15.9257ZM20.6666 16.191C20.5255 16.3424 20.4962 16.603 20.6203 16.603C20.7424 16.603 20.9406 16.2027 20.8589 16.121C20.811 16.0731 20.7587 16.0921 20.6666 16.191ZM31.743 16.3275C31.6886 16.4692 31.8125 16.5931 31.9106 16.4951C31.9669 16.4387 31.9609 16.401 31.8829 16.3231C31.7896 16.2298 31.7804 16.2301 31.743 16.3275ZM27.4796 16.8769C27.3074 17.0217 27.2387 17.2438 27.336 17.3412C27.3963 17.4014 27.7734 17.0155 27.7734 16.8937C27.7734 16.7195 27.6734 16.7138 27.4796 16.8769ZM20.2531 16.9138C20.1562 17.0107 20.1618 17.2604 20.2609 17.2604C20.362 17.2604 20.5075 16.9943 20.4539 16.9075C20.4015 16.8229 20.3422 16.8247 20.2531 16.9138ZM31.8447 17.1034C31.7547 17.212 31.8235 17.38 31.958 17.38C32.0167 17.38 32.0815 17.3362 32.102 17.2827C32.1386 17.1875 32.0471 17.0214 31.958 17.0214C31.9332 17.0214 31.8822 17.0583 31.8447 17.1034ZM31.5794 17.7784C31.5166 17.8412 31.5328 18.0262 31.605 18.0708C31.6411 18.0931 31.7128 18.0691 31.7643 18.0176C31.8415 17.9404 31.8445 17.9075 31.7811 17.8312C31.6978 17.7308 31.6417 17.7161 31.5794 17.7784ZM19.679 18.0389C19.4501 18.2922 19.4076 18.5277 19.5847 18.5614C19.7106 18.5853 20.056 17.9478 19.9659 17.8578C19.9194 17.8113 19.8384 17.8624 19.679 18.0389ZM27.0209 17.9399C26.976 18.0568 27.0372 18.1569 27.1534 18.1569C27.2121 18.1569 27.237 18.1115 27.2246 18.0271C27.2014 17.8695 27.0696 17.8131 27.0209 17.9399ZM26.6427 18.2514C26.4639 18.4019 26.3952 18.6487 26.512 18.7209C26.5786 18.762 26.9365 18.3633 26.9365 18.248C26.9365 18.0936 26.8288 18.0949 26.6427 18.2514ZM27.8615 18.2193C27.8054 18.3099 27.9573 18.4751 28.0299 18.4025C28.0969 18.3355 28.0447 18.1569 27.9581 18.1569C27.9262 18.1569 27.8827 18.185 27.8615 18.2193ZM31.2007 18.311C31.1808 18.3628 31.2041 18.4448 31.2525 18.4932C31.33 18.5707 31.3497 18.5703 31.4168 18.4893C31.4588 18.4388 31.4775 18.3568 31.4584 18.3071C31.4129 18.1884 31.2467 18.1909 31.2007 18.311ZM28.3139 18.5423C28.2512 18.6178 28.2512 18.6521 28.3139 18.7276C28.3834 18.8113 28.3998 18.8113 28.4835 18.7276C28.5672 18.644 28.5672 18.626 28.4835 18.5423C28.3998 18.4587 28.3834 18.4587 28.3139 18.5423ZM30.862 18.6151C30.7993 18.6778 30.8155 18.8629 30.8877 18.9074C30.9237 18.9297 30.9954 18.9058 31.0469 18.8543C31.1242 18.777 31.1272 18.7442 31.0638 18.6679C30.9805 18.5675 30.9243 18.5528 30.862 18.6151ZM29.1297 18.7333C29.0417 18.8213 29.088 19.0025 29.1932 18.9822C29.2507 18.9711 29.2978 18.9109 29.2978 18.8483C29.2978 18.7294 29.2003 18.6627 29.1297 18.7333ZM19.148 18.7916C19.0713 18.8682 19.1032 19.0967 19.2019 19.1785C19.2847 19.2473 19.3148 19.2384 19.4136 19.1164C19.477 19.0381 19.5208 18.9314 19.5108 18.8792C19.4923 18.7812 19.2233 18.7163 19.148 18.7916ZM29.8458 18.9139C29.783 18.9767 29.7992 19.1617 29.8714 19.2063C29.9075 19.2286 29.9791 19.2046 30.0307 19.1531C30.1079 19.0758 30.1109 19.043 30.0475 18.9667C29.9642 18.8663 29.9081 18.8516 29.8458 18.9139ZM30.427 18.9595C30.4071 19.0111 30.4076 19.0967 30.4279 19.1498C30.461 19.236 30.4791 19.2368 30.5987 19.1574C30.6723 19.1086 30.7325 19.0316 30.7325 18.9863C30.7325 18.8678 30.471 18.8449 30.427 18.9595ZM25.9582 19.5358C25.7771 19.6781 25.7705 19.7065 25.8832 19.8604C25.9622 19.9685 25.972 19.9659 26.1204 19.7971C26.4018 19.477 26.2808 19.2821 25.9582 19.5358ZM25.242 20.4774C25.1252 20.6065 25.1154 20.7349 25.2148 20.8343C25.3279 20.9473 25.3742 20.9213 25.4707 20.6905C25.6021 20.3761 25.4565 20.2405 25.242 20.4774ZM24.904 21.1025C24.7355 21.1873 24.6663 21.4685 24.8013 21.5202C24.8833 21.5517 25.2627 21.246 25.2627 21.1484C25.2627 21.1207 25.2201 21.0817 25.1681 21.0618C25.0526 21.0175 25.0818 21.013 24.904 21.1025Z" fill="white"/>
</svg>
