<svg width="58" height="49" viewBox="0 0 58 49" fill="none" xmlns="http://www.w3.org/2000/svg">
<path fill-rule="evenodd" clip-rule="evenodd" d="M51.3212 0.344262C50.5885 0.534429 49.8839 0.873005 49.4514 1.24292C49.2457 1.4188 49.0755 1.50619 48.997 1.47603C48.8637 1.42496 48.8204 1.56184 48.9455 1.63912C48.9862 1.66422 49.0212 1.74624 49.0233 1.82139C49.0297 2.05111 49.1784 3.12265 49.2182 3.22637C49.2413 3.28645 49.1582 3.34218 49.0018 3.37147C48.8621 3.39767 48.4832 3.57403 48.1597 3.76348C47.7004 4.03251 47.5427 4.08998 47.4399 4.02588C47.3434 3.96565 47.1744 3.98744 46.8058 4.10766C45.9688 4.38048 43.9725 4.4524 39.6653 4.36477L37.7688 4.32617L36.939 4.75118L36.1093 5.17628L34.4498 5.28672C33.5371 5.34742 32.2392 5.41373 31.5655 5.43394C30.0925 5.47822 30.0016 5.49575 29.9385 5.74694L29.8896 5.94168L29.7469 5.76541C29.6104 5.59687 29.5427 5.58811 28.1944 5.56443C27.419 5.55077 26.2334 5.57051 25.5598 5.60824C24.8861 5.64597 23.9793 5.65189 23.5447 5.62134C23.0241 5.58479 22.4038 5.60437 21.7271 5.67873C20.5103 5.81254 19.7144 5.76628 18.7243 5.50435C17.9307 5.29445 16.993 5.18536 16.6728 5.26564C16.5368 5.29966 16.4244 5.4082 16.3556 5.57161L16.249 5.82477L16.1153 5.4907C15.9665 5.11928 15.971 5.12126 14.7194 4.88815C13.8641 4.72877 13.8644 4.72877 13.8644 4.90946C13.8644 4.99148 13.7923 5.14249 13.7042 5.24496L13.5439 5.43133L13.4152 5.24961C13.2549 5.02345 12.8499 4.84694 12.2839 4.75663C12.0449 4.7185 11.4937 4.63206 11.0591 4.56457C10.0947 4.41466 8.20878 4.08832 7.32523 3.91836L6.67329 3.79293V3.52106C6.67329 3.37154 6.61995 3.1959 6.55475 3.13078C6.48956 3.06565 6.43622 2.94906 6.43622 2.87169C6.43622 2.65121 6.10733 2.35156 5.69111 2.19273C5.35938 2.06619 5.2444 2.05893 4.79215 2.13629C4.21283 2.23544 3.92716 2.4061 3.74494 2.76205C3.62316 2.99982 3.61992 3.00084 3.44291 2.85764C3.34453 2.77807 3.13504 2.68879 2.97739 2.65919C2.26445 2.52562 0.670633 3.02034 0.378328 3.46604C0.274808 3.62384 0.25924 3.78156 0.298751 4.27052C0.35628 4.98264 0.593903 6.24166 0.861158 7.25044C1.2121 8.57521 1.60002 10.3202 1.74669 11.2334C1.88063 12.0679 1.89241 12.725 1.89241 19.3643V26.5873L1.67991 28.6793C1.56312 29.8298 1.44569 31.1442 1.41898 31.6C1.39235 32.0559 1.26718 33.6545 1.14098 35.1524C0.761193 39.6578 0.633572 41.9947 0.726187 42.7467C0.770598 43.1069 0.789327 43.6199 0.767832 43.8866C0.71789 44.5073 0.819037 44.8023 1.31048 45.4683C1.92828 46.3054 2.74309 46.9387 3.63296 47.2733C4.45227 47.5814 7.71947 48.1133 8.72788 48.1029C9.59587 48.0938 9.90058 48.0177 10.1956 47.7361C10.8337 47.1269 10.8852 47.1291 11.3842 47.7873L11.6912 48.1924L12.0966 48.1459C12.3196 48.1204 12.7946 48.1388 13.1521 48.1868C13.9565 48.295 14.1805 48.2229 14.1805 47.8562V47.6103L14.5851 47.9738C14.8077 48.1736 15.0714 48.3577 15.1711 48.3826C15.2708 48.4076 15.6289 48.3667 15.967 48.2915C16.5074 48.1714 16.8303 48.1622 18.6407 48.2157C21.3884 48.2969 21.3776 48.297 22.873 48.1892C23.5901 48.1376 24.6161 48.0646 25.1529 48.027C25.9639 47.9701 26.1682 47.9296 26.3614 47.7868C26.5592 47.6407 26.632 47.6274 26.8474 47.6974C27.0837 47.7742 31.4707 47.878 33.7777 47.8614C34.6763 47.8548 34.7947 47.8368 35.096 47.6604C35.2781 47.5537 35.4547 47.3867 35.4883 47.2892C35.5433 47.1301 35.554 47.1402 35.5924 47.3881L35.6352 47.6644L36.3054 47.6876C36.8538 47.7066 36.9928 47.6873 37.0705 47.5813C37.1522 47.4694 37.2208 47.4636 37.5697 47.5383C38.7142 47.7835 43.6083 47.4497 43.9718 47.1016C44.0761 47.0017 44.0602 46.9651 43.8371 46.7906C43.6828 46.67 43.6015 46.5479 43.6286 46.4774C43.7014 46.2875 43.8773 46.3442 44.2337 46.6723L44.5708 46.9827L47.2545 46.9108C49.6462 46.8468 50.3482 46.7955 50.9911 46.6379C51.2174 46.5824 51.5147 45.9661 51.4354 45.7167C51.4062 45.6247 51.236 45.391 51.0572 45.1972L50.7321 44.8449L51.0363 44.9719C51.2036 45.0417 51.3504 45.0988 51.3625 45.0988C51.3747 45.0988 51.4581 45.2232 51.5478 45.3751C51.707 45.6446 51.7233 45.6514 52.2115 45.6514C52.4868 45.6514 52.7492 45.6886 52.7948 45.7342C52.8525 45.7918 53.2824 45.6625 54.2133 45.3076C54.9479 45.0276 55.7612 44.7385 56.0207 44.6651C56.966 44.3979 57.3269 44.1082 57.3269 43.617C57.3269 43.2791 57.1725 42.9866 56.7327 42.492C56.538 42.273 56.3787 42.0191 56.3787 41.9277C56.3787 41.8363 56.5155 41.6132 56.6829 41.4318C56.9238 41.1707 57.0134 40.986 57.1134 40.5434C57.2316 40.0202 57.2301 39.9165 57.0893 38.918C57.0066 38.3314 56.8127 37.2353 56.6586 36.4822C56.2722 34.595 56.2233 33.7927 56.2216 29.3108C56.2202 25.2774 56.1847 24.4578 55.8874 21.5746C55.6776 19.5414 55.6528 16.6788 55.804 11.9439C55.9271 8.08673 56.1376 5.79928 56.4188 5.26059C56.4831 5.13744 56.5359 5.00111 56.5362 4.95769C56.5365 4.9142 56.7145 4.43819 56.9318 3.89981C57.1491 3.36152 57.3269 2.81857 57.3269 2.69345C57.3269 2.56825 57.2358 2.28619 57.1244 2.06666C56.4085 0.655129 54.4994 -0.201294 53.3698 0.382233C53.1643 0.488407 53.078 0.497644 52.9628 0.425808C52.8358 0.346552 52.8022 0.369444 52.7056 0.600187C52.6445 0.746227 52.5698 1.05228 52.5395 1.28026C52.5092 1.50824 52.4594 1.65436 52.4289 1.60502C52.3594 1.49261 52.4648 0.80188 52.586 0.575558C52.8132 0.151727 52.3732 0.0712865 51.3212 0.344262ZM52.3046 0.912001C52.2723 1.1399 52.2503 1.52181 52.2556 1.76061C52.2677 2.29914 52.4975 3.33918 52.6386 3.49446C52.7276 3.59242 52.7446 3.55634 52.7503 3.25763C52.754 3.06384 52.8162 2.44502 52.8885 1.88249L53.0202 0.859742L53.3758 0.752621C53.5971 0.685995 53.9702 0.657261 54.3636 0.676601C55.4347 0.729176 56.2254 1.25594 56.8366 2.32393L57.0912 2.76891L56.7759 3.42909C56.1681 4.70193 55.8159 6.21545 55.4741 9.02312C55.3095 10.3761 55.087 16.7299 55.1494 18.2986C55.1915 19.359 55.4805 22.4149 55.6308 23.3903C55.6543 23.5422 55.7044 26.1532 55.7423 29.1924C55.8052 34.238 55.8251 34.7902 55.9709 35.5471C56.4046 37.7982 56.7897 39.9781 56.7591 40.0087C56.7403 40.0276 56.5314 39.9667 56.2949 39.8735C55.9938 39.755 55.6822 39.7026 55.2547 39.6989C54.5595 39.6928 54.5873 39.7258 54.5219 38.8285C54.4707 38.1255 54.3612 38.13 54.0931 38.8463C53.9752 39.1611 53.85 39.3488 53.6977 39.4386C53.485 39.5641 53.4532 39.5613 52.9971 39.3761C52.3648 39.1195 51.9547 39.0607 51.6039 39.1763C51.2472 39.2939 50.8794 39.5973 50.7198 39.9055C50.6531 40.0347 50.5848 40.1268 50.5683 40.1102C50.5216 40.0636 50.7584 37.8717 50.8864 37.1653C51.0176 36.4415 51.2081 34.8113 51.283 33.7709C51.3112 33.3802 51.4009 32.453 51.4825 31.7106C51.777 29.0279 51.8183 27.9789 51.769 24.4165C51.7429 22.5278 51.6695 20.2721 51.6058 19.4038C51.4719 17.5799 51.4452 17.1587 51.2802 14.2726C51.1435 11.8823 50.9692 10.1993 50.565 7.36537C50.2613 5.23635 50.1434 4.7054 49.6047 3.04284L49.2401 1.91738L49.4311 1.71332C49.8608 1.2546 50.7435 0.846481 51.7953 0.620475C52.0778 0.55977 52.3212 0.507274 52.3362 0.5038C52.3511 0.500406 52.3369 0.6841 52.3046 0.912001ZM5.72581 2.64869C5.86947 2.74642 6.05968 2.92427 6.1485 3.04402C6.30188 3.25084 6.30512 3.29805 6.21235 3.9913C5.85643 6.65286 5.79677 7.58719 5.72509 11.6281C5.68542 13.8641 5.61628 16.3508 5.57147 17.154C5.4821 18.7541 5.56175 21.8511 5.75923 24.4559C5.82174 25.2809 5.89452 26.3821 5.92091 26.9031C6.00815 28.6249 6.35712 33.0586 6.60122 35.5471C6.77096 37.2779 7.39042 41.9122 7.58253 42.8885C7.61263 43.0413 7.58624 43.0209 7.46565 42.7979C7.13684 42.1897 6.23187 41.6164 5.33875 41.4505C4.42651 41.2811 3.56998 41.5311 2.76798 42.2011C2.40985 42.5002 2.37239 42.5146 2.29384 42.3821C1.95957 41.8186 1.77387 41.8297 1.77387 42.4131C1.77387 42.9095 1.72353 43.0275 1.45209 43.1677C1.32913 43.2313 1.21787 43.2832 1.20491 43.2833C1.16231 43.2834 1.28353 40.5805 1.36769 39.6512C1.41297 39.1523 1.47106 38.46 1.4969 38.1126C1.52282 37.7653 1.63021 36.5397 1.7357 35.3892C1.8412 34.2386 1.98154 32.5282 2.04761 31.5882C2.11367 30.6483 2.239 29.2629 2.32624 28.5095C2.61546 26.0108 2.66446 24.1917 2.60717 18.072C2.56718 13.7886 2.5253 12.1355 2.44343 11.5989C2.38298 11.2025 2.13192 10.1678 1.88561 9.29941C1.42009 7.65848 0.650958 4.70035 0.557315 4.19095C0.506425 3.91394 0.520253 3.88718 0.809635 3.70467C1.20775 3.45364 2.08245 3.18509 2.68864 3.12778L3.1687 3.08231L3.27641 3.34905C3.39661 3.64649 3.73664 4.12882 3.82625 4.12882C3.85818 4.12882 3.90749 3.85458 3.93586 3.5194C3.96818 3.13733 4.03242 2.86491 4.10805 2.7892C4.44919 2.44763 5.319 2.37208 5.72581 2.64869ZM49.4917 4.48405C49.9734 7.04614 50.4657 11.2536 50.6878 14.7068C50.8578 17.349 50.9333 18.3925 51.1187 20.6668C51.4321 24.5123 51.4736 29.4263 51.2093 31.4027C51.1396 31.9237 51.0299 33.0604 50.9655 33.9288C50.8266 35.8024 50.8013 36.0528 50.6102 37.4416C50.1966 40.4474 50.1953 40.5752 50.5672 41.3476C50.8938 42.026 51.2061 42.2743 51.9534 42.4498C52.915 42.6756 53.6095 42.5832 54.1221 42.1612L54.4031 41.9297V40.9793V40.0287L55.2131 40.0598C56.2007 40.0977 56.6399 40.2679 56.6812 40.6286C56.7003 40.796 56.644 40.9203 56.4661 41.1036C55.959 41.6263 55.9782 42.1008 56.5443 43.0386C56.714 43.3196 56.8528 43.5953 56.8528 43.6512C56.8528 43.777 56.5584 43.9318 55.7662 44.2225C55.4294 44.3461 54.7209 44.6495 54.1918 44.8968C53.2902 45.3182 53.2109 45.3411 52.9274 45.2626C52.7612 45.2164 52.4702 45.1785 52.2809 45.1783C52.0095 45.1779 51.9042 45.1367 51.7836 44.9834C51.6981 44.875 51.4472 44.7313 51.2161 44.6585C50.9069 44.5612 50.6546 44.3901 50.2221 43.9845C49.9032 43.6857 49.6111 43.4411 49.5731 43.4411C49.4665 43.4411 49.4906 43.6117 49.617 43.7511C49.9163 44.0815 51.0821 45.7846 51.083 45.8929C51.085 46.1105 50.8904 46.2897 50.5684 46.3668C50.2094 46.4527 47.8579 46.5776 45.9729 46.6108L44.6942 46.6333L44.34 46.3792C44.1451 46.2395 43.9471 46.1251 43.8999 46.1251C43.781 46.1251 43.7911 46.0032 43.9668 45.3169C44.1191 44.7217 44.1096 44.3558 43.9432 44.4112C43.8948 44.4273 43.8088 44.6153 43.7521 44.8289C43.6953 45.0425 43.5586 45.5163 43.4482 45.8818C43.3378 46.2472 43.2628 46.6259 43.2814 46.7232C43.3208 46.9289 43.313 46.9306 41.6014 47.0908C40.4341 47.2002 38.0164 47.2225 37.5613 47.1282C37.3072 47.0756 37.2691 47.0356 37.225 46.7746C37.1637 46.4123 36.9212 46.0779 36.782 46.1639C36.7109 46.2078 36.6934 46.3809 36.7211 46.7673L36.7599 47.3092H36.3453H35.9307L35.8748 46.4145C35.8439 45.9224 35.7904 45.4738 35.7556 45.4176C35.6432 45.236 35.5166 45.415 35.517 45.7548C35.5172 45.9367 35.4258 46.3369 35.3139 46.6442C35.0897 47.2593 34.874 47.4553 34.4017 47.4728C34.2543 47.4783 33.9628 47.5188 33.7539 47.5628C33.4588 47.6249 33.219 47.6127 32.6779 47.5077C32.0552 47.3869 31.7291 47.3808 29.5945 47.4501C27.0377 47.533 26.6202 47.499 26.7105 47.2149C26.736 47.1346 26.7332 46.9614 26.7044 46.83C26.6616 46.6356 26.6311 46.6083 26.5404 46.6836C26.4792 46.7343 26.429 46.8742 26.429 46.9944C26.429 47.1144 26.3663 47.2901 26.2895 47.3848C26.1579 47.5473 26.0559 47.5608 24.4522 47.6298C23.5184 47.67 22.3988 47.7392 21.9641 47.7836C21.4045 47.8408 20.8736 47.8382 20.1465 47.7748C18.8994 47.6662 16.7418 47.7364 15.9345 47.9119L15.3573 48.0374L14.8098 47.5094C14.1412 46.8645 13.9933 46.8538 13.959 47.448C13.9322 47.911 13.8899 47.9315 13.2717 47.781C13.0978 47.7387 12.6801 47.7018 12.3435 47.6991L11.7314 47.6942L11.2919 47.2553L10.8526 46.8163L10.8995 46.4115C10.9619 45.873 10.8565 45.305 10.6882 45.2726C10.5098 45.2383 10.3557 46.0004 10.4084 46.6563C10.4303 46.9285 10.4189 47.1513 10.3831 47.1513C10.3472 47.1513 10.1485 47.2978 9.94128 47.4769L9.56466 47.8026L8.57331 47.7586C8.02814 47.7344 7.33313 47.6612 7.02889 47.5959C6.72465 47.5305 5.96896 47.386 5.34966 47.2746C4.11706 47.053 3.49554 46.8113 2.78228 46.2762C2.10182 45.7658 1.14169 44.555 1.14169 44.2075C1.14169 43.9577 1.3865 43.6246 1.66893 43.49C1.85392 43.4019 1.9497 43.2932 1.98123 43.1355C2.02398 42.9219 2.04042 42.9133 2.25322 42.9936C2.44999 43.0678 2.50649 43.0538 2.68414 42.8872C2.96483 42.6237 3.03547 42.7592 3.03705 43.5645C3.03816 44.1553 3.05388 44.2158 3.25555 44.408C3.54454 44.6835 3.79085 44.768 4.56354 44.8567C4.91985 44.8977 5.31868 44.9852 5.44978 45.0511C5.76429 45.2093 6.50055 45.1104 7.03585 44.838C7.4809 44.6116 7.92833 44.1418 8.02798 43.7963C8.11372 43.499 7.95354 41.7852 7.58916 39.0994C7.15067 35.8683 6.70656 30.878 6.47565 26.5873C6.44989 26.1098 6.37735 25.0263 6.31437 24.1797C6.0867 21.1191 6.04363 18.8975 6.16264 16.345C6.22388 15.0315 6.27675 12.7669 6.28007 11.3124C6.28347 9.85791 6.318 8.27713 6.35688 7.79954C6.39576 7.32195 6.47194 6.29834 6.52615 5.5248C6.61118 4.31346 6.64192 4.12408 6.74781 4.15961C7.94184 4.55983 10.021 4.9258 11.5727 5.00877C12.5664 5.06189 12.8954 5.10578 12.9556 5.19341C12.9991 5.25672 13.1218 5.45154 13.2283 5.62647C13.4914 6.05836 13.6564 6.0376 13.9083 5.54106C14.1043 5.15465 14.1236 5.13997 14.364 5.19309C14.5021 5.22356 14.8755 5.2763 15.1938 5.31032C15.5122 5.34426 15.8134 5.41271 15.8631 5.46236C15.9865 5.58566 16.0275 6.4994 15.9389 7.15168C15.8565 7.75834 15.9465 7.9395 16.0758 7.42695C16.1226 7.24112 16.219 6.85818 16.2901 6.57597C16.361 6.29376 16.4699 5.96055 16.532 5.83551C16.6397 5.61858 16.6636 5.61013 17.0524 5.65237C17.2765 5.67668 17.78 5.7943 18.1711 5.91382C19.1052 6.19911 19.7274 6.20598 26.2343 6.00294C29.1038 5.91334 29.5899 5.94058 29.5899 6.19058C29.5899 6.50508 29.7688 7.04961 29.8722 7.04961C29.9894 7.04961 30.1413 6.58623 30.1439 6.22074C30.1447 6.09049 30.1716 5.94429 30.2035 5.89582C30.2428 5.83622 30.6967 5.80985 31.605 5.81435C32.3439 5.81806 33.6596 5.76146 34.5288 5.68868L36.1093 5.55638L36.8995 5.13989L37.6898 4.72332L38.559 4.72474C39.0371 4.72553 40.8182 4.75142 42.5171 4.78229C45.2156 4.83131 45.6599 4.82255 46.0336 4.71329C46.2688 4.64446 46.4951 4.55581 46.5364 4.51634C46.683 4.37622 46.7084 4.45121 46.7034 5.00924C46.7003 5.35753 46.7321 5.5855 46.7864 5.60429C46.8348 5.62095 46.992 5.35003 47.1358 5.00206C47.3603 4.45903 47.4206 4.37456 47.5615 4.40558C47.6617 4.42769 48.0332 4.27841 48.5159 4.02201C48.9505 3.79111 49.3111 3.60529 49.3173 3.609C49.3234 3.61271 49.4019 4.00646 49.4917 4.48405ZM30.4592 14.9277C30.4592 14.9654 30.4148 14.9994 30.3604 15.0031C30.3061 15.0069 30.1727 15.034 30.0641 15.0634C29.9554 15.0928 29.6658 15.1284 29.4204 15.1424C29.175 15.1564 28.8639 15.2248 28.729 15.2946C28.594 15.3643 28.4836 15.3956 28.4836 15.3641C28.4836 15.3326 28.4409 15.3494 28.3888 15.4015C28.3366 15.4536 28.2288 15.4962 28.1492 15.4962C28.0696 15.4962 27.984 15.5495 27.959 15.6146C27.934 15.6798 27.851 15.733 27.7746 15.733C27.6982 15.733 27.5355 15.8117 27.413 15.908C27.2905 16.0042 27.1168 16.094 27.027 16.1076C26.9371 16.1212 26.8518 16.1668 26.8373 16.209C26.8228 16.2511 26.7743 16.2856 26.7294 16.2856C26.6846 16.2856 26.4438 16.4624 26.1941 16.6784C25.9445 16.8944 25.7203 17.0513 25.6959 17.0269C25.6716 17.0025 25.6164 17.0483 25.5734 17.1285C25.5304 17.2088 25.3733 17.4036 25.2241 17.5615C24.8407 17.9677 24.6702 18.3533 24.7645 18.601C24.8632 18.8603 25.1322 18.9444 25.3202 18.7745C25.4297 18.6755 25.4724 18.6685 25.4981 18.7454C25.5212 18.8145 25.5972 18.7815 25.7372 18.6416C25.8502 18.5288 26.2455 18.29 26.6157 18.111C26.986 17.9319 27.3092 17.7527 27.3341 17.7126C27.3815 17.6357 28.1681 17.3477 28.2615 17.3729C28.2914 17.381 28.3384 17.3167 28.3659 17.2301C28.3934 17.1436 28.4472 17.092 28.4853 17.1156C28.5236 17.1391 28.7077 17.0897 28.8945 17.0056C29.3949 16.7806 29.6102 16.745 30.6662 16.7128C31.5124 16.687 31.6438 16.7007 31.7935 16.8304C32.0919 17.0889 32.3732 17.7131 32.3736 18.1177C32.374 18.4979 32.1382 19.2854 32.024 19.2854C31.9891 19.2854 31.9606 19.3753 31.9606 19.4852C31.9606 19.5951 31.9073 19.7055 31.8421 19.7304C31.7769 19.7554 31.7235 19.8428 31.7235 19.9247C31.7235 20.0752 31.4302 20.4695 31.3182 20.4695C31.2236 20.4695 30.8543 20.8331 30.8543 20.9263C30.8543 20.9722 30.733 21.0498 30.5847 21.0987C30.4364 21.1476 30.2953 21.2391 30.2711 21.3021C30.2468 21.3652 30.1549 21.4167 30.0665 21.4167C29.9718 21.4167 29.906 21.4687 29.906 21.5436C29.906 21.624 29.8625 21.6538 29.7875 21.625C29.7198 21.5991 29.6689 21.6233 29.6689 21.6817C29.6689 21.7379 29.5966 21.8522 29.5081 21.9358C29.4197 22.0194 29.2873 22.1499 29.214 22.2259C29.1407 22.3018 29.0175 22.364 28.9402 22.364C28.8629 22.364 28.7997 22.4021 28.7997 22.4486C28.7997 22.5579 28.5987 22.7587 28.4892 22.7587C28.4427 22.7587 28.4046 22.7943 28.4046 22.8377C28.4046 22.8811 28.3195 22.9166 28.2155 22.9166C28.1115 22.9166 28.005 22.9722 27.979 23.04C27.9529 23.1079 27.8957 23.1414 27.852 23.1143C27.8064 23.0862 27.7724 23.1526 27.7724 23.2702C27.7724 23.4347 27.7372 23.4721 27.5946 23.4599C27.2549 23.4308 27.1789 23.4727 27.0393 23.7661C26.9186 24.0196 26.9016 24.2558 26.9182 25.4427C26.9288 26.2025 26.9098 26.8688 26.8759 26.9233C26.7851 27.0693 26.9921 27.5872 27.1214 27.5376C27.1822 27.5143 27.2055 27.5324 27.1759 27.5803C27.0818 27.7324 27.4051 27.8843 27.7921 27.8696C27.9986 27.8619 28.1675 27.8256 28.1675 27.7891C28.1675 27.7526 28.2002 27.7429 28.2402 27.7676C28.2802 27.7922 28.3821 27.7245 28.4668 27.617C28.5514 27.5095 28.645 27.4459 28.6748 27.4757C28.7046 27.5055 28.7069 27.4723 28.68 27.4021C28.6529 27.3318 28.6688 27.2508 28.7153 27.2222C28.8625 27.1313 28.8066 26.8152 28.605 26.5979C28.4066 26.3841 28.4099 26.1532 28.6111 26.1532C28.6984 26.1532 28.7147 26.0404 28.6882 25.6203C28.656 25.1093 28.6644 25.0784 28.894 24.8668C29.0258 24.7453 29.1736 24.6594 29.2226 24.6757C29.2716 24.6921 29.3769 24.6226 29.4565 24.5215C29.5362 24.4203 29.658 24.3375 29.7273 24.3375C29.7966 24.3375 29.8298 24.314 29.8011 24.2854C29.7437 24.228 30.3044 23.8163 30.3999 23.8457C30.4325 23.8557 30.4592 23.8085 30.4592 23.7408C30.4592 23.6732 30.4947 23.6397 30.5382 23.6665C30.5817 23.6934 30.6172 23.6599 30.6172 23.5923C30.6172 23.5246 30.6468 23.4692 30.683 23.4692C30.7193 23.4692 30.8762 23.3421 31.0317 23.1867C31.1872 23.0314 31.4332 22.8391 31.5783 22.7594C31.7234 22.6799 31.8317 22.5717 31.8191 22.5191C31.8053 22.4621 31.8451 22.4424 31.9179 22.4703C31.9935 22.4993 32.0396 22.473 32.0396 22.4011C32.0396 22.3373 32.0787 22.2851 32.1265 22.2851C32.1742 22.2851 32.3118 22.1798 32.4321 22.051C32.5526 21.9223 32.6735 21.8394 32.7009 21.8669C32.7284 21.8943 32.7508 21.8601 32.7508 21.7908C32.7508 21.7216 32.8437 21.5921 32.9572 21.5029C33.0707 21.4137 33.2081 21.2113 33.2625 21.0532C33.3197 20.887 33.3847 20.803 33.4164 20.8543C33.4979 20.9861 33.6224 20.962 33.5697 20.8247C33.5446 20.7596 33.5589 20.7063 33.6014 20.7063C33.6438 20.7063 33.697 20.5427 33.7196 20.3428C33.7421 20.143 33.83 19.8854 33.915 19.7705C34.0843 19.5416 34.1471 19.2734 34.2138 18.496C34.238 18.2137 34.2728 17.9116 34.2912 17.8244C34.3096 17.7373 34.2387 17.5241 34.1335 17.3508C34.0284 17.1774 33.8368 16.8302 33.7077 16.5791C33.4705 16.1175 32.8148 15.4173 32.6197 15.4173C32.5614 15.4173 32.5138 15.3856 32.5138 15.3468C32.5138 15.259 32.3081 15.1716 32.0085 15.1321C31.8827 15.1155 31.7404 15.0729 31.6924 15.0373C31.6444 15.0018 31.4094 14.9789 31.1704 14.9864C30.9313 14.9939 30.6735 14.9683 30.5975 14.9296C30.5206 14.8905 30.4592 14.8896 30.4592 14.9277ZM33.0669 16.8382C32.9753 17.0092 32.7916 17.0469 32.7081 16.9119C32.6255 16.7785 32.7349 16.7267 32.8675 16.8366C32.967 16.9191 32.9879 16.9142 32.9879 16.8084C32.9879 16.738 33.0247 16.6803 33.0697 16.6803C33.1252 16.6803 33.1243 16.7312 33.0669 16.8382ZM27.7724 31.3793C27.7724 31.4139 27.7246 31.4422 27.6661 31.4422C27.4671 31.4422 27.3032 31.7246 27.2519 32.1562C27.2237 32.393 27.1856 32.6124 27.1672 32.6437C27.1185 32.7266 27.3346 33.1054 27.5759 33.3598C27.7198 33.5115 27.8323 33.5652 27.9368 33.5321C28.0217 33.5052 28.0885 33.5211 28.0885 33.5683C28.0885 33.728 28.3658 33.6515 28.6416 33.4157C28.7938 33.2857 28.9433 33.1792 28.9739 33.179C29.0322 33.1789 29.0857 32.9084 29.1457 32.3105C29.1862 31.9074 29.0135 31.6357 28.5719 31.4074C28.3246 31.2797 27.7724 31.2603 27.7724 31.3793ZM52.9447 39.6965C53.0456 39.8234 53.058 40.0131 53.0174 40.8163C52.9745 41.6648 52.9838 41.7834 53.0931 41.7834C53.1616 41.7834 53.2177 41.7457 53.2177 41.6997C53.2177 41.6512 53.3425 41.6263 53.5141 41.6405C53.7493 41.6599 53.8155 41.7005 53.835 41.8375C53.8551 41.978 53.8036 42.0256 53.5584 42.0937C53.3928 42.1396 53.1921 42.1773 53.1124 42.1776C52.778 42.1786 51.6548 41.837 51.385 41.6522C50.998 41.3872 50.7583 40.9084 50.851 40.5855C50.9503 40.2395 51.2852 39.8334 51.6218 39.6507C52.0079 39.441 52.7624 39.4672 52.9447 39.6965ZM5.52746 42.1065C5.70131 42.1535 6.10227 42.3518 6.41836 42.5471C6.85607 42.8174 7.05979 43.0061 7.27236 43.3379C7.66629 43.9531 7.6282 44.1016 6.98938 44.4413C6.33207 44.7908 6.00057 44.7837 4.14456 44.3802C3.81211 44.308 3.5914 44.1429 3.5914 43.9664C3.5914 43.9245 3.73838 43.7506 3.918 43.58C4.23717 43.2766 4.24255 43.2629 4.15507 42.9712C4.10584 42.8071 4.06553 42.5462 4.06553 42.3912C4.06553 42.1446 4.09256 42.1055 4.28285 42.0767C4.71747 42.0109 5.21832 42.0229 5.52746 42.1065Z" fill="white"/>
</svg>
