<svg width="44" height="42" viewBox="0 0 44 42" fill="none" xmlns="http://www.w3.org/2000/svg">
<path fill-rule="evenodd" clip-rule="evenodd" d="M34.1985 0.284621C33.3134 0.459311 32.1821 0.725022 31.7363 0.862966C31.5056 0.934409 31.4758 0.930795 31.3748 0.819174C31.1675 0.590029 30.8405 0.469371 30.4266 0.469371C29.572 0.469371 29.0989 0.656773 28.295 1.31367C27.8436 1.68256 27.7458 1.79178 27.7568 1.91454C27.7641 1.99713 27.8133 2.07279 27.8659 2.08279C27.9187 2.09279 28.244 1.91532 28.589 1.68853C29.3369 1.19675 29.5611 1.10139 30.1681 1.017C30.7247 0.93959 30.8162 0.968383 31.3148 1.37734C31.5193 1.54504 32.0819 1.89051 32.5651 2.14501C35.0181 3.43724 34.9856 3.40802 35.9662 5.19805C36.6877 6.51497 36.9673 6.92863 37.498 7.46385C37.9749 7.94479 38.7577 8.49344 39.2934 8.72222C39.4674 8.79649 39.6097 8.88106 39.6097 8.9101C39.6097 8.93913 39.6462 8.96293 39.6907 8.96293C39.7353 8.96293 40.0127 9.09166 40.3072 9.24906C40.6979 9.45778 40.9758 9.66675 41.3347 10.0217C41.7562 10.4385 41.8702 10.598 42.1307 11.1361C42.5139 11.9274 42.6066 12.2863 42.6904 13.3001C42.8599 15.3537 42.5914 16.9148 41.794 18.5107C41.2643 19.5706 40.6136 20.375 39.5194 21.3221C39.1548 21.6377 38.5198 22.2456 38.1081 22.673C37.4294 23.3777 37.3634 23.4312 37.4002 23.2469C37.4225 23.1351 37.4411 23.0131 37.4416 22.9758C37.4421 22.9385 37.4681 22.9484 37.4993 22.9979C37.6074 23.1689 37.6882 22.9654 37.7432 22.3836C37.773 22.0695 37.8777 21.3135 37.976 20.7037C38.2453 19.0329 38.3 18.333 38.2685 16.9652C38.2446 15.9246 38.22 15.6715 38.1054 15.2879C37.7822 14.2063 37.2232 13.5531 35.9946 12.8215C34.1974 11.7513 33.8232 11.4234 33.3301 10.4876C32.9141 9.69813 32.8055 9.10581 32.7413 7.27627C32.6714 5.28727 32.5973 4.96722 32.0984 4.49959C31.5589 3.99402 31.136 3.87975 29.7886 3.87565C28.8603 3.87282 28.8529 3.87173 28.5534 3.6921C28.3877 3.59271 28.2275 3.51139 28.1973 3.51139C28.1671 3.51139 28.1386 3.72825 28.1341 3.99329C28.1275 4.37219 28.0927 4.54604 27.9713 4.80651C27.7456 5.29088 27.3588 5.72755 26.8409 6.08289C25.8076 6.79189 25.5125 7.16706 25.5113 7.77323C25.5109 7.93063 25.5022 8.05936 25.4919 8.05936C25.4815 8.05936 25.3585 8.00406 25.2186 7.93641C25.0786 7.86883 24.8098 7.78504 24.6213 7.75016C24.2156 7.67516 23.5882 7.4024 23.4087 7.22296C23.2 7.01429 23.2466 6.76093 23.6408 5.96C23.8911 5.45172 24.0306 5.0783 24.0998 4.73193C24.2252 4.10479 24.301 3.92071 24.552 3.63488C24.9724 3.15629 26.1825 2.46554 26.8738 2.30976C27.1016 2.25838 27.3491 2.2023 27.4237 2.18507C27.5186 2.16314 27.5592 2.10971 27.5592 2.00701C27.5592 1.88611 27.5209 1.8531 27.3409 1.81936C26.8999 1.73666 26.2002 1.83099 25.7732 2.03068C24.7855 2.49283 24.2138 2.9472 23.9414 3.48657C23.8467 3.67409 23.7226 3.84547 23.6655 3.86734C23.415 3.96342 21.9932 4.96234 21.4436 5.42834C20.9617 5.83694 20.7827 6.03597 20.5493 6.42251C20.0545 7.24229 20.0039 7.48909 20.2326 7.969C20.4224 8.36742 20.5719 8.55807 21.242 9.25605C22.2697 10.3266 22.5298 10.6125 23.2485 11.4628C23.6407 11.9266 24.2897 12.6678 24.6909 13.1098C26.213 14.787 26.2016 14.7713 26.3418 15.3795C26.4745 15.9553 26.6048 16.6593 26.7153 17.3962C26.8003 17.9638 26.8018 19.8088 26.7178 20.4081C26.5916 21.3073 26.4587 21.8343 26.2162 22.396C25.9432 23.0281 25.5402 23.822 25.421 23.9622C25.3788 24.0119 25.2936 24.1524 25.2316 24.2745C24.9884 24.754 23.2029 26.5872 21.8345 27.7624C19.6242 29.6608 17.8179 30.7799 15.9606 31.4013C13.7714 32.134 11.9729 32.1322 10.1317 31.3958C7.68904 30.4187 5.75162 28.096 4.4336 24.5646C4.10528 23.6849 3.69924 22.3426 3.69924 22.1371C3.69924 22.06 3.84794 21.865 4.07582 21.6434C4.73052 21.0067 6.6304 20.0241 9.67894 18.7455C10.3165 18.4781 11.1649 17.8945 12.176 17.028C12.7337 16.55 12.9378 16.2635 13.2767 15.4821C14.0213 13.7657 14.2553 12.5019 14.121 10.9207C14.0816 10.4568 14.03 10.0699 14.0064 10.0608C13.9828 10.0517 13.9758 9.96017 13.9909 9.85734C14.0061 9.75385 13.9931 9.6806 13.9617 9.69319C13.9306 9.70566 13.6657 9.98198 13.3731 10.3071C12.5385 11.2346 11.5459 12.0265 10.8693 12.3045C10.2271 12.5685 8.96663 12.9759 8.0811 13.2057C7.62463 13.3242 7.08338 13.5011 6.87828 13.5987C6.67318 13.6964 6.49713 13.7681 6.48707 13.758C6.477 13.7479 6.51345 13.5663 6.5681 13.3542C6.64764 13.0458 6.668 12.6558 6.66993 11.4026C6.67222 9.90716 6.66535 9.81054 6.51803 9.26412C6.35083 8.64397 5.63564 7.01712 5.44741 6.82876C5.33269 6.714 5.33064 6.71437 5.27948 6.85888C4.93472 7.83226 4.7604 8.25477 4.46221 8.84023C4.02104 9.70621 3.90662 9.8774 2.83009 11.2821C1.63721 12.8387 1.27088 13.5626 0.920274 15.0566C0.75946 15.7419 0.731318 15.9798 0.729028 16.6734C0.726256 17.4887 0.861884 18.4637 1.08777 19.2524C1.13814 19.4284 1.24389 19.8578 1.3227 20.2066C1.40157 20.5554 1.53858 20.9941 1.62721 21.1816C1.7159 21.3691 1.79128 21.5763 1.79483 21.6419C1.79839 21.7076 1.84647 21.7702 1.90172 21.7809C1.98041 21.7963 2.01717 21.7248 2.07121 21.4507C2.24082 20.5912 2.84829 18.8295 3.19921 18.1793C3.7851 17.0939 4.50795 16.1318 5.27996 15.4097C6.31028 14.4461 7.11917 13.9877 8.45919 13.6079C10.1582 13.1263 11.3442 12.5912 12.0616 11.9827C12.6065 11.5205 13.3413 10.7978 13.6757 10.3953L13.912 10.1109L13.9315 11.0579C13.9623 12.5559 13.7613 13.5035 13.1281 14.8455C12.647 15.8652 12.4492 16.1267 11.7513 16.6658C10.488 17.6417 9.8891 17.9991 8.36881 18.6846C5.29009 20.0726 3.97845 20.9062 3.55644 21.7429C3.50059 21.8536 3.42437 21.9878 3.38701 22.041C3.33543 22.1146 3.34766 22.2549 3.43828 22.6283C3.55174 23.0954 3.55222 23.1189 3.44955 23.1189C3.30609 23.1189 2.92379 23.507 2.81804 23.7601C2.72369 23.9858 2.69531 23.9965 2.52787 23.8699C2.39115 23.7665 2.17316 23.7556 2.00819 23.8438C1.90046 23.9015 1.89172 23.8844 1.89274 23.6179C1.89335 23.4594 1.93354 23.0722 1.98204 22.7574C2.10351 21.9696 2.09989 21.8539 1.95426 21.8539C1.86382 21.8539 1.81399 21.9281 1.74205 22.1701C1.48966 23.0187 1.2566 25.1027 1.31781 25.9626C1.3327 26.1711 1.36126 26.5845 1.38138 26.8813C1.43091 27.6121 1.61124 28.5967 1.86165 29.5041C3.35007 34.8962 7.59378 39.0391 13.3086 40.6789C15.1159 41.1975 16.4483 41.3898 18.2804 41.3966C20.241 41.4037 21.2786 41.289 22.9198 40.8833C28.5642 39.4882 33.1275 35.5029 35.0184 30.3173C35.3756 29.3376 35.7032 27.9735 35.6774 27.5727C35.6574 27.2625 35.6861 27.1852 36.219 26.1121C36.5284 25.489 36.8457 24.8113 36.9239 24.6062C37.0023 24.4011 37.1097 24.1519 37.1627 24.0525C37.2158 23.9532 37.2593 23.8388 37.2595 23.7984C37.2597 23.7571 37.3005 23.7406 37.3528 23.7607C37.4135 23.7839 37.5894 23.6629 37.8591 23.4124C38.0864 23.2013 38.4269 22.8947 38.6158 22.7313C38.8046 22.5678 38.9767 22.3893 38.9982 22.3346C39.0198 22.2799 39.3085 22.0021 39.6399 21.7172C41.2886 20.3001 42.2736 18.7752 42.7615 16.8842C42.9826 16.0274 43.0441 15.4769 43.0441 14.3563C43.0441 12.5515 42.8724 11.6494 42.3336 10.6238C41.9844 9.95921 41.1976 9.20617 40.3583 8.73336L39.691 8.35742L39.5603 7.95238C39.4885 7.72962 39.4 7.39825 39.3636 7.21603C39.0962 5.87405 38.8427 5.09842 38.0169 3.09497C37.375 1.53794 37.2256 1.25764 36.7913 0.794656C36.5022 0.486539 36.3823 0.406001 36.0495 0.296006C35.4468 0.0968595 35.1589 0.0951129 34.1985 0.284621ZM35.9343 0.763092C36.2261 0.907362 36.6385 1.36487 36.9188 1.85521C37.2071 2.3594 38.4798 5.30865 38.7951 6.20307C38.8732 6.42456 39.0108 6.91249 39.101 7.28735C39.1912 7.66227 39.2909 8.01948 39.3226 8.08123C39.3789 8.19068 39.3756 8.19068 39.1898 8.08123C38.8248 7.86624 38.0088 7.17187 37.7061 6.8187C37.3125 6.35944 37.1106 6.05903 36.4998 5.02354C35.8562 3.93258 35.6122 3.5897 35.2414 3.25484C34.857 2.90775 34.6843 2.80016 33.7653 2.33579C32.9919 1.94502 31.8372 1.25686 31.8372 1.18669C31.8372 1.16506 31.9659 1.13259 32.1234 1.11452C32.2808 1.09651 32.6536 1.03495 32.9518 0.97772C33.2501 0.920494 33.8195 0.811644 34.2171 0.735925C35.0848 0.570572 35.5604 0.578102 35.9343 0.763092ZM28.5233 2.44939C28.5233 2.71793 29.189 2.95003 30.4471 3.12027C31.4055 3.2499 31.7547 3.34507 32.2772 3.61922C33.0479 4.02359 33.6776 5.04987 33.9449 6.33745C33.9834 6.52251 34.04 6.67388 34.0708 6.67388C34.2478 6.67388 33.9303 5.23974 33.6094 4.58953C33.0461 3.44844 32.1371 2.91094 30.5116 2.75781C29.9011 2.70029 28.9319 2.50036 28.6287 2.3694C28.5474 2.33428 28.5233 2.35265 28.5233 2.44939ZM26.8498 3.15448C26.4705 3.34339 26.4137 3.42103 25.9349 4.40207C25.6288 5.02951 25.7121 5.00103 25.5081 5.16985C25.4142 5.26913 25.4031 5.2948 25.2755 5.41629C25.1927 5.47518 25.1184 5.53695 24.96 5.66219C24.6491 5.9079 24.5466 6.05313 24.5466 6.24824C24.5466 6.393 24.6546 6.4151 24.7062 6.28089C24.7256 6.23035 24.9334 6.075 25.1681 5.93561C25.7296 5.60213 25.9447 5.37768 26.176 4.88385C26.7641 3.62861 26.762 3.63217 27.0463 3.42808C27.3065 3.24122 27.3814 3.07051 27.2259 3.01876C27.1917 3.00738 27.0225 3.06846 26.8498 3.15448ZM28.5564 4.1357C28.7045 4.27021 29.1092 4.34261 29.9461 4.3843C30.7403 4.42387 30.8983 4.4493 31.1813 4.58296C31.4811 4.72458 31.4921 4.73669 31.325 4.74259C30.76 4.76241 29.6401 5.5987 29.3086 6.2483C29.0864 6.68364 29.3022 6.76334 29.5673 6.3439C29.9209 5.78429 30.6419 5.28582 31.4025 5.07505C31.8473 4.9518 31.846 4.95096 32.1385 5.55948C32.3473 5.99398 32.4686 6.75388 32.5569 8.17984C32.5907 8.72649 32.6489 9.3364 32.6862 9.53519L32.754 9.89662L32.481 10.3789C32.1892 10.8945 31.8044 11.3251 31.3663 11.6265C31.1002 11.8095 31.0838 11.8125 30.427 11.8015C30.0593 11.7953 29.596 11.7561 29.3976 11.7145L29.0366 11.6388L28.1322 10.6489C27.6348 10.1044 26.9248 9.35357 26.5543 8.98034C26.1839 8.60716 25.8633 8.24682 25.842 8.17965C25.7068 7.75383 26.4047 7.07387 27.2838 6.7749C27.6077 6.66467 28.3732 6.63756 28.4329 6.73412C28.4534 6.76725 28.5247 6.79436 28.5915 6.79436C28.789 6.79436 28.7002 6.60883 28.4376 6.47263C27.9781 6.23439 27.1876 6.34559 26.5738 6.73473C26.0623 7.05911 26.2847 6.86695 26.926 6.43046C27.8565 5.79724 28.3218 5.16089 28.388 4.43086C28.4193 4.0854 28.4472 4.03648 28.5564 4.1357ZM23.6504 5.06402C23.6178 5.2407 23.4536 5.68472 23.2855 6.05066C23.1082 6.43691 22.9802 6.80201 22.9803 6.92086C22.9808 7.38283 23.4047 7.70209 24.3306 7.93798C25.0619 8.12436 25.3264 8.30796 26.0228 9.11304C26.2216 9.34285 27.0079 10.1699 27.7701 10.9507C28.5323 11.7316 29.2915 12.5518 29.4572 12.7735C29.6229 12.9952 29.7788 13.1772 29.8037 13.1781C29.9111 13.1816 29.8287 12.8765 29.6119 12.4682L29.3781 12.028L29.5683 12.0767C29.6729 12.1035 30.0588 12.1229 30.426 12.1198C31.0427 12.1145 31.1182 12.1007 31.4177 11.939C31.9071 11.6748 32.3531 11.1949 32.6178 10.6477L32.8454 10.1773L32.989 10.4871C33.3549 11.2763 33.8578 11.8841 34.5184 12.3354C34.6841 12.4486 35.0637 12.7333 35.3619 12.968C35.6602 13.2028 36.0416 13.4942 36.2096 13.6156C36.5632 13.8712 36.9742 14.2981 37.2399 14.6855L37.4258 14.9566L37.1703 14.9361C36.9976 14.9223 36.8353 14.9562 36.6694 15.0409L36.4239 15.1661L36.405 14.9729C36.3818 14.7346 36.1569 14.5866 35.9116 14.6482C35.8208 14.671 35.6278 14.799 35.4827 14.9327C35.2531 15.1443 35.2023 15.1669 35.0911 15.1073C35.0208 15.0697 34.8846 15.0562 34.7885 15.0773C34.5863 15.1217 34.2671 15.459 34.2093 15.6894C34.1286 16.0106 34.3369 18.3445 34.4645 18.5511C34.4815 18.5785 34.4505 18.601 34.3957 18.601C34.1835 18.601 33.9439 18.8069 33.88 19.0442C33.845 19.1742 33.8397 19.3019 33.8682 19.3304C33.8966 19.3588 34.2171 19.4885 34.5806 19.6187C34.9441 19.7489 35.4493 19.9391 35.7034 20.0414C35.9601 20.1448 36.276 20.2274 36.4144 20.2274C36.6417 20.2274 36.6712 20.2091 36.7508 20.0185C36.7989 19.9037 36.8387 19.7207 36.8394 19.6119C36.8405 19.4448 36.9253 19.3277 37.3887 18.854C37.6902 18.5459 37.9473 18.3043 37.96 18.3171C38.01 18.367 37.856 19.8326 37.6834 20.9503C37.5836 21.5963 37.5017 22.1981 37.5015 22.2876C37.5012 22.377 37.4634 22.4719 37.4175 22.4984C37.3715 22.5249 37.2352 22.7858 37.1146 23.0782C36.9939 23.3706 36.8571 23.6688 36.8105 23.7408C36.764 23.8129 36.6682 24.0209 36.5976 24.2031C36.5271 24.3854 36.2744 24.9779 36.0362 25.5199C35.7163 26.2474 35.5684 26.5187 35.4709 26.5562C35.203 26.6593 33.7828 26.7239 32.9745 26.6698C30.3321 26.4929 28.0213 25.5986 26.2033 24.0492L25.9167 23.805L26.3127 23.0553C26.8801 21.9814 27.251 20.6449 27.3857 19.189C27.4751 18.2233 27.403 17.4521 27.1141 16.2821C26.9996 15.8185 26.9162 15.4289 26.9288 15.4163C26.9413 15.4037 27.0884 15.4916 27.2556 15.6118C27.5773 15.8428 27.6799 15.8775 27.6795 15.7548C27.6781 15.4356 26.2404 13.8797 22.1016 9.71807C20.7142 8.32308 20.3892 7.91081 20.3892 7.54583C20.3892 7.47517 20.5506 7.18609 20.7479 6.90339C21.1452 6.33408 21.8156 5.70658 22.9052 4.88409C23.2782 4.60248 23.6035 4.34105 23.6282 4.30316C23.7 4.19262 23.7153 4.71338 23.6504 5.06402ZM30.8836 6.10066C30.7402 6.14542 30.5194 6.25372 30.3929 6.34137C30.01 6.60666 29.6074 7.51722 29.8731 7.51722C29.9195 7.51722 29.9854 7.43722 30.0195 7.33952C30.075 7.18049 30.0993 7.16681 30.2514 7.20958C30.7253 7.34283 31.2142 7.09995 31.3881 6.64479L31.492 6.3727H31.8755C32.2949 6.3727 32.3788 6.28276 32.125 6.10506C31.957 5.98735 31.2547 5.98488 30.8836 6.10066ZM5.76295 8.33043C6.24123 9.62916 6.31486 10.109 6.31733 11.9447C6.31992 13.8359 6.30474 13.9031 5.7988 14.2301C5.19199 14.6224 4.08118 15.7691 3.60705 16.4927C2.82322 17.6889 2.4675 18.5175 2.04663 20.1274C1.96138 20.4534 1.89166 20.7773 1.89166 20.8472C1.89166 21.079 1.78887 20.8701 1.69048 20.4383C1.29028 18.6817 1.12236 17.2499 1.22286 16.4506C1.41579 14.9168 1.98041 13.5143 2.90354 12.276C4.20801 10.5262 4.43697 10.1675 4.83819 9.24521C4.9796 8.92004 5.16368 8.36946 5.24719 8.02171C5.3307 7.6739 5.40601 7.39777 5.41463 7.40813C5.42318 7.41843 5.57996 7.83347 5.76295 8.33043ZM27.8299 7.50902C27.0564 7.73052 26.2337 8.22212 26.2337 8.46271C26.2337 8.55717 26.451 8.56813 26.5076 8.47651C26.5337 8.43428 26.5927 8.45265 26.6768 8.52921C26.8943 8.72692 27.0788 8.79535 27.2883 8.75601C27.6511 8.688 27.981 8.31784 27.981 7.97882C27.981 7.8519 28.0163 7.82678 28.2424 7.79293C28.7346 7.71914 28.9134 7.8816 29.0656 8.54126C29.2122 9.17599 29.3685 9.61326 29.4615 9.64898C29.6516 9.72193 30.2554 9.28755 30.1923 9.12328C30.1582 9.03437 30.1233 9.04052 29.8744 9.17942C29.7206 9.26526 29.5748 9.31267 29.5503 9.28472C29.5259 9.25683 29.4314 8.94938 29.3403 8.6015C29.1207 7.76299 29.0192 7.60414 28.6286 7.48818C28.2616 7.37921 28.2853 7.37855 27.8299 7.50902ZM36.0254 7.63655C35.9759 7.71673 36.0912 8.32814 36.2433 8.79113C36.4003 9.26954 36.6755 9.81704 36.8668 10.0319C36.9481 10.1232 37.2232 10.4824 37.4781 10.8303C37.7331 11.1782 38.2712 11.8016 38.6739 12.2158C39.4733 13.038 39.7143 13.3553 39.9695 13.9213C40.4732 15.0388 40.5559 16.2744 40.2222 17.6965C39.9986 18.649 40.0125 18.5408 40.1134 18.5408C40.1977 18.5408 40.4571 17.9373 40.6958 17.1854C40.9007 16.54 40.9243 15.6134 40.7569 14.7872C40.5963 13.9944 40.4562 13.5757 40.2041 13.1353C39.972 12.7297 39.3747 12.0861 38.7771 11.5978C38.5045 11.375 38.1091 10.947 37.7413 10.4766C37.4142 10.0582 37.0776 9.63145 36.9934 9.52814C36.807 9.29966 36.552 8.74029 36.3307 8.07442C36.1731 7.60029 36.1067 7.50511 36.0254 7.63655ZM5.37359 8.81505C5.35184 8.83679 5.34811 9.34653 5.36528 9.94788C5.3936 10.9386 5.38197 11.1231 5.24164 11.9146C5.15651 12.395 4.99298 13.0917 4.87832 13.4628C4.61917 14.3015 4.56651 14.5651 4.65803 14.5651C4.73558 14.5651 4.76492 14.4971 5.09294 13.557C5.47126 12.4726 5.64347 11.5489 5.64606 10.5894C5.64733 10.1421 5.62816 9.59579 5.60352 9.37532C5.56026 8.98847 5.45548 8.73312 5.37359 8.81505ZM30.2507 9.95198C30.2306 10.0044 30.163 10.0472 30.1005 10.0472C30.038 10.0472 29.8473 10.1947 29.6768 10.3749C29.3416 10.7292 29.2681 10.9351 29.5024 10.8628C29.8303 10.7616 30.0847 10.7322 30.1785 10.7848C30.3056 10.8559 30.6144 10.7366 30.6622 10.5979C30.6809 10.5435 30.8174 10.4042 30.9654 10.2885C31.332 10.0018 31.316 9.92692 30.8882 9.92589C30.6977 9.92547 30.4845 9.90975 30.4145 9.89096C30.3308 9.86849 30.2747 9.88939 30.2507 9.95198ZM3.97285 11.6285C3.91018 11.7362 3.61693 12.213 3.32109 12.688C2.71369 13.6635 2.4246 14.3587 2.1002 15.6242C1.91577 16.3435 1.89166 16.5264 1.89166 17.2055C1.89166 17.9338 1.9959 18.6085 2.12899 18.7418C2.22986 18.8428 2.23661 18.6811 2.15123 18.2095C1.98939 17.3151 2.14707 16.1964 2.63518 14.7759C2.91951 13.9485 3.03254 13.7035 3.44564 13.0192C3.90651 12.2558 4.18126 11.7088 4.18126 11.5549C4.18126 11.3772 4.10293 11.4049 3.97285 11.6285ZM11.615 13.4826C11.3126 13.6363 10.7432 13.8634 10.3497 13.9873C8.87234 14.4524 7.50672 14.946 6.95499 15.2145C5.57123 15.8879 4.17017 17.2661 3.4654 18.6472C3.33302 18.9066 3.29537 19.2034 3.39478 19.2034C3.42618 19.2034 3.52065 19.0665 3.6047 18.8992C4.21066 17.693 5.11373 16.7206 6.35186 15.941C7.0253 15.5169 7.42573 15.3499 9.39195 14.6726C10.9694 14.1293 11.6919 13.8099 12.0768 13.4856C12.4387 13.1807 12.212 13.1792 11.615 13.4826ZM30.9027 14.0416C30.7176 14.2266 30.6918 14.2366 30.6598 14.1357C30.5535 13.8008 30.0457 13.842 29.7137 14.2124C29.5892 14.3513 29.4869 14.4808 29.4864 14.5C29.4859 14.5192 29.4635 14.5696 29.4365 14.612C29.3971 14.6742 29.3555 14.6725 29.2227 14.6037C28.8934 14.4328 28.6942 14.6283 28.6171 15.1978C28.561 15.6122 28.7976 16.588 29.1835 17.5338C29.3487 17.9385 29.4579 18.2786 29.4261 18.2895C29.1607 18.3807 28.9009 18.9795 29.0781 19.0919C29.1209 19.1191 29.4326 19.1417 29.7706 19.1422C30.1151 19.1427 30.5354 19.1822 30.7268 19.2321C30.9557 19.2917 31.2003 19.309 31.4679 19.2845C31.6876 19.2644 31.9336 19.2424 32.0146 19.2356C32.2536 19.2156 32.3006 18.9604 32.129 18.6144L31.9878 18.3299L32.3089 17.8521C32.7506 17.1948 33.0056 16.6689 33.1884 16.0388C33.386 15.3574 33.3979 14.8137 33.2188 14.6517C33.103 14.5468 33.0764 14.5452 32.8422 14.6292L32.5903 14.7196L32.5898 14.429C32.589 13.98 32.3511 13.8928 31.9906 14.2093L31.7782 14.3957L31.7174 14.2244C31.6101 13.9225 31.5583 13.8727 31.3317 13.8535C31.146 13.8377 31.0757 13.8686 30.9027 14.0416ZM31.5279 14.3392C31.5618 14.4469 31.5977 14.6006 31.6079 14.6808C31.6362 14.9056 31.7384 14.8932 32.0449 14.6281C32.1998 14.494 32.3406 14.3843 32.3577 14.3843C32.375 14.3843 32.3702 14.5605 32.3471 14.7759C32.2985 15.2295 32.3391 15.2577 32.6937 15.0168C33.184 14.6837 33.274 14.9312 32.977 15.7957C32.8002 16.3102 32.0678 17.6904 31.69 18.2208C31.5721 18.3864 31.5722 18.4458 31.6905 18.5441C31.7424 18.5872 31.8256 18.7012 31.8754 18.7975L31.966 18.9726L31.3531 18.9332C30.5828 18.8835 30.3623 18.8162 30.8002 18.7643C31.1537 18.7224 31.3552 18.6329 31.3552 18.5178C31.3552 18.4591 31.2231 18.4375 30.8438 18.4338C30.5626 18.4311 30.2779 18.4116 30.2111 18.3904C30.1118 18.3589 30.0898 18.379 30.0898 18.5016C30.0898 18.6103 30.1351 18.6673 30.2555 18.7102C30.3918 18.7588 30.3439 18.7696 29.9849 18.7713C29.7448 18.7724 29.4941 18.7906 29.4276 18.8117C29.2285 18.8748 29.2907 18.7427 29.525 18.6045C29.7264 18.4857 29.7412 18.4581 29.7133 18.2522C29.6966 18.1293 29.5674 17.7306 29.426 17.3661C29.1406 16.63 28.8301 15.537 28.8267 15.2562C28.8255 15.1558 28.8681 15.0116 28.9213 14.9356L29.0181 14.7975L29.1171 14.9362C29.1716 15.0125 29.2569 15.1816 29.3066 15.312C29.4335 15.6448 29.5476 15.6632 29.5476 15.3507C29.5476 14.9335 30.0124 14.2036 30.2781 14.2036C30.4053 14.2036 30.6321 14.479 30.6321 14.6334C30.6321 14.8046 30.702 14.7724 31.0422 14.4446C31.2141 14.2789 31.3799 14.1434 31.4105 14.1434C31.4412 14.1434 31.494 14.2315 31.5279 14.3392ZM30.6152 15.0238C30.5536 15.0853 30.5612 17.1553 30.623 17.1553C30.676 17.1553 30.7558 16.1238 30.7484 15.5345C30.7439 15.1749 30.686 14.9529 30.6152 15.0238ZM36.2133 15.2927C36.2342 15.4241 36.2725 15.5446 36.2983 15.5605C36.3241 15.5765 36.464 15.5386 36.6092 15.4764C36.7543 15.4142 36.9606 15.3441 37.0674 15.3206C37.2492 15.2807 37.2679 15.2923 37.354 15.4985L37.4462 15.719L37.1451 16.1884C36.8558 16.6392 36.3561 17.6008 36.3561 17.7067C36.3561 17.7347 36.39 17.7574 36.4314 17.757C36.4952 17.7565 37.3484 16.4898 37.5521 16.0932C37.6849 15.8346 37.7909 15.8755 37.8548 16.2098C38.0136 17.0408 38.0153 17.029 37.6844 17.4264C37.4076 17.7588 37.3025 17.9986 37.4337 17.9986C37.4631 17.9986 37.5986 17.8837 37.735 17.7432L37.9829 17.4879V17.6592C37.9829 17.8694 37.7654 18.1375 37.3973 18.3813C37.2455 18.4819 36.983 18.7332 36.814 18.9399C36.5301 19.2871 36.5067 19.3401 36.5067 19.636C36.5067 19.9201 36.4917 19.9585 36.3743 19.9752C36.3015 19.9856 35.9219 19.8588 35.5308 19.6935C35.1397 19.5283 34.7383 19.3736 34.6389 19.35C34.3922 19.2913 34.1268 19.1525 34.1268 19.0822C34.1268 19.0503 34.2149 18.9875 34.3226 18.9424C34.6732 18.7959 34.6718 18.804 34.5775 17.4838C34.4587 15.8199 34.4589 15.814 34.647 15.5905C34.8608 15.3365 35.1136 15.3513 35.1362 15.6192C35.1917 16.2752 35.2245 16.4324 35.306 16.4324C35.3635 16.4324 35.3921 16.3653 35.3921 16.2305C35.3921 16.1193 35.4098 15.8586 35.4315 15.6511L35.471 15.2738L35.7738 15.1335C35.9404 15.0563 36.0988 15.0068 36.1259 15.0235C36.1529 15.0402 36.1922 15.1614 36.2133 15.2927ZM31.6024 15.2711C31.2795 16.5044 31.2559 16.6362 31.3653 16.5997C31.4403 16.5747 31.7765 15.4687 31.7768 15.2463C31.777 15.0176 31.6646 15.0336 31.6024 15.2711ZM10.1764 15.8039C9.75859 16.1685 9.11974 16.5348 7.97337 17.0673C6.33005 17.8306 6.26533 17.8639 5.43554 18.374C4.85994 18.7279 4.57652 18.9477 4.287 19.2648C3.89572 19.6934 3.33772 20.5562 3.33772 20.7326C3.33772 20.9229 3.45859 20.8238 3.7522 20.3931C4.51626 19.2719 5.35094 18.6888 7.98428 17.4367C8.50185 17.1905 9.11823 16.8765 9.35406 16.7389C9.7936 16.4822 10.568 15.7961 10.568 15.6633C10.568 15.5351 10.4261 15.5861 10.1764 15.8039ZM29.6077 16.2367C29.6075 16.4868 29.7952 17.4787 29.8548 17.5428C29.9615 17.6576 29.9797 17.5126 29.9123 17.0839C29.8074 16.4159 29.7222 16.071 29.6621 16.071C29.6322 16.071 29.6078 16.1456 29.6077 16.2367ZM35.9783 16.5981C35.8169 17.0582 35.5031 18.4164 35.5432 18.4813C35.6172 18.601 35.6857 18.5343 35.7761 18.2546C35.8975 17.8785 36.1754 16.6213 36.1754 16.4479C36.1754 16.2245 36.0853 16.2931 35.9783 16.5981ZM31.7444 17.0482C31.5368 17.4814 31.4798 17.7577 31.598 17.7577C31.6323 17.7577 31.6767 17.7102 31.6968 17.6523C31.717 17.5943 31.811 17.3661 31.9058 17.1452C32.0922 16.7109 32.1123 16.6132 32.0156 16.6132C31.9811 16.6132 31.8591 16.8089 31.7444 17.0482ZM34.7508 18.8729C34.6701 19.0832 35.0625 19.3191 35.6005 19.3836C35.9988 19.4314 36.1151 19.4113 36.1151 19.2946C36.1151 19.2055 35.8854 19.1085 35.5427 19.0529C35.4101 19.0314 35.212 18.9616 35.1024 18.8978C34.8622 18.7579 34.7967 18.7532 34.7508 18.8729ZM3.78353 23.8545C3.93411 24.3959 4.26869 25.2739 4.63147 26.0798L4.94749 26.7818L4.80264 26.8478C4.62363 26.9293 4.37768 27.4396 4.32351 27.8418L4.28375 28.1372L4.1771 27.9321C4.0193 27.6287 3.57602 27.2235 3.35309 27.179C3.03447 27.1152 2.73128 27.496 2.51817 28.2277C2.48485 28.342 2.13605 28.126 2.0999 27.9686C1.98421 27.4648 1.88244 26.4771 1.85478 25.5886C1.82387 24.5961 1.82924 24.523 1.94631 24.3387C2.04187 24.1883 2.11291 24.1429 2.25318 24.1429C2.47334 24.1429 2.63036 24.3649 2.73954 24.8306C2.90288 25.5269 3.00657 25.492 3.0523 24.7252C3.08689 24.1461 3.23059 23.7263 3.45196 23.5577C3.6244 23.4264 3.67779 23.4741 3.78353 23.8545ZM26.1748 24.4358C26.7565 24.9606 27.4822 25.4315 28.3669 25.858C29.487 26.398 30.6218 26.7593 31.8974 26.9819C32.4013 27.0698 34.4786 27.0927 35.0707 27.0169C35.4189 26.9722 35.4404 26.9765 35.4121 27.0847C35.3857 27.1856 35.2971 27.2068 34.7092 27.2525C33.8297 27.3208 32.6412 27.2913 31.7769 27.1797C30.4344 27.0063 28.7016 26.3082 27.1393 25.3115C26.5228 24.9181 25.6914 24.2363 25.6914 24.1239C25.6914 24.0288 25.8048 24.1019 26.1748 24.4358ZM25.8789 24.9279C26.7085 25.7703 28.9737 26.9982 30.5869 27.4801C31.6029 27.7836 33.0843 27.8861 34.2171 27.7314C34.6148 27.6771 35.0132 27.6171 35.1024 27.5982C35.259 27.565 35.2639 27.5718 35.2432 27.796C35.1753 28.5338 34.623 30.1491 34.0093 31.4049L33.5368 32.3721L33.1646 32.5704C32.8586 32.7334 32.7534 32.7614 32.5729 32.7275C32.2703 32.6707 32.0349 32.5398 31.9499 32.3809C31.848 32.1907 31.8669 31.1536 31.977 30.8896C32.1189 30.5492 32.1657 29.9631 32.0581 29.8738C31.9847 29.8129 31.9512 29.8242 31.8727 29.9363C31.8201 30.0115 31.7769 30.1099 31.7769 30.1549C31.7769 30.3797 30.9011 31.3082 30.3382 31.6801C29.6836 32.1126 29.4133 32.072 29.2131 31.511C29.0933 31.1752 29.1076 30.8829 29.2743 30.2652C29.3559 29.9626 29.4197 29.6329 29.4161 29.5326C29.4125 29.4324 29.4448 29.2528 29.4879 29.1336C29.5882 28.8563 29.5356 28.6909 29.3746 28.777C29.3117 28.8107 29.2438 28.9036 29.2237 28.9834C29.1233 29.3834 27.2749 30.7088 26.8174 30.7088C26.575 30.7088 26.2748 30.4591 26.0934 30.1064C25.9422 29.8129 25.9257 29.7265 25.9481 29.3481C25.9698 28.9802 26.0164 28.836 26.2843 28.3069C26.4553 27.969 26.5952 27.6657 26.5952 27.6327C26.5952 27.5997 26.5524 27.5563 26.5001 27.5362C26.4351 27.5113 26.2775 27.631 26.0023 27.9146C25.5392 28.3915 25.0086 28.7012 24.5175 28.7811C24.0688 28.8541 23.8528 28.7733 23.7009 28.4758C23.3537 27.7953 23.8431 26.5176 24.9576 25.1949C25.2452 24.8535 25.4896 24.5721 25.5008 24.5694C25.5119 24.5667 25.682 24.7281 25.8789 24.9279ZM31.3946 25.1439C31.151 25.3875 31.2014 25.7693 31.4772 25.7693C31.5311 25.7693 31.6362 25.7044 31.7108 25.625C31.876 25.4491 31.862 25.1868 31.6808 25.0673C31.5674 24.9924 31.5384 25.0002 31.3946 25.1439ZM23.2464 27.2903C23.2001 27.4643 23.1619 27.7713 23.1615 27.9728C23.1609 28.282 23.1898 28.3826 23.3473 28.6205C23.6604 29.093 23.7857 29.1616 24.2642 29.1224C24.5887 29.0958 24.7679 29.0385 25.1197 28.8488C25.5527 28.6153 25.5632 28.6129 25.5076 28.7592C25.4218 28.9846 25.4382 29.8407 25.5325 30.0632C25.6492 30.3387 26.0749 30.8861 26.275 31.018C26.3773 31.0854 26.5534 31.1299 26.719 31.1301C27.0301 31.1306 27.1515 31.0629 28.1963 30.3065L28.8634 29.8235L28.7152 30.1904C28.4291 30.8987 28.5466 31.6056 29.0414 32.1532C29.3348 32.4779 29.4864 32.5365 29.7752 32.4368C30.0913 32.3278 30.9204 31.7334 31.2545 31.3763C31.5351 31.0762 31.5359 31.0759 31.5359 31.249C31.5359 31.3444 31.5051 31.556 31.4675 31.7191C31.2824 32.5205 31.7476 33.2388 32.4516 33.2388C32.6141 33.2388 32.8312 33.1952 32.9343 33.142C33.1128 33.0497 33.105 33.069 32.7699 33.5486C32.1452 34.4429 31.7745 34.8781 30.8482 35.8047C29.9362 36.717 28.8172 37.6443 28.7763 37.5216C28.7374 37.405 28.951 36.8323 29.1671 36.4739C29.3689 36.1392 29.394 35.9496 29.2365 35.9496C29.1959 35.9496 29.0219 36.0949 28.8498 36.2726C28.4292 36.7067 27.3065 37.4309 26.9698 37.4853C26.2421 37.6028 26.2008 37.0043 26.8019 35.046C26.955 34.5471 27.0475 34.1497 27.0174 34.1193C26.9243 34.0253 26.7848 34.13 26.6496 34.3955C26.3173 35.0478 25.5445 35.6648 24.8109 35.8633C23.7745 36.1438 23.5646 35.6098 24.1817 34.2629C24.3562 33.8819 24.532 33.4823 24.5722 33.3749C24.6124 33.2674 24.6994 33.1183 24.7656 33.0435C24.9439 32.8419 25.0889 32.5929 25.0889 32.488C25.0889 32.3514 24.9224 32.3758 24.8021 32.53C24.4068 33.0367 23.7635 33.4561 23.0102 33.6978C22.6246 33.8215 22.4537 33.8459 22.1561 33.8194C21.6464 33.7741 21.3916 33.6576 21.2956 33.4258C21.1141 32.9878 21.3791 32.4489 22.2628 31.4596C22.6311 31.0472 22.7784 30.7691 22.6284 30.7691C22.6006 30.7691 22.4312 30.8739 22.2518 31.002C21.8517 31.2878 21.2843 31.5777 20.9478 31.6683C20.624 31.7554 20.2131 31.6593 20.0176 31.4506C19.8972 31.3221 19.8782 31.243 19.8849 30.8987C19.8893 30.6776 19.9399 30.3291 19.9974 30.1243C20.1016 29.753 20.1041 29.7502 20.7857 29.2333C21.5231 28.6739 22.3731 27.9305 22.9481 27.3421C23.1458 27.1397 23.3128 26.9741 23.3191 26.9741C23.3255 26.9741 23.2928 27.1164 23.2464 27.2903ZM5.58851 27.8819C5.94045 28.4468 6.45839 29.1322 6.98035 29.7235C7.24854 30.0273 7.25106 30.0339 7.11049 30.0692C6.74567 30.1607 6.67764 30.8896 6.97854 31.4832L7.1352 31.7922L6.63733 31.4373C5.60388 30.7007 5.11517 30.8036 5.11517 31.7578V32.1951L4.80035 32.0845C4.23525 31.8859 3.98725 31.9537 3.87205 32.3382L3.79956 32.58L3.62995 32.292C3.2239 31.6024 2.63566 30.1215 2.37387 29.1296L2.20353 28.4842L2.34832 28.5791C2.42797 28.6312 2.57679 28.8539 2.6791 29.0739C2.78141 29.294 2.89794 29.5417 2.93801 29.6246C2.97904 29.7093 3.06267 29.7752 3.12913 29.7752C3.22655 29.7752 3.2462 29.7358 3.24066 29.5517C3.23361 29.3142 2.96566 28.7244 2.7946 28.5696C2.6982 28.4824 2.69844 28.4579 2.79828 28.1554C2.95892 27.6685 3.08545 27.456 3.21469 27.456C3.35664 27.456 3.47178 27.6158 3.90892 28.4198C4.26899 29.0821 4.46306 29.3425 4.5544 29.286C4.58537 29.2669 4.59158 28.9757 4.5688 28.6102C4.52735 27.9456 4.58248 27.575 4.76414 27.2979C4.84801 27.1699 4.87 27.165 5.04492 27.2364C5.18525 27.2937 5.3269 27.4618 5.58851 27.8819ZM19.5812 30.242C19.5599 30.3165 19.5259 30.5578 19.5056 30.7782C19.4746 31.1176 19.4895 31.2214 19.6034 31.4568C19.8476 31.961 20.5146 32.1847 21.0755 31.9504L21.2759 31.8667L21.0788 32.1594C20.6843 32.7456 20.6566 33.1986 20.9842 33.709C21.2233 34.0815 21.3812 34.1543 22.0246 34.1889C22.6302 34.2213 23.0796 34.1013 23.6579 33.7526C23.8484 33.6377 24.0043 33.5608 24.0043 33.5818C24.0043 33.6027 23.9246 33.7442 23.8271 33.8962C23.3209 34.6852 23.1971 35.31 23.4492 35.8038C23.6572 36.2112 23.7787 36.2814 24.2671 36.2768C24.7856 36.2719 25.2778 36.0736 25.8571 35.6363C26.0643 35.4799 26.2337 35.3597 26.2337 35.3692C26.2337 35.3786 26.1642 35.5876 26.0793 35.8336C25.8955 36.366 25.8264 37.0472 25.9266 37.3401C25.9653 37.4533 26.0619 37.6253 26.1413 37.7224C26.2651 37.8737 26.336 37.9023 26.6363 37.9223C26.9492 37.9431 27.0385 37.9197 27.4689 37.7044C27.734 37.5718 28.0322 37.4089 28.1316 37.3424L28.3124 37.2215L28.2917 37.5843L28.2711 37.947L27.87 38.2053C25.6281 39.6483 22.5252 40.6676 19.7789 40.8632C19.2196 40.903 19.187 40.8983 18.8751 40.7339C18.3873 40.4768 18.3908 40.4808 18.491 40.2871C18.6606 39.9594 19.4167 39.4885 20.4796 39.0489C21.0759 38.8021 21.2456 38.6474 21.0162 38.5594C20.856 38.498 20.3292 38.629 19.7985 38.8623C18.9542 39.2334 18.015 39.2138 17.3779 38.8117C17.128 38.654 17.0783 38.5154 17.2109 38.3464C17.2982 38.235 19.2891 37.0343 19.3886 37.0329C19.5334 37.0309 19.6183 36.9267 19.5782 36.8004C19.5245 36.6313 19.3812 36.6383 18.9263 36.832C18.0904 37.1882 17.495 37.2769 16.8014 37.1487C16.2139 37.0401 15.8098 36.7551 15.8102 36.4494C15.8105 36.2497 15.9901 35.9367 16.2185 35.7377C16.4783 35.5114 17.8624 34.694 18.2548 34.535C18.5456 34.4173 18.6153 34.3619 18.6308 34.2363C18.6469 34.1058 18.626 34.0822 18.4941 34.0822C18.4083 34.0822 18.1713 34.15 17.9673 34.2328C17.1542 34.5632 16.0595 34.5957 15.4334 34.3082C15.2429 34.2207 15.087 34.1327 15.087 34.1127C15.087 34.0926 15.1259 34.001 15.1734 33.909C15.2882 33.6873 16.1208 33.3 16.9247 33.0945C17.7337 32.8877 18.1252 32.7316 18.1504 32.6062C18.1837 32.4408 18.0869 32.3976 17.8184 32.4579C17.6435 32.4973 17.3617 32.4873 16.8895 32.425C15.832 32.2855 15.4552 32.0279 16.0335 31.8395C16.912 31.5532 18.2809 30.902 19.0938 30.3836C19.5812 30.0727 19.634 30.0574 19.5812 30.242ZM8.21986 30.8286C8.85017 31.2935 9.91031 31.8471 10.4927 32.0155C10.8817 32.1281 10.9806 32.2148 10.7199 32.2148C10.4559 32.2148 10.0863 32.4009 9.99334 32.5807C9.86265 32.8333 9.8832 33.2719 10.0404 33.5866C10.193 33.892 10.4552 34.1227 11.1087 34.5267C11.558 34.8044 11.5586 34.805 11.34 34.805C11.2195 34.805 10.9094 34.8455 10.6508 34.895C10.0376 35.0122 9.93309 35.1125 9.94213 35.575C9.95231 36.0933 10.1522 36.406 10.6435 36.6724L11.0324 36.8832L10.3634 36.8878C9.44775 36.894 9.04623 36.9531 8.88222 37.1058C8.76394 37.216 8.75045 37.2779 8.77178 37.6126L8.79606 37.9938L8.62277 37.8842C7.79267 37.3588 6.07283 35.7611 5.30816 34.805C4.71925 34.0688 4.17849 33.2639 4.11269 33.0258C4.04262 32.772 4.18083 32.4558 4.36183 32.4558C4.54584 32.4558 5.11011 32.7257 5.56779 33.0327C5.96817 33.3012 6.16959 33.3449 6.16959 33.1632C6.16959 33.1195 6.03185 32.9492 5.86345 32.7848C5.54646 32.4753 5.32606 32.1226 5.32606 31.925C5.32606 31.8623 5.35582 31.7257 5.39222 31.6214C5.50356 31.3021 5.72035 31.3551 6.70837 31.9437C7.809 32.5994 7.8904 32.6059 7.5598 32.0119C7.20563 31.3755 7.03765 30.6482 7.20593 30.4799C7.37597 30.31 7.63957 30.4005 8.21986 30.8286ZM15.5269 32.2453C15.6307 32.463 15.9404 32.6961 16.1263 32.6965C16.3397 32.6969 16.213 32.7933 15.6578 33.053C14.9471 33.3855 14.834 33.5002 14.7989 33.9242C14.7659 34.3211 14.8503 34.426 15.3662 34.6292C15.6503 34.7411 15.834 34.7681 16.3026 34.7673L16.8857 34.7662L16.5145 34.9814C15.7319 35.4351 15.3827 35.9635 15.5057 36.5081C15.6495 37.1459 16.1927 37.4501 17.1958 37.4546L17.6477 37.4566L17.2756 37.6927C17.0709 37.8225 16.8743 37.9831 16.8387 38.0496C16.7467 38.2214 16.7587 38.5193 16.8666 38.7467C17.0261 39.0827 17.7061 39.386 18.3104 39.3906L18.6735 39.3934L18.361 39.7058C18.1892 39.8776 18.0296 40.0939 18.0063 40.1863C17.9602 40.3701 18.1191 40.8 18.2628 40.8805C18.3079 40.9057 18.0931 40.9175 17.7854 40.9067C15.8058 40.8371 13.8631 40.445 12.1576 39.7706C10.5512 39.1354 9.69069 38.6021 9.30658 38.0037C8.92903 37.4154 9.02616 37.3679 10.6283 37.3559C11.3076 37.3509 11.8974 37.3441 11.9388 37.3409C11.9802 37.3377 12.0141 37.2586 12.0141 37.1653C12.0141 37.0103 11.9735 36.9788 11.5454 36.8021C11.0288 36.5889 10.6025 36.3285 10.4834 36.1535C10.338 35.9399 10.2652 35.6434 10.3288 35.5246C10.4031 35.3858 10.642 35.3155 11.5591 35.1624C11.955 35.0963 12.2905 35.0307 12.3046 35.0166C12.3745 34.9467 12.2346 34.8016 11.9953 34.6958C11.2879 34.3829 10.6401 33.8327 10.4332 33.369C10.2727 33.009 10.327 32.8369 10.6456 32.6966C10.9678 32.5547 12.0346 32.3955 12.6631 32.3955C13.3066 32.3955 14.2172 32.297 14.846 32.1593C15.1276 32.0976 15.3734 32.0442 15.3921 32.0406C15.4108 32.037 15.4715 32.1291 15.5269 32.2453Z" fill="white"/>
</svg>
