<svg width="52" height="33" viewBox="0 0 52 33" fill="none" xmlns="http://www.w3.org/2000/svg">
<path fill-rule="evenodd" clip-rule="evenodd" d="M41.8463 0.630785C41.5409 0.672164 40.9795 0.708748 40.5988 0.712079C40.2181 0.71541 39.8885 0.729322 39.8663 0.743056C39.8292 0.765966 39.4569 0.804657 37.8419 0.953397C34.6073 1.25135 33.9288 1.34053 32.2884 1.68318C31.6132 1.82421 30.8109 1.98213 30.5054 2.03408C29.5919 2.18949 28.434 2.44635 27.3487 2.73436C26.786 2.88369 26.0757 3.04593 25.7703 3.09491C24.8934 3.23547 22.9234 3.75854 21.2982 4.28231C20.9124 4.40668 20.36 4.57851 20.0706 4.66413C19.7813 4.74975 19.2277 4.93402 18.8405 5.07364C18.4534 5.21321 17.6379 5.47556 17.0283 5.65651C15.4338 6.12996 13.1554 6.91358 12.4418 7.23386C12.1042 7.3854 11.5781 7.64881 11.2727 7.81923C10.9672 7.98966 9.8709 8.59005 8.83636 9.15345C5.89773 10.7539 4.37945 11.744 3.05929 12.9211C2.11308 13.7646 1.3322 14.7232 0.978351 15.4756C0.545059 16.397 0.430305 17.0955 0.601237 17.7704C0.647945 17.9548 0.782165 18.5371 0.899549 19.0644C1.01693 19.5916 1.17816 20.1965 1.25784 20.4086C1.43959 20.8921 1.79969 21.5831 1.8699 21.5831C1.89901 21.5831 2.08964 21.7245 2.29348 21.8974C2.49733 22.0703 2.8451 22.3121 3.0663 22.4349C3.28751 22.5575 3.61628 22.758 3.79691 22.8802C4.31181 23.2285 4.59177 23.3259 5.52283 23.4806C6.64114 23.6663 7.22829 23.7285 8.37898 23.7828C8.89342 23.8071 9.33402 23.8317 9.35816 23.8374C9.3823 23.8431 9.64928 23.851 9.95151 23.8551L10.501 23.8624L10.6012 24.3153C10.7317 24.9052 10.9912 25.6777 11.2776 26.3284C11.4837 26.7964 11.6529 27.0615 12.5157 28.2673C12.9022 28.8076 14.0761 29.8411 15.0432 30.4926C16.054 31.1734 17.9836 31.9415 19.453 32.2478C20.2055 32.4047 21.4172 32.5088 22.515 32.5109C23.2536 32.5123 24.3843 32.3061 24.8934 32.0772C25.0703 31.9977 25.4027 31.853 25.6321 31.7556C26.6322 31.3313 27.2978 30.8616 28.2734 29.8921C29.8657 28.3095 31.4286 25.8362 31.848 24.2355C32.0343 23.5245 32.103 22.653 32.0627 21.511L32.0261 20.4747L32.1864 20.4365C32.356 20.3961 34.9056 19.4779 35.6497 19.1892C37.8802 18.324 40.7824 17.0316 42.0801 16.3257C42.482 16.1071 42.9819 15.8505 43.1908 15.7555C44.3239 15.2408 46.2434 13.9481 47.3414 12.9603C49.1649 11.3199 50.0062 10.4101 50.9275 9.08262C51.6516 8.03922 51.6549 8.02776 51.5327 6.94742C51.4194 5.94563 51.0537 4.32223 50.814 3.7576C50.4229 2.83635 49.8334 2.29609 48.5982 1.72696C47.8557 1.38489 47.1119 1.15806 45.7596 0.8614C44.9732 0.688931 44.6071 0.641187 43.7462 0.598873C42.4905 0.537156 42.5442 0.536281 41.8463 0.630785ZM44.442 1.12469C45.1276 1.21277 46.5606 1.54274 47.3968 1.80504C48.2091 2.05985 49.3181 2.6059 49.6901 2.93424C49.8404 3.06697 50.045 3.30805 50.1446 3.46994L50.3258 3.76432L50.0758 3.61845C49.2622 3.14359 47.8584 2.75599 45.4999 2.35495C44.9534 2.26196 44.2826 2.14618 44.0093 2.09761C42.7006 1.86501 40.7389 1.74268 39.6249 1.82421C37.5198 1.97833 36.4651 2.06698 36.0589 2.12402C35.3148 2.22852 33.7753 2.46885 33.253 2.56201C32.0734 2.77241 31.7632 2.82747 31.28 2.91186C30.2529 3.09128 29.5268 3.23412 28.8978 3.38035C28.5441 3.46258 27.755 3.64451 27.1441 3.7846C23.5555 4.6075 22.4094 4.93409 18.3753 6.28338C16.5426 6.89635 15.3404 7.34303 14.1663 7.84711C13.877 7.97137 13.3772 8.17814 13.0556 8.30666C11.9102 8.76439 10.4227 9.49383 9.5309 10.0351C9.251 10.2049 8.82099 10.4493 8.57523 10.5782C8.32947 10.707 8.05325 10.8653 7.96142 10.9299C7.86958 10.9945 7.37385 11.3059 6.85989 11.622C5.4428 12.4933 4.52828 13.1776 3.613 14.0514C3.43494 14.2214 2.63412 15.1234 2.14266 15.7075C1.74807 16.1765 1.22598 17.3713 1.21376 17.8333C1.21008 17.9706 1.19915 17.9615 1.11988 17.755C0.882187 17.1359 1.15209 16.0255 1.75666 15.1356C2.10379 14.6245 2.95441 13.6609 3.45049 13.2168C4.38196 12.383 5.84184 11.3777 7.47288 10.4468C10.4005 8.7759 12.5715 7.64238 13.4356 7.33362C13.7089 7.23596 14.3797 6.99493 14.9263 6.79803C15.4729 6.60108 16.3673 6.30822 16.9139 6.14714C17.4605 5.98613 18.276 5.7236 18.7261 5.56376C19.5287 5.27879 20.8695 4.85892 22.9058 4.25502C23.4685 4.08816 24.284 3.83983 24.7181 3.70325C25.9629 3.31155 26.0099 3.2987 27.3121 2.99298C29.173 2.55617 30.0914 2.36366 30.7656 2.26904C31.1012 2.22193 31.8692 2.08995 32.4723 1.97575C33.5015 1.7809 34.9219 1.58582 35.8543 1.51124C37.8201 1.35403 38.5786 1.2843 39.1572 1.20768C39.527 1.15871 40.0005 1.10091 40.2095 1.07928C40.8052 1.01763 43.8645 1.05041 44.442 1.12469ZM41.3494 2.17938C42.2662 2.26219 43.6271 2.41467 43.9438 2.47008C44.2049 2.51578 46.1292 2.86703 46.8445 2.99964C47.8992 3.19514 49.3953 3.66982 50.1035 4.03364L50.4981 4.23632V4.721C50.4981 5.26003 50.342 5.88964 49.9995 6.73188C49.4534 8.07504 48.4835 9.22516 46.5024 10.8788C45.0312 12.1068 44.6096 12.4173 43.7261 12.9233C42.4964 13.6277 39.0563 15.2993 37.8711 15.7683C37.2442 16.0164 36.3498 16.398 35.8836 16.6163C35.1195 16.9742 33.2486 17.687 31.9821 18.1028C31.7172 18.1898 31.4848 18.2862 31.4658 18.317C31.4468 18.3478 31.3585 18.2734 31.2697 18.1516C30.8873 17.6275 29.5969 16.5567 28.7576 16.0672C28.3653 15.8384 27.1323 15.3963 26.4533 15.241C25.389 14.9976 22.7904 14.8579 21.9121 14.997C21.1769 15.1134 18.4505 15.6417 17.8109 15.7917C17.0563 15.9686 14.27 17.1089 13.8829 17.3992C13.7816 17.4752 13.5627 17.6054 13.3965 17.6886C12.9909 17.8915 12.4959 18.306 11.6463 19.1539C10.9929 19.806 10.9154 19.9073 10.6375 20.4733C10.4718 20.8104 10.3058 21.2338 10.2684 21.4141L10.2004 21.7421L9.64045 21.7791C8.57184 21.8499 7.30066 21.8188 6.65447 21.7061C5.51441 21.5072 3.59061 20.6818 2.69381 20.0068C2.31541 19.722 1.70534 19.0402 1.5361 18.713C1.22142 18.1046 1.80021 16.5995 2.81446 15.3889C3.85976 14.1412 4.52939 13.5641 6.1868 12.4821C6.46009 12.3037 7.17036 11.836 7.76517 11.4429C8.35998 11.0497 8.99133 10.6558 9.16817 10.5676C9.34501 10.4793 9.63437 10.3202 9.81121 10.2141C10.2611 9.94415 13.633 8.31624 13.7423 8.31624C13.7916 8.31624 14.1966 8.18194 14.6422 8.01783C15.8983 7.55524 18.6631 6.60856 19.9245 6.2091C20.5514 6.01056 21.5379 5.69573 22.1167 5.50941C23.6479 5.01649 25.3163 4.58119 27.3836 4.13538C27.7663 4.05286 28.3293 3.92236 28.6348 3.84544C29.391 3.65498 30.6998 3.39443 32.1715 3.14143C32.8467 3.02536 34.0041 2.82635 34.7436 2.69924C37.8466 2.16564 39.6373 2.02468 41.3494 2.17938ZM51.313 6.9428L51.4489 7.70258L51.2326 8.06978C50.5407 9.24468 49.7237 10.2501 48.4205 11.5307C47.5843 12.3524 47.4994 12.4276 46.3665 13.35C45.9864 13.6596 45.6115 13.9818 45.5336 14.066C45.4556 14.1502 45.3748 14.2191 45.3539 14.2191C45.333 14.2191 44.989 14.4029 44.5895 14.6275C43.6251 15.1696 40.7342 16.6102 39.4227 17.2023C38.2849 17.716 35.5096 18.8407 34.5683 19.1696C34.2467 19.2819 33.5448 19.5422 33.0085 19.7479C32.4721 19.9536 32.0221 20.122 32.0084 20.122C31.9947 20.122 31.967 19.9645 31.9469 19.7721C31.9268 19.5797 31.8588 19.2707 31.7959 19.0854C31.7075 18.8255 31.6973 18.7333 31.751 18.6822C31.7894 18.6457 32.0706 18.5368 32.3761 18.4403C33.4435 18.1031 35.0076 17.5005 35.9533 17.0623C36.4776 16.8193 37.3479 16.4486 37.8873 16.2386C39.0118 15.8006 40.4737 15.1213 42.1971 14.2358C44.298 13.1564 44.7393 12.8676 46.403 11.4841C48.4268 9.80119 49.5004 8.60841 50.1486 7.32269C50.3741 6.87536 50.8218 5.68105 50.8853 5.35733C50.9287 5.13594 50.9324 5.14243 51.0534 5.65703C51.1215 5.94633 51.2383 6.52493 51.313 6.9428ZM24.5719 15.5398C25.8521 15.6658 26.3589 15.7655 27.3285 16.0827C28.3259 16.4089 28.8536 16.6964 29.9038 17.4857C31.3289 18.5568 31.5146 18.8768 31.6345 20.4688C31.7294 21.7286 31.7128 23.1377 31.5963 23.7075C31.5448 23.9598 31.3414 24.5425 31.1444 25.0023C30.3064 26.958 28.6287 29.2046 27.0564 30.4768C26.4496 30.9677 24.8958 31.7796 24.4492 31.8391C24.2916 31.8601 23.9523 31.9209 23.695 31.9741C22.9693 32.1245 20.8995 32.1034 19.8953 31.9355C18.6367 31.725 16.5875 30.982 15.5092 30.3454C14.5087 29.7545 13.2577 28.687 12.7752 28.0123C12.5797 27.7389 12.3633 27.4459 12.2942 27.3613C11.9933 26.9926 11.0119 24.7253 10.7997 23.9085C10.6559 23.3553 10.5984 22.8232 10.605 22.1091C10.6091 21.6735 10.6367 21.5474 10.8287 21.0863C10.9492 20.797 11.1164 20.4419 11.2003 20.2973C11.3991 19.9543 12.7129 18.6428 13.209 18.2921C14.1358 17.6367 16.6622 16.4708 17.7031 16.2182C18.622 15.9951 21.3376 15.4979 22.029 15.4261C22.3665 15.391 23.6373 15.4479 24.5719 15.5398ZM1.77812 19.8005C2.20486 20.2975 2.28928 20.3748 2.78594 20.7239C3.14095 20.9734 4.22261 21.5272 4.5792 21.642C4.70781 21.6835 4.99718 21.8044 5.22224 21.9108C6.06234 22.3078 7.04666 22.4325 8.64772 22.3449C9.27158 22.3108 9.87405 22.2622 9.98658 22.237L10.1912 22.1912L10.2892 22.7778C10.3432 23.1004 10.3826 23.3688 10.3769 23.3741C10.3712 23.3795 10.1298 23.3606 9.84044 23.3321C8.93539 23.243 8.69138 23.2239 7.96978 23.1855C6.83873 23.1253 5.0471 22.849 4.57534 22.6621C3.99854 22.4335 3.32849 22.0946 2.63284 21.6793C2.04989 21.3313 2.02545 21.3083 1.85429 20.9461C1.58819 20.3833 1.19009 19.1322 1.32238 19.2745C1.35225 19.3067 1.55732 19.5434 1.77812 19.8005Z" fill="white"/>
</svg>
