<svg width="49" height="68" viewBox="0 0 49 68" fill="none" xmlns="http://www.w3.org/2000/svg">
<path fill-rule="evenodd" clip-rule="evenodd" d="M8.18302 0.570395C6.93927 0.778597 5.55691 1.6221 4.7108 2.68914C3.83822 3.78951 3.46126 4.86199 3.39387 6.4358C3.33843 7.72914 3.44566 8.48423 3.87272 9.80831C4.2586 11.0048 4.55579 11.614 5.08634 12.2963C5.80917 13.2256 6.3703 13.5646 7.73733 13.8977C8.57969 14.1029 10.2657 14.1309 11.9943 13.9683C12.9653 13.8771 13.2292 13.9265 13.4223 14.2357C13.5378 14.4208 13.3836 14.9155 13.1499 15.1094C12.9116 15.3071 12.2326 15.4906 10.8013 15.7438C8.1848 16.2067 6.52745 17.1394 5.49157 18.7317C4.94417 19.5733 4.75092 20.3198 4.75243 21.5875C4.75386 22.858 4.88872 23.3834 5.42801 24.221C6.40337 25.7356 7.89983 26.8016 9.87665 27.3897C10.2934 27.5137 10.6941 27.6351 10.7672 27.6594C10.8408 27.6839 10.0835 28.1095 9.07307 28.6118C6.97697 29.6537 6.67239 29.85 5.4962 30.9179C4.09013 32.1943 3.46322 33.1709 2.96083 34.8676C2.76125 35.5415 2.7215 35.8548 2.71214 36.8284L2.70099 37.987L3.03 38.676C3.21096 39.0549 3.54879 39.5677 3.78064 39.8156C4.30157 40.3724 5.36793 40.9196 6.31111 41.114C7.21194 41.2995 7.64846 41.5065 8.17152 41.9956L8.61151 42.4071L8.40408 42.7818C8.04691 43.4268 7.82335 44.2456 7.76594 45.1187C7.70221 46.089 7.77815 46.076 6.7404 45.2949C6.38171 45.0249 5.72395 44.6194 5.27862 44.3938C4.47334 43.9858 4.46505 43.9838 3.71869 44.0221C2.80716 44.0689 2.15992 44.3038 1.54219 44.8122C0.756345 45.4588 0.429384 46.1264 0.29416 47.3602C0.157511 48.6066 0.956284 50.4744 1.76878 50.8089C2.38776 51.0637 3.10845 51.1491 3.59238 51.0249C4.0001 50.9203 4.04895 50.879 4.16581 50.541C4.27982 50.2114 4.27795 50.1476 4.14852 49.9502C4.06874 49.8284 3.75051 49.5904 3.44138 49.4212C2.53885 48.9273 2.1396 48.1425 2.46576 47.5035C2.74538 46.9558 2.95299 46.823 3.59283 46.7822C4.25664 46.7399 4.48368 46.8496 5.36838 47.6404C6.63165 48.7693 7.38639 49.1726 8.2365 49.1726C8.6846 49.1726 8.72222 49.1899 8.86136 49.4622C9.03946 49.8106 10.6992 51.4678 11.4408 52.0377C12.1515 52.5837 12.827 52.9923 13.4133 53.2305L13.8972 53.4272L13.2908 53.897C12.5203 54.494 11.0592 55.9839 10.768 56.4694C10.6455 56.6738 10.4118 57.049 10.2487 57.3031C9.82415 57.9646 9.56092 58.8568 9.3855 60.2297C9.20375 61.6515 9.24297 62.1754 9.61405 63.2843C10.1495 64.8847 11.1768 66.3923 11.9971 66.7815C12.1751 66.8659 12.5309 67.0695 12.788 67.2339C13.6269 67.7705 14.7087 67.9279 15.7869 67.6703C16.4426 67.5136 16.887 67.1757 17.1045 66.6684C17.3172 66.1723 17.3172 66.0433 17.1048 65.695C16.8921 65.3462 16.5819 65.2783 15.2908 65.2976C14.2182 65.3138 13.7852 65.1861 13.3213 64.7169C12.7557 64.1446 12.2904 62.7328 12.2857 61.5741C12.279 59.9156 13.3833 57.9078 15.0021 56.6351C15.2473 56.4424 15.6159 56.1284 15.8214 55.9373C16.0269 55.7461 16.2514 55.5898 16.3204 55.5898C16.5384 55.5898 17.4509 56.6326 17.7022 57.169C18.0393 57.8881 18.0338 58.591 17.6868 59.1775C17.2281 59.9527 16.7361 60.1439 16.1378 59.7792C15.7648 59.5518 15.5259 59.1549 15.4481 58.6332C15.4141 58.4054 15.3319 58.0887 15.2656 57.9294C15.1639 57.6852 15.0986 57.6397 14.8498 57.6397C14.1889 57.6397 13.8977 58.2908 14.0607 59.4038C14.1994 60.351 14.8624 61.223 15.7598 61.6382C16.1676 61.827 16.385 61.8657 17.0523 61.8684C17.8192 61.8716 17.8808 61.8569 18.4493 61.5345C18.7764 61.349 19.1912 61.0343 19.3712 60.8352C19.7558 60.4094 20.2166 59.4817 20.2166 59.1326C20.2167 58.9977 20.235 58.8875 20.2574 58.8875C20.2797 58.8875 20.4484 58.9895 20.6323 59.1143C21.1066 59.4362 21.7649 59.3998 22.0351 59.0369C22.3157 58.6599 22.292 57.9688 21.9826 57.506C21.4477 56.7062 21.2131 55.416 21.4642 54.6552C21.5185 54.4908 21.7431 54.1902 21.9633 53.9872C22.2874 53.6886 22.4182 53.6235 22.6496 53.6459C23.0611 53.6856 23.2191 54.0714 23.3367 55.3224C23.3896 55.8861 23.4904 56.6228 23.5604 56.9593C23.8862 58.5237 24.9995 59.2548 27.0687 59.2632C27.5409 59.2652 28.0885 59.2225 28.2856 59.1683C28.7483 59.0412 29.5343 58.566 30.1781 58.0241C30.8432 57.4642 30.9261 57.3693 31.4871 56.5256C32.6392 54.7926 32.9529 53.659 32.9801 51.1287C33.0063 48.7081 32.4669 47.6576 29.7119 44.7642C28.298 43.2793 28.0004 42.9182 27.4514 42.0214C26.9153 41.1456 26.5891 40.4683 26.3853 39.8076C26.2859 39.4854 26.0954 38.964 25.9621 38.649C25.4964 37.549 25.2084 36.5791 25.2116 36.1209C25.2157 35.5186 25.559 34.243 25.8497 33.7498C25.9786 33.5313 26.2036 33.2387 26.3497 33.0998L26.6155 32.8473L26.7713 33.3226C26.9944 34.0035 27.4278 34.8361 28.0392 35.7588C29.2738 37.6223 30.8634 38.7768 33.6276 39.8179C34.1557 40.0167 34.5357 40.2121 34.5668 40.3007C34.6797 40.6227 34.4684 41.994 34.0374 43.7358C33.4489 46.1133 33.3442 46.9494 33.4924 48.0851C33.7266 49.88 34.2724 51.1309 35.2357 52.081C35.9808 52.8158 36.591 53.1412 37.8769 53.4896C39.489 53.9263 41.2862 53.8766 42.3856 53.3649C43.0865 53.0387 44.169 52.2413 44.5218 51.7914C44.9913 51.1927 45.0305 51.06 45.0326 50.0638C45.0344 49.2278 45.0035 49.0424 44.7437 48.3258C44.1946 46.8114 43.9871 45.6394 44.1981 45.2451C44.3398 44.9805 44.5261 45.038 44.7824 45.4253C44.9772 45.7197 45.0275 45.9275 45.087 46.6848C45.1798 47.8658 45.3048 48.0585 45.9778 48.0585C46.3878 48.0585 46.4725 48.0267 46.6318 47.8134C46.7859 47.6069 46.8209 47.4014 46.8525 46.513C46.9116 44.8558 46.6046 44.1369 45.5895 43.5547C45.2098 43.337 45.0314 43.292 44.5516 43.2929C43.8654 43.2942 43.404 43.4801 42.9289 43.9468C42.7473 44.1252 42.557 44.4214 42.506 44.605C42.3936 45.0097 42.3929 46.0236 42.5046 46.6324C42.7942 48.2106 42.8074 48.426 42.6577 49.1161C42.464 50.008 42.3122 50.2145 41.6216 50.5243C41.1721 50.726 40.8965 50.7869 40.3694 50.8012C39.7685 50.8175 39.6404 50.7903 39.215 50.5555C38.5662 50.1974 37.8591 49.3901 37.4283 48.5158C36.7391 47.1166 36.7274 46.5619 37.3246 43.5719C37.5661 42.3629 37.7902 41.1907 37.8226 40.9667L37.8815 40.5597L38.3909 40.4545C39.1171 40.3045 40.3865 39.5985 41.0598 38.9702C42.7272 37.4141 43.2863 35.3986 42.9461 32.1697C42.8492 31.2505 42.9457 30.2654 43.1762 29.8198C43.3283 29.5256 44.0741 29.1212 44.4673 29.1197C44.5924 29.1192 44.8989 29.2205 45.1483 29.3448C45.7693 29.6542 46.0915 30.1461 46.1384 30.8568C46.1699 31.3327 46.1488 31.4185 45.9463 31.6367C45.6544 31.9513 45.4052 31.9468 45.0796 31.6213C44.8506 31.3924 44.819 31.297 44.819 30.8369C44.819 30.2506 44.7227 30.0992 44.3496 30.0992C43.9897 30.0992 43.7991 30.223 43.5754 30.602C43.0538 31.4861 43.1796 32.5466 43.897 33.3135C44.6676 34.1373 45.5465 34.3345 46.3516 33.8642C46.9037 33.5416 47.7831 32.5291 48.1391 31.8061C48.4072 31.2615 48.4245 31.1677 48.4267 30.2397C48.4288 29.353 48.4049 29.2008 48.1908 28.7441C47.8549 28.0276 46.9476 27.1561 46.1263 26.7612C45.2522 26.3408 44.6996 26.2378 43.5696 26.2843C42.7766 26.317 42.5618 26.3578 42.2707 26.5317C41.7827 26.8232 41.2675 27.3245 41.0771 27.693C40.8054 28.2187 40.3782 29.7244 40.1413 30.9905C40.0176 31.6523 39.8704 32.4344 39.8143 32.7285C39.6843 33.4104 39.3597 34.2278 39.0657 34.6132C38.8118 34.946 38.3327 35.2237 37.862 35.3106L37.5542 35.3675L37.3399 34.5828C36.734 32.3639 35.3297 30.0667 33.3322 28.027L32.6558 27.3363L33.0548 27.3355C33.5735 27.3344 35.2462 26.9538 35.7914 26.7128C37.1053 26.132 38.6159 25.0218 39.0665 24.3059C39.4663 23.6707 39.8311 22.5198 39.9354 21.5647C40.1038 20.0221 39.9079 18.5658 39.0753 15.1703C38.5149 12.8854 38.4485 12.4186 38.5734 11.6434C38.7033 10.8371 38.9967 10.4573 39.8272 10.0207C40.4555 9.6903 40.5317 9.67168 41.0915 9.71134C41.9979 9.77542 42.4723 10.0492 42.8289 10.7139C43.1367 11.2876 43.4819 12.4264 43.4819 12.8681C43.4819 13.0167 43.4379 13.2647 43.384 13.4191C43.2531 13.7947 42.9014 13.8033 42.5526 13.4393C42.3121 13.1883 42.3062 13.1602 42.3905 12.6713C42.4832 12.1331 42.4313 11.7315 42.2268 11.4041C42.0341 11.0956 41.4106 11.1224 41.0796 11.4534C40.5109 12.022 40.4877 13.9813 41.0395 14.8399C41.5969 15.7075 42.8987 16.0939 43.7977 15.6587C44.4721 15.3323 45.3126 14.2189 45.5794 13.2986C45.7635 12.6638 45.7681 11.6703 45.5885 11.3378C45.509 11.1908 45.4439 10.9881 45.4435 10.8875C45.4426 10.5932 44.7808 9.33183 44.3352 8.77523C43.8429 8.16034 43.2547 7.71158 42.5905 7.44419C42.1696 7.27467 41.9301 7.2466 40.8969 7.24544C39.8014 7.24419 39.6296 7.26665 38.9804 7.49625C37.7539 7.93003 37.2293 8.31328 36.6157 9.22434C35.9627 10.1936 35.807 10.8161 35.8015 12.4784C35.7973 13.727 35.823 13.9489 36.1276 15.304C36.8797 18.6482 36.9002 20.3247 36.207 21.8103C35.9305 22.4027 35.8308 22.5227 35.3311 22.8651C33.9253 23.8277 32.6005 24.1661 31.2087 23.9178C30.3591 23.7662 29.4425 23.3243 29.363 23.0278C29.2247 22.5126 29.3147 21.4887 29.5601 20.7839C29.7862 20.1343 29.987 19.795 30.8972 18.5245C31.2907 17.9751 32.0166 16.5329 32.2536 15.8295C32.7356 14.3987 32.809 12.9698 32.4826 11.3695C32.1243 9.61339 31.4432 8.26372 30.4335 7.30881C29.6965 6.61183 29.0126 6.15835 27.8921 5.62394C26.8327 5.11859 26.191 4.96814 25.0876 4.96653C24.0787 4.96502 23.5588 5.08133 22.3185 5.58606C19.949 6.55051 18.3826 7.84019 17.5359 9.52399C17.0512 10.4877 16.9186 11.2381 16.9185 13.0168C16.9183 14.436 16.9426 14.7176 17.2823 17.2461C17.4895 18.7887 17.5031 19.9538 17.3197 20.4734C17.2462 20.6818 17.186 21.0294 17.186 21.2458C17.186 21.4621 17.107 21.7942 17.0103 21.9836C16.6226 22.7435 14.4973 23.7711 13.3135 23.7711C12.533 23.7711 11.1065 23.4703 10.5152 23.181C9.9395 22.8994 9.38782 22.4252 9.18931 22.0414C8.89782 21.4778 9.08448 20.204 9.53721 19.6665C9.98959 19.1294 11.5359 18.2488 13.4258 17.4521C15.7955 16.453 16.5084 15.8274 16.6205 14.6478C16.7344 13.4502 15.856 12.2816 14.6456 12.0206C14.2461 11.9345 12.9409 11.7326 11.0355 11.4623C9.00577 11.1743 7.06674 9.92685 6.33928 8.44118C5.9739 7.69491 5.68714 6.65238 5.68714 6.0702C5.68714 5.50085 6.05492 4.34736 6.41674 3.78203C7.13671 2.65697 8.70359 1.9484 9.72547 2.28557C10.3358 2.487 10.7909 3.25884 10.6441 3.84361C10.5682 4.1462 10.16 4.60868 9.96882 4.60868C9.86257 4.60868 9.74562 4.46029 9.61797 4.16367C9.37908 3.6084 9.09954 3.40876 8.67301 3.48879C7.81104 3.65047 7.80275 5.23267 8.65929 6.08856C9.23512 6.66388 10.2204 6.79989 10.9909 6.41049C12.0007 5.90015 12.7029 4.26153 12.4504 3.00439C12.256 2.03699 11.848 1.52388 10.8673 1.01345C10.0203 0.572623 9.08858 0.418788 8.18302 0.570395ZM10.3256 1.33707C11.4722 1.88592 11.9639 2.59814 11.9686 3.71741C11.971 4.27151 11.929 4.47214 11.7236 4.89042C10.9675 6.42983 9.35412 6.65426 8.68567 5.31306C8.44812 4.83641 8.37208 4.15716 8.5287 3.91019C8.69049 3.65502 8.99819 3.83505 9.16818 4.28435C9.36883 4.81457 9.54755 5.02179 9.85517 5.08053C10.904 5.28098 11.6683 3.67828 11.0815 2.50937C10.8041 1.95678 10.4426 1.7098 9.64837 1.53048C9.08483 1.4032 8.96102 1.40276 8.3711 1.52576C6.78827 1.85571 5.65139 3.07025 5.19313 4.92063C4.74771 6.71968 5.33584 8.73227 6.67667 9.99699C8.02935 11.2729 9.33826 11.7869 11.7931 12.0062C12.9913 12.1132 14.4177 12.3467 14.8496 12.5063C15.6066 12.7861 16.0817 13.4009 16.1726 14.2183C16.2344 14.7733 15.8701 15.5077 15.3566 15.8632C15.1594 15.9997 14.2881 16.37 13.4205 16.6859C10.4326 17.7737 8.97038 18.7148 8.43537 19.8941C8.17099 20.4769 8.15236 21.6891 8.40043 22.1613C8.90094 23.1137 10.2393 23.9518 11.6167 24.1753C13.0323 24.4051 13.6104 24.3595 14.9428 23.9131L16.1152 23.5203L15.6924 24.0585C15.0051 24.9334 13.7139 26.0067 12.2228 26.9428C11.5826 27.3446 11.4457 27.3983 11.2352 27.3298C11.1008 27.2861 10.6499 27.1457 10.2332 27.0178C7.93941 26.314 6.36727 25.112 5.5266 23.4193L5.19688 22.7555L5.2 21.5922C5.20276 20.5844 5.23128 20.3574 5.41375 19.8941C6.16653 17.9821 7.97577 16.7329 10.7779 16.1905C12.9115 15.7776 13.1409 15.697 13.6847 15.1702C14.065 14.802 14.1553 14.6583 14.1553 14.4215C14.1553 14.0199 13.913 13.6437 13.5353 13.459C13.1964 13.2932 13.0932 13.2895 10.1441 13.3345C8.36281 13.3617 7.97978 13.3076 7.06879 12.8996C6.13506 12.4814 5.41963 11.5803 4.81768 10.0644C4.26012 8.66025 4.14629 8.08948 4.13817 6.65862C4.13131 5.44506 4.14638 5.32554 4.38455 4.69781C5.00959 3.05029 6.2455 1.80838 7.85436 1.21122C8.53307 0.959349 9.65586 1.01648 10.3256 1.33707ZM26.4625 5.82091C26.7288 5.89934 27.3679 6.17956 27.8827 6.44347C30.0062 7.53234 31.1199 9.05536 31.6213 11.5561C32.1061 13.9738 31.6969 15.7058 29.8833 18.9137C29.4657 19.6525 29.1477 20.347 29.0059 20.8299C28.8836 21.2466 28.7814 21.5188 28.7788 21.4349C28.7696 21.1391 28.4091 20.311 28.2656 20.256C27.9745 20.1443 27.9411 20.3585 28.1491 21.0052C28.4487 21.9369 28.3095 22.7548 27.6945 23.6757C27.3261 24.2273 27.2947 24.4842 27.5958 24.4842C27.9361 24.4842 28.5226 23.6241 28.6447 22.9457C28.7182 22.5381 28.8632 22.4171 28.8632 22.7636C28.8632 23.1043 29.4753 24.3421 29.9131 24.8867C31.1081 26.3733 31.2717 26.5587 32.9743 28.3569C35.6469 31.1797 36.8472 33.5215 37.339 36.8729C37.5942 38.6117 37.5463 39.2697 36.975 41.8641C36.1937 45.4127 36.175 45.5198 36.1737 46.4602C36.1724 47.5109 36.3013 48.0222 36.8238 49.0389C37.2598 49.8871 38.0488 50.7261 38.7601 51.0978C39.2137 51.3349 39.3198 51.3529 40.2747 51.3545C41.2726 51.3561 41.3191 51.3474 41.9204 51.0442C42.7198 50.6412 43.0113 50.2762 43.1353 49.5232C43.2413 48.8785 43.1785 47.836 42.9771 46.8998C42.7692 45.9331 42.7769 45.0055 42.9961 44.627C43.2132 44.2524 43.9084 43.7642 44.34 43.6832C44.9508 43.5687 45.9643 44.2876 46.1538 44.97C46.2728 45.3984 46.2696 46.3887 46.1469 47.093C46.0657 47.5594 46.0185 47.6574 45.8749 47.6574C45.6174 47.6574 45.443 47.1482 45.443 46.3961C45.443 45.3714 44.977 44.6253 44.339 44.6284C43.9886 44.6302 43.8992 44.6908 43.7136 45.0529C43.3532 45.7561 43.4392 46.9614 43.9692 48.6365C44.3738 49.9154 44.409 50.286 44.1921 50.9882C44.0422 51.4734 43.9354 51.6346 43.4959 52.0381C42.0634 53.3539 40.4359 53.6759 38.1697 53.0922C36.7764 52.7334 36.2603 52.4868 35.6993 51.9123C35.1305 51.3295 34.7434 50.6188 34.4244 49.5712C34.2053 48.8517 34.1808 48.6373 34.1814 47.4346C34.182 46.1055 34.1849 46.0862 34.6804 44.1368C35.4476 41.1187 35.4902 40.7331 35.2282 39.1837C35.0818 38.3174 34.8541 37.6772 34.5813 37.3642C34.4952 37.2656 34.2702 36.9242 34.0813 36.6055C33.6061 35.8044 32.9851 35.0561 31.7142 33.7535C31.1164 33.1407 30.4302 32.3614 30.1895 32.0216C29.7248 31.3662 28.5891 30.2775 28.37 30.2775C28.0826 30.2775 28.2739 30.6128 28.9651 31.3208C29.3642 31.7297 29.6688 32.0863 29.6419 32.1133C29.6149 32.1402 29.4588 32.0912 29.2949 32.0042C28.5896 31.6302 26.8487 31.965 26.1936 32.6007L25.8577 32.9266L25.9021 31.6912C25.9456 30.4835 25.9052 30.2846 25.674 30.5671C25.6239 30.6285 25.5569 30.9994 25.5251 31.3916C25.443 32.4044 25.2178 33.9018 25.0718 34.4052C25.0034 34.6411 24.9042 35.2427 24.8513 35.7421C24.7652 36.5555 24.7738 36.722 24.9334 37.3401C25.0315 37.7196 25.2179 38.2811 25.3475 38.5879C25.4772 38.8947 25.7166 39.538 25.8795 40.0175C26.1952 40.9464 26.5815 41.7094 27.2375 42.6992C27.7124 43.4161 28.0068 43.7645 29.3559 45.2064C30.972 46.9338 31.4532 47.5547 31.9419 48.5432C32.6776 50.0318 32.7825 52.1877 32.1988 53.8227C32.1231 54.0347 32.0428 54.3487 32.0203 54.5202C31.9374 55.1518 30.7176 56.934 29.9329 57.5702C28.7286 58.5464 28.0078 58.781 26.7006 58.6221C25.7727 58.5092 25.4496 58.3916 25.0113 58.0068C24.458 57.521 24.3163 57.0634 24.1436 55.2034C24.0089 53.7513 23.805 53.35 23.0784 53.1066C22.4112 52.8831 21.4991 53.4642 21.101 54.3663C20.714 55.2435 20.9022 56.7207 21.5223 57.6706C21.8313 58.1442 21.8813 58.5262 21.6685 58.789C21.3277 59.2099 20.7447 58.8456 20.1557 57.8438C19.9167 57.4372 19.9048 57.3639 19.9048 56.3028C19.9048 55.1976 19.9074 55.1833 20.2349 54.5202C20.6438 53.6924 21.2459 52.9229 21.8004 52.5195C22.2725 52.1761 23.5943 51.6681 24.0159 51.6681C24.3507 51.6681 24.8569 51.9935 25.0068 52.3051C25.0973 52.4931 25.0875 52.6962 24.9528 53.4327C24.7705 54.4296 24.7933 55.0322 25.0311 55.5006C25.239 55.9101 25.4204 56.0655 26.011 56.3404C26.5747 56.6027 27.4279 56.6508 27.9141 56.4477C28.3664 56.2588 28.995 55.3534 29.2722 54.4916C30.0386 52.1091 29.3258 50.0126 26.8389 47.334C26.2347 46.6833 25.703 46.1279 25.6575 46.0997C25.4894 45.9958 23.9799 43.9383 23.6291 43.3347C22.6456 41.643 22.0734 39.915 21.5539 37.0673C21.1383 34.789 21.1117 33.0715 21.4617 31.1242C21.6663 29.9864 21.6678 29.8318 21.4742 29.8318C21.3352 29.8318 21.2827 29.9075 21.2427 30.1661C21.1457 30.7923 21.0191 31.4658 20.9935 31.4914C20.9794 31.5054 20.7593 31.4136 20.5043 31.2875C20.1115 31.0931 19.9309 31.06 19.3214 31.0711C18.8519 31.0796 18.4433 31.1445 18.1446 31.2581C17.8929 31.3537 17.6766 31.4216 17.664 31.409C17.6158 31.3608 18.727 29.7801 18.9101 29.6361C19.0613 29.5173 19.0793 29.4617 18.994 29.3761C18.8116 29.1931 18.5547 29.3865 18.0049 30.1211C17.376 30.9614 16.7681 32.0812 16.6554 32.6068C16.6095 32.8208 16.4704 33.3675 16.3463 33.8219C15.8512 35.6345 15.6716 37.5309 15.8457 39.1077C15.9917 40.4297 16.4209 41.672 17.3528 43.4698C18.5625 45.8035 19.3138 47.8295 19.3457 48.8441C19.3651 49.4613 19.1553 50.5613 18.8407 51.4908C18.6427 52.0761 18.0995 52.9376 17.5926 53.4704C17.3531 53.7222 15.5627 55.2012 14.5211 56.0079C12.8231 57.3229 11.6084 59.4696 11.5039 61.3397C11.4236 62.7785 12.01 64.4549 12.8524 65.1944C13.4919 65.7559 14.4743 65.9461 15.8044 65.7661C16.7558 65.6373 16.9995 65.8442 16.68 66.51C16.3783 67.1388 16.169 67.2214 14.884 67.2179L13.7542 67.2149L12.8456 66.7517C12.3459 66.4969 11.7949 66.1638 11.6212 66.0113C10.963 65.4335 10.0231 63.6327 9.72922 62.3865C9.59444 61.8149 9.58954 61.6199 9.6867 60.6774C9.85972 58.9988 10.1081 58.2659 10.9171 57.0465C11.695 55.8739 12.9016 54.7105 14.3623 53.7247C16.3047 52.4138 17.044 51.5582 17.2798 50.3489C17.508 49.1783 17.2458 47.9785 16.5339 46.9354C13.7047 42.7901 12.5512 40.2512 12.1898 37.3742C12.0609 36.3482 12.1239 34.545 12.32 33.6469C12.4471 33.0652 13.4623 30.5356 13.8116 29.9303C13.9838 29.632 13.9798 29.3862 13.8029 29.3862C13.7529 29.3862 13.6059 29.5466 13.4762 29.7427C13.2778 30.0424 13.192 30.0992 12.9373 30.0992C12.2444 30.0992 10.2181 30.969 8.9226 31.8226C7.95358 32.4611 6.93722 33.3854 6.54412 33.9857C6.41228 34.187 6.26921 34.568 6.22616 34.8324C6.12231 35.4703 6.26877 36.6396 6.50507 37.0601C6.73559 37.4702 7.07155 37.6582 8.37707 38.1076C9.72387 38.5713 9.80623 38.6171 10.5866 39.3387C11.3902 40.0817 12.0431 41.0559 12.3034 41.9004C12.5886 42.8258 12.5843 44.1911 12.2938 44.9836C11.9728 45.8591 11.6899 46.3865 11.1463 47.1226C10.2675 48.313 9.92613 48.5733 9.05025 48.7205C7.99494 48.8979 7.52812 48.6615 6.02809 47.1904C5.00113 46.1832 4.63887 46.0085 3.5766 46.0085C2.89416 46.0085 2.71695 46.0387 2.50694 46.1908C2.20529 46.4092 1.76807 47.2411 1.70398 47.7184C1.58605 48.5976 2.17935 49.4401 3.16755 49.7969C3.81371 50.0302 3.91221 50.1227 3.80783 50.3981C3.74204 50.5716 3.66752 50.5986 3.25455 50.5986C1.96186 50.5986 1.18902 49.9323 0.829439 48.5077C0.658828 47.8315 0.660342 47.4174 0.835946 46.7397C1.04373 45.9379 1.26854 45.5628 1.78857 45.1501C2.43928 44.6337 2.7165 44.5379 3.56002 44.5379C4.21475 44.5379 4.34284 44.5672 4.78675 44.8176C5.31739 45.1171 5.91729 45.5456 6.60384 46.1156C7.0859 46.5158 8.04788 46.9444 8.46416 46.9444C8.99302 46.9444 9.42437 46.747 9.81996 46.3242C10.1482 45.9734 10.2233 45.8206 10.3204 45.3059C10.4863 44.4269 10.4043 43.7147 10.0584 43.0295C9.75284 42.4243 9.10338 41.675 8.55758 41.2979C8.21921 41.0641 7.0941 40.5863 6.22197 40.3062C5.48675 40.07 4.55347 39.5575 4.28882 39.2448C4.15975 39.0922 3.93021 38.7067 3.77868 38.3881C3.51875 37.8413 3.50404 37.7537 3.51679 36.8284C3.53284 35.667 3.735 34.8063 4.24497 33.7281C4.69057 32.786 5.22772 32.1013 6.22117 31.2094C7.09232 30.4272 7.73269 30.0221 9.69838 29.0099C11.4583 28.1037 12.3943 27.5375 13.4608 26.7342C14.6225 25.8593 15.4098 25.1205 15.9537 24.395C16.1926 24.0764 16.4773 23.7061 16.5865 23.5721C16.6956 23.4382 16.9148 23.0973 17.0735 22.8145C17.2323 22.5318 17.3627 22.3581 17.3632 22.4285C17.3649 22.6343 17.734 22.969 17.9592 22.969C18.216 22.969 18.2242 22.8075 17.9906 22.3497C17.5962 21.5766 17.6878 20.5857 18.2179 19.8913C18.3857 19.6715 18.5231 19.4317 18.5231 19.3585C18.5231 19.2095 18.1641 19.1747 18.028 19.3107C17.9742 19.3645 17.9548 19.2485 17.9751 18.9935C17.9926 18.7723 17.9422 17.942 17.8629 17.1482C17.5461 13.975 17.5285 11.6169 17.814 10.6248C18.2288 9.18379 19.6867 7.64812 21.5222 6.71896C22.0587 6.44739 23.7267 5.80389 24.0497 5.7439C24.6065 5.64043 26.0014 5.68499 26.4625 5.82091ZM42.7086 7.98654C44.2584 8.87318 45.4555 11.1089 45.2002 12.64C45.0707 13.4166 44.6139 14.3307 44.0654 14.9106L43.609 15.3931H43.045C42.6065 15.3931 42.3864 15.3417 42.056 15.1619C41.4833 14.8502 41.2647 14.5243 41.1058 13.7449C40.9262 12.8647 41.0762 11.9883 41.4543 11.7076C41.6143 11.5888 41.73 11.5558 41.7869 11.6127C41.8349 11.6607 41.8883 12.0797 41.9055 12.5439C41.9544 13.8593 42.2211 14.302 43.0589 14.4591C43.5019 14.5422 43.7999 14.3445 44.0358 13.8109C44.1842 13.4756 44.206 13.2992 44.1574 12.8254C44.0841 12.1103 43.6814 11.05 43.2368 10.402C42.8004 9.76579 42.0026 9.33629 41.1268 9.26597C40.5838 9.22238 39.7385 9.36481 39.7377 9.50002C39.7376 9.53041 39.5581 9.62898 39.3389 9.71909C38.6232 10.0135 38.0446 10.8892 37.8867 11.9172C37.7625 12.7257 37.8717 13.6265 38.3405 15.6605C39.2659 19.6756 39.391 21.3553 38.8845 22.969C38.623 23.8023 38.2979 24.3206 37.6999 24.8578C36.6787 25.7752 35.6745 26.3407 34.6572 26.5711C34.2895 26.6543 33.8188 26.7608 33.6112 26.8075C33.4036 26.8543 33.0068 26.8658 32.7295 26.8332C32.1431 26.7643 31.9135 26.5928 31.1364 25.6431C30.857 25.3015 30.4886 24.8709 30.3181 24.6862C30.1475 24.5016 29.9681 24.2775 29.9193 24.1882C29.836 24.0357 29.8435 24.0343 30.0435 24.1653C30.3732 24.3813 31.5948 24.6624 32.2037 24.6624C33.3619 24.6624 34.8773 24.1913 35.538 23.6259C35.731 23.4606 35.9285 23.3255 35.9769 23.3255C36.1516 23.3255 36.6461 22.6572 36.9758 21.9757C37.7545 20.3656 37.6926 18.503 36.7497 15.1703C36.283 13.5206 36.2617 13.398 36.2628 12.3664C36.2639 11.2435 36.3797 10.6646 36.7576 9.89236C37.2104 8.96703 38.3945 8.05044 39.507 7.76425C39.7966 7.68974 40.3671 7.65659 41.0825 7.67272C42.1621 7.69705 42.2229 7.70873 42.7086 7.98654ZM19.3848 18.3047C19.2724 18.417 19.3259 18.5936 19.5915 18.9871C19.9859 19.5714 20.1868 20.1789 20.5188 21.7914C20.6832 22.5899 20.8412 23.2666 20.8699 23.2953C20.8986 23.3241 20.9897 23.3216 21.0723 23.29C21.2047 23.2391 21.2154 23.1299 21.1627 22.3642C21.037 20.5399 20.6387 19.2796 19.9666 18.5795C19.6537 18.2536 19.5058 18.1836 19.3848 18.3047ZM27.1696 19.1549C26.1588 19.65 25.2872 20.9971 24.9374 22.6047C24.7449 23.49 24.7578 23.7135 24.999 23.6663C25.1028 23.646 25.2093 23.3996 25.3581 22.8353C25.7685 21.2787 26.3826 20.3002 27.449 19.5035C27.7366 19.2887 27.9718 19.0781 27.9718 19.0356C27.9718 18.8961 27.5784 18.9546 27.1696 19.1549ZM18.8021 20.4344C18.4073 20.9363 18.3434 21.6565 18.6519 22.1273C18.7961 22.3473 19.3369 22.5475 19.5582 22.4627C19.7823 22.3767 19.9745 21.8796 20.0171 21.2763C20.0543 20.7478 20.0377 20.6744 19.8296 20.4511C19.5209 20.1198 19.0555 20.1122 18.8021 20.4344ZM19.5928 21.1143C19.5928 21.154 19.5083 21.1864 19.405 21.1864C19.2704 21.1864 19.2325 21.1465 19.2712 21.0454C19.301 20.9679 19.3266 20.8577 19.3282 20.8003C19.3313 20.6866 19.5928 20.997 19.5928 21.1143ZM26.3569 21.4034C26.0855 21.5877 26.0207 21.6999 25.9249 22.1513C25.7481 22.9846 25.9956 23.523 26.6123 23.6464C27.1217 23.7482 27.5244 23.103 27.5256 22.1832C27.5262 21.7065 27.4171 21.4942 27.0822 21.321C26.7448 21.1466 26.7327 21.1479 26.3569 21.4034ZM26.7181 22.4857C26.5701 22.6641 26.5245 22.5936 26.5983 22.2998C26.6506 22.0914 26.6721 22.0775 26.7434 22.2049C26.7992 22.3046 26.7908 22.3981 26.7181 22.4857ZM17.6317 23.8465C17.6317 24.1349 17.8715 24.395 18.1373 24.395C18.2361 24.395 18.5501 24.3148 18.8351 24.2168C19.1201 24.1187 19.5476 24.0385 19.785 24.0385C20.1047 24.0385 20.2167 24.0047 20.2167 23.908C20.2167 23.5643 19.4108 23.4916 18.7014 23.7711C18.4526 23.8692 18.2132 23.9494 18.1692 23.9494C18.1254 23.9494 18.0639 23.8692 18.0328 23.7711C18.0017 23.6731 17.8988 23.5929 17.804 23.5929C17.6741 23.5929 17.6317 23.6553 17.6317 23.8465ZM25.6096 24.5431C25.5116 24.564 25.2589 24.6437 25.0481 24.72C24.4737 24.928 24.6197 25.0684 25.3775 25.0367C25.9697 25.0119 26.0433 25.0295 26.3488 25.2689C26.8354 25.6502 27.0279 25.732 27.4396 25.732C27.8759 25.732 28.3284 25.4939 28.3284 25.2643C28.3284 25.0287 28.1176 24.9851 27.792 25.1534C27.4299 25.3406 27.2384 25.2887 26.6481 24.8437C26.1963 24.5032 26.026 24.4539 25.6096 24.5431ZM45.3209 26.8945C46.4865 27.2823 47.5005 28.1667 47.8561 29.1057C48.0188 29.535 48.0385 29.7203 47.9906 30.3666C47.9192 31.3316 47.6207 31.9941 46.913 32.7584C46.2718 33.451 45.8195 33.6998 45.3072 33.642C44.3672 33.5362 43.5286 32.3879 43.7049 31.4483C43.79 30.9953 44.0858 30.4557 44.2492 30.4557C44.3655 30.4557 44.3769 30.5193 44.3168 30.8345C44.1781 31.5627 44.2253 31.7758 44.611 32.1613C45.2413 32.7917 45.9489 32.6889 46.4882 31.8887C46.9055 31.2697 46.6639 30.0859 45.9811 29.4031C45.5825 29.0046 45.1379 28.797 44.5227 28.722C44.0674 28.6665 43.9444 28.6876 43.522 28.8943C42.5362 29.3765 42.4154 29.762 42.3197 32.7285C42.225 35.6699 42.0136 36.5609 41.1107 37.8262C40.5127 38.664 39.1308 39.629 38.2227 39.8429L37.9999 39.8954L37.9859 38.8967C37.9782 38.3474 37.9083 37.5169 37.8303 37.0512C37.6335 35.8751 37.6154 35.9413 38.1445 35.9112C38.932 35.8667 39.5173 35.441 40.0341 34.5369C40.3959 33.9042 40.6101 33.0796 40.8515 31.3916C41.1346 29.412 41.3828 28.2272 41.6061 27.7897C41.7697 27.4688 42.1388 27.1287 42.5724 26.8992C43.1603 26.5879 44.3932 26.5858 45.3209 26.8945ZM12.7593 31.2356C12.1083 32.633 11.9199 33.1776 11.7524 34.1454C11.4305 36.0052 11.4354 37.4362 11.769 39.0009C11.8588 39.4226 11.8529 39.4935 11.72 39.5907C11.5894 39.6862 11.4704 39.6081 10.8448 39.016C10.4465 38.6392 9.95545 38.2493 9.75355 38.1498C9.55165 38.0502 8.99998 37.7829 8.52763 37.5557C7.20481 36.9196 6.87277 36.4081 6.9562 35.1349C7.00924 34.3264 7.29181 33.6799 7.79491 33.2162C8.20539 32.8379 9.65292 31.8662 10.2886 31.5423C10.6654 31.3502 12.3652 30.6886 12.6845 30.6097C13.0722 30.5138 13.0769 30.5539 12.7593 31.2356ZM20.4677 31.794L20.8853 31.9736L20.8541 33.5928C20.8269 34.9987 20.934 36.6371 21.0776 37.0111C21.2031 37.3382 19.5599 38.559 17.9593 39.3277C17.5095 39.5436 17.0024 39.8013 16.8325 39.9001C16.4528 40.1209 16.4319 40.092 16.3024 39.161C16.1124 37.7953 16.1135 37.7916 16.8767 37.1498C17.7112 36.448 17.9767 36.0628 18.3263 35.0458C18.611 34.2175 18.7334 33.5809 18.8349 32.3995C18.8873 31.7903 18.9154 31.7098 19.0873 31.6763C19.5633 31.5836 20.0811 31.6278 20.4677 31.794ZM18.3864 32.3051C18.0873 34.4679 17.4082 36.0287 16.4784 36.6908L16.201 36.8883L16.2547 36.5018C16.5251 34.5568 16.8895 33.4027 17.4837 32.6098C17.7099 32.3077 18.2272 31.8818 18.3676 31.8818C18.4101 31.8818 18.4185 32.0722 18.3864 32.3051ZM29.1099 32.792C30.0181 33.2903 30.569 33.7494 31.8493 35.0748C33.0687 36.3371 33.9569 37.503 34.1999 38.1601C34.4039 38.7118 34.5222 39.4576 34.4058 39.4576C34.2415 39.4576 33.133 39.0088 32.3455 38.6233C30.3116 37.6277 28.9296 36.3698 27.85 34.5317C27.4609 33.8691 26.9356 32.7066 26.9997 32.6501C27.0832 32.5769 27.7743 32.4343 28.0874 32.4257C28.3292 32.4192 28.6212 32.5237 29.1099 32.792ZM21.3688 38.5483C22.0099 41.9269 23.3783 44.4328 26.1728 47.3454C27.9417 49.1891 28.8684 50.722 28.9936 52.0114C29.0534 52.6283 28.906 53.6313 28.6359 54.4444C28.1421 55.9309 26.474 56.3145 25.7046 55.1184C25.5442 54.8691 25.5185 54.6772 25.5052 53.6289C25.4969 52.9672 25.4868 52.3586 25.483 52.2766C25.472 52.0436 25.0445 51.5899 24.643 51.3852C24.333 51.227 24.1777 51.2069 23.6069 51.2511C22.7732 51.3157 22.3809 51.4525 21.643 51.936C20.6333 52.5974 19.9182 53.4194 19.4961 54.4041L19.3161 54.824L18.9796 54.2933C18.7944 54.0014 18.5769 53.7084 18.496 53.642C18.3616 53.5318 18.3729 53.4865 18.6281 53.1157C18.7817 52.8925 18.9847 52.5056 19.0792 52.2558C19.1737 52.0061 19.3105 51.7356 19.3831 51.6548C19.4558 51.5738 19.5688 51.1928 19.6343 50.8081C19.6999 50.4232 19.8036 49.8757 19.8646 49.5913C20.1102 48.4488 19.5855 46.5707 18.3535 44.1814C17.1538 41.8549 16.7532 41.0348 16.693 40.7824C16.6411 40.5649 16.6852 40.5213 17.2903 40.1915C17.6497 39.9958 18.2044 39.7221 18.5231 39.5834C19.2826 39.2529 20.5545 38.466 20.8826 38.1236C21.0256 37.9743 21.1695 37.8825 21.2024 37.9196C21.2354 37.9567 21.3102 38.2395 21.3688 38.5483ZM12.0961 40.2821L12.1936 40.5717L12.0177 40.3489C11.8253 40.1053 11.7938 39.9924 11.9181 39.9924C11.9623 39.9924 12.0425 40.1227 12.0961 40.2821ZM12.9414 42.3589C12.9718 42.4382 12.9568 42.474 12.9064 42.4428C12.8579 42.4128 12.8182 42.3506 12.8182 42.3045C12.8182 42.1763 12.8821 42.2046 12.9414 42.3589ZM9.47731 43.6966C9.66219 44.1235 9.69035 45.1585 9.52999 45.6312C9.40279 46.0062 9.06701 46.2313 8.63486 46.2313C8.2858 46.2313 8.22875 46.0194 8.30202 44.9944C8.35746 44.218 8.53859 43.458 8.77945 42.9907L8.91084 42.7357L9.11808 43.0407C9.23209 43.2083 9.39379 43.5035 9.47731 43.6966ZM13.584 43.5352C14.1307 44.4304 15.3746 46.2952 15.6354 46.6108C15.9549 46.9974 16.5363 48.2234 16.6581 48.7675C16.8104 49.4479 16.6401 50.6207 16.3167 51.1194L16.0885 51.4713L15.8583 51.2579C15.7317 51.1404 15.1194 50.7787 14.4977 50.4541C13.8759 50.1294 13.2226 49.7446 13.0457 49.5988C12.7052 49.3181 11.7803 48.1481 11.5504 47.7073C11.4181 47.4536 11.4245 47.4294 11.7492 46.9497C12.1668 46.3326 12.4847 45.6964 12.6646 45.1172C12.8751 44.4402 13.0232 43.4976 12.9592 43.2424C12.8998 43.006 12.9507 42.8445 13.0846 42.8445C13.1272 42.8445 13.352 43.1553 13.584 43.5352ZM11.2137 48.0369C11.2137 48.0985 11.4744 48.5387 11.793 49.0151C12.4931 50.0618 12.9647 50.4554 14.2387 51.056C15.5148 51.6577 15.7598 51.7872 15.7598 51.86C15.7598 51.8943 15.4546 52.1836 15.0816 52.5031L14.4035 53.084L13.9859 52.9194C13.4743 52.7178 12.7573 52.2999 12.2064 51.8822C11.6166 51.4352 9.94645 49.8657 9.61459 49.4467L9.33398 49.0924L9.71032 48.9911C9.96294 48.9231 10.25 48.7317 10.5833 48.4091C11.0952 47.9137 11.2137 47.8437 11.2137 48.0369ZM19.0225 55.3402C19.0961 55.4824 19.1471 55.8497 19.1471 56.2376C19.1471 56.9959 19.3408 57.7422 19.6408 58.1395C19.8393 58.4024 19.8442 58.4411 19.7365 58.8971C19.4995 59.9016 18.9905 60.5888 18.1251 61.0727C17.6797 61.3217 17.4736 61.3831 17.0819 61.3831C16.3395 61.3831 15.7862 61.1541 15.2671 60.6321C14.7106 60.0723 14.5017 59.64 14.4447 58.9304C14.4053 58.4401 14.4228 58.3596 14.6057 58.1892C14.7186 58.0841 14.8266 58.0138 14.8458 58.033C14.8649 58.0522 14.9149 58.4321 14.9566 58.8773C15.0421 59.7878 15.1829 60.0636 15.7849 60.4997C16.4192 60.9591 17.5083 60.813 18.0348 60.1979C18.8536 59.2414 18.9032 57.718 18.1535 56.5498C17.8665 56.1026 16.9763 55.235 16.8 55.2307C16.7426 55.2292 17.0165 54.9332 17.4085 54.5726L18.1212 53.9171L18.5096 54.5083C18.7233 54.8335 18.9541 55.2078 19.0225 55.3402Z" fill="white"/>
</svg>
