<svg width="44" height="37" viewBox="0 0 44 37" fill="none" xmlns="http://www.w3.org/2000/svg">
<path fill-rule="evenodd" clip-rule="evenodd" d="M40.6611 0.788481C40.4596 0.830829 40.0247 1.00132 39.5642 1.2184C38.2526 1.83683 37.4873 2.13698 35.2008 2.92985C34.191 3.27994 32.949 3.58124 31.0757 3.93037C30.7085 3.99881 30.1398 4.1052 29.8119 4.16682C27.8074 4.54346 26.0996 4.6768 23.1833 4.68429C20.8865 4.69015 20.2608 4.65782 18.2236 4.42796C16.9405 4.28322 16.6538 4.23987 14.957 3.93423C13.3551 3.64572 10.2825 3.15495 9.42513 3.0507C7.83028 2.8568 6.78795 2.81569 5.71625 2.90449C5.10083 2.95551 4.93511 2.98861 4.22708 3.20207C3.64571 3.37737 3.4995 3.44643 3.34212 3.61992C3.23211 3.74124 3.18475 3.75592 2.8568 3.77037L2.49337 3.7864L2.46604 3.64929C2.45107 3.5739 2.43876 3.3467 2.43876 3.14445C2.43876 2.79542 2.43013 2.76567 2.26847 2.55812C2.02945 2.25134 1.83655 2.17008 1.34193 2.16765C0.865567 2.16526 0.479769 2.29435 0.20184 2.54906L0.0304937 2.70605L0.0204775 19.0313C0.0149933 28.0101 0.0257227 35.5925 0.0443212 35.8811C0.0756526 36.3668 0.0856678 36.4067 0.179423 36.4201C0.240465 36.4288 0.29302 36.4023 0.311809 36.3533C0.411382 36.0937 0.442762 35.1605 0.416676 33.2343C0.401225 32.0934 0.377712 27.3078 0.364455 22.5997C0.35115 17.8916 0.327259 11.5273 0.311331 8.45676L0.282383 2.87406L0.657166 2.7144C1.0298 2.55569 1.46224 2.48263 1.69024 2.53986C1.75257 2.55554 1.87676 2.63281 1.96617 2.71164C2.05564 2.79047 2.13952 2.85523 2.15263 2.85561C2.16574 2.85599 2.16985 3.08952 2.16169 3.37461C2.14753 3.87124 2.14204 3.89513 2.03055 3.94592C1.8841 4.01268 1.88233 4.08393 2.02559 4.14917L2.13699 4.19991L2.16866 9.71586C2.18606 12.7496 2.21463 19.3035 2.23203 24.2802C2.26308 33.1297 2.26179 33.3308 2.17304 33.4288C2.08739 33.5235 2.08696 33.5324 2.16517 33.5897C2.23952 33.644 2.24829 33.7623 2.25077 34.7418C2.25225 35.3422 2.26861 35.9192 2.28706 36.0241C2.31706 36.1946 2.33657 36.2165 2.47071 36.2295C2.60424 36.2425 2.62432 36.2279 2.65317 36.0966C2.671 36.0154 2.67019 35.4133 2.65145 34.7586L2.61731 33.5681H2.98108C3.25824 33.5681 3.34484 33.5838 3.34484 33.6339C3.34484 33.7568 3.47508 33.8079 4.08978 33.9263C4.76167 34.0556 5.03635 34.0687 5.61129 33.9988C6.41617 33.9009 7.26527 33.8489 8.77012 33.8053C9.62871 33.7805 10.7068 33.7397 11.1658 33.7147C15.3729 33.485 16.3655 33.5186 20.0358 34.0155C21.0305 34.1501 23.5708 34.4115 25.6392 34.5921C29.35 34.916 34.1816 34.6013 37.2774 33.8339C38.8148 33.4528 39.7316 33.1356 40.8041 32.6136C42.3897 31.842 42.7912 31.6813 43.2123 31.6494C43.3777 31.6368 43.3796 31.634 43.4379 31.3268C43.5222 30.8828 43.6294 29.7785 43.6903 28.7252C43.7676 27.3889 43.6698 26.1749 43.3563 24.5788C43.2274 23.9231 43.077 23.129 43.022 22.8143C42.9192 22.2263 42.6596 21.2449 42.044 19.1184C41.3168 16.6062 41.2807 16.3492 41.284 13.7057C41.2854 12.5779 41.3128 11.2795 41.3449 10.8205C41.377 10.3615 41.4248 9.26705 41.451 8.38838C41.4774 7.50971 41.52 6.62985 41.5458 6.43314C41.6251 5.83044 41.6603 1.80354 41.5906 1.33042C41.5012 0.723767 41.4928 0.70975 41.2226 0.714376C41.0974 0.716474 40.8447 0.749853 40.6611 0.788481ZM41.2399 1.89077C41.2246 2.38258 41.1907 3.56822 41.1645 4.52558C41.1383 5.48293 41.0952 6.42718 41.0689 6.62389C41.0425 6.82061 40.999 7.63609 40.9723 8.43607C40.9456 9.23605 40.9025 10.2125 40.8766 10.6059C40.7106 13.1195 40.7033 15.2175 40.8564 16.3915C40.9624 17.2043 41.0769 17.6951 41.5204 19.2376C42.2432 21.7516 42.3981 22.3509 42.5926 23.3872C42.6985 23.9516 42.8399 24.6652 42.9068 24.973C43.09 25.8165 43.162 26.4381 43.1951 27.464C43.2271 28.4578 43.1614 29.8649 43.0438 30.7027C43.0054 30.9763 42.974 31.2063 42.974 31.2137C42.974 31.221 42.8935 31.242 42.7951 31.2602C42.5856 31.299 42.1373 31.5066 41.4718 31.8732C39.9682 32.7012 39.3651 32.9415 37.7759 33.3456C35.6975 33.8742 34.2231 34.0815 31.0518 34.291C29.7015 34.3802 26.94 34.3686 26.0923 34.2702C25.7119 34.226 25.0145 34.1568 24.5424 34.1163C23.2467 34.0053 21.2008 33.7747 19.8927 33.5921C15.9091 33.0362 15.1082 33.0071 10.7604 33.2601C10.1047 33.2983 8.93355 33.3504 8.15785 33.376C6.8294 33.4198 5.77686 33.5047 5.13955 33.6194C4.97159 33.6496 4.64683 33.6566 4.32699 33.6369L3.79416 33.6041L3.87633 32.9705C3.92154 32.622 4.08792 31.557 4.24611 30.6038C4.58751 28.5465 4.69557 27.7233 4.82109 26.224C5.00989 23.9694 5.03674 23.1809 4.97341 21.7521C4.88466 19.7492 4.82457 19.1327 4.54478 17.3539C4.47258 16.8949 4.48174 17.0079 4.41559 16.704C4.39221 16.5403 4.35714 16.5092 4.35714 16.404C4.35714 16.217 4.32923 16.2539 4.27532 16.0143C4.24026 15.8585 4.07781 14.4723 3.94 13.1096C3.82926 12.0145 3.8151 11.6452 3.79746 9.39724C3.77862 6.99868 3.75134 6.41954 3.58209 4.82745C3.55653 4.58691 3.53607 4.30792 3.53665 4.20749C3.53855 3.88154 3.61114 3.83871 4.58474 3.58868L5.46698 3.36211L6.8261 3.36073C8.29367 3.3592 9.00218 3.42721 11.0227 3.7636C12.1149 3.94544 12.8972 4.07043 13.7171 4.19409C14.0843 4.2495 14.7925 4.36916 15.2908 4.46005C16.1951 4.62496 17.8635 4.83069 19.4874 4.97748C21.8719 5.19308 25.6107 5.13967 28.0475 4.8552C30.0678 4.61938 33.9243 3.76165 35.3915 3.22181C37.1011 2.5928 38.0735 2.23179 38.297 2.14318C38.7483 1.96411 39.6941 1.51598 40.0718 1.30219C40.431 1.09889 40.7224 1.01239 41.0836 1.00194L41.2676 0.996597L41.2399 1.89077ZM3.17364 4.82363C3.19109 5.24988 3.22829 5.89902 3.25629 6.26622C3.28428 6.63343 3.3117 8.11417 3.31723 9.55676C3.32615 11.8865 3.33902 12.2889 3.43221 13.1573C3.58381 14.5696 3.61266 14.7798 3.89417 16.5193C4.30357 19.0493 4.35703 19.4855 4.44616 21.026C4.52504 22.3882 4.51664 24.0462 4.4248 25.2464C4.26065 27.3915 4.17381 28.0659 3.70708 30.8211C3.56087 31.6839 3.42739 32.5565 3.41042 32.7602C3.39344 32.9639 3.36635 33.1506 3.35028 33.1752C3.33416 33.1998 3.16539 33.234 2.97526 33.2513L2.62952 33.2827L2.62117 29.5388C2.61659 27.4796 2.60768 25.7359 2.60143 25.6637C2.59513 25.5915 2.57735 22.0453 2.56194 17.7831C2.54649 13.5209 2.52289 8.69941 2.50953 7.06864C2.48197 3.71263 2.43666 4.06466 2.89762 4.05422L3.14188 4.04869L3.17364 4.82363ZM31.7855 8.24116C31.4294 8.40288 30.9301 8.93246 30.4551 9.65214C29.9244 10.4564 29.8289 10.5785 29.2966 11.1337C29.0686 11.3716 28.7783 11.6886 28.6516 11.8382C28.5249 11.9878 28.3425 12.1507 28.2463 12.2003C27.965 12.3454 27.6949 12.6052 27.4456 12.9705C27.2135 13.3106 27.2129 13.3123 27.2144 13.7006C27.2161 14.1337 27.2988 14.3281 27.5836 14.5677C27.7231 14.6851 27.7593 14.6928 28.0697 14.6717C28.7251 14.6271 29.6905 14.1895 30.6335 13.5096C31.1327 13.1496 32.2096 12.4616 32.5235 12.302C32.6378 12.2438 32.9811 12.1105 33.2865 12.0057C33.8924 11.7977 34.2184 11.6307 34.2938 11.4898C34.367 11.353 34.3515 10.9108 34.268 10.7505C34.2273 10.6726 34.0031 10.4299 33.7697 10.2112C33.279 9.75148 33.1736 9.59954 33.0975 9.24325C33.0121 8.84295 32.8505 8.52468 32.6331 8.32877C32.4619 8.17454 32.4034 8.15008 32.2082 8.15098C32.0836 8.15156 31.8935 8.19214 31.7855 8.24116ZM32.2625 8.77213C32.377 8.90829 32.5301 9.31422 32.5302 9.48199C32.5302 9.52309 32.5924 9.68819 32.6684 9.84881C32.7812 10.0873 32.8943 10.2177 33.2844 10.5599C33.8214 11.0309 33.9148 11.1566 33.8161 11.2757C33.7007 11.4146 33.3255 11.5709 32.7933 11.7015C32.1532 11.8587 31.8304 11.9901 31.2426 12.3331C30.7269 12.6339 30.5886 12.7222 30.1219 13.0483C29.3417 13.5936 28.4496 14.0449 28.0939 14.0742C27.9512 14.086 27.9264 14.0675 27.8249 13.8726L27.7131 13.658L27.8041 13.3299C27.9184 12.9175 28.0016 12.8054 28.3956 12.5324C28.5699 12.4116 29.0618 11.9595 29.4887 11.5276C30.1142 10.8948 30.3526 10.6132 30.7162 10.078C30.9644 9.71261 31.2648 9.30854 31.3839 9.17997C31.6178 8.92731 31.9955 8.62993 32.0848 8.62802C32.1153 8.62735 32.1952 8.69221 32.2625 8.77213ZM12.2387 9.40044C11.9384 9.50693 11.8497 9.60941 11.7644 9.949C11.6465 10.4184 11.4252 10.8063 11.192 10.9523C10.9448 11.107 10.9289 11.1338 10.928 11.3976C10.9271 11.6849 11.1184 11.9534 11.4997 12.1998C11.8013 12.3948 12.5134 12.6693 13.0329 12.7908C13.473 12.8938 14.6875 13.4975 15.4577 13.9961C16.1574 14.449 16.4573 14.5879 16.7359 14.5879C16.8863 14.5879 16.9507 14.5527 17.1248 14.3754L17.3334 14.1628L17.3503 13.7197C17.3644 13.3505 17.3525 13.2547 17.2797 13.1458C17.1083 12.8896 16.5707 12.4801 15.5667 11.841C15.0066 11.4843 14.4364 11.106 14.2996 11.0002C13.9096 10.6985 13.4238 10.2101 13.1185 9.81247C12.7729 9.36248 12.5888 9.2763 12.2387 9.40044ZM12.8256 10.0217C13.3704 10.6874 14.4649 11.5522 15.4339 12.0825C16.1247 12.4605 16.607 12.7777 16.8526 13.0156C17.1594 13.3127 17.1721 13.3639 17.0583 13.8477C16.95 14.3082 16.7641 14.3804 16.2923 14.1453C15.97 13.9848 14.8757 13.2448 14.6158 13.0116C14.1616 12.6042 13.4076 12.2829 12.6011 12.1531C12.2385 12.0948 11.8704 11.9241 11.6278 11.7019C11.4107 11.503 11.4014 11.3776 11.5979 11.2962C11.9034 11.1696 12.1365 10.6522 12.125 10.1255C12.1194 9.86469 12.1325 9.81533 12.225 9.75057C12.4257 9.60998 12.5254 9.655 12.8256 10.0217ZM20.5842 12.2216C20.1104 12.2997 19.7693 12.3984 19.1821 12.6271C18.6357 12.8399 18.3308 13.0246 18.2724 13.1783C18.2488 13.2403 18.2064 13.3054 18.1782 13.3229C18.1499 13.3403 18.019 13.5143 17.8872 13.7096C17.5957 14.1415 17.214 15.1436 17.1063 15.7595C16.9671 16.5554 17.0167 17.0502 17.3005 17.6963C17.5026 18.1566 17.5446 18.5169 17.4418 18.9107C17.3249 19.3581 17.3419 19.6328 17.5083 19.9844C17.587 20.1507 17.6521 20.3082 17.6529 20.3345C17.6553 20.4042 17.7968 20.5598 17.9677 20.6805C18.1522 20.8108 18.6363 20.929 18.9899 20.9299C19.5691 20.9314 19.835 21.0898 20.1437 21.6173C20.2477 21.7952 20.3306 21.8677 20.538 21.9627C20.9246 22.1397 21.5932 22.2627 22.3487 22.2959C22.9253 22.3211 23.0716 22.3118 23.4217 22.2272C23.9204 22.1067 24.3509 21.9202 24.3978 21.8043C24.4172 21.7565 24.4717 21.535 24.5191 21.3121C24.6011 20.9258 24.6168 20.896 24.8531 20.6786C25.2403 20.3222 25.4001 20.2604 26.0541 20.2146C26.7765 20.1639 26.9898 20.0698 27.2522 19.6865C27.5067 19.3145 27.5185 19.1486 27.3319 18.5601L27.1787 18.0769L27.2793 17.4818C27.4196 16.6514 27.4099 16.1471 27.2373 15.2956C27.0662 14.4516 26.9635 14.1658 26.7126 13.8359C26.6075 13.6976 26.5214 13.5668 26.5214 13.5452C26.5214 13.463 26.331 13.3452 25.5915 12.9701C24.8159 12.5767 24.351 12.4171 23.5477 12.2685C23.0045 12.1679 21.0929 12.1377 20.5842 12.2216ZM23.5672 12.5556C23.7915 12.5924 24.1456 12.6696 24.3541 12.7273C24.7322 12.8319 25.9831 13.4213 26.1558 13.5763C26.3351 13.7371 26.6338 14.2289 26.7195 14.5042C26.8615 14.9604 26.9983 15.8557 26.9983 16.3285C26.9983 16.5709 26.962 16.9597 26.9177 17.1927C26.7841 17.8946 26.8039 18.3032 26.9959 18.8099L27.1592 19.2405L27.0669 19.4285C26.9322 19.7025 26.7702 19.7725 26.0664 19.8605C25.665 19.9107 25.3649 19.9757 25.21 20.046C24.9297 20.1732 24.5539 20.4944 24.4027 20.7358C24.2693 20.949 24.137 21.3341 24.137 21.5095C24.137 21.6226 24.1106 21.6493 23.9582 21.69C23.8599 21.7163 23.6399 21.7762 23.4694 21.823C23.0204 21.9464 21.768 21.9317 21.1088 21.7953C20.8465 21.7411 20.6152 21.6692 20.5947 21.6355C20.5743 21.6019 20.4883 21.4563 20.4037 21.3121C20.2387 21.0308 19.923 20.7819 19.6151 20.6902C19.5186 20.6614 19.2036 20.6198 18.9151 20.5977C18.6266 20.5755 18.3336 20.5354 18.264 20.5084C18.0646 20.4314 17.9425 20.2666 17.8409 19.9375C17.7266 19.5675 17.7226 19.3151 17.824 18.8694C17.9184 18.4542 17.8646 18.0331 17.6553 17.5486C17.386 16.9255 17.3354 16.5823 17.4155 15.9213C17.5293 14.982 17.9405 14.0204 18.4288 13.5515C18.7605 13.233 19.0313 13.0803 19.6824 12.8445C20.2562 12.6369 20.6315 12.5415 21.0786 12.4897C21.5668 12.4331 23.0606 12.4727 23.5672 12.5556ZM23.7317 16.5334C23.653 16.5837 23.476 16.7446 23.3382 16.8911L23.0879 17.1574V17.5465C23.0879 18.1684 23.262 18.4265 23.9715 18.8557C24.3444 19.0813 24.4827 19.1393 24.6884 19.1564C25.024 19.1842 25.1489 19.1482 25.3601 18.9627C25.6041 18.7485 25.7175 18.4646 25.7468 17.9942C25.7677 17.6584 25.7565 17.5707 25.6693 17.3906C25.5209 17.0841 25.2825 16.8282 24.971 16.6411C24.726 16.4938 24.6543 16.4748 24.286 16.4593C23.9429 16.4449 23.851 16.4572 23.7317 16.5334ZM20.3329 16.5815C19.8269 16.7825 19.263 17.343 19.0787 17.8282C18.8477 18.4359 19.0876 19.1199 19.6202 19.3726C19.7355 19.4273 19.9132 19.4522 20.1887 19.4522C20.5283 19.4522 20.6289 19.4326 20.8491 19.3232C21.2065 19.1457 21.5302 18.8021 21.6592 18.4632C21.7875 18.1263 21.8299 17.6386 21.7549 17.3615C21.6832 17.0966 21.3876 16.7745 21.0716 16.617C20.79 16.4767 20.6178 16.4684 20.3329 16.5815ZM24.8353 16.837C25.1867 17.0489 25.4531 17.3445 25.5228 17.5999C25.5923 17.8544 25.526 18.3648 25.389 18.6301C25.2881 18.8256 24.996 19.021 24.8028 19.0223C24.529 19.024 23.892 18.5737 23.6626 18.2162C23.5374 18.0211 23.5171 17.9447 23.5171 17.6701C23.5171 17.2956 23.583 17.1199 23.8302 16.8354L24.0114 16.6269L24.2913 16.6523C24.4934 16.6706 24.6447 16.722 24.8353 16.837ZM21.1115 16.8787C21.4106 17.0635 21.5332 17.2769 21.5543 17.6492C21.5844 18.1819 21.4022 18.6767 21.074 18.9539C20.4435 19.4862 19.6287 19.405 19.4225 18.7894C19.2369 18.2354 19.564 17.5588 20.3001 16.9739C20.692 16.6624 20.7504 16.6555 21.1115 16.8787ZM22.3206 19.0349C21.9374 19.3282 21.6524 20.0965 21.797 20.4459C21.8725 20.628 22.0264 20.6922 22.3867 20.6918C23.0357 20.6913 23.184 20.5555 23.2198 19.9291C23.2362 19.6431 23.2196 19.5166 23.1369 19.2977C22.9655 18.8431 22.6879 18.7538 22.3206 19.0349ZM22.8171 19.177C22.9471 19.3512 23.0358 20.0691 22.9475 20.234C22.8264 20.4603 22.5192 20.5026 22.3129 20.3214C22.2476 20.2641 22.2295 20.1717 22.2295 19.8963C22.2295 19.4886 22.3053 19.2716 22.4978 19.1283C22.6598 19.0077 22.6946 19.013 22.8171 19.177ZM27.3662 20.2615C27.267 20.311 27.0502 20.3967 26.8844 20.4519C26.4947 20.5816 26.41 20.6469 26.4111 20.8165C26.4137 21.1896 26.7956 21.6347 27.9998 22.6683C28.5629 23.1515 28.7869 23.3253 30.0837 24.2842C30.7311 24.763 31.6015 25.5342 31.8924 25.8868C32.0099 26.0292 32.2381 26.4047 32.3994 26.7214C32.7325 27.3749 33.0036 27.6862 33.4004 27.871C33.7427 28.0304 33.9924 28.0248 34.2279 27.8524C34.514 27.6431 34.5757 27.5521 34.6757 27.1912C34.7266 27.0073 34.9234 26.5512 35.113 26.1778C35.3928 25.6266 35.4612 25.4481 35.4766 25.2295C35.4939 24.9821 35.4806 24.9378 35.3123 24.683C35.2007 24.5141 35.0447 24.3537 34.9129 24.2725C34.6136 24.088 33.9437 23.8304 33.3015 23.6528C32.6415 23.4702 32.2614 23.2834 31.4572 22.7465C31.1162 22.5189 30.6763 22.2498 30.4796 22.1486C29.8397 21.8194 29.2804 21.4167 28.3575 20.6209C27.7859 20.1281 27.6975 20.096 27.3662 20.2615ZM27.9521 20.6683C28.0946 20.7601 28.2287 20.8352 28.2502 20.8352C28.2717 20.8352 28.4119 20.932 28.5618 21.0503C28.7117 21.1686 29.0241 21.415 29.256 21.5979C29.6634 21.9192 29.8661 22.0515 30.5273 22.4274C30.6978 22.5243 31.0519 22.7556 31.3141 22.9413C31.8858 23.346 32.5145 23.6503 33.1199 23.8152C33.5995 23.9459 34.2664 24.1794 34.4895 24.2948C34.8042 24.4575 35.1531 24.8771 35.1531 25.0929C35.1531 25.1286 34.9898 25.4863 34.7903 25.8879C34.5207 26.4306 34.4124 26.7056 34.3684 26.959C34.3017 27.3433 34.2595 27.4397 34.088 27.6001C33.9691 27.7113 33.9656 27.7117 33.7291 27.6331C33.4602 27.5438 33.1414 27.3105 33.0038 27.1024C32.9532 27.0258 32.8037 26.7425 32.6716 26.4727C32.3941 25.906 32.2388 25.719 31.648 25.2408C31.4119 25.0498 31.0042 24.7198 30.7419 24.5074C30.4796 24.2951 30.104 24.011 29.9073 23.8763C29.589 23.6582 28.5844 22.8951 28.4482 22.7678C28.4193 22.7409 28.2691 22.6119 28.1143 22.4811C27.1437 21.6609 26.7024 21.036 26.9413 20.8198C27.0421 20.7286 27.5162 20.508 27.6199 20.5041C27.6601 20.5026 27.8096 20.5765 27.9521 20.6683ZM17.8421 21.0553C16.7959 21.2139 16.8412 21.1934 16.1948 21.8002C15.2697 22.6685 14.5967 23.1345 13.6342 23.5732C13.441 23.6612 13.0695 23.8827 12.8085 24.0654C12.0718 24.5812 11.1854 25.0185 10.7127 25.0992C10.1615 25.1935 9.82532 25.4243 9.65894 25.8224C9.50734 26.1852 9.62489 26.6478 9.93868 26.9233C10.108 27.072 10.1783 27.0967 10.5935 27.1533C10.8903 27.1937 11.0135 27.2721 11.236 27.562C11.5344 27.9509 12.1692 28.2338 12.5744 28.1586C12.8036 28.1161 13.1339 27.7912 13.3082 27.4368C13.6478 26.7466 14.1173 26.1796 15.4803 24.8137C16.2513 24.041 16.7134 23.6224 17.2175 23.24C18.6772 22.1325 18.8118 22.0012 18.8118 21.6855C18.8118 21.4689 18.5628 21.1521 18.3648 21.1166C18.2741 21.1004 18.1462 21.0759 18.0806 21.0621C18.015 21.0484 17.9077 21.0454 17.8421 21.0553ZM18.428 21.4506C18.473 21.5268 18.5098 21.6291 18.5098 21.678C18.5098 21.8449 18.2804 22.1046 17.9061 22.3613C16.8391 23.0933 16.4268 23.4416 15.061 24.7654C13.5702 26.2103 13.2515 26.6048 12.9193 27.4168C12.7769 27.7651 12.7295 27.8338 12.58 27.9089C12.4351 27.9816 12.3791 27.9872 12.2432 27.9423C11.9094 27.8321 11.5421 27.597 11.4323 27.423C11.2308 27.1037 10.9648 26.9058 10.6578 26.8466C10.2387 26.7658 10.0737 26.6765 9.99476 26.4874C9.90139 26.264 9.90816 26.0642 10.0162 25.8525C10.1473 25.5956 10.2508 25.521 10.5955 25.4347C10.9611 25.3432 11.9983 25.0138 12.3308 24.8836C12.4602 24.8329 12.7354 24.6828 12.9424 24.55C13.1495 24.4172 13.5372 24.2066 13.8041 24.0819C14.7504 23.6398 15.1436 23.3665 16.0777 22.5013C16.3793 22.2219 16.7036 21.9216 16.7983 21.834C17.0217 21.6274 17.7833 21.3611 18.273 21.3185C18.3132 21.3149 18.383 21.3744 18.428 21.4506ZM19.7974 21.7413C19.7974 21.7675 19.8188 21.789 19.8451 21.789C19.8713 21.789 19.8927 21.7675 19.8927 21.7413C19.8927 21.7151 19.8713 21.6936 19.8451 21.6936C19.8188 21.6936 19.7974 21.7151 19.7974 21.7413ZM18.6528 22.552C18.6528 22.5782 18.6743 22.5997 18.7005 22.5997C18.7268 22.5997 18.7482 22.5782 18.7482 22.552C18.7482 22.5258 18.7268 22.5043 18.7005 22.5043C18.6743 22.5043 18.6528 22.5258 18.6528 22.552ZM20.1573 22.5872C20.051 22.8641 20.1036 23.9746 20.2351 24.2331C20.3672 24.4924 21.3454 24.7724 22.2838 24.8197C23.417 24.8766 24.1554 24.6375 24.4266 24.1257C24.4655 24.0523 24.4974 23.7761 24.5095 23.4065C24.533 22.6958 24.4744 22.5043 24.2335 22.5043C24.1568 22.5043 24.0769 22.5333 24.056 22.5686C23.9222 22.794 23.2802 23.0296 22.8037 23.028C22.2498 23.0262 21.3173 22.8379 20.7791 22.6192C20.4396 22.4813 20.2026 22.4691 20.1573 22.5872ZM21.1208 22.9592C21.8563 23.1729 22.2858 23.2294 23.0354 23.2112C23.586 23.1978 23.7641 23.1767 23.8867 23.1103L24.0416 23.0265V23.5096C24.0416 23.978 24.0377 23.9959 23.9125 24.095C23.8414 24.1512 23.6214 24.2706 23.4236 24.3602C23.0858 24.5133 23.026 24.5244 22.4374 24.5444C21.7913 24.5663 21.2493 24.4956 20.8797 24.3411C20.5682 24.211 20.5604 24.1892 20.5604 23.4496C20.5604 22.8316 20.5668 22.7827 20.6438 22.8126C20.6898 22.8304 20.9044 22.8963 21.1208 22.9592Z" fill="white"/>
</svg>
