<svg width="41" height="48" viewBox="0 0 41 48" fill="none" xmlns="http://www.w3.org/2000/svg">
<path fill-rule="evenodd" clip-rule="evenodd" d="M15.9898 0.0849582C15.8953 0.154113 15.8799 0.226492 15.9076 0.472074C15.9263 0.638261 15.9692 0.791994 16.003 0.813803C16.0367 0.835548 16.114 0.952934 16.1749 1.07462C16.2358 1.1963 16.3373 1.35276 16.4004 1.42229C16.4636 1.49182 16.7203 1.77628 16.9708 2.05442C17.2212 2.33256 17.5006 2.62668 17.5917 2.70804C17.921 3.0023 18.9268 4.001 18.9268 4.0338C18.9268 4.05233 19.069 4.23096 19.2429 4.43078C19.4168 4.63066 19.559 4.81347 19.559 4.83705C19.559 4.86063 19.6373 4.96031 19.7329 5.05855C20.1286 5.46532 20.7602 6.29853 20.7602 6.41396C20.7602 6.45789 20.8186 6.56801 20.8898 6.65866C21.136 6.97162 21.4697 8.48987 21.5519 9.67157C21.5954 10.2964 21.4454 12.15 21.3402 12.2869C21.3102 12.3261 21.2475 12.5003 21.2009 12.6742C21.0265 13.3251 19.9062 15.718 19.6609 15.9632C19.62 16.0041 19.5309 16.1626 19.463 16.3154C19.395 16.4683 19.2892 16.6485 19.2279 16.716C19.1666 16.7833 19.1165 16.8622 19.1165 16.8913C19.1165 16.9203 19.0169 17.0888 18.8952 17.2657C18.7735 17.4426 18.6739 17.6229 18.6739 17.6662C18.6739 17.7095 18.5938 17.8983 18.4958 18.0858C18.3979 18.2732 18.2672 18.6115 18.2054 18.8374C18.1436 19.0634 18.0673 19.2977 18.0358 19.3581C18.0043 19.4184 17.9785 19.6531 17.9785 19.8796V20.2913H17.7176C17.2299 20.2913 14.2808 20.5491 14.122 20.6055C14.0351 20.6364 13.7933 20.6793 13.5846 20.7006C13.0275 20.7578 12.137 20.9259 12.0997 20.9809C12.0819 21.0072 11.7757 21.108 11.4193 21.2049C11.063 21.3019 10.7713 21.4006 10.7713 21.4241C10.7713 21.4477 10.6764 21.5013 10.5604 21.5432C10.3567 21.6169 10.0504 21.5675 9.85463 21.4294C9.81986 21.4049 9.56382 21.3047 9.28565 21.2067C9.00748 21.1087 8.75143 21.0073 8.71666 20.9814C8.68189 20.9554 8.46853 20.8707 8.24251 20.7931C8.0165 20.7154 7.81735 20.6323 7.79997 20.6084C7.78258 20.5845 7.54076 20.4855 7.26259 20.3883C6.98442 20.2912 6.6857 20.1767 6.59878 20.1339C6.51185 20.0911 6.22736 20.0055 5.96657 19.9439C5.70579 19.8821 5.46396 19.8098 5.42919 19.7833C5.39442 19.7567 5.08148 19.6723 4.73377 19.5956C4.00957 19.4359 3.0978 19.4105 2.85099 19.5433C2.61783 19.6686 2.12402 20.2747 1.9324 20.6706C1.83984 20.8618 1.74419 21.0331 1.71985 21.0512C1.58627 21.1503 1.2046 22.2423 1.09062 22.8515C1.01912 23.2339 0.934713 23.5962 0.903103 23.6565C0.871556 23.7169 0.845703 24.1462 0.845703 24.6104C0.845703 25.4244 0.850759 25.4568 0.987948 25.5193C1.07102 25.5572 1.1893 25.5622 1.27218 25.5316C1.36853 25.496 1.50066 25.5161 1.68312 25.5942C2.02388 25.7401 2.72518 25.917 2.96763 25.9182C3.06974 25.9187 3.27976 25.9632 3.43433 26.017C3.79728 26.1433 6.68943 26.1677 7.23098 26.0489C7.42222 26.007 7.81994 25.9467 8.1148 25.915C8.40967 25.8833 8.86074 25.8139 9.11729 25.7609C9.79261 25.6212 9.92659 25.6323 10.0546 25.8383C10.231 26.122 10.8245 26.7387 11.5907 27.4344C11.8779 27.6951 12.1596 27.952 12.2166 28.0053C12.4466 28.2203 13.4736 29.0147 13.5214 29.0147C13.5551 29.0147 14.3341 29.531 14.533 29.6852C14.6025 29.7391 14.7874 29.8535 14.9439 29.9393C15.1004 30.0252 15.3849 30.1923 15.5761 30.3106C15.7673 30.429 16.0887 30.6136 16.2902 30.7208C16.4917 30.8281 16.6686 30.9504 16.6831 30.9925C16.6976 31.0346 16.7395 31.3678 16.7762 31.7329C16.8757 32.7237 17.002 33.5693 17.182 34.451C17.3522 35.2844 17.3936 36.3734 17.2832 37.106C17.1561 37.949 16.8941 39.2856 16.844 39.3465C16.8139 39.3832 16.7403 39.5839 16.6806 39.7925C16.5702 40.1773 16.1794 40.9116 15.9479 41.1687C15.608 41.5462 15.1193 42.0302 14.848 42.2578C14.6824 42.3969 14.4881 42.5617 14.4163 42.6241C14.3445 42.6866 14.1849 42.7993 14.0616 42.8746C13.9384 42.95 13.8068 43.0414 13.7693 43.0778C13.7316 43.1142 13.4931 43.2717 13.2391 43.4278C12.9851 43.584 12.685 43.7899 12.572 43.8855C12.4591 43.9812 12.3431 44.0594 12.3141 44.0594C12.2852 44.0594 12.2036 44.1174 12.1328 44.1883C12.062 44.2592 11.8049 44.4654 11.5614 44.6466C11.3179 44.8277 10.9908 45.1063 10.8344 45.2657C10.678 45.425 10.4513 45.6234 10.3307 45.7066C10.21 45.7897 9.9042 46.0655 9.65107 46.3194C9.22806 46.7438 9.10414 46.9694 9.24607 47.0571C9.30658 47.0945 10.0251 47.014 10.961 46.865C11.2913 46.8124 11.8176 46.7422 12.1306 46.7089C12.4435 46.6757 13.1121 46.6048 13.6163 46.5515C14.1205 46.4981 14.5257 46.4677 14.6241 46.4422C14.7953 46.4422 14.8412 46.4135 15.0712 46.4135C15.1843 46.4135 15.229 46.4106 15.3215 46.4018C15.4611 46.3885 15.7089 46.3294 16.0544 46.306C17.0526 46.2382 18.2533 46.057 18.3894 45.9535C18.4242 45.9271 18.6068 45.86 18.7954 45.8044C18.9838 45.7488 19.1994 45.6632 19.2744 45.614C19.3494 45.5649 19.5548 45.4819 19.7307 45.4296C20.1041 45.3188 20.9746 44.8554 21.2021 44.6464C21.2887 44.5669 21.3947 44.5019 21.4377 44.5019C21.4807 44.5019 21.5625 44.4308 21.6195 44.3438C21.6765 44.2569 21.7537 44.1858 21.7912 44.1858C21.8559 44.1858 22.3334 43.699 22.7061 43.253C22.8007 43.1398 22.9421 42.9801 23.0203 42.8981C23.0986 42.8161 23.1626 42.7291 23.1626 42.7047C23.1626 42.6802 23.2343 42.5663 23.3219 42.4514C23.5012 42.2163 24.0045 41.2668 24.0779 41.0252C24.1044 40.9382 24.1801 40.7464 24.2463 40.5988C24.3125 40.4513 24.4247 39.9251 24.4958 39.4294C24.5668 38.9338 24.6505 38.4429 24.6817 38.3386C24.7129 38.2343 24.7837 37.6512 24.8389 37.0427C24.8942 36.4343 24.9649 35.8085 24.996 35.6521C25.254 34.3568 25.462 33.3873 25.5044 33.2816C25.5323 33.212 25.6162 32.9454 25.6908 32.6889C25.7653 32.4324 25.8955 32.113 25.9801 31.979C26.0647 31.845 26.134 31.7171 26.134 31.6946C26.134 31.6722 26.2736 31.5223 26.4444 31.3615C26.925 30.9088 27.0375 30.8235 27.4774 30.5792C27.5557 30.5358 27.6339 30.4823 27.6512 30.4603C27.6686 30.4383 27.9816 30.3213 28.3467 30.2001C29.0628 29.9627 29.5867 29.891 31.4761 29.7721C32.8427 29.6862 32.9452 29.6762 33.599 29.5657C34.1558 29.4717 34.6128 29.3453 34.6687 29.2698C34.6861 29.2464 34.8374 29.1617 35.0049 29.0817C35.1724 29.0016 35.3394 28.8883 35.3759 28.8298C35.4311 28.7413 35.5032 28.7308 35.8078 28.7667C36.0089 28.7904 36.2008 28.8268 36.2344 28.8475C36.2679 28.8682 37.0022 28.9152 37.866 28.9517C39.9656 29.0406 40.9283 28.9413 40.9273 28.636C40.9264 28.3587 40.3549 27.973 38.8729 27.2494C37.6278 26.6414 37.0829 26.423 36.8112 26.423C36.6611 26.423 36.3757 26.1332 36.3757 25.9809C36.3757 25.7587 35.5184 24.8088 35.0164 24.4748C34.8774 24.3822 34.7493 24.2892 34.732 24.2681C34.6184 24.1302 33.0446 23.2419 32.2663 22.8764C32.0403 22.7703 31.7843 22.6467 31.6974 22.6018C31.6104 22.5568 31.4255 22.4844 31.2864 22.4408C31.1474 22.3971 30.9136 22.3078 30.767 22.2423C30.6204 22.1768 30.2363 22.0632 29.9135 21.9897C29.5907 21.9162 29.2981 21.8339 29.2634 21.8068C29.2286 21.7797 29.0793 21.7253 28.9315 21.6857C28.7091 21.6263 28.6396 21.5681 28.5279 21.3477C28.4536 21.2013 28.3754 21.0673 28.354 21.0499C28.3075 21.0122 28.138 20.657 28.0292 20.3694C27.9239 20.0908 27.995 19.0385 28.1907 17.979C28.4952 16.3302 28.7199 15.1969 28.7874 14.9686C28.8554 14.739 29.1128 13.1988 29.2395 12.2633C29.3183 11.6812 29.2813 10.0027 29.1858 9.8296C29.1475 9.76007 29.067 9.50406 29.0069 9.26069C28.8975 8.81737 28.4453 7.65097 28.3583 7.58763C28.3328 7.56911 28.2416 7.41885 28.1556 7.25368C28.0696 7.0885 27.9785 6.95342 27.9533 6.95342C27.928 6.95342 27.8602 6.86094 27.8027 6.74797C27.6944 6.53526 25.6072 4.4249 25.5052 4.4249C25.4735 4.4249 25.4014 4.37882 25.3451 4.32243C25.2887 4.26605 25.0093 4.06648 24.7241 3.87887C24.439 3.69125 24.1378 3.48847 24.0547 3.42822C23.7798 3.22879 22.4439 2.4653 22.37 2.4653C22.3507 2.4653 22.1299 2.36966 21.8795 2.25278C21.629 2.13584 21.3529 2.01864 21.266 1.99234C21.179 1.96605 20.9657 1.87983 20.7918 1.80081C20.2776 1.56711 19.4807 1.22519 19.2429 1.13619C19.1212 1.09067 18.9891 1.02879 18.9493 0.998637C18.9095 0.968484 18.6682 0.885992 18.413 0.81532C18.1579 0.744585 17.9343 0.66639 17.9164 0.641548C17.8753 0.584782 17.0227 0.252852 16.918 0.252852C16.8754 0.252852 16.8405 0.227756 16.8405 0.197161C16.8405 0.14343 16.3691 0 16.1924 0C16.1449 0 16.0537 0.0382439 15.9898 0.0849582ZM16.8521 0.742751C17.2578 0.949837 17.7042 1.15092 18.1365 1.32134C18.3104 1.3898 18.6571 1.55434 18.9071 1.68696C20.0026 2.26814 20.6165 2.57757 20.7619 2.62207C20.8479 2.64837 20.9609 2.70444 21.0131 2.7466C21.0652 2.78883 21.2502 2.8832 21.424 2.95634C21.5979 3.02948 22.0501 3.25894 22.4289 3.46628L23.1177 3.84322L22.9299 3.94031C22.6978 4.06035 22.3065 4.48597 22.2439 4.68654C22.2182 4.76865 22.1723 4.8519 22.1418 4.87156C22.0329 4.94186 21.825 5.65692 21.7892 6.08424L21.7527 6.51921L21.5436 6.12792C21.4286 5.91268 21.2906 5.68815 21.237 5.62892C21.1834 5.56962 21.1395 5.50338 21.1395 5.48169C21.1395 5.43934 20.6083 4.84603 20.2702 4.51074C20.1573 4.39867 20.0648 4.28375 20.0648 4.2553C20.0648 4.22692 19.9827 4.11832 19.8823 4.01402C19.7819 3.90972 19.476 3.58619 19.2026 3.29516C18.9292 3.00407 18.5206 2.61708 18.2946 2.43515C17.9062 2.12256 16.398 0.662029 16.398 0.5985C16.398 0.53535 16.5247 0.575616 16.8521 0.742751ZM24.0411 4.46801C25.1364 5.1875 26.8095 6.75853 27.3358 7.5614C27.8448 8.33816 28.1768 9.15493 28.3863 10.1457C28.534 10.8443 28.4101 12.1107 27.9659 14.4441C27.8931 14.8266 27.7524 15.5662 27.6532 16.0877C27.5541 16.6092 27.4089 17.3346 27.3305 17.6996C27.0895 18.8222 27.1345 20.2023 27.4217 20.4973C27.5046 20.5826 27.6748 20.9335 27.7433 21.1605C27.7669 21.2388 27.8097 21.3027 27.8384 21.3027C27.8671 21.3027 27.9082 21.3486 27.9297 21.4046C27.9599 21.4832 27.9434 21.4955 27.8574 21.4585C27.7962 21.4321 27.2624 21.3157 26.6713 21.1997C26.0802 21.0837 25.2267 20.9164 24.7747 20.8278C24.3227 20.7393 23.8533 20.6388 23.7316 20.6047C23.1161 20.432 20.6459 20.2458 18.7754 20.231L18.4028 20.2281L18.4393 19.7698C18.4607 19.5019 18.5301 19.2012 18.6065 19.0459C18.6783 18.8998 18.7371 18.7419 18.7371 18.6948C18.7371 18.6478 18.8167 18.4829 18.9138 18.3283C19.0111 18.1738 19.1293 17.9524 19.1766 17.8365C19.224 17.7205 19.2949 17.5925 19.3341 17.552C19.4585 17.4239 19.9383 16.7166 19.9383 16.6615C19.9383 16.6324 20.0521 16.442 20.1912 16.2383C20.3303 16.0346 20.4441 15.8435 20.4441 15.8137C20.4441 15.7839 20.4961 15.7125 20.5597 15.6549C20.6233 15.5974 20.744 15.401 20.8278 15.2184C20.9116 15.0359 20.9986 14.8724 21.0212 14.855C21.0438 14.8376 21.2249 14.4821 21.4237 14.0649C21.6225 13.6477 21.8223 13.2349 21.8679 13.1476C21.9805 12.9317 22.2061 12.0883 22.3156 11.4731C22.4042 10.9757 22.413 10.5608 22.3919 7.87C22.3803 6.39228 22.4388 5.94182 22.72 5.34326C22.8857 4.99085 23.508 4.23526 23.6326 4.23526C23.6625 4.23526 23.8463 4.34001 24.0411 4.46801ZM3.98536 19.9435C4.70469 20.0808 5.34504 20.2416 5.50764 20.3258C5.64597 20.3973 5.6437 20.4015 5.41282 20.5049C4.51818 20.9051 3.60895 21.7065 3.50109 21.8578C3.47522 21.8941 3.46983 21.8726 3.40379 21.9761C3.24029 22.171 3.19132 22.2421 3.01683 22.7488C2.89854 23.0922 2.92351 23.4622 3.14314 24.6214C3.23531 25.1082 3.31086 25.5135 3.31105 25.5222C3.31175 25.5653 2.69622 25.5308 2.64432 25.4848C2.61126 25.4555 2.38512 25.3817 2.14172 25.3207C1.89832 25.2597 1.64538 25.1951 1.57969 25.1772C1.46887 25.147 1.46323 25.0978 1.50205 24.4977C1.525 24.1419 1.58696 23.6402 1.63969 23.3828C1.74931 22.847 2.1354 21.6722 2.2686 21.469C2.31785 21.3938 2.39865 21.2177 2.44809 21.0776C2.57383 20.7211 2.91801 20.1602 3.1145 19.9914C3.31048 19.8231 3.34481 19.8212 3.98536 19.9435ZM6.50394 20.672C6.53871 20.6967 6.80898 20.7961 7.10454 20.8928C7.4001 20.9896 7.65614 21.0864 7.67353 21.1079C7.69091 21.1295 7.90428 21.2128 8.14768 21.293C8.39108 21.3733 8.66135 21.4751 8.74828 21.5192C8.8352 21.5634 9.09125 21.6481 9.31726 21.7074C9.89409 21.859 10.092 21.9433 10.2101 22.0877C10.3053 22.2042 10.3327 22.2071 10.5895 22.1273C10.7416 22.08 10.9337 22.0002 11.0162 21.9499C11.0987 21.8997 11.4259 21.7875 11.7432 21.7006C12.0606 21.6137 12.3345 21.5199 12.3518 21.4923C12.3886 21.4337 13.8524 21.1763 14.1489 21.1763C14.2593 21.1763 14.3766 21.1511 14.4097 21.1202C14.4427 21.0893 14.868 21.0319 15.3548 20.9925C15.8416 20.953 16.624 20.8898 17.0934 20.8519C18.8095 20.7133 22.9522 20.8876 23.3672 21.1159C23.4275 21.1491 23.5312 21.1763 23.5974 21.1763C23.7611 21.1763 24.9531 21.4098 25.3437 21.5184C25.5175 21.5668 25.9158 21.6523 26.2288 21.7086C26.5417 21.7648 27.0254 21.8658 27.3035 21.9331C27.5817 22.0004 28.0298 22.1037 28.2992 22.1626C28.5687 22.2216 28.7892 22.294 28.7892 22.3236C28.7892 22.3531 28.8532 22.3779 28.9315 22.3786C29.2486 22.3815 31.1409 22.9701 31.3467 23.13C31.3831 23.1582 31.5551 23.2337 31.729 23.2977C31.9028 23.3616 32.3765 23.5932 32.7816 23.8122C33.1867 24.0313 33.5475 24.2105 33.5832 24.2105C33.6189 24.2105 33.6881 24.2504 33.7368 24.2992C33.7855 24.3478 33.9692 24.4629 34.145 24.5549C34.3208 24.6468 34.515 24.7776 34.5765 24.8455C34.638 24.9135 34.7209 24.9691 34.7607 24.9691C34.8583 24.9691 35.6191 25.7041 35.8077 25.9805C35.8907 26.1022 35.9883 26.222 36.0246 26.2467C36.1133 26.3071 35.8914 26.4689 35.6486 26.5208C35.5443 26.5431 35.3594 26.6284 35.2377 26.7105C35.116 26.7925 34.9098 26.904 34.7794 26.9582C34.649 27.0124 34.5415 27.0777 34.5406 27.1033C34.5396 27.129 34.426 27.2196 34.288 27.3047C33.882 27.5551 33.8931 27.776 34.3281 28.1078C34.4528 28.2029 34.5797 28.3462 34.6102 28.4265C34.6407 28.5066 34.709 28.5722 34.762 28.5722C34.9996 28.5722 34.7765 28.7835 34.4061 28.9092C33.8371 29.1024 33.0624 29.2028 31.8703 29.2378C29.2987 29.3135 28.3626 29.3952 27.9357 29.5816C27.8662 29.6119 27.6713 29.681 27.5027 29.735C26.6125 30.0199 25.4936 31.017 25.1897 31.7961C25.1423 31.9178 25.0669 32.1027 25.0222 32.207C24.8542 32.5988 24.8018 32.9324 24.739 34.0085C24.7036 34.617 24.6462 35.1825 24.6115 35.2654C24.5768 35.3482 24.505 35.8602 24.4518 36.4032C24.2367 38.5996 24.0008 40.0965 23.7991 40.5449C23.735 40.6873 23.6164 40.9604 23.5356 41.1516C23.4548 41.3428 23.3521 41.5369 23.3073 41.5828C23.2625 41.6287 23.2258 41.6938 23.2258 41.7274C23.2258 41.8001 22.6656 42.6158 22.4194 42.9017C22.0114 43.3752 21.3987 43.9962 21.3394 43.9962C21.3041 43.9962 21.2233 44.0617 21.1599 44.1417C21.0965 44.2218 20.9167 44.356 20.7602 44.44C20.6037 44.524 20.433 44.6232 20.3809 44.6606C20.2032 44.7879 19.7915 44.8969 19.1532 44.9857C18.8027 45.0344 18.3594 45.099 18.1682 45.1291C17.8086 45.1857 17.0934 45.1485 17.0934 45.0732C17.0934 45.0497 16.9488 44.9911 16.7721 44.943C16.5674 44.8872 16.3953 44.7895 16.298 44.6738C16.1632 44.5137 16.1451 44.4301 16.1451 43.968C16.1451 43.2742 16.3917 41.8201 16.5262 41.7205C16.5496 41.7031 16.6323 41.4969 16.7098 41.2622C16.7874 41.0276 16.8724 40.8355 16.8987 40.8355C16.9557 40.8355 17.0698 40.5954 17.1993 40.2034C17.251 40.0469 17.3487 39.8015 17.4165 39.6579C17.4843 39.5144 17.5789 39.1873 17.6267 38.931C17.6746 38.6747 17.763 38.2375 17.8232 37.9593C18.0184 37.0576 17.9612 34.8472 17.7284 34.293C17.58 33.9399 17.363 32.8619 17.2448 31.8909C17.1437 31.0602 17.1976 30.2195 17.3692 29.9487C17.4193 29.8696 17.4787 29.7162 17.5013 29.608C17.5238 29.4997 17.5977 29.3515 17.6656 29.2788C17.8464 29.0846 17.8239 28.9515 17.6102 28.9515C17.3635 28.9515 17.1855 29.1633 17.0096 29.6662C16.9282 29.8989 16.8436 30.1073 16.8215 30.1294C16.7715 30.1794 16.398 30.0295 16.398 29.9595C16.398 29.9313 16.3473 29.8922 16.2854 29.8725C16.2235 29.8529 16.0173 29.7355 15.8271 29.6116C15.6369 29.4878 15.3959 29.3457 15.2916 29.2958C15.1873 29.246 14.9312 29.092 14.7226 28.9536C14.514 28.8152 14.258 28.655 14.1536 28.5976C13.9311 28.4752 13.2423 28.0154 12.9087 27.7665C12.4931 27.4565 12.1952 27.2219 12.1306 27.1535C12.0958 27.1168 11.8682 26.9191 11.6248 26.7143C11.0742 26.2509 10.3239 25.4748 10.4265 25.4748C10.5593 25.4748 10.6338 25.3258 10.5764 25.1745C10.5354 25.0662 10.4722 25.0323 10.3118 25.0323C10.196 25.0323 10.0741 25.0585 10.0411 25.0906C10.0081 25.1226 9.61123 25.2096 9.15921 25.2838C8.70718 25.3581 8.28044 25.4426 8.2109 25.4717C8.066 25.5323 6.21667 25.667 5.55563 25.665C5.31223 25.6642 4.88239 25.6457 4.60043 25.6238L4.08778 25.5838L3.93662 25.1027C3.80847 24.6946 3.78546 24.4916 3.78546 23.768C3.78546 22.9543 3.79393 22.8977 3.9676 22.5494C4.07558 22.3329 4.33503 21.9982 4.60467 21.7277C5.11284 21.2177 5.29226 21.0825 5.73246 20.8779C5.8993 20.8003 6.0779 20.6947 6.12943 20.6432C6.21693 20.5558 6.3555 20.5664 6.50394 20.672ZM33.0522 25.9783C32.8965 26.0412 32.7089 26.3094 32.7089 26.4688C32.7089 26.6531 33.008 26.9287 33.208 26.9287C33.4752 26.9287 33.7204 26.6703 33.7204 26.3887C33.7204 26.0222 33.4119 25.8326 33.0522 25.9783ZM36.4105 26.7942C36.4435 26.8244 36.6685 26.9101 36.9103 26.9846C37.3952 27.1337 37.8074 27.307 38.3355 27.5836C38.5268 27.6838 38.978 27.9187 39.3383 28.1058C40.0145 28.4568 40.0582 28.5091 39.5486 28.3577C39.3856 28.3093 38.8255 28.2052 38.3039 28.1264C37.7823 28.0476 37.3129 27.9604 37.2608 27.9329C37.1707 27.8852 36.1483 27.7443 35.221 27.6518C34.9858 27.6283 34.78 27.5874 34.7636 27.5609C34.7259 27.5 35.5384 27.0269 35.8539 26.926C35.9844 26.8843 36.1182 26.8252 36.1512 26.7946C36.2277 26.7238 36.3336 26.7236 36.4105 26.7942ZM35.5854 28.0611L35.8383 28.1139L35.4869 28.1218C35.2533 28.1271 35.0943 28.0967 35.0127 28.0312C34.8971 27.9384 34.9028 27.935 35.1113 27.9706C35.233 27.9914 35.4463 28.0321 35.5854 28.0611ZM36.1702 28.1733C36.1093 28.1892 36.0098 28.1892 35.9489 28.1733C35.8881 28.1574 35.9379 28.1444 36.0596 28.1444C36.1813 28.1444 36.2311 28.1574 36.1702 28.1733ZM36.7708 28.2348C36.7274 28.2524 36.6563 28.2524 36.6128 28.2348C36.5693 28.2173 36.6049 28.2029 36.6918 28.2029C36.7787 28.2029 36.8143 28.2173 36.7708 28.2348ZM15.7256 42.4633C15.7022 42.5589 15.6632 42.6513 15.6388 42.6687C15.6144 42.6861 15.5263 42.9136 15.443 43.1744C15.272 43.7099 15.2426 44.4932 15.3786 44.8949C15.4678 45.1586 15.7532 45.4292 16.0077 45.4914C16.1006 45.5142 16.1926 45.5567 16.2119 45.586C16.2313 45.6154 16.5158 45.6597 16.8441 45.6845L17.4411 45.7295L16.967 45.8149C16.1498 45.9621 16.1538 45.8831 16.0187 45.8992C15.8835 45.9152 15.6909 45.8989 15.6054 45.9152C15.5308 45.9295 15.3002 45.9597 14.9606 45.9829C14.6211 46.0063 14.0588 46.0547 13.7111 46.0905C13.3634 46.1264 12.8371 46.1804 12.5415 46.2105C11.8095 46.2851 11.2066 46.3775 10.6627 46.4983C10.4116 46.5541 10.174 46.589 10.1346 46.5758C10.0466 46.5465 10.7062 45.8926 10.8237 45.8926C10.8501 45.8926 10.9776 45.7809 11.1069 45.6444C11.2363 45.5079 11.5195 45.2653 11.7363 45.1052C12.1721 44.7835 12.4096 44.5975 12.6275 44.407C12.707 44.3375 12.898 44.2117 13.052 44.1273C13.2058 44.043 13.346 43.9544 13.3634 43.9304C13.3808 43.9063 13.523 43.8221 13.6795 43.7431C13.836 43.6642 14.0829 43.5181 14.2282 43.4186C14.3736 43.319 14.5215 43.2376 14.557 43.2376C14.5925 43.2376 14.6442 43.2014 14.672 43.1571C14.6999 43.1128 14.7968 43.0294 14.8876 42.9718C14.9784 42.9141 15.0921 42.8291 15.1405 42.7826C15.2615 42.6663 15.7271 42.2894 15.7498 42.2894C15.7599 42.2894 15.749 42.3676 15.7256 42.4633Z" fill="white"/>
</svg>
