<svg width="58" height="55" viewBox="0 0 58 55" fill="none" xmlns="http://www.w3.org/2000/svg">
<path fill-rule="evenodd" clip-rule="evenodd" d="M28.64 0.355276C28.8074 0.386183 29.2184 0.488645 29.5533 0.582921C30.4852 0.84539 31.2301 0.959278 32.1577 0.981325L33.0033 1.00134L32.9963 1.24697C32.9797 1.82284 32.1698 2.99654 31.5058 3.40678C31.3772 3.48625 31.2834 3.5856 31.2974 3.62759C31.3359 3.7427 32.3516 4.33406 32.6989 4.44355C32.8663 4.4963 33.1175 4.55866 33.257 4.58199C33.6003 4.63954 33.5776 4.76973 33.1894 4.96869C33.0127 5.05925 32.5355 5.3209 32.129 5.55016C30.8287 6.28361 29.95 6.35185 28.3765 5.84158C26.8572 5.34897 26.0849 5.33287 25.2576 5.77673C24.5733 6.14389 24.6252 5.97846 24.7154 7.50466C24.759 8.24195 24.8104 9.03985 24.8297 9.27777L24.8647 9.71033L26.0928 9.66244C27.5446 9.60577 28.1094 9.55187 28.9881 9.38597L29.6406 9.26282L29.8452 9.42595C30.1193 9.64446 30.9612 10.9248 31.2806 11.6087C31.5928 12.2773 32.1674 14.0936 32.368 15.0461C32.4748 15.5533 32.5169 16.0016 32.5223 16.6902C32.5349 18.279 32.2804 19.3886 31.5724 20.8325C31.3307 21.3253 31.1048 21.7286 31.0703 21.7286C31.0359 21.7286 31.0077 21.7743 31.0077 21.8301C31.0077 22.0074 30.8913 21.94 30.7271 21.6677C30.4261 21.1686 29.6034 20.668 28.4927 20.3081C27.7014 20.0517 26.3254 19.7674 25.8756 19.7674H25.5282V20.6719C25.5282 21.1694 25.5481 21.6763 25.5726 21.7983L25.6169 22.0201L28.2552 21.9805L30.8934 21.9408L31.4613 22.5279C32.4448 23.5447 32.6332 23.8912 33.379 26.0569C33.5663 26.6006 33.8994 28.0175 34.0229 28.7959C34.1935 29.8718 34.2284 32.3074 34.091 33.567C33.9605 34.7649 33.8056 35.4588 33.4387 36.4903C33.174 37.2342 33.0478 37.4621 32.6526 37.9092C32.5292 38.0488 32.4283 38.2121 32.4283 38.2721C32.4283 38.3534 32.3895 38.3699 32.2761 38.3367C30.8563 37.9214 28.7002 37.6253 27.079 37.6229L26.1606 37.6215L26.0456 39.8026C25.9823 41.0021 25.9237 42.3809 25.9154 42.8664L25.9003 43.7491L26.7797 43.7359C28.67 43.7075 30.499 43.5506 30.9537 43.3777C31.0509 43.3408 31.3173 43.2894 31.5459 43.2636C31.905 43.223 32.0118 43.1751 32.3329 42.9108C32.7799 42.5429 33.341 41.7215 33.736 40.8569C34.4388 39.3186 34.5385 39.1938 35.1119 39.1354C35.9117 39.0539 37.1396 38.8174 38.0431 38.571C38.5826 38.4238 39.1089 38.2861 39.2127 38.2648L39.4014 38.2263L39.356 37.7256C39.331 37.4501 39.307 36.5077 39.3026 35.6312C39.2982 34.7548 39.2912 34.0376 39.2869 34.0375C39.2777 34.0371 38.2284 34.4363 37.4681 34.7294C37.1705 34.8441 36.7818 34.9895 36.6043 35.0525C36.4268 35.1155 36.262 35.1867 36.2379 35.2108C36.2138 35.2348 36.1383 35.2545 36.07 35.2545C35.914 35.2545 35.9081 35.0337 36.0426 34.2401C36.5561 31.2101 36.607 30.8211 36.6632 29.4939C36.6952 28.7366 36.685 28.2031 36.632 27.8708C36.292 25.7384 36.1969 25.251 35.9813 24.5352C35.8469 24.0889 35.675 23.6379 35.5993 23.533C35.4036 23.2621 35.4741 23.1488 35.8385 23.1488C36.0048 23.1488 36.1565 23.1237 36.1754 23.0931C36.1944 23.0625 36.2383 22.8114 36.2729 22.5352C36.3121 22.2233 36.4523 21.7364 36.6428 21.2503C37.1544 19.9455 37.8284 17.9784 38.0147 17.2462C38.4688 15.4623 38.6235 12.8309 38.4471 9.89346C38.3147 7.69016 38.3195 7.08583 38.4706 6.93488C38.6166 6.78894 38.7748 6.87124 38.9295 7.17361L39.038 7.38549L39.2312 7.18389C39.5754 6.82478 40.5777 6.63583 41.3892 6.7771C42.0958 6.90012 42.8782 7.1663 43.704 7.56464C44.7015 8.04589 45.0163 8.11758 45.327 7.93424C45.624 7.75915 45.6874 7.76151 45.6874 7.94783C45.6874 8.19299 44.9198 8.86563 44.1616 9.2848C42.9723 9.94236 42.3436 10.0751 41.4594 9.85546C41.2361 9.8 40.7248 9.73556 40.3231 9.71229L39.5926 9.66994L39.6358 10.3059C39.6596 10.6556 39.7049 11.116 39.7365 11.329C39.7681 11.5421 39.7774 11.8188 39.757 11.9441C39.7226 12.156 39.7407 12.1837 40.0194 12.347C40.5603 12.664 41.5287 13.7858 42.1045 14.7628C42.5217 15.4706 43.0844 16.978 43.3918 18.2119C43.571 18.9311 43.6463 20.7614 43.528 21.522C43.4321 22.1389 43.2346 22.6073 43.0503 22.6555C42.9752 22.6752 42.9138 22.6975 42.9138 22.7053C42.9138 22.713 43.1597 22.9757 43.4604 23.2891C44.0381 23.8915 44.5064 24.6014 44.949 25.5455C45.2597 26.2085 45.6429 27.341 45.7471 27.9047C45.8593 28.5115 45.906 29.8315 45.8325 30.3176C45.7959 30.5593 45.7307 30.9854 45.6875 31.2644C45.5909 31.8879 45.2597 33.1353 45.0628 33.6165C44.8917 34.0345 44.757 34.095 44.3675 33.9282C44.1483 33.8344 43.8093 33.8068 42.5634 33.7811C40.9428 33.7479 40.6435 33.7734 40.7073 33.9393C40.7282 33.994 40.7822 34.9365 40.827 36.0337C40.8988 37.7908 40.9212 38.0251 41.0149 37.9986C41.0733 37.9819 41.456 37.9032 41.8653 37.8236C42.2745 37.744 42.9138 37.5932 43.2859 37.4885C43.658 37.3838 44.2211 37.2346 44.5374 37.157C44.8536 37.0794 45.2798 36.9685 45.4845 36.9106C45.9488 36.779 46.8849 36.7524 47.0888 36.8648C47.32 36.9924 47.4099 37.4241 47.3233 37.9919C47.2837 38.2514 47.2628 38.4752 47.2769 38.4892C47.3238 38.5361 48.818 38.013 50.1522 37.4826C50.8777 37.1941 51.928 36.8055 52.4861 36.619C53.6202 36.24 54.3593 35.9717 55.2597 35.6121C55.8111 35.3919 55.9332 35.3683 56.5541 35.3624C57.389 35.3545 57.5259 35.4324 57.5259 35.9153C57.5259 36.1833 57.4939 36.2466 57.2384 36.4831C56.9489 36.7512 56.0654 37.2362 54.7523 37.8482C53.3061 38.5222 49.3426 40.4395 47.8934 41.1661L46.3977 41.916L45.9456 43.099C45.438 44.4268 44.9947 45.2498 43.9051 46.8868C42.6735 48.7371 41.8953 49.7272 40.8265 50.8035C39.8797 51.7569 39.6835 51.9055 39.024 52.168L38.8211 52.2488L39.227 52.3376C39.7469 52.4515 40.4395 52.4565 40.6235 52.3479C40.7326 52.2835 40.7737 52.2824 40.7959 52.3435C40.8119 52.3876 40.9164 52.5497 41.028 52.7037C41.2742 53.0435 41.5866 53.1934 42.4403 53.3814C43.578 53.6319 43.658 53.6583 43.658 53.7849C43.658 53.9467 43.3211 53.9923 42.7012 53.9146C41.7131 53.7907 41.1008 53.4787 40.7465 52.9185C40.6531 52.7708 40.6291 52.7663 40.3132 52.8372C39.4897 53.0219 37.8566 52.5754 37.0794 51.953L36.8258 51.75L36.5663 52.0228C36.0158 52.6013 34.7872 53.0044 33.7136 52.9587C32.8994 52.924 32.5457 52.757 32.0293 52.1635L31.6652 51.745L31.2519 52.145C29.4877 53.8526 27.8227 53.9999 26.166 52.5948L25.7218 52.2181L25.3375 52.5928C24.8869 53.0321 24.6486 53.2072 24.0061 53.5714C23.4537 53.8845 22.7233 54.1236 22.3247 54.122C21.9491 54.1204 21.1939 53.9562 20.9266 53.8181C20.551 53.6238 19.8887 53.1135 19.6351 52.8228L19.3906 52.5426L19.06 52.7837C18.6093 53.1125 17.8579 53.4779 17.4207 53.581C16.9403 53.6944 16.1195 53.6369 15.6515 53.4572C15.3828 53.354 15.1272 53.1683 14.7314 52.7888C14.4301 52.4998 14.1349 52.1904 14.0755 52.1013L13.9676 51.9393L13.5596 52.2927C13.0163 52.7631 12.3064 53.1196 11.5342 53.3098C10.9567 53.452 10.8597 53.4584 10.4351 53.3826C10.179 53.3368 9.95235 53.2717 9.93144 53.2379C9.87218 53.142 9.69846 53.1656 9.69846 53.2695C9.69846 53.3942 9.05864 53.8817 8.66892 54.0541C8.21209 54.2561 7.3265 54.3638 7.0827 54.247C6.84606 54.1335 6.7684 53.8812 6.98778 53.9386C7.1841 53.9899 8.1142 53.8281 8.44696 53.6846C8.73677 53.5598 9.37903 53.1259 9.41698 53.0294C9.47881 52.8721 9.65218 52.7733 9.80087 52.8106C9.9083 52.8376 9.70407 52.598 9.18129 52.0837C8.39467 51.3099 7.72435 50.5187 7.20156 49.7473C6.87752 49.2691 5.91211 47.35 5.43945 46.2443C5.26451 45.8351 5.00102 45.3051 4.85389 45.0663C4.59567 44.6474 4.56659 44.6241 4.0137 44.3953C3.53989 44.1992 3.36501 44.0814 3.00127 43.7127C2.35421 43.0569 2.14268 42.4403 1.78833 40.1775C1.51125 38.4077 1.33732 37.7416 0.948608 36.9612C0.823865 36.7106 0.672059 36.3038 0.611243 36.0572C0.511327 35.6515 0.510594 35.5757 0.603678 35.2624C0.787546 34.6434 0.793831 34.6428 2.54038 35.0902C4.46836 35.5839 5.3599 35.7793 5.91015 35.8283C6.15199 35.8499 6.44721 35.8829 6.5662 35.9016C6.76773 35.9333 6.78491 35.9204 6.81704 35.7134C6.85587 35.4631 6.96601 33.6295 7.03244 32.1266L7.07654 31.1291H6.38781C5.63299 31.1291 4.70715 31.3068 3.52648 31.6785C2.85764 31.889 2.52773 31.8988 2.52773 31.7082C2.52773 31.6294 2.76207 30.8537 3.0602 29.9456C3.50877 28.5795 3.79194 26.2227 3.72422 24.4193C3.66557 22.8557 3.51958 21.9922 3.0593 20.4867C2.90669 19.9874 2.82268 19.811 2.7254 19.7856C2.64551 19.7647 2.59538 19.6926 2.59538 19.5987C2.59538 19.2785 2.70186 19.2596 4.45415 19.268C5.3534 19.2724 6.34777 19.2975 6.66402 19.3238L7.2389 19.3717L7.24924 18.4875L7.2596 17.6032H6.93036C6.56451 17.6032 5.61067 17.4233 5.40705 17.3159C4.92546 17.0618 4.92945 17.0871 4.71277 12.9622L4.6732 12.2098L4.98634 12.0264C5.15851 11.9255 5.45968 11.7985 5.65552 11.7441C5.85137 11.6898 6.1729 11.6012 6.3701 11.5471C6.56722 11.4932 6.84823 11.4489 6.99455 11.4489C7.21536 11.4489 7.26623 11.4231 7.2941 11.2968C7.31257 11.2131 7.33712 10.1707 7.34855 8.98047C7.37202 6.55034 7.39335 6.4215 7.76595 6.45788C7.92195 6.47317 7.97877 6.51598 7.99508 6.63035C8.0241 6.83465 8.14397 6.82207 8.52916 6.57435C8.81085 6.39323 8.8954 6.37092 9.18067 6.40284C9.36096 6.42299 9.92413 6.61073 10.4322 6.81998C12.0401 7.48234 12.0271 7.47869 12.8271 7.48599C13.6445 7.49343 13.7017 7.53658 13.3283 7.86424C13.204 7.9734 13.0082 8.23877 12.8932 8.45397C12.3957 9.38475 11.7061 9.66785 10.7023 9.35331C9.84452 9.08448 9.39782 9.19688 8.76781 9.83997L8.41213 10.2031L8.4722 10.7954C8.50521 11.1211 8.54917 11.4046 8.56987 11.4253C8.59057 11.446 8.86063 11.5056 9.16992 11.5576C9.94544 11.6882 10.652 11.9525 10.8899 12.2009C11.0729 12.3922 11.0846 12.4377 11.0756 12.9245C11.0702 13.2102 10.9485 14.2505 10.805 15.2362L10.5441 17.0284L10.0256 17.284C9.65367 17.4674 9.38112 17.5513 9.06161 17.5812L8.61608 17.6228V18.2217L8.6135 18.4475L8.6135 18.6162C8.6135 18.785 8.6135 18.8074 8.6135 18.8468C8.6135 18.8863 8.61349 18.9209 8.6135 18.9785L8.6135 19.0924V19.2545C8.63799 19.3568 8.71079 19.3376 8.72059 19.3495C8.73047 19.3615 9.66227 19.378 10.7913 19.3863C12.8193 19.4011 13.2162 19.4421 13.2162 19.6369C13.2162 19.6786 13.2744 19.7944 13.3455 19.8943C13.4167 19.9942 13.5531 20.3337 13.6487 20.6486C13.7442 20.9637 14.0196 21.7996 14.2607 22.5064C15.1772 25.1931 15.3183 26.9818 14.8102 29.4722C14.4809 31.0866 14.2669 31.7027 13.841 32.2619C13.6345 32.5331 13.5102 32.5365 13.0966 32.2821C12.6121 31.984 11.8362 31.6714 11.308 31.5613C10.467 31.386 8.8638 31.1919 8.82146 31.2604C8.79954 31.2959 8.72825 32.3232 8.66317 33.5433C8.59802 34.7634 8.52733 35.8283 8.50602 35.9096C8.45752 36.0946 8.44527 36.0926 10.4426 36.2298C11.2797 36.2873 12.3756 36.3801 12.8779 36.436C13.3802 36.4919 14.2267 36.5851 14.759 36.6431C15.2912 36.7011 15.8001 36.7765 15.8897 36.8105C16.0425 36.8686 16.2132 37.1767 16.759 38.3794C17.05 39.0208 17.5926 40.4546 17.8926 41.375C18.0745 41.9329 18.3059 42.5797 18.4069 42.8121C18.5799 43.2106 18.6036 43.2348 18.8183 43.2348C18.9435 43.2348 19.4009 43.2941 19.8348 43.3665C20.2687 43.439 21.126 43.5305 21.7399 43.5698C22.3538 43.6091 23.0569 43.6577 23.3022 43.6778L23.7483 43.7143L23.7956 42.9166C23.8577 41.8674 24.0359 38.19 24.0382 37.909C24.0399 37.6915 24.0365 37.6892 23.7174 37.6892C23.5401 37.6892 22.8323 37.7358 22.1446 37.7929C20.9944 37.8884 20.3786 37.9669 18.4338 38.2658C18.048 38.3252 17.6903 38.3576 17.639 38.3379C17.4587 38.2688 17.596 37.4249 17.8507 37.0363C17.9062 36.9516 17.9516 36.7957 17.9516 36.6896C17.9516 36.5836 18.0541 36.1792 18.1794 35.7911C18.3048 35.403 18.4457 34.7811 18.4926 34.4091C18.6083 33.4914 18.5494 29.9604 18.4012 28.9312C18.3423 28.522 18.249 27.7612 18.1938 27.2404C18.1387 26.7197 18.0151 25.8828 17.9193 25.3806C17.7212 24.3433 17.1617 22.6078 17.0253 22.6078C16.9011 22.6078 16.915 22.4395 17.0485 22.3286C17.1967 22.2053 19.1044 22.0772 21.5877 22.0239C22.6387 22.0013 23.5008 21.9789 23.5032 21.974C23.5279 21.9258 23.6838 19.9298 23.6644 19.9105C23.6501 19.8962 23.4624 19.9473 23.2473 20.0242C23.0321 20.101 22.506 20.259 22.0781 20.3753C21.2338 20.6048 19.8389 21.0748 19.1804 21.352C18.9532 21.4476 18.7181 21.5257 18.6578 21.5257C18.5976 21.5257 18.4948 21.5917 18.4296 21.6723C18.2408 21.9053 18.0591 21.7929 18.1085 21.4738C18.2046 20.8537 18.4383 19.887 18.6263 19.332C18.7389 18.9996 18.831 18.6453 18.831 18.5448C18.831 18.4443 18.8983 18.062 18.9805 17.6952C19.1135 17.1022 19.1303 16.8338 19.1319 15.27C19.1333 13.8839 19.1077 13.3541 19.011 12.7677C18.7876 11.4132 18.3463 9.79439 18.1834 9.73183C18.0236 9.67056 18.0745 9.48911 18.2729 9.41262C18.4842 9.33126 19.6447 9.37326 21.2325 9.51988C21.7906 9.57141 22.5178 9.63282 22.8485 9.65636L23.4497 9.69916L23.4053 9.47707C23.3363 9.13243 23.2116 5.32266 23.2053 3.36722C23.1995 1.54982 23.2457 1.16129 23.4784 1.07202C23.5422 1.04754 23.6382 1.08561 23.712 1.16473C23.8362 1.29803 23.8419 1.29668 24.5304 0.96374C25.5542 0.468625 26.1004 0.342363 27.3209 0.31876C27.879 0.307939 28.4726 0.324369 28.64 0.355276ZM26.3061 0.863176C25.6698 0.954611 25.2679 1.05396 24.8355 1.22662L24.6502 1.3006L24.8862 1.75906C25.2324 2.4313 25.3466 2.96104 25.35 3.90826C25.3522 4.56122 25.3256 4.79624 25.2134 5.11112C25.1368 5.32632 25.0925 5.49214 25.1151 5.47963C25.7492 5.12789 26.5824 4.92913 27.2194 4.97762C27.4612 4.99601 28.0851 5.13573 28.6058 5.2881C30.0172 5.70118 30.7481 5.67136 32.0022 5.1494L32.5091 4.93846L32.1135 4.72644C31.5748 4.43773 31.1126 4.11216 30.9524 3.90853C30.8791 3.8154 30.7702 3.73919 30.7105 3.73919C30.5198 3.73919 30.5938 3.55591 30.8217 3.46373C31.114 3.34538 32.2297 2.19291 32.4583 1.77299C32.6667 1.39035 32.6327 1.36911 32.1094 1.55435C31.4733 1.77942 30.8947 1.7053 29.2827 1.19212C28.4645 0.931615 27.8151 0.804135 27.1517 0.773702C27.0587 0.769441 26.6782 0.809749 26.3061 0.863176ZM24.0597 1.50741C23.9773 1.50741 23.9654 1.55374 24.0027 1.72721C24.1314 2.32471 24.2556 3.11834 24.4091 4.32506C24.502 5.05498 24.5896 5.66378 24.6037 5.67792C24.6598 5.73405 24.9298 4.96558 25.0022 4.54411C25.1009 3.96845 24.9913 2.77594 24.7915 2.25134C24.5837 1.70577 24.3928 1.4197 24.2684 1.46744C24.2111 1.48942 24.1172 1.50741 24.0597 1.50741ZM23.5577 3.38278C23.6035 4.30416 23.6725 5.43838 23.7111 5.90333C23.7524 6.40189 23.7624 7.35215 23.7352 8.21964L23.6893 9.69058H24.1059C24.4715 9.69058 24.5181 9.67604 24.4864 9.57223C24.4665 9.5071 24.4187 8.93651 24.3802 8.30417C24.2484 6.14064 24.0508 4.19142 23.8007 2.58949C23.6494 1.61995 23.6311 1.55096 23.5474 1.63462C23.4951 1.6869 23.4981 2.18411 23.5577 3.38278ZM8.71288 6.93217C8.53618 7.01272 8.53368 7.0228 8.58239 7.45631C8.60972 7.6995 8.66654 8.20909 8.70862 8.58883L8.7852 9.27919L9.08049 9.0807C9.44998 8.83236 9.72545 8.77954 10.2969 8.84737C10.5445 8.87679 10.9753 8.90357 11.2544 8.90682C11.8912 8.91439 12.1544 8.78373 12.5368 8.27036L12.8138 7.8984L12.1525 7.85708C11.3918 7.80946 11.3509 7.79797 10.192 7.30387C8.97319 6.7842 9.01486 6.79462 8.71288 6.93217ZM7.63822 8.16377C7.61136 8.81362 7.6113 9.81866 7.63822 10.3972L7.68714 11.4489H7.95806H8.229L8.19173 11.0601C8.12645 10.3799 7.94021 8.6618 7.87101 8.10129C7.83421 7.80372 7.80417 7.4139 7.80424 7.23502C7.80424 7.05614 7.77792 6.92609 7.74572 6.94597C7.71352 6.96585 7.66514 7.51385 7.63822 8.16377ZM40.1664 7.19729C39.9272 7.25748 39.8716 7.29731 39.9067 7.38327C40.0507 7.73596 40.0862 7.964 40.087 8.54264L40.0879 9.18694L40.5381 9.16151C40.8742 9.14251 41.1508 9.18059 41.6297 9.31185C41.9825 9.4085 42.37 9.48762 42.4907 9.48762C42.8912 9.48776 44.1501 8.96991 44.7628 8.55298L44.9544 8.42266L44.6348 8.37471C44.459 8.34833 44.0251 8.17466 43.6705 7.98868C43.3161 7.80276 42.8714 7.58777 42.6824 7.51095C41.8162 7.159 40.8146 7.0341 40.1664 7.19729ZM8.09723 7.4419C8.11921 7.61855 8.17264 8.12834 8.21607 8.57469C8.32546 9.70005 8.43228 9.80974 8.38073 8.74376C8.31742 7.43459 8.27433 7.12066 8.1579 7.12066C8.0774 7.12066 8.0653 7.18477 8.09723 7.4419ZM38.6058 8.08438C38.6734 9.31767 38.8521 11.6677 38.8966 11.9054C38.9357 12.115 38.9519 12.1252 39.2439 12.1252H39.5502L39.5104 11.7364C39.3278 9.9525 39.0127 8.269 38.7129 7.47571C38.5961 7.16692 38.5652 7.34241 38.6058 8.08438ZM39.272 7.52724C39.1336 7.64255 39.1224 7.68618 39.1813 7.88007C39.2182 8.00174 39.3007 8.38276 39.3644 8.72686C39.4283 9.07095 39.4996 9.35195 39.5229 9.35141C39.5462 9.3508 39.6109 9.32152 39.6667 9.28629C39.8259 9.18572 39.8112 7.82339 39.6482 7.57445C39.5066 7.35804 39.4792 7.35459 39.272 7.52724ZM28.9223 9.75632C28.7241 9.79372 28.5415 9.83679 28.5164 9.85201C28.4173 9.91233 26.5893 10.0915 25.6635 10.1317C24.6383 10.1762 22.8173 10.0936 21.1047 9.92498C20.2248 9.83841 18.628 9.78783 18.628 9.8466C18.628 9.85796 18.7499 10.1797 18.8987 10.5616C19.4852 12.0662 19.7142 13.3194 19.7591 15.27C19.7892 16.5762 19.776 16.8598 19.6508 17.5927C19.5723 18.0518 19.4486 18.5622 19.3757 18.7269C19.3028 18.8916 19.212 19.1953 19.1738 19.4018C19.1356 19.6083 19.0268 20.0227 18.932 20.3227C18.8371 20.6227 18.7733 20.8819 18.79 20.8986C18.8067 20.9153 18.9521 20.852 19.1131 20.7579C19.502 20.5306 20.352 20.2206 21.4693 19.8986C21.9716 19.7538 22.6565 19.551 22.9914 19.4477C23.5744 19.2681 23.6561 19.2605 24.9193 19.2689C26.4162 19.2789 26.8807 19.3509 28.2319 19.7826C29.3706 20.1465 30.0058 20.4758 30.5152 20.9664L30.9309 21.3669L31.1348 20.9221C31.4403 20.256 31.7982 19.1933 31.9224 18.5839C32.1784 17.3279 31.9802 15.6581 31.307 13.4009C30.9355 12.1555 30.8273 11.8826 30.3943 11.1006C29.8379 10.0955 29.5052 9.61842 29.3867 9.65561C29.3295 9.6736 29.1205 9.71892 28.9223 9.75632ZM6.40818 12.1628C5.86036 12.3207 5.26471 12.5632 5.04479 12.7178C4.97342 12.7679 4.97565 12.9465 5.05683 13.6865C5.11156 14.1854 5.17617 15.0044 5.20032 15.5064C5.22454 16.0084 5.25247 16.4272 5.26242 16.4372C5.27229 16.447 5.65802 16.3298 6.11958 16.1765C6.85039 15.9337 7.05916 15.8933 7.73733 15.8636C8.59694 15.8258 9.42632 15.9514 9.95472 16.1994C10.1143 16.2743 10.2564 16.324 10.2706 16.3098C10.2848 16.2957 10.3774 15.7364 10.4764 15.0669C10.5755 14.3975 10.6997 13.6424 10.7525 13.3889C10.8053 13.1354 10.8485 12.8606 10.8485 12.7784C10.8485 12.561 10.382 12.2854 9.80703 12.1631C9.1338 12.0199 9.03862 12.0115 7.96409 12.0001C7.12133 11.9912 6.93638 12.0105 6.40818 12.1628ZM39.0737 12.4624L38.8528 12.4634L38.8962 13.2918C38.9542 14.4006 38.7742 16.2861 38.5127 17.3083C38.246 18.3507 37.6583 19.9477 36.763 22.0629C36.4793 22.7333 36.5038 22.8032 36.9269 22.5313C37.4431 22.1997 38.0658 21.9593 38.9226 21.761C39.6016 21.6038 39.8124 21.5841 40.5801 21.6055C41.4352 21.6294 41.4748 21.6373 42.0007 21.8867C42.2983 22.0278 42.6062 22.2036 42.6848 22.2774L42.828 22.4114L42.8667 22.2179C42.9731 21.6859 43.0608 20.1959 43.0228 19.5645C42.9558 18.4501 42.4435 16.453 41.9432 15.3555C41.5673 14.531 40.7337 13.3668 40.0746 12.7457C39.7892 12.4769 39.6122 12.3905 39.4299 12.4313C39.3555 12.4479 39.1952 12.462 39.0737 12.4624ZM6.75575 16.6014C5.64625 16.9694 5.68414 16.934 6.25604 17.0687C6.53089 17.1335 6.88348 17.2058 7.03954 17.2294L7.32325 17.2722L7.31014 16.9851C7.29891 16.7414 7.32244 16.6842 7.46606 16.6067C7.68132 16.4905 8.21379 16.5313 8.44311 16.6815C8.55216 16.7529 8.61608 16.8571 8.61608 16.9636C8.61608 17.1027 8.64287 17.127 8.76829 17.1015C8.85204 17.0846 9.04652 17.0537 9.20056 17.033C9.35459 17.0123 9.61289 16.9392 9.7745 16.8705C10.0573 16.7505 10.0627 16.7427 9.91818 16.6654C9.83552 16.6212 9.50112 16.5412 9.17512 16.4878C8.84906 16.4344 8.50615 16.3771 8.41314 16.3607C8.07057 16.3 7.34822 16.4049 6.75575 16.6014ZM7.66522 16.929C7.54447 16.9935 7.5377 17.0584 7.57105 17.825C7.59087 18.2796 7.62321 18.8112 7.64289 19.0065L7.67875 19.3616H7.94447C8.09059 19.3616 8.21426 19.354 8.21919 19.3447C8.22406 19.3353 8.24693 18.8028 8.26993 18.161L8.31167 16.9943L8.14254 16.9321C7.91288 16.8477 7.81824 16.8471 7.66522 16.929ZM24.1296 19.8086C23.9891 19.8463 23.9815 19.8896 23.9605 20.7715C23.9286 22.1055 23.8742 21.9991 24.589 21.9991H25.1899V20.8833V19.7674L24.7333 19.7683C24.4821 19.7688 24.2105 19.787 24.1296 19.8086ZM3.30378 20.0319C3.43894 20.4576 3.81819 22.0726 3.92453 22.6754C4.02851 23.2649 4.0488 23.7187 4.04366 25.3468C4.0375 27.3139 3.95382 28.4205 3.78626 28.7531C3.73687 28.851 3.67944 29.104 3.65867 29.3152C3.63784 29.5265 3.50984 30.0241 3.37421 30.421C3.23857 30.8179 3.13731 31.1524 3.14928 31.1643C3.16119 31.1763 3.41439 31.1276 3.71184 31.0561C5.09904 30.7229 5.36105 30.7099 8.37931 30.8248C9.20868 30.8564 11.2702 31.1796 11.897 31.3762C12.0831 31.4346 12.4909 31.6164 12.8034 31.7804C13.1158 31.9443 13.3802 32.0698 13.3908 32.0592C13.4015 32.0485 13.5201 31.7362 13.6544 31.3652C13.891 30.7119 14.2723 28.989 14.4395 27.8184C14.5376 27.1309 14.4867 25.6836 14.3335 24.8058C14.1331 23.6575 13.4051 21.3243 12.9254 20.2926L12.7765 19.9723H11.897C11.4133 19.9723 10.5762 20.0003 10.0367 20.0345C9.25563 20.084 4.39706 19.9949 3.38572 19.9126C3.29379 19.9051 3.27307 19.9353 3.30378 20.0319ZM40.5597 22.4318L40.5395 22.8983L40.9994 22.8559C41.2524 22.8326 41.7257 22.7932 42.0513 22.7683C42.3768 22.7435 42.6432 22.7029 42.6432 22.6782C42.6432 22.6019 42.2879 22.3659 41.9329 22.2066C41.5621 22.0401 41.0985 21.9386 40.7829 21.9548C40.5802 21.9653 40.58 21.9657 40.5597 22.4318ZM39.5388 22.0399C39.3828 22.0729 39.3787 22.0896 39.4188 22.5196C39.4417 22.7647 39.475 22.9798 39.4928 22.9975C39.5106 23.0153 39.6598 23.0097 39.8243 22.985C40.1059 22.9428 40.1259 22.9254 40.1649 22.6894C40.1877 22.5515 40.2067 22.3307 40.2071 22.1987C40.2079 21.9621 40.2042 21.959 39.9542 21.9822C39.8146 21.9951 39.6278 22.0211 39.5388 22.0399ZM38.1784 22.3541C37.9366 22.4278 37.5564 22.58 37.3336 22.6923C37.1107 22.8047 36.8215 22.9359 36.6909 22.9839C36.4809 23.0611 36.552 23.0679 37.3047 23.0424C37.7729 23.0266 38.3741 23.0136 38.6407 23.0136H39.1255V22.5709V22.1282L38.8718 22.1742C38.7323 22.1995 38.4203 22.2805 38.1784 22.3541ZM27.287 22.4011C25.6686 22.4369 23.3777 22.4676 22.1962 22.4694C20.4492 22.4719 17.7038 22.5733 17.6304 22.6379C17.6211 22.646 17.735 22.9324 17.8832 23.2743C18.3045 24.2453 18.678 25.8358 18.8629 27.4461C18.9224 27.9653 18.9992 28.5727 19.0333 28.7959C19.1834 29.7779 19.2501 31.272 19.2179 32.9312C19.1807 34.843 19.141 35.1188 18.7267 36.3413C18.5952 36.7293 18.4319 37.2365 18.3637 37.4684L18.2399 37.8902L18.3832 37.8586C19.3594 37.6436 22.2962 37.2985 23.8032 37.2217C25.7524 37.1222 29.2082 37.265 30.0489 37.4797C30.1856 37.5145 30.4648 37.5643 30.6695 37.5902C30.8741 37.6161 31.2967 37.7109 31.6086 37.8008C31.9205 37.8907 32.1817 37.9556 32.1891 37.9451C32.3756 37.6791 32.4283 37.5572 32.4283 37.3927C32.4283 37.2835 32.5823 36.7113 32.7706 36.1213C33.1833 34.8272 33.2638 34.4479 33.4138 33.0904C33.6758 30.7199 33.377 28.3497 32.459 25.5159C32.0839 24.3582 31.8801 23.9332 31.3077 23.115C30.7132 22.2655 30.6957 22.2489 30.4429 22.2961C30.3257 22.318 28.9055 22.3653 27.287 22.4011ZM40.7727 23.2877C39.1702 23.4701 38.7773 23.4921 37.4343 23.4739C36.4432 23.4604 35.9181 23.4768 35.9291 23.5208C35.9383 23.558 36.065 23.9262 36.2105 24.339C36.3719 24.7971 36.5325 25.443 36.6226 25.996C36.7037 26.4945 36.7947 26.9502 36.8247 27.0087C36.9333 27.2203 36.9694 29.0369 36.8997 30.791C36.8327 32.4782 36.676 33.9063 36.4917 34.5101C36.4521 34.6401 36.4196 34.7521 36.4196 34.759C36.4196 34.7659 36.5489 34.6998 36.7071 34.612C36.9998 34.4496 38.2746 33.9411 38.8902 33.7411C39.8707 33.4227 41.6465 33.2908 43.1722 33.4232C43.6678 33.4662 44.1606 33.5189 44.2673 33.5402C44.4567 33.578 44.4644 33.5681 44.5955 33.1149C44.6693 32.8596 44.8456 32.2704 44.9872 31.8054L45.2449 30.96L45.2437 29.506C45.2426 28.0773 45.2389 28.0389 45.0278 27.2992C44.5915 25.7704 43.9629 24.4639 43.2703 23.6466C42.7903 23.0802 42.7108 23.0057 42.6363 23.0517C42.6103 23.0677 41.7716 23.174 40.7727 23.2877ZM7.50718 31.5856C7.485 31.8367 7.43468 32.8638 7.39531 33.8681C7.35594 34.8724 7.30925 35.7436 7.29152 35.8041C7.25459 35.9301 7.43231 35.9961 7.81249 35.9975C8.054 35.9984 8.05806 35.9939 8.09871 35.6772C8.12144 35.5005 8.1857 34.5799 8.24151 33.6314C8.29738 32.6829 8.35645 31.7489 8.37282 31.5558C8.40577 31.1666 8.40245 31.1642 7.79423 31.1393L7.54743 31.1291L7.50718 31.5856ZM39.7073 33.9485C39.5852 33.9833 39.581 34.042 39.6239 35.1101C39.6688 36.2297 39.8011 38.1088 39.8379 38.1507C39.8485 38.1628 39.9996 38.1514 40.1735 38.1253C40.4538 38.0833 40.4854 38.0615 40.4512 37.9343C40.43 37.8553 40.4123 36.8978 40.4118 35.8065L40.4108 33.8224L40.1233 33.8671C39.9652 33.8917 39.778 33.9283 39.7073 33.9485ZM1.0147 35.3823C0.9409 35.8436 1.38711 36.845 1.69958 36.9196C1.80159 36.944 2.1106 37.0206 2.38634 37.0898C2.662 37.1591 3.01209 37.2164 3.16429 37.2172C3.31644 37.2179 3.63885 37.2625 3.88069 37.3161C4.12254 37.3698 4.59439 37.4609 4.92925 37.5187C5.2641 37.5765 5.94905 37.6978 6.45134 37.7882C6.95363 37.8787 7.71467 38.0017 8.14254 38.0616C8.57042 38.1216 9.55978 38.2727 10.3411 38.3975C11.8443 38.6375 13.8929 38.7499 14.4568 38.6233C14.6698 38.5755 14.7474 38.5863 14.8487 38.6779C14.9182 38.7408 14.975 38.8316 14.975 38.8799C14.975 38.9281 15.0841 39.2157 15.2175 39.519C15.3509 39.8222 15.686 40.7595 15.9622 41.6019C16.6376 43.6616 17.2787 45.3859 17.3841 45.4263C17.4316 45.4445 19.7476 45.4642 22.5309 45.4701C26.8302 45.4791 27.7085 45.4645 28.3694 45.373C28.7973 45.3138 29.7867 45.2191 30.568 45.1625C32.7543 45.0041 33.0701 44.9616 33.4279 44.7777C33.7397 44.6176 33.8895 44.4473 35.0692 42.9127C35.4991 42.3534 36.149 41.2906 36.149 41.1469C36.149 40.9975 36.2362 40.9732 37.7694 40.6944C38.3072 40.5967 39.4945 40.3409 40.4077 40.126C41.321 39.9111 42.3574 39.6822 42.7109 39.6173C43.9651 39.3869 46.37 38.7319 46.6686 38.5392C46.8074 38.4497 47.0404 37.73 47.0404 37.3907C47.0404 37.23 47.0171 37.2158 46.7529 37.2161C46.5854 37.2163 46.0699 37.3531 45.5183 37.5438C44.9974 37.7239 44.4038 37.9088 44.1991 37.9548C43.9945 38.0008 43.5988 38.1117 43.3197 38.2013C42.5974 38.433 41.0969 38.7361 39.8358 38.9049C39.2405 38.9845 38.3597 39.1423 37.8786 39.2553C37.0201 39.4569 35.7515 39.5911 35.2625 39.5321C34.9873 39.4989 34.9969 39.4834 34.6271 40.556C33.8919 42.6879 32.8532 43.7562 31.3418 43.9349C31.1766 43.9544 30.801 44.0331 30.5069 44.1096C29.5409 44.3614 28.839 44.4162 26.6444 44.4115C23.3264 44.4044 20.3437 44.1058 18.789 43.6253C18.4919 43.5335 18.1117 43.1425 17.8877 42.6984C17.5478 42.025 16.7984 40.1378 16.3818 38.9065C16.1238 38.144 15.8844 37.51 15.8497 37.4976C15.8152 37.4851 15.7868 37.4358 15.7868 37.3878C15.7868 37.3219 15.5024 37.2891 14.6199 37.253C13.978 37.2269 13.0876 37.1769 12.6412 37.142C12.1947 37.1072 11.2814 37.0496 10.6117 37.0141C9.09348 36.9337 8.47659 36.8899 7.70283 36.8076C7.36797 36.7718 6.74594 36.7111 6.32057 36.6725C5.1541 36.5665 4.39543 36.3763 2.81821 35.7941C2.02922 35.5028 1.32906 35.2328 1.26229 35.194C1.07714 35.0862 1.05996 35.0993 1.0147 35.3823ZM55.4962 36.0308C55.1428 36.1672 54.8059 36.3039 54.7475 36.3346C54.626 36.3982 54.0178 36.6398 53.2302 36.9372C52.3089 37.2851 49.3438 38.2978 49.2463 38.2978C49.1956 38.2978 49.0361 38.3481 48.892 38.4095C48.748 38.4709 48.314 38.6068 47.9277 38.7116C47.5413 38.8164 47.2186 38.9106 47.2106 38.9212C47.1932 38.9439 47.095 39.3159 46.8752 40.1915C46.6419 41.121 46.6227 41.2217 46.6826 41.1956C46.7123 41.1827 46.9952 41.0443 47.3112 40.8882C48.3388 40.3805 53.0695 38.1572 54.042 37.7249C55.5478 37.0554 56.7424 36.4322 57.0181 36.1722C57.2404 35.9627 57.2612 35.918 57.181 35.8214C57.0295 35.6389 56.2644 35.734 55.4962 36.0308ZM1.7836 37.4533C1.7836 37.4724 1.84659 37.7082 1.9235 37.9775C2.00049 38.2466 2.13583 38.9041 2.22432 39.4383C2.3128 39.9725 2.39446 40.4171 2.40576 40.4261C2.49235 40.4952 4.68997 41.3548 5.06461 41.4661C5.92652 41.7221 7.32556 42.0203 8.29888 42.1554C8.82681 42.2287 9.42719 42.3191 9.63311 42.3563C9.83903 42.3935 10.4871 42.4655 11.0732 42.5163C11.6593 42.5671 12.156 42.6258 12.177 42.6467C12.4394 42.9091 10.9369 42.8699 8.88668 42.5607C5.23813 42.0106 4.25757 41.7667 2.84277 41.0576L2.4475 40.8594L2.48639 41.0496C2.50783 41.1542 2.55716 41.4375 2.59599 41.6793C2.63489 41.9211 2.70598 42.3204 2.75408 42.5667C2.89993 43.3138 3.36785 43.8092 4.22178 44.1205C4.46031 44.2074 4.70905 44.3636 4.86776 44.526C5.02186 44.6838 5.18936 44.7903 5.28339 44.7903C5.37012 44.7903 5.82815 44.8795 6.30135 44.9885C7.85585 45.3467 8.77702 45.533 9.32639 45.6003C9.62404 45.6368 10.1111 45.6954 10.4088 45.7306C10.9071 45.7894 11.5108 45.8892 14.3324 46.3792C15.5624 46.5929 15.5839 46.5989 15.5839 46.7301C15.5839 46.8189 15.514 46.8279 15.1272 46.7896C14.8761 46.7646 14.3358 46.6851 13.9265 46.6128C12.5845 46.3759 10.4602 46.0975 9.32639 46.0101C8.51765 45.9477 6.2632 45.4891 5.69049 45.2705L5.50467 45.1996L5.80422 45.7896C5.96901 46.114 6.4374 46.9879 6.84512 47.7314L7.58641 49.0832L8.45643 49.2302C8.9349 49.311 9.93089 49.5017 10.6697 49.654C11.4085 49.8062 12.3827 49.9622 12.8345 50.0006C14.3347 50.1281 15.7452 50.276 16.3956 50.3739C16.7491 50.4271 17.6149 50.5182 18.3196 50.5763C19.0243 50.6344 19.6255 50.6972 19.6556 50.7157C19.6857 50.7344 19.7104 50.7895 19.7104 50.8382C19.7104 50.9692 18.3923 50.9128 15.0765 50.6399C14.4068 50.5848 13.6001 50.5388 13.2838 50.5379C12.4436 50.5353 11.481 50.3901 9.73025 50.002C8.87565 49.8125 8.12009 49.6397 8.05136 49.6181C7.76933 49.5291 9.25569 51.431 10.1645 52.322L10.8453 52.9893L11.167 52.941C11.5481 52.8839 12.259 52.6252 12.6007 52.4193C13.1169 52.1084 13.7407 51.6097 13.8136 51.4499C13.9424 51.1672 14.1224 51.2449 14.4909 51.7418C14.9769 52.3972 15.5559 52.9261 15.9559 53.08C16.2011 53.1743 16.4617 53.2097 16.903 53.2087C17.4606 53.2075 17.5489 53.1882 17.9516 52.9797C18.5796 52.6545 19.181 52.233 19.2178 52.0922C19.2564 51.9448 19.4887 51.8732 19.5768 51.9816C20.6461 53.2966 21.3424 53.7184 22.4404 53.7165C22.8428 53.7159 23.0141 53.6762 23.4637 53.48C24.1831 53.1661 24.846 52.7001 25.3561 52.1497C25.8386 51.629 25.7817 51.6252 26.4847 52.2239C26.7214 52.4254 27.1433 52.6993 27.4223 52.8326C27.898 53.0597 27.9698 53.0746 28.5724 53.0702C29.1729 53.0658 29.246 53.0496 29.6886 52.8221C29.949 52.6882 30.2576 52.5069 30.3743 52.4193C30.7416 52.1438 31.4553 51.4583 31.54 51.2996C31.6779 51.0415 31.8473 51.1213 32.2849 51.6501C32.5923 52.0217 32.7985 52.2006 33.075 52.3359C33.4295 52.5093 33.4872 52.5171 34.1733 52.4839C34.7768 52.4546 34.9925 52.412 35.4674 52.2282C36.0368 52.0079 36.5732 51.6122 36.656 51.3514C36.7333 51.108 36.9362 51.154 37.4417 51.5294C38.3205 52.182 38.4155 52.1542 39.787 50.8431C40.5336 50.1293 41.5249 49.0601 41.481 49.0161C41.464 48.9993 41.0718 49.0883 40.6092 49.2138C38.133 49.8864 35.6867 50.3434 32.4621 50.7358C31.8844 50.806 29.9148 50.9553 28.3694 51.0458C27.5058 51.0964 24.6908 50.9828 23.9215 50.8662C23.4543 50.7955 23.3634 50.7614 23.3634 50.6567C23.3634 50.5405 23.4051 50.5355 23.9554 50.586C24.2809 50.6158 25.3997 50.6358 26.4414 50.6305C28.0611 50.6222 28.6199 50.5899 30.2974 50.4078C32.4659 50.1723 34.456 49.9154 35.3372 49.7571C36.6752 49.5168 39.5978 48.8804 41.0572 48.5116C41.5017 48.3992 41.9109 48.3061 41.9667 48.3046C42.0779 48.3016 42.1209 48.2436 43.221 46.6163C43.8454 45.6924 44.7403 44.2383 44.7403 44.1476C44.7403 44.1192 43.9006 44.3313 43.1168 44.5576C41.316 45.0774 39.7827 45.3603 36.6982 45.742C35.6079 45.8769 35.1697 45.8686 35.2204 45.714C35.2346 45.6709 35.3656 45.6264 35.5115 45.615C35.6575 45.6036 36.888 45.4113 38.2461 45.1876C40.5603 44.8063 41.1146 44.687 42.9138 44.183C43.3045 44.0736 43.9275 43.9144 44.2983 43.8293L44.9724 43.6744L45.3247 42.829C45.5185 42.3641 45.8033 41.588 45.9577 41.1045C46.112 40.6209 46.3274 39.946 46.4363 39.6046C46.5453 39.2632 46.6345 38.9698 46.6345 38.9526C46.6345 38.9354 46.3376 39.0122 45.9749 39.1232C45.0566 39.4044 43.6833 39.7629 43.3197 39.8165C42.8076 39.8919 40.8937 40.3183 40.1064 40.5323C39.0996 40.8061 37.3534 41.1921 36.8753 41.2467L36.4853 41.2912L36.1506 41.9596C35.7884 42.6831 35.5575 43.0451 35.0572 43.6744C34.8798 43.8976 34.6024 44.2471 34.4408 44.451C33.8365 45.2139 33.4161 45.365 31.6165 45.4661C30.2413 45.5434 29.1143 45.6398 28.4371 45.7382C27.4461 45.8821 25.8682 45.9277 22.8222 45.9003C19.9705 45.8747 17.8151 45.8265 17.2555 45.7758C17.1517 45.7664 17.0368 45.7288 17.0002 45.6922C16.9065 45.5985 16.2938 43.8405 15.4366 41.2059C15.2853 40.741 15.0518 40.0614 14.9177 39.6958L14.6739 39.0311L14.2325 39.0689C12.8334 39.1887 11.9534 39.1838 11.0176 39.051C9.02982 38.769 6.79188 38.4178 6.01162 38.2654C5.56514 38.1783 5.06285 38.0859 4.89542 38.0601C4.72799 38.0344 4.28659 37.9404 3.91452 37.8513C3.54246 37.7622 3.13149 37.6872 3.00127 37.6846C2.87104 37.6821 2.56663 37.6254 2.32478 37.5587C1.79043 37.4114 1.7836 37.4101 1.7836 37.4533ZM24.582 37.6653C24.3717 37.7074 24.3644 37.7196 24.3985 37.9735C24.4399 38.2821 24.3356 42.4977 24.2688 43.2179L24.2232 43.7082H24.773C25.2887 43.7082 25.3246 43.6988 25.3537 43.556C25.4174 43.2437 25.4605 42.6891 25.5286 41.3073C25.5671 40.5262 25.6267 39.6589 25.6611 39.3799C25.6954 39.1009 25.7436 38.5912 25.7683 38.2471L25.8131 37.6215H25.307C25.0287 37.6215 24.7024 37.6412 24.582 37.6653ZM5.47957 38.901C5.61622 38.9843 5.73366 39.1403 5.80983 39.3397C6.08462 40.059 5.66566 40.6862 4.90976 40.687C4.01666 40.6881 3.67187 39.3733 4.44211 38.9038C4.72367 38.7321 5.20038 38.7309 5.47957 38.901ZM4.68876 39.179C4.54447 39.2562 4.35423 39.583 4.35423 39.7537C4.35423 39.9482 4.72873 40.2591 4.96307 40.2591C5.23461 40.2591 5.57191 39.9406 5.57191 39.6842C5.57191 39.2955 5.03985 38.9912 4.68876 39.179ZM9.22262 39.4984C9.53658 39.6567 9.7245 39.9966 9.7245 40.4063C9.7245 40.9527 9.35244 41.3238 8.74137 41.3869C8.29016 41.4334 7.94508 41.2954 7.71839 40.9778C7.49278 40.6615 7.50252 40.0022 7.73665 39.7486C8.07814 39.3786 8.75815 39.2641 9.22262 39.4984ZM12.1 39.5806C12.5558 39.6846 12.8928 40.0149 13.0182 40.4806C13.138 40.925 13.0609 41.2713 12.7861 41.523C12.0107 42.2335 10.7889 41.5499 10.8642 40.4476C10.8819 40.1888 10.9338 40.0135 11.0216 39.9166C11.2758 39.6358 11.7263 39.4954 12.1 39.5806ZM8.19241 39.9379C7.85132 40.246 7.82236 40.4044 8.05886 40.669C8.21479 40.8435 8.31729 40.8914 8.59058 40.9177C8.90129 40.9475 8.94688 40.9324 9.14469 40.7347C9.40364 40.4758 9.42672 40.2099 9.20794 40.0044C8.84927 39.6675 8.51583 39.6457 8.19241 39.9379ZM11.4232 40.0842C11.0377 40.4696 11.1777 40.9826 11.745 41.2639C12.1005 41.4402 12.3215 41.424 12.5397 41.2059C12.8708 40.8749 12.7309 40.3558 12.2353 40.0759C11.8825 39.8768 11.6281 39.8794 11.4232 40.0842ZM43.3943 41.4271C43.8145 41.7077 43.9768 42.2735 43.7583 42.696C43.6442 42.9165 43.4068 43.0596 43.0471 43.1245C42.7579 43.1768 42.2813 42.9587 42.0796 42.6818C41.9196 42.4621 41.853 41.8917 41.9634 41.6855C42.1838 41.2737 42.9559 41.1343 43.3943 41.4271ZM42.4125 41.8198C42.1906 42.0833 42.1928 42.1584 42.43 42.4122C42.7581 42.7633 43.2151 42.7809 43.4315 42.4508C43.5822 42.2208 43.4941 41.9705 43.1904 41.7659C42.8684 41.5489 42.6263 41.5657 42.4125 41.8198ZM39.6967 41.8288C40.4272 42.253 40.4248 43.3762 39.6926 43.682C39.1725 43.8993 38.568 43.7285 38.3472 43.3017C38.1742 42.9672 38.1504 42.4955 38.2928 42.2226C38.5403 41.7487 39.2271 41.5559 39.6967 41.8288ZM38.9688 42.1606C38.4768 42.4122 38.4504 43.0245 38.9212 43.2679C39.2044 43.4143 39.4244 43.3944 39.6535 43.2017C40.0221 42.8916 39.9493 42.3751 39.5101 42.1841C39.244 42.0684 39.1567 42.0646 38.9688 42.1606Z" fill="white"/>
</svg>
