<svg width="42" height="50" viewBox="0 0 42 50" fill="none" xmlns="http://www.w3.org/2000/svg">
<path fill-rule="evenodd" clip-rule="evenodd" d="M40.5535 0.789474C40.4004 0.913769 40.0249 1.21561 39.7189 1.46029C39.413 1.70498 38.9256 2.10031 38.636 2.33877C38.3464 2.5773 37.5648 3.1317 36.8992 3.57077C33.2817 5.95714 32.6504 6.3244 30.9598 7.02609C29.97 7.43689 29.9658 7.43792 29.1125 7.47769L28.2573 7.5176L28.0087 8.51003C26.0802 16.2099 19.3346 27.3934 12.494 34.2317L11.5773 35.1482L11.4916 34.9444C11.4445 34.8323 11.3702 34.7184 11.3265 34.6915C11.2829 34.6644 11.219 34.5683 11.1846 34.4779C11.0989 34.2525 10.7045 34.2421 10.6047 34.4627C10.5109 34.6701 9.29191 35.3315 8.17677 35.7802C7.17959 36.1814 6.36891 36.5147 6.35509 36.529C6.35037 36.5339 6.32635 36.6035 6.30179 36.6838C6.26587 36.8008 6.34024 36.9089 6.6785 37.2313C6.91036 37.4522 7.25136 37.8135 7.43643 38.0341L7.77284 38.4351L7.39579 38.7185C6.58052 39.3312 4.74577 40.7614 3.57063 41.7001C2.89098 42.243 2.32359 42.6531 2.3097 42.6114C2.29581 42.5697 2.1938 42.4104 2.08297 42.2574C1.80984 41.8802 1.6559 41.894 0.914806 42.3617C0.200733 42.8125 0.192796 42.839 0.536252 43.626C0.715232 44.036 0.74944 44.1815 0.701069 44.3267C0.654066 44.4677 0.678696 44.5945 0.808005 44.8769C1.02099 45.3423 1.83297 46.2163 2.10246 46.2702C2.22917 46.2956 2.46008 46.4844 2.75736 46.8057C3.51679 47.6268 4.804 48.444 6.11802 48.9392C8.39222 49.7962 10.8435 49.4311 12.4414 47.9971C13.2959 47.2303 14.0341 45.9689 14.382 44.6812C14.5525 44.0498 14.5667 43.8952 14.5701 42.6294C14.5741 41.1233 14.5274 40.7761 14.1517 39.5238C14.0232 39.0955 13.9271 38.7378 13.9381 38.7289C13.9491 38.7198 14.189 38.5495 14.4712 38.3504C16.1253 37.1831 19.4866 34.5243 21.3471 32.9113C25.3519 29.4396 28.969 25.7288 31.8957 22.0894C36.6838 16.1351 39.6971 10.4271 40.7445 5.32738C40.952 4.31694 41.0751 3.08016 41.0988 1.76829C41.1193 0.629656 41.1167 0.60433 40.9757 0.584139C40.8914 0.572093 40.7163 0.657309 40.5535 0.789474ZM40.5914 2.29873C40.1612 8.61585 35.8116 16.7628 28.5579 24.8379C26.8601 26.7279 23.8686 29.6784 21.6971 31.6046C18.8102 34.1652 14.8947 37.2053 11.7935 39.2939C11.1855 39.7034 11.3003 39.756 10.6322 38.7623C10.1944 38.1111 9.96664 37.6661 9.95946 37.4482C9.9572 37.3792 10.3666 36.9911 10.9648 36.4952C12.7405 35.023 15.286 32.3788 17.2162 30.0015C21.1637 25.1394 24.908 18.9277 27.0755 13.6451C27.7949 11.8919 28.5472 9.57893 28.7734 8.42448L28.864 7.96248H29.4772C30.0134 7.96248 30.1947 7.92744 30.9185 7.68378C32.072 7.29549 33.6799 6.48703 34.8564 5.70383C36.9531 4.30784 37.6647 3.86158 37.6644 3.94282C37.6636 4.13645 37.0866 6.22352 36.7764 7.15525C36.2247 8.81188 35.7695 9.90007 34.9641 11.4874C33.2135 14.9375 30.9291 18.6944 28.85 21.543C28.4675 22.067 28.1547 22.5213 28.1547 22.5526C28.1547 22.5839 28.2154 22.6095 28.2897 22.6095C28.4568 22.6095 29.4565 21.2987 30.7699 19.3575C33.0227 16.0277 35.4878 11.6609 36.478 9.24546C37.2094 7.46119 38.1436 4.40408 38.1436 3.79451C38.1436 3.55092 38.2118 3.47077 38.8578 2.95491C39.1565 2.71638 39.6799 2.29846 40.0209 2.02619C40.3619 1.75392 40.6415 1.53065 40.6424 1.52997C40.6432 1.52928 40.6202 1.87527 40.5914 2.29873ZM11.0406 35.1566L11.248 35.4179L10.79 35.8344C10.5381 36.0635 10.1395 36.4057 9.90431 36.5949C9.49004 36.9282 9.4767 36.9488 9.4767 37.2582C9.4767 37.7561 9.68599 38.2747 10.2264 39.1162C10.8759 40.1275 10.9564 40.1997 11.4353 40.1997C11.7948 40.1997 11.8503 40.1738 12.6095 39.653C13.2214 39.2332 13.4186 39.1284 13.4596 39.2015C13.5464 39.3568 13.842 40.668 13.9292 41.285C14.0576 42.1926 13.9772 43.7792 13.7608 44.6089C13.084 47.2038 11.1529 48.753 8.59289 48.7547C7.85897 48.7552 6.78365 48.6098 7.18472 48.5643C7.6479 48.5117 8.23342 48.319 8.59343 48.1007C10.2088 47.1211 10.812 44.7098 10.1265 41.9718C9.71219 40.3168 8.75449 38.5448 7.64811 37.3861L7.15085 36.8653L7.81778 36.6066C8.18457 36.4643 8.65569 36.2811 8.86478 36.1995C9.49524 35.9535 10.1073 35.5748 10.4647 35.2096C10.6505 35.0196 10.8095 34.8711 10.8179 34.8797C10.8263 34.8883 10.9265 35.0128 11.0406 35.1566ZM8.33194 39.2928C8.65501 39.8296 9.10219 40.7509 9.14529 40.9686C9.16185 41.0521 9.04376 41.1636 8.74662 41.345C8.51434 41.4868 8.03713 41.7819 7.68615 42.0008C6.51744 42.7298 3.76699 44.3741 3.54149 44.4788C3.41923 44.5355 3.31913 44.6102 3.31913 44.6448C3.31913 44.6795 3.25434 44.7283 3.17511 44.7535C3.06578 44.7882 2.96569 44.7358 2.759 44.5357C2.25209 44.0447 2.02139 43.485 2.32592 43.485C2.38414 43.485 2.48991 43.3892 2.56107 43.2722C2.68648 43.066 3.59978 42.2806 4.72169 41.4144C5.78168 40.596 6.84851 39.7314 7.38997 39.2521C7.69101 38.9855 7.95428 38.7663 7.97501 38.7649C7.99574 38.7635 8.15638 39.001 8.33194 39.2928ZM9.43141 41.8594C9.73258 42.9287 9.81639 44.0602 9.65561 44.8881C9.55429 45.4102 9.5324 45.4515 9.18429 45.7779C8.75387 46.1814 8.33324 46.3544 7.65187 46.4082C7.05007 46.4558 6.71469 46.3763 5.88985 45.9907C5.18447 45.661 4.0514 44.9421 4.10374 44.8574C4.12242 44.8272 4.36147 44.6703 4.63494 44.5088C5.89464 43.7648 7.99834 42.4209 8.58728 41.984C8.94476 41.7188 9.25818 41.5014 9.2837 41.501C9.30928 41.5005 9.37572 41.6618 9.43141 41.8594ZM1.84207 43.2166C1.78897 43.276 1.74553 43.4627 1.74553 43.6313C1.74553 44.1392 2.36847 45.0254 2.94099 45.3319C3.09014 45.4118 3.14699 45.4105 3.33172 45.323C3.54621 45.2214 3.55175 45.2235 4.03218 45.5886C4.29853 45.791 4.9786 46.1885 5.54352 46.4719C6.45012 46.9267 6.63423 46.9942 7.11398 47.048C7.65242 47.1085 8.11643 47.0483 8.6899 46.8437C9.06326 46.7105 8.33529 47.3112 7.83995 47.5451C5.94821 48.4381 3.17286 46.7916 1.31245 43.6726C1.09905 43.315 0.924521 42.9946 0.924521 42.9607C0.924521 42.9267 1.08605 42.8163 1.28344 42.7151L1.64236 42.5312L1.79048 42.8198C1.91883 43.0701 1.92574 43.1229 1.84207 43.2166Z" fill="white"/>
</svg>
