<svg width="54" height="39" viewBox="0 0 54 39" fill="none" xmlns="http://www.w3.org/2000/svg">
<path fill-rule="evenodd" clip-rule="evenodd" d="M44.6696 0.818786C44.509 0.89456 44.3499 0.975836 44.316 0.999405C44.2821 1.02297 44.0346 1.18346 43.766 1.35602C43.4974 1.52859 43.2174 1.74495 43.1437 1.83671C43.07 1.92849 42.9863 1.99763 42.9577 1.99027C42.8534 1.9634 42.8516 2.20338 42.9545 2.42753C43.0126 2.55405 43.0997 2.76 43.148 2.88527C43.1964 3.01047 43.2828 3.19347 43.3402 3.29191C43.5947 3.72903 43.5976 3.72135 43.0501 4.06572C42.7705 4.24153 42.0728 4.67009 41.4995 5.01814C40.9262 5.3662 39.9088 5.98733 39.2387 6.39835C38.5686 6.80937 37.9855 7.12105 37.9428 7.09094C37.8972 7.05868 37.8511 7.09148 37.8307 7.17062C37.8113 7.24605 37.4684 7.50703 37.0501 7.7649C36.6399 8.01781 35.8902 8.48073 35.3842 8.79358C34.8781 9.10643 34.1117 9.57652 33.681 9.83829L32.898 10.3142L32.7089 10.1173C32.5459 9.94756 32.49 9.92527 32.3025 9.95477C32.0457 9.9952 30.6808 10.7643 30.6463 10.888C30.6332 10.935 30.5916 10.9655 30.5538 10.9557C30.337 10.8999 30.4616 11.5935 30.7518 12.0582L30.9177 12.3238L30.5552 12.5542C30.0275 12.8895 29.7801 13.0286 29.3316 13.2416C28.5817 13.5977 26.7557 14.7048 25.608 15.4991C25.3148 15.7021 24.7429 16.069 24.3371 16.3146C23.9312 16.5601 23.3982 16.9011 23.1527 17.0721C22.3147 17.6559 22.3617 17.6344 22.2419 17.4884C22.0423 17.2452 21.7902 17.2455 21.4356 17.4893C21.085 17.7304 20.4057 18.186 20.1771 18.3335C19.987 18.4561 19.9996 18.7037 20.2151 19.0811C20.313 19.2526 20.3876 19.4146 20.3807 19.4411C20.3739 19.4675 20.1954 19.5847 19.9839 19.7015C19.7725 19.8183 19.5941 19.9348 19.5875 19.9604C19.5809 19.986 19.4094 20.1077 19.2064 20.2308C19.0033 20.3539 18.6366 20.5938 18.3912 20.7639C18.1459 20.9339 17.1877 21.5217 16.2617 22.07C15.3358 22.6183 14.4631 23.1527 14.3223 23.2574C13.9716 23.5184 13.0816 24.1103 12.4107 24.5287C11.8792 24.8601 11.8421 24.8713 11.6006 24.7733C11.3653 24.6778 11.3104 24.6909 10.8104 24.9626C10.5149 25.1232 10.2579 25.2733 10.2394 25.2963C10.2209 25.3192 10.0588 25.4536 9.87922 25.5948C9.42635 25.951 9.40944 26.1902 9.79251 26.8215C9.94957 27.0803 10.0704 27.3216 10.0611 27.3578C10.0517 27.394 9.23657 27.9021 8.24965 28.4871C6.53183 29.5051 5.79059 29.9689 5.06469 30.4799C4.51602 30.866 2.10596 32.2976 1.73946 32.4551C1.55169 32.5357 1.34719 32.5886 1.28493 32.5725C1.10468 32.5261 0.616496 32.6604 0.342304 32.8319C0.122791 32.9692 0.0846052 33.0295 0.0466418 33.2992C0.00586923 33.5889 0.0491973 33.685 0.717687 34.7865C1.11069 35.4342 1.51814 36.079 1.62303 36.2194C1.79826 36.454 1.97181 36.7204 2.61998 37.7504C3.05461 38.441 3.14651 38.5348 3.35157 38.4971C3.45264 38.4785 3.54548 38.4248 3.55793 38.3776C3.57036 38.3305 3.60796 38.2989 3.64128 38.3075C3.67468 38.3161 3.7341 38.2738 3.77333 38.2133C3.81264 38.1529 3.88579 38.0647 3.93605 38.0172C3.98632 37.9697 4.17713 37.7512 4.36008 37.5317C4.79219 37.0131 4.75398 37.0406 6.8699 35.7297C7.33122 35.4439 7.83343 35.1282 7.98597 35.0282C8.13858 34.9282 8.47283 34.7414 8.72885 34.6132C8.98485 34.485 9.46213 34.2135 9.78951 34.01C10.1168 33.8064 10.5344 33.5618 10.7175 33.4665C11.0347 33.3012 11.8402 32.85 12.6877 32.3628L13.08 32.1373L13.3064 32.5126C13.4963 32.8275 13.5756 32.8984 13.7985 32.9525C14.1249 33.0318 14.3751 33.0063 14.651 32.8657C14.767 32.8066 14.9567 32.7119 15.0726 32.6552C15.1884 32.5985 15.4212 32.4489 15.5896 32.3226C15.8522 32.1258 15.8994 32.0552 15.9201 31.8296C15.9488 31.5156 16.096 31.333 16.2818 31.3809C16.3719 31.4041 16.4288 31.369 16.4529 31.2754C16.4728 31.1983 16.5402 31.0967 16.6026 31.0499C16.8751 30.8454 17.6805 30.3975 18.3558 30.075C18.758 29.8827 19.6479 29.4048 20.3333 29.0128C21.0187 28.6207 22.0185 28.0535 22.5553 27.7523C23.092 27.451 23.6738 27.1124 23.8483 26.9998C24.0227 26.8871 24.2763 26.7263 24.4119 26.6422L24.6585 26.4894L24.8189 26.7405C24.9071 26.8786 25.0608 27.1362 25.1604 27.3128C25.26 27.4895 25.397 27.6484 25.4647 27.6659C25.5781 27.6953 26.6 27.1581 26.6265 27.0553C26.6328 27.0305 26.793 26.9208 26.9823 26.8116C27.3395 26.6056 27.4757 26.3646 27.348 26.1644C27.2764 26.052 27.4644 25.9196 28.15 25.5996C28.6513 25.3657 28.8309 25.2731 29.7773 24.7612C30.2658 24.4969 30.783 24.2174 30.9265 24.1401C31.5183 23.8211 33.9818 22.4411 34.905 21.9113C35.4501 21.5985 35.9249 21.3499 35.9601 21.359C35.9952 21.3681 36.08 21.3322 36.1485 21.2793C36.2645 21.1897 36.2793 21.1985 36.3674 21.409C36.4194 21.5331 36.5046 21.6458 36.5568 21.6592C36.609 21.6727 36.6677 21.7492 36.6873 21.8293C36.7358 22.028 37.0522 22.2534 37.2848 22.2548C37.4832 22.2561 38.2303 21.9398 38.8618 21.5872C39.3527 21.3131 39.4111 21.0926 39.1192 20.6148C38.9203 20.2892 38.9154 20.2601 39.0516 20.2058C39.2262 20.1363 40.1416 19.6771 40.3917 19.5337C40.4886 19.478 40.7191 19.3604 40.9038 19.2723C41.0886 19.1841 41.4363 19.01 41.6766 18.8853C41.9168 18.7606 42.3322 18.5501 42.5998 18.4175C42.8672 18.285 43.1675 18.1309 43.267 18.0751C43.3665 18.0193 43.7297 17.831 44.0742 17.6567C45.0674 17.154 45.4322 16.965 45.7205 16.8039C45.8685 16.7212 46.1183 16.5975 46.2756 16.5291C46.4329 16.4606 46.6769 16.3421 46.8179 16.2659C46.9589 16.1895 47.3552 15.9851 47.6985 15.8117C48.0418 15.6382 48.5721 15.3636 48.8768 15.2015C49.1816 15.0394 49.5533 14.8416 49.703 14.7621L49.9752 14.6176L50.161 14.8535C50.2632 14.9832 50.4581 15.2886 50.594 15.5321C50.8297 15.9541 50.8552 15.9768 51.1432 16.0182C51.3807 16.0526 51.5274 16.0147 51.8306 15.841C52.0427 15.7196 52.4256 15.5093 52.6815 15.3737C53.2025 15.0979 53.3356 14.859 53.1622 14.5111C53.0494 14.2848 53.0455 14.2072 53.12 13.6736C53.1513 13.45 53.1535 13.261 53.1249 13.2536C53.0963 13.2463 53.0772 13.0701 53.0825 12.862C53.0923 12.472 53.0511 12.1879 52.8446 11.22C52.6736 10.4188 52.6147 10.1993 52.5259 10.03C52.4828 9.94799 52.4531 9.85945 52.4599 9.83314C52.4666 9.8069 52.4027 9.5952 52.3177 9.36278C51.9959 8.48218 51.4965 7.49151 50.8326 6.41689C50.0602 5.16645 50.0277 5.11795 49.8027 4.87728C49.7137 4.78205 49.6302 4.67738 49.6172 4.64459C49.5871 4.56861 48.6638 3.53339 48.615 3.52082C48.5949 3.51565 48.51 3.43011 48.4263 3.33076C48.3426 3.23139 48.1507 3.06057 47.9998 2.95122C47.8489 2.84181 47.7154 2.72765 47.703 2.69736C47.6907 2.66714 47.5243 2.54493 47.3333 2.42585C47.1423 2.30669 46.8995 2.1402 46.7937 2.05579C46.6879 1.97134 46.4106 1.83198 46.1774 1.7459C45.8601 1.62893 45.7226 1.5383 45.631 1.38593C45.5637 1.27386 45.4864 1.17651 45.4593 1.16954C45.4322 1.16255 45.3465 1.05804 45.2689 0.937325C45.0913 0.661103 45.0295 0.648935 44.6696 0.818786ZM45.0941 1.71647C45.7392 3.03526 51.9527 13.7575 52.0928 13.7936C52.1271 13.8024 52.2717 14.0118 52.4142 14.2589L52.6732 14.7083L51.9606 15.1208L51.248 15.5333L51.1557 15.3227C51.1049 15.2069 50.7675 14.6219 50.4058 14.0227C48.7284 11.2436 43.4762 2.32243 43.4888 2.27365C43.5168 2.16511 44.7913 1.36373 44.8939 1.39018C44.9195 1.39676 45.0095 1.54362 45.0941 1.71647ZM46.6013 2.63536C46.6484 2.64771 46.8594 2.80119 47.0701 2.97636C47.2809 3.15152 47.4868 3.30345 47.5277 3.31398C47.5686 3.32452 47.633 3.38242 47.6707 3.44255C47.7084 3.50274 47.8463 3.64542 47.977 3.75953C48.1077 3.87371 48.2399 4.00044 48.2708 4.04122C48.3017 4.082 48.506 4.30669 48.7247 4.54053C48.9435 4.77431 49.1339 4.99508 49.1479 5.03108C49.162 5.06707 49.2463 5.17444 49.3352 5.26966C49.4242 5.36489 49.5457 5.51073 49.6051 5.59387C49.8478 5.93345 51.0714 8.01986 51.1763 8.27304C51.2385 8.42296 51.3409 8.63373 51.4038 8.74143C51.4667 8.84913 51.5132 8.95664 51.5071 8.98035C51.4977 9.01669 51.7135 9.58791 51.8516 9.89234C51.8742 9.94227 51.9196 10.1023 51.9524 10.248C51.9852 10.3936 52.0275 10.5333 52.0463 10.5583C52.1093 10.6418 52.4586 12.3831 52.4532 12.5861C52.4502 12.6961 52.4754 12.7933 52.5091 12.802C52.5428 12.8107 52.5584 12.8641 52.5438 12.9208C52.5292 12.9775 52.4984 13.019 52.4753 13.013C52.4522 13.0071 52.0209 12.2813 51.5168 11.4001C51.0127 10.5189 50.4298 9.51987 50.2213 9.18002C50.0128 8.8401 49.7033 8.31358 49.5334 8.00998C49.3636 7.70632 48.5372 6.29766 47.697 4.87952C46.8567 3.46144 46.2472 2.37128 46.3425 2.457C46.4378 2.5427 46.5542 2.62294 46.6013 2.63536ZM44.3981 5.22983C44.8734 6.07875 45.2949 6.81419 46.481 8.86382C46.8017 9.41799 47.3769 10.37 47.7594 10.9794C48.1417 11.5887 48.7124 12.5228 49.0275 13.0552L49.6003 14.0231L49.309 14.1533C49.1488 14.2248 48.9181 14.3389 48.7965 14.4066C48.6019 14.5151 47.8617 14.8925 47.162 15.2403C47.0331 15.3043 46.7426 15.4574 46.5165 15.5805C46.2904 15.7035 46.0348 15.8364 45.9487 15.8759C45.8625 15.9154 45.5797 16.0568 45.3202 16.1902C45.0607 16.3236 44.5876 16.5634 44.2688 16.723C43.95 16.8826 43.4993 17.1218 43.2673 17.2544C43.0354 17.3871 42.8 17.5078 42.7445 17.5226C42.6888 17.5375 42.4161 17.6725 42.1383 17.8225C41.8606 17.9726 41.3741 18.2263 41.0573 18.3865C40.7404 18.5466 40.3076 18.7679 40.0953 18.8781C39.8831 18.9885 39.6048 19.1296 39.4767 19.1917C39.3487 19.2539 39.1074 19.3775 38.9404 19.4664C38.6176 19.6383 38.4863 19.5967 38.36 19.2824C38.3282 19.2028 38.1713 18.9566 38.0116 18.7353C37.8518 18.514 37.6101 18.156 37.4744 17.9397C37.3387 17.7235 36.9764 17.1521 36.6692 16.6701C36.3621 16.1881 35.4557 14.6917 34.655 13.345L33.1992 10.8963L33.4491 10.7268C33.6874 10.5651 34.3746 10.1422 36.7671 8.68507C38.1087 7.86792 39.1914 7.2021 40.7306 6.2478C41.394 5.8365 42.3553 5.24086 42.8668 4.92416C43.3785 4.60755 43.8227 4.35109 43.8542 4.35436C43.8856 4.35768 44.1303 4.75165 44.3981 5.22983ZM53.8155 13.3888C53.8001 13.4486 53.8365 13.5102 53.8963 13.5256C53.9562 13.541 54.0024 13.5138 53.9989 13.4651C53.9893 13.3267 53.8468 13.2675 53.8155 13.3888ZM32.61 11.1296C32.7705 11.4185 33.1242 12.0398 33.3959 12.5103C33.6676 12.9808 33.8851 13.3848 33.8791 13.4081C33.873 13.4315 34.0919 13.8301 34.3654 14.2938C34.6388 14.7576 34.9921 15.3612 35.1504 15.6351C35.4741 16.1952 36.3902 17.6453 36.7548 18.1746C37.261 18.9094 37.4771 19.2423 37.9047 19.9451C38.1477 20.3446 38.4042 20.7358 38.4746 20.8145C38.6903 21.0558 38.6235 21.1404 38.0051 21.4096C37.8306 21.4856 37.6271 21.5897 37.5526 21.641C37.4782 21.6924 37.3987 21.7296 37.3759 21.7237C37.3532 21.7179 37.1626 21.43 36.9525 21.0841C36.7423 20.7381 36.412 20.2378 36.2184 19.9723C35.7108 19.2761 35.1219 18.3628 34.4993 17.306C33.708 15.963 33.0029 14.7184 32.9276 14.5317C32.8916 14.4424 32.7765 14.2532 32.672 14.1114C32.5675 13.9695 32.2236 13.4362 31.9077 12.9263C31.5919 12.4163 31.2279 11.8453 31.0988 11.6574C30.9645 11.462 30.9023 11.3109 30.9534 11.3042C31.0025 11.2979 31.3082 11.135 31.6328 10.9422C31.9574 10.7494 32.2444 10.5946 32.2706 10.598C32.2967 10.6015 32.4494 10.8407 32.61 11.1296ZM31.9528 14.0266C32.1427 14.3375 32.3997 14.7333 32.5238 14.9063C32.6478 15.0792 32.7439 15.2445 32.7374 15.2735C32.709 15.399 35.4543 20.0795 35.7171 20.3538C35.8124 20.4533 35.8515 20.5248 35.8041 20.5127C35.67 20.4786 34.4632 21.1203 31.2557 22.931C29.991 23.6449 28.2021 24.6979 27.6623 25.0462C27.2332 25.3231 27.1812 25.3394 27.1439 25.2094C27.0935 25.0332 26.8909 24.6592 26.7473 24.4771C26.6469 24.3497 26.644 24.3525 26.6879 24.5337C26.7132 24.6386 26.8105 24.8583 26.9038 25.0219C26.9972 25.1854 27.0669 25.3454 27.0587 25.3774C27.0198 25.5282 26.8732 25.3414 26.493 24.6566C26.1335 24.0091 24.5827 21.383 23.1062 18.9216L22.638 18.1411L24.552 17.0071C25.6047 16.3835 26.9368 15.5819 27.5121 15.2258C28.0874 14.8697 28.8505 14.4234 29.2078 14.2341C29.5651 14.0447 30.1285 13.7459 30.4597 13.5701C30.7909 13.3943 31.0683 13.2254 31.0762 13.1948C31.0841 13.1641 31.1402 13.1065 31.2008 13.0668C31.3225 12.987 31.2995 12.9577 31.9528 14.0266ZM25.7829 24.5428L26.8135 26.2759L26.2441 26.5951C25.9309 26.7707 25.6626 26.9112 25.6477 26.9074C25.6329 26.9036 25.4837 26.6756 25.3163 26.4008C23.9541 24.165 23.3801 23.2287 22.7696 22.2467C22.3818 21.6231 21.8191 20.7116 21.5191 20.2214C21.2191 19.7311 20.9613 19.3268 20.9462 19.3229C20.9311 19.319 20.8412 19.1887 20.7464 19.0334L20.5741 18.7509L21.2288 18.3308L21.8834 17.9108L23.3178 20.3603C24.1068 21.7075 25.2161 23.5896 25.7829 24.5428ZM20.9913 20.3717C21.048 20.4807 21.496 21.2379 21.9868 22.0544C22.4776 22.8709 23.0181 23.7848 23.188 24.0853C23.3579 24.3859 23.6354 24.8446 23.8048 25.1045C23.9741 25.3645 24.1262 25.6252 24.1427 25.6839C24.1636 25.7585 23.6971 26.071 22.5923 26.7225C21.723 27.2352 20.4788 27.9787 19.8273 28.375C19.1758 28.7712 18.1648 29.3684 17.5807 29.7021C16.5621 30.284 15.9452 30.6777 15.9701 30.7297C15.9766 30.7432 15.8963 30.8073 15.7916 30.8722L15.6012 30.9902L14.8075 29.68C13.1004 26.8621 12.6645 26.1538 12.4461 25.8439C12.3214 25.6669 12.2256 25.4976 12.2333 25.4678C12.2473 25.4135 12.7598 25.0921 14.5492 24.0158C15.0738 23.7002 15.7895 23.2259 16.1397 22.9617C16.4899 22.6974 17.2055 22.2235 17.73 21.9084C19.0524 21.114 20.2176 20.3752 20.4757 20.1675C20.7142 19.9755 20.8035 20.0108 20.9913 20.3717ZM12.0813 26.5499C12.5047 27.253 13.1486 28.281 14.1722 29.8883C15.407 31.8272 15.3588 31.7229 15.1087 31.9139C15.0053 31.9928 14.8969 32.0324 14.8676 32.002C14.8384 31.9716 14.8037 31.9886 14.7905 32.0398C14.7773 32.091 14.6155 32.2196 14.4311 32.3256C14.1892 32.4644 14.0708 32.4943 14.0065 32.4326C13.9575 32.3854 13.4453 31.5769 12.8682 30.6358C11.5584 28.4996 11.3863 28.2281 11.0673 27.794C10.677 27.2631 10.2186 26.4616 10.2455 26.3571C10.2587 26.3061 10.378 26.1946 10.5109 26.1094C10.6437 26.0243 10.903 25.852 11.0873 25.7266C11.3581 25.5424 11.4372 25.5189 11.4991 25.6047C11.5414 25.6631 11.8033 26.0884 12.0813 26.5499ZM10.907 28.4946C11.0765 28.7398 11.2846 29.0672 11.3693 29.2222C11.454 29.3773 11.7807 29.9477 12.0953 30.4898C12.4099 31.0319 12.6433 31.4699 12.614 31.4631C12.5384 31.4456 11.2347 32.2055 10.3488 32.7833C9.93707 33.052 9.28759 33.4611 8.90554 33.6926C8.5235 33.924 8.0646 34.2047 7.8858 34.3162C7.70702 34.4276 7.43408 34.5912 7.27926 34.6795C7.12444 34.7679 6.83678 34.9411 6.64002 35.0643C6.44325 35.1875 6.05867 35.4004 5.78536 35.5375C5.51207 35.6745 5.10245 35.8821 4.87502 35.9989C4.64762 36.1156 4.43765 36.2051 4.40852 36.1975C4.37931 36.19 4.25086 36.0353 4.12312 35.8536C3.9953 35.6719 3.78061 35.3748 3.64596 35.1935C3.40879 34.8739 3.01804 34.3267 2.73494 33.9178C2.65906 33.8081 2.53273 33.6374 2.45412 33.5384L2.31117 33.3582L3.69375 32.5197C4.93097 31.7693 5.65618 31.2883 6.12852 30.9049C6.21499 30.8346 6.38541 30.7104 6.5072 30.6287C6.629 30.5471 6.89107 30.3618 7.08957 30.217C7.28807 30.0723 7.78617 29.7388 8.19643 29.476C8.60672 29.2131 9.2818 28.7686 9.69662 28.4881C10.1115 28.2076 10.4841 27.994 10.5248 28.0135C10.5654 28.0329 10.7374 28.2495 10.907 28.4946ZM1.37935 33.6041C1.38553 33.6763 1.53238 33.9531 1.70555 34.2193C1.87878 34.4855 2.35621 35.2575 2.76654 35.9349L3.51264 37.1664L3.34813 37.3504C3.15976 37.5611 3.09561 37.518 2.84314 37.0115C2.69547 36.7151 2.53801 36.452 1.32174 34.4684L0.588243 33.2721L0.978085 33.3726C1.28752 33.4523 1.37032 33.5 1.37935 33.6041ZM3.6404 36.2181C3.8079 36.4821 3.9238 36.7107 3.89798 36.7259C3.84561 36.7568 3.25549 35.8559 3.27598 35.7764C3.29832 35.6897 3.32786 35.7255 3.6404 36.2181Z" fill="white"/>
</svg>
