<svg width="59" height="45" viewBox="0 0 59 45" fill="none" xmlns="http://www.w3.org/2000/svg">
<path fill-rule="evenodd" clip-rule="evenodd" d="M41.9419 0.569468C41.2474 0.706936 40.5961 1.16919 39.8192 2.07599C38.083 4.10268 37.198 6.5835 37.0742 9.77104C37.0196 11.1749 37.1569 12.2106 37.6673 14.2448C38.1205 16.0513 38.2567 16.4485 38.4225 16.4485C38.6085 16.4485 38.6461 16.377 38.568 16.1716C38.5292 16.0696 38.4251 15.449 38.3366 14.7925C38.0545 12.6986 38.2117 11.5084 38.9958 9.80235C40.0317 7.54806 40.9447 6.13128 42.3731 4.56099C43.5845 3.22939 44.1181 2.49394 44.3057 1.89756C44.4538 1.42649 44.422 1.05285 44.212 0.799797C43.9863 0.527748 42.7742 0.404795 41.9419 0.569468ZM43.7655 1.08689C44.1502 1.42672 43.3812 2.78674 41.9544 4.28993C40.6841 5.62806 39.9116 6.7671 38.9262 8.75473C38.2749 10.0685 38.0631 10.6194 37.8961 11.4339C37.8182 11.8135 37.7374 12.1412 37.7166 12.162C37.65 12.2286 37.5744 11.2548 37.5736 10.3224C37.5728 9.3103 37.7063 8.35585 38.0466 6.94074C38.2221 6.21054 38.3916 5.74844 38.7573 5.00296C39.3396 3.81544 39.8005 3.15325 40.6974 2.21506C41.3876 1.49307 41.9607 1.1052 42.6284 0.908004C42.982 0.803592 43.5451 0.892122 43.7655 1.08689ZM32.6171 6.19526C32.4539 6.32361 32.4169 6.41578 32.4169 6.69414C32.4169 7.13968 32.5196 7.31682 32.8599 7.45847C33.527 7.73614 34.1722 8.26343 34.742 8.99683C35.0525 9.39639 35.3416 9.7661 35.3845 9.8183C35.5059 9.9661 35.6845 9.93016 35.6845 9.75788C35.6845 9.48416 35.3247 8.14778 35.0784 7.50657C34.6927 6.50249 34.118 6.04282 33.2441 6.0394C32.9257 6.03818 32.7665 6.0777 32.6171 6.19526ZM33.564 6.45827C34.122 6.65509 34.3412 6.93754 34.7227 7.95104L34.9044 8.43389L34.4705 8.00932C34.215 7.75931 33.7965 7.46203 33.4524 7.28619C32.7848 6.94499 32.6456 6.72393 32.9458 6.48084C33.1536 6.31259 33.1515 6.31267 33.564 6.45827ZM30.1372 9.58295C29.7799 9.72764 29.557 10.2021 29.6394 10.6418C29.7394 11.1743 30.0097 11.3603 31.7898 12.1217C33.993 13.064 34.3199 13.2641 35.3839 14.3208C36.3996 15.3293 36.7403 15.8403 37.677 17.7594C38.244 18.921 38.4962 19.269 38.4962 18.8898C38.4962 18.8115 38.443 18.5977 38.3781 18.4149C38.3132 18.232 38.1912 17.8259 38.107 17.5124C37.8898 16.7036 37.3254 15.6381 36.2553 14.0168C34.9017 11.966 33.7144 10.7134 32.5895 10.149C31.8462 9.77621 30.4538 9.45475 30.1372 9.58295ZM31.3353 10.148C31.7228 10.2771 32.2529 10.5248 32.5133 10.6984C32.988 11.0147 34.4681 12.4401 34.6235 12.7303C34.698 12.8694 34.6748 12.8651 34.392 12.6865C33.9864 12.4305 33.1513 12.0487 31.961 11.5751C31.4385 11.3673 30.8847 11.1434 30.7303 11.0776C30.1693 10.8384 29.9582 10.3891 30.2535 10.0628C30.4316 9.86595 30.5064 9.87187 31.3353 10.148ZM42.2325 19.1167C41.9262 19.1522 41.1397 19.3032 40.4848 19.4522C39.8299 19.6011 38.9692 19.7907 38.5722 19.8736C37.3768 20.123 36.5094 20.3606 34.2787 21.0495C33.1084 21.4109 31.9971 21.752 31.809 21.8074C30.8678 22.0846 24.6725 24.2004 22.8303 24.8737C20.5623 25.7027 17.6173 26.5532 16.4737 26.7094C14.8231 26.9351 11.0619 26.6213 9.62238 26.1379C9.31036 26.0332 8.93421 25.9473 8.78648 25.9469C8.33396 25.9461 6.28882 25.3336 6.47431 25.2545C6.5766 25.2108 7.28064 24.3555 7.49889 24.0097C7.83013 23.485 8.01913 22.7761 8.17347 21.4795C8.21473 21.1327 8.35142 20.5538 8.47726 20.193C8.60311 19.8323 8.69119 19.5223 8.67302 19.5041C8.65494 19.4859 8.47948 19.5258 8.28327 19.5927C7.8296 19.7473 7.24357 20.1993 6.59104 20.8981C5.70453 21.8474 4.97372 23.6068 5.07874 24.5389L5.11544 24.8647L4.61293 24.9026C3.24053 25.0062 1.47899 26.1415 0.751527 27.3913C0.374994 28.0381 0.364059 28.093 0.624251 28.03C0.744468 28.0009 0.928281 27.9181 1.03277 27.8459C1.58682 27.4634 2.04374 27.3086 3.06643 27.1572C4.16252 26.9948 4.71491 26.7993 5.41752 26.3251L5.76129 26.0931L6.63465 26.9512C7.11499 27.4231 7.56424 27.8633 7.63294 27.9293C7.70171 27.9953 8.1341 28.3704 8.59384 28.7629C9.05359 29.1554 9.72041 29.747 10.0757 30.0775C11.2404 31.1609 14.2938 33.6278 15.7501 34.6617C18.6268 36.7042 22.665 39.0224 24.4379 39.6493C26.4744 40.3693 28.9051 40.7903 31.561 40.8833L33.0989 40.9371L33.0504 41.1364C32.9703 41.4657 32.5191 42.6189 32.3048 43.0417C32.1705 43.3069 32.1121 43.5291 32.1277 43.7163C32.1478 43.9577 32.1793 43.9987 32.3608 44.0196C32.4763 44.0328 32.7498 43.9601 32.9687 43.8579C33.1877 43.7557 33.532 43.6127 33.734 43.5402C34.4309 43.2896 36.456 41.6261 37.0837 40.7883C37.2847 40.5201 37.3619 40.4801 37.9196 40.3551C39.2686 40.0525 41.4691 39.2451 42.9036 38.5263C44.1122 37.9207 46.7845 36.4508 47.577 35.9556C48.3591 35.4671 51.4443 33.1176 52.4784 32.223C53.4417 31.3898 55.9465 28.906 56.4891 28.246C57.0957 27.508 58.2891 25.8032 58.5236 25.3395C58.6825 25.0252 58.7412 24.7866 58.7602 24.377C58.7855 23.8342 58.7845 23.8313 58.4626 23.4408C58.0204 22.9045 56.5255 21.8684 55.3343 21.2728C53.3562 20.2837 50.6508 19.5943 47.2763 19.2195C45.5215 19.0246 43.3982 18.9813 42.2325 19.1167ZM46.7411 19.9423C47.6188 20.0249 48.6618 20.148 49.0589 20.2161C51.1722 20.5784 54.019 21.3923 55.1468 21.9567C55.9294 22.3484 57.3837 23.2053 57.9094 23.5846L58.2869 23.857L58.0614 23.9054C57.9373 23.932 57.4083 23.9589 56.8859 23.9652C56.3635 23.9715 55.0811 24.041 54.0362 24.1197C50.9297 24.3534 48.6534 24.8688 47.4338 25.6148C46.2747 26.3237 45.1483 27.4011 44.1465 28.7592C43.4444 29.711 42.267 30.5649 40.5479 31.3694C39.4494 31.8833 39.484 31.8814 39.484 31.429C39.484 31.0717 39.048 28.5114 38.8516 27.716C38.7813 27.4312 38.7254 27.3481 38.5911 27.329C38.4971 27.3157 38.4202 27.3157 38.4202 27.329C38.4202 27.3424 38.5233 27.8802 38.6493 28.5243C38.861 29.6066 38.878 29.8166 38.8746 31.298C38.8704 33.1171 38.8098 33.7765 38.4926 35.4545C38.1338 37.3522 37.5304 38.9784 36.8037 40.0059C36.3499 40.6476 35.3671 41.6027 34.5067 42.2384C34.1305 42.5163 33.6806 42.8625 33.5068 43.0078C33.2231 43.2449 32.8105 43.4645 32.7542 43.4082C32.7424 43.3964 32.8475 43.1475 32.9879 42.8552C33.1282 42.5628 33.3678 41.9646 33.5203 41.5257C34.3569 39.1182 34.7101 36.8475 34.7141 33.8506C34.7166 31.9978 34.6483 31.4948 34.3942 31.4948C34.1724 31.4948 34.1323 31.6298 34.1555 32.2988L34.1768 32.9158L33.6198 32.9632C33.3134 32.9892 32.6525 33.0661 32.1509 33.134C31.5319 33.2178 30.4215 33.2695 28.6934 33.295C26.2329 33.3313 26.1022 33.3259 24.7875 33.1319C23.2661 32.9074 22.395 32.7484 20.5624 32.3608C18.0465 31.8287 17.5095 31.6835 16.0029 31.1277C15.7731 31.0428 15.2064 30.8514 14.7438 30.7023C13.243 30.2188 11.8099 29.54 10.6076 28.743C8.92478 27.6276 6.4395 25.7526 6.84605 25.9049C6.92964 25.9363 7.31849 26.0422 7.71022 26.1404C8.10187 26.2386 8.54468 26.377 8.69423 26.4479C9.34455 26.7565 10.4981 27.0831 11.5195 27.2478C12.4742 27.4018 12.8903 27.4257 14.6351 27.426L16.6489 27.4264L17.4847 27.1927C19.62 26.5955 20.9004 26.1854 22.7281 25.5129C25.2651 24.5794 30.312 22.9046 32.7209 22.1966C33.0761 22.0922 34.0507 21.7982 34.8866 21.5432C35.7225 21.2883 36.8434 20.973 37.3774 20.8426L38.3484 20.6056L38.5222 20.7688C38.8776 21.1028 39.8732 20.8879 40.0808 20.4323C40.1731 20.2298 40.3628 20.1689 41.5738 19.9537C42.7168 19.7505 44.656 19.7463 46.7411 19.9423ZM39.1991 20.5264C39.1469 20.5475 39.0614 20.5475 39.0091 20.5264C38.9569 20.5054 38.9996 20.4881 39.1041 20.4881C39.2086 20.4881 39.2514 20.5054 39.1991 20.5264ZM7.64897 20.8247C7.60953 20.9465 7.53985 21.3442 7.4941 21.7087C7.32989 23.0171 7.07957 23.7329 6.44079 24.7212L6.14937 25.1721L5.8708 25.0129C5.52481 24.8152 5.51379 24.6361 5.78112 23.5618C6.03197 22.5539 6.59369 21.5325 7.21188 20.9601C7.45907 20.7313 7.67466 20.5574 7.69093 20.5737C7.70726 20.5901 7.68841 20.703 7.64897 20.8247ZM58.1542 24.6746C57.9435 25.2533 56.3616 27.3987 55.2395 28.6278C54.4358 29.508 52.6894 31.1764 51.6425 32.064C50.6748 32.8846 48.0571 34.7972 47.276 35.2544C46.4152 35.7584 43.0453 37.5456 42.3337 37.8756C42.0411 38.0113 41.494 38.2407 41.1178 38.3854C40.4017 38.6609 38.0296 39.4126 37.9927 39.3758C37.9809 39.364 38.1074 38.9966 38.2737 38.5592C38.8138 37.1391 39.1636 35.5339 39.3251 33.7337C39.3666 33.2724 39.4228 32.8366 39.4501 32.7654C39.4776 32.6937 39.6704 32.5852 39.8823 32.5223C40.3587 32.3808 42.083 31.5127 42.7767 31.065C43.4418 30.6359 44.1613 29.9153 44.9219 28.9168C46.8409 26.397 48.1288 25.5686 51.3076 24.8089C52.3718 24.5545 53.13 24.4733 55.5561 24.3537C57.2716 24.2691 57.8607 24.2373 58.1574 24.2134L58.3272 24.1997L58.1542 24.6746ZM5.13627 25.3525C5.13627 25.4015 5.19318 25.5044 5.26271 25.5813C5.38148 25.7125 5.37806 25.733 5.2064 25.9156C4.84598 26.2994 3.88227 26.6917 2.89454 26.8568C2.39301 26.9406 1.89717 27.0292 1.79268 27.0537C1.32792 27.1625 2.88003 25.9783 3.64662 25.6392C4.32598 25.3386 5.13627 25.1828 5.13627 25.3525ZM43.4083 27.8539C42.881 28.3924 41.7533 28.9825 40.8761 29.1788C39.982 29.3789 39.9322 29.6676 40.7915 29.6699C41.2697 29.6712 41.9814 29.4452 42.5516 29.111C43.1905 28.7366 44.1257 27.6618 43.9957 27.4513C43.9296 27.3446 43.8608 27.3918 43.4083 27.8539ZM10.8356 29.9147C11.6569 30.4062 13.5225 31.1701 15.319 31.7505C17.2257 32.3664 17.7475 32.5011 19.3465 32.7904C23.2498 33.4966 25.1068 33.7281 27.5915 33.8183C29.0754 33.8722 30.3485 33.7924 32.037 33.5398C33.3702 33.3402 34.1173 33.2552 34.1647 33.2974C34.2427 33.367 34.199 35.44 34.1018 36.2823C33.9917 37.2368 33.6935 38.8726 33.5008 39.5795L33.3788 40.027L30.6751 39.9829C28.3953 39.9458 27.8702 39.9161 27.3255 39.793C24.9803 39.2635 23.1635 38.6323 21.9229 37.9161C17.9079 35.5983 15.0385 33.6773 12.8938 31.8713C12.6186 31.6395 12.2227 31.3207 12.0142 31.1628C11.5669 30.8241 9.99966 29.4393 9.99966 29.3827C9.99966 29.3612 10.0595 29.3953 10.1326 29.4586C10.2058 29.5218 10.5221 29.7271 10.8356 29.9147Z" fill="white"/>
</svg>
