<svg width="66" height="45" viewBox="0 0 66 45" fill="none" xmlns="http://www.w3.org/2000/svg">
<path fill-rule="evenodd" clip-rule="evenodd" d="M61.6982 0.817313C60.8062 1.15461 60.3816 1.39733 60.3816 1.56975C60.3816 1.77096 60.4078 1.77692 60.7991 1.66478C60.963 1.61774 61.0838 1.61635 61.0838 1.66127C61.0838 1.70427 61.4958 1.94416 61.9993 2.19442C62.7978 2.59122 63.0001 2.65492 63.5801 2.69213C64.4036 2.74495 64.9699 2.5627 65.167 2.18152C65.2385 2.04349 65.2968 1.87678 65.2968 1.81106C65.2968 1.65478 64.8913 1.27895 64.5213 1.09214C63.8166 0.736408 62.302 0.588994 61.6982 0.817313ZM63.8741 1.35363C64.1297 1.4298 64.4654 1.60599 64.6202 1.74516L64.9019 1.99831L64.5539 2.14458C64.0564 2.35386 63.2887 2.28393 62.5851 1.96523C62.2764 1.82536 62.0624 1.69812 62.1094 1.6825C62.1565 1.66679 62.5375 1.70874 62.956 1.77578C63.6862 1.89266 63.7169 1.89091 63.7169 1.73209C63.7169 1.54194 63.5321 1.45831 62.6885 1.26676L62.0932 1.13154L62.7515 1.17331C63.1135 1.1963 63.6187 1.27747 63.8741 1.35363ZM52.2915 3.02986C51.9454 3.17351 51.8045 3.38551 51.9551 3.53609C52.0874 3.66832 53.3062 3.22572 53.3443 3.03171C53.3673 2.91483 53.3 2.88798 52.9932 2.89167C52.7845 2.89413 52.4688 2.95633 52.2915 3.02986ZM63.3263 5.21689C62.3678 5.7396 60.8935 6.31532 59.6355 6.65806C55.2361 7.85669 52.8989 8.7905 50.4532 10.3266C48.5863 11.4991 47.281 12.5275 45.3847 14.3198C43.6482 15.9611 41.7738 17.3982 40.3257 18.1988C39.2229 18.8085 38.1359 19.2671 37.5616 19.365C37.2926 19.4108 37.1581 19.4802 37.1382 19.5834C37.0934 19.8165 37.7928 19.7798 38.5994 19.5068C40.8453 18.7464 43.1969 17.1989 46.933 14.0226C50.3133 11.149 52.6383 9.83787 57.4851 8.07221C62.4637 6.25855 63.313 5.87895 63.8329 5.2348C63.9788 5.05404 64.0815 4.89038 64.0611 4.87116C64.0408 4.85194 63.7101 5.00753 63.3263 5.21689ZM59.7233 4.97015C55.2131 5.42837 52.7087 6.04656 50.4195 7.26686C48.6606 8.20436 47.8942 8.79576 45.6059 10.9812C43.7002 12.8014 42.9072 13.7758 43.1898 13.9504C43.2566 13.9917 43.6183 13.6766 44.1802 13.0876C44.9897 12.239 46.8548 10.5999 48.0814 9.65894C49.8146 8.3293 52.5068 7.048 54.5448 6.58285C58.6499 5.64579 59.809 5.35351 60.0108 5.20443C60.2118 5.05596 60.064 4.93549 59.7233 4.97015ZM42.7394 8.38652C42.5136 8.47031 42.3883 8.69951 42.3883 9.02865C42.3883 9.40421 42.5152 9.55593 42.8295 9.55593C43.2634 9.55593 43.61 8.90353 43.3735 8.53183C43.2934 8.406 42.9185 8.32 42.7394 8.38652ZM43.0905 8.89475C43.0905 9.06402 42.7713 9.23985 42.6933 9.11358C42.6224 8.9989 42.8074 8.76619 42.9695 8.76619C43.0361 8.76619 43.0905 8.82403 43.0905 8.89475ZM31.6198 9.44939C31.495 9.52863 31.329 9.9407 31.329 10.171C31.329 10.4732 31.6984 10.7998 32.0516 10.8098C32.5078 10.8227 32.7334 10.5941 32.7334 10.1191C32.7334 9.81855 32.6875 9.70808 32.5021 9.56233C32.2719 9.38122 31.8183 9.32321 31.6198 9.44939ZM35.1113 10.2708C34.729 11.4572 33.1082 14.4565 32.5074 15.0888C32.2612 15.3481 32.2282 15.6105 32.442 15.6105C32.933 15.6105 34.6281 12.9079 35.1938 11.2231C35.4053 10.5929 35.5269 9.64367 35.396 9.64367C35.3506 9.64367 35.2224 9.92586 35.1113 10.2708ZM32.3269 9.89419C32.5128 10.0996 32.4302 10.3303 32.1452 10.4018C31.8558 10.4744 31.5484 10.1836 31.633 9.91726C31.7085 9.67937 32.1201 9.66569 32.3269 9.89419ZM24.2586 14.7407C24.1605 14.8994 24.3173 14.9607 25.0956 15.0682C25.994 15.1924 26.5961 15.4692 27.2329 16.0511C27.709 16.4861 28.1894 17.2665 28.2984 17.7823C28.3852 18.1928 28.5203 18.1333 28.5203 17.6843C28.5203 16.8512 27.6098 15.5597 26.6924 15.0918C25.9782 14.7275 24.4069 14.5008 24.2586 14.7407ZM22.9878 16.1589C22.4243 16.4433 22.0696 17.155 22.0693 18.002C22.0691 18.5732 22.0852 18.6223 22.3504 18.8594C22.6539 19.1307 23.1203 19.2607 23.4728 19.1723C23.8648 19.0739 23.7312 18.8832 23.2372 18.8358C22.4359 18.7587 22.1538 18.1544 22.5751 17.4176C22.683 17.2291 22.8782 16.9955 23.009 16.8986C23.6155 16.449 25.1711 16.7151 25.9517 17.402C26.669 18.0332 26.8273 18.7042 26.5046 19.7474C26.2455 20.5852 25.9385 20.9843 24.8778 21.8622C22.9896 23.425 21.0183 24.5685 17.9876 25.8592C17.1428 26.2189 15.9135 26.7422 15.2557 27.0219C12.5844 28.158 8.7635 29.3169 6.44561 29.6942C5.63494 29.8261 3.15161 30.0804 2.61585 30.0863C2.38035 30.089 2.20411 30.3847 2.37509 30.4904C2.49086 30.562 5.21004 30.3724 6.31395 30.2157C8.41627 29.9175 10.0106 29.5414 12.3729 28.7863C14.1075 28.232 15.5805 27.6781 16.7061 27.1569C17.0875 26.9804 17.7984 26.6749 18.286 26.478C19.7842 25.873 21.9284 24.7875 23.0345 24.074C24.2977 23.2594 25.7893 22.1054 26.3122 21.5382C27.2787 20.4901 27.6722 18.4214 27.0921 17.4378C26.4146 16.2889 24.1365 15.5791 22.9878 16.1589ZM55.2908 16.6198C54.4242 16.774 53.611 17.063 52.3878 17.6515C50.7884 18.421 49.7935 19.1781 46.7886 21.9124C46.0822 22.5553 45.0302 23.4421 44.451 23.8831C43.8717 24.324 43.0817 24.9247 42.6955 25.2177C42.3093 25.5108 41.5786 25.9624 41.0717 26.2213C40.5648 26.4802 40.0455 26.7651 39.9177 26.8544C39.5272 27.1275 37.5577 27.8734 36.8404 28.0201C36.0455 28.1826 35.2061 28.1968 34.4246 28.0607C34.0098 27.9884 33.8754 27.9315 33.9095 27.8424C34.2853 26.8636 34.4168 26.196 34.3878 25.415C34.3471 24.3213 34.132 23.9654 33.2749 23.5742C31.9377 22.9638 30.795 23.4215 30.2385 24.7908C29.8303 25.795 29.8615 26.7941 30.3217 27.4589C30.6191 27.8886 31.3946 28.3334 32.233 28.5552L32.9405 28.7424L32.5517 29.1648C32.1349 29.6177 29.8063 31.1978 28.652 31.8111C27.2691 32.5458 22.9887 34.1317 21.6939 34.3891C21.4175 34.444 20.4804 34.6606 19.6114 34.8703C16.6791 35.578 14.3724 35.9875 12.1069 36.2026C10.181 36.3854 4.94181 36.4662 4.11965 36.3258C3.17925 36.1651 2.6944 36.1393 2.56906 36.2433C2.32953 36.442 2.46628 36.5093 3.37358 36.639C3.51841 36.6598 3.90144 36.7344 4.22471 36.805C4.66638 36.9013 5.45212 36.9329 7.38451 36.9321C10.6429 36.9307 13.6674 36.6897 15.7438 36.2659C16.3262 36.147 17.1187 35.9921 17.5049 35.9215C19.998 35.4662 23.9633 34.3296 26.3699 33.3804C28.4164 32.5732 28.9841 32.2968 30.3344 31.4499C31.9407 30.4426 32.7242 29.8359 33.1775 29.2484C33.4405 28.9077 33.5923 28.7804 33.6908 28.8182C33.9731 28.9267 36.9424 28.8589 37.5414 28.7302C38.1817 28.5927 39.3143 28.1652 40.1501 27.7455C40.4398 27.6 41.052 27.3165 41.5106 27.1154C41.9692 26.9141 42.5868 26.5632 42.8829 26.3352C43.746 25.6709 45.6996 23.9572 46.0096 23.5925C46.2774 23.2773 47.5672 22.1645 48.4446 21.4916C48.6618 21.3251 49.1753 20.9074 49.5856 20.5635C50.744 19.5928 51.9435 18.8044 53.0689 18.2737C54.3474 17.6707 54.755 17.5192 55.8613 17.2357C57.1827 16.8971 57.323 16.8423 57.2915 16.677C57.2548 16.4849 56.2159 16.4552 55.2908 16.6198ZM43.0382 19.6311C42.0708 20.1286 40.8962 21.1424 40.69 21.6576C40.6149 21.8452 40.5286 22.21 40.4981 22.4681C40.4678 22.7262 40.3868 23.0863 40.3185 23.2682C40.0547 23.9694 40.2863 24.2293 40.5913 23.5744C40.7361 23.2634 40.8255 23.1852 41.1358 23.0979C41.6428 22.9553 42.4815 22.4983 42.9115 22.1303C43.3908 21.7202 43.6808 21.1984 43.927 20.304C44.0401 19.8931 44.1575 19.4784 44.188 19.3825C44.2783 19.098 43.9267 19.174 43.0382 19.6311ZM43.5228 20.3269C43.2716 21.0695 42.8005 21.6391 41.9994 22.1687C41.6169 22.4216 41.2868 22.6113 41.2658 22.5903C41.1956 22.5202 41.8425 21.7998 42.2495 21.495C42.6378 21.2041 42.7699 20.9631 42.5409 20.9631C42.3141 20.9631 41.55 21.5493 41.1742 22.0114C40.7949 22.478 40.7427 22.4055 41.0387 21.8235C41.278 21.3531 43.2422 19.84 43.6333 19.8248C43.6664 19.8235 43.6166 20.0495 43.5228 20.3269ZM16.0775 20.8583C15.5012 21.1159 15.357 21.2172 15.3753 21.3511C15.388 21.4439 15.4381 21.5328 15.4867 21.5487C15.639 21.5987 16.8875 20.8392 16.9181 20.6779C16.9568 20.4738 16.9201 20.4817 16.0775 20.8583ZM56.4666 21.2056C55.8626 21.7379 55.5767 22.2364 55.3749 23.1095C55.2688 23.5686 55.2013 24.0182 55.225 24.1087C55.2548 24.2229 55.1911 24.3186 55.0161 24.4219C54.7399 24.585 54.6954 24.7154 54.8902 24.7901C55.0343 24.8453 56.2776 24.4404 56.6074 24.2307C57.1416 23.8913 57.4125 23.2992 57.4593 22.3686C57.4897 21.7655 57.4662 21.5619 57.3374 21.3141C57.1305 20.9157 56.8372 20.8792 56.4666 21.2056ZM57.1111 22.4548C57.064 23.1521 56.8084 23.6868 56.4023 23.9377C56.0101 24.18 55.9161 24.1712 56.157 23.9149C56.3528 23.7066 56.6952 22.9165 56.6952 22.6732C56.6952 22.4227 56.5267 22.5453 56.3621 22.9155C56.1924 23.2971 55.738 23.8964 55.67 23.8283C55.602 23.7603 55.9137 22.6816 56.0876 22.3833C56.1808 22.2233 56.403 21.918 56.5812 21.7047L56.9054 21.3171L57.0276 21.6008C57.1073 21.7859 57.1362 22.0826 57.1111 22.4548ZM32.4671 21.9215C32.078 21.9977 31.9434 22.0797 31.9434 22.2406C31.9434 22.3428 32.1216 22.3671 32.8685 22.3671C33.9475 22.3671 34.2049 22.4635 34.8635 23.1146C35.3049 23.551 35.8353 24.5337 35.9406 25.1102C36.0095 25.4872 36.1306 25.6078 36.2163 25.3847C36.3156 25.1258 36.0937 24.1239 35.8089 23.5455C35.4549 22.8266 34.7344 22.1574 34.1168 21.9741C33.6523 21.8362 33.0076 21.8157 32.4671 21.9215ZM10.7254 22.6274C10.7378 23.0718 10.7003 23.2014 10.4421 23.6088C9.89602 24.4707 9.82466 24.6576 9.8287 25.2154C9.83081 25.5069 9.88821 25.9016 9.95614 26.0924C10.0892 26.4658 10.0831 26.4833 9.65868 26.9525C9.49051 27.1383 9.46383 27.2184 9.54335 27.2979C9.62287 27.3774 9.72346 27.3369 9.97721 27.1234C10.1589 26.9706 10.5332 26.7216 10.8088 26.5703C11.0845 26.4188 11.5251 26.0696 11.7879 25.7941C12.6419 24.899 12.6717 23.9521 11.8725 23.1129C11.7346 22.9681 11.4974 22.6905 11.3456 22.4961C11.1936 22.3015 10.9888 22.1363 10.8903 22.1288C10.7275 22.1166 10.7125 22.1619 10.7254 22.6274ZM11.7778 23.7096C12.2717 24.428 11.9608 25.2084 10.8426 26.0572C10.681 26.1799 10.6799 26.1753 10.8109 25.9208C11.0112 25.5317 11.317 24.4922 11.317 24.2006C11.317 23.7468 11.167 23.9308 10.9341 24.6704C10.8087 25.0685 10.6102 25.551 10.4931 25.7425L10.2802 26.0906L10.2176 25.6738C10.1301 25.0903 10.2124 24.7832 10.6271 24.147C10.8688 23.7762 11.0026 23.4609 11.0331 23.1905L11.0786 22.7873L11.3075 23.0729C11.4333 23.2301 11.6451 23.5166 11.7778 23.7096ZM50.3 24.0946C50.1754 24.1955 50.0833 24.389 50.0532 24.6135C50.011 24.9283 50.0342 24.9944 50.2461 25.161C50.7348 25.5454 51.2286 25.3211 51.3113 24.6773C51.365 24.2585 51.2229 24.0635 50.8102 23.9894C50.5781 23.9478 50.4481 23.9746 50.3 24.0946ZM33.0328 24.3289C33.5502 24.6122 33.7221 24.9043 33.8013 25.6351C33.8612 26.1884 33.84 26.3792 33.639 27.0905L33.4076 27.9091L32.873 27.848C31.6889 27.7126 30.8094 26.8836 30.8043 25.8979C30.8005 25.1722 31.3329 24.3996 31.9993 24.1635C32.3765 24.0299 32.5319 24.0548 33.0328 24.3289ZM50.8987 24.4249C51.1425 24.7186 50.7508 25.0763 50.4809 24.8065C50.3421 24.6677 50.3479 24.6009 50.5135 24.4354C50.6845 24.2644 50.7637 24.2622 50.8987 24.4249ZM20.3136 27.0282C17.2472 28.6138 15.3863 29.2759 11.4486 30.1822C9.00548 30.7446 8.62657 30.8099 7.73753 30.8216C6.80126 30.834 6.74868 30.8443 6.77203 31.0102C6.79538 31.1763 6.86033 31.1853 7.98162 31.1776C9.11134 31.17 9.28881 31.1421 11.7911 30.579C16.0636 29.6176 18.44 28.6807 21.6521 26.6916C22.2561 26.3176 22.373 26.199 22.2227 26.1128C22.1864 26.0921 21.3274 26.504 20.3136 27.0282ZM49.2784 27.9521C49.1336 27.9691 48.6399 28.0255 48.1813 28.0777C46.4687 28.2724 43.7182 29.0177 42.103 29.7246C41.7057 29.8985 41.5303 30.1766 41.818 30.1766C41.8906 30.1766 42.6701 29.9544 43.5502 29.6828C44.4304 29.4112 45.5066 29.1176 45.9418 29.0303C47.7188 28.674 50.6073 28.5613 51.543 28.8119C52.4445 29.0533 53.0536 29.4382 53.2401 29.8845C53.3543 30.1576 53.3461 30.225 53.1339 30.755C53.0074 31.0711 52.9265 31.3522 52.9541 31.3796C52.9816 31.4072 52.9376 31.5422 52.8564 31.6798C52.6221 32.0763 52.8091 32.1769 53.3202 31.9295C53.6629 31.7637 53.7691 31.6502 53.9484 31.2586C54.4886 30.0791 54.0189 28.9679 52.7317 28.3799C51.8722 27.9872 50.4689 27.8134 49.2784 27.9521ZM47.7863 30.0038C46.7535 30.1895 45.1447 30.6568 43.5393 31.2374C41.6587 31.9175 38.9449 33.2458 36.259 34.8007C35.4544 35.2665 34.5788 35.7732 34.3133 35.9264C33.4098 36.4482 32.0296 37.2803 30.0124 38.5194C28.6763 39.3402 25.6831 40.8215 24.3325 41.3304C23.4939 41.6464 20.7702 42.5057 18.2476 43.25C17.6424 43.4286 16.7624 43.6275 16.2922 43.692C15.4712 43.8048 15.1424 43.9518 15.3187 44.1276C15.4322 44.2407 17.1004 44.0693 17.9185 43.8605C18.2914 43.7653 19.1014 43.5325 19.7184 43.3431C20.3354 43.1537 21.4919 42.802 22.2885 42.5614C23.085 42.3208 24.1712 41.9488 24.7022 41.7348C26.2888 41.0951 29.1011 39.7505 30.3196 39.0489C33.6544 37.1287 37.9388 34.787 40.2389 33.6274C42.3499 32.5631 44.6809 31.6938 46.9086 31.1402C48.3787 30.7748 49.8244 30.7274 50.4633 31.0237C51.0328 31.2878 51.2008 31.5048 51.1374 31.895C51.0695 32.3138 50.9109 32.5428 50.4845 32.8383C50.1915 33.0413 50.0312 33.0844 49.5158 33.0989C49.0085 33.1131 48.8537 33.0832 48.6494 32.9319C48.3315 32.6966 48.2754 32.2957 48.5281 32.067C48.714 31.8988 48.7666 31.6272 48.6297 31.5426C48.5867 31.516 48.409 31.652 48.2347 31.8448C47.315 32.8625 48.5918 34.0222 50.1545 33.5886C50.9926 33.356 51.6635 32.6336 51.7418 31.8796C51.7791 31.521 51.7457 31.3756 51.5419 31.0102C51.3343 30.6381 51.2044 30.525 50.6865 30.2651C50.1153 29.9786 50.0155 29.9577 49.1505 29.9418C48.6415 29.9325 48.0277 29.9604 47.7863 30.0038ZM26.721 31.1182C25.7141 31.5278 25.1138 32.0193 25.6203 32.0193C25.998 32.0193 27.2037 31.3132 27.2037 31.092C27.2037 30.9369 27.1608 30.9393 26.721 31.1182ZM20.6559 31.2089C20.3614 31.4056 20.2675 32.0046 20.4954 32.2325C20.7001 32.437 21.1935 32.4077 21.4073 32.1782C21.6315 31.9377 21.641 31.4817 21.4258 31.2871C21.2611 31.1381 20.828 31.0941 20.6559 31.2089ZM21.1411 31.8666C21.0334 31.9538 20.9019 32.0106 20.8489 31.993C20.6835 31.938 20.682 31.6416 20.8465 31.5213C20.9787 31.4246 21.0299 31.4303 21.1702 31.5573C21.3334 31.705 21.3328 31.7114 21.1411 31.8666ZM0.264604 33.9132C0.268817 34.0154 0.289619 34.0362 0.317619 33.9663C0.342985 33.9029 0.339826 33.8272 0.310685 33.798C0.281545 33.7689 0.26083 33.8207 0.264604 33.9132ZM4.2513 34.8754C3.91338 34.9889 3.5665 35.0836 3.48058 35.0861C3.28993 35.0914 3.1832 35.3301 3.31319 35.46C3.50664 35.6534 5.08514 35.0492 5.08514 34.7819C5.08514 34.6153 4.9971 34.6252 4.2513 34.8754ZM28.6188 35.2218C28.3592 35.3829 27.8961 35.6265 27.5898 35.7632C27.1468 35.961 27.0324 36.0522 27.0305 36.2093C27.0272 36.4895 27.257 36.4637 27.9413 36.1072C28.6092 35.7591 29.3103 35.2106 29.3103 35.0361C29.3103 34.8531 29.1387 34.8992 28.6188 35.2218ZM42.125 35.957C41.4599 36.0982 39.5012 36.9385 39.1407 37.2372C39.0683 37.2972 38.7784 37.391 38.4964 37.4455C37.2365 37.6893 35.0078 38.9761 33.4136 40.3802C32.7824 40.9359 32.5781 41.2397 32.8431 41.2279C32.9035 41.2253 33.1503 41.0664 33.3917 40.875C35.11 39.512 36.5603 38.5846 37.7175 38.1088C38.3805 37.8362 38.4821 37.8381 38.2977 38.1195C38.1628 38.3254 38.163 38.3676 38.3014 38.7296C38.4695 39.1699 38.6767 39.2792 39.023 39.1104C39.476 38.8896 39.6566 38.3359 39.4498 37.8019C39.4086 37.6957 39.541 37.5857 39.9922 37.3507C41.2166 36.7132 42.7059 36.3268 43.9682 36.3192C44.5381 36.3157 44.773 36.2109 44.5995 36.0374C44.47 35.908 42.6363 35.8483 42.125 35.957ZM23.4734 37.0533C22.9572 37.2957 21.9949 38.1265 21.6529 38.6248C21.369 39.0387 21.2364 39.4693 21.2357 39.9803C21.2354 40.1956 21.1618 40.4715 21.06 40.6384C20.8756 40.9407 20.8251 41.3206 20.9691 41.3206C21.0159 41.3206 21.2139 41.1043 21.4092 40.84C21.6438 40.5226 22.1372 40.0833 22.863 39.5458C24.0984 38.6307 24.395 38.2269 24.395 37.46C24.395 36.8026 24.195 36.7143 23.4734 37.0533ZM24.0439 37.464C24.0439 37.877 23.8282 38.2029 23.2766 38.6231C22.538 39.1858 22.4711 39.206 22.8371 38.7561C23.1477 38.3742 23.2592 38.0739 23.0905 38.0739C22.9865 38.0739 22.3041 38.8169 21.942 39.3241C21.7784 39.5533 21.6275 39.7238 21.6067 39.7029C21.4905 39.5868 21.848 38.9534 22.306 38.4639C22.7849 37.9522 23.7748 37.1964 23.9662 37.1964C24.0089 37.1964 24.0439 37.3168 24.0439 37.464ZM38.8935 38.3562C38.8305 38.4191 38.7896 38.4243 38.7896 38.3693C38.7896 38.2522 38.8935 38.1484 38.952 38.207C38.977 38.2319 38.9506 38.2991 38.8935 38.3562ZM44.802 38.6639C44.3868 38.766 44.2433 39.1784 44.6046 39.2314C44.8817 39.272 45.8997 39.1327 46.0969 39.0273C46.3069 38.9149 46.2532 38.7536 45.9805 38.6773C45.7343 38.6086 45.0585 38.6008 44.802 38.6639ZM18.584 42.3331C18.5145 42.4026 15.631 42.9508 13.9939 43.2058C11.8809 43.535 9.32059 43.4787 7.69259 43.0673C7.3164 42.9721 6.97075 42.9177 6.92458 42.9463C6.54356 43.1816 7.57559 43.5215 9.21043 43.699C10.911 43.8837 12.7359 43.8354 14.2515 43.5656C17.314 43.0201 18.8654 42.6318 18.8654 42.4104C18.8654 42.2892 18.6791 42.2381 18.584 42.3331ZM6.05063 43.5142C6.05063 43.5625 6.09013 43.602 6.13841 43.602C6.18668 43.602 6.22618 43.5625 6.22618 43.5142C6.22618 43.466 6.18668 43.4265 6.13841 43.4265C6.09013 43.4265 6.05063 43.466 6.05063 43.5142Z" fill="white"/>
</svg>
