<svg xmlns="http://www.w3.org/2000/svg" xmlns:xlink="http://www.w3.org/1999/xlink" width="5000" zoomAndPan="magnify" viewBox="0 0 3750 1012.49997" height="1350" preserveAspectRatio="xMidYMid meet" version="1.0"><defs><g/><clipPath id="b8992233c8"><rect x="0" width="2993" y="0" height="1012"/></clipPath></defs><g transform="matrix(1, 0, 0, 1, 391, 0)"><g clip-path="url(#b8992233c8)"><g fill="#111111" fill-opacity="1"><g transform="translate(21.470921, 802.384597)"><g><path d="M 725.578125 -157.25 L 741.5 -124.40625 L 578.265625 0 C 557.691406 0 539.441406 -10.613281 523.515625 -31.84375 C 507.597656 -53.082031 492.835938 -80.953125 479.234375 -115.453125 C 465.628906 -149.953125 452.523438 -186.78125 439.921875 -225.9375 L 401.109375 -182.140625 L 269.71875 -182.140625 C 265.738281 -160.910156 260.765625 -141.335938 254.796875 -123.421875 C 248.828125 -105.503906 241.195312 -89.910156 231.90625 -76.640625 C 206.03125 -42.128906 174.507812 -10.445312 137.34375 18.40625 C 100.1875 47.269531 55.398438 79.285156 2.984375 114.453125 L -17.921875 85.59375 C 21.890625 56.394531 52.082031 25.046875 72.65625 -8.453125 C 93.226562 -41.960938 107.992188 -75.96875 116.953125 -110.46875 C 125.910156 -144.976562 131.546875 -178.65625 133.859375 -211.5 C 136.179688 -244.34375 138.671875 -275.363281 141.328125 -304.5625 C 143.984375 -333.757812 149.625 -359.632812 158.25 -382.1875 C 173.507812 -422 194.578125 -454.015625 221.453125 -478.234375 C 248.328125 -502.453125 277.023438 -524.847656 307.546875 -545.421875 C 304.890625 -548.742188 302.066406 -551.5625 299.078125 -553.875 C 296.097656 -556.195312 292.945312 -558.6875 289.625 -561.34375 C 269.71875 -577.9375 248.648438 -586.234375 226.421875 -586.234375 C 204.203125 -586.234375 182.472656 -581.585938 161.234375 -572.296875 C 140.003906 -563.003906 121.425781 -552.71875 105.5 -541.4375 L 87.59375 -571.296875 C 112.800781 -597.171875 140.164062 -622.21875 169.6875 -646.4375 C 199.21875 -670.664062 229.410156 -690.570312 260.265625 -706.15625 C 291.117188 -721.75 320.484375 -729.546875 348.359375 -729.546875 C 374.234375 -729.546875 397.785156 -718.429688 419.015625 -696.203125 C 440.253906 -673.984375 459.828125 -644.789062 477.734375 -608.625 C 495.648438 -572.457031 512.40625 -532.972656 528 -490.171875 C 543.59375 -447.378906 558.519531 -404.75 572.78125 -362.28125 C 587.050781 -319.820312 601.648438 -281.503906 616.578125 -247.328125 C 631.515625 -213.160156 646.945312 -186.785156 662.875 -168.203125 C 672.15625 -158.253906 682.269531 -151.953125 693.21875 -149.296875 C 704.164062 -146.640625 714.953125 -149.289062 725.578125 -157.25 Z M 286.640625 -298.59375 L 417.03125 -298.59375 C 404.425781 -337.738281 391.648438 -375.554688 378.703125 -412.046875 C 365.765625 -448.546875 351.003906 -480.066406 334.421875 -506.609375 C 321.148438 -477.410156 311.03125 -444.726562 304.0625 -408.5625 C 297.09375 -372.40625 291.285156 -335.75 286.640625 -298.59375 Z M 286.640625 -298.59375 "/></g></g></g><g fill="#111111" fill-opacity="1"><g transform="translate(690.259113, 802.384597)"><g><path d="M 345.375 -322.46875 C 336.082031 -338.394531 325.796875 -354.320312 314.515625 -370.25 C 303.234375 -386.175781 291.285156 -397.617188 278.671875 -404.578125 C 266.066406 -411.546875 252.800781 -408.398438 238.875 -395.140625 L 232.90625 -389.15625 L 232.90625 -374.234375 L 233.890625 -213 C 233.234375 -187.78125 237.546875 -169.03125 246.828125 -156.75 C 256.117188 -144.476562 272.378906 -146.640625 295.609375 -163.234375 L 318.5 -132.375 L 154.265625 0 C 131.710938 -13.9375 112.96875 -35.332031 98.03125 -64.1875 C 83.101562 -93.050781 75.972656 -129.050781 76.640625 -172.1875 L 76.640625 -327.453125 C 75.972656 -357.972656 69.171875 -377.546875 56.234375 -386.171875 C 43.296875 -394.796875 22.226562 -389.488281 -6.96875 -370.25 L -23.890625 -402.09375 L 154.265625 -551.390625 C 173.515625 -536.796875 189.109375 -522.195312 201.046875 -507.59375 C 212.992188 -493 221.289062 -475.085938 225.9375 -453.859375 L 327.453125 -551.390625 C 346.691406 -551.390625 365.101562 -545.25 382.6875 -532.96875 C 400.269531 -520.695312 415.863281 -506.597656 429.46875 -490.671875 C 443.070312 -474.753906 454.019531 -460.65625 462.3125 -448.375 C 470.601562 -436.101562 474.75 -429.96875 474.75 -429.96875 Z M 345.375 -322.46875 "/></g></g></g><g fill="#111111" fill-opacity="1"><g transform="translate(1074.410899, 802.384597)"><g><path d="M 165.21875 -424.984375 C 162.5625 -392.472656 164.21875 -360.125 170.1875 -327.9375 C 176.164062 -295.757812 185.953125 -266.566406 199.546875 -240.359375 C 213.148438 -214.148438 230.070312 -193.582031 250.3125 -178.65625 C 270.550781 -163.726562 293.273438 -156.59375 318.484375 -157.25 C 343.703125 -157.914062 370.910156 -169.195312 400.109375 -191.09375 L 424.984375 -162.234375 L 214.984375 0 C 187.117188 0 161.238281 -8.789062 137.34375 -26.375 C 113.457031 -43.957031 92.554688 -67.179688 74.640625 -96.046875 C 56.734375 -124.910156 42.800781 -156.09375 32.84375 -189.59375 C 22.894531 -223.101562 17.753906 -255.945312 17.421875 -288.125 C 17.085938 -320.3125 22.890625 -348.679688 34.828125 -373.234375 C 42.128906 -387.171875 54.238281 -404.09375 71.15625 -424 C 88.082031 -443.90625 107.660156 -463.644531 129.890625 -483.21875 C 152.117188 -502.789062 174.675781 -519.046875 197.5625 -531.984375 C 220.457031 -544.921875 241.859375 -551.390625 261.765625 -551.390625 C 282.992188 -551.390625 304.722656 -546.910156 326.953125 -537.953125 C 349.179688 -528.992188 369.582031 -515.722656 388.15625 -498.140625 C 406.738281 -480.554688 420.675781 -458.828125 429.96875 -432.953125 L 299.578125 -339.390625 C 289.628906 -357.304688 276.03125 -374.0625 258.78125 -389.65625 C 241.53125 -405.25 224.273438 -416.859375 207.015625 -424.484375 C 189.765625 -432.117188 175.832031 -432.285156 165.21875 -424.984375 Z M 165.21875 -424.984375 "/></g></g></g><g fill="#111111" fill-opacity="1"><g transform="translate(1461.54836, 802.384597)"><g><path d="M 507.59375 -162.234375 L 529.5 -134.359375 L 365.28125 0 C 354.65625 0 344.203125 -5.640625 333.921875 -16.921875 C 323.640625 -28.203125 314.847656 -42.300781 307.546875 -59.21875 C 300.242188 -76.132812 295.597656 -92.222656 293.609375 -107.484375 L 146.3125 0 C 119.101562 -0.664062 95.546875 -9.789062 75.640625 -27.375 C 55.734375 -44.957031 40.96875 -66.6875 31.34375 -92.5625 C 21.726562 -118.4375 18.578125 -142.988281 21.890625 -166.21875 C 29.859375 -217.96875 56.566406 -259.765625 102.015625 -291.609375 C 147.472656 -323.460938 203.707031 -349.015625 270.71875 -368.265625 C 260.101562 -385.515625 245.171875 -398.285156 225.921875 -406.578125 C 206.679688 -414.867188 185.613281 -419.347656 162.71875 -420.015625 C 139.832031 -420.679688 116.941406 -417.859375 94.046875 -411.546875 C 71.160156 -405.242188 50.425781 -396.457031 31.84375 -385.1875 L 11.9375 -416.03125 L 200.0625 -551.390625 C 229.25 -551.390625 258.109375 -549.398438 286.640625 -545.421875 C 315.171875 -541.441406 341.210938 -533.3125 364.765625 -521.03125 C 388.328125 -508.757812 407.238281 -490.515625 421.5 -466.296875 C 435.769531 -442.078125 443.238281 -410.0625 443.90625 -370.25 L 444.890625 -214.984375 C 444.234375 -189.109375 448.710938 -169.695312 458.328125 -156.75 C 467.953125 -143.8125 484.375 -145.640625 507.59375 -162.234375 Z M 223.9375 -118.4375 L 286.640625 -159.25 L 285.65625 -321.484375 C 253.800781 -309.535156 229.082031 -294.4375 211.5 -276.1875 C 193.914062 -257.945312 183.132812 -238.539062 179.15625 -217.96875 C 175.175781 -197.394531 177.164062 -178.148438 185.125 -160.234375 C 193.082031 -142.328125 206.019531 -128.394531 223.9375 -118.4375 Z M 223.9375 -118.4375 "/></g></g></g><g fill="#111111" fill-opacity="1"><g transform="translate(1912.380697, 802.384597)"><g><path d="M 572.296875 -164.21875 L 595.1875 -133.375 L 430.96875 0 C 409.070312 -13.269531 390.488281 -34.335938 375.21875 -63.203125 C 359.957031 -92.066406 352.660156 -128.394531 353.328125 -172.1875 L 353.328125 -275.703125 C 353.328125 -283.660156 353.492188 -294.109375 353.828125 -307.046875 C 354.160156 -319.984375 352.664062 -332.09375 349.34375 -343.375 C 346.03125 -354.65625 338.734375 -360.957031 327.453125 -362.28125 C 312.191406 -363.613281 298.585938 -354.65625 286.640625 -335.40625 C 274.703125 -316.164062 257.117188 -283.988281 233.890625 -238.875 L 233.890625 -213 C 233.234375 -187.78125 237.546875 -169.195312 246.828125 -157.25 C 256.117188 -145.3125 272.378906 -147.632812 295.609375 -164.21875 L 318.5 -133.375 L 155.265625 0 C 132.703125 -13.269531 113.957031 -34.335938 99.03125 -63.203125 C 84.101562 -92.066406 76.640625 -128.394531 76.640625 -172.1875 L 76.640625 -324.46875 C 75.972656 -355.65625 69.5 -375.394531 57.21875 -383.6875 C 44.945312 -391.976562 24.21875 -386.835938 -4.96875 -368.265625 L -23.890625 -402.09375 L 155.265625 -551.390625 C 175.171875 -536.796875 190.765625 -521.867188 202.046875 -506.609375 C 213.328125 -491.347656 221.453125 -473.265625 226.421875 -452.359375 C 231.398438 -431.460938 233.5625 -405.085938 232.90625 -373.234375 L 232.90625 -353.328125 C 254.800781 -390.484375 276.363281 -423.988281 297.59375 -453.84375 C 318.820312 -483.707031 340.550781 -507.429688 362.78125 -525.015625 C 385.007812 -542.597656 407.738281 -551.390625 430.96875 -551.390625 C 450.875 -552.054688 466.628906 -544.09375 478.234375 -527.5 C 489.847656 -510.914062 498.144531 -489.019531 503.125 -461.8125 C 508.101562 -434.613281 510.257812 -405.085938 509.59375 -373.234375 L 510.59375 -213 C 509.925781 -187.78125 514.234375 -169.195312 523.515625 -157.25 C 532.804688 -145.3125 549.066406 -147.632812 572.296875 -164.21875 Z M 572.296875 -164.21875 "/></g></g></g><g fill="#111111" fill-opacity="1"><g transform="translate(2440.841065, 802.384597)"><g><path d="M 507.59375 -162.234375 L 529.5 -134.359375 L 365.28125 0 C 354.65625 0 344.203125 -5.640625 333.921875 -16.921875 C 323.640625 -28.203125 314.847656 -42.300781 307.546875 -59.21875 C 300.242188 -76.132812 295.597656 -92.222656 293.609375 -107.484375 L 146.3125 0 C 119.101562 -0.664062 95.546875 -9.789062 75.640625 -27.375 C 55.734375 -44.957031 40.96875 -66.6875 31.34375 -92.5625 C 21.726562 -118.4375 18.578125 -142.988281 21.890625 -166.21875 C 29.859375 -217.96875 56.566406 -259.765625 102.015625 -291.609375 C 147.472656 -323.460938 203.707031 -349.015625 270.71875 -368.265625 C 260.101562 -385.515625 245.171875 -398.285156 225.921875 -406.578125 C 206.679688 -414.867188 185.613281 -419.347656 162.71875 -420.015625 C 139.832031 -420.679688 116.941406 -417.859375 94.046875 -411.546875 C 71.160156 -405.242188 50.425781 -396.457031 31.84375 -385.1875 L 11.9375 -416.03125 L 200.0625 -551.390625 C 229.25 -551.390625 258.109375 -549.398438 286.640625 -545.421875 C 315.171875 -541.441406 341.210938 -533.3125 364.765625 -521.03125 C 388.328125 -508.757812 407.238281 -490.515625 421.5 -466.296875 C 435.769531 -442.078125 443.238281 -410.0625 443.90625 -370.25 L 444.890625 -214.984375 C 444.234375 -189.109375 448.710938 -169.695312 458.328125 -156.75 C 467.953125 -143.8125 484.375 -145.640625 507.59375 -162.234375 Z M 223.9375 -118.4375 L 286.640625 -159.25 L 285.65625 -321.484375 C 253.800781 -309.535156 229.082031 -294.4375 211.5 -276.1875 C 193.914062 -257.945312 183.132812 -238.539062 179.15625 -217.96875 C 175.175781 -197.394531 177.164062 -178.148438 185.125 -160.234375 C 193.082031 -142.328125 206.019531 -128.394531 223.9375 -118.4375 Z M 223.9375 -118.4375 "/></g></g></g></g></g></svg>